<?xml version="1.0" encoding="UTF-8" standalone="no"?>
<!DOCTYPE svg PUBLIC "-//W3C//DTD SVG 1.1//EN"
 "http://www.w3.org/Graphics/SVG/1.1/DTD/svg11.dtd">
<!-- Generated by graphviz version 2.38.0 (20140413.2041)
 -->
<!-- Title: G Pages: 1 -->
<svg width="3091pt" height="1219pt"
 viewBox="0.00 0.00 3090.64 1219.00" xmlns="http://www.w3.org/2000/svg" xmlns:xlink="http://www.w3.org/1999/xlink">
<g id="graph0" class="graph" transform="scale(1 1) rotate(0) translate(4 1215)">
<title>G</title>
<polygon fill="white" stroke="none" points="-4,4 -4,-1215 3086.64,-1215 3086.64,4 -4,4"/>
<text text-anchor="middle" x="1541.32" y="-5.6" font-family="Times,serif" font-size="8.00">PhpDependencyAnalyse by Marco Muths (v0.5.0)</text>
<g id="clust1" class="cluster"><title>cluster_0</title>
<path fill="#ccccff" stroke="#000033" d="M815.612,-292C815.612,-292 3062.64,-292 3062.64,-292 3068.64,-292 3074.64,-298 3074.64,-304 3074.64,-304 3074.64,-797 3074.64,-797 3074.64,-803 3068.64,-809 3062.64,-809 3062.64,-809 815.612,-809 815.612,-809 809.612,-809 803.612,-803 803.612,-797 803.612,-797 803.612,-304 803.612,-304 803.612,-298 809.612,-292 815.612,-292"/>
<text text-anchor="middle" x="842.302" y="-793.8" font-family="Times,serif" font-size="14.00" fill="#000033">VinaiKopp</text>
</g>
<g id="clust2" class="cluster"><title>cluster_1</title>
<path fill="#ccccff" stroke="#000033" d="M19.2515,-637C19.2515,-637 426.429,-637 426.429,-637 432.429,-637 438.429,-643 438.429,-649 438.429,-649 438.429,-699 438.429,-699 438.429,-705 432.429,-711 426.429,-711 426.429,-711 19.2515,-711 19.2515,-711 13.2515,-711 7.25146,-705 7.25146,-699 7.25146,-699 7.25146,-649 7.25146,-649 7.25146,-643 13.2515,-637 19.2515,-637"/>
<text text-anchor="middle" x="223.276" y="-695.8" font-family="Times,serif" font-size="14.00" fill="#000033">VinaiKopp_PostCodeFilter_Block_Adminhtml_Postcodefilter_Edit_Form</text>
</g>
<g id="clust3" class="cluster"><title>cluster_2</title>
<path fill="#ccccff" stroke="#000033" d="M37.5864,-719C37.5864,-719 408.094,-719 408.094,-719 414.094,-719 420.094,-725 420.094,-731 420.094,-731 420.094,-781 420.094,-781 420.094,-787 414.094,-793 408.094,-793 408.094,-793 37.5864,-793 37.5864,-793 31.5864,-793 25.5864,-787 25.5864,-781 25.5864,-781 25.5864,-731 25.5864,-731 25.5864,-725 31.5864,-719 37.5864,-719"/>
<text text-anchor="middle" x="222.942" y="-777.8" font-family="Times,serif" font-size="14.00" fill="#000033">VinaiKopp_PostCodeFilter_Block_Adminhtml_Postcodefilter_Edit</text>
</g>
<g id="clust4" class="cluster"><title>cluster_3</title>
<path fill="#ccccff" stroke="#000033" d="M36.7539,-801C36.7539,-801 408.927,-801 408.927,-801 414.927,-801 420.927,-807 420.927,-813 420.927,-813 420.927,-863 420.927,-863 420.927,-869 414.927,-875 408.927,-875 408.927,-875 36.7539,-875 36.7539,-875 30.7539,-875 24.7539,-869 24.7539,-863 24.7539,-863 24.7539,-813 24.7539,-813 24.7539,-807 30.7539,-801 36.7539,-801"/>
<text text-anchor="middle" x="223.275" y="-859.8" font-family="Times,serif" font-size="14.00" fill="#000033">VinaiKopp_PostCodeFilter_Block_Adminhtml_Postcodefilter_Grid</text>
</g>
<g id="clust5" class="cluster"><title>cluster_4</title>
<path fill="#ccccff" stroke="#000033" d="M18.1431,-883C18.1431,-883 428.538,-883 428.538,-883 434.538,-883 440.538,-889 440.538,-895 440.538,-895 440.538,-945 440.538,-945 440.538,-951 434.538,-957 428.538,-957 428.538,-957 18.1431,-957 18.1431,-957 12.1431,-957 6.14307,-951 6.14307,-945 6.14307,-945 6.14307,-895 6.14307,-895 6.14307,-889 12.1431,-883 18.1431,-883"/>
<text text-anchor="middle" x="223.719" y="-941.8" font-family="Times,serif" font-size="14.00" fill="#000033">VinaiKopp_PostCodeFilter_Block_Adminhtml_Postcodefilter_New_Form</text>
</g>
<g id="clust6" class="cluster"><title>cluster_5</title>
<path fill="#ccccff" stroke="#000033" d="M36.478,-965C36.478,-965 410.203,-965 410.203,-965 416.203,-965 422.203,-971 422.203,-977 422.203,-977 422.203,-1027 422.203,-1027 422.203,-1033 416.203,-1039 410.203,-1039 410.203,-1039 36.478,-1039 36.478,-1039 30.478,-1039 24.478,-1033 24.478,-1027 24.478,-1027 24.478,-977 24.478,-977 24.478,-971 30.478,-965 36.478,-965"/>
<text text-anchor="middle" x="223.385" y="-1023.8" font-family="Times,serif" font-size="14.00" fill="#000033">VinaiKopp_PostCodeFilter_Block_Adminhtml_Postcodefilter_New</text>
</g>
<g id="clust7" class="cluster"><title>cluster_6</title>
<path fill="#ccccff" stroke="#000033" d="M53.4189,-1047C53.4189,-1047 393.262,-1047 393.262,-1047 399.262,-1047 405.262,-1053 405.262,-1059 405.262,-1059 405.262,-1109 405.262,-1109 405.262,-1115 399.262,-1121 393.262,-1121 393.262,-1121 53.4189,-1121 53.4189,-1121 47.4189,-1121 41.4189,-1115 41.4189,-1109 41.4189,-1109 41.4189,-1059 41.4189,-1059 41.4189,-1053 47.4189,-1047 53.4189,-1047"/>
<text text-anchor="middle" x="223.609" y="-1105.8" font-family="Times,serif" font-size="14.00" fill="#000033">VinaiKopp_PostCodeFilter_Block_Adminhtml_Postcodefilter</text>
</g>
<g id="clust8" class="cluster"><title>cluster_7</title>
<path fill="#ccccff" stroke="#000033" d="M513.681,-319C513.681,-319 735.612,-319 735.612,-319 741.612,-319 747.612,-325 747.612,-331 747.612,-331 747.612,-381 747.612,-381 747.612,-387 741.612,-393 735.612,-393 735.612,-393 513.681,-393 513.681,-393 507.681,-393 501.681,-387 501.681,-381 501.681,-381 501.681,-331 501.681,-331 501.681,-325 507.681,-319 513.681,-319"/>
<text text-anchor="middle" x="625.133" y="-377.8" font-family="Times,serif" font-size="14.00" fill="#000033">VinaiKopp_PostCodeFilter_Helper_Data</text>
</g>
<g id="clust9" class="cluster"><title>cluster_8</title>
<path fill="#ccccff" stroke="#000033" d="M100.037,-188C100.037,-188 345.644,-188 345.644,-188 351.644,-188 357.644,-194 357.644,-200 357.644,-200 357.644,-250 357.644,-250 357.644,-256 351.644,-262 345.644,-262 345.644,-262 100.037,-262 100.037,-262 94.0371,-262 88.0371,-256 88.0371,-250 88.0371,-250 88.0371,-200 88.0371,-200 88.0371,-194 94.0371,-188 100.037,-188"/>
<text text-anchor="middle" x="223.162" y="-246.8" font-family="Times,serif" font-size="14.00" fill="#000033">VinaiKopp_PostCodeFilter_Model_Observer</text>
</g>
<g id="clust10" class="cluster"><title>cluster_9</title>
<path fill="#ccccff" stroke="#000033" d="M552.435,-106C552.435,-106 696.858,-106 696.858,-106 702.858,-106 708.858,-112 708.858,-118 708.858,-118 708.858,-168 708.858,-168 708.858,-174 702.858,-180 696.858,-180 696.858,-180 552.435,-180 552.435,-180 546.435,-180 540.435,-174 540.435,-168 540.435,-168 540.435,-118 540.435,-118 540.435,-112 546.435,-106 552.435,-106"/>
<text text-anchor="middle" x="625.031" y="-164.8" font-family="Times,serif" font-size="14.00" fill="#000033">Mage_Sales_Model_Quote</text>
</g>
<g id="clust11" class="cluster"><title>cluster_10</title>
<path fill="#ccccff" stroke="#000033" d="M517.437,-24C517.437,-24 731.856,-24 731.856,-24 737.856,-24 743.856,-30 743.856,-36 743.856,-36 743.856,-86 743.856,-86 743.856,-92 737.856,-98 731.856,-98 731.856,-98 517.437,-98 517.437,-98 511.437,-98 505.437,-92 505.437,-86 505.437,-86 505.437,-36 505.437,-36 505.437,-30 511.437,-24 517.437,-24"/>
<text text-anchor="middle" x="625.03" y="-82.8" font-family="Times,serif" font-size="14.00" fill="#000033">Mage_Core_Controller_Response_Http</text>
</g>
<g id="clust12" class="cluster"><title>cluster_11</title>
<path fill="#ccccff" stroke="#000033" d="M525.548,-188C525.548,-188 722.745,-188 722.745,-188 728.745,-188 734.745,-194 734.745,-200 734.745,-200 734.745,-250 734.745,-250 734.745,-256 728.745,-262 722.745,-262 722.745,-262 525.548,-262 525.548,-262 519.548,-262 513.548,-256 513.548,-250 513.548,-250 513.548,-200 513.548,-200 513.548,-194 519.548,-188 525.548,-188"/>
<text text-anchor="middle" x="624.586" y="-246.8" font-family="Times,serif" font-size="14.00" fill="#000033">Mage_Sales_Model_Quote_Address</text>
</g>
<g id="clust13" class="cluster"><title>cluster_12</title>
<path fill="#ccccff" stroke="#000033" d="M61.542,-1129C61.542,-1129 384.139,-1129 384.139,-1129 390.139,-1129 396.139,-1135 396.139,-1141 396.139,-1141 396.139,-1191 396.139,-1191 396.139,-1197 390.139,-1203 384.139,-1203 384.139,-1203 61.542,-1203 61.542,-1203 55.542,-1203 49.542,-1197 49.542,-1191 49.542,-1191 49.542,-1141 49.542,-1141 49.542,-1135 55.542,-1129 61.542,-1129"/>
<text text-anchor="middle" x="223.16" y="-1187.8" font-family="Times,serif" font-size="14.00" fill="#000033">VinaiKopp_PostCodeFilter_Model_Resource_RuleStorage</text>
</g>
<g id="clust14" class="cluster"><title>cluster_13</title>
<path fill="#ccccff" stroke="#000033" d="M543.622,-1129C543.622,-1129 704.671,-1129 704.671,-1129 710.671,-1129 716.671,-1135 716.671,-1141 716.671,-1141 716.671,-1191 716.671,-1191 716.671,-1197 710.671,-1203 704.671,-1203 704.671,-1203 543.622,-1203 543.622,-1203 537.622,-1203 531.622,-1197 531.622,-1191 531.622,-1191 531.622,-1141 531.622,-1141 531.622,-1135 537.622,-1129 543.622,-1129"/>
<text text-anchor="middle" x="624.356" y="-1187.8" font-family="Times,serif" font-size="14.00" fill="#000033">Varien_Db_Adapter_Interface</text>
</g>
<g id="clust15" class="cluster"><title>cluster_14</title>
<path fill="#ccccff" stroke="#000033" d="M83.0889,-312C83.0889,-312 362.592,-312 362.592,-312 368.592,-312 374.592,-318 374.592,-324 374.592,-324 374.592,-374 374.592,-374 374.592,-380 368.592,-386 362.592,-386 362.592,-386 83.0889,-386 83.0889,-386 77.0889,-386 71.0889,-380 71.0889,-374 71.0889,-374 71.0889,-324 71.0889,-324 71.0889,-318 77.0889,-312 83.0889,-312"/>
<text text-anchor="middle" x="222.941" y="-370.8" font-family="Times,serif" font-size="14.00" fill="#000033">VinaiKopp_PostCodeFilter_Model_RuleCollection</text>
</g>
<g id="clust16" class="cluster"><title>cluster_15</title>
<path fill="#ccccff" stroke="#000033" d="M12,-555C12,-555 434.681,-555 434.681,-555 440.681,-555 446.681,-561 446.681,-567 446.681,-567 446.681,-617 446.681,-617 446.681,-623 440.681,-629 434.681,-629 434.681,-629 12,-629 12,-629 6,-629 0,-623 0,-617 0,-617 0,-567 0,-567 0,-561 6,-555 12,-555"/>
<text text-anchor="middle" x="223.376" y="-613.8" font-family="Times,serif" font-size="14.00" fill="#000033">VinaiKopp_PostCodeFilter_Adminhtml_Vinaikopp_PostcodefilterController</text>
</g>
<g id="clust17" class="cluster"><title>cluster_16</title>
<path fill="#ccccff" stroke="#000033" d="M72.0371,-394C72.0371,-394 373.644,-394 373.644,-394 379.644,-394 385.644,-400 385.644,-406 385.644,-406 385.644,-456 385.644,-456 385.644,-462 379.644,-468 373.644,-468 373.644,-468 72.0371,-468 72.0371,-468 66.0371,-468 60.0371,-462 60.0371,-456 60.0371,-456 60.0371,-406 60.0371,-406 60.0371,-400 66.0371,-394 72.0371,-394"/>
<text text-anchor="middle" x="223.162" y="-452.8" font-family="Times,serif" font-size="14.00" fill="#000033">VinaiKopp_PostCodeFilter_Frontend_CheckController</text>
</g>
<!-- VinaiKopp\\PostCodeFilter\\Exceptions\\InvalidCountryException -->
<g id="node1" class="node"><title>VinaiKopp\\PostCodeFilter\\Exceptions\\InvalidCountryException</title>
<path fill="#9999cc" stroke="black" d="M2668.52,-532C2668.52,-532 2418,-532 2418,-532 2412,-532 2406,-526 2406,-520 2406,-520 2406,-508 2406,-508 2406,-502 2412,-496 2418,-496 2418,-496 2668.52,-496 2668.52,-496 2674.52,-496 2680.52,-502 2680.52,-508 2680.52,-508 2680.52,-520 2680.52,-520 2680.52,-526 2674.52,-532 2668.52,-532"/>
<text text-anchor="middle" x="2543.26" y="-511" font-family="Times,serif" font-size="10.00" fill="#000033">VinaiKopp\PostCodeFilter\Exceptions\InvalidCountryException</text>
</g>
<!-- VinaiKopp\\PostCodeFilter\\Exceptions\\InvalidCustomerGroupIdException -->
<g id="node2" class="node"><title>VinaiKopp\\PostCodeFilter\\Exceptions\\InvalidCustomerGroupIdException</title>
<path fill="#9999cc" stroke="black" d="M3054.77,-467C3054.77,-467 2764.26,-467 2764.26,-467 2758.26,-467 2752.26,-461 2752.26,-455 2752.26,-455 2752.26,-443 2752.26,-443 2752.26,-437 2758.26,-431 2764.26,-431 2764.26,-431 3054.77,-431 3054.77,-431 3060.77,-431 3066.77,-437 3066.77,-443 3066.77,-443 3066.77,-455 3066.77,-455 3066.77,-461 3060.77,-467 3054.77,-467"/>
<text text-anchor="middle" x="2909.51" y="-446" font-family="Times,serif" font-size="10.00" fill="#000033">VinaiKopp\PostCodeFilter\Exceptions\InvalidCustomerGroupIdException</text>
</g>
<!-- VinaiKopp\\PostCodeFilter\\Exceptions\\InvalidPostCodeException -->
<g id="node3" class="node"><title>VinaiKopp\\PostCodeFilter\\Exceptions\\InvalidPostCodeException</title>
<path fill="#9999cc" stroke="black" d="M3037.34,-702C3037.34,-702 2781.69,-702 2781.69,-702 2775.69,-702 2769.69,-696 2769.69,-690 2769.69,-690 2769.69,-678 2769.69,-678 2769.69,-672 2775.69,-666 2781.69,-666 2781.69,-666 3037.34,-666 3037.34,-666 3043.34,-666 3049.34,-672 3049.34,-678 3049.34,-678 3049.34,-690 3049.34,-690 3049.34,-696 3043.34,-702 3037.34,-702"/>
<text text-anchor="middle" x="2909.51" y="-681" font-family="Times,serif" font-size="10.00" fill="#000033">VinaiKopp\PostCodeFilter\Exceptions\InvalidPostCodeException</text>
</g>
<!-- VinaiKopp\\PostCodeFilter\\Exceptions\\NonMatchingRecordInResultException -->
<g id="node4" class="node"><title>VinaiKopp\\PostCodeFilter\\Exceptions\\NonMatchingRecordInResultException</title>
<path fill="#9999cc" stroke="black" d="M1964.41,-415C1964.41,-415 1656.47,-415 1656.47,-415 1650.47,-415 1644.47,-409 1644.47,-403 1644.47,-403 1644.47,-391 1644.47,-391 1644.47,-385 1650.47,-379 1656.47,-379 1656.47,-379 1964.41,-379 1964.41,-379 1970.41,-379 1976.41,-385 1976.41,-391 1976.41,-391 1976.41,-403 1976.41,-403 1976.41,-409 1970.41,-415 1964.41,-415"/>
<text text-anchor="middle" x="1810.44" y="-394" font-family="Times,serif" font-size="10.00" fill="#000033">VinaiKopp\PostCodeFilter\Exceptions\NonMatchingRecordInResultException</text>
</g>
<!-- VinaiKopp\\PostCodeFilter\\Exceptions\\RuleDoesNotExistException -->
<g id="node5" class="node"><title>VinaiKopp\\PostCodeFilter\\Exceptions\\RuleDoesNotExistException</title>
<path fill="#9999cc" stroke="black" d="M1515.79,-639C1515.79,-639 1251.48,-639 1251.48,-639 1245.48,-639 1239.48,-633 1239.48,-627 1239.48,-627 1239.48,-615 1239.48,-615 1239.48,-609 1245.48,-603 1251.48,-603 1251.48,-603 1515.79,-603 1515.79,-603 1521.79,-603 1527.79,-609 1527.79,-615 1527.79,-615 1527.79,-627 1527.79,-627 1527.79,-633 1521.79,-639 1515.79,-639"/>
<text text-anchor="middle" x="1383.64" y="-618" font-family="Times,serif" font-size="10.00" fill="#000033">VinaiKopp\PostCodeFilter\Exceptions\RuleDoesNotExistException</text>
</g>
<!-- VinaiKopp\\PostCodeFilter\\Exceptions\\RuleForGroupAndCountryAlreadyExistsException -->
<g id="node6" class="node"><title>VinaiKopp\\PostCodeFilter\\Exceptions\\RuleForGroupAndCountryAlreadyExistsException</title>
<path fill="#9999cc" stroke="black" d="M1560.78,-752C1560.78,-752 1206.49,-752 1206.49,-752 1200.49,-752 1194.49,-746 1194.49,-740 1194.49,-740 1194.49,-728 1194.49,-728 1194.49,-722 1200.49,-716 1206.49,-716 1206.49,-716 1560.78,-716 1560.78,-716 1566.78,-716 1572.78,-722 1572.78,-728 1572.78,-728 1572.78,-740 1572.78,-740 1572.78,-746 1566.78,-752 1560.78,-752"/>
<text text-anchor="middle" x="1383.64" y="-731" font-family="Times,serif" font-size="10.00" fill="#000033">VinaiKopp\PostCodeFilter\Exceptions\RuleForGroupAndCountryAlreadyExistsException</text>
</g>
<!-- VinaiKopp\\PostCodeFilter\\ReadModel\\Rule -->
<g id="node7" class="node"><title>VinaiKopp\\PostCodeFilter\\ReadModel\\Rule</title>
<path fill="#9999cc" stroke="black" d="M1895.17,-528C1895.17,-528 1725.72,-528 1725.72,-528 1719.72,-528 1713.72,-522 1713.72,-516 1713.72,-516 1713.72,-504 1713.72,-504 1713.72,-498 1719.72,-492 1725.72,-492 1725.72,-492 1895.17,-492 1895.17,-492 1901.17,-492 1907.17,-498 1907.17,-504 1907.17,-504 1907.17,-516 1907.17,-516 1907.17,-522 1901.17,-528 1895.17,-528"/>
<text text-anchor="middle" x="1810.44" y="-507" font-family="Times,serif" font-size="10.00" fill="#000033">VinaiKopp\PostCodeFilter\ReadModel\Rule</text>
</g>
<!-- VinaiKopp\\PostCodeFilter\\RuleComponents\\Country -->
<g id="node8" class="node"><title>VinaiKopp\\PostCodeFilter\\RuleComponents\\Country</title>
<path fill="#9999cc" stroke="black" d="M2294.56,-532C2294.56,-532 2087.75,-532 2087.75,-532 2081.75,-532 2075.75,-526 2075.75,-520 2075.75,-520 2075.75,-508 2075.75,-508 2075.75,-502 2081.75,-496 2087.75,-496 2087.75,-496 2294.56,-496 2294.56,-496 2300.56,-496 2306.56,-502 2306.56,-508 2306.56,-508 2306.56,-520 2306.56,-520 2306.56,-526 2300.56,-532 2294.56,-532"/>
<text text-anchor="middle" x="2191.15" y="-511" font-family="Times,serif" font-size="10.00" fill="#000033">VinaiKopp\PostCodeFilter\RuleComponents\Country</text>
</g>
<!-- VinaiKopp\\PostCodeFilter\\ReadModel\\Rule&#45;&gt;VinaiKopp\\PostCodeFilter\\RuleComponents\\Country -->
<g id="edge1" class="edge"><title>VinaiKopp\\PostCodeFilter\\ReadModel\\Rule&#45;&gt;VinaiKopp\\PostCodeFilter\\RuleComponents\\Country</title>
<path fill="none" stroke="#999999" d="M1907.5,-511.015C1956.76,-511.535 2017.27,-512.174 2069.64,-512.727"/>
<polygon fill="#999999" stroke="#999999" points="2069.64,-514.827 2075.66,-512.791 2069.68,-510.627 2069.64,-514.827"/>
</g>
<!-- VinaiKopp\\PostCodeFilter\\RuleComponents\\CustomerGroupIdList -->
<g id="node9" class="node"><title>VinaiKopp\\PostCodeFilter\\RuleComponents\\CustomerGroupIdList</title>
<path fill="#9999cc" stroke="black" d="M2322.1,-580C2322.1,-580 2060.2,-580 2060.2,-580 2054.2,-580 2048.2,-574 2048.2,-568 2048.2,-568 2048.2,-556 2048.2,-556 2048.2,-550 2054.2,-544 2060.2,-544 2060.2,-544 2322.1,-544 2322.1,-544 2328.1,-544 2334.1,-550 2334.1,-556 2334.1,-556 2334.1,-568 2334.1,-568 2334.1,-574 2328.1,-580 2322.1,-580"/>
<text text-anchor="middle" x="2191.15" y="-559" font-family="Times,serif" font-size="10.00" fill="#000033">VinaiKopp\PostCodeFilter\RuleComponents\CustomerGroupIdList</text>
</g>
<!-- VinaiKopp\\PostCodeFilter\\ReadModel\\Rule&#45;&gt;VinaiKopp\\PostCodeFilter\\RuleComponents\\CustomerGroupIdList -->
<g id="edge2" class="edge"><title>VinaiKopp\\PostCodeFilter\\ReadModel\\Rule&#45;&gt;VinaiKopp\\PostCodeFilter\\RuleComponents\\CustomerGroupIdList</title>
<path fill="none" stroke="#999999" d="M1907.5,-523.189C1951.52,-529.234 2004.52,-536.511 2052.67,-543.122"/>
<polygon fill="#999999" stroke="#999999" points="2052.59,-545.231 2058.82,-543.967 2053.16,-541.07 2052.59,-545.231"/>
</g>
<!-- VinaiKopp\\PostCodeFilter\\RuleComponents\\PostCodeList -->
<g id="node10" class="node"><title>VinaiKopp\\PostCodeFilter\\RuleComponents\\PostCodeList</title>
<path fill="#9999cc" stroke="black" d="M2304.67,-666C2304.67,-666 2077.63,-666 2077.63,-666 2071.63,-666 2065.63,-660 2065.63,-654 2065.63,-654 2065.63,-642 2065.63,-642 2065.63,-636 2071.63,-630 2077.63,-630 2077.63,-630 2304.67,-630 2304.67,-630 2310.67,-630 2316.67,-636 2316.67,-642 2316.67,-642 2316.67,-654 2316.67,-654 2316.67,-660 2310.67,-666 2304.67,-666"/>
<text text-anchor="middle" x="2191.15" y="-645" font-family="Times,serif" font-size="10.00" fill="#000033">VinaiKopp\PostCodeFilter\RuleComponents\PostCodeList</text>
</g>
<!-- VinaiKopp\\PostCodeFilter\\ReadModel\\Rule&#45;&gt;VinaiKopp\\PostCodeFilter\\RuleComponents\\PostCodeList -->
<g id="edge3" class="edge"><title>VinaiKopp\\PostCodeFilter\\ReadModel\\Rule&#45;&gt;VinaiKopp\\PostCodeFilter\\RuleComponents\\PostCodeList</title>
<path fill="none" stroke="#999999" d="M1907.53,-521.531C1930.46,-525.903 1954.54,-531.875 1976.18,-540 2011.07,-553.104 2015.18,-565.661 2048.18,-583 2078.76,-599.071 2114.07,-615.249 2141.83,-627.445"/>
<polygon fill="#999999" stroke="#999999" points="2141.3,-629.503 2147.64,-629.985 2142.98,-625.656 2141.3,-629.503"/>
</g>
<!-- VinaiKopp\\PostCodeFilter\\RuleComponents\\Country&#45;&gt;VinaiKopp\\PostCodeFilter\\Exceptions\\InvalidCountryException -->
<g id="edge19" class="edge"><title>VinaiKopp\\PostCodeFilter\\RuleComponents\\Country&#45;&gt;VinaiKopp\\PostCodeFilter\\Exceptions\\InvalidCountryException</title>
<path fill="none" stroke="#999999" d="M2306.79,-514C2336.52,-514 2368.89,-514 2399.86,-514"/>
<polygon fill="#999999" stroke="#999999" points="2400.03,-516.1 2406.03,-514 2400.03,-511.9 2400.03,-516.1"/>
</g>
<!-- VinaiKopp\\PostCodeFilter\\RuleComponents\\CustomerGroupId -->
<g id="node12" class="node"><title>VinaiKopp\\PostCodeFilter\\RuleComponents\\CustomerGroupId</title>
<path fill="#9999cc" stroke="black" d="M2666.65,-467C2666.65,-467 2419.86,-467 2419.86,-467 2413.86,-467 2407.86,-461 2407.86,-455 2407.86,-455 2407.86,-443 2407.86,-443 2407.86,-437 2413.86,-431 2419.86,-431 2419.86,-431 2666.65,-431 2666.65,-431 2672.65,-431 2678.65,-437 2678.65,-443 2678.65,-443 2678.65,-455 2678.65,-455 2678.65,-461 2672.65,-467 2666.65,-467"/>
<text text-anchor="middle" x="2543.26" y="-446" font-family="Times,serif" font-size="10.00" fill="#000033">VinaiKopp\PostCodeFilter\RuleComponents\CustomerGroupId</text>
</g>
<!-- VinaiKopp\\PostCodeFilter\\RuleComponents\\CustomerGroupIdList&#45;&gt;VinaiKopp\\PostCodeFilter\\RuleComponents\\CustomerGroupId -->
<g id="edge21" class="edge"><title>VinaiKopp\\PostCodeFilter\\RuleComponents\\CustomerGroupIdList&#45;&gt;VinaiKopp\\PostCodeFilter\\RuleComponents\\CustomerGroupId</title>
<path fill="none" stroke="#999999" d="M2306.28,-543.976C2315.82,-541.363 2325.21,-538.387 2334.13,-535 2368.97,-521.76 2372.13,-507.272 2406.13,-492 2425.86,-483.135 2447.97,-475.316 2468.53,-468.861"/>
<polygon fill="#999999" stroke="#999999" points="2469.18,-470.859 2474.29,-467.076 2467.93,-466.847 2469.18,-470.859"/>
</g>
<!-- VinaiKopp\\PostCodeFilter\\RuleComponents\\PostCode -->
<g id="node13" class="node"><title>VinaiKopp\\PostCodeFilter\\RuleComponents\\PostCode</title>
<path fill="#9999cc" stroke="black" d="M2649.22,-702C2649.22,-702 2437.29,-702 2437.29,-702 2431.29,-702 2425.29,-696 2425.29,-690 2425.29,-690 2425.29,-678 2425.29,-678 2425.29,-672 2431.29,-666 2437.29,-666 2437.29,-666 2649.22,-666 2649.22,-666 2655.22,-666 2661.22,-672 2661.22,-678 2661.22,-678 2661.22,-690 2661.22,-690 2661.22,-696 2655.22,-702 2649.22,-702"/>
<text text-anchor="middle" x="2543.26" y="-681" font-family="Times,serif" font-size="10.00" fill="#000033">VinaiKopp\PostCodeFilter\RuleComponents\PostCode</text>
</g>
<!-- VinaiKopp\\PostCodeFilter\\RuleComponents\\PostCodeList&#45;&gt;VinaiKopp\\PostCodeFilter\\RuleComponents\\PostCode -->
<g id="edge23" class="edge"><title>VinaiKopp\\PostCodeFilter\\RuleComponents\\PostCodeList&#45;&gt;VinaiKopp\\PostCodeFilter\\RuleComponents\\PostCode</title>
<path fill="none" stroke="#999999" d="M2317.07,-660.844C2350.25,-664.257 2386.06,-667.939 2419.15,-671.341"/>
<polygon fill="#999999" stroke="#999999" points="2419.11,-673.448 2425.29,-671.973 2419.54,-669.27 2419.11,-673.448"/>
</g>
<!-- VinaiKopp\\PostCodeFilter\\ReadModel\\RuleFound -->
<g id="node11" class="node"><title>VinaiKopp\\PostCodeFilter\\ReadModel\\RuleFound</title>
<path fill="#9999cc" stroke="black" d="M1908.23,-752C1908.23,-752 1712.66,-752 1712.66,-752 1706.66,-752 1700.66,-746 1700.66,-740 1700.66,-740 1700.66,-728 1700.66,-728 1700.66,-722 1706.66,-716 1712.66,-716 1712.66,-716 1908.23,-716 1908.23,-716 1914.23,-716 1920.23,-722 1920.23,-728 1920.23,-728 1920.23,-740 1920.23,-740 1920.23,-746 1914.23,-752 1908.23,-752"/>
<text text-anchor="middle" x="1810.44" y="-731" font-family="Times,serif" font-size="10.00" fill="#000033">VinaiKopp\PostCodeFilter\ReadModel\RuleFound</text>
</g>
<!-- VinaiKopp\\PostCodeFilter\\ReadModel\\RuleFound&#45;&gt;VinaiKopp\\PostCodeFilter\\RuleComponents\\Country -->
<g id="edge5" class="edge"><title>VinaiKopp\\PostCodeFilter\\ReadModel\\RuleFound&#45;&gt;VinaiKopp\\PostCodeFilter\\RuleComponents\\Country</title>
<path fill="none" stroke="#999999" d="M1920.14,-735.568C1940.28,-731.593 1960.03,-724.368 1976.18,-712 2041.97,-661.613 1983.62,-591.963 2048.18,-540 2054.92,-534.574 2062.42,-530.139 2070.36,-526.526"/>
<polygon fill="#999999" stroke="#999999" points="2071.23,-528.439 2075.93,-524.154 2069.58,-524.576 2071.23,-528.439"/>
</g>
<!-- VinaiKopp\\PostCodeFilter\\ReadModel\\RuleFound&#45;&gt;VinaiKopp\\PostCodeFilter\\RuleComponents\\CustomerGroupIdList -->
<g id="edge6" class="edge"><title>VinaiKopp\\PostCodeFilter\\ReadModel\\RuleFound&#45;&gt;VinaiKopp\\PostCodeFilter\\RuleComponents\\CustomerGroupIdList</title>
<path fill="none" stroke="#999999" d="M1920.11,-731.06C1939.6,-727.362 1959.11,-721.393 1976.18,-712 2019.84,-687.958 2008.45,-656.114 2048.18,-626 2072.62,-607.473 2103.27,-592.799 2129.84,-582.201"/>
<polygon fill="#999999" stroke="#999999" points="2130.62,-584.149 2135.44,-580.002 2129.09,-580.24 2130.62,-584.149"/>
</g>
<!-- VinaiKopp\\PostCodeFilter\\ReadModel\\RuleFound&#45;&gt;VinaiKopp\\PostCodeFilter\\RuleComponents\\PostCodeList -->
<g id="edge7" class="edge"><title>VinaiKopp\\PostCodeFilter\\ReadModel\\RuleFound&#45;&gt;VinaiKopp\\PostCodeFilter\\RuleComponents\\PostCodeList</title>
<path fill="none" stroke="#999999" d="M1920.41,-721.92C1939.1,-719.143 1958.26,-715.85 1976.18,-712 2029.76,-700.484 2089.41,-682.173 2132.08,-668.082"/>
<polygon fill="#999999" stroke="#999999" points="2132.96,-670.005 2137.99,-666.123 2131.64,-666.019 2132.96,-670.005"/>
</g>
<!-- VinaiKopp\\PostCodeFilter\\ReadModel\\RuleFound&#45;&gt;VinaiKopp\\PostCodeFilter\\RuleComponents\\CustomerGroupId -->
<g id="edge4" class="edge"><title>VinaiKopp\\PostCodeFilter\\ReadModel\\RuleFound&#45;&gt;VinaiKopp\\PostCodeFilter\\RuleComponents\\CustomerGroupId</title>
<path fill="none" stroke="#999999" d="M1920.15,-720.125C1960.37,-715.018 2006.35,-709.21 2048.18,-704 2111.7,-696.087 2283.28,-707.903 2334.13,-669 2401.57,-617.393 2343.71,-549.59 2406.13,-492 2416.33,-482.588 2428.58,-475.236 2441.5,-469.493"/>
<polygon fill="#999999" stroke="#999999" points="2442.37,-471.406 2447.07,-467.129 2440.73,-467.539 2442.37,-471.406"/>
</g>
<!-- VinaiKopp\\PostCodeFilter\\ReadModel\\RuleFound&#45;&gt;VinaiKopp\\PostCodeFilter\\RuleComponents\\PostCode -->
<g id="edge8" class="edge"><title>VinaiKopp\\PostCodeFilter\\ReadModel\\RuleFound&#45;&gt;VinaiKopp\\PostCodeFilter\\RuleComponents\\PostCode</title>
<path fill="none" stroke="#999999" d="M1920.1,-727.726C2025.85,-721.481 2191.07,-711.358 2334.13,-701 2361.52,-699.016 2390.94,-696.718 2418.77,-694.464"/>
<polygon fill="#999999" stroke="#999999" points="2419.25,-696.533 2425.06,-693.954 2418.91,-692.346 2419.25,-696.533"/>
</g>
<!-- VinaiKopp\\PostCodeFilter\\RuleComponents\\CustomerGroupId&#45;&gt;VinaiKopp\\PostCodeFilter\\Exceptions\\InvalidCustomerGroupIdException -->
<g id="edge20" class="edge"><title>VinaiKopp\\PostCodeFilter\\RuleComponents\\CustomerGroupId&#45;&gt;VinaiKopp\\PostCodeFilter\\Exceptions\\InvalidCustomerGroupIdException</title>
<path fill="none" stroke="#999999" d="M2678.6,-449C2700.56,-449 2723.52,-449 2746.08,-449"/>
<polygon fill="#999999" stroke="#999999" points="2746.11,-451.1 2752.11,-449 2746.11,-446.9 2746.11,-451.1"/>
</g>
<!-- VinaiKopp\\PostCodeFilter\\RuleComponents\\PostCode&#45;&gt;VinaiKopp\\PostCodeFilter\\Exceptions\\InvalidPostCodeException -->
<g id="edge22" class="edge"><title>VinaiKopp\\PostCodeFilter\\RuleComponents\\PostCode&#45;&gt;VinaiKopp\\PostCodeFilter\\Exceptions\\InvalidPostCodeException</title>
<path fill="none" stroke="#999999" d="M2661.26,-684C2693.68,-684 2729.26,-684 2763.08,-684"/>
<polygon fill="#999999" stroke="#999999" points="2763.37,-686.1 2769.37,-684 2763.37,-681.9 2763.37,-686.1"/>
</g>
<!-- VinaiKopp\\PostCodeFilter\\ReadModel\\RuleNotFound -->
<g id="node14" class="node"><title>VinaiKopp\\PostCodeFilter\\ReadModel\\RuleNotFound</title>
<path fill="#9999cc" stroke="black" d="M1915.73,-623C1915.73,-623 1705.16,-623 1705.16,-623 1699.16,-623 1693.16,-617 1693.16,-611 1693.16,-611 1693.16,-599 1693.16,-599 1693.16,-593 1699.16,-587 1705.16,-587 1705.16,-587 1915.73,-587 1915.73,-587 1921.73,-587 1927.73,-593 1927.73,-599 1927.73,-599 1927.73,-611 1927.73,-611 1927.73,-617 1921.73,-623 1915.73,-623"/>
<text text-anchor="middle" x="1810.44" y="-602" font-family="Times,serif" font-size="10.00" fill="#000033">VinaiKopp\PostCodeFilter\ReadModel\RuleNotFound</text>
</g>
<!-- VinaiKopp\\PostCodeFilter\\ReadModel\\RuleNotFound&#45;&gt;VinaiKopp\\PostCodeFilter\\RuleComponents\\Country -->
<g id="edge9" class="edge"><title>VinaiKopp\\PostCodeFilter\\ReadModel\\RuleNotFound&#45;&gt;VinaiKopp\\PostCodeFilter\\RuleComponents\\Country</title>
<path fill="none" stroke="#999999" d="M1927.6,-595.523C1944.16,-592.439 1960.78,-588.368 1976.18,-583 2011.37,-570.726 2013.29,-553.121 2048.18,-540 2055.05,-537.416 2062.21,-535.082 2069.49,-532.976"/>
<polygon fill="#999999" stroke="#999999" points="2070.43,-534.895 2075.64,-531.26 2069.3,-530.85 2070.43,-534.895"/>
</g>
<!-- VinaiKopp\\PostCodeFilter\\ReadModel\\RuleNotFound&#45;&gt;VinaiKopp\\PostCodeFilter\\RuleComponents\\CustomerGroupIdList -->
<g id="edge10" class="edge"><title>VinaiKopp\\PostCodeFilter\\ReadModel\\RuleNotFound&#45;&gt;VinaiKopp\\PostCodeFilter\\RuleComponents\\CustomerGroupIdList</title>
<path fill="none" stroke="#999999" d="M1927.64,-591.806C1963.76,-587.705 2004.07,-583.128 2042.06,-578.815"/>
<polygon fill="#999999" stroke="#999999" points="2042.41,-580.889 2048.13,-578.125 2041.93,-576.716 2042.41,-580.889"/>
</g>
<!-- VinaiKopp\\PostCodeFilter\\ReadModel\\RuleNotFound&#45;&gt;VinaiKopp\\PostCodeFilter\\RuleComponents\\PostCodeList -->
<g id="edge11" class="edge"><title>VinaiKopp\\PostCodeFilter\\ReadModel\\RuleNotFound&#45;&gt;VinaiKopp\\PostCodeFilter\\RuleComponents\\PostCodeList</title>
<path fill="none" stroke="#999999" d="M1927.64,-618.194C1969.38,-622.933 2016.72,-628.309 2059.6,-633.177"/>
<polygon fill="#999999" stroke="#999999" points="2059.42,-635.27 2065.62,-633.861 2059.9,-631.097 2059.42,-635.27"/>
</g>
<!-- VinaiKopp\\PostCodeFilter\\ReadModel\\RuleReader -->
<g id="node15" class="node"><title>VinaiKopp\\PostCodeFilter\\ReadModel\\RuleReader</title>
<path fill="#9999cc" stroke="black" d="M1482.68,-542C1482.68,-542 1284.6,-542 1284.6,-542 1278.6,-542 1272.6,-536 1272.6,-530 1272.6,-530 1272.6,-518 1272.6,-518 1272.6,-512 1278.6,-506 1284.6,-506 1284.6,-506 1482.68,-506 1482.68,-506 1488.68,-506 1494.68,-512 1494.68,-518 1494.68,-518 1494.68,-530 1494.68,-530 1494.68,-536 1488.68,-542 1482.68,-542"/>
<text text-anchor="middle" x="1383.64" y="-521" font-family="Times,serif" font-size="10.00" fill="#000033">VinaiKopp\PostCodeFilter\ReadModel\RuleReader</text>
</g>
<!-- VinaiKopp\\PostCodeFilter\\ReadModel\\RuleReader&#45;&gt;VinaiKopp\\PostCodeFilter\\ReadModel\\Rule -->
<g id="edge13" class="edge"><title>VinaiKopp\\PostCodeFilter\\ReadModel\\RuleReader&#45;&gt;VinaiKopp\\PostCodeFilter\\ReadModel\\Rule</title>
<path fill="none" stroke="#999999" d="M1494.86,-520.367C1560.47,-518.205 1643.16,-515.48 1707.29,-513.366"/>
<polygon fill="#999999" stroke="#999999" points="1707.51,-515.46 1713.44,-513.164 1707.38,-511.263 1707.51,-515.46"/>
</g>
<!-- VinaiKopp\\PostCodeFilter\\ReadModel\\RuleSpecByCountryAndGroupId -->
<g id="node16" class="node"><title>VinaiKopp\\PostCodeFilter\\ReadModel\\RuleSpecByCountryAndGroupId</title>
<path fill="#9999cc" stroke="black" d="M1952.66,-467C1952.66,-467 1668.23,-467 1668.23,-467 1662.23,-467 1656.23,-461 1656.23,-455 1656.23,-455 1656.23,-443 1656.23,-443 1656.23,-437 1662.23,-431 1668.23,-431 1668.23,-431 1952.66,-431 1952.66,-431 1958.66,-431 1964.66,-437 1964.66,-443 1964.66,-443 1964.66,-455 1964.66,-455 1964.66,-461 1958.66,-467 1952.66,-467"/>
<text text-anchor="middle" x="1810.44" y="-446" font-family="Times,serif" font-size="10.00" fill="#000033">VinaiKopp\PostCodeFilter\ReadModel\RuleSpecByCountryAndGroupId</text>
</g>
<!-- VinaiKopp\\PostCodeFilter\\ReadModel\\RuleReader&#45;&gt;VinaiKopp\\PostCodeFilter\\ReadModel\\RuleSpecByCountryAndGroupId -->
<g id="edge12" class="edge"><title>VinaiKopp\\PostCodeFilter\\ReadModel\\RuleReader&#45;&gt;VinaiKopp\\PostCodeFilter\\ReadModel\\RuleSpecByCountryAndGroupId</title>
<path fill="none" stroke="#999999" d="M1486.66,-505.988C1551.47,-494.545 1635.28,-479.749 1701.25,-468.101"/>
<polygon fill="#999999" stroke="#999999" points="1701.63,-470.167 1707.17,-467.055 1700.9,-466.031 1701.63,-470.167"/>
</g>
<!-- VinaiKopp\\PostCodeFilter\\ReadModel\\RuleSpecByCountryAndGroupIds -->
<g id="node17" class="node"><title>VinaiKopp\\PostCodeFilter\\ReadModel\\RuleSpecByCountryAndGroupIds</title>
<path fill="#9999cc" stroke="black" d="M1954.55,-580C1954.55,-580 1666.33,-580 1666.33,-580 1660.33,-580 1654.33,-574 1654.33,-568 1654.33,-568 1654.33,-556 1654.33,-556 1654.33,-550 1660.33,-544 1666.33,-544 1666.33,-544 1954.55,-544 1954.55,-544 1960.55,-544 1966.55,-550 1966.55,-556 1966.55,-556 1966.55,-568 1966.55,-568 1966.55,-574 1960.55,-580 1954.55,-580"/>
<text text-anchor="middle" x="1810.44" y="-559" font-family="Times,serif" font-size="10.00" fill="#000033">VinaiKopp\PostCodeFilter\ReadModel\RuleSpecByCountryAndGroupIds</text>
</g>
<!-- VinaiKopp\\PostCodeFilter\\ReadModel\\RuleReader&#45;&gt;VinaiKopp\\PostCodeFilter\\ReadModel\\RuleSpecByCountryAndGroupIds -->
<g id="edge14" class="edge"><title>VinaiKopp\\PostCodeFilter\\ReadModel\\RuleReader&#45;&gt;VinaiKopp\\PostCodeFilter\\ReadModel\\RuleSpecByCountryAndGroupIds</title>
<path fill="none" stroke="#999999" d="M1494.86,-533.86C1541.52,-538.034 1596.81,-542.98 1647.92,-547.552"/>
<polygon fill="#999999" stroke="#999999" points="1647.97,-549.664 1654.13,-548.107 1648.35,-545.481 1647.97,-549.664"/>
</g>
<!-- VinaiKopp\\PostCodeFilter\\ReadModel\\RuleSpecByCountryAndGroupId&#45;&gt;VinaiKopp\\PostCodeFilter\\RuleComponents\\Country -->
<g id="edge16" class="edge"><title>VinaiKopp\\PostCodeFilter\\ReadModel\\RuleSpecByCountryAndGroupId&#45;&gt;VinaiKopp\\PostCodeFilter\\RuleComponents\\Country</title>
<path fill="none" stroke="#999999" d="M1939.24,-467.044C1951.73,-468.981 1964.21,-470.982 1976.18,-473 2014.96,-479.538 2057.54,-487.529 2094.43,-494.714"/>
<polygon fill="#999999" stroke="#999999" points="2094.49,-496.864 2100.78,-495.953 2095.29,-492.742 2094.49,-496.864"/>
</g>
<!-- VinaiKopp\\PostCodeFilter\\ReadModel\\RuleSpecByCountryAndGroupId&#45;&gt;VinaiKopp\\PostCodeFilter\\RuleComponents\\CustomerGroupId -->
<g id="edge15" class="edge"><title>VinaiKopp\\PostCodeFilter\\ReadModel\\RuleSpecByCountryAndGroupId&#45;&gt;VinaiKopp\\PostCodeFilter\\RuleComponents\\CustomerGroupId</title>
<path fill="none" stroke="#999999" d="M1965.09,-449C2093.96,-449 2276.48,-449 2401.57,-449"/>
<polygon fill="#999999" stroke="#999999" points="2401.85,-451.1 2407.85,-449 2401.85,-446.9 2401.85,-451.1"/>
</g>
<!-- VinaiKopp\\PostCodeFilter\\ReadModel\\RuleSpecByCountryAndGroupIds&#45;&gt;VinaiKopp\\PostCodeFilter\\RuleComponents\\Country -->
<g id="edge17" class="edge"><title>VinaiKopp\\PostCodeFilter\\ReadModel\\RuleSpecByCountryAndGroupIds&#45;&gt;VinaiKopp\\PostCodeFilter\\RuleComponents\\Country</title>
<path fill="none" stroke="#999999" d="M1953.54,-543.99C1991.73,-539.149 2032.66,-533.961 2069.56,-529.284"/>
<polygon fill="#999999" stroke="#999999" points="2070.24,-531.315 2075.93,-528.477 2069.71,-527.149 2070.24,-531.315"/>
</g>
<!-- VinaiKopp\\PostCodeFilter\\ReadModel\\RuleSpecByCountryAndGroupIds&#45;&gt;VinaiKopp\\PostCodeFilter\\RuleComponents\\CustomerGroupIdList -->
<g id="edge18" class="edge"><title>VinaiKopp\\PostCodeFilter\\ReadModel\\RuleSpecByCountryAndGroupIds&#45;&gt;VinaiKopp\\PostCodeFilter\\RuleComponents\\CustomerGroupIdList</title>
<path fill="none" stroke="#999999" d="M1966.57,-562C1991.43,-562 2017.1,-562 2041.79,-562"/>
<polygon fill="#999999" stroke="#999999" points="2042.05,-564.1 2048.05,-562 2042.05,-559.9 2042.05,-564.1"/>
</g>
<!-- VinaiKopp\\PostCodeFilter\\RuleRepository -->
<g id="node18" class="node"><title>VinaiKopp\\PostCodeFilter\\RuleRepository</title>
<path fill="#9999cc" stroke="black" d="M1465.81,-472C1465.81,-472 1301.46,-472 1301.46,-472 1295.46,-472 1289.46,-466 1289.46,-460 1289.46,-460 1289.46,-448 1289.46,-448 1289.46,-442 1295.46,-436 1301.46,-436 1301.46,-436 1465.81,-436 1465.81,-436 1471.81,-436 1477.81,-442 1477.81,-448 1477.81,-448 1477.81,-460 1477.81,-460 1477.81,-466 1471.81,-472 1465.81,-472"/>
<text text-anchor="middle" x="1383.64" y="-451" font-family="Times,serif" font-size="10.00" fill="#000033">VinaiKopp\PostCodeFilter\RuleRepository</text>
</g>
<!-- VinaiKopp\\PostCodeFilter\\RuleRepository&#45;&gt;VinaiKopp\\PostCodeFilter\\Exceptions\\NonMatchingRecordInResultException -->
<g id="edge36" class="edge"><title>VinaiKopp\\PostCodeFilter\\RuleRepository&#45;&gt;VinaiKopp\\PostCodeFilter\\Exceptions\\NonMatchingRecordInResultException</title>
<path fill="none" stroke="#999999" d="M1477.86,-441.491C1533.82,-433.983 1606.09,-424.285 1668.87,-415.861"/>
<polygon fill="#999999" stroke="#999999" points="1669.25,-417.93 1674.92,-415.05 1668.69,-413.767 1669.25,-417.93"/>
</g>
<!-- VinaiKopp\\PostCodeFilter\\RuleRepository&#45;&gt;VinaiKopp\\PostCodeFilter\\ReadModel\\Rule -->
<g id="edge27" class="edge"><title>VinaiKopp\\PostCodeFilter\\RuleRepository&#45;&gt;VinaiKopp\\PostCodeFilter\\ReadModel\\Rule</title>
<path fill="none" stroke="#999999" d="M1477.92,-465.765C1508.17,-469.617 1541.87,-473.948 1572.71,-478 1616.9,-483.806 1665.7,-490.377 1707.46,-496.047"/>
<polygon fill="#999999" stroke="#999999" points="1707.34,-498.15 1713.57,-496.876 1707.91,-493.988 1707.34,-498.15"/>
</g>
<!-- VinaiKopp\\PostCodeFilter\\RuleRepository&#45;&gt;VinaiKopp\\PostCodeFilter\\RuleComponents\\Country -->
<g id="edge33" class="edge"><title>VinaiKopp\\PostCodeFilter\\RuleRepository&#45;&gt;VinaiKopp\\PostCodeFilter\\RuleComponents\\Country</title>
<path fill="none" stroke="#999999" d="M1430.22,-435.895C1481.44,-416.607 1567.52,-387.326 1644.71,-376 1681.15,-370.653 1940.85,-365.595 1976.18,-376 2053.28,-398.707 2128.81,-458.781 2166.09,-491.682"/>
<polygon fill="#999999" stroke="#999999" points="2165,-493.523 2170.88,-495.943 2167.8,-490.386 2165,-493.523"/>
</g>
<!-- VinaiKopp\\PostCodeFilter\\RuleRepository&#45;&gt;VinaiKopp\\PostCodeFilter\\RuleComponents\\CustomerGroupIdList -->
<g id="edge32" class="edge"><title>VinaiKopp\\PostCodeFilter\\RuleRepository&#45;&gt;VinaiKopp\\PostCodeFilter\\RuleComponents\\CustomerGroupIdList</title>
<path fill="none" stroke="#999999" d="M1477.89,-460.309C1527.43,-463.516 1589.36,-467.296 1644.71,-470 1681.52,-471.798 1941.37,-469.871 1976.18,-482 2013.7,-495.077 2011.75,-519.116 2048.18,-535 2054.16,-537.611 2060.4,-539.97 2066.77,-542.101"/>
<polygon fill="#999999" stroke="#999999" points="2066.31,-544.158 2072.66,-543.996 2067.6,-540.159 2066.31,-544.158"/>
</g>
<!-- VinaiKopp\\PostCodeFilter\\RuleRepository&#45;&gt;VinaiKopp\\PostCodeFilter\\RuleComponents\\PostCodeList -->
<g id="edge34" class="edge"><title>VinaiKopp\\PostCodeFilter\\RuleRepository&#45;&gt;VinaiKopp\\PostCodeFilter\\RuleComponents\\PostCodeList</title>
<path fill="none" stroke="#999999" d="M1477.82,-463.938C1527.34,-468.881 1589.27,-474.525 1644.71,-478 1663.1,-479.153 1959.79,-480.571 1976.18,-489 2022.97,-513.075 2007.03,-550.187 2048.18,-583 2072.12,-602.095 2102.57,-616.994 2129.14,-627.683"/>
<polygon fill="#999999" stroke="#999999" points="2128.39,-629.646 2134.74,-629.9 2129.93,-625.74 2128.39,-629.646"/>
</g>
<!-- VinaiKopp\\PostCodeFilter\\RuleRepository&#45;&gt;VinaiKopp\\PostCodeFilter\\ReadModel\\RuleFound -->
<g id="edge31" class="edge"><title>VinaiKopp\\PostCodeFilter\\RuleRepository&#45;&gt;VinaiKopp\\PostCodeFilter\\ReadModel\\RuleFound</title>
<path fill="none" stroke="#999999" d="M1478.05,-459.628C1511.43,-465.976 1547.07,-478.349 1572.71,-502 1645.22,-568.907 1568.4,-649.452 1644.71,-712 1658.94,-723.668 1676.31,-730.887 1694.37,-735.15"/>
<polygon fill="#999999" stroke="#999999" points="1694.21,-737.264 1700.51,-736.484 1695.1,-733.159 1694.21,-737.264"/>
</g>
<!-- VinaiKopp\\PostCodeFilter\\RuleRepository&#45;&gt;VinaiKopp\\PostCodeFilter\\RuleComponents\\CustomerGroupId -->
<g id="edge35" class="edge"><title>VinaiKopp\\PostCodeFilter\\RuleRepository&#45;&gt;VinaiKopp\\PostCodeFilter\\RuleComponents\\CustomerGroupId</title>
<path fill="none" stroke="#999999" d="M1477.75,-442.421C1527.25,-436.841 1589.19,-430.768 1644.71,-428 1912.21,-414.662 2225,-428.692 2401.75,-439.358"/>
<polygon fill="#999999" stroke="#999999" points="2401.87,-441.469 2407.98,-439.736 2402.12,-437.277 2401.87,-441.469"/>
</g>
<!-- VinaiKopp\\PostCodeFilter\\RuleRepository&#45;&gt;VinaiKopp\\PostCodeFilter\\ReadModel\\RuleNotFound -->
<g id="edge26" class="edge"><title>VinaiKopp\\PostCodeFilter\\RuleRepository&#45;&gt;VinaiKopp\\PostCodeFilter\\ReadModel\\RuleNotFound</title>
<path fill="none" stroke="#999999" d="M1477.93,-466.437C1509.63,-473.538 1544.21,-484.647 1572.71,-502 1613.84,-527.053 1602.17,-560.397 1644.71,-583 1657.87,-589.993 1672.42,-595.059 1687.27,-598.693"/>
<polygon fill="#999999" stroke="#999999" points="1686.88,-600.757 1693.2,-600.065 1687.83,-596.665 1686.88,-600.757"/>
</g>
<!-- VinaiKopp\\PostCodeFilter\\RuleRepository&#45;&gt;VinaiKopp\\PostCodeFilter\\ReadModel\\RuleSpecByCountryAndGroupId -->
<g id="edge25" class="edge"><title>VinaiKopp\\PostCodeFilter\\RuleRepository&#45;&gt;VinaiKopp\\PostCodeFilter\\ReadModel\\RuleSpecByCountryAndGroupId</title>
<path fill="none" stroke="#999999" d="M1477.86,-452.903C1528.17,-452.311 1591.67,-451.563 1649.61,-450.881"/>
<polygon fill="#999999" stroke="#999999" points="1649.94,-452.978 1655.92,-450.807 1649.89,-448.778 1649.94,-452.978"/>
</g>
<!-- VinaiKopp\\PostCodeFilter\\RuleRepository&#45;&gt;VinaiKopp\\PostCodeFilter\\ReadModel\\RuleSpecByCountryAndGroupIds -->
<g id="edge28" class="edge"><title>VinaiKopp\\PostCodeFilter\\RuleRepository&#45;&gt;VinaiKopp\\PostCodeFilter\\ReadModel\\RuleSpecByCountryAndGroupIds</title>
<path fill="none" stroke="#999999" d="M1465.39,-472.112C1498.88,-480.269 1537.96,-490.624 1572.71,-502 1605.49,-512.734 1611.6,-521.319 1644.71,-531 1659.5,-535.326 1675.23,-539.189 1690.86,-542.595"/>
<polygon fill="#999999" stroke="#999999" points="1690.78,-544.724 1697.08,-543.928 1691.66,-540.617 1690.78,-544.724"/>
</g>
<!-- VinaiKopp\\PostCodeFilter\\RuleStorage -->
<g id="node19" class="node"><title>VinaiKopp\\PostCodeFilter\\RuleStorage</title>
<path fill="#9999cc" stroke="black" d="M1885.78,-363C1885.78,-363 1735.1,-363 1735.1,-363 1729.1,-363 1723.1,-357 1723.1,-351 1723.1,-351 1723.1,-339 1723.1,-339 1723.1,-333 1729.1,-327 1735.1,-327 1735.1,-327 1885.78,-327 1885.78,-327 1891.78,-327 1897.78,-333 1897.78,-339 1897.78,-339 1897.78,-351 1897.78,-351 1897.78,-357 1891.78,-363 1885.78,-363"/>
<text text-anchor="middle" x="1810.44" y="-342" font-family="Times,serif" font-size="10.00" fill="#000033">VinaiKopp\PostCodeFilter\RuleStorage</text>
</g>
<!-- VinaiKopp\\PostCodeFilter\\RuleRepository&#45;&gt;VinaiKopp\\PostCodeFilter\\RuleStorage -->
<g id="edge24" class="edge"><title>VinaiKopp\\PostCodeFilter\\RuleRepository&#45;&gt;VinaiKopp\\PostCodeFilter\\RuleStorage</title>
<path fill="none" stroke="#999999" d="M1431.87,-435.846C1483.46,-416.664 1568.86,-386.781 1644.71,-369 1667.92,-363.557 1693.29,-359.13 1717,-355.629"/>
<polygon fill="#999999" stroke="#999999" points="1717.36,-357.699 1722.99,-354.758 1716.75,-353.543 1717.36,-357.699"/>
</g>
<!-- VinaiKopp\\PostCodeFilter\\WriteModel\\RuleToAdd -->
<g id="node20" class="node"><title>VinaiKopp\\PostCodeFilter\\WriteModel\\RuleToAdd</title>
<path fill="#9999cc" stroke="black" d="M1910.12,-709C1910.12,-709 1710.76,-709 1710.76,-709 1704.76,-709 1698.76,-703 1698.76,-697 1698.76,-697 1698.76,-685 1698.76,-685 1698.76,-679 1704.76,-673 1710.76,-673 1710.76,-673 1910.12,-673 1910.12,-673 1916.12,-673 1922.12,-679 1922.12,-685 1922.12,-685 1922.12,-697 1922.12,-697 1922.12,-703 1916.12,-709 1910.12,-709"/>
<text text-anchor="middle" x="1810.44" y="-688" font-family="Times,serif" font-size="10.00" fill="#000033">VinaiKopp\PostCodeFilter\WriteModel\RuleToAdd</text>
</g>
<!-- VinaiKopp\\PostCodeFilter\\RuleRepository&#45;&gt;VinaiKopp\\PostCodeFilter\\WriteModel\\RuleToAdd -->
<g id="edge29" class="edge"><title>VinaiKopp\\PostCodeFilter\\RuleRepository&#45;&gt;VinaiKopp\\PostCodeFilter\\WriteModel\\RuleToAdd</title>
<path fill="none" stroke="#999999" d="M1478.07,-460.883C1511.06,-467.405 1546.44,-479.569 1572.71,-502 1634.17,-554.49 1580.28,-620.197 1644.71,-669 1658.76,-679.644 1675.49,-686.46 1692.81,-690.67"/>
<polygon fill="#999999" stroke="#999999" points="1692.39,-692.728 1698.71,-691.999 1693.32,-688.631 1692.39,-692.728"/>
</g>
<!-- VinaiKopp\\PostCodeFilter\\WriteModel\\RuleToDelete -->
<g id="node21" class="node"><title>VinaiKopp\\PostCodeFilter\\WriteModel\\RuleToDelete</title>
<path fill="#9999cc" stroke="black" d="M1914.49,-666C1914.49,-666 1706.39,-666 1706.39,-666 1700.39,-666 1694.39,-660 1694.39,-654 1694.39,-654 1694.39,-642 1694.39,-642 1694.39,-636 1700.39,-630 1706.39,-630 1706.39,-630 1914.49,-630 1914.49,-630 1920.49,-630 1926.49,-636 1926.49,-642 1926.49,-642 1926.49,-654 1926.49,-654 1926.49,-660 1920.49,-666 1914.49,-666"/>
<text text-anchor="middle" x="1810.44" y="-645" font-family="Times,serif" font-size="10.00" fill="#000033">VinaiKopp\PostCodeFilter\WriteModel\RuleToDelete</text>
</g>
<!-- VinaiKopp\\PostCodeFilter\\RuleRepository&#45;&gt;VinaiKopp\\PostCodeFilter\\WriteModel\\RuleToDelete -->
<g id="edge30" class="edge"><title>VinaiKopp\\PostCodeFilter\\RuleRepository&#45;&gt;VinaiKopp\\PostCodeFilter\\WriteModel\\RuleToDelete</title>
<path fill="none" stroke="#999999" d="M1478.12,-462.909C1510.56,-469.675 1545.56,-481.475 1572.71,-502 1623.54,-540.431 1591.71,-590.611 1644.71,-626 1657.74,-634.699 1672.65,-640.698 1688.06,-644.751"/>
<polygon fill="#999999" stroke="#999999" points="1687.89,-646.872 1694.22,-646.264 1688.89,-642.793 1687.89,-646.872"/>
</g>
<!-- VinaiKopp\\PostCodeFilter\\WriteModel\\RuleToAdd&#45;&gt;VinaiKopp\\PostCodeFilter\\RuleComponents\\Country -->
<g id="edge70" class="edge"><title>VinaiKopp\\PostCodeFilter\\WriteModel\\RuleToAdd&#45;&gt;VinaiKopp\\PostCodeFilter\\RuleComponents\\Country</title>
<path fill="none" stroke="#999999" d="M1922.09,-690.509C1941.29,-686.56 1960.19,-679.872 1976.18,-669 2030.47,-632.076 1994.79,-578.226 2048.18,-540 2054.83,-535.234 2062.1,-531.26 2069.72,-527.955"/>
<polygon fill="#999999" stroke="#999999" points="2070.85,-529.765 2075.61,-525.556 2069.26,-525.875 2070.85,-529.765"/>
</g>
<!-- VinaiKopp\\PostCodeFilter\\WriteModel\\RuleToAdd&#45;&gt;VinaiKopp\\PostCodeFilter\\RuleComponents\\CustomerGroupIdList -->
<g id="edge68" class="edge"><title>VinaiKopp\\PostCodeFilter\\WriteModel\\RuleToAdd&#45;&gt;VinaiKopp\\PostCodeFilter\\RuleComponents\\CustomerGroupIdList</title>
<path fill="none" stroke="#999999" d="M1922.33,-682.472C1940.62,-679.289 1959.15,-674.939 1976.18,-669 2011.37,-656.726 2015.13,-643.243 2048.18,-626 2078.39,-610.236 2113.26,-594.481 2140.89,-582.548"/>
<polygon fill="#999999" stroke="#999999" points="2141.99,-584.361 2146.67,-580.061 2140.33,-580.503 2141.99,-584.361"/>
</g>
<!-- VinaiKopp\\PostCodeFilter\\WriteModel\\RuleToAdd&#45;&gt;VinaiKopp\\PostCodeFilter\\RuleComponents\\PostCodeList -->
<g id="edge69" class="edge"><title>VinaiKopp\\PostCodeFilter\\WriteModel\\RuleToAdd&#45;&gt;VinaiKopp\\PostCodeFilter\\RuleComponents\\PostCodeList</title>
<path fill="none" stroke="#999999" d="M1922.25,-678.418C1965.18,-673.544 2014.66,-667.926 2059.32,-662.855"/>
<polygon fill="#999999" stroke="#999999" points="2059.58,-664.939 2065.31,-662.175 2059.11,-660.766 2059.58,-664.939"/>
</g>
<!-- VinaiKopp\\PostCodeFilter\\WriteModel\\RuleToDelete&#45;&gt;VinaiKopp\\PostCodeFilter\\RuleComponents\\Country -->
<g id="edge72" class="edge"><title>VinaiKopp\\PostCodeFilter\\WriteModel\\RuleToDelete&#45;&gt;VinaiKopp\\PostCodeFilter\\RuleComponents\\Country</title>
<path fill="none" stroke="#999999" d="M1926.6,-643.742C1943.9,-639.994 1961.01,-634.35 1976.18,-626 2019.84,-601.958 2005.1,-565.091 2048.18,-540 2054.99,-536.03 2062.28,-532.643 2069.81,-529.756"/>
<polygon fill="#999999" stroke="#999999" points="2070.7,-531.668 2075.62,-527.644 2069.27,-527.721 2070.7,-531.668"/>
</g>
<!-- VinaiKopp\\PostCodeFilter\\WriteModel\\RuleToDelete&#45;&gt;VinaiKopp\\PostCodeFilter\\RuleComponents\\CustomerGroupIdList -->
<g id="edge71" class="edge"><title>VinaiKopp\\PostCodeFilter\\WriteModel\\RuleToDelete&#45;&gt;VinaiKopp\\PostCodeFilter\\RuleComponents\\CustomerGroupIdList</title>
<path fill="none" stroke="#999999" d="M1926.61,-634.983C1943.31,-632.41 1960.24,-629.425 1976.18,-626 2029.76,-614.484 2089.41,-596.173 2132.08,-582.082"/>
<polygon fill="#999999" stroke="#999999" points="2132.96,-584.005 2137.99,-580.123 2131.64,-580.019 2132.96,-584.005"/>
</g>
<!-- VinaiKopp\\PostCodeFilter\\UseCases\\AdminAddsRule -->
<g id="node22" class="node"><title>VinaiKopp\\PostCodeFilter\\UseCases\\AdminAddsRule</title>
<path fill="#9999cc" stroke="black" d="M1072.43,-752C1072.43,-752 861.745,-752 861.745,-752 855.745,-752 849.745,-746 849.745,-740 849.745,-740 849.745,-728 849.745,-728 849.745,-722 855.745,-716 861.745,-716 861.745,-716 1072.43,-716 1072.43,-716 1078.43,-716 1084.43,-722 1084.43,-728 1084.43,-728 1084.43,-740 1084.43,-740 1084.43,-746 1078.43,-752 1072.43,-752"/>
<text text-anchor="middle" x="967.088" y="-731" font-family="Times,serif" font-size="10.00" fill="#000033">VinaiKopp\PostCodeFilter\UseCases\AdminAddsRule</text>
</g>
<!-- VinaiKopp\\PostCodeFilter\\UseCases\\AdminAddsRule&#45;&gt;VinaiKopp\\PostCodeFilter\\Exceptions\\RuleForGroupAndCountryAlreadyExistsException -->
<g id="edge42" class="edge"><title>VinaiKopp\\PostCodeFilter\\UseCases\\AdminAddsRule&#45;&gt;VinaiKopp\\PostCodeFilter\\Exceptions\\RuleForGroupAndCountryAlreadyExistsException</title>
<path fill="none" stroke="#999999" d="M1084.67,-734C1116.93,-734 1152.84,-734 1188.24,-734"/>
<polygon fill="#999999" stroke="#999999" points="1188.38,-736.1 1194.38,-734 1188.38,-731.9 1188.38,-736.1"/>
</g>
<!-- VinaiKopp\\PostCodeFilter\\UseCases\\AdminAddsRule&#45;&gt;VinaiKopp\\PostCodeFilter\\ReadModel\\RuleFound -->
<g id="edge40" class="edge"><title>VinaiKopp\\PostCodeFilter\\UseCases\\AdminAddsRule&#45;&gt;VinaiKopp\\PostCodeFilter\\ReadModel\\RuleFound</title>
<path fill="none" stroke="#999999" d="M1057.5,-752.034C1099,-759.52 1149.1,-767.31 1194.56,-771 1362.08,-784.593 1405.15,-784.015 1572.71,-771 1617.97,-767.484 1667.66,-760.242 1709.78,-753.089"/>
<polygon fill="#999999" stroke="#999999" points="1710.38,-755.117 1715.94,-752.035 1709.67,-750.978 1710.38,-755.117"/>
</g>
<!-- VinaiKopp\\PostCodeFilter\\UseCases\\AdminAddsRule&#45;&gt;VinaiKopp\\PostCodeFilter\\ReadModel\\RuleReader -->
<g id="edge38" class="edge"><title>VinaiKopp\\PostCodeFilter\\UseCases\\AdminAddsRule&#45;&gt;VinaiKopp\\PostCodeFilter\\ReadModel\\RuleReader</title>
<path fill="none" stroke="#999999" d="M1023.42,-715.9C1054.01,-704.564 1091.91,-688.259 1122.56,-668 1159.54,-643.564 1157.29,-622.984 1194.56,-599 1231.6,-575.166 1277.44,-556.696 1314.59,-544.049"/>
<polygon fill="#999999" stroke="#999999" points="1315.45,-545.973 1320.47,-542.07 1314.11,-541.992 1315.45,-545.973"/>
</g>
<!-- VinaiKopp\\PostCodeFilter\\UseCases\\AdminAddsRule&#45;&gt;VinaiKopp\\PostCodeFilter\\ReadModel\\RuleSpecByCountryAndGroupIds -->
<g id="edge41" class="edge"><title>VinaiKopp\\PostCodeFilter\\UseCases\\AdminAddsRule&#45;&gt;VinaiKopp\\PostCodeFilter\\ReadModel\\RuleSpecByCountryAndGroupIds</title>
<path fill="none" stroke="#999999" d="M1084.61,-746.884C1119.89,-750.223 1158.77,-753.344 1194.56,-755 1215.55,-755.971 1555.21,-766.62 1572.71,-755 1641.4,-709.386 1579.19,-634.07 1644.71,-584 1646.01,-583.004 1647.34,-582.041 1648.69,-581.11"/>
<polygon fill="#999999" stroke="#999999" points="1650.1,-582.7 1653.99,-577.679 1647.82,-579.173 1650.1,-582.7"/>
</g>
<!-- VinaiKopp\\PostCodeFilter\\UseCases\\AdminAddsRule&#45;&gt;VinaiKopp\\PostCodeFilter\\WriteModel\\RuleToAdd -->
<g id="edge39" class="edge"><title>VinaiKopp\\PostCodeFilter\\UseCases\\AdminAddsRule&#45;&gt;VinaiKopp\\PostCodeFilter\\WriteModel\\RuleToAdd</title>
<path fill="none" stroke="#999999" d="M1084.5,-751.176C1119.77,-755.628 1158.68,-759.79 1194.56,-762 1236.5,-764.583 1532.55,-774.368 1572.71,-762 1609.7,-750.606 1608.55,-726.822 1644.71,-713 1659.83,-707.219 1676.24,-702.915 1692.64,-699.718"/>
<polygon fill="#999999" stroke="#999999" points="1693.17,-701.756 1698.68,-698.59 1692.39,-697.628 1693.17,-701.756"/>
</g>
<!-- VinaiKopp\\PostCodeFilter\\WriteModel\\RuleWriter -->
<g id="node23" class="node"><title>VinaiKopp\\PostCodeFilter\\WriteModel\\RuleWriter</title>
<path fill="#9999cc" stroke="black" d="M1482.38,-709C1482.38,-709 1284.89,-709 1284.89,-709 1278.89,-709 1272.89,-703 1272.89,-697 1272.89,-697 1272.89,-685 1272.89,-685 1272.89,-679 1278.89,-673 1284.89,-673 1284.89,-673 1482.38,-673 1482.38,-673 1488.38,-673 1494.38,-679 1494.38,-685 1494.38,-685 1494.38,-697 1494.38,-697 1494.38,-703 1488.38,-709 1482.38,-709"/>
<text text-anchor="middle" x="1383.64" y="-688" font-family="Times,serif" font-size="10.00" fill="#000033">VinaiKopp\PostCodeFilter\WriteModel\RuleWriter</text>
</g>
<!-- VinaiKopp\\PostCodeFilter\\UseCases\\AdminAddsRule&#45;&gt;VinaiKopp\\PostCodeFilter\\WriteModel\\RuleWriter -->
<g id="edge37" class="edge"><title>VinaiKopp\\PostCodeFilter\\UseCases\\AdminAddsRule&#45;&gt;VinaiKopp\\PostCodeFilter\\WriteModel\\RuleWriter</title>
<path fill="none" stroke="#999999" d="M1084.67,-721.908C1141.62,-716 1209.96,-708.911 1266.81,-703.014"/>
<polygon fill="#999999" stroke="#999999" points="1267.23,-705.082 1272.98,-702.374 1266.8,-700.904 1267.23,-705.082"/>
</g>
<!-- VinaiKopp\\PostCodeFilter\\WriteModel\\RuleWriter&#45;&gt;VinaiKopp\\PostCodeFilter\\WriteModel\\RuleToAdd -->
<g id="edge73" class="edge"><title>VinaiKopp\\PostCodeFilter\\WriteModel\\RuleWriter&#45;&gt;VinaiKopp\\PostCodeFilter\\WriteModel\\RuleToAdd</title>
<path fill="none" stroke="#999999" d="M1494.31,-691C1555.04,-691 1630.52,-691 1692.38,-691"/>
<polygon fill="#999999" stroke="#999999" points="1692.71,-693.1 1698.71,-691 1692.71,-688.9 1692.71,-693.1"/>
</g>
<!-- VinaiKopp\\PostCodeFilter\\WriteModel\\RuleWriter&#45;&gt;VinaiKopp\\PostCodeFilter\\WriteModel\\RuleToDelete -->
<g id="edge74" class="edge"><title>VinaiKopp\\PostCodeFilter\\WriteModel\\RuleWriter&#45;&gt;VinaiKopp\\PostCodeFilter\\WriteModel\\RuleToDelete</title>
<path fill="none" stroke="#999999" d="M1494.31,-679.898C1553.61,-673.896 1626.98,-666.469 1688,-660.293"/>
<polygon fill="#999999" stroke="#999999" points="1688.49,-662.354 1694.24,-659.661 1688.06,-658.176 1688.49,-662.354"/>
</g>
<!-- VinaiKopp\\PostCodeFilter\\UseCases\\AdminDeletesRule -->
<g id="node24" class="node"><title>VinaiKopp\\PostCodeFilter\\UseCases\\AdminDeletesRule</title>
<path fill="#9999cc" stroke="black" d="M1076.8,-665C1076.8,-665 857.373,-665 857.373,-665 851.373,-665 845.373,-659 845.373,-653 845.373,-653 845.373,-641 845.373,-641 845.373,-635 851.373,-629 857.373,-629 857.373,-629 1076.8,-629 1076.8,-629 1082.8,-629 1088.8,-635 1088.8,-641 1088.8,-641 1088.8,-653 1088.8,-653 1088.8,-659 1082.8,-665 1076.8,-665"/>
<text text-anchor="middle" x="967.088" y="-644" font-family="Times,serif" font-size="10.00" fill="#000033">VinaiKopp\PostCodeFilter\UseCases\AdminDeletesRule</text>
</g>
<!-- VinaiKopp\\PostCodeFilter\\UseCases\\AdminDeletesRule&#45;&gt;VinaiKopp\\PostCodeFilter\\Exceptions\\RuleDoesNotExistException -->
<g id="edge48" class="edge"><title>VinaiKopp\\PostCodeFilter\\UseCases\\AdminDeletesRule&#45;&gt;VinaiKopp\\PostCodeFilter\\Exceptions\\RuleDoesNotExistException</title>
<path fill="none" stroke="#999999" d="M1088.83,-639.427C1133.98,-636.595 1185.82,-633.344 1233.25,-630.369"/>
<polygon fill="#999999" stroke="#999999" points="1233.46,-632.46 1239.31,-629.989 1233.19,-628.269 1233.46,-632.46"/>
</g>
<!-- VinaiKopp\\PostCodeFilter\\UseCases\\AdminDeletesRule&#45;&gt;VinaiKopp\\PostCodeFilter\\ReadModel\\RuleNotFound -->
<g id="edge47" class="edge"><title>VinaiKopp\\PostCodeFilter\\UseCases\\AdminDeletesRule&#45;&gt;VinaiKopp\\PostCodeFilter\\ReadModel\\RuleNotFound</title>
<path fill="none" stroke="#999999" d="M1088.85,-648.264C1123.03,-648.568 1160.26,-648.849 1194.56,-649 1362.63,-649.742 1406.49,-673.828 1572.71,-649 1605.8,-644.057 1612.01,-634.127 1644.71,-627 1658.27,-624.042 1672.56,-621.419 1686.82,-619.109"/>
<polygon fill="#999999" stroke="#999999" points="1687.33,-621.154 1692.93,-618.138 1686.67,-617.006 1687.33,-621.154"/>
</g>
<!-- VinaiKopp\\PostCodeFilter\\UseCases\\AdminDeletesRule&#45;&gt;VinaiKopp\\PostCodeFilter\\ReadModel\\RuleReader -->
<g id="edge44" class="edge"><title>VinaiKopp\\PostCodeFilter\\UseCases\\AdminDeletesRule&#45;&gt;VinaiKopp\\PostCodeFilter\\ReadModel\\RuleReader</title>
<path fill="none" stroke="#999999" d="M1030.51,-628.939C1058.65,-620.764 1092.29,-610.948 1122.56,-602 1188.83,-582.41 1264.49,-559.678 1317.05,-543.826"/>
<polygon fill="#999999" stroke="#999999" points="1317.89,-545.768 1323.02,-542.025 1316.67,-541.747 1317.89,-545.768"/>
</g>
<!-- VinaiKopp\\PostCodeFilter\\UseCases\\AdminDeletesRule&#45;&gt;VinaiKopp\\PostCodeFilter\\ReadModel\\RuleSpecByCountryAndGroupIds -->
<g id="edge46" class="edge"><title>VinaiKopp\\PostCodeFilter\\UseCases\\AdminDeletesRule&#45;&gt;VinaiKopp\\PostCodeFilter\\ReadModel\\RuleSpecByCountryAndGroupIds</title>
<path fill="none" stroke="#999999" d="M1089.02,-648.031C1258.97,-649.187 1550.4,-649.97 1572.71,-642 1611.4,-628.173 1606.95,-600.207 1644.71,-584 1646,-583.445 1647.3,-582.904 1648.62,-582.375"/>
<polygon fill="#999999" stroke="#999999" points="1649.58,-584.252 1654.43,-580.138 1648.08,-580.332 1649.58,-584.252"/>
</g>
<!-- VinaiKopp\\PostCodeFilter\\UseCases\\AdminDeletesRule&#45;&gt;VinaiKopp\\PostCodeFilter\\WriteModel\\RuleToDelete -->
<g id="edge45" class="edge"><title>VinaiKopp\\PostCodeFilter\\UseCases\\AdminDeletesRule&#45;&gt;VinaiKopp\\PostCodeFilter\\WriteModel\\RuleToDelete</title>
<path fill="none" stroke="#999999" d="M1088.82,-653.951C1122.99,-655.624 1160.23,-657.167 1194.56,-658 1362.58,-662.078 1404.68,-661.547 1572.71,-658 1610.13,-657.21 1650.85,-655.718 1687.81,-654.124"/>
<polygon fill="#999999" stroke="#999999" points="1688.28,-656.205 1694.18,-653.846 1688.09,-652.009 1688.28,-656.205"/>
</g>
<!-- VinaiKopp\\PostCodeFilter\\UseCases\\AdminDeletesRule&#45;&gt;VinaiKopp\\PostCodeFilter\\WriteModel\\RuleWriter -->
<g id="edge43" class="edge"><title>VinaiKopp\\PostCodeFilter\\UseCases\\AdminDeletesRule&#45;&gt;VinaiKopp\\PostCodeFilter\\WriteModel\\RuleWriter</title>
<path fill="none" stroke="#999999" d="M1088.83,-659.815C1144.98,-665.776 1211.47,-672.832 1266.98,-678.724"/>
<polygon fill="#999999" stroke="#999999" points="1266.81,-680.818 1273,-679.363 1267.25,-676.642 1266.81,-680.818"/>
</g>
<!-- VinaiKopp\\PostCodeFilter\\UseCases\\AdminUpdatesRule -->
<g id="node25" class="node"><title>VinaiKopp\\PostCodeFilter\\UseCases\\AdminUpdatesRule</title>
<path fill="#9999cc" stroke="black" d="M1078.59,-599C1078.59,-599 855.589,-599 855.589,-599 849.589,-599 843.589,-593 843.589,-587 843.589,-587 843.589,-575 843.589,-575 843.589,-569 849.589,-563 855.589,-563 855.589,-563 1078.59,-563 1078.59,-563 1084.59,-563 1090.59,-569 1090.59,-575 1090.59,-575 1090.59,-587 1090.59,-587 1090.59,-593 1084.59,-599 1078.59,-599"/>
<text text-anchor="middle" x="967.088" y="-578" font-family="Times,serif" font-size="10.00" fill="#000033">VinaiKopp\PostCodeFilter\UseCases\AdminUpdatesRule</text>
</g>
<!-- VinaiKopp\\PostCodeFilter\\UseCases\\AdminUpdatesRule&#45;&gt;VinaiKopp\\PostCodeFilter\\Exceptions\\RuleDoesNotExistException -->
<g id="edge54" class="edge"><title>VinaiKopp\\PostCodeFilter\\UseCases\\AdminUpdatesRule&#45;&gt;VinaiKopp\\PostCodeFilter\\Exceptions\\RuleDoesNotExistException</title>
<path fill="none" stroke="#999999" d="M1090.5,-592.812C1135.27,-597.132 1186.42,-602.067 1233.28,-606.589"/>
<polygon fill="#999999" stroke="#999999" points="1233.1,-608.681 1239.27,-607.167 1233.5,-604.5 1233.1,-608.681"/>
</g>
<!-- VinaiKopp\\PostCodeFilter\\UseCases\\AdminUpdatesRule&#45;&gt;VinaiKopp\\PostCodeFilter\\ReadModel\\Rule -->
<g id="edge56" class="edge"><title>VinaiKopp\\PostCodeFilter\\UseCases\\AdminUpdatesRule&#45;&gt;VinaiKopp\\PostCodeFilter\\ReadModel\\Rule</title>
<path fill="none" stroke="#999999" d="M1090.61,-572.646C1124.29,-570.414 1160.84,-568.053 1194.56,-566 1362.58,-555.771 1405.24,-561.993 1572.71,-545 1617.03,-540.502 1665.75,-533.632 1707.42,-527.166"/>
<polygon fill="#999999" stroke="#999999" points="1707.91,-529.215 1713.51,-526.215 1707.26,-525.065 1707.91,-529.215"/>
</g>
<!-- VinaiKopp\\PostCodeFilter\\UseCases\\AdminUpdatesRule&#45;&gt;VinaiKopp\\PostCodeFilter\\ReadModel\\RuleNotFound -->
<g id="edge53" class="edge"><title>VinaiKopp\\PostCodeFilter\\UseCases\\AdminUpdatesRule&#45;&gt;VinaiKopp\\PostCodeFilter\\ReadModel\\RuleNotFound</title>
<path fill="none" stroke="#999999" d="M1090.34,-578.616C1212.52,-576.938 1405.72,-576.193 1572.71,-584 1609.82,-585.735 1650.11,-588.847 1686.75,-592.154"/>
<polygon fill="#999999" stroke="#999999" points="1686.91,-594.277 1693.08,-592.729 1687.29,-590.094 1686.91,-594.277"/>
</g>
<!-- VinaiKopp\\PostCodeFilter\\UseCases\\AdminUpdatesRule&#45;&gt;VinaiKopp\\PostCodeFilter\\ReadModel\\RuleReader -->
<g id="edge50" class="edge"><title>VinaiKopp\\PostCodeFilter\\UseCases\\AdminUpdatesRule&#45;&gt;VinaiKopp\\PostCodeFilter\\ReadModel\\RuleReader</title>
<path fill="none" stroke="#999999" d="M1089.09,-562.962C1123.19,-557.991 1160.31,-552.68 1194.56,-548 1217.71,-544.837 1242.49,-541.582 1266.2,-538.531"/>
<polygon fill="#999999" stroke="#999999" points="1266.52,-540.607 1272.2,-537.759 1265.99,-536.441 1266.52,-540.607"/>
</g>
<!-- VinaiKopp\\PostCodeFilter\\UseCases\\AdminUpdatesRule&#45;&gt;VinaiKopp\\PostCodeFilter\\ReadModel\\RuleSpecByCountryAndGroupIds -->
<g id="edge55" class="edge"><title>VinaiKopp\\PostCodeFilter\\UseCases\\AdminUpdatesRule&#45;&gt;VinaiKopp\\PostCodeFilter\\ReadModel\\RuleSpecByCountryAndGroupIds</title>
<path fill="none" stroke="#999999" d="M1090.62,-577.634C1124.31,-576.741 1160.85,-575.803 1194.56,-575 1348.35,-571.337 1523.78,-567.68 1647.79,-565.182"/>
<polygon fill="#999999" stroke="#999999" points="1648.07,-567.277 1654.02,-565.056 1647.98,-563.078 1648.07,-567.277"/>
</g>
<!-- VinaiKopp\\PostCodeFilter\\UseCases\\AdminUpdatesRule&#45;&gt;VinaiKopp\\PostCodeFilter\\WriteModel\\RuleToAdd -->
<g id="edge52" class="edge"><title>VinaiKopp\\PostCodeFilter\\UseCases\\AdminUpdatesRule&#45;&gt;VinaiKopp\\PostCodeFilter\\WriteModel\\RuleToAdd</title>
<path fill="none" stroke="#999999" d="M1090.61,-586.166C1124.3,-587.506 1160.84,-588.884 1194.56,-590 1215.57,-590.695 1553.31,-591.908 1572.71,-600 1613.61,-617.067 1604.77,-649.784 1644.71,-669 1659.53,-676.131 1675.91,-681.177 1692.44,-684.713"/>
<polygon fill="#999999" stroke="#999999" points="1692.23,-686.813 1698.53,-685.948 1693.06,-682.697 1692.23,-686.813"/>
</g>
<!-- VinaiKopp\\PostCodeFilter\\UseCases\\AdminUpdatesRule&#45;&gt;VinaiKopp\\PostCodeFilter\\WriteModel\\RuleToDelete -->
<g id="edge51" class="edge"><title>VinaiKopp\\PostCodeFilter\\UseCases\\AdminUpdatesRule&#45;&gt;VinaiKopp\\PostCodeFilter\\WriteModel\\RuleToDelete</title>
<path fill="none" stroke="#999999" d="M1090.62,-580.763C1253.8,-580.859 1527.26,-582.607 1572.71,-593 1607.02,-600.847 1610.89,-616.229 1644.71,-626 1658.53,-629.994 1673.22,-633.267 1687.92,-635.949"/>
<polygon fill="#999999" stroke="#999999" points="1687.94,-638.085 1694.21,-637.062 1688.67,-633.949 1687.94,-638.085"/>
</g>
<!-- VinaiKopp\\PostCodeFilter\\UseCases\\AdminUpdatesRule&#45;&gt;VinaiKopp\\PostCodeFilter\\WriteModel\\RuleWriter -->
<g id="edge49" class="edge"><title>VinaiKopp\\PostCodeFilter\\UseCases\\AdminUpdatesRule&#45;&gt;VinaiKopp\\PostCodeFilter\\WriteModel\\RuleWriter</title>
<path fill="none" stroke="#999999" d="M1034.45,-599.027C1079.57,-611.248 1140.64,-627.713 1194.56,-642 1231.56,-651.802 1272.7,-662.539 1307.04,-671.457"/>
<polygon fill="#999999" stroke="#999999" points="1306.6,-673.511 1312.93,-672.986 1307.65,-669.445 1306.6,-673.511"/>
</g>
<!-- VinaiKopp\\PostCodeFilter\\UseCases\\AdminViewsRuleList -->
<g id="node26" class="node"><title>VinaiKopp\\PostCodeFilter\\UseCases\\AdminViewsRuleList</title>
<path fill="#9999cc" stroke="black" d="M1082.33,-498C1082.33,-498 851.846,-498 851.846,-498 845.846,-498 839.846,-492 839.846,-486 839.846,-486 839.846,-474 839.846,-474 839.846,-468 845.846,-462 851.846,-462 851.846,-462 1082.33,-462 1082.33,-462 1088.33,-462 1094.33,-468 1094.33,-474 1094.33,-474 1094.33,-486 1094.33,-486 1094.33,-492 1088.33,-498 1082.33,-498"/>
<text text-anchor="middle" x="967.088" y="-477" font-family="Times,serif" font-size="10.00" fill="#000033">VinaiKopp\PostCodeFilter\UseCases\AdminViewsRuleList</text>
</g>
<!-- VinaiKopp\\PostCodeFilter\\UseCases\\AdminViewsRuleList&#45;&gt;VinaiKopp\\PostCodeFilter\\ReadModel\\Rule -->
<g id="edge58" class="edge"><title>VinaiKopp\\PostCodeFilter\\UseCases\\AdminViewsRuleList&#45;&gt;VinaiKopp\\PostCodeFilter\\ReadModel\\Rule</title>
<path fill="none" stroke="#999999" d="M1094.39,-480.025C1216.76,-480.586 1407.55,-482.878 1572.71,-491 1616.96,-493.176 1665.78,-496.874 1707.53,-500.432"/>
<polygon fill="#999999" stroke="#999999" points="1707.48,-502.535 1713.64,-500.955 1707.84,-498.35 1707.48,-502.535"/>
</g>
<!-- VinaiKopp\\PostCodeFilter\\UseCases\\AdminViewsRuleList&#45;&gt;VinaiKopp\\PostCodeFilter\\ReadModel\\RuleReader -->
<g id="edge57" class="edge"><title>VinaiKopp\\PostCodeFilter\\UseCases\\AdminViewsRuleList&#45;&gt;VinaiKopp\\PostCodeFilter\\ReadModel\\RuleReader</title>
<path fill="none" stroke="#999999" d="M1094.44,-493.411C1149.13,-499.216 1212.74,-505.967 1266.26,-511.648"/>
<polygon fill="#999999" stroke="#999999" points="1266.22,-513.755 1272.41,-512.3 1266.66,-509.579 1266.22,-513.755"/>
</g>
<!-- VinaiKopp\\PostCodeFilter\\UseCases\\AdminViewsSingleRule -->
<g id="node27" class="node"><title>VinaiKopp\\PostCodeFilter\\UseCases\\AdminViewsSingleRule</title>
<path fill="#9999cc" stroke="black" d="M1087.33,-541C1087.33,-541 846.846,-541 846.846,-541 840.846,-541 834.846,-535 834.846,-529 834.846,-529 834.846,-517 834.846,-517 834.846,-511 840.846,-505 846.846,-505 846.846,-505 1087.33,-505 1087.33,-505 1093.33,-505 1099.33,-511 1099.33,-517 1099.33,-517 1099.33,-529 1099.33,-529 1099.33,-535 1093.33,-541 1087.33,-541"/>
<text text-anchor="middle" x="967.088" y="-520" font-family="Times,serif" font-size="10.00" fill="#000033">VinaiKopp\PostCodeFilter\UseCases\AdminViewsSingleRule</text>
</g>
<!-- VinaiKopp\\PostCodeFilter\\UseCases\\AdminViewsSingleRule&#45;&gt;VinaiKopp\\PostCodeFilter\\ReadModel\\Rule -->
<g id="edge60" class="edge"><title>VinaiKopp\\PostCodeFilter\\UseCases\\AdminViewsSingleRule&#45;&gt;VinaiKopp\\PostCodeFilter\\ReadModel\\Rule</title>
<path fill="none" stroke="#999999" d="M1096.6,-504.995C1128.54,-501.261 1162.74,-497.89 1194.56,-496 1374.85,-485.291 1585.33,-494.845 1707.39,-502.561"/>
<polygon fill="#999999" stroke="#999999" points="1707.38,-504.664 1713.5,-502.95 1707.64,-500.472 1707.38,-504.664"/>
</g>
<!-- VinaiKopp\\PostCodeFilter\\UseCases\\AdminViewsSingleRule&#45;&gt;VinaiKopp\\PostCodeFilter\\RuleComponents\\Country -->
<g id="edge62" class="edge"><title>VinaiKopp\\PostCodeFilter\\UseCases\\AdminViewsSingleRule&#45;&gt;VinaiKopp\\PostCodeFilter\\RuleComponents\\Country</title>
<path fill="none" stroke="#999999" d="M1099.21,-510.276C1107.28,-507.68 1115.13,-504.615 1122.56,-501 1162.42,-481.61 1155.66,-453.241 1194.56,-432 1375.14,-333.399 1440.39,-348.167 1644.71,-324 1681.28,-319.674 1941.75,-310.92 1976.18,-324 2065.43,-357.908 2141.27,-447.988 2173.53,-490.789"/>
<polygon fill="#999999" stroke="#999999" points="2171.98,-492.216 2177.25,-495.768 2175.34,-489.703 2171.98,-492.216"/>
</g>
<!-- VinaiKopp\\PostCodeFilter\\UseCases\\AdminViewsSingleRule&#45;&gt;VinaiKopp\\PostCodeFilter\\RuleComponents\\CustomerGroupIdList -->
<g id="edge63" class="edge"><title>VinaiKopp\\PostCodeFilter\\UseCases\\AdminViewsSingleRule&#45;&gt;VinaiKopp\\PostCodeFilter\\RuleComponents\\CustomerGroupIdList</title>
<path fill="none" stroke="#999999" d="M1099.39,-509.43C1130.55,-506.757 1163.71,-504.36 1194.56,-503 1278.51,-499.3 1490.12,-487.506 1572.71,-503 1606.45,-509.331 1611.06,-524.161 1644.71,-531 1716.92,-545.679 1902.63,-536.287 1976.18,-541 1997.46,-542.364 2019.9,-544.165 2041.92,-546.14"/>
<polygon fill="#999999" stroke="#999999" points="2041.95,-548.251 2048.11,-546.701 2042.33,-544.068 2041.95,-548.251"/>
</g>
<!-- VinaiKopp\\PostCodeFilter\\UseCases\\AdminViewsSingleRule&#45;&gt;VinaiKopp\\PostCodeFilter\\ReadModel\\RuleReader -->
<g id="edge59" class="edge"><title>VinaiKopp\\PostCodeFilter\\UseCases\\AdminViewsSingleRule&#45;&gt;VinaiKopp\\PostCodeFilter\\ReadModel\\RuleReader</title>
<path fill="none" stroke="#999999" d="M1099.25,-523.316C1152.82,-523.446 1214.26,-523.594 1266.21,-523.719"/>
<polygon fill="#999999" stroke="#999999" points="1266.49,-525.82 1272.5,-523.734 1266.5,-521.62 1266.49,-525.82"/>
</g>
<!-- VinaiKopp\\PostCodeFilter\\UseCases\\AdminViewsSingleRule&#45;&gt;VinaiKopp\\PostCodeFilter\\ReadModel\\RuleSpecByCountryAndGroupIds -->
<g id="edge61" class="edge"><title>VinaiKopp\\PostCodeFilter\\UseCases\\AdminViewsSingleRule&#45;&gt;VinaiKopp\\PostCodeFilter\\ReadModel\\RuleSpecByCountryAndGroupIds</title>
<path fill="none" stroke="#999999" d="M1099.4,-537.309C1130.56,-540.275 1163.71,-543.077 1194.56,-545 1348.25,-554.577 1523.87,-558.759 1647.97,-560.585"/>
<polygon fill="#999999" stroke="#999999" points="1648.18,-562.688 1654.21,-560.675 1648.24,-558.489 1648.18,-562.688"/>
</g>
<!-- VinaiKopp\\PostCodeFilter\\UseCases\\CustomerSpecifiesShippingAddress -->
<g id="node28" class="node"><title>VinaiKopp\\PostCodeFilter\\UseCases\\CustomerSpecifiesShippingAddress</title>
<path fill="#9999cc" stroke="black" d="M1110.54,-392C1110.54,-392 823.637,-392 823.637,-392 817.637,-392 811.637,-386 811.637,-380 811.637,-380 811.637,-368 811.637,-368 811.637,-362 817.637,-356 823.637,-356 823.637,-356 1110.54,-356 1110.54,-356 1116.54,-356 1122.54,-362 1122.54,-368 1122.54,-368 1122.54,-380 1122.54,-380 1122.54,-386 1116.54,-392 1110.54,-392"/>
<text text-anchor="middle" x="967.088" y="-371" font-family="Times,serif" font-size="10.00" fill="#000033">VinaiKopp\PostCodeFilter\UseCases\CustomerSpecifiesShippingAddress</text>
</g>
<!-- VinaiKopp\\PostCodeFilter\\UseCases\\CustomerSpecifiesShippingAddress&#45;&gt;VinaiKopp\\PostCodeFilter\\RuleComponents\\Country -->
<g id="edge67" class="edge"><title>VinaiKopp\\PostCodeFilter\\UseCases\\CustomerSpecifiesShippingAddress&#45;&gt;VinaiKopp\\PostCodeFilter\\RuleComponents\\Country</title>
<path fill="none" stroke="#999999" d="M1046.5,-355.978C1089.9,-346.799 1144.94,-336.449 1194.56,-331 1280.9,-321.52 1895.26,-285.424 1976.18,-317 2067.03,-352.456 2142.59,-446.552 2174.22,-490.618"/>
<polygon fill="#999999" stroke="#999999" points="2172.67,-492.063 2177.86,-495.737 2176.09,-489.63 2172.67,-492.063"/>
</g>
<!-- VinaiKopp\\PostCodeFilter\\UseCases\\CustomerSpecifiesShippingAddress&#45;&gt;VinaiKopp\\PostCodeFilter\\RuleComponents\\CustomerGroupId -->
<g id="edge66" class="edge"><title>VinaiKopp\\PostCodeFilter\\UseCases\\CustomerSpecifiesShippingAddress&#45;&gt;VinaiKopp\\PostCodeFilter\\RuleComponents\\CustomerGroupId</title>
<path fill="none" stroke="#999999" d="M1016.72,-355.852C1062.02,-339.962 1131.81,-318.041 1194.56,-309 1538.4,-259.466 1631.45,-263.132 1976.18,-306 2165.04,-329.487 2381.38,-395.445 2483.29,-428.941"/>
<polygon fill="#999999" stroke="#999999" points="2482.89,-431.019 2489.25,-430.903 2484.2,-427.03 2482.89,-431.019"/>
</g>
<!-- VinaiKopp\\PostCodeFilter\\UseCases\\CustomerSpecifiesShippingAddress&#45;&gt;VinaiKopp\\PostCodeFilter\\ReadModel\\RuleReader -->
<g id="edge64" class="edge"><title>VinaiKopp\\PostCodeFilter\\UseCases\\CustomerSpecifiesShippingAddress&#45;&gt;VinaiKopp\\PostCodeFilter\\ReadModel\\RuleReader</title>
<path fill="none" stroke="#999999" d="M1003.82,-392.147C1047.83,-413.978 1125.29,-450.716 1194.56,-475 1226.94,-486.349 1263.26,-496.413 1295.29,-504.421"/>
<polygon fill="#999999" stroke="#999999" points="1294.89,-506.486 1301.22,-505.893 1295.9,-502.409 1294.89,-506.486"/>
</g>
<!-- VinaiKopp\\PostCodeFilter\\UseCases\\CustomerSpecifiesShippingAddress&#45;&gt;VinaiKopp\\PostCodeFilter\\ReadModel\\RuleSpecByCountryAndGroupId -->
<g id="edge65" class="edge"><title>VinaiKopp\\PostCodeFilter\\UseCases\\CustomerSpecifiesShippingAddress&#45;&gt;VinaiKopp\\PostCodeFilter\\ReadModel\\RuleSpecByCountryAndGroupId</title>
<path fill="none" stroke="#999999" d="M1122.9,-387.8C1272.58,-401.143 1498.35,-421.269 1649.68,-434.759"/>
<polygon fill="#999999" stroke="#999999" points="1649.77,-436.875 1655.93,-435.316 1650.14,-432.691 1649.77,-436.875"/>
</g>
<!-- VinaiKopp_PostCodeFilter_Block_Adminhtml_Postcodefilter_Edit_Form -->
<g id="node29" class="node"><title>VinaiKopp_PostCodeFilter_Block_Adminhtml_Postcodefilter_Edit_Form</title>
<path fill="#9999cc" stroke="black" d="M367.518,-681C367.518,-681 78.1625,-681 78.1625,-681 72.1625,-681 66.1625,-675 66.1625,-669 66.1625,-669 66.1625,-657 66.1625,-657 66.1625,-651 72.1625,-645 78.1625,-645 78.1625,-645 367.518,-645 367.518,-645 373.518,-645 379.518,-651 379.518,-657 379.518,-657 379.518,-669 379.518,-669 379.518,-675 373.518,-681 367.518,-681"/>
<text text-anchor="middle" x="222.84" y="-660" font-family="Times,serif" font-size="10.00" fill="#000033">VinaiKopp_PostCodeFilter_Block_Adminhtml_Postcodefilter_Edit_Form</text>
</g>
<!-- VinaiKopp_PostCodeFilter_Block_Adminhtml_Postcodefilter_Edit -->
<g id="node30" class="node"><title>VinaiKopp_PostCodeFilter_Block_Adminhtml_Postcodefilter_Edit</title>
<path fill="#9999cc" stroke="black" d="M353.849,-763C353.849,-763 91.8321,-763 91.8321,-763 85.8321,-763 79.8321,-757 79.8321,-751 79.8321,-751 79.8321,-739 79.8321,-739 79.8321,-733 85.8321,-727 91.8321,-727 91.8321,-727 353.849,-727 353.849,-727 359.849,-727 365.849,-733 365.849,-739 365.849,-739 365.849,-751 365.849,-751 365.849,-757 359.849,-763 353.849,-763"/>
<text text-anchor="middle" x="222.84" y="-742" font-family="Times,serif" font-size="10.00" fill="#000033">VinaiKopp_PostCodeFilter_Block_Adminhtml_Postcodefilter_Edit</text>
</g>
<!-- VinaiKopp_PostCodeFilter_Block_Adminhtml_Postcodefilter_Grid -->
<g id="node31" class="node"><title>VinaiKopp_PostCodeFilter_Block_Adminhtml_Postcodefilter_Grid</title>
<path fill="#9999cc" stroke="black" d="M355.013,-845C355.013,-845 90.6674,-845 90.6674,-845 84.6674,-845 78.6674,-839 78.6674,-833 78.6674,-833 78.6674,-821 78.6674,-821 78.6674,-815 84.6674,-809 90.6674,-809 90.6674,-809 355.013,-809 355.013,-809 361.013,-809 367.013,-815 367.013,-821 367.013,-821 367.013,-833 367.013,-833 367.013,-839 361.013,-845 355.013,-845"/>
<text text-anchor="middle" x="222.84" y="-824" font-family="Times,serif" font-size="10.00" fill="#000033">VinaiKopp_PostCodeFilter_Block_Adminhtml_Postcodefilter_Grid</text>
</g>
<!-- VinaiKopp_PostCodeFilter_Block_Adminhtml_Postcodefilter_New_Form -->
<g id="node32" class="node"><title>VinaiKopp_PostCodeFilter_Block_Adminhtml_Postcodefilter_New_Form</title>
<path fill="#9999cc" stroke="black" d="M368.735,-927C368.735,-927 76.9456,-927 76.9456,-927 70.9456,-927 64.9456,-921 64.9456,-915 64.9456,-915 64.9456,-903 64.9456,-903 64.9456,-897 70.9456,-891 76.9456,-891 76.9456,-891 368.735,-891 368.735,-891 374.735,-891 380.735,-897 380.735,-903 380.735,-903 380.735,-915 380.735,-915 380.735,-921 374.735,-927 368.735,-927"/>
<text text-anchor="middle" x="222.84" y="-906" font-family="Times,serif" font-size="10.00" fill="#000033">VinaiKopp_PostCodeFilter_Block_Adminhtml_Postcodefilter_New_Form</text>
</g>
<!-- VinaiKopp_PostCodeFilter_Block_Adminhtml_Postcodefilter_New -->
<g id="node33" class="node"><title>VinaiKopp_PostCodeFilter_Block_Adminhtml_Postcodefilter_New</title>
<path fill="#9999cc" stroke="black" d="M355.065,-1009C355.065,-1009 90.6156,-1009 90.6156,-1009 84.6156,-1009 78.6156,-1003 78.6156,-997 78.6156,-997 78.6156,-985 78.6156,-985 78.6156,-979 84.6156,-973 90.6156,-973 90.6156,-973 355.065,-973 355.065,-973 361.065,-973 367.065,-979 367.065,-985 367.065,-985 367.065,-997 367.065,-997 367.065,-1003 361.065,-1009 355.065,-1009"/>
<text text-anchor="middle" x="222.84" y="-988" font-family="Times,serif" font-size="10.00" fill="#000033">VinaiKopp_PostCodeFilter_Block_Adminhtml_Postcodefilter_New</text>
</g>
<!-- VinaiKopp_PostCodeFilter_Block_Adminhtml_Postcodefilter -->
<g id="node34" class="node"><title>VinaiKopp_PostCodeFilter_Block_Adminhtml_Postcodefilter</title>
<path fill="#9999cc" stroke="black" d="M343.183,-1091C343.183,-1091 102.498,-1091 102.498,-1091 96.4975,-1091 90.4975,-1085 90.4975,-1079 90.4975,-1079 90.4975,-1067 90.4975,-1067 90.4975,-1061 96.4975,-1055 102.498,-1055 102.498,-1055 343.183,-1055 343.183,-1055 349.183,-1055 355.183,-1061 355.183,-1067 355.183,-1067 355.183,-1079 355.183,-1079 355.183,-1085 349.183,-1091 343.183,-1091"/>
<text text-anchor="middle" x="222.84" y="-1070" font-family="Times,serif" font-size="10.00" fill="#000033">VinaiKopp_PostCodeFilter_Block_Adminhtml_Postcodefilter</text>
</g>
<!-- VinaiKopp_PostCodeFilter_Helper_Data -->
<g id="node35" class="node"><title>VinaiKopp_PostCodeFilter_Helper_Data</title>
<path fill="#9999cc" stroke="black" d="M702.578,-363C702.578,-363 545.715,-363 545.715,-363 539.715,-363 533.715,-357 533.715,-351 533.715,-351 533.715,-339 533.715,-339 533.715,-333 539.715,-327 545.715,-327 545.715,-327 702.578,-327 702.578,-327 708.578,-327 714.578,-333 714.578,-339 714.578,-339 714.578,-351 714.578,-351 714.578,-357 708.578,-363 702.578,-363"/>
<text text-anchor="middle" x="624.146" y="-342" font-family="Times,serif" font-size="10.00" fill="#000033">VinaiKopp_PostCodeFilter_Helper_Data</text>
</g>
<!-- VinaiKopp_PostCodeFilter_Helper_Data&#45;&gt;VinaiKopp\\PostCodeFilter\\RuleRepository -->
<g id="edge76" class="edge"><title>VinaiKopp_PostCodeFilter_Helper_Data&#45;&gt;VinaiKopp\\PostCodeFilter\\RuleRepository</title>
<path fill="none" stroke="#999999" d="M714.638,-337.031C814.987,-330.261 982.073,-325.506 1122.56,-353 1203.81,-368.899 1292.49,-408.587 1342.47,-433.213"/>
<polygon fill="#999999" stroke="#999999" points="1341.76,-435.208 1348.07,-435.991 1343.63,-431.445 1341.76,-435.208"/>
</g>
<!-- VinaiKopp_PostCodeFilter_Helper_Data&#45;&gt;VinaiKopp\\PostCodeFilter\\RuleStorage -->
<g id="edge75" class="edge"><title>VinaiKopp_PostCodeFilter_Helper_Data&#45;&gt;VinaiKopp\\PostCodeFilter\\RuleStorage</title>
<path fill="none" stroke="#999999" d="M714.94,-336.576C743.281,-334.288 774.731,-332.131 803.612,-331 1139.7,-317.838 1539.37,-332.403 1716.74,-340.426"/>
<polygon fill="#999999" stroke="#999999" points="1716.87,-342.534 1722.96,-340.709 1717.06,-338.338 1716.87,-342.534"/>
</g>
<!-- VinaiKopp_PostCodeFilter_Helper_Data&#45;&gt;VinaiKopp\\PostCodeFilter\\UseCases\\AdminViewsRuleList -->
<g id="edge78" class="edge"><title>VinaiKopp_PostCodeFilter_Helper_Data&#45;&gt;VinaiKopp\\PostCodeFilter\\UseCases\\AdminViewsRuleList</title>
<path fill="none" stroke="#999999" d="M670.774,-363.067C734.094,-388.139 848.287,-433.355 914.589,-459.609"/>
<polygon fill="#999999" stroke="#999999" points="914.107,-461.676 920.459,-461.933 915.654,-457.771 914.107,-461.676"/>
</g>
<!-- VinaiKopp_PostCodeFilter_Helper_Data&#45;&gt;VinaiKopp\\PostCodeFilter\\UseCases\\CustomerSpecifiesShippingAddress -->
<g id="edge77" class="edge"><title>VinaiKopp_PostCodeFilter_Helper_Data&#45;&gt;VinaiKopp\\PostCodeFilter\\UseCases\\CustomerSpecifiesShippingAddress</title>
<path fill="none" stroke="#999999" d="M714.725,-352.619C742.562,-354.987 774.145,-357.674 805.296,-360.323"/>
<polygon fill="#999999" stroke="#999999" points="805.363,-362.436 811.52,-360.853 805.719,-358.252 805.363,-362.436"/>
</g>
<!-- VinaiKopp_PostCodeFilter_Model_Observer -->
<g id="node36" class="node"><title>VinaiKopp_PostCodeFilter_Model_Observer</title>
<path fill="#9999cc" stroke="black" d="M309.447,-232C309.447,-232 136.233,-232 136.233,-232 130.233,-232 124.233,-226 124.233,-220 124.233,-220 124.233,-208 124.233,-208 124.233,-202 130.233,-196 136.233,-196 136.233,-196 309.447,-196 309.447,-196 315.447,-196 321.447,-202 321.447,-208 321.447,-208 321.447,-220 321.447,-220 321.447,-226 315.447,-232 309.447,-232"/>
<text text-anchor="middle" x="222.84" y="-211" font-family="Times,serif" font-size="10.00" fill="#000033">VinaiKopp_PostCodeFilter_Model_Observer</text>
</g>
<!-- VinaiKopp_PostCodeFilter_Model_Observer&#45;&gt;VinaiKopp\\PostCodeFilter\\UseCases\\CustomerSpecifiesShippingAddress -->
<g id="edge79" class="edge"><title>VinaiKopp_PostCodeFilter_Model_Observer&#45;&gt;VinaiKopp\\PostCodeFilter\\UseCases\\CustomerSpecifiesShippingAddress</title>
<path fill="none" stroke="#999999" d="M321.678,-231.765C427.15,-251.303 599.804,-284.409 747.612,-318 796.478,-329.105 851.088,-343.103 893.486,-354.325"/>
<polygon fill="#999999" stroke="#999999" points="893.048,-356.381 899.385,-355.89 894.124,-352.322 893.048,-356.381"/>
</g>
<!-- VinaiKopp_PostCodeFilter_Model_Observer&#45;&gt;VinaiKopp_PostCodeFilter_Helper_Data -->
<g id="edge83" class="edge"><title>VinaiKopp_PostCodeFilter_Model_Observer&#45;&gt;VinaiKopp_PostCodeFilter_Helper_Data</title>
<path fill="none" stroke="#999999" d="M278.943,-232.077C353.174,-256.43 484.864,-299.634 562.049,-324.956"/>
<polygon fill="#999999" stroke="#999999" points="561.613,-327.023 567.969,-326.898 562.922,-323.032 561.613,-327.023"/>
</g>
<!-- Mage_Sales_Model_Quote -->
<g id="node37" class="node"><title>Mage_Sales_Model_Quote</title>
<path fill="#9999cc" stroke="black" d="M675.071,-150C675.071,-150 573.222,-150 573.222,-150 567.222,-150 561.222,-144 561.222,-138 561.222,-138 561.222,-126 561.222,-126 561.222,-120 567.222,-114 573.222,-114 573.222,-114 675.071,-114 675.071,-114 681.071,-114 687.071,-120 687.071,-126 687.071,-126 687.071,-138 687.071,-138 687.071,-144 681.071,-150 675.071,-150"/>
<text text-anchor="middle" x="624.146" y="-129" font-family="Times,serif" font-size="10.00" fill="#000033">Mage_Sales_Model_Quote</text>
</g>
<!-- VinaiKopp_PostCodeFilter_Model_Observer&#45;&gt;Mage_Sales_Model_Quote -->
<g id="edge80" class="edge"><title>VinaiKopp_PostCodeFilter_Model_Observer&#45;&gt;Mage_Sales_Model_Quote</title>
<path fill="none" stroke="#999999" d="M311.964,-195.903C385.312,-180.841 488.229,-159.706 555.29,-145.935"/>
<polygon fill="#999999" stroke="#999999" points="555.807,-147.972 561.262,-144.708 554.962,-143.858 555.807,-147.972"/>
</g>
<!-- Mage_Core_Controller_Response_Http -->
<g id="node38" class="node"><title>Mage_Core_Controller_Response_Http</title>
<path fill="#9999cc" stroke="black" d="M700.066,-68C700.066,-68 548.227,-68 548.227,-68 542.227,-68 536.227,-62 536.227,-56 536.227,-56 536.227,-44 536.227,-44 536.227,-38 542.227,-32 548.227,-32 548.227,-32 700.066,-32 700.066,-32 706.066,-32 712.066,-38 712.066,-44 712.066,-44 712.066,-56 712.066,-56 712.066,-62 706.066,-68 700.066,-68"/>
<text text-anchor="middle" x="624.146" y="-47" font-family="Times,serif" font-size="10.00" fill="#000033">Mage_Core_Controller_Response_Http</text>
</g>
<!-- VinaiKopp_PostCodeFilter_Model_Observer&#45;&gt;Mage_Core_Controller_Response_Http -->
<g id="edge81" class="edge"><title>VinaiKopp_PostCodeFilter_Model_Observer&#45;&gt;Mage_Core_Controller_Response_Http</title>
<path fill="none" stroke="#999999" d="M267.715,-195.98C342.549,-165.245 494.4,-102.878 573.192,-70.5168"/>
<polygon fill="#999999" stroke="#999999" points="574.447,-72.2719 579.199,-68.0498 572.851,-68.3868 574.447,-72.2719"/>
</g>
<!-- Mage_Sales_Model_Quote_Address -->
<g id="node39" class="node"><title>Mage_Sales_Model_Quote_Address</title>
<path fill="#9999cc" stroke="black" d="M693.844,-232C693.844,-232 554.449,-232 554.449,-232 548.449,-232 542.449,-226 542.449,-220 542.449,-220 542.449,-208 542.449,-208 542.449,-202 548.449,-196 554.449,-196 554.449,-196 693.844,-196 693.844,-196 699.844,-196 705.844,-202 705.844,-208 705.844,-208 705.844,-220 705.844,-220 705.844,-226 699.844,-232 693.844,-232"/>
<text text-anchor="middle" x="624.146" y="-211" font-family="Times,serif" font-size="10.00" fill="#000033">Mage_Sales_Model_Quote_Address</text>
</g>
<!-- VinaiKopp_PostCodeFilter_Model_Observer&#45;&gt;Mage_Sales_Model_Quote_Address -->
<g id="edge82" class="edge"><title>VinaiKopp_PostCodeFilter_Model_Observer&#45;&gt;Mage_Sales_Model_Quote_Address</title>
<path fill="none" stroke="#999999" d="M321.522,-214C387.169,-214 472.923,-214 536.207,-214"/>
<polygon fill="#999999" stroke="#999999" points="536.259,-216.1 542.259,-214 536.259,-211.9 536.259,-216.1"/>
</g>
<!-- VinaiKopp_PostCodeFilter_Model_Resource_RuleStorage -->
<g id="node40" class="node"><title>VinaiKopp_PostCodeFilter_Model_Resource_RuleStorage</title>
<path fill="#9999cc" stroke="black" d="M336.937,-1173C336.937,-1173 108.743,-1173 108.743,-1173 102.743,-1173 96.7433,-1167 96.7433,-1161 96.7433,-1161 96.7433,-1149 96.7433,-1149 96.7433,-1143 102.743,-1137 108.743,-1137 108.743,-1137 336.937,-1137 336.937,-1137 342.937,-1137 348.937,-1143 348.937,-1149 348.937,-1149 348.937,-1161 348.937,-1161 348.937,-1167 342.937,-1173 336.937,-1173"/>
<text text-anchor="middle" x="222.84" y="-1152" font-family="Times,serif" font-size="10.00" fill="#000033">VinaiKopp_PostCodeFilter_Model_Resource_RuleStorage</text>
</g>
<!-- Varien_Db_Adapter_Interface -->
<g id="node41" class="node"><title>Varien_Db_Adapter_Interface</title>
<path fill="#9999cc" stroke="black" d="M680.696,-1173C680.696,-1173 567.597,-1173 567.597,-1173 561.597,-1173 555.597,-1167 555.597,-1161 555.597,-1161 555.597,-1149 555.597,-1149 555.597,-1143 561.597,-1137 567.597,-1137 567.597,-1137 680.696,-1137 680.696,-1137 686.696,-1137 692.696,-1143 692.696,-1149 692.696,-1149 692.696,-1161 692.696,-1161 692.696,-1167 686.696,-1173 680.696,-1173"/>
<text text-anchor="middle" x="624.146" y="-1152" font-family="Times,serif" font-size="10.00" fill="#000033">Varien_Db_Adapter_Interface</text>
</g>
<!-- VinaiKopp_PostCodeFilter_Model_Resource_RuleStorage&#45;&gt;Varien_Db_Adapter_Interface -->
<g id="edge84" class="edge"><title>VinaiKopp_PostCodeFilter_Model_Resource_RuleStorage&#45;&gt;Varien_Db_Adapter_Interface</title>
<path fill="none" stroke="#999999" d="M349.088,-1155C414.96,-1155 493.442,-1155 549.504,-1155"/>
<polygon fill="#999999" stroke="#999999" points="549.541,-1157.1 555.541,-1155 549.541,-1152.9 549.541,-1157.1"/>
</g>
<!-- VinaiKopp_PostCodeFilter_Model_RuleCollection -->
<g id="node42" class="node"><title>VinaiKopp_PostCodeFilter_Model_RuleCollection</title>
<path fill="#9999cc" stroke="black" d="M321.344,-356C321.344,-356 124.337,-356 124.337,-356 118.337,-356 112.337,-350 112.337,-344 112.337,-344 112.337,-332 112.337,-332 112.337,-326 118.337,-320 124.337,-320 124.337,-320 321.344,-320 321.344,-320 327.344,-320 333.344,-326 333.344,-332 333.344,-332 333.344,-344 333.344,-344 333.344,-350 327.344,-356 321.344,-356"/>
<text text-anchor="middle" x="222.84" y="-335" font-family="Times,serif" font-size="10.00" fill="#000033">VinaiKopp_PostCodeFilter_Model_RuleCollection</text>
</g>
<!-- VinaiKopp_PostCodeFilter_Model_RuleCollection&#45;&gt;VinaiKopp\\PostCodeFilter\\ReadModel\\Rule -->
<g id="edge87" class="edge"><title>VinaiKopp_PostCodeFilter_Model_RuleCollection&#45;&gt;VinaiKopp\\PostCodeFilter\\ReadModel\\Rule</title>
<path fill="none" stroke="#999999" d="M333.603,-328.273C384.657,-324.218 446.222,-319.993 501.681,-318 980.072,-300.804 1123.55,-266.43 1572.71,-432 1606.66,-444.515 1610.87,-457.189 1644.71,-470 1665.93,-478.035 1689.31,-484.859 1711.63,-490.472"/>
<polygon fill="#999999" stroke="#999999" points="1711.26,-492.543 1717.59,-491.948 1712.27,-488.466 1711.26,-492.543"/>
</g>
<!-- VinaiKopp_PostCodeFilter_Model_RuleCollection&#45;&gt;VinaiKopp\\PostCodeFilter\\UseCases\\AdminViewsRuleList -->
<g id="edge85" class="edge"><title>VinaiKopp_PostCodeFilter_Model_RuleCollection&#45;&gt;VinaiKopp\\PostCodeFilter\\UseCases\\AdminViewsRuleList</title>
<path fill="none" stroke="#999999" d="M311.365,-356.009C366.033,-367.166 437.91,-381.669 501.681,-394 624.375,-417.724 765.575,-443.68 859.763,-460.803"/>
<polygon fill="#999999" stroke="#999999" points="859.619,-462.911 865.898,-461.918 860.37,-458.779 859.619,-462.911"/>
</g>
<!-- VinaiKopp_PostCodeFilter_Model_RuleCollection&#45;&gt;VinaiKopp_PostCodeFilter_Helper_Data -->
<g id="edge86" class="edge"><title>VinaiKopp_PostCodeFilter_Model_RuleCollection&#45;&gt;VinaiKopp_PostCodeFilter_Helper_Data</title>
<path fill="none" stroke="#999999" d="M333.481,-339.922C394.184,-340.986 468.927,-342.296 527.284,-343.319"/>
<polygon fill="#999999" stroke="#999999" points="527.56,-345.425 533.596,-343.43 527.634,-341.225 527.56,-345.425"/>
</g>
<!-- VinaiKopp_PostCodeFilter_Adminhtml_Vinaikopp_PostcodefilterController -->
<g id="node43" class="node"><title>VinaiKopp_PostCodeFilter_Adminhtml_Vinaikopp_PostcodefilterController</title>
<path fill="#9999cc" stroke="black" d="M372.521,-599C372.521,-599 73.1595,-599 73.1595,-599 67.1595,-599 61.1595,-593 61.1595,-587 61.1595,-587 61.1595,-575 61.1595,-575 61.1595,-569 67.1595,-563 73.1595,-563 73.1595,-563 372.521,-563 372.521,-563 378.521,-563 384.521,-569 384.521,-575 384.521,-575 384.521,-587 384.521,-587 384.521,-593 378.521,-599 372.521,-599"/>
<text text-anchor="middle" x="222.84" y="-578" font-family="Times,serif" font-size="10.00" fill="#000033">VinaiKopp_PostCodeFilter_Adminhtml_Vinaikopp_PostcodefilterController</text>
</g>
<!-- VinaiKopp_PostCodeFilter_Adminhtml_Vinaikopp_PostcodefilterController&#45;&gt;VinaiKopp\\PostCodeFilter\\UseCases\\AdminAddsRule -->
<g id="edge88" class="edge"><title>VinaiKopp_PostCodeFilter_Adminhtml_Vinaikopp_PostcodefilterController&#45;&gt;VinaiKopp\\PostCodeFilter\\UseCases\\AdminAddsRule</title>
<path fill="none" stroke="#999999" d="M311.168,-599.001C451.965,-628.023 727.936,-684.91 872.579,-714.725"/>
<polygon fill="#999999" stroke="#999999" points="872.217,-716.794 878.518,-715.949 873.065,-712.681 872.217,-716.794"/>
</g>
<!-- VinaiKopp_PostCodeFilter_Adminhtml_Vinaikopp_PostcodefilterController&#45;&gt;VinaiKopp\\PostCodeFilter\\UseCases\\AdminDeletesRule -->
<g id="edge89" class="edge"><title>VinaiKopp_PostCodeFilter_Adminhtml_Vinaikopp_PostcodefilterController&#45;&gt;VinaiKopp\\PostCodeFilter\\UseCases\\AdminDeletesRule</title>
<path fill="none" stroke="#999999" d="M384.897,-595.321C521.062,-607.429 713.48,-624.538 839,-635.699"/>
<polygon fill="#999999" stroke="#999999" points="839.137,-637.82 845.299,-636.26 839.509,-633.636 839.137,-637.82"/>
</g>
<!-- VinaiKopp_PostCodeFilter_Adminhtml_Vinaikopp_PostcodefilterController&#45;&gt;VinaiKopp\\PostCodeFilter\\UseCases\\AdminUpdatesRule -->
<g id="edge90" class="edge"><title>VinaiKopp_PostCodeFilter_Adminhtml_Vinaikopp_PostcodefilterController&#45;&gt;VinaiKopp\\PostCodeFilter\\UseCases\\AdminUpdatesRule</title>
<path fill="none" stroke="#999999" d="M384.897,-581C520.433,-581 711.704,-581 837.256,-581"/>
<polygon fill="#999999" stroke="#999999" points="837.558,-583.1 843.558,-581 837.558,-578.9 837.558,-583.1"/>
</g>
<!-- VinaiKopp_PostCodeFilter_Adminhtml_Vinaikopp_PostcodefilterController&#45;&gt;VinaiKopp\\PostCodeFilter\\UseCases\\AdminViewsSingleRule -->
<g id="edge91" class="edge"><title>VinaiKopp_PostCodeFilter_Adminhtml_Vinaikopp_PostcodefilterController&#45;&gt;VinaiKopp\\PostCodeFilter\\UseCases\\AdminViewsSingleRule</title>
<path fill="none" stroke="#999999" d="M384.897,-568.415C517.288,-558.07 702.858,-543.569 828.413,-533.758"/>
<polygon fill="#999999" stroke="#999999" points="828.901,-535.826 834.719,-533.265 828.574,-531.639 828.901,-535.826"/>
</g>
<!-- VinaiKopp_PostCodeFilter_Adminhtml_Vinaikopp_PostcodefilterController&#45;&gt;VinaiKopp_PostCodeFilter_Helper_Data -->
<g id="edge92" class="edge"><title>VinaiKopp_PostCodeFilter_Adminhtml_Vinaikopp_PostcodefilterController&#45;&gt;VinaiKopp_PostCodeFilter_Helper_Data</title>
<path fill="none" stroke="#999999" d="M264.231,-562.887C309.613,-542.038 384.999,-505.9 446.681,-469 501.043,-436.478 560.622,-392.786 594.781,-366.891"/>
<polygon fill="#999999" stroke="#999999" points="596.127,-368.506 599.633,-363.203 593.585,-365.162 596.127,-368.506"/>
</g>
<!-- VinaiKopp_PostCodeFilter_Frontend_CheckController -->
<g id="node44" class="node"><title>VinaiKopp_PostCodeFilter_Frontend_CheckController</title>
<path fill="#9999cc" stroke="black" d="M329.447,-438C329.447,-438 116.234,-438 116.234,-438 110.234,-438 104.234,-432 104.234,-426 104.234,-426 104.234,-414 104.234,-414 104.234,-408 110.234,-402 116.234,-402 116.234,-402 329.447,-402 329.447,-402 335.447,-402 341.447,-408 341.447,-414 341.447,-414 341.447,-426 341.447,-426 341.447,-432 335.447,-438 329.447,-438"/>
<text text-anchor="middle" x="222.84" y="-417" font-family="Times,serif" font-size="10.00" fill="#000033">VinaiKopp_PostCodeFilter_Frontend_CheckController</text>
</g>
<!-- VinaiKopp_PostCodeFilter_Frontend_CheckController&#45;&gt;VinaiKopp\\PostCodeFilter\\UseCases\\CustomerSpecifiesShippingAddress -->
<g id="edge93" class="edge"><title>VinaiKopp_PostCodeFilter_Frontend_CheckController&#45;&gt;VinaiKopp\\PostCodeFilter\\UseCases\\CustomerSpecifiesShippingAddress</title>
<path fill="none" stroke="#999999" d="M341.457,-415.564C447.665,-411.225 608.205,-403.837 747.612,-394 766.378,-392.676 786.035,-391.118 805.54,-389.466"/>
<polygon fill="#999999" stroke="#999999" points="805.788,-391.553 811.588,-388.951 805.431,-387.368 805.788,-391.553"/>
</g>
<!-- VinaiKopp_PostCodeFilter_Frontend_CheckController&#45;&gt;VinaiKopp_PostCodeFilter_Helper_Data -->
<g id="edge94" class="edge"><title>VinaiKopp_PostCodeFilter_Frontend_CheckController&#45;&gt;VinaiKopp_PostCodeFilter_Helper_Data</title>
<path fill="none" stroke="#999999" d="M341.549,-404.515C375.574,-399.513 412.694,-393.548 446.681,-387 479.875,-380.604 516.258,-372.188 547.32,-364.569"/>
<polygon fill="#999999" stroke="#999999" points="548.136,-366.531 553.459,-363.057 547.131,-362.453 548.136,-366.531"/>
</g>
</g>
</svg>
