<?xml version="1.0" encoding="UTF-8" standalone="no"?>
<!DOCTYPE svg PUBLIC "-//W3C//DTD SVG 1.1//EN"
 "http://www.w3.org/Graphics/SVG/1.1/DTD/svg11.dtd">
<!-- Generated by graphviz version 2.38.0 (20140413.2041)
 -->
<!-- Title: G Pages: 1 -->
<svg width="3083pt" height="1271pt"
 viewBox="0.00 0.00 3082.89 1271.00" xmlns="http://www.w3.org/2000/svg" xmlns:xlink="http://www.w3.org/1999/xlink">
<g id="graph0" class="graph" transform="scale(1 1) rotate(0) translate(4 1267)">
<title>G</title>
<polygon fill="white" stroke="none" points="-4,4 -4,-1267 3078.89,-1267 3078.89,4 -4,4"/>
<text text-anchor="middle" x="1537.45" y="-5.6" font-family="Times,serif" font-size="8.00">PhpDependencyAnalyse by Marco Muths (v0.5.0)</text>
<g id="clust1" class="cluster"><title>cluster_0</title>
<path fill="#ccccff" stroke="#000033" d="M832.282,-109C832.282,-109 3054.89,-109 3054.89,-109 3060.89,-109 3066.89,-115 3066.89,-121 3066.89,-121 3066.89,-625 3066.89,-625 3066.89,-631 3060.89,-637 3054.89,-637 3054.89,-637 832.282,-637 832.282,-637 826.282,-637 820.282,-631 820.282,-625 820.282,-625 820.282,-121 820.282,-121 820.282,-115 826.282,-109 832.282,-109"/>
<text text-anchor="middle" x="858.972" y="-621.8" font-family="Times,serif" font-size="14.00" fill="#000033">VinaiKopp</text>
</g>
<g id="clust2" class="cluster"><title>cluster_1</title>
<path fill="#ccccff" stroke="#000033" d="M19.2515,-607C19.2515,-607 426.429,-607 426.429,-607 432.429,-607 438.429,-613 438.429,-619 438.429,-619 438.429,-669 438.429,-669 438.429,-675 432.429,-681 426.429,-681 426.429,-681 19.2515,-681 19.2515,-681 13.2515,-681 7.25146,-675 7.25146,-669 7.25146,-669 7.25146,-619 7.25146,-619 7.25146,-613 13.2515,-607 19.2515,-607"/>
<text text-anchor="middle" x="223.276" y="-665.8" font-family="Times,serif" font-size="14.00" fill="#000033">VinaiKopp_PostCodeFilter_Block_Adminhtml_Postcodefilter_Edit_Form</text>
</g>
<g id="clust3" class="cluster"><title>cluster_2</title>
<path fill="#ccccff" stroke="#000033" d="M37.5864,-689C37.5864,-689 408.094,-689 408.094,-689 414.094,-689 420.094,-695 420.094,-701 420.094,-701 420.094,-751 420.094,-751 420.094,-757 414.094,-763 408.094,-763 408.094,-763 37.5864,-763 37.5864,-763 31.5864,-763 25.5864,-757 25.5864,-751 25.5864,-751 25.5864,-701 25.5864,-701 25.5864,-695 31.5864,-689 37.5864,-689"/>
<text text-anchor="middle" x="222.942" y="-747.8" font-family="Times,serif" font-size="14.00" fill="#000033">VinaiKopp_PostCodeFilter_Block_Adminhtml_Postcodefilter_Edit</text>
</g>
<g id="clust4" class="cluster"><title>cluster_3</title>
<path fill="#ccccff" stroke="#000033" d="M36.7539,-771C36.7539,-771 408.927,-771 408.927,-771 414.927,-771 420.927,-777 420.927,-783 420.927,-783 420.927,-833 420.927,-833 420.927,-839 414.927,-845 408.927,-845 408.927,-845 36.7539,-845 36.7539,-845 30.7539,-845 24.7539,-839 24.7539,-833 24.7539,-833 24.7539,-783 24.7539,-783 24.7539,-777 30.7539,-771 36.7539,-771"/>
<text text-anchor="middle" x="223.275" y="-829.8" font-family="Times,serif" font-size="14.00" fill="#000033">VinaiKopp_PostCodeFilter_Block_Adminhtml_Postcodefilter_Grid</text>
</g>
<g id="clust5" class="cluster"><title>cluster_4</title>
<path fill="#ccccff" stroke="#000033" d="M18.1431,-853C18.1431,-853 428.538,-853 428.538,-853 434.538,-853 440.538,-859 440.538,-865 440.538,-865 440.538,-915 440.538,-915 440.538,-921 434.538,-927 428.538,-927 428.538,-927 18.1431,-927 18.1431,-927 12.1431,-927 6.14307,-921 6.14307,-915 6.14307,-915 6.14307,-865 6.14307,-865 6.14307,-859 12.1431,-853 18.1431,-853"/>
<text text-anchor="middle" x="223.719" y="-911.8" font-family="Times,serif" font-size="14.00" fill="#000033">VinaiKopp_PostCodeFilter_Block_Adminhtml_Postcodefilter_New_Form</text>
</g>
<g id="clust6" class="cluster"><title>cluster_5</title>
<path fill="#ccccff" stroke="#000033" d="M36.478,-935C36.478,-935 410.203,-935 410.203,-935 416.203,-935 422.203,-941 422.203,-947 422.203,-947 422.203,-997 422.203,-997 422.203,-1003 416.203,-1009 410.203,-1009 410.203,-1009 36.478,-1009 36.478,-1009 30.478,-1009 24.478,-1003 24.478,-997 24.478,-997 24.478,-947 24.478,-947 24.478,-941 30.478,-935 36.478,-935"/>
<text text-anchor="middle" x="223.385" y="-993.8" font-family="Times,serif" font-size="14.00" fill="#000033">VinaiKopp_PostCodeFilter_Block_Adminhtml_Postcodefilter_New</text>
</g>
<g id="clust7" class="cluster"><title>cluster_6</title>
<path fill="#ccccff" stroke="#000033" d="M53.4189,-1017C53.4189,-1017 393.262,-1017 393.262,-1017 399.262,-1017 405.262,-1023 405.262,-1029 405.262,-1029 405.262,-1079 405.262,-1079 405.262,-1085 399.262,-1091 393.262,-1091 393.262,-1091 53.4189,-1091 53.4189,-1091 47.4189,-1091 41.4189,-1085 41.4189,-1079 41.4189,-1079 41.4189,-1029 41.4189,-1029 41.4189,-1023 47.4189,-1017 53.4189,-1017"/>
<text text-anchor="middle" x="223.609" y="-1075.8" font-family="Times,serif" font-size="14.00" fill="#000033">VinaiKopp_PostCodeFilter_Block_Adminhtml_Postcodefilter</text>
</g>
<g id="clust8" class="cluster"><title>cluster_7</title>
<path fill="#ccccff" stroke="#000033" d="M112.375,-1099C112.375,-1099 334.306,-1099 334.306,-1099 340.306,-1099 346.306,-1105 346.306,-1111 346.306,-1111 346.306,-1161 346.306,-1161 346.306,-1167 340.306,-1173 334.306,-1173 334.306,-1173 112.375,-1173 112.375,-1173 106.375,-1173 100.375,-1167 100.375,-1161 100.375,-1161 100.375,-1111 100.375,-1111 100.375,-1105 106.375,-1099 112.375,-1099"/>
<text text-anchor="middle" x="223.827" y="-1157.8" font-family="Times,serif" font-size="14.00" fill="#000033">VinaiKopp_PostCodeFilter_Helper_Data</text>
</g>
<g id="clust9" class="cluster"><title>cluster_8</title>
<path fill="#ccccff" stroke="#000033" d="M513.681,-465C513.681,-465 752.282,-465 752.282,-465 758.282,-465 764.282,-471 764.282,-477 764.282,-477 764.282,-527 764.282,-527 764.282,-533 758.282,-539 752.282,-539 752.282,-539 513.681,-539 513.681,-539 507.681,-539 501.681,-533 501.681,-527 501.681,-527 501.681,-477 501.681,-477 501.681,-471 507.681,-465 513.681,-465"/>
<text text-anchor="middle" x="633.302" y="-523.8" font-family="Times,serif" font-size="14.00" fill="#000033">VinaiKopp_PostCodeFilter_Helper_Factory</text>
</g>
<g id="clust10" class="cluster"><title>cluster_9</title>
<path fill="#ccccff" stroke="#000033" d="M100.037,-188C100.037,-188 345.644,-188 345.644,-188 351.644,-188 357.644,-194 357.644,-200 357.644,-200 357.644,-250 357.644,-250 357.644,-256 351.644,-262 345.644,-262 345.644,-262 100.037,-262 100.037,-262 94.0371,-262 88.0371,-256 88.0371,-250 88.0371,-250 88.0371,-200 88.0371,-200 88.0371,-194 94.0371,-188 100.037,-188"/>
<text text-anchor="middle" x="223.162" y="-246.8" font-family="Times,serif" font-size="14.00" fill="#000033">VinaiKopp_PostCodeFilter_Model_Observer</text>
</g>
<g id="clust11" class="cluster"><title>cluster_10</title>
<path fill="#ccccff" stroke="#000033" d="M561.27,-106C561.27,-106 705.693,-106 705.693,-106 711.693,-106 717.693,-112 717.693,-118 717.693,-118 717.693,-168 717.693,-168 717.693,-174 711.693,-180 705.693,-180 705.693,-180 561.27,-180 561.27,-180 555.27,-180 549.27,-174 549.27,-168 549.27,-168 549.27,-118 549.27,-118 549.27,-112 555.27,-106 561.27,-106"/>
<text text-anchor="middle" x="633.866" y="-164.8" font-family="Times,serif" font-size="14.00" fill="#000033">Mage_Sales_Model_Quote</text>
</g>
<g id="clust12" class="cluster"><title>cluster_11</title>
<path fill="#ccccff" stroke="#000033" d="M526.272,-24C526.272,-24 740.691,-24 740.691,-24 746.691,-24 752.691,-30 752.691,-36 752.691,-36 752.691,-86 752.691,-86 752.691,-92 746.691,-98 740.691,-98 740.691,-98 526.272,-98 526.272,-98 520.272,-98 514.272,-92 514.272,-86 514.272,-86 514.272,-36 514.272,-36 514.272,-30 520.272,-24 526.272,-24"/>
<text text-anchor="middle" x="633.865" y="-82.8" font-family="Times,serif" font-size="14.00" fill="#000033">Mage_Core_Controller_Response_Http</text>
</g>
<g id="clust13" class="cluster"><title>cluster_12</title>
<path fill="#ccccff" stroke="#000033" d="M534.383,-188C534.383,-188 731.58,-188 731.58,-188 737.58,-188 743.58,-194 743.58,-200 743.58,-200 743.58,-250 743.58,-250 743.58,-256 737.58,-262 731.58,-262 731.58,-262 534.383,-262 534.383,-262 528.383,-262 522.383,-256 522.383,-250 522.383,-250 522.383,-200 522.383,-200 522.383,-194 528.383,-188 534.383,-188"/>
<text text-anchor="middle" x="633.421" y="-246.8" font-family="Times,serif" font-size="14.00" fill="#000033">Mage_Sales_Model_Quote_Address</text>
</g>
<g id="clust14" class="cluster"><title>cluster_13</title>
<path fill="#ccccff" stroke="#000033" d="M61.542,-1181C61.542,-1181 384.139,-1181 384.139,-1181 390.139,-1181 396.139,-1187 396.139,-1193 396.139,-1193 396.139,-1243 396.139,-1243 396.139,-1249 390.139,-1255 384.139,-1255 384.139,-1255 61.542,-1255 61.542,-1255 55.542,-1255 49.542,-1249 49.542,-1243 49.542,-1243 49.542,-1193 49.542,-1193 49.542,-1187 55.542,-1181 61.542,-1181"/>
<text text-anchor="middle" x="223.16" y="-1239.8" font-family="Times,serif" font-size="14.00" fill="#000033">VinaiKopp_PostCodeFilter_Model_Resource_RuleStorage</text>
</g>
<g id="clust15" class="cluster"><title>cluster_14</title>
<path fill="#ccccff" stroke="#000033" d="M552.457,-1181C552.457,-1181 713.506,-1181 713.506,-1181 719.506,-1181 725.506,-1187 725.506,-1193 725.506,-1193 725.506,-1243 725.506,-1243 725.506,-1249 719.506,-1255 713.506,-1255 713.506,-1255 552.457,-1255 552.457,-1255 546.457,-1255 540.457,-1249 540.457,-1243 540.457,-1243 540.457,-1193 540.457,-1193 540.457,-1187 546.457,-1181 552.457,-1181"/>
<text text-anchor="middle" x="633.191" y="-1239.8" font-family="Times,serif" font-size="14.00" fill="#000033">Varien_Db_Adapter_Interface</text>
</g>
<g id="clust16" class="cluster"><title>cluster_15</title>
<path fill="#ccccff" stroke="#000033" d="M83.0889,-525C83.0889,-525 362.592,-525 362.592,-525 368.592,-525 374.592,-531 374.592,-537 374.592,-537 374.592,-587 374.592,-587 374.592,-593 368.592,-599 362.592,-599 362.592,-599 83.0889,-599 83.0889,-599 77.0889,-599 71.0889,-593 71.0889,-587 71.0889,-587 71.0889,-537 71.0889,-537 71.0889,-531 77.0889,-525 83.0889,-525"/>
<text text-anchor="middle" x="222.941" y="-583.8" font-family="Times,serif" font-size="14.00" fill="#000033">VinaiKopp_PostCodeFilter_Model_RuleCollection</text>
</g>
<g id="clust17" class="cluster"><title>cluster_16</title>
<path fill="#ccccff" stroke="#000033" d="M12,-293C12,-293 434.681,-293 434.681,-293 440.681,-293 446.681,-299 446.681,-305 446.681,-305 446.681,-355 446.681,-355 446.681,-361 440.681,-367 434.681,-367 434.681,-367 12,-367 12,-367 6,-367 0,-361 0,-355 0,-355 0,-305 0,-305 0,-299 6,-293 12,-293"/>
<text text-anchor="middle" x="223.376" y="-351.8" font-family="Times,serif" font-size="14.00" fill="#000033">VinaiKopp_PostCodeFilter_Adminhtml_Vinaikopp_PostcodefilterController</text>
</g>
<g id="clust18" class="cluster"><title>cluster_17</title>
<path fill="#ccccff" stroke="#000033" d="M72.0371,-435C72.0371,-435 373.644,-435 373.644,-435 379.644,-435 385.644,-441 385.644,-447 385.644,-447 385.644,-497 385.644,-497 385.644,-503 379.644,-509 373.644,-509 373.644,-509 72.0371,-509 72.0371,-509 66.0371,-509 60.0371,-503 60.0371,-497 60.0371,-497 60.0371,-447 60.0371,-447 60.0371,-441 66.0371,-435 72.0371,-435"/>
<text text-anchor="middle" x="223.162" y="-493.8" font-family="Times,serif" font-size="14.00" fill="#000033">VinaiKopp_PostCodeFilter_Frontend_CheckController</text>
</g>
<!-- VinaiKopp\\PostCodeFilter\\AdminAddsRule -->
<g id="node1" class="node"><title>VinaiKopp\\PostCodeFilter\\AdminAddsRule</title>
<path fill="#9999cc" stroke="black" d="M1047.61,-352C1047.61,-352 878.245,-352 878.245,-352 872.245,-352 866.245,-346 866.245,-340 866.245,-340 866.245,-328 866.245,-328 866.245,-322 872.245,-316 878.245,-316 878.245,-316 1047.61,-316 1047.61,-316 1053.61,-316 1059.61,-322 1059.61,-328 1059.61,-328 1059.61,-340 1059.61,-340 1059.61,-346 1053.61,-352 1047.61,-352"/>
<text text-anchor="middle" x="962.928" y="-331" font-family="Times,serif" font-size="10.00" fill="#000033">VinaiKopp\PostCodeFilter\AdminAddsRule</text>
</g>
<!-- VinaiKopp\\PostCodeFilter\\Storage\\WriteModel\\RuleWriter -->
<g id="node2" class="node"><title>VinaiKopp\\PostCodeFilter\\Storage\\WriteModel\\RuleWriter</title>
<path fill="#9999cc" stroke="black" d="M1473.71,-295C1473.71,-295 1243.58,-295 1243.58,-295 1237.58,-295 1231.58,-289 1231.58,-283 1231.58,-283 1231.58,-271 1231.58,-271 1231.58,-265 1237.58,-259 1243.58,-259 1243.58,-259 1473.71,-259 1473.71,-259 1479.71,-259 1485.71,-265 1485.71,-271 1485.71,-271 1485.71,-283 1485.71,-283 1485.71,-289 1479.71,-295 1473.71,-295"/>
<text text-anchor="middle" x="1358.65" y="-274" font-family="Times,serif" font-size="10.00" fill="#000033">VinaiKopp\PostCodeFilter\Storage\WriteModel\RuleWriter</text>
</g>
<!-- VinaiKopp\\PostCodeFilter\\AdminAddsRule&#45;&gt;VinaiKopp\\PostCodeFilter\\Storage\\WriteModel\\RuleWriter -->
<g id="edge1" class="edge"><title>VinaiKopp\\PostCodeFilter\\AdminAddsRule&#45;&gt;VinaiKopp\\PostCodeFilter\\Storage\\WriteModel\\RuleWriter</title>
<path fill="none" stroke="#999999" d="M1059.56,-317.998C1094.18,-312.378 1133.6,-306.18 1169.57,-301 1187.5,-298.418 1206.41,-295.837 1225.06,-293.377"/>
<polygon fill="#999999" stroke="#999999" points="1225.69,-295.411 1231.37,-292.547 1225.14,-291.247 1225.69,-295.411"/>
</g>
<!-- VinaiKopp\\PostCodeFilter\\Storage\\ReadModel\\RuleReader -->
<g id="node3" class="node"><title>VinaiKopp\\PostCodeFilter\\Storage\\ReadModel\\RuleReader</title>
<path fill="#9999cc" stroke="black" d="M1474.51,-365C1474.51,-365 1242.78,-365 1242.78,-365 1236.78,-365 1230.78,-359 1230.78,-353 1230.78,-353 1230.78,-341 1230.78,-341 1230.78,-335 1236.78,-329 1242.78,-329 1242.78,-329 1474.51,-329 1474.51,-329 1480.51,-329 1486.51,-335 1486.51,-341 1486.51,-341 1486.51,-353 1486.51,-353 1486.51,-359 1480.51,-365 1474.51,-365"/>
<text text-anchor="middle" x="1358.65" y="-344" font-family="Times,serif" font-size="10.00" fill="#000033">VinaiKopp\PostCodeFilter\Storage\ReadModel\RuleReader</text>
</g>
<!-- VinaiKopp\\PostCodeFilter\\AdminAddsRule&#45;&gt;VinaiKopp\\PostCodeFilter\\Storage\\ReadModel\\RuleReader -->
<g id="edge2" class="edge"><title>VinaiKopp\\PostCodeFilter\\AdminAddsRule&#45;&gt;VinaiKopp\\PostCodeFilter\\Storage\\ReadModel\\RuleReader</title>
<path fill="none" stroke="#999999" d="M1059.74,-337.164C1109.27,-338.799 1170.51,-340.821 1224.57,-342.606"/>
<polygon fill="#999999" stroke="#999999" points="1224.72,-344.712 1230.78,-342.811 1224.85,-340.514 1224.72,-344.712"/>
</g>
<!-- VinaiKopp\\PostCodeFilter\\Storage\\WriteModel\\RuleToAdd -->
<g id="node4" class="node"><title>VinaiKopp\\PostCodeFilter\\Storage\\WriteModel\\RuleToAdd</title>
<path fill="#9999cc" stroke="black" d="M1908.69,-295C1908.69,-295 1676.68,-295 1676.68,-295 1670.68,-295 1664.68,-289 1664.68,-283 1664.68,-283 1664.68,-271 1664.68,-271 1664.68,-265 1670.68,-259 1676.68,-259 1676.68,-259 1908.69,-259 1908.69,-259 1914.69,-259 1920.69,-265 1920.69,-271 1920.69,-271 1920.69,-283 1920.69,-283 1920.69,-289 1914.69,-295 1908.69,-295"/>
<text text-anchor="middle" x="1792.68" y="-274" font-family="Times,serif" font-size="10.00" fill="#000033">VinaiKopp\PostCodeFilter\Storage\WriteModel\RuleToAdd</text>
</g>
<!-- VinaiKopp\\PostCodeFilter\\AdminAddsRule&#45;&gt;VinaiKopp\\PostCodeFilter\\Storage\\WriteModel\\RuleToAdd -->
<g id="edge3" class="edge"><title>VinaiKopp\\PostCodeFilter\\AdminAddsRule&#45;&gt;VinaiKopp\\PostCodeFilter\\Storage\\WriteModel\\RuleToAdd</title>
<path fill="none" stroke="#999999" d="M1059.58,-330.002C1200.15,-323.996 1455.81,-312.549 1547.72,-305 1583.67,-302.047 1622.5,-297.988 1658.39,-293.876"/>
<polygon fill="#999999" stroke="#999999" points="1658.86,-295.935 1664.58,-293.162 1658.38,-291.763 1658.86,-295.935"/>
</g>
<!-- VinaiKopp\\PostCodeFilter\\Rule\\ExistingRule -->
<g id="node5" class="node"><title>VinaiKopp\\PostCodeFilter\\Rule\\ExistingRule</title>
<path fill="#9999cc" stroke="black" d="M1880.47,-537C1880.47,-537 1704.89,-537 1704.89,-537 1698.89,-537 1692.89,-531 1692.89,-525 1692.89,-525 1692.89,-513 1692.89,-513 1692.89,-507 1698.89,-501 1704.89,-501 1704.89,-501 1880.47,-501 1880.47,-501 1886.47,-501 1892.47,-507 1892.47,-513 1892.47,-513 1892.47,-525 1892.47,-525 1892.47,-531 1886.47,-537 1880.47,-537"/>
<text text-anchor="middle" x="1792.68" y="-516" font-family="Times,serif" font-size="10.00" fill="#000033">VinaiKopp\PostCodeFilter\Rule\ExistingRule</text>
</g>
<!-- VinaiKopp\\PostCodeFilter\\AdminAddsRule&#45;&gt;VinaiKopp\\PostCodeFilter\\Rule\\ExistingRule -->
<g id="edge4" class="edge"><title>VinaiKopp\\PostCodeFilter\\AdminAddsRule&#45;&gt;VinaiKopp\\PostCodeFilter\\Rule\\ExistingRule</title>
<path fill="none" stroke="#999999" d="M995.134,-352.217C1052.62,-385.772 1169.42,-453.952 1169.57,-454 1330.27,-505.753 1379.85,-472.035 1547.72,-490 1593.39,-494.888 1643.8,-500.795 1686.89,-505.999"/>
<polygon fill="#999999" stroke="#999999" points="1686.71,-508.092 1692.92,-506.728 1687.22,-503.923 1686.71,-508.092"/>
</g>
<!-- VinaiKopp\\PostCodeFilter\\Exceptions\\RuleForGroupAndCountryAlreadyExistsException -->
<g id="node6" class="node"><title>VinaiKopp\\PostCodeFilter\\Exceptions\\RuleForGroupAndCountryAlreadyExistsException</title>
<path fill="#9999cc" stroke="black" d="M1535.79,-408C1535.79,-408 1181.5,-408 1181.5,-408 1175.5,-408 1169.5,-402 1169.5,-396 1169.5,-396 1169.5,-384 1169.5,-384 1169.5,-378 1175.5,-372 1181.5,-372 1181.5,-372 1535.79,-372 1535.79,-372 1541.79,-372 1547.79,-378 1547.79,-384 1547.79,-384 1547.79,-396 1547.79,-396 1547.79,-402 1541.79,-408 1535.79,-408"/>
<text text-anchor="middle" x="1358.65" y="-387" font-family="Times,serif" font-size="10.00" fill="#000033">VinaiKopp\PostCodeFilter\Exceptions\RuleForGroupAndCountryAlreadyExistsException</text>
</g>
<!-- VinaiKopp\\PostCodeFilter\\AdminAddsRule&#45;&gt;VinaiKopp\\PostCodeFilter\\Exceptions\\RuleForGroupAndCountryAlreadyExistsException -->
<g id="edge5" class="edge"><title>VinaiKopp\\PostCodeFilter\\AdminAddsRule&#45;&gt;VinaiKopp\\PostCodeFilter\\Exceptions\\RuleForGroupAndCountryAlreadyExistsException</title>
<path fill="none" stroke="#999999" d="M1059.77,-350.814C1094.33,-356.62 1133.65,-362.932 1169.57,-368 1177.23,-369.08 1185.06,-370.146 1192.97,-371.194"/>
<polygon fill="#999999" stroke="#999999" points="1192.82,-373.291 1199.04,-371.99 1193.37,-369.127 1192.82,-373.291"/>
</g>
<!-- VinaiKopp\\PostCodeFilter\\Storage\\ReadModel\\RuleSpecByCountryAndGroupIds -->
<g id="node7" class="node"><title>VinaiKopp\\PostCodeFilter\\Storage\\ReadModel\\RuleSpecByCountryAndGroupIds</title>
<path fill="#9999cc" stroke="black" d="M1953.61,-209C1953.61,-209 1631.75,-209 1631.75,-209 1625.75,-209 1619.75,-203 1619.75,-197 1619.75,-197 1619.75,-185 1619.75,-185 1619.75,-179 1625.75,-173 1631.75,-173 1631.75,-173 1953.61,-173 1953.61,-173 1959.61,-173 1965.61,-179 1965.61,-185 1965.61,-185 1965.61,-197 1965.61,-197 1965.61,-203 1959.61,-209 1953.61,-209"/>
<text text-anchor="middle" x="1792.68" y="-188" font-family="Times,serif" font-size="10.00" fill="#000033">VinaiKopp\PostCodeFilter\Storage\ReadModel\RuleSpecByCountryAndGroupIds</text>
</g>
<!-- VinaiKopp\\PostCodeFilter\\AdminAddsRule&#45;&gt;VinaiKopp\\PostCodeFilter\\Storage\\ReadModel\\RuleSpecByCountryAndGroupIds -->
<g id="edge6" class="edge"><title>VinaiKopp\\PostCodeFilter\\AdminAddsRule&#45;&gt;VinaiKopp\\PostCodeFilter\\Storage\\ReadModel\\RuleSpecByCountryAndGroupIds</title>
<path fill="none" stroke="#999999" d="M1059.72,-319.884C1094.27,-315.325 1133.6,-310.743 1169.57,-308 1190.53,-306.402 1528.77,-307.088 1547.72,-298 1592.36,-276.589 1576.21,-236.633 1619.72,-213 1620.34,-212.659 1620.98,-212.322 1621.61,-211.99"/>
<polygon fill="#999999" stroke="#999999" points="1622.96,-213.665 1627.4,-209.115 1621.09,-209.903 1622.96,-213.665"/>
</g>
<!-- VinaiKopp\\PostCodeFilter\\Storage\\WriteModel\\RuleWriter&#45;&gt;VinaiKopp\\PostCodeFilter\\Storage\\WriteModel\\RuleToAdd -->
<g id="edge74" class="edge"><title>VinaiKopp\\PostCodeFilter\\Storage\\WriteModel\\RuleWriter&#45;&gt;VinaiKopp\\PostCodeFilter\\Storage\\WriteModel\\RuleToAdd</title>
<path fill="none" stroke="#999999" d="M1485.77,-277C1539.97,-277 1603.36,-277 1658.34,-277"/>
<polygon fill="#999999" stroke="#999999" points="1658.65,-279.1 1664.65,-277 1658.65,-274.9 1658.65,-279.1"/>
</g>
<!-- VinaiKopp\\PostCodeFilter\\Storage\\WriteModel\\RuleToDelete -->
<g id="node9" class="node"><title>VinaiKopp\\PostCodeFilter\\Storage\\WriteModel\\RuleToDelete</title>
<path fill="#9999cc" stroke="black" d="M1913.56,-252C1913.56,-252 1671.81,-252 1671.81,-252 1665.81,-252 1659.81,-246 1659.81,-240 1659.81,-240 1659.81,-228 1659.81,-228 1659.81,-222 1665.81,-216 1671.81,-216 1671.81,-216 1913.56,-216 1913.56,-216 1919.56,-216 1925.56,-222 1925.56,-228 1925.56,-228 1925.56,-240 1925.56,-240 1925.56,-246 1919.56,-252 1913.56,-252"/>
<text text-anchor="middle" x="1792.68" y="-231" font-family="Times,serif" font-size="10.00" fill="#000033">VinaiKopp\PostCodeFilter\Storage\WriteModel\RuleToDelete</text>
</g>
<!-- VinaiKopp\\PostCodeFilter\\Storage\\WriteModel\\RuleWriter&#45;&gt;VinaiKopp\\PostCodeFilter\\Storage\\WriteModel\\RuleToDelete -->
<g id="edge75" class="edge"><title>VinaiKopp\\PostCodeFilter\\Storage\\WriteModel\\RuleWriter&#45;&gt;VinaiKopp\\PostCodeFilter\\Storage\\WriteModel\\RuleToDelete</title>
<path fill="none" stroke="#999999" d="M1485.77,-264.447C1538.41,-259.208 1599.72,-253.106 1653.57,-247.746"/>
<polygon fill="#999999" stroke="#999999" points="1654,-249.814 1659.76,-247.13 1653.59,-245.634 1654,-249.814"/>
</g>
<!-- VinaiKopp\\PostCodeFilter\\Storage\\ReadModel\\RuleReader&#45;&gt;VinaiKopp\\PostCodeFilter\\Storage\\ReadModel\\RuleSpecByCountryAndGroupIds -->
<g id="edge50" class="edge"><title>VinaiKopp\\PostCodeFilter\\Storage\\ReadModel\\RuleReader&#45;&gt;VinaiKopp\\PostCodeFilter\\Storage\\ReadModel\\RuleSpecByCountryAndGroupIds</title>
<path fill="none" stroke="#999999" d="M1486.79,-331.138C1508.16,-325.033 1529.33,-316.611 1547.72,-305 1591.62,-277.278 1574.58,-238.664 1619.72,-213 1620.31,-212.665 1620.9,-212.335 1621.49,-212.008"/>
<polygon fill="#999999" stroke="#999999" points="1622.57,-213.817 1626.92,-209.181 1620.62,-210.092 1622.57,-213.817"/>
</g>
<!-- VinaiKopp\\PostCodeFilter\\Rule\\Rule -->
<g id="node13" class="node"><title>VinaiKopp\\PostCodeFilter\\Rule\\Rule</title>
<path fill="#9999cc" stroke="black" d="M1863.64,-381C1863.64,-381 1721.73,-381 1721.73,-381 1715.73,-381 1709.73,-375 1709.73,-369 1709.73,-369 1709.73,-357 1709.73,-357 1709.73,-351 1715.73,-345 1721.73,-345 1721.73,-345 1863.64,-345 1863.64,-345 1869.64,-345 1875.64,-351 1875.64,-357 1875.64,-357 1875.64,-369 1875.64,-369 1875.64,-375 1869.64,-381 1863.64,-381"/>
<text text-anchor="middle" x="1792.68" y="-360" font-family="Times,serif" font-size="10.00" fill="#000033">VinaiKopp\PostCodeFilter\Rule\Rule</text>
</g>
<!-- VinaiKopp\\PostCodeFilter\\Storage\\ReadModel\\RuleReader&#45;&gt;VinaiKopp\\PostCodeFilter\\Rule\\Rule -->
<g id="edge49" class="edge"><title>VinaiKopp\\PostCodeFilter\\Storage\\ReadModel\\RuleReader&#45;&gt;VinaiKopp\\PostCodeFilter\\Rule\\Rule</title>
<path fill="none" stroke="#999999" d="M1486.35,-351.692C1556.04,-354.273 1640.78,-357.412 1703.29,-359.727"/>
<polygon fill="#999999" stroke="#999999" points="1703.58,-361.838 1709.65,-359.962 1703.73,-357.641 1703.58,-361.838"/>
</g>
<!-- VinaiKopp\\PostCodeFilter\\Storage\\ReadModel\\RuleSpecByCountryAndGroupId -->
<g id="node19" class="node"><title>VinaiKopp\\PostCodeFilter\\Storage\\ReadModel\\RuleSpecByCountryAndGroupId</title>
<path fill="#9999cc" stroke="black" d="M1951.72,-433C1951.72,-433 1633.64,-433 1633.64,-433 1627.64,-433 1621.64,-427 1621.64,-421 1621.64,-421 1621.64,-409 1621.64,-409 1621.64,-403 1627.64,-397 1633.64,-397 1633.64,-397 1951.72,-397 1951.72,-397 1957.72,-397 1963.72,-403 1963.72,-409 1963.72,-409 1963.72,-421 1963.72,-421 1963.72,-427 1957.72,-433 1951.72,-433"/>
<text text-anchor="middle" x="1792.68" y="-412" font-family="Times,serif" font-size="10.00" fill="#000033">VinaiKopp\PostCodeFilter\Storage\ReadModel\RuleSpecByCountryAndGroupId</text>
</g>
<!-- VinaiKopp\\PostCodeFilter\\Storage\\ReadModel\\RuleReader&#45;&gt;VinaiKopp\\PostCodeFilter\\Storage\\ReadModel\\RuleSpecByCountryAndGroupId -->
<g id="edge48" class="edge"><title>VinaiKopp\\PostCodeFilter\\Storage\\ReadModel\\RuleReader&#45;&gt;VinaiKopp\\PostCodeFilter\\Storage\\ReadModel\\RuleSpecByCountryAndGroupId</title>
<path fill="none" stroke="#999999" d="M1486.57,-360.287C1507.06,-362.88 1528,-365.8 1547.72,-369 1579.98,-374.237 1587.63,-377.767 1619.72,-384 1640.04,-387.949 1661.76,-391.996 1682.67,-395.808"/>
<polygon fill="#999999" stroke="#999999" points="1682.56,-397.923 1688.84,-396.93 1683.32,-393.79 1682.56,-397.923"/>
</g>
<!-- VinaiKopp\\PostCodeFilter\\Rule\\Components\\Country -->
<g id="node16" class="node"><title>VinaiKopp\\PostCodeFilter\\Rule\\Components\\Country</title>
<path fill="#9999cc" stroke="black" d="M2286.7,-381C2286.7,-381 2077.33,-381 2077.33,-381 2071.33,-381 2065.33,-375 2065.33,-369 2065.33,-369 2065.33,-357 2065.33,-357 2065.33,-351 2071.33,-345 2077.33,-345 2077.33,-345 2286.7,-345 2286.7,-345 2292.7,-345 2298.7,-351 2298.7,-357 2298.7,-357 2298.7,-369 2298.7,-369 2298.7,-375 2292.7,-381 2286.7,-381"/>
<text text-anchor="middle" x="2182.01" y="-360" font-family="Times,serif" font-size="10.00" fill="#000033">VinaiKopp\PostCodeFilter\Rule\Components\Country</text>
</g>
<!-- VinaiKopp\\PostCodeFilter\\Storage\\WriteModel\\RuleToAdd&#45;&gt;VinaiKopp\\PostCodeFilter\\Rule\\Components\\Country -->
<g id="edge71" class="edge"><title>VinaiKopp\\PostCodeFilter\\Storage\\WriteModel\\RuleToAdd&#45;&gt;VinaiKopp\\PostCodeFilter\\Rule\\Components\\Country</title>
<path fill="none" stroke="#999999" d="M1920.85,-287.402C1936.16,-290.366 1951.4,-294.157 1965.65,-299 2000.72,-310.923 2002.72,-328.64 2037.65,-341 2044.51,-343.429 2051.65,-345.589 2058.92,-347.511"/>
<polygon fill="#999999" stroke="#999999" points="2058.72,-349.627 2065.05,-349.071 2059.75,-345.557 2058.72,-349.627"/>
</g>
<!-- VinaiKopp\\PostCodeFilter\\Rule\\Components\\CustomerGroupIdList -->
<g id="node17" class="node"><title>VinaiKopp\\PostCodeFilter\\Rule\\Components\\CustomerGroupIdList</title>
<path fill="#9999cc" stroke="black" d="M2314.24,-338C2314.24,-338 2049.78,-338 2049.78,-338 2043.78,-338 2037.78,-332 2037.78,-326 2037.78,-326 2037.78,-314 2037.78,-314 2037.78,-308 2043.78,-302 2049.78,-302 2049.78,-302 2314.24,-302 2314.24,-302 2320.24,-302 2326.24,-308 2326.24,-314 2326.24,-314 2326.24,-326 2326.24,-326 2326.24,-332 2320.24,-338 2314.24,-338"/>
<text text-anchor="middle" x="2182.01" y="-317" font-family="Times,serif" font-size="10.00" fill="#000033">VinaiKopp\PostCodeFilter\Rule\Components\CustomerGroupIdList</text>
</g>
<!-- VinaiKopp\\PostCodeFilter\\Storage\\WriteModel\\RuleToAdd&#45;&gt;VinaiKopp\\PostCodeFilter\\Rule\\Components\\CustomerGroupIdList -->
<g id="edge69" class="edge"><title>VinaiKopp\\PostCodeFilter\\Storage\\WriteModel\\RuleToAdd&#45;&gt;VinaiKopp\\PostCodeFilter\\Rule\\Components\\CustomerGroupIdList</title>
<path fill="none" stroke="#999999" d="M1920.78,-291.11C1956.12,-295.033 1994.83,-299.33 2031.33,-303.383"/>
<polygon fill="#999999" stroke="#999999" points="2031.45,-305.509 2037.64,-304.084 2031.91,-301.334 2031.45,-305.509"/>
</g>
<!-- VinaiKopp\\PostCodeFilter\\Rule\\Components\\PostCodeList -->
<g id="node26" class="node"><title>VinaiKopp\\PostCodeFilter\\Rule\\Components\\PostCodeList</title>
<path fill="#9999cc" stroke="black" d="M2297.31,-450C2297.31,-450 2066.71,-450 2066.71,-450 2060.71,-450 2054.71,-444 2054.71,-438 2054.71,-438 2054.71,-426 2054.71,-426 2054.71,-420 2060.71,-414 2066.71,-414 2066.71,-414 2297.31,-414 2297.31,-414 2303.31,-414 2309.31,-420 2309.31,-426 2309.31,-426 2309.31,-438 2309.31,-438 2309.31,-444 2303.31,-450 2297.31,-450"/>
<text text-anchor="middle" x="2182.01" y="-429" font-family="Times,serif" font-size="10.00" fill="#000033">VinaiKopp\PostCodeFilter\Rule\Components\PostCodeList</text>
</g>
<!-- VinaiKopp\\PostCodeFilter\\Storage\\WriteModel\\RuleToAdd&#45;&gt;VinaiKopp\\PostCodeFilter\\Rule\\Components\\PostCodeList -->
<g id="edge70" class="edge"><title>VinaiKopp\\PostCodeFilter\\Storage\\WriteModel\\RuleToAdd&#45;&gt;VinaiKopp\\PostCodeFilter\\Rule\\Components\\PostCodeList</title>
<path fill="none" stroke="#999999" d="M1921.05,-282.413C1936.63,-286.185 1951.9,-291.529 1965.65,-299 2009.15,-322.633 1996.66,-356.227 2037.65,-384 2055.15,-395.86 2075.83,-405.009 2095.96,-411.978"/>
<polygon fill="#999999" stroke="#999999" points="2095.54,-414.054 2101.9,-413.979 2096.88,-410.074 2095.54,-414.054"/>
</g>
<!-- VinaiKopp\\PostCodeFilter\\Rule\\ExistingRule&#45;&gt;VinaiKopp\\PostCodeFilter\\Rule\\Components\\Country -->
<g id="edge38" class="edge"><title>VinaiKopp\\PostCodeFilter\\Rule\\ExistingRule&#45;&gt;VinaiKopp\\PostCodeFilter\\Rule\\Components\\Country</title>
<path fill="none" stroke="#999999" d="M1892.66,-517.532C1917.64,-513.915 1943.6,-507.141 1965.65,-495 2009.02,-471.119 1996.58,-437.644 2037.65,-410 2054.66,-398.552 2074.67,-389.711 2094.25,-382.953"/>
<polygon fill="#999999" stroke="#999999" points="2095.02,-384.912 2100.04,-381.012 2093.68,-380.93 2095.02,-384.912"/>
</g>
<!-- VinaiKopp\\PostCodeFilter\\Rule\\ExistingRule&#45;&gt;VinaiKopp\\PostCodeFilter\\Rule\\Components\\CustomerGroupIdList -->
<g id="edge39" class="edge"><title>VinaiKopp\\PostCodeFilter\\Rule\\ExistingRule&#45;&gt;VinaiKopp\\PostCodeFilter\\Rule\\Components\\CustomerGroupIdList</title>
<path fill="none" stroke="#999999" d="M1892.45,-515.641C1918.26,-510.796 1944.69,-501.88 1965.65,-486 2022.68,-442.789 1979.82,-384.139 2037.65,-342 2037.76,-341.917 2037.88,-341.833 2037.99,-341.751"/>
<polygon fill="#999999" stroke="#999999" points="2039.48,-343.284 2043.28,-338.193 2037.13,-339.798 2039.48,-343.284"/>
</g>
<!-- VinaiKopp\\PostCodeFilter\\Rule\\Components\\CustomerGroupId -->
<g id="node20" class="node"><title>VinaiKopp\\PostCodeFilter\\Rule\\Components\\CustomerGroupId</title>
<path fill="#9999cc" stroke="black" d="M2660.18,-537C2660.18,-537 2410.84,-537 2410.84,-537 2404.84,-537 2398.84,-531 2398.84,-525 2398.84,-525 2398.84,-513 2398.84,-513 2398.84,-507 2404.84,-501 2410.84,-501 2410.84,-501 2660.18,-501 2660.18,-501 2666.18,-501 2672.18,-507 2672.18,-513 2672.18,-513 2672.18,-525 2672.18,-525 2672.18,-531 2666.18,-537 2660.18,-537"/>
<text text-anchor="middle" x="2535.51" y="-516" font-family="Times,serif" font-size="10.00" fill="#000033">VinaiKopp\PostCodeFilter\Rule\Components\CustomerGroupId</text>
</g>
<!-- VinaiKopp\\PostCodeFilter\\Rule\\ExistingRule&#45;&gt;VinaiKopp\\PostCodeFilter\\Rule\\Components\\CustomerGroupId -->
<g id="edge37" class="edge"><title>VinaiKopp\\PostCodeFilter\\Rule\\ExistingRule&#45;&gt;VinaiKopp\\PostCodeFilter\\Rule\\Components\\CustomerGroupId</title>
<path fill="none" stroke="#999999" d="M1892.44,-519C2020.86,-519 2246.02,-519 2392.69,-519"/>
<polygon fill="#999999" stroke="#999999" points="2392.74,-521.1 2398.74,-519 2392.74,-516.9 2392.74,-521.1"/>
</g>
<!-- VinaiKopp\\PostCodeFilter\\Rule\\Components\\PostCode -->
<g id="node25" class="node"><title>VinaiKopp\\PostCodeFilter\\Rule\\Components\\PostCode</title>
<path fill="#9999cc" stroke="black" d="M2642.75,-472C2642.75,-472 2428.26,-472 2428.26,-472 2422.26,-472 2416.26,-466 2416.26,-460 2416.26,-460 2416.26,-448 2416.26,-448 2416.26,-442 2422.26,-436 2428.26,-436 2428.26,-436 2642.75,-436 2642.75,-436 2648.75,-436 2654.75,-442 2654.75,-448 2654.75,-448 2654.75,-460 2654.75,-460 2654.75,-466 2648.75,-472 2642.75,-472"/>
<text text-anchor="middle" x="2535.51" y="-451" font-family="Times,serif" font-size="10.00" fill="#000033">VinaiKopp\PostCodeFilter\Rule\Components\PostCode</text>
</g>
<!-- VinaiKopp\\PostCodeFilter\\Rule\\ExistingRule&#45;&gt;VinaiKopp\\PostCodeFilter\\Rule\\Components\\PostCode -->
<g id="edge41" class="edge"><title>VinaiKopp\\PostCodeFilter\\Rule\\ExistingRule&#45;&gt;VinaiKopp\\PostCodeFilter\\Rule\\Components\\PostCode</title>
<path fill="none" stroke="#999999" d="M1892.44,-510.335C2026.1,-498.608 2264.58,-477.684 2410.25,-464.902"/>
<polygon fill="#999999" stroke="#999999" points="2410.47,-466.992 2416.26,-464.375 2410.1,-462.808 2410.47,-466.992"/>
</g>
<!-- VinaiKopp\\PostCodeFilter\\Rule\\ExistingRule&#45;&gt;VinaiKopp\\PostCodeFilter\\Rule\\Components\\PostCodeList -->
<g id="edge40" class="edge"><title>VinaiKopp\\PostCodeFilter\\Rule\\ExistingRule&#45;&gt;VinaiKopp\\PostCodeFilter\\Rule\\Components\\PostCodeList</title>
<path fill="none" stroke="#999999" d="M1892.33,-507.749C1916.44,-504.309 1942.07,-500.066 1965.65,-495 2018.94,-483.551 2078.31,-465.797 2121.2,-452.051"/>
<polygon fill="#999999" stroke="#999999" points="2122.07,-453.976 2127.14,-450.139 2120.78,-449.978 2122.07,-453.976"/>
</g>
<!-- VinaiKopp\\PostCodeFilter\\Storage\\ReadModel\\RuleSpecByCountryAndGroupIds&#45;&gt;VinaiKopp\\PostCodeFilter\\Rule\\Components\\Country -->
<g id="edge53" class="edge"><title>VinaiKopp\\PostCodeFilter\\Storage\\ReadModel\\RuleSpecByCountryAndGroupIds&#45;&gt;VinaiKopp\\PostCodeFilter\\Rule\\Components\\Country</title>
<path fill="none" stroke="#999999" d="M1959.53,-209.149C1961.61,-210.372 1963.65,-211.655 1965.65,-213 2019.78,-249.467 1983.98,-303.858 2037.65,-341 2044.33,-345.624 2051.61,-349.433 2059.22,-352.557"/>
<polygon fill="#999999" stroke="#999999" points="2058.75,-354.626 2065.11,-354.815 2060.26,-350.704 2058.75,-354.626"/>
</g>
<!-- VinaiKopp\\PostCodeFilter\\Storage\\ReadModel\\RuleSpecByCountryAndGroupIds&#45;&gt;VinaiKopp\\PostCodeFilter\\Rule\\Components\\CustomerGroupIdList -->
<g id="edge54" class="edge"><title>VinaiKopp\\PostCodeFilter\\Storage\\ReadModel\\RuleSpecByCountryAndGroupIds&#45;&gt;VinaiKopp\\PostCodeFilter\\Rule\\Components\\CustomerGroupIdList</title>
<path fill="none" stroke="#999999" d="M1951.56,-209.071C1956.34,-210.296 1961.04,-211.604 1965.65,-213 2033.33,-233.506 2105.74,-273.724 2146.98,-298.588"/>
<polygon fill="#999999" stroke="#999999" points="2146.13,-300.526 2152.35,-301.841 2148.31,-296.934 2146.13,-300.526"/>
</g>
<!-- VinaiKopp\\PostCodeFilter\\AdminDeletesRule -->
<g id="node8" class="node"><title>VinaiKopp\\PostCodeFilter\\AdminDeletesRule</title>
<path fill="#9999cc" stroke="black" d="M1051.98,-295C1051.98,-295 873.873,-295 873.873,-295 867.873,-295 861.873,-289 861.873,-283 861.873,-283 861.873,-271 861.873,-271 861.873,-265 867.873,-259 873.873,-259 873.873,-259 1051.98,-259 1051.98,-259 1057.98,-259 1063.98,-265 1063.98,-271 1063.98,-271 1063.98,-283 1063.98,-283 1063.98,-289 1057.98,-295 1051.98,-295"/>
<text text-anchor="middle" x="962.928" y="-274" font-family="Times,serif" font-size="10.00" fill="#000033">VinaiKopp\PostCodeFilter\AdminDeletesRule</text>
</g>
<!-- VinaiKopp\\PostCodeFilter\\AdminDeletesRule&#45;&gt;VinaiKopp\\PostCodeFilter\\Storage\\WriteModel\\RuleWriter -->
<g id="edge7" class="edge"><title>VinaiKopp\\PostCodeFilter\\AdminDeletesRule&#45;&gt;VinaiKopp\\PostCodeFilter\\Storage\\WriteModel\\RuleWriter</title>
<path fill="none" stroke="#999999" d="M1064.04,-277C1113.07,-277 1172.76,-277 1225.48,-277"/>
<polygon fill="#999999" stroke="#999999" points="1225.54,-279.1 1231.54,-277 1225.54,-274.9 1225.54,-279.1"/>
</g>
<!-- VinaiKopp\\PostCodeFilter\\AdminDeletesRule&#45;&gt;VinaiKopp\\PostCodeFilter\\Storage\\ReadModel\\RuleReader -->
<g id="edge8" class="edge"><title>VinaiKopp\\PostCodeFilter\\AdminDeletesRule&#45;&gt;VinaiKopp\\PostCodeFilter\\Storage\\ReadModel\\RuleReader</title>
<path fill="none" stroke="#999999" d="M1063.54,-295.012C1097.21,-301.076 1135.02,-307.86 1169.57,-314 1194.96,-318.51 1222.27,-323.325 1248,-327.844"/>
<polygon fill="#999999" stroke="#999999" points="1247.89,-329.956 1254.16,-328.925 1248.61,-325.819 1247.89,-329.956"/>
</g>
<!-- VinaiKopp\\PostCodeFilter\\AdminDeletesRule&#45;&gt;VinaiKopp\\PostCodeFilter\\Storage\\ReadModel\\RuleSpecByCountryAndGroupIds -->
<g id="edge10" class="edge"><title>VinaiKopp\\PostCodeFilter\\AdminDeletesRule&#45;&gt;VinaiKopp\\PostCodeFilter\\Storage\\ReadModel\\RuleSpecByCountryAndGroupIds</title>
<path fill="none" stroke="#999999" d="M1064.06,-259.964C1097.52,-254.923 1135.06,-249.963 1169.57,-247 1253.33,-239.809 1464.93,-251.561 1547.72,-237 1580.94,-231.157 1586.83,-220.509 1619.72,-213 1623.95,-212.033 1628.26,-211.104 1632.61,-210.214"/>
<polygon fill="#999999" stroke="#999999" points="1633.1,-212.257 1638.58,-209.023 1632.28,-208.139 1633.1,-212.257"/>
</g>
<!-- VinaiKopp\\PostCodeFilter\\AdminDeletesRule&#45;&gt;VinaiKopp\\PostCodeFilter\\Storage\\WriteModel\\RuleToDelete -->
<g id="edge9" class="edge"><title>VinaiKopp\\PostCodeFilter\\AdminDeletesRule&#45;&gt;VinaiKopp\\PostCodeFilter\\Storage\\WriteModel\\RuleToDelete</title>
<path fill="none" stroke="#999999" d="M1063.96,-265.365C1097.49,-261.844 1135.11,-258.304 1169.57,-256 1337.35,-244.785 1379.68,-250.11 1547.72,-244 1581.91,-242.757 1618.8,-241.303 1653.29,-239.895"/>
<polygon fill="#999999" stroke="#999999" points="1653.79,-241.977 1659.7,-239.633 1653.61,-237.78 1653.79,-241.977"/>
</g>
<!-- VinaiKopp\\PostCodeFilter\\Rule\\NonexistentRule -->
<g id="node10" class="node"><title>VinaiKopp\\PostCodeFilter\\Rule\\NonexistentRule</title>
<path fill="#9999cc" stroke="black" d="M1887.96,-338C1887.96,-338 1697.4,-338 1697.4,-338 1691.4,-338 1685.4,-332 1685.4,-326 1685.4,-326 1685.4,-314 1685.4,-314 1685.4,-308 1691.4,-302 1697.4,-302 1697.4,-302 1887.96,-302 1887.96,-302 1893.96,-302 1899.96,-308 1899.96,-314 1899.96,-314 1899.96,-326 1899.96,-326 1899.96,-332 1893.96,-338 1887.96,-338"/>
<text text-anchor="middle" x="1792.68" y="-317" font-family="Times,serif" font-size="10.00" fill="#000033">VinaiKopp\PostCodeFilter\Rule\NonexistentRule</text>
</g>
<!-- VinaiKopp\\PostCodeFilter\\AdminDeletesRule&#45;&gt;VinaiKopp\\PostCodeFilter\\Rule\\NonexistentRule -->
<g id="edge11" class="edge"><title>VinaiKopp\\PostCodeFilter\\AdminDeletesRule&#45;&gt;VinaiKopp\\PostCodeFilter\\Rule\\NonexistentRule</title>
<path fill="none" stroke="#999999" d="M1063.97,-288.562C1097.49,-292.078 1135.11,-295.634 1169.57,-298 1347.44,-310.213 1554.4,-315.821 1679.1,-318.266"/>
<polygon fill="#999999" stroke="#999999" points="1679.31,-320.37 1685.35,-318.387 1679.39,-316.171 1679.31,-320.37"/>
</g>
<!-- VinaiKopp\\PostCodeFilter\\Exceptions\\RuleDoesNotExistException -->
<g id="node11" class="node"><title>VinaiKopp\\PostCodeFilter\\Exceptions\\RuleDoesNotExistException</title>
<path fill="#9999cc" stroke="black" d="M1490.8,-234C1490.8,-234 1226.49,-234 1226.49,-234 1220.49,-234 1214.49,-228 1214.49,-222 1214.49,-222 1214.49,-210 1214.49,-210 1214.49,-204 1220.49,-198 1226.49,-198 1226.49,-198 1490.8,-198 1490.8,-198 1496.8,-198 1502.8,-204 1502.8,-210 1502.8,-210 1502.8,-222 1502.8,-222 1502.8,-228 1496.8,-234 1490.8,-234"/>
<text text-anchor="middle" x="1358.65" y="-213" font-family="Times,serif" font-size="10.00" fill="#000033">VinaiKopp\PostCodeFilter\Exceptions\RuleDoesNotExistException</text>
</g>
<!-- VinaiKopp\\PostCodeFilter\\AdminDeletesRule&#45;&gt;VinaiKopp\\PostCodeFilter\\Exceptions\\RuleDoesNotExistException -->
<g id="edge12" class="edge"><title>VinaiKopp\\PostCodeFilter\\AdminDeletesRule&#45;&gt;VinaiKopp\\PostCodeFilter\\Exceptions\\RuleDoesNotExistException</title>
<path fill="none" stroke="#999999" d="M1058.2,-258.995C1093.12,-252.601 1133.09,-245.606 1169.57,-240 1182.2,-238.06 1195.32,-236.157 1208.49,-234.323"/>
<polygon fill="#999999" stroke="#999999" points="1208.89,-236.388 1214.55,-233.486 1208.32,-232.228 1208.89,-236.388"/>
</g>
<!-- VinaiKopp\\PostCodeFilter\\Storage\\WriteModel\\RuleToDelete&#45;&gt;VinaiKopp\\PostCodeFilter\\Rule\\Components\\Country -->
<g id="edge73" class="edge"><title>VinaiKopp\\PostCodeFilter\\Storage\\WriteModel\\RuleToDelete&#45;&gt;VinaiKopp\\PostCodeFilter\\Rule\\Components\\Country</title>
<path fill="none" stroke="#999999" d="M1925.53,-240.545C1939.56,-244.233 1953.22,-249.247 1965.65,-256 2009.15,-279.633 1994.44,-316.825 2037.65,-341 2044.48,-344.821 2051.76,-348.039 2059.29,-350.743"/>
<polygon fill="#999999" stroke="#999999" points="2058.73,-352.772 2065.09,-352.713 2060.08,-348.795 2058.73,-352.772"/>
</g>
<!-- VinaiKopp\\PostCodeFilter\\Storage\\WriteModel\\RuleToDelete&#45;&gt;VinaiKopp\\PostCodeFilter\\Rule\\Components\\CustomerGroupIdList -->
<g id="edge72" class="edge"><title>VinaiKopp\\PostCodeFilter\\Storage\\WriteModel\\RuleToDelete&#45;&gt;VinaiKopp\\PostCodeFilter\\Rule\\Components\\CustomerGroupIdList</title>
<path fill="none" stroke="#999999" d="M1925.5,-248.646C1939.11,-250.82 1952.69,-253.265 1965.65,-256 2019.78,-267.427 2080.03,-285.836 2123.01,-299.984"/>
<polygon fill="#999999" stroke="#999999" points="2122.6,-302.061 2128.96,-301.951 2123.92,-298.073 2122.6,-302.061"/>
</g>
<!-- VinaiKopp\\PostCodeFilter\\Rule\\NonexistentRule&#45;&gt;VinaiKopp\\PostCodeFilter\\Rule\\Components\\Country -->
<g id="edge42" class="edge"><title>VinaiKopp\\PostCodeFilter\\Rule\\NonexistentRule&#45;&gt;VinaiKopp\\PostCodeFilter\\Rule\\Components\\Country</title>
<path fill="none" stroke="#999999" d="M1900.03,-331.807C1949.32,-337.278 2008.14,-343.808 2059.2,-349.477"/>
<polygon fill="#999999" stroke="#999999" points="2059.19,-351.589 2065.39,-350.164 2059.65,-347.414 2059.19,-351.589"/>
</g>
<!-- VinaiKopp\\PostCodeFilter\\Rule\\NonexistentRule&#45;&gt;VinaiKopp\\PostCodeFilter\\Rule\\Components\\CustomerGroupIdList -->
<g id="edge43" class="edge"><title>VinaiKopp\\PostCodeFilter\\Rule\\NonexistentRule&#45;&gt;VinaiKopp\\PostCodeFilter\\Rule\\Components\\CustomerGroupIdList</title>
<path fill="none" stroke="#999999" d="M1900.03,-320C1940.57,-320 1987.55,-320 2031.37,-320"/>
<polygon fill="#999999" stroke="#999999" points="2031.53,-322.1 2037.53,-320 2031.53,-317.9 2031.53,-322.1"/>
</g>
<!-- VinaiKopp\\PostCodeFilter\\Rule\\NonexistentRule&#45;&gt;VinaiKopp\\PostCodeFilter\\Rule\\Components\\PostCodeList -->
<g id="edge44" class="edge"><title>VinaiKopp\\PostCodeFilter\\Rule\\NonexistentRule&#45;&gt;VinaiKopp\\PostCodeFilter\\Rule\\Components\\PostCodeList</title>
<path fill="none" stroke="#999999" d="M1900.24,-326.881C1922.24,-330.168 1944.99,-334.977 1965.65,-342 2000.72,-353.923 2003.91,-368.705 2037.65,-384 2061.23,-394.689 2087.92,-404.267 2111.83,-412.004"/>
<polygon fill="#999999" stroke="#999999" points="2111.49,-414.1 2117.84,-413.93 2112.77,-410.1 2111.49,-414.1"/>
</g>
<!-- VinaiKopp\\PostCodeFilter\\AdminUpdatesRule -->
<g id="node12" class="node"><title>VinaiKopp\\PostCodeFilter\\AdminUpdatesRule</title>
<path fill="#9999cc" stroke="black" d="M1053.27,-208C1053.27,-208 872.59,-208 872.59,-208 866.59,-208 860.59,-202 860.59,-196 860.59,-196 860.59,-184 860.59,-184 860.59,-178 866.59,-172 872.59,-172 872.59,-172 1053.27,-172 1053.27,-172 1059.27,-172 1065.27,-178 1065.27,-184 1065.27,-184 1065.27,-196 1065.27,-196 1065.27,-202 1059.27,-208 1053.27,-208"/>
<text text-anchor="middle" x="962.928" y="-187" font-family="Times,serif" font-size="10.00" fill="#000033">VinaiKopp\PostCodeFilter\AdminUpdatesRule</text>
</g>
<!-- VinaiKopp\\PostCodeFilter\\AdminUpdatesRule&#45;&gt;VinaiKopp\\PostCodeFilter\\Storage\\WriteModel\\RuleWriter -->
<g id="edge13" class="edge"><title>VinaiKopp\\PostCodeFilter\\AdminUpdatesRule&#45;&gt;VinaiKopp\\PostCodeFilter\\Storage\\WriteModel\\RuleWriter</title>
<path fill="none" stroke="#999999" d="M1041.5,-208.02C1079.99,-216.887 1127.19,-227.651 1169.57,-237 1200.74,-243.877 1234.87,-251.197 1265.39,-257.67"/>
<polygon fill="#999999" stroke="#999999" points="1265.14,-259.764 1271.45,-258.953 1266.01,-255.655 1265.14,-259.764"/>
</g>
<!-- VinaiKopp\\PostCodeFilter\\AdminUpdatesRule&#45;&gt;VinaiKopp\\PostCodeFilter\\Storage\\ReadModel\\RuleReader -->
<g id="edge14" class="edge"><title>VinaiKopp\\PostCodeFilter\\AdminUpdatesRule&#45;&gt;VinaiKopp\\PostCodeFilter\\Storage\\ReadModel\\RuleReader</title>
<path fill="none" stroke="#999999" d="M1003.26,-208.045C1030.13,-220.632 1066.36,-238.131 1097.57,-255 1130.36,-272.723 1135.19,-283.601 1169.57,-298 1198.6,-310.159 1231.45,-319.963 1261.47,-327.513"/>
<polygon fill="#999999" stroke="#999999" points="1261.11,-329.587 1267.44,-328.993 1262.12,-325.51 1261.11,-329.587"/>
</g>
<!-- VinaiKopp\\PostCodeFilter\\AdminUpdatesRule&#45;&gt;VinaiKopp\\PostCodeFilter\\Storage\\WriteModel\\RuleToAdd -->
<g id="edge16" class="edge"><title>VinaiKopp\\PostCodeFilter\\AdminUpdatesRule&#45;&gt;VinaiKopp\\PostCodeFilter\\Storage\\WriteModel\\RuleToAdd</title>
<path fill="none" stroke="#999999" d="M1065.34,-183.497C1098.55,-181.656 1135.62,-179.907 1169.57,-179 1211.57,-177.877 1509.12,-162.398 1547.72,-179 1590.46,-197.385 1578.23,-233.935 1619.72,-255 1631.7,-261.086 1644.74,-265.718 1658.1,-269.218"/>
<polygon fill="#999999" stroke="#999999" points="1657.92,-271.339 1664.25,-270.747 1658.94,-267.263 1657.92,-271.339"/>
</g>
<!-- VinaiKopp\\PostCodeFilter\\AdminUpdatesRule&#45;&gt;VinaiKopp\\PostCodeFilter\\Storage\\ReadModel\\RuleSpecByCountryAndGroupIds -->
<g id="edge19" class="edge"><title>VinaiKopp\\PostCodeFilter\\AdminUpdatesRule&#45;&gt;VinaiKopp\\PostCodeFilter\\Storage\\ReadModel\\RuleSpecByCountryAndGroupIds</title>
<path fill="none" stroke="#999999" d="M1042.56,-171.985C1080.68,-164.146 1127.27,-155.876 1169.57,-152 1336.94,-136.667 1380.18,-138.693 1547.72,-152 1596.52,-155.876 1650.29,-164.047 1694.91,-171.913"/>
<polygon fill="#999999" stroke="#999999" points="1694.59,-173.989 1700.86,-172.97 1695.32,-169.853 1694.59,-173.989"/>
</g>
<!-- VinaiKopp\\PostCodeFilter\\AdminUpdatesRule&#45;&gt;VinaiKopp\\PostCodeFilter\\Storage\\WriteModel\\RuleToDelete -->
<g id="edge15" class="edge"><title>VinaiKopp\\PostCodeFilter\\AdminUpdatesRule&#45;&gt;VinaiKopp\\PostCodeFilter\\Storage\\WriteModel\\RuleToDelete</title>
<path fill="none" stroke="#999999" d="M1065.51,-178.151C1098.64,-174.814 1135.63,-171.647 1169.57,-170 1253.51,-165.928 1466.6,-148.069 1547.72,-170 1583.48,-179.668 1584.64,-200.077 1619.72,-212 1630.64,-215.712 1642.14,-218.805 1653.81,-221.383"/>
<polygon fill="#999999" stroke="#999999" points="1653.62,-223.489 1659.92,-222.684 1654.49,-219.381 1653.62,-223.489"/>
</g>
<!-- VinaiKopp\\PostCodeFilter\\AdminUpdatesRule&#45;&gt;VinaiKopp\\PostCodeFilter\\Rule\\NonexistentRule -->
<g id="edge17" class="edge"><title>VinaiKopp\\PostCodeFilter\\AdminUpdatesRule&#45;&gt;VinaiKopp\\PostCodeFilter\\Rule\\NonexistentRule</title>
<path fill="none" stroke="#999999" d="M1065.38,-187.145C1227,-182.952 1526.95,-176.771 1547.72,-188 1599.12,-215.788 1570.19,-267 1619.72,-298 1637.56,-309.166 1658.48,-315.874 1679.47,-319.725"/>
<polygon fill="#999999" stroke="#999999" points="1679.13,-321.796 1685.39,-320.737 1679.83,-317.656 1679.13,-321.796"/>
</g>
<!-- VinaiKopp\\PostCodeFilter\\AdminUpdatesRule&#45;&gt;VinaiKopp\\PostCodeFilter\\Exceptions\\RuleDoesNotExistException -->
<g id="edge18" class="edge"><title>VinaiKopp\\PostCodeFilter\\AdminUpdatesRule&#45;&gt;VinaiKopp\\PostCodeFilter\\Exceptions\\RuleDoesNotExistException</title>
<path fill="none" stroke="#999999" d="M1065.32,-196.696C1108.8,-199.567 1160.48,-202.98 1208.21,-206.131"/>
<polygon fill="#999999" stroke="#999999" points="1208.18,-208.234 1214.31,-206.534 1208.46,-204.044 1208.18,-208.234"/>
</g>
<!-- VinaiKopp\\PostCodeFilter\\AdminUpdatesRule&#45;&gt;VinaiKopp\\PostCodeFilter\\Rule\\Rule -->
<g id="edge20" class="edge"><title>VinaiKopp\\PostCodeFilter\\AdminUpdatesRule&#45;&gt;VinaiKopp\\PostCodeFilter\\Rule\\Rule</title>
<path fill="none" stroke="#999999" d="M1065.55,-188.122C1227.42,-185.521 1527.72,-182.445 1547.72,-195 1608.99,-233.468 1560.83,-298.965 1619.72,-341 1643.73,-358.142 1674.57,-365.382 1703.48,-367.789"/>
<polygon fill="#999999" stroke="#999999" points="1703.49,-369.895 1709.62,-368.232 1703.79,-365.706 1703.49,-369.895"/>
</g>
<!-- VinaiKopp\\PostCodeFilter\\Rule\\Rule&#45;&gt;VinaiKopp\\PostCodeFilter\\Rule\\Components\\Country -->
<g id="edge45" class="edge"><title>VinaiKopp\\PostCodeFilter\\Rule\\Rule&#45;&gt;VinaiKopp\\PostCodeFilter\\Rule\\Components\\Country</title>
<path fill="none" stroke="#999999" d="M1875.83,-363C1929.07,-363 1999.37,-363 2059.08,-363"/>
<polygon fill="#999999" stroke="#999999" points="2059.19,-365.1 2065.19,-363 2059.19,-360.9 2059.19,-365.1"/>
</g>
<!-- VinaiKopp\\PostCodeFilter\\Rule\\Rule&#45;&gt;VinaiKopp\\PostCodeFilter\\Rule\\Components\\CustomerGroupIdList -->
<g id="edge46" class="edge"><title>VinaiKopp\\PostCodeFilter\\Rule\\Rule&#45;&gt;VinaiKopp\\PostCodeFilter\\Rule\\Components\\CustomerGroupIdList</title>
<path fill="none" stroke="#999999" d="M1875.83,-353.881C1921.05,-348.86 1978.58,-342.473 2031.47,-336.601"/>
<polygon fill="#999999" stroke="#999999" points="2031.84,-338.674 2037.57,-335.925 2031.37,-334.5 2031.84,-338.674"/>
</g>
<!-- VinaiKopp\\PostCodeFilter\\Rule\\Rule&#45;&gt;VinaiKopp\\PostCodeFilter\\Rule\\Components\\PostCodeList -->
<g id="edge47" class="edge"><title>VinaiKopp\\PostCodeFilter\\Rule\\Rule&#45;&gt;VinaiKopp\\PostCodeFilter\\Rule\\Components\\PostCodeList</title>
<path fill="none" stroke="#999999" d="M1875.92,-377.237C1904.35,-382.187 1936.41,-387.802 1965.65,-393 2001.63,-399.397 2040.98,-406.492 2076.08,-412.859"/>
<polygon fill="#999999" stroke="#999999" points="2075.85,-414.951 2082.13,-413.956 2076.6,-410.818 2075.85,-414.951"/>
</g>
<!-- VinaiKopp\\PostCodeFilter\\AdminViewsRuleList -->
<g id="node14" class="node"><title>VinaiKopp\\PostCodeFilter\\AdminViewsRuleList</title>
<path fill="#9999cc" stroke="black" d="M1057.01,-452C1057.01,-452 868.845,-452 868.845,-452 862.845,-452 856.845,-446 856.845,-440 856.845,-440 856.845,-428 856.845,-428 856.845,-422 862.845,-416 868.845,-416 868.845,-416 1057.01,-416 1057.01,-416 1063.01,-416 1069.01,-422 1069.01,-428 1069.01,-428 1069.01,-440 1069.01,-440 1069.01,-446 1063.01,-452 1057.01,-452"/>
<text text-anchor="middle" x="962.928" y="-431" font-family="Times,serif" font-size="10.00" fill="#000033">VinaiKopp\PostCodeFilter\AdminViewsRuleList</text>
</g>
<!-- VinaiKopp\\PostCodeFilter\\AdminViewsRuleList&#45;&gt;VinaiKopp\\PostCodeFilter\\Storage\\ReadModel\\RuleReader -->
<g id="edge21" class="edge"><title>VinaiKopp\\PostCodeFilter\\AdminViewsRuleList&#45;&gt;VinaiKopp\\PostCodeFilter\\Storage\\ReadModel\\RuleReader</title>
<path fill="none" stroke="#999999" d="M1012.26,-415.855C1053.49,-401.071 1114.66,-380.779 1169.57,-369 1187.26,-365.206 1206.04,-362.027 1224.61,-359.373"/>
<polygon fill="#999999" stroke="#999999" points="1225.25,-361.404 1230.9,-358.493 1224.67,-357.244 1225.25,-361.404"/>
</g>
<!-- VinaiKopp\\PostCodeFilter\\AdminViewsRuleList&#45;&gt;VinaiKopp\\PostCodeFilter\\Rule\\Rule -->
<g id="edge22" class="edge"><title>VinaiKopp\\PostCodeFilter\\AdminViewsRuleList&#45;&gt;VinaiKopp\\PostCodeFilter\\Rule\\Rule</title>
<path fill="none" stroke="#999999" d="M1069.19,-446.218C1101.37,-449.417 1136.88,-452.414 1169.57,-454 1253.51,-458.072 1469.52,-484.757 1547.72,-454 1588.4,-438.001 1580.24,-405.779 1619.72,-387 1645.4,-374.78 1675.52,-368.308 1703.31,-365.006"/>
<polygon fill="#999999" stroke="#999999" points="1703.84,-367.06 1709.57,-364.31 1703.37,-362.886 1703.84,-367.06"/>
</g>
<!-- VinaiKopp\\PostCodeFilter\\AdminViewsSingleRule -->
<g id="node15" class="node"><title>VinaiKopp\\PostCodeFilter\\AdminViewsSingleRule</title>
<path fill="#9999cc" stroke="black" d="M1062.01,-154C1062.01,-154 863.845,-154 863.845,-154 857.845,-154 851.845,-148 851.845,-142 851.845,-142 851.845,-130 851.845,-130 851.845,-124 857.845,-118 863.845,-118 863.845,-118 1062.01,-118 1062.01,-118 1068.01,-118 1074.01,-124 1074.01,-130 1074.01,-130 1074.01,-142 1074.01,-142 1074.01,-148 1068.01,-154 1062.01,-154"/>
<text text-anchor="middle" x="962.928" y="-133" font-family="Times,serif" font-size="10.00" fill="#000033">VinaiKopp\PostCodeFilter\AdminViewsSingleRule</text>
</g>
<!-- VinaiKopp\\PostCodeFilter\\AdminViewsSingleRule&#45;&gt;VinaiKopp\\PostCodeFilter\\Storage\\ReadModel\\RuleReader -->
<g id="edge23" class="edge"><title>VinaiKopp\\PostCodeFilter\\AdminViewsSingleRule&#45;&gt;VinaiKopp\\PostCodeFilter\\Storage\\ReadModel\\RuleReader</title>
<path fill="none" stroke="#999999" d="M1073.58,-154.008C1082.13,-157.83 1090.26,-162.441 1097.57,-168 1150.15,-207.972 1117.39,-257.508 1169.57,-298 1185.83,-310.614 1205.01,-319.999 1224.8,-326.978"/>
<polygon fill="#999999" stroke="#999999" points="1224.32,-329.033 1230.68,-328.975 1225.68,-325.056 1224.32,-329.033"/>
</g>
<!-- VinaiKopp\\PostCodeFilter\\AdminViewsSingleRule&#45;&gt;VinaiKopp\\PostCodeFilter\\Storage\\ReadModel\\RuleSpecByCountryAndGroupIds -->
<g id="edge25" class="edge"><title>VinaiKopp\\PostCodeFilter\\AdminViewsSingleRule&#45;&gt;VinaiKopp\\PostCodeFilter\\Storage\\ReadModel\\RuleSpecByCountryAndGroupIds</title>
<path fill="none" stroke="#999999" d="M1074.26,-134.401C1217.38,-132.77 1459.21,-131.64 1547.72,-141 1604.72,-147.028 1668.11,-160.223 1715.99,-171.544"/>
<polygon fill="#999999" stroke="#999999" points="1715.72,-173.639 1722.05,-172.986 1716.7,-169.554 1715.72,-173.639"/>
</g>
<!-- VinaiKopp\\PostCodeFilter\\AdminViewsSingleRule&#45;&gt;VinaiKopp\\PostCodeFilter\\Rule\\Rule -->
<g id="edge24" class="edge"><title>VinaiKopp\\PostCodeFilter\\AdminViewsSingleRule&#45;&gt;VinaiKopp\\PostCodeFilter\\Rule\\Rule</title>
<path fill="none" stroke="#999999" d="M1074.2,-139.318C1232.65,-144.977 1509.94,-158.54 1547.72,-185 1610.26,-228.812 1558.14,-295.838 1619.72,-341 1643.51,-358.45 1674.29,-365.761 1703.23,-368.141"/>
<polygon fill="#999999" stroke="#999999" points="1703.24,-370.247 1709.37,-368.576 1703.54,-366.057 1703.24,-370.247"/>
</g>
<!-- VinaiKopp\\PostCodeFilter\\AdminViewsSingleRule&#45;&gt;VinaiKopp\\PostCodeFilter\\Rule\\Components\\Country -->
<g id="edge26" class="edge"><title>VinaiKopp\\PostCodeFilter\\AdminViewsSingleRule&#45;&gt;VinaiKopp\\PostCodeFilter\\Rule\\Components\\Country</title>
<path fill="none" stroke="#999999" d="M1074.32,-124.602C1304.67,-103.173 1826.64,-67.6201 1965.65,-169 2032.6,-217.833 1972.35,-289.973 2037.65,-341 2044.21,-346.127 2051.47,-350.297 2059.14,-353.671"/>
<polygon fill="#999999" stroke="#999999" points="2058.72,-355.772 2065.07,-356.099 2060.31,-351.884 2058.72,-355.772"/>
</g>
<!-- VinaiKopp\\PostCodeFilter\\AdminViewsSingleRule&#45;&gt;VinaiKopp\\PostCodeFilter\\Rule\\Components\\CustomerGroupIdList -->
<g id="edge27" class="edge"><title>VinaiKopp\\PostCodeFilter\\AdminViewsSingleRule&#45;&gt;VinaiKopp\\PostCodeFilter\\Rule\\Components\\CustomerGroupIdList</title>
<path fill="none" stroke="#999999" d="M1034.77,-117.945C1203.13,-78.6412 1637.64,1.43457 1965.65,-125 2056.55,-160.039 2132.88,-253.209 2164.88,-296.846"/>
<polygon fill="#999999" stroke="#999999" points="2163.34,-298.293 2168.56,-301.914 2166.74,-295.825 2163.34,-298.293"/>
</g>
<!-- VinaiKopp\\PostCodeFilter\\Exceptions\\InvalidCountryException -->
<g id="node21" class="node"><title>VinaiKopp\\PostCodeFilter\\Exceptions\\InvalidCountryException</title>
<path fill="#9999cc" stroke="black" d="M2660.77,-381C2660.77,-381 2410.25,-381 2410.25,-381 2404.25,-381 2398.25,-375 2398.25,-369 2398.25,-369 2398.25,-357 2398.25,-357 2398.25,-351 2404.25,-345 2410.25,-345 2410.25,-345 2660.77,-345 2660.77,-345 2666.77,-345 2672.77,-351 2672.77,-357 2672.77,-357 2672.77,-369 2672.77,-369 2672.77,-375 2666.77,-381 2660.77,-381"/>
<text text-anchor="middle" x="2535.51" y="-360" font-family="Times,serif" font-size="10.00" fill="#000033">VinaiKopp\PostCodeFilter\Exceptions\InvalidCountryException</text>
</g>
<!-- VinaiKopp\\PostCodeFilter\\Rule\\Components\\Country&#45;&gt;VinaiKopp\\PostCodeFilter\\Exceptions\\InvalidCountryException -->
<g id="edge32" class="edge"><title>VinaiKopp\\PostCodeFilter\\Rule\\Components\\Country&#45;&gt;VinaiKopp\\PostCodeFilter\\Exceptions\\InvalidCountryException</title>
<path fill="none" stroke="#999999" d="M2299.08,-363C2328.79,-363 2361.09,-363 2391.97,-363"/>
<polygon fill="#999999" stroke="#999999" points="2392.12,-365.1 2398.12,-363 2392.12,-360.9 2392.12,-365.1"/>
</g>
<!-- VinaiKopp\\PostCodeFilter\\Rule\\Components\\CustomerGroupIdList&#45;&gt;VinaiKopp\\PostCodeFilter\\Rule\\Components\\CustomerGroupId -->
<g id="edge34" class="edge"><title>VinaiKopp\\PostCodeFilter\\Rule\\Components\\CustomerGroupIdList&#45;&gt;VinaiKopp\\PostCodeFilter\\Rule\\Components\\CustomerGroupId</title>
<path fill="none" stroke="#999999" d="M2320.36,-338.081C2322.41,-339.318 2324.42,-340.623 2326.38,-342 2381.34,-380.696 2346.69,-432.027 2398.38,-475 2410.35,-484.953 2424.62,-492.67 2439.34,-498.649"/>
<polygon fill="#999999" stroke="#999999" points="2438.87,-500.72 2445.23,-500.939 2440.4,-496.806 2438.87,-500.72"/>
</g>
<!-- VinaiKopp\\PostCodeFilter\\CustomerSpecifiesShippingAddress -->
<g id="node18" class="node"><title>VinaiKopp\\PostCodeFilter\\CustomerSpecifiesShippingAddress</title>
<path fill="#9999cc" stroke="black" d="M1085.72,-495C1085.72,-495 840.137,-495 840.137,-495 834.137,-495 828.137,-489 828.137,-483 828.137,-483 828.137,-471 828.137,-471 828.137,-465 834.137,-459 840.137,-459 840.137,-459 1085.72,-459 1085.72,-459 1091.72,-459 1097.72,-465 1097.72,-471 1097.72,-471 1097.72,-483 1097.72,-483 1097.72,-489 1091.72,-495 1085.72,-495"/>
<text text-anchor="middle" x="962.928" y="-474" font-family="Times,serif" font-size="10.00" fill="#000033">VinaiKopp\PostCodeFilter\CustomerSpecifiesShippingAddress</text>
</g>
<!-- VinaiKopp\\PostCodeFilter\\CustomerSpecifiesShippingAddress&#45;&gt;VinaiKopp\\PostCodeFilter\\Storage\\ReadModel\\RuleReader -->
<g id="edge28" class="edge"><title>VinaiKopp\\PostCodeFilter\\CustomerSpecifiesShippingAddress&#45;&gt;VinaiKopp\\PostCodeFilter\\Storage\\ReadModel\\RuleReader</title>
<path fill="none" stroke="#999999" d="M1090.04,-458.951C1092.61,-457.714 1095.12,-456.398 1097.57,-455 1140.87,-430.297 1125.71,-392.685 1169.57,-369 1186.48,-359.87 1205.47,-353.762 1224.72,-349.773"/>
<polygon fill="#999999" stroke="#999999" points="1225.21,-351.816 1230.69,-348.602 1224.4,-347.694 1225.21,-351.816"/>
</g>
<!-- VinaiKopp\\PostCodeFilter\\CustomerSpecifiesShippingAddress&#45;&gt;VinaiKopp\\PostCodeFilter\\Rule\\Components\\Country -->
<g id="edge31" class="edge"><title>VinaiKopp\\PostCodeFilter\\CustomerSpecifiesShippingAddress&#45;&gt;VinaiKopp\\PostCodeFilter\\Rule\\Components\\Country</title>
<path fill="none" stroke="#999999" d="M1097.91,-479.157C1257.44,-480.924 1507.48,-480.859 1547.72,-464 1588.88,-446.752 1578.61,-411.384 1619.72,-394 1655.13,-379.022 1927.27,-386.423 1965.65,-384 1995.96,-382.086 2028.62,-379.286 2059.1,-376.351"/>
<polygon fill="#999999" stroke="#999999" points="2059.4,-378.432 2065.17,-375.762 2058.99,-374.251 2059.4,-378.432"/>
</g>
<!-- VinaiKopp\\PostCodeFilter\\CustomerSpecifiesShippingAddress&#45;&gt;VinaiKopp\\PostCodeFilter\\Storage\\ReadModel\\RuleSpecByCountryAndGroupId -->
<g id="edge29" class="edge"><title>VinaiKopp\\PostCodeFilter\\CustomerSpecifiesShippingAddress&#45;&gt;VinaiKopp\\PostCodeFilter\\Storage\\ReadModel\\RuleSpecByCountryAndGroupId</title>
<path fill="none" stroke="#999999" d="M1097.78,-478.49C1121.69,-478.703 1146.37,-478.887 1169.57,-479 1253.6,-479.409 1466.6,-500.931 1547.72,-479 1583.48,-469.332 1584.64,-448.923 1619.72,-437 1621.91,-436.254 1624.13,-435.533 1626.37,-434.836"/>
<polygon fill="#999999" stroke="#999999" points="1627.2,-436.78 1632.34,-433.046 1625.99,-432.757 1627.2,-436.78"/>
</g>
<!-- VinaiKopp\\PostCodeFilter\\CustomerSpecifiesShippingAddress&#45;&gt;VinaiKopp\\PostCodeFilter\\Rule\\Components\\CustomerGroupId -->
<g id="edge30" class="edge"><title>VinaiKopp\\PostCodeFilter\\CustomerSpecifiesShippingAddress&#45;&gt;VinaiKopp\\PostCodeFilter\\Rule\\Components\\CustomerGroupId</title>
<path fill="none" stroke="#999999" d="M1022.86,-495.111C1063.72,-507.161 1119.58,-522.623 1169.57,-533 1673.24,-637.532 1818.46,-651.386 2326.38,-570 2373.64,-562.426 2425.98,-549.582 2466.34,-538.678"/>
<polygon fill="#999999" stroke="#999999" points="2466.97,-540.684 2472.21,-537.085 2465.87,-536.631 2466.97,-540.684"/>
</g>
<!-- VinaiKopp\\PostCodeFilter\\Storage\\ReadModel\\RuleSpecByCountryAndGroupId&#45;&gt;VinaiKopp\\PostCodeFilter\\Rule\\Components\\Country -->
<g id="edge52" class="edge"><title>VinaiKopp\\PostCodeFilter\\Storage\\ReadModel\\RuleSpecByCountryAndGroupId&#45;&gt;VinaiKopp\\PostCodeFilter\\Rule\\Components\\Country</title>
<path fill="none" stroke="#999999" d="M1927.79,-396.995C1970.5,-391.262 2017.49,-384.953 2059.27,-379.344"/>
<polygon fill="#999999" stroke="#999999" points="2059.73,-381.401 2065.4,-378.521 2059.17,-377.238 2059.73,-381.401"/>
</g>
<!-- VinaiKopp\\PostCodeFilter\\Storage\\ReadModel\\RuleSpecByCountryAndGroupId&#45;&gt;VinaiKopp\\PostCodeFilter\\Rule\\Components\\CustomerGroupId -->
<g id="edge51" class="edge"><title>VinaiKopp\\PostCodeFilter\\Storage\\ReadModel\\RuleSpecByCountryAndGroupId&#45;&gt;VinaiKopp\\PostCodeFilter\\Rule\\Components\\CustomerGroupId</title>
<path fill="none" stroke="#999999" d="M1941.56,-433.032C1949.72,-434.303 1957.79,-435.627 1965.65,-437 1997.94,-442.641 2005.37,-447.281 2037.65,-453 2156.72,-474.098 2292.93,-491.738 2392.58,-503.458"/>
<polygon fill="#999999" stroke="#999999" points="2392.59,-505.574 2398.79,-504.187 2393.08,-501.402 2392.59,-505.574"/>
</g>
<!-- VinaiKopp\\PostCodeFilter\\Exceptions\\InvalidCustomerGroupIdException -->
<g id="node22" class="node"><title>VinaiKopp\\PostCodeFilter\\Exceptions\\InvalidCustomerGroupIdException</title>
<path fill="#9999cc" stroke="black" d="M3047.02,-537C3047.02,-537 2756.51,-537 2756.51,-537 2750.51,-537 2744.51,-531 2744.51,-525 2744.51,-525 2744.51,-513 2744.51,-513 2744.51,-507 2750.51,-501 2756.51,-501 2756.51,-501 3047.02,-501 3047.02,-501 3053.02,-501 3059.02,-507 3059.02,-513 3059.02,-513 3059.02,-525 3059.02,-525 3059.02,-531 3053.02,-537 3047.02,-537"/>
<text text-anchor="middle" x="2901.77" y="-516" font-family="Times,serif" font-size="10.00" fill="#000033">VinaiKopp\PostCodeFilter\Exceptions\InvalidCustomerGroupIdException</text>
</g>
<!-- VinaiKopp\\PostCodeFilter\\Rule\\Components\\CustomerGroupId&#45;&gt;VinaiKopp\\PostCodeFilter\\Exceptions\\InvalidCustomerGroupIdException -->
<g id="edge33" class="edge"><title>VinaiKopp\\PostCodeFilter\\Rule\\Components\\CustomerGroupId&#45;&gt;VinaiKopp\\PostCodeFilter\\Exceptions\\InvalidCustomerGroupIdException</title>
<path fill="none" stroke="#999999" d="M2672.14,-519C2693.68,-519 2716.15,-519 2738.23,-519"/>
<polygon fill="#999999" stroke="#999999" points="2738.45,-521.1 2744.45,-519 2738.45,-516.9 2738.45,-521.1"/>
</g>
<!-- VinaiKopp\\PostCodeFilter\\Exceptions\\InvalidPostCodeException -->
<g id="node23" class="node"><title>VinaiKopp\\PostCodeFilter\\Exceptions\\InvalidPostCodeException</title>
<path fill="#9999cc" stroke="black" d="M3029.59,-472C3029.59,-472 2773.94,-472 2773.94,-472 2767.94,-472 2761.94,-466 2761.94,-460 2761.94,-460 2761.94,-448 2761.94,-448 2761.94,-442 2767.94,-436 2773.94,-436 2773.94,-436 3029.59,-436 3029.59,-436 3035.59,-436 3041.59,-442 3041.59,-448 3041.59,-448 3041.59,-460 3041.59,-460 3041.59,-466 3035.59,-472 3029.59,-472"/>
<text text-anchor="middle" x="2901.77" y="-451" font-family="Times,serif" font-size="10.00" fill="#000033">VinaiKopp\PostCodeFilter\Exceptions\InvalidPostCodeException</text>
</g>
<!-- VinaiKopp\\PostCodeFilter\\Exceptions\\NonMatchingRecordInResultException -->
<g id="node24" class="node"><title>VinaiKopp\\PostCodeFilter\\Exceptions\\NonMatchingRecordInResultException</title>
<path fill="#9999cc" stroke="black" d="M1946.65,-580C1946.65,-580 1638.71,-580 1638.71,-580 1632.71,-580 1626.71,-574 1626.71,-568 1626.71,-568 1626.71,-556 1626.71,-556 1626.71,-550 1632.71,-544 1638.71,-544 1638.71,-544 1946.65,-544 1946.65,-544 1952.65,-544 1958.65,-550 1958.65,-556 1958.65,-556 1958.65,-568 1958.65,-568 1958.65,-574 1952.65,-580 1946.65,-580"/>
<text text-anchor="middle" x="1792.68" y="-559" font-family="Times,serif" font-size="10.00" fill="#000033">VinaiKopp\PostCodeFilter\Exceptions\NonMatchingRecordInResultException</text>
</g>
<!-- VinaiKopp\\PostCodeFilter\\Rule\\Components\\PostCode&#45;&gt;VinaiKopp\\PostCodeFilter\\Exceptions\\InvalidPostCodeException -->
<g id="edge35" class="edge"><title>VinaiKopp\\PostCodeFilter\\Rule\\Components\\PostCode&#45;&gt;VinaiKopp\\PostCodeFilter\\Exceptions\\InvalidPostCodeException</title>
<path fill="none" stroke="#999999" d="M2654.77,-454C2686.94,-454 2722.16,-454 2755.63,-454"/>
<polygon fill="#999999" stroke="#999999" points="2755.86,-456.1 2761.86,-454 2755.86,-451.9 2755.86,-456.1"/>
</g>
<!-- VinaiKopp\\PostCodeFilter\\Rule\\Components\\PostCodeList&#45;&gt;VinaiKopp\\PostCodeFilter\\Rule\\Components\\PostCode -->
<g id="edge36" class="edge"><title>VinaiKopp\\PostCodeFilter\\Rule\\Components\\PostCodeList&#45;&gt;VinaiKopp\\PostCodeFilter\\Rule\\Components\\PostCode</title>
<path fill="none" stroke="#999999" d="M2309.41,-439.911C2342.21,-441.964 2377.5,-444.173 2410.19,-446.219"/>
<polygon fill="#999999" stroke="#999999" points="2410.14,-448.32 2416.26,-446.599 2410.4,-444.128 2410.14,-448.32"/>
</g>
<!-- VinaiKopp\\PostCodeFilter\\Storage\\RuleRepositoryReader -->
<g id="node27" class="node"><title>VinaiKopp\\PostCodeFilter\\Storage\\RuleRepositoryReader</title>
<path fill="#9999cc" stroke="black" d="M1471.46,-530C1471.46,-530 1245.83,-530 1245.83,-530 1239.83,-530 1233.83,-524 1233.83,-518 1233.83,-518 1233.83,-506 1233.83,-506 1233.83,-500 1239.83,-494 1245.83,-494 1245.83,-494 1471.46,-494 1471.46,-494 1477.46,-494 1483.46,-500 1483.46,-506 1483.46,-506 1483.46,-518 1483.46,-518 1483.46,-524 1477.46,-530 1471.46,-530"/>
<text text-anchor="middle" x="1358.65" y="-509" font-family="Times,serif" font-size="10.00" fill="#000033">VinaiKopp\PostCodeFilter\Storage\RuleRepositoryReader</text>
</g>
<!-- VinaiKopp\\PostCodeFilter\\Storage\\RuleRepositoryReader&#45;&gt;VinaiKopp\\PostCodeFilter\\Rule\\ExistingRule -->
<g id="edge60" class="edge"><title>VinaiKopp\\PostCodeFilter\\Storage\\RuleRepositoryReader&#45;&gt;VinaiKopp\\PostCodeFilter\\Rule\\ExistingRule</title>
<path fill="none" stroke="#999999" d="M1483.74,-514.011C1547.98,-515.051 1625.54,-516.308 1686.76,-517.3"/>
<polygon fill="#999999" stroke="#999999" points="1686.97,-519.404 1693.01,-517.401 1687.04,-515.204 1686.97,-519.404"/>
</g>
<!-- VinaiKopp\\PostCodeFilter\\Storage\\RuleRepositoryReader&#45;&gt;VinaiKopp\\PostCodeFilter\\Storage\\ReadModel\\RuleSpecByCountryAndGroupIds -->
<g id="edge59" class="edge"><title>VinaiKopp\\PostCodeFilter\\Storage\\RuleRepositoryReader&#45;&gt;VinaiKopp\\PostCodeFilter\\Storage\\ReadModel\\RuleSpecByCountryAndGroupIds</title>
<path fill="none" stroke="#999999" d="M1479.74,-493.992C1504.8,-485.378 1529.2,-472.686 1547.72,-454 1626.41,-374.605 1534.49,-285.346 1619.72,-213 1619.82,-212.915 1619.92,-212.83 1620.02,-212.745"/>
<polygon fill="#999999" stroke="#999999" points="1621.25,-214.449 1624.65,-209.082 1618.64,-211.154 1621.25,-214.449"/>
</g>
<!-- VinaiKopp\\PostCodeFilter\\Storage\\RuleRepositoryReader&#45;&gt;VinaiKopp\\PostCodeFilter\\Rule\\NonexistentRule -->
<g id="edge57" class="edge"><title>VinaiKopp\\PostCodeFilter\\Storage\\RuleRepositoryReader&#45;&gt;VinaiKopp\\PostCodeFilter\\Rule\\NonexistentRule</title>
<path fill="none" stroke="#999999" d="M1463.43,-493.919C1492.71,-485.282 1523.22,-472.593 1547.72,-454 1594.85,-418.22 1569.69,-373.601 1619.72,-342 1637.51,-330.761 1658.41,-324.02 1679.4,-320.159"/>
<polygon fill="#999999" stroke="#999999" points="1679.76,-322.228 1685.32,-319.145 1679.05,-318.088 1679.76,-322.228"/>
</g>
<!-- VinaiKopp\\PostCodeFilter\\Storage\\RuleRepositoryReader&#45;&gt;VinaiKopp\\PostCodeFilter\\Rule\\Rule -->
<g id="edge58" class="edge"><title>VinaiKopp\\PostCodeFilter\\Storage\\RuleRepositoryReader&#45;&gt;VinaiKopp\\PostCodeFilter\\Rule\\Rule</title>
<path fill="none" stroke="#999999" d="M1461.8,-493.999C1490.72,-486.369 1521.45,-475.72 1547.72,-461 1586.11,-439.481 1580.37,-412.729 1619.72,-393 1645.28,-380.182 1675.36,-372.737 1703.16,-368.446"/>
<polygon fill="#999999" stroke="#999999" points="1703.79,-370.476 1709.43,-367.526 1703.18,-366.321 1703.79,-370.476"/>
</g>
<!-- VinaiKopp\\PostCodeFilter\\Storage\\RuleRepositoryReader&#45;&gt;VinaiKopp\\PostCodeFilter\\Rule\\Components\\Country -->
<g id="edge62" class="edge"><title>VinaiKopp\\PostCodeFilter\\Storage\\RuleRepositoryReader&#45;&gt;VinaiKopp\\PostCodeFilter\\Rule\\Components\\Country</title>
<path fill="none" stroke="#999999" d="M1483.64,-504.841C1526.71,-502.483 1575.33,-499.964 1619.72,-498 1658.14,-496.3 1930.59,-501.807 1965.65,-486 2008.07,-466.877 1998.34,-434.897 2037.65,-410 2055.47,-398.711 2076.27,-389.873 2096.41,-383.061"/>
<polygon fill="#999999" stroke="#999999" points="2097.31,-384.975 2102.35,-381.102 2096,-380.986 2097.31,-384.975"/>
</g>
<!-- VinaiKopp\\PostCodeFilter\\Storage\\RuleRepositoryReader&#45;&gt;VinaiKopp\\PostCodeFilter\\Rule\\Components\\CustomerGroupIdList -->
<g id="edge61" class="edge"><title>VinaiKopp\\PostCodeFilter\\Storage\\RuleRepositoryReader&#45;&gt;VinaiKopp\\PostCodeFilter\\Rule\\Components\\CustomerGroupIdList</title>
<path fill="none" stroke="#999999" d="M1483.56,-499.532C1526.62,-495.6 1575.26,-491.606 1619.72,-489 1638.91,-487.875 1949.34,-489.179 1965.65,-479 2024,-442.584 1981.65,-381.944 2037.65,-342 2037.89,-341.826 2038.14,-341.654 2038.38,-341.482"/>
<polygon fill="#999999" stroke="#999999" points="2039.77,-343.086 2043.64,-338.047 2037.47,-339.569 2039.77,-343.086"/>
</g>
<!-- VinaiKopp\\PostCodeFilter\\Storage\\RuleRepositoryReader&#45;&gt;VinaiKopp\\PostCodeFilter\\Storage\\ReadModel\\RuleSpecByCountryAndGroupId -->
<g id="edge56" class="edge"><title>VinaiKopp\\PostCodeFilter\\Storage\\RuleRepositoryReader&#45;&gt;VinaiKopp\\PostCodeFilter\\Storage\\ReadModel\\RuleSpecByCountryAndGroupId</title>
<path fill="none" stroke="#999999" d="M1483.71,-504.915C1505.51,-501.223 1527.63,-495.829 1547.72,-488 1584.25,-473.761 1583.18,-451.245 1619.72,-437 1621.36,-436.359 1623.02,-435.737 1624.69,-435.131"/>
<polygon fill="#999999" stroke="#999999" points="1625.44,-437.092 1630.42,-433.138 1624.06,-433.125 1625.44,-437.092"/>
</g>
<!-- VinaiKopp\\PostCodeFilter\\Storage\\RuleRepositoryReader&#45;&gt;VinaiKopp\\PostCodeFilter\\Rule\\Components\\CustomerGroupId -->
<g id="edge64" class="edge"><title>VinaiKopp\\PostCodeFilter\\Storage\\RuleRepositoryReader&#45;&gt;VinaiKopp\\PostCodeFilter\\Rule\\Components\\CustomerGroupId</title>
<path fill="none" stroke="#999999" d="M1405.72,-530.047C1457.01,-549.09 1542.82,-577.856 1619.72,-589 1771.87,-611.052 1812.19,-598.406 1965.65,-589 2121.77,-579.431 2300.63,-555.222 2415.46,-537.959"/>
<polygon fill="#999999" stroke="#999999" points="2415.94,-540.01 2421.56,-537.039 2415.31,-535.857 2415.94,-540.01"/>
</g>
<!-- VinaiKopp\\PostCodeFilter\\Storage\\RuleRepositoryReader&#45;&gt;VinaiKopp\\PostCodeFilter\\Exceptions\\NonMatchingRecordInResultException -->
<g id="edge65" class="edge"><title>VinaiKopp\\PostCodeFilter\\Storage\\RuleRepositoryReader&#45;&gt;VinaiKopp\\PostCodeFilter\\Exceptions\\NonMatchingRecordInResultException</title>
<path fill="none" stroke="#999999" d="M1483.74,-526.361C1529.29,-531.633 1581.53,-537.679 1629.9,-543.277"/>
<polygon fill="#999999" stroke="#999999" points="1629.89,-545.389 1636.09,-543.993 1630.37,-541.217 1629.89,-545.389"/>
</g>
<!-- VinaiKopp\\PostCodeFilter\\Storage\\RuleRepositoryReader&#45;&gt;VinaiKopp\\PostCodeFilter\\Rule\\Components\\PostCodeList -->
<g id="edge63" class="edge"><title>VinaiKopp\\PostCodeFilter\\Storage\\RuleRepositoryReader&#45;&gt;VinaiKopp\\PostCodeFilter\\Rule\\Components\\PostCodeList</title>
<path fill="none" stroke="#999999" d="M1410.14,-530.103C1461.94,-547.646 1545.26,-573.02 1619.72,-583 1657.81,-588.107 1928.99,-594.57 1965.65,-583 2046.08,-557.612 2122.56,-490.252 2158.92,-454.703"/>
<polygon fill="#999999" stroke="#999999" points="2160.78,-455.823 2163.57,-450.114 2157.83,-452.833 2160.78,-455.823"/>
</g>
<!-- VinaiKopp\\PostCodeFilter\\Storage\\RuleStorage -->
<g id="node28" class="node"><title>VinaiKopp\\PostCodeFilter\\Storage\\RuleStorage</title>
<path fill="#9999cc" stroke="black" d="M1884.85,-476C1884.85,-476 1700.52,-476 1700.52,-476 1694.52,-476 1688.52,-470 1688.52,-464 1688.52,-464 1688.52,-452 1688.52,-452 1688.52,-446 1694.52,-440 1700.52,-440 1700.52,-440 1884.85,-440 1884.85,-440 1890.85,-440 1896.85,-446 1896.85,-452 1896.85,-452 1896.85,-464 1896.85,-464 1896.85,-470 1890.85,-476 1884.85,-476"/>
<text text-anchor="middle" x="1792.68" y="-455" font-family="Times,serif" font-size="10.00" fill="#000033">VinaiKopp\PostCodeFilter\Storage\RuleStorage</text>
</g>
<!-- VinaiKopp\\PostCodeFilter\\Storage\\RuleRepositoryReader&#45;&gt;VinaiKopp\\PostCodeFilter\\Storage\\RuleStorage -->
<g id="edge55" class="edge"><title>VinaiKopp\\PostCodeFilter\\Storage\\RuleRepositoryReader&#45;&gt;VinaiKopp\\PostCodeFilter\\Storage\\RuleStorage</title>
<path fill="none" stroke="#999999" d="M1483.74,-496.49C1546.41,-488.657 1621.77,-479.238 1682.25,-471.678"/>
<polygon fill="#999999" stroke="#999999" points="1682.74,-473.734 1688.43,-470.906 1682.21,-469.566 1682.74,-473.734"/>
</g>
<!-- VinaiKopp\\PostCodeFilter\\Storage\\RuleRepositoryWriter -->
<g id="node29" class="node"><title>VinaiKopp\\PostCodeFilter\\Storage\\RuleRepositoryWriter</title>
<path fill="#9999cc" stroke="black" d="M1470.35,-451C1470.35,-451 1246.94,-451 1246.94,-451 1240.94,-451 1234.94,-445 1234.94,-439 1234.94,-439 1234.94,-427 1234.94,-427 1234.94,-421 1240.94,-415 1246.94,-415 1246.94,-415 1470.35,-415 1470.35,-415 1476.35,-415 1482.35,-421 1482.35,-427 1482.35,-427 1482.35,-439 1482.35,-439 1482.35,-445 1476.35,-451 1470.35,-451"/>
<text text-anchor="middle" x="1358.65" y="-430" font-family="Times,serif" font-size="10.00" fill="#000033">VinaiKopp\PostCodeFilter\Storage\RuleRepositoryWriter</text>
</g>
<!-- VinaiKopp\\PostCodeFilter\\Storage\\RuleRepositoryWriter&#45;&gt;VinaiKopp\\PostCodeFilter\\Storage\\WriteModel\\RuleToAdd -->
<g id="edge67" class="edge"><title>VinaiKopp\\PostCodeFilter\\Storage\\RuleRepositoryWriter&#45;&gt;VinaiKopp\\PostCodeFilter\\Storage\\WriteModel\\RuleToAdd</title>
<path fill="none" stroke="#999999" d="M1482.31,-434.33C1505.29,-430.349 1528.19,-423.184 1547.72,-411 1597.92,-379.669 1569.69,-330.601 1619.72,-299 1631.63,-291.476 1644.94,-285.968 1658.73,-281.99"/>
<polygon fill="#999999" stroke="#999999" points="1659.43,-283.976 1664.66,-280.377 1658.32,-279.923 1659.43,-283.976"/>
</g>
<!-- VinaiKopp\\PostCodeFilter\\Storage\\RuleRepositoryWriter&#45;&gt;VinaiKopp\\PostCodeFilter\\Storage\\WriteModel\\RuleToDelete -->
<g id="edge68" class="edge"><title>VinaiKopp\\PostCodeFilter\\Storage\\RuleRepositoryWriter&#45;&gt;VinaiKopp\\PostCodeFilter\\Storage\\WriteModel\\RuleToDelete</title>
<path fill="none" stroke="#999999" d="M1482.71,-436.569C1505.92,-432.463 1528.8,-424.679 1547.72,-411 1609.26,-366.484 1558.41,-300.848 1619.72,-256 1630.14,-248.372 1641.91,-242.683 1654.27,-238.498"/>
<polygon fill="#999999" stroke="#999999" points="1654.91,-240.499 1659.99,-236.679 1653.64,-236.496 1654.91,-240.499"/>
</g>
<!-- VinaiKopp\\PostCodeFilter\\Storage\\RuleRepositoryWriter&#45;&gt;VinaiKopp\\PostCodeFilter\\Storage\\RuleStorage -->
<g id="edge66" class="edge"><title>VinaiKopp\\PostCodeFilter\\Storage\\RuleRepositoryWriter&#45;&gt;VinaiKopp\\PostCodeFilter\\Storage\\RuleStorage</title>
<path fill="none" stroke="#999999" d="M1482.29,-440.097C1545.24,-443.74 1621.29,-448.14 1682.24,-451.667"/>
<polygon fill="#999999" stroke="#999999" points="1682.35,-453.777 1688.46,-452.027 1682.6,-449.584 1682.35,-453.777"/>
</g>
<!-- VinaiKopp_PostCodeFilter_Block_Adminhtml_Postcodefilter_Edit_Form -->
<g id="node30" class="node"><title>VinaiKopp_PostCodeFilter_Block_Adminhtml_Postcodefilter_Edit_Form</title>
<path fill="#9999cc" stroke="black" d="M367.518,-651C367.518,-651 78.1625,-651 78.1625,-651 72.1625,-651 66.1625,-645 66.1625,-639 66.1625,-639 66.1625,-627 66.1625,-627 66.1625,-621 72.1625,-615 78.1625,-615 78.1625,-615 367.518,-615 367.518,-615 373.518,-615 379.518,-621 379.518,-627 379.518,-627 379.518,-639 379.518,-639 379.518,-645 373.518,-651 367.518,-651"/>
<text text-anchor="middle" x="222.84" y="-630" font-family="Times,serif" font-size="10.00" fill="#000033">VinaiKopp_PostCodeFilter_Block_Adminhtml_Postcodefilter_Edit_Form</text>
</g>
<!-- VinaiKopp_PostCodeFilter_Block_Adminhtml_Postcodefilter_Edit -->
<g id="node31" class="node"><title>VinaiKopp_PostCodeFilter_Block_Adminhtml_Postcodefilter_Edit</title>
<path fill="#9999cc" stroke="black" d="M353.849,-733C353.849,-733 91.8321,-733 91.8321,-733 85.8321,-733 79.8321,-727 79.8321,-721 79.8321,-721 79.8321,-709 79.8321,-709 79.8321,-703 85.8321,-697 91.8321,-697 91.8321,-697 353.849,-697 353.849,-697 359.849,-697 365.849,-703 365.849,-709 365.849,-709 365.849,-721 365.849,-721 365.849,-727 359.849,-733 353.849,-733"/>
<text text-anchor="middle" x="222.84" y="-712" font-family="Times,serif" font-size="10.00" fill="#000033">VinaiKopp_PostCodeFilter_Block_Adminhtml_Postcodefilter_Edit</text>
</g>
<!-- VinaiKopp_PostCodeFilter_Block_Adminhtml_Postcodefilter_Grid -->
<g id="node32" class="node"><title>VinaiKopp_PostCodeFilter_Block_Adminhtml_Postcodefilter_Grid</title>
<path fill="#9999cc" stroke="black" d="M355.013,-815C355.013,-815 90.6674,-815 90.6674,-815 84.6674,-815 78.6674,-809 78.6674,-803 78.6674,-803 78.6674,-791 78.6674,-791 78.6674,-785 84.6674,-779 90.6674,-779 90.6674,-779 355.013,-779 355.013,-779 361.013,-779 367.013,-785 367.013,-791 367.013,-791 367.013,-803 367.013,-803 367.013,-809 361.013,-815 355.013,-815"/>
<text text-anchor="middle" x="222.84" y="-794" font-family="Times,serif" font-size="10.00" fill="#000033">VinaiKopp_PostCodeFilter_Block_Adminhtml_Postcodefilter_Grid</text>
</g>
<!-- VinaiKopp_PostCodeFilter_Block_Adminhtml_Postcodefilter_New_Form -->
<g id="node33" class="node"><title>VinaiKopp_PostCodeFilter_Block_Adminhtml_Postcodefilter_New_Form</title>
<path fill="#9999cc" stroke="black" d="M368.735,-897C368.735,-897 76.9456,-897 76.9456,-897 70.9456,-897 64.9456,-891 64.9456,-885 64.9456,-885 64.9456,-873 64.9456,-873 64.9456,-867 70.9456,-861 76.9456,-861 76.9456,-861 368.735,-861 368.735,-861 374.735,-861 380.735,-867 380.735,-873 380.735,-873 380.735,-885 380.735,-885 380.735,-891 374.735,-897 368.735,-897"/>
<text text-anchor="middle" x="222.84" y="-876" font-family="Times,serif" font-size="10.00" fill="#000033">VinaiKopp_PostCodeFilter_Block_Adminhtml_Postcodefilter_New_Form</text>
</g>
<!-- VinaiKopp_PostCodeFilter_Block_Adminhtml_Postcodefilter_New -->
<g id="node34" class="node"><title>VinaiKopp_PostCodeFilter_Block_Adminhtml_Postcodefilter_New</title>
<path fill="#9999cc" stroke="black" d="M355.065,-979C355.065,-979 90.6156,-979 90.6156,-979 84.6156,-979 78.6156,-973 78.6156,-967 78.6156,-967 78.6156,-955 78.6156,-955 78.6156,-949 84.6156,-943 90.6156,-943 90.6156,-943 355.065,-943 355.065,-943 361.065,-943 367.065,-949 367.065,-955 367.065,-955 367.065,-967 367.065,-967 367.065,-973 361.065,-979 355.065,-979"/>
<text text-anchor="middle" x="222.84" y="-958" font-family="Times,serif" font-size="10.00" fill="#000033">VinaiKopp_PostCodeFilter_Block_Adminhtml_Postcodefilter_New</text>
</g>
<!-- VinaiKopp_PostCodeFilter_Block_Adminhtml_Postcodefilter -->
<g id="node35" class="node"><title>VinaiKopp_PostCodeFilter_Block_Adminhtml_Postcodefilter</title>
<path fill="#9999cc" stroke="black" d="M343.183,-1061C343.183,-1061 102.498,-1061 102.498,-1061 96.4975,-1061 90.4975,-1055 90.4975,-1049 90.4975,-1049 90.4975,-1037 90.4975,-1037 90.4975,-1031 96.4975,-1025 102.498,-1025 102.498,-1025 343.183,-1025 343.183,-1025 349.183,-1025 355.183,-1031 355.183,-1037 355.183,-1037 355.183,-1049 355.183,-1049 355.183,-1055 349.183,-1061 343.183,-1061"/>
<text text-anchor="middle" x="222.84" y="-1040" font-family="Times,serif" font-size="10.00" fill="#000033">VinaiKopp_PostCodeFilter_Block_Adminhtml_Postcodefilter</text>
</g>
<!-- VinaiKopp_PostCodeFilter_Helper_Data -->
<g id="node36" class="node"><title>VinaiKopp_PostCodeFilter_Helper_Data</title>
<path fill="#9999cc" stroke="black" d="M301.272,-1143C301.272,-1143 144.409,-1143 144.409,-1143 138.409,-1143 132.409,-1137 132.409,-1131 132.409,-1131 132.409,-1119 132.409,-1119 132.409,-1113 138.409,-1107 144.409,-1107 144.409,-1107 301.272,-1107 301.272,-1107 307.272,-1107 313.272,-1113 313.272,-1119 313.272,-1119 313.272,-1131 313.272,-1131 313.272,-1137 307.272,-1143 301.272,-1143"/>
<text text-anchor="middle" x="222.84" y="-1122" font-family="Times,serif" font-size="10.00" fill="#000033">VinaiKopp_PostCodeFilter_Helper_Data</text>
</g>
<!-- VinaiKopp_PostCodeFilter_Helper_Factory -->
<g id="node37" class="node"><title>VinaiKopp_PostCodeFilter_Helper_Factory</title>
<path fill="#9999cc" stroke="black" d="M717.083,-509C717.083,-509 548.879,-509 548.879,-509 542.879,-509 536.879,-503 536.879,-497 536.879,-497 536.879,-485 536.879,-485 536.879,-479 542.879,-473 548.879,-473 548.879,-473 717.083,-473 717.083,-473 723.083,-473 729.083,-479 729.083,-485 729.083,-485 729.083,-497 729.083,-497 729.083,-503 723.083,-509 717.083,-509"/>
<text text-anchor="middle" x="632.981" y="-488" font-family="Times,serif" font-size="10.00" fill="#000033">VinaiKopp_PostCodeFilter_Helper_Factory</text>
</g>
<!-- VinaiKopp_PostCodeFilter_Helper_Factory&#45;&gt;VinaiKopp\\PostCodeFilter\\AdminViewsRuleList -->
<g id="edge80" class="edge"><title>VinaiKopp_PostCodeFilter_Helper_Factory&#45;&gt;VinaiKopp\\PostCodeFilter\\AdminViewsRuleList</title>
<path fill="none" stroke="#999999" d="M726.745,-472.975C756.575,-467.339 789.792,-461.23 820.282,-456 830.124,-454.312 840.36,-452.612 850.626,-450.946"/>
<polygon fill="#999999" stroke="#999999" points="851.082,-453 856.671,-449.97 850.413,-448.854 851.082,-453"/>
</g>
<!-- VinaiKopp_PostCodeFilter_Helper_Factory&#45;&gt;VinaiKopp\\PostCodeFilter\\CustomerSpecifiesShippingAddress -->
<g id="edge79" class="edge"><title>VinaiKopp_PostCodeFilter_Helper_Factory&#45;&gt;VinaiKopp\\PostCodeFilter\\CustomerSpecifiesShippingAddress</title>
<path fill="none" stroke="#999999" d="M729.278,-486.932C758.265,-485.694 790.748,-484.308 822.036,-482.972"/>
<polygon fill="#999999" stroke="#999999" points="822.371,-485.06 828.276,-482.706 822.192,-480.864 822.371,-485.06"/>
</g>
<!-- VinaiKopp_PostCodeFilter_Helper_Factory&#45;&gt;VinaiKopp\\PostCodeFilter\\Storage\\RuleRepositoryReader -->
<g id="edge78" class="edge"><title>VinaiKopp_PostCodeFilter_Helper_Factory&#45;&gt;VinaiKopp\\PostCodeFilter\\Storage\\RuleRepositoryReader</title>
<path fill="none" stroke="#999999" d="M729.559,-503.209C758.639,-506.398 790.724,-509.39 820.282,-511 959.25,-518.568 1118.73,-517.655 1227.63,-515.576"/>
<polygon fill="#999999" stroke="#999999" points="1227.79,-517.673 1233.75,-515.457 1227.71,-513.474 1227.79,-517.673"/>
</g>
<!-- VinaiKopp_PostCodeFilter_Helper_Factory&#45;&gt;VinaiKopp\\PostCodeFilter\\Storage\\RuleStorage -->
<g id="edge76" class="edge"><title>VinaiKopp_PostCodeFilter_Helper_Factory&#45;&gt;VinaiKopp\\PostCodeFilter\\Storage\\RuleStorage</title>
<path fill="none" stroke="#999999" d="M712.946,-509.008C872.972,-542.378 1245.95,-604.237 1547.72,-533 1582.54,-524.78 1586.03,-509.044 1619.72,-497 1641.15,-489.337 1664.64,-482.836 1687.19,-477.468"/>
<polygon fill="#999999" stroke="#999999" points="1687.84,-479.471 1693.2,-476.056 1686.88,-475.382 1687.84,-479.471"/>
</g>
<!-- VinaiKopp_PostCodeFilter_Helper_Factory&#45;&gt;VinaiKopp\\PostCodeFilter\\Storage\\RuleRepositoryWriter -->
<g id="edge77" class="edge"><title>VinaiKopp_PostCodeFilter_Helper_Factory&#45;&gt;VinaiKopp\\PostCodeFilter\\Storage\\RuleRepositoryWriter</title>
<path fill="none" stroke="#999999" d="M729.217,-495.268C758.428,-496.391 790.672,-497.444 820.282,-498 943.501,-500.314 975.256,-513.054 1097.57,-498 1166.85,-489.474 1244.21,-468.631 1296.41,-452.827"/>
<polygon fill="#999999" stroke="#999999" points="1297.2,-454.781 1302.33,-451.023 1295.98,-450.763 1297.2,-454.781"/>
</g>
<!-- VinaiKopp_PostCodeFilter_Model_Observer -->
<g id="node38" class="node"><title>VinaiKopp_PostCodeFilter_Model_Observer</title>
<path fill="#9999cc" stroke="black" d="M309.447,-232C309.447,-232 136.233,-232 136.233,-232 130.233,-232 124.233,-226 124.233,-220 124.233,-220 124.233,-208 124.233,-208 124.233,-202 130.233,-196 136.233,-196 136.233,-196 309.447,-196 309.447,-196 315.447,-196 321.447,-202 321.447,-208 321.447,-208 321.447,-220 321.447,-220 321.447,-226 315.447,-232 309.447,-232"/>
<text text-anchor="middle" x="222.84" y="-211" font-family="Times,serif" font-size="10.00" fill="#000033">VinaiKopp_PostCodeFilter_Model_Observer</text>
</g>
<!-- VinaiKopp_PostCodeFilter_Model_Observer&#45;&gt;VinaiKopp\\PostCodeFilter\\CustomerSpecifiesShippingAddress -->
<g id="edge81" class="edge"><title>VinaiKopp_PostCodeFilter_Model_Observer&#45;&gt;VinaiKopp\\PostCodeFilter\\CustomerSpecifiesShippingAddress</title>
<path fill="none" stroke="#999999" d="M279.208,-232.099C324.555,-247.228 390.211,-269.834 446.681,-292 615.315,-358.194 646.315,-404.458 820.282,-455 823.12,-455.824 825.999,-456.62 828.91,-457.387"/>
<polygon fill="#999999" stroke="#999999" points="828.594,-459.473 834.927,-458.922 829.632,-455.404 828.594,-459.473"/>
</g>
<!-- VinaiKopp_PostCodeFilter_Model_Observer&#45;&gt;VinaiKopp_PostCodeFilter_Helper_Factory -->
<g id="edge85" class="edge"><title>VinaiKopp_PostCodeFilter_Model_Observer&#45;&gt;VinaiKopp_PostCodeFilter_Helper_Factory</title>
<path fill="none" stroke="#999999" d="M304.426,-232.056C348.79,-244.409 403.448,-263.746 446.681,-292 521.714,-341.038 587.382,-426.81 616.299,-467.845"/>
<polygon fill="#999999" stroke="#999999" points="614.646,-469.145 619.805,-472.859 618.087,-466.738 614.646,-469.145"/>
</g>
<!-- Mage_Sales_Model_Quote -->
<g id="node39" class="node"><title>Mage_Sales_Model_Quote</title>
<path fill="#9999cc" stroke="black" d="M683.906,-150C683.906,-150 582.057,-150 582.057,-150 576.057,-150 570.057,-144 570.057,-138 570.057,-138 570.057,-126 570.057,-126 570.057,-120 576.057,-114 582.057,-114 582.057,-114 683.906,-114 683.906,-114 689.906,-114 695.906,-120 695.906,-126 695.906,-126 695.906,-138 695.906,-138 695.906,-144 689.906,-150 683.906,-150"/>
<text text-anchor="middle" x="632.981" y="-129" font-family="Times,serif" font-size="10.00" fill="#000033">Mage_Sales_Model_Quote</text>
</g>
<!-- VinaiKopp_PostCodeFilter_Model_Observer&#45;&gt;Mage_Sales_Model_Quote -->
<g id="edge82" class="edge"><title>VinaiKopp_PostCodeFilter_Model_Observer&#45;&gt;Mage_Sales_Model_Quote</title>
<path fill="none" stroke="#999999" d="M313.661,-195.954C389.186,-180.78 495.515,-159.418 564.095,-145.639"/>
<polygon fill="#999999" stroke="#999999" points="564.73,-147.654 570.199,-144.413 563.903,-143.536 564.73,-147.654"/>
</g>
<!-- Mage_Core_Controller_Response_Http -->
<g id="node40" class="node"><title>Mage_Core_Controller_Response_Http</title>
<path fill="#9999cc" stroke="black" d="M708.901,-68C708.901,-68 557.062,-68 557.062,-68 551.062,-68 545.062,-62 545.062,-56 545.062,-56 545.062,-44 545.062,-44 545.062,-38 551.062,-32 557.062,-32 557.062,-32 708.901,-32 708.901,-32 714.901,-32 720.901,-38 720.901,-44 720.901,-44 720.901,-56 720.901,-56 720.901,-62 714.901,-68 708.901,-68"/>
<text text-anchor="middle" x="632.981" y="-47" font-family="Times,serif" font-size="10.00" fill="#000033">Mage_Core_Controller_Response_Http</text>
</g>
<!-- VinaiKopp_PostCodeFilter_Model_Observer&#45;&gt;Mage_Core_Controller_Response_Http -->
<g id="edge83" class="edge"><title>VinaiKopp_PostCodeFilter_Model_Observer&#45;&gt;Mage_Core_Controller_Response_Http</title>
<path fill="none" stroke="#999999" d="M268.686,-195.98C345.329,-165.183 501.009,-102.628 581.405,-70.3226"/>
<polygon fill="#999999" stroke="#999999" points="582.277,-72.2355 587.062,-68.0498 580.711,-68.3384 582.277,-72.2355"/>
</g>
<!-- Mage_Sales_Model_Quote_Address -->
<g id="node41" class="node"><title>Mage_Sales_Model_Quote_Address</title>
<path fill="#9999cc" stroke="black" d="M702.679,-232C702.679,-232 563.284,-232 563.284,-232 557.284,-232 551.284,-226 551.284,-220 551.284,-220 551.284,-208 551.284,-208 551.284,-202 557.284,-196 563.284,-196 563.284,-196 702.679,-196 702.679,-196 708.679,-196 714.679,-202 714.679,-208 714.679,-208 714.679,-220 714.679,-220 714.679,-226 708.679,-232 702.679,-232"/>
<text text-anchor="middle" x="632.981" y="-211" font-family="Times,serif" font-size="10.00" fill="#000033">Mage_Sales_Model_Quote_Address</text>
</g>
<!-- VinaiKopp_PostCodeFilter_Model_Observer&#45;&gt;Mage_Sales_Model_Quote_Address -->
<g id="edge84" class="edge"><title>VinaiKopp_PostCodeFilter_Model_Observer&#45;&gt;Mage_Sales_Model_Quote_Address</title>
<path fill="none" stroke="#999999" d="M321.6,-214C389.567,-214 479.363,-214 544.876,-214"/>
<polygon fill="#999999" stroke="#999999" points="545.139,-216.1 551.139,-214 545.139,-211.9 545.139,-216.1"/>
</g>
<!-- VinaiKopp_PostCodeFilter_Model_Resource_RuleStorage -->
<g id="node42" class="node"><title>VinaiKopp_PostCodeFilter_Model_Resource_RuleStorage</title>
<path fill="#9999cc" stroke="black" d="M336.937,-1225C336.937,-1225 108.743,-1225 108.743,-1225 102.743,-1225 96.7433,-1219 96.7433,-1213 96.7433,-1213 96.7433,-1201 96.7433,-1201 96.7433,-1195 102.743,-1189 108.743,-1189 108.743,-1189 336.937,-1189 336.937,-1189 342.937,-1189 348.937,-1195 348.937,-1201 348.937,-1201 348.937,-1213 348.937,-1213 348.937,-1219 342.937,-1225 336.937,-1225"/>
<text text-anchor="middle" x="222.84" y="-1204" font-family="Times,serif" font-size="10.00" fill="#000033">VinaiKopp_PostCodeFilter_Model_Resource_RuleStorage</text>
</g>
<!-- Varien_Db_Adapter_Interface -->
<g id="node43" class="node"><title>Varien_Db_Adapter_Interface</title>
<path fill="#9999cc" stroke="black" d="M689.531,-1225C689.531,-1225 576.432,-1225 576.432,-1225 570.432,-1225 564.432,-1219 564.432,-1213 564.432,-1213 564.432,-1201 564.432,-1201 564.432,-1195 570.432,-1189 576.432,-1189 576.432,-1189 689.531,-1189 689.531,-1189 695.531,-1189 701.531,-1195 701.531,-1201 701.531,-1201 701.531,-1213 701.531,-1213 701.531,-1219 695.531,-1225 689.531,-1225"/>
<text text-anchor="middle" x="632.981" y="-1204" font-family="Times,serif" font-size="10.00" fill="#000033">Varien_Db_Adapter_Interface</text>
</g>
<!-- VinaiKopp_PostCodeFilter_Model_Resource_RuleStorage&#45;&gt;Varien_Db_Adapter_Interface -->
<g id="edge86" class="edge"><title>VinaiKopp_PostCodeFilter_Model_Resource_RuleStorage&#45;&gt;Varien_Db_Adapter_Interface</title>
<path fill="none" stroke="#999999" d="M349.07,-1207C417.461,-1207 499.814,-1207 557.986,-1207"/>
<polygon fill="#999999" stroke="#999999" points="558.247,-1209.1 564.247,-1207 558.247,-1204.9 558.247,-1209.1"/>
</g>
<!-- VinaiKopp_PostCodeFilter_Model_RuleCollection -->
<g id="node44" class="node"><title>VinaiKopp_PostCodeFilter_Model_RuleCollection</title>
<path fill="#9999cc" stroke="black" d="M321.344,-569C321.344,-569 124.337,-569 124.337,-569 118.337,-569 112.337,-563 112.337,-557 112.337,-557 112.337,-545 112.337,-545 112.337,-539 118.337,-533 124.337,-533 124.337,-533 321.344,-533 321.344,-533 327.344,-533 333.344,-539 333.344,-545 333.344,-545 333.344,-557 333.344,-557 333.344,-563 327.344,-569 321.344,-569"/>
<text text-anchor="middle" x="222.84" y="-548" font-family="Times,serif" font-size="10.00" fill="#000033">VinaiKopp_PostCodeFilter_Model_RuleCollection</text>
</g>
<!-- VinaiKopp_PostCodeFilter_Model_RuleCollection&#45;&gt;VinaiKopp\\PostCodeFilter\\Rule\\Rule -->
<g id="edge89" class="edge"><title>VinaiKopp_PostCodeFilter_Model_RuleCollection&#45;&gt;VinaiKopp\\PostCodeFilter\\Rule\\Rule</title>
<path fill="none" stroke="#999999" d="M333.368,-563.963C613.679,-594.907 1348.95,-661.36 1547.72,-533 1606.49,-495.043 1563.36,-434.462 1619.72,-393 1643.65,-375.396 1674.47,-366.875 1703.39,-363.062"/>
<polygon fill="#999999" stroke="#999999" points="1703.82,-365.124 1709.53,-362.318 1703.32,-360.955 1703.82,-365.124"/>
</g>
<!-- VinaiKopp_PostCodeFilter_Model_RuleCollection&#45;&gt;VinaiKopp\\PostCodeFilter\\AdminViewsRuleList -->
<g id="edge87" class="edge"><title>VinaiKopp_PostCodeFilter_Model_RuleCollection&#45;&gt;VinaiKopp\\PostCodeFilter\\AdminViewsRuleList</title>
<path fill="none" stroke="#999999" d="M294.325,-569.067C402.813,-592.795 613.903,-622.46 764.282,-540 803.625,-518.427 782.469,-480.154 820.282,-456 829.572,-450.066 839.889,-445.526 850.597,-442.077"/>
<polygon fill="#999999" stroke="#999999" points="851.446,-444.015 856.583,-440.271 850.232,-439.994 851.446,-444.015"/>
</g>
<!-- VinaiKopp_PostCodeFilter_Model_RuleCollection&#45;&gt;VinaiKopp_PostCodeFilter_Helper_Factory -->
<g id="edge88" class="edge"><title>VinaiKopp_PostCodeFilter_Model_RuleCollection&#45;&gt;VinaiKopp_PostCodeFilter_Helper_Factory</title>
<path fill="none" stroke="#999999" d="M333.483,-534.882C394.775,-525.871 470.646,-514.718 530.558,-505.91"/>
<polygon fill="#999999" stroke="#999999" points="531.042,-507.962 536.673,-505.011 530.431,-503.806 531.042,-507.962"/>
</g>
<!-- VinaiKopp_PostCodeFilter_Adminhtml_Vinaikopp_PostcodefilterController -->
<g id="node45" class="node"><title>VinaiKopp_PostCodeFilter_Adminhtml_Vinaikopp_PostcodefilterController</title>
<path fill="#9999cc" stroke="black" d="M372.521,-337C372.521,-337 73.1595,-337 73.1595,-337 67.1595,-337 61.1595,-331 61.1595,-325 61.1595,-325 61.1595,-313 61.1595,-313 61.1595,-307 67.1595,-301 73.1595,-301 73.1595,-301 372.521,-301 372.521,-301 378.521,-301 384.521,-307 384.521,-313 384.521,-313 384.521,-325 384.521,-325 384.521,-331 378.521,-337 372.521,-337"/>
<text text-anchor="middle" x="222.84" y="-316" font-family="Times,serif" font-size="10.00" fill="#000033">VinaiKopp_PostCodeFilter_Adminhtml_Vinaikopp_PostcodefilterController</text>
</g>
<!-- VinaiKopp_PostCodeFilter_Adminhtml_Vinaikopp_PostcodefilterController&#45;&gt;VinaiKopp\\PostCodeFilter\\AdminAddsRule -->
<g id="edge90" class="edge"><title>VinaiKopp_PostCodeFilter_Adminhtml_Vinaikopp_PostcodefilterController&#45;&gt;VinaiKopp\\PostCodeFilter\\AdminAddsRule</title>
<path fill="none" stroke="#999999" d="M384.905,-322.273C529.439,-325.211 737.167,-329.432 859.958,-331.928"/>
<polygon fill="#999999" stroke="#999999" points="860.062,-334.03 866.103,-332.053 860.147,-329.831 860.062,-334.03"/>
</g>
<!-- VinaiKopp_PostCodeFilter_Adminhtml_Vinaikopp_PostcodefilterController&#45;&gt;VinaiKopp\\PostCodeFilter\\AdminDeletesRule -->
<g id="edge91" class="edge"><title>VinaiKopp_PostCodeFilter_Adminhtml_Vinaikopp_PostcodefilterController&#45;&gt;VinaiKopp\\PostCodeFilter\\AdminDeletesRule</title>
<path fill="none" stroke="#999999" d="M384.673,-321.987C492.319,-322.521 637.05,-320.419 764.282,-309 796.09,-306.145 830.524,-301.218 861.602,-296.074"/>
<polygon fill="#999999" stroke="#999999" points="862.2,-298.103 867.771,-295.042 861.507,-293.96 862.2,-298.103"/>
</g>
<!-- VinaiKopp_PostCodeFilter_Adminhtml_Vinaikopp_PostcodefilterController&#45;&gt;VinaiKopp\\PostCodeFilter\\AdminUpdatesRule -->
<g id="edge92" class="edge"><title>VinaiKopp_PostCodeFilter_Adminhtml_Vinaikopp_PostcodefilterController&#45;&gt;VinaiKopp\\PostCodeFilter\\AdminUpdatesRule</title>
<path fill="none" stroke="#999999" d="M384.838,-313.725C537.565,-308.385 746.397,-300.072 764.282,-294 793.002,-284.25 793.95,-270.051 820.282,-255 849.559,-238.265 883.903,-222.419 911.44,-210.562"/>
<polygon fill="#999999" stroke="#999999" points="912.519,-212.384 917.209,-208.093 910.866,-208.523 912.519,-212.384"/>
</g>
<!-- VinaiKopp_PostCodeFilter_Adminhtml_Vinaikopp_PostcodefilterController&#45;&gt;VinaiKopp\\PostCodeFilter\\AdminViewsSingleRule -->
<g id="edge93" class="edge"><title>VinaiKopp_PostCodeFilter_Adminhtml_Vinaikopp_PostcodefilterController&#45;&gt;VinaiKopp\\PostCodeFilter\\AdminViewsSingleRule</title>
<path fill="none" stroke="#999999" d="M384.563,-305.886C538.017,-292.821 748.282,-273.271 764.282,-263 805.527,-236.523 780.684,-196.882 820.282,-168 828.126,-162.279 836.815,-157.555 845.917,-153.658"/>
<polygon fill="#999999" stroke="#999999" points="846.865,-155.54 851.634,-151.337 845.285,-151.648 846.865,-155.54"/>
</g>
<!-- VinaiKopp_PostCodeFilter_Adminhtml_Vinaikopp_PostcodefilterController&#45;&gt;VinaiKopp_PostCodeFilter_Helper_Factory -->
<g id="edge94" class="edge"><title>VinaiKopp_PostCodeFilter_Adminhtml_Vinaikopp_PostcodefilterController&#45;&gt;VinaiKopp_PostCodeFilter_Helper_Factory</title>
<path fill="none" stroke="#999999" d="M266.747,-337.082C343.297,-369.342 502.913,-436.608 583.382,-470.519"/>
<polygon fill="#999999" stroke="#999999" points="582.692,-472.507 589.037,-472.902 584.324,-468.637 582.692,-472.507"/>
</g>
<!-- VinaiKopp_PostCodeFilter_Frontend_CheckController -->
<g id="node46" class="node"><title>VinaiKopp_PostCodeFilter_Frontend_CheckController</title>
<path fill="#9999cc" stroke="black" d="M329.447,-479C329.447,-479 116.234,-479 116.234,-479 110.234,-479 104.234,-473 104.234,-467 104.234,-467 104.234,-455 104.234,-455 104.234,-449 110.234,-443 116.234,-443 116.234,-443 329.447,-443 329.447,-443 335.447,-443 341.447,-449 341.447,-455 341.447,-455 341.447,-467 341.447,-467 341.447,-473 335.447,-479 329.447,-479"/>
<text text-anchor="middle" x="222.84" y="-458" font-family="Times,serif" font-size="10.00" fill="#000033">VinaiKopp_PostCodeFilter_Frontend_CheckController</text>
</g>
<!-- VinaiKopp_PostCodeFilter_Frontend_CheckController&#45;&gt;VinaiKopp\\PostCodeFilter\\CustomerSpecifiesShippingAddress -->
<g id="edge95" class="edge"><title>VinaiKopp_PostCodeFilter_Frontend_CheckController&#45;&gt;VinaiKopp\\PostCodeFilter\\CustomerSpecifiesShippingAddress</title>
<path fill="none" stroke="#999999" d="M341.696,-459.616C451.207,-458.814 618.824,-458.817 764.282,-464 782.969,-464.666 802.634,-465.635 822.019,-466.749"/>
<polygon fill="#999999" stroke="#999999" points="821.912,-468.847 828.024,-467.1 822.157,-464.654 821.912,-468.847"/>
</g>
<!-- VinaiKopp_PostCodeFilter_Frontend_CheckController&#45;&gt;VinaiKopp_PostCodeFilter_Helper_Factory -->
<g id="edge96" class="edge"><title>VinaiKopp_PostCodeFilter_Frontend_CheckController&#45;&gt;VinaiKopp_PostCodeFilter_Helper_Factory</title>
<path fill="none" stroke="#999999" d="M341.618,-469.657C401.367,-474.049 473.214,-479.33 530.491,-483.54"/>
<polygon fill="#999999" stroke="#999999" points="530.555,-485.65 536.692,-483.996 530.863,-481.462 530.555,-485.65"/>
</g>
</g>
</svg>
