<?xml version="1.0" encoding="UTF-8" standalone="no"?>
<!DOCTYPE svg PUBLIC "-//W3C//DTD SVG 1.1//EN"
 "http://www.w3.org/Graphics/SVG/1.1/DTD/svg11.dtd">
<!-- Generated by graphviz version 2.38.0 (20140413.2041)
 -->
<!-- Title: G Pages: 1 -->
<svg width="3066pt" height="1189pt"
 viewBox="0.00 0.00 3066.22 1189.00" xmlns="http://www.w3.org/2000/svg" xmlns:xlink="http://www.w3.org/1999/xlink">
<g id="graph0" class="graph" transform="scale(1 1) rotate(0) translate(4 1185)">
<title>G</title>
<polygon fill="white" stroke="none" points="-4,4 -4,-1185 3062.22,-1185 3062.22,4 -4,4"/>
<text text-anchor="middle" x="1529.11" y="-5.6" font-family="Times,serif" font-size="8.00">PhpDependencyAnalyse by Marco Muths (v0.5.0)</text>
<g id="clust1" class="cluster"><title>cluster_0</title>
<path fill="#ccccff" stroke="#000033" d="M815.612,-109C815.612,-109 3038.22,-109 3038.22,-109 3044.22,-109 3050.22,-115 3050.22,-121 3050.22,-121 3050.22,-625 3050.22,-625 3050.22,-631 3044.22,-637 3038.22,-637 3038.22,-637 815.612,-637 815.612,-637 809.612,-637 803.612,-631 803.612,-625 803.612,-625 803.612,-121 803.612,-121 803.612,-115 809.612,-109 815.612,-109"/>
<text text-anchor="middle" x="842.302" y="-621.8" font-family="Times,serif" font-size="14.00" fill="#000033">VinaiKopp</text>
</g>
<g id="clust2" class="cluster"><title>cluster_1</title>
<path fill="#ccccff" stroke="#000033" d="M19.2515,-607C19.2515,-607 426.429,-607 426.429,-607 432.429,-607 438.429,-613 438.429,-619 438.429,-619 438.429,-669 438.429,-669 438.429,-675 432.429,-681 426.429,-681 426.429,-681 19.2515,-681 19.2515,-681 13.2515,-681 7.25146,-675 7.25146,-669 7.25146,-669 7.25146,-619 7.25146,-619 7.25146,-613 13.2515,-607 19.2515,-607"/>
<text text-anchor="middle" x="223.276" y="-665.8" font-family="Times,serif" font-size="14.00" fill="#000033">VinaiKopp_PostCodeFilter_Block_Adminhtml_Postcodefilter_Edit_Form</text>
</g>
<g id="clust3" class="cluster"><title>cluster_2</title>
<path fill="#ccccff" stroke="#000033" d="M37.5864,-689C37.5864,-689 408.094,-689 408.094,-689 414.094,-689 420.094,-695 420.094,-701 420.094,-701 420.094,-751 420.094,-751 420.094,-757 414.094,-763 408.094,-763 408.094,-763 37.5864,-763 37.5864,-763 31.5864,-763 25.5864,-757 25.5864,-751 25.5864,-751 25.5864,-701 25.5864,-701 25.5864,-695 31.5864,-689 37.5864,-689"/>
<text text-anchor="middle" x="222.942" y="-747.8" font-family="Times,serif" font-size="14.00" fill="#000033">VinaiKopp_PostCodeFilter_Block_Adminhtml_Postcodefilter_Edit</text>
</g>
<g id="clust4" class="cluster"><title>cluster_3</title>
<path fill="#ccccff" stroke="#000033" d="M36.7539,-771C36.7539,-771 408.927,-771 408.927,-771 414.927,-771 420.927,-777 420.927,-783 420.927,-783 420.927,-833 420.927,-833 420.927,-839 414.927,-845 408.927,-845 408.927,-845 36.7539,-845 36.7539,-845 30.7539,-845 24.7539,-839 24.7539,-833 24.7539,-833 24.7539,-783 24.7539,-783 24.7539,-777 30.7539,-771 36.7539,-771"/>
<text text-anchor="middle" x="223.275" y="-829.8" font-family="Times,serif" font-size="14.00" fill="#000033">VinaiKopp_PostCodeFilter_Block_Adminhtml_Postcodefilter_Grid</text>
</g>
<g id="clust5" class="cluster"><title>cluster_4</title>
<path fill="#ccccff" stroke="#000033" d="M18.1431,-853C18.1431,-853 428.538,-853 428.538,-853 434.538,-853 440.538,-859 440.538,-865 440.538,-865 440.538,-915 440.538,-915 440.538,-921 434.538,-927 428.538,-927 428.538,-927 18.1431,-927 18.1431,-927 12.1431,-927 6.14307,-921 6.14307,-915 6.14307,-915 6.14307,-865 6.14307,-865 6.14307,-859 12.1431,-853 18.1431,-853"/>
<text text-anchor="middle" x="223.719" y="-911.8" font-family="Times,serif" font-size="14.00" fill="#000033">VinaiKopp_PostCodeFilter_Block_Adminhtml_Postcodefilter_New_Form</text>
</g>
<g id="clust6" class="cluster"><title>cluster_5</title>
<path fill="#ccccff" stroke="#000033" d="M36.478,-935C36.478,-935 410.203,-935 410.203,-935 416.203,-935 422.203,-941 422.203,-947 422.203,-947 422.203,-997 422.203,-997 422.203,-1003 416.203,-1009 410.203,-1009 410.203,-1009 36.478,-1009 36.478,-1009 30.478,-1009 24.478,-1003 24.478,-997 24.478,-997 24.478,-947 24.478,-947 24.478,-941 30.478,-935 36.478,-935"/>
<text text-anchor="middle" x="223.385" y="-993.8" font-family="Times,serif" font-size="14.00" fill="#000033">VinaiKopp_PostCodeFilter_Block_Adminhtml_Postcodefilter_New</text>
</g>
<g id="clust7" class="cluster"><title>cluster_6</title>
<path fill="#ccccff" stroke="#000033" d="M53.4189,-1017C53.4189,-1017 393.262,-1017 393.262,-1017 399.262,-1017 405.262,-1023 405.262,-1029 405.262,-1029 405.262,-1079 405.262,-1079 405.262,-1085 399.262,-1091 393.262,-1091 393.262,-1091 53.4189,-1091 53.4189,-1091 47.4189,-1091 41.4189,-1085 41.4189,-1079 41.4189,-1079 41.4189,-1029 41.4189,-1029 41.4189,-1023 47.4189,-1017 53.4189,-1017"/>
<text text-anchor="middle" x="223.609" y="-1075.8" font-family="Times,serif" font-size="14.00" fill="#000033">VinaiKopp_PostCodeFilter_Block_Adminhtml_Postcodefilter</text>
</g>
<g id="clust8" class="cluster"><title>cluster_7</title>
<path fill="#ccccff" stroke="#000033" d="M513.681,-465C513.681,-465 735.612,-465 735.612,-465 741.612,-465 747.612,-471 747.612,-477 747.612,-477 747.612,-527 747.612,-527 747.612,-533 741.612,-539 735.612,-539 735.612,-539 513.681,-539 513.681,-539 507.681,-539 501.681,-533 501.681,-527 501.681,-527 501.681,-477 501.681,-477 501.681,-471 507.681,-465 513.681,-465"/>
<text text-anchor="middle" x="625.133" y="-523.8" font-family="Times,serif" font-size="14.00" fill="#000033">VinaiKopp_PostCodeFilter_Helper_Data</text>
</g>
<g id="clust9" class="cluster"><title>cluster_8</title>
<path fill="#ccccff" stroke="#000033" d="M100.037,-188C100.037,-188 345.644,-188 345.644,-188 351.644,-188 357.644,-194 357.644,-200 357.644,-200 357.644,-250 357.644,-250 357.644,-256 351.644,-262 345.644,-262 345.644,-262 100.037,-262 100.037,-262 94.0371,-262 88.0371,-256 88.0371,-250 88.0371,-250 88.0371,-200 88.0371,-200 88.0371,-194 94.0371,-188 100.037,-188"/>
<text text-anchor="middle" x="223.162" y="-246.8" font-family="Times,serif" font-size="14.00" fill="#000033">VinaiKopp_PostCodeFilter_Model_Observer</text>
</g>
<g id="clust10" class="cluster"><title>cluster_9</title>
<path fill="#ccccff" stroke="#000033" d="M552.435,-106C552.435,-106 696.858,-106 696.858,-106 702.858,-106 708.858,-112 708.858,-118 708.858,-118 708.858,-168 708.858,-168 708.858,-174 702.858,-180 696.858,-180 696.858,-180 552.435,-180 552.435,-180 546.435,-180 540.435,-174 540.435,-168 540.435,-168 540.435,-118 540.435,-118 540.435,-112 546.435,-106 552.435,-106"/>
<text text-anchor="middle" x="625.031" y="-164.8" font-family="Times,serif" font-size="14.00" fill="#000033">Mage_Sales_Model_Quote</text>
</g>
<g id="clust11" class="cluster"><title>cluster_10</title>
<path fill="#ccccff" stroke="#000033" d="M517.437,-24C517.437,-24 731.856,-24 731.856,-24 737.856,-24 743.856,-30 743.856,-36 743.856,-36 743.856,-86 743.856,-86 743.856,-92 737.856,-98 731.856,-98 731.856,-98 517.437,-98 517.437,-98 511.437,-98 505.437,-92 505.437,-86 505.437,-86 505.437,-36 505.437,-36 505.437,-30 511.437,-24 517.437,-24"/>
<text text-anchor="middle" x="625.03" y="-82.8" font-family="Times,serif" font-size="14.00" fill="#000033">Mage_Core_Controller_Response_Http</text>
</g>
<g id="clust12" class="cluster"><title>cluster_11</title>
<path fill="#ccccff" stroke="#000033" d="M525.548,-188C525.548,-188 722.745,-188 722.745,-188 728.745,-188 734.745,-194 734.745,-200 734.745,-200 734.745,-250 734.745,-250 734.745,-256 728.745,-262 722.745,-262 722.745,-262 525.548,-262 525.548,-262 519.548,-262 513.548,-256 513.548,-250 513.548,-250 513.548,-200 513.548,-200 513.548,-194 519.548,-188 525.548,-188"/>
<text text-anchor="middle" x="624.586" y="-246.8" font-family="Times,serif" font-size="14.00" fill="#000033">Mage_Sales_Model_Quote_Address</text>
</g>
<g id="clust13" class="cluster"><title>cluster_12</title>
<path fill="#ccccff" stroke="#000033" d="M61.542,-1099C61.542,-1099 384.139,-1099 384.139,-1099 390.139,-1099 396.139,-1105 396.139,-1111 396.139,-1111 396.139,-1161 396.139,-1161 396.139,-1167 390.139,-1173 384.139,-1173 384.139,-1173 61.542,-1173 61.542,-1173 55.542,-1173 49.542,-1167 49.542,-1161 49.542,-1161 49.542,-1111 49.542,-1111 49.542,-1105 55.542,-1099 61.542,-1099"/>
<text text-anchor="middle" x="223.16" y="-1157.8" font-family="Times,serif" font-size="14.00" fill="#000033">VinaiKopp_PostCodeFilter_Model_Resource_RuleStorage</text>
</g>
<g id="clust14" class="cluster"><title>cluster_13</title>
<path fill="#ccccff" stroke="#000033" d="M543.622,-1099C543.622,-1099 704.671,-1099 704.671,-1099 710.671,-1099 716.671,-1105 716.671,-1111 716.671,-1111 716.671,-1161 716.671,-1161 716.671,-1167 710.671,-1173 704.671,-1173 704.671,-1173 543.622,-1173 543.622,-1173 537.622,-1173 531.622,-1167 531.622,-1161 531.622,-1161 531.622,-1111 531.622,-1111 531.622,-1105 537.622,-1099 543.622,-1099"/>
<text text-anchor="middle" x="624.356" y="-1157.8" font-family="Times,serif" font-size="14.00" fill="#000033">Varien_Db_Adapter_Interface</text>
</g>
<g id="clust15" class="cluster"><title>cluster_14</title>
<path fill="#ccccff" stroke="#000033" d="M83.0889,-525C83.0889,-525 362.592,-525 362.592,-525 368.592,-525 374.592,-531 374.592,-537 374.592,-537 374.592,-587 374.592,-587 374.592,-593 368.592,-599 362.592,-599 362.592,-599 83.0889,-599 83.0889,-599 77.0889,-599 71.0889,-593 71.0889,-587 71.0889,-587 71.0889,-537 71.0889,-537 71.0889,-531 77.0889,-525 83.0889,-525"/>
<text text-anchor="middle" x="222.941" y="-583.8" font-family="Times,serif" font-size="14.00" fill="#000033">VinaiKopp_PostCodeFilter_Model_RuleCollection</text>
</g>
<g id="clust16" class="cluster"><title>cluster_15</title>
<path fill="#ccccff" stroke="#000033" d="M12,-293C12,-293 434.681,-293 434.681,-293 440.681,-293 446.681,-299 446.681,-305 446.681,-305 446.681,-355 446.681,-355 446.681,-361 440.681,-367 434.681,-367 434.681,-367 12,-367 12,-367 6,-367 0,-361 0,-355 0,-355 0,-305 0,-305 0,-299 6,-293 12,-293"/>
<text text-anchor="middle" x="223.376" y="-351.8" font-family="Times,serif" font-size="14.00" fill="#000033">VinaiKopp_PostCodeFilter_Adminhtml_Vinaikopp_PostcodefilterController</text>
</g>
<g id="clust17" class="cluster"><title>cluster_16</title>
<path fill="#ccccff" stroke="#000033" d="M72.0371,-435C72.0371,-435 373.644,-435 373.644,-435 379.644,-435 385.644,-441 385.644,-447 385.644,-447 385.644,-497 385.644,-497 385.644,-503 379.644,-509 373.644,-509 373.644,-509 72.0371,-509 72.0371,-509 66.0371,-509 60.0371,-503 60.0371,-497 60.0371,-497 60.0371,-447 60.0371,-447 60.0371,-441 66.0371,-435 72.0371,-435"/>
<text text-anchor="middle" x="223.162" y="-493.8" font-family="Times,serif" font-size="14.00" fill="#000033">VinaiKopp_PostCodeFilter_Frontend_CheckController</text>
</g>
<!-- VinaiKopp\\PostCodeFilter\\AdminAddsRule -->
<g id="node1" class="node"><title>VinaiKopp\\PostCodeFilter\\AdminAddsRule</title>
<path fill="#9999cc" stroke="black" d="M1030.94,-352C1030.94,-352 861.575,-352 861.575,-352 855.575,-352 849.575,-346 849.575,-340 849.575,-340 849.575,-328 849.575,-328 849.575,-322 855.575,-316 861.575,-316 861.575,-316 1030.94,-316 1030.94,-316 1036.94,-316 1042.94,-322 1042.94,-328 1042.94,-328 1042.94,-340 1042.94,-340 1042.94,-346 1036.94,-352 1030.94,-352"/>
<text text-anchor="middle" x="946.258" y="-331" font-family="Times,serif" font-size="10.00" fill="#000033">VinaiKopp\PostCodeFilter\AdminAddsRule</text>
</g>
<!-- VinaiKopp\\PostCodeFilter\\Storage\\WriteModel\\RuleWriter -->
<g id="node2" class="node"><title>VinaiKopp\\PostCodeFilter\\Storage\\WriteModel\\RuleWriter</title>
<path fill="#9999cc" stroke="black" d="M1457.04,-295C1457.04,-295 1226.91,-295 1226.91,-295 1220.91,-295 1214.91,-289 1214.91,-283 1214.91,-283 1214.91,-271 1214.91,-271 1214.91,-265 1220.91,-259 1226.91,-259 1226.91,-259 1457.04,-259 1457.04,-259 1463.04,-259 1469.04,-265 1469.04,-271 1469.04,-271 1469.04,-283 1469.04,-283 1469.04,-289 1463.04,-295 1457.04,-295"/>
<text text-anchor="middle" x="1341.98" y="-274" font-family="Times,serif" font-size="10.00" fill="#000033">VinaiKopp\PostCodeFilter\Storage\WriteModel\RuleWriter</text>
</g>
<!-- VinaiKopp\\PostCodeFilter\\AdminAddsRule&#45;&gt;VinaiKopp\\PostCodeFilter\\Storage\\WriteModel\\RuleWriter -->
<g id="edge1" class="edge"><title>VinaiKopp\\PostCodeFilter\\AdminAddsRule&#45;&gt;VinaiKopp\\PostCodeFilter\\Storage\\WriteModel\\RuleWriter</title>
<path fill="none" stroke="#999999" d="M1042.89,-317.998C1077.51,-312.378 1116.93,-306.18 1152.9,-301 1170.83,-298.418 1189.74,-295.837 1208.39,-293.377"/>
<polygon fill="#999999" stroke="#999999" points="1209.02,-295.411 1214.7,-292.547 1208.47,-291.247 1209.02,-295.411"/>
</g>
<!-- VinaiKopp\\PostCodeFilter\\Storage\\ReadModel\\RuleReader -->
<g id="node3" class="node"><title>VinaiKopp\\PostCodeFilter\\Storage\\ReadModel\\RuleReader</title>
<path fill="#9999cc" stroke="black" d="M1457.84,-365C1457.84,-365 1226.11,-365 1226.11,-365 1220.11,-365 1214.11,-359 1214.11,-353 1214.11,-353 1214.11,-341 1214.11,-341 1214.11,-335 1220.11,-329 1226.11,-329 1226.11,-329 1457.84,-329 1457.84,-329 1463.84,-329 1469.84,-335 1469.84,-341 1469.84,-341 1469.84,-353 1469.84,-353 1469.84,-359 1463.84,-365 1457.84,-365"/>
<text text-anchor="middle" x="1341.98" y="-344" font-family="Times,serif" font-size="10.00" fill="#000033">VinaiKopp\PostCodeFilter\Storage\ReadModel\RuleReader</text>
</g>
<!-- VinaiKopp\\PostCodeFilter\\AdminAddsRule&#45;&gt;VinaiKopp\\PostCodeFilter\\Storage\\ReadModel\\RuleReader -->
<g id="edge2" class="edge"><title>VinaiKopp\\PostCodeFilter\\AdminAddsRule&#45;&gt;VinaiKopp\\PostCodeFilter\\Storage\\ReadModel\\RuleReader</title>
<path fill="none" stroke="#999999" d="M1043.07,-337.164C1092.6,-338.799 1153.84,-340.821 1207.9,-342.606"/>
<polygon fill="#999999" stroke="#999999" points="1208.05,-344.712 1214.11,-342.811 1208.18,-340.514 1208.05,-344.712"/>
</g>
<!-- VinaiKopp\\PostCodeFilter\\Storage\\WriteModel\\RuleToAdd -->
<g id="node4" class="node"><title>VinaiKopp\\PostCodeFilter\\Storage\\WriteModel\\RuleToAdd</title>
<path fill="#9999cc" stroke="black" d="M1892.02,-295C1892.02,-295 1660.01,-295 1660.01,-295 1654.01,-295 1648.01,-289 1648.01,-283 1648.01,-283 1648.01,-271 1648.01,-271 1648.01,-265 1654.01,-259 1660.01,-259 1660.01,-259 1892.02,-259 1892.02,-259 1898.02,-259 1904.02,-265 1904.02,-271 1904.02,-271 1904.02,-283 1904.02,-283 1904.02,-289 1898.02,-295 1892.02,-295"/>
<text text-anchor="middle" x="1776.01" y="-274" font-family="Times,serif" font-size="10.00" fill="#000033">VinaiKopp\PostCodeFilter\Storage\WriteModel\RuleToAdd</text>
</g>
<!-- VinaiKopp\\PostCodeFilter\\AdminAddsRule&#45;&gt;VinaiKopp\\PostCodeFilter\\Storage\\WriteModel\\RuleToAdd -->
<g id="edge3" class="edge"><title>VinaiKopp\\PostCodeFilter\\AdminAddsRule&#45;&gt;VinaiKopp\\PostCodeFilter\\Storage\\WriteModel\\RuleToAdd</title>
<path fill="none" stroke="#999999" d="M1042.91,-330.002C1183.48,-323.996 1439.14,-312.549 1531.05,-305 1567,-302.047 1605.83,-297.988 1641.72,-293.876"/>
<polygon fill="#999999" stroke="#999999" points="1642.19,-295.935 1647.91,-293.162 1641.71,-291.763 1642.19,-295.935"/>
</g>
<!-- VinaiKopp\\PostCodeFilter\\Rule\\ExistingRule -->
<g id="node5" class="node"><title>VinaiKopp\\PostCodeFilter\\Rule\\ExistingRule</title>
<path fill="#9999cc" stroke="black" d="M1863.8,-537C1863.8,-537 1688.22,-537 1688.22,-537 1682.22,-537 1676.22,-531 1676.22,-525 1676.22,-525 1676.22,-513 1676.22,-513 1676.22,-507 1682.22,-501 1688.22,-501 1688.22,-501 1863.8,-501 1863.8,-501 1869.8,-501 1875.8,-507 1875.8,-513 1875.8,-513 1875.8,-525 1875.8,-525 1875.8,-531 1869.8,-537 1863.8,-537"/>
<text text-anchor="middle" x="1776.01" y="-516" font-family="Times,serif" font-size="10.00" fill="#000033">VinaiKopp\PostCodeFilter\Rule\ExistingRule</text>
</g>
<!-- VinaiKopp\\PostCodeFilter\\AdminAddsRule&#45;&gt;VinaiKopp\\PostCodeFilter\\Rule\\ExistingRule -->
<g id="edge4" class="edge"><title>VinaiKopp\\PostCodeFilter\\AdminAddsRule&#45;&gt;VinaiKopp\\PostCodeFilter\\Rule\\ExistingRule</title>
<path fill="none" stroke="#999999" d="M978.464,-352.217C1035.95,-385.772 1152.76,-453.952 1152.9,-454 1313.6,-505.753 1363.18,-472.035 1531.05,-490 1576.72,-494.888 1627.13,-500.795 1670.22,-505.999"/>
<polygon fill="#999999" stroke="#999999" points="1670.04,-508.092 1676.25,-506.728 1670.55,-503.923 1670.04,-508.092"/>
</g>
<!-- VinaiKopp\\PostCodeFilter\\Exceptions\\RuleForGroupAndCountryAlreadyExistsException -->
<g id="node6" class="node"><title>VinaiKopp\\PostCodeFilter\\Exceptions\\RuleForGroupAndCountryAlreadyExistsException</title>
<path fill="#9999cc" stroke="black" d="M1519.12,-408C1519.12,-408 1164.83,-408 1164.83,-408 1158.83,-408 1152.83,-402 1152.83,-396 1152.83,-396 1152.83,-384 1152.83,-384 1152.83,-378 1158.83,-372 1164.83,-372 1164.83,-372 1519.12,-372 1519.12,-372 1525.12,-372 1531.12,-378 1531.12,-384 1531.12,-384 1531.12,-396 1531.12,-396 1531.12,-402 1525.12,-408 1519.12,-408"/>
<text text-anchor="middle" x="1341.98" y="-387" font-family="Times,serif" font-size="10.00" fill="#000033">VinaiKopp\PostCodeFilter\Exceptions\RuleForGroupAndCountryAlreadyExistsException</text>
</g>
<!-- VinaiKopp\\PostCodeFilter\\AdminAddsRule&#45;&gt;VinaiKopp\\PostCodeFilter\\Exceptions\\RuleForGroupAndCountryAlreadyExistsException -->
<g id="edge5" class="edge"><title>VinaiKopp\\PostCodeFilter\\AdminAddsRule&#45;&gt;VinaiKopp\\PostCodeFilter\\Exceptions\\RuleForGroupAndCountryAlreadyExistsException</title>
<path fill="none" stroke="#999999" d="M1043.1,-350.814C1077.66,-356.62 1116.98,-362.932 1152.9,-368 1160.56,-369.08 1168.39,-370.146 1176.3,-371.194"/>
<polygon fill="#999999" stroke="#999999" points="1176.15,-373.291 1182.37,-371.99 1176.7,-369.127 1176.15,-373.291"/>
</g>
<!-- VinaiKopp\\PostCodeFilter\\Storage\\ReadModel\\RuleSpecByCountryAndGroupIds -->
<g id="node7" class="node"><title>VinaiKopp\\PostCodeFilter\\Storage\\ReadModel\\RuleSpecByCountryAndGroupIds</title>
<path fill="#9999cc" stroke="black" d="M1936.94,-209C1936.94,-209 1615.08,-209 1615.08,-209 1609.08,-209 1603.08,-203 1603.08,-197 1603.08,-197 1603.08,-185 1603.08,-185 1603.08,-179 1609.08,-173 1615.08,-173 1615.08,-173 1936.94,-173 1936.94,-173 1942.94,-173 1948.94,-179 1948.94,-185 1948.94,-185 1948.94,-197 1948.94,-197 1948.94,-203 1942.94,-209 1936.94,-209"/>
<text text-anchor="middle" x="1776.01" y="-188" font-family="Times,serif" font-size="10.00" fill="#000033">VinaiKopp\PostCodeFilter\Storage\ReadModel\RuleSpecByCountryAndGroupIds</text>
</g>
<!-- VinaiKopp\\PostCodeFilter\\AdminAddsRule&#45;&gt;VinaiKopp\\PostCodeFilter\\Storage\\ReadModel\\RuleSpecByCountryAndGroupIds -->
<g id="edge6" class="edge"><title>VinaiKopp\\PostCodeFilter\\AdminAddsRule&#45;&gt;VinaiKopp\\PostCodeFilter\\Storage\\ReadModel\\RuleSpecByCountryAndGroupIds</title>
<path fill="none" stroke="#999999" d="M1043.05,-319.884C1077.6,-315.325 1116.93,-310.743 1152.9,-308 1173.86,-306.402 1512.1,-307.088 1531.05,-298 1575.69,-276.589 1559.54,-236.633 1603.05,-213 1603.68,-212.659 1604.31,-212.322 1604.94,-211.99"/>
<polygon fill="#999999" stroke="#999999" points="1606.29,-213.665 1610.73,-209.115 1604.42,-209.903 1606.29,-213.665"/>
</g>
<!-- VinaiKopp\\PostCodeFilter\\Storage\\WriteModel\\RuleWriter&#45;&gt;VinaiKopp\\PostCodeFilter\\Storage\\WriteModel\\RuleToAdd -->
<g id="edge74" class="edge"><title>VinaiKopp\\PostCodeFilter\\Storage\\WriteModel\\RuleWriter&#45;&gt;VinaiKopp\\PostCodeFilter\\Storage\\WriteModel\\RuleToAdd</title>
<path fill="none" stroke="#999999" d="M1469.1,-277C1523.3,-277 1586.69,-277 1641.67,-277"/>
<polygon fill="#999999" stroke="#999999" points="1641.98,-279.1 1647.98,-277 1641.98,-274.9 1641.98,-279.1"/>
</g>
<!-- VinaiKopp\\PostCodeFilter\\Storage\\WriteModel\\RuleToDelete -->
<g id="node9" class="node"><title>VinaiKopp\\PostCodeFilter\\Storage\\WriteModel\\RuleToDelete</title>
<path fill="#9999cc" stroke="black" d="M1896.89,-252C1896.89,-252 1655.14,-252 1655.14,-252 1649.14,-252 1643.14,-246 1643.14,-240 1643.14,-240 1643.14,-228 1643.14,-228 1643.14,-222 1649.14,-216 1655.14,-216 1655.14,-216 1896.89,-216 1896.89,-216 1902.89,-216 1908.89,-222 1908.89,-228 1908.89,-228 1908.89,-240 1908.89,-240 1908.89,-246 1902.89,-252 1896.89,-252"/>
<text text-anchor="middle" x="1776.01" y="-231" font-family="Times,serif" font-size="10.00" fill="#000033">VinaiKopp\PostCodeFilter\Storage\WriteModel\RuleToDelete</text>
</g>
<!-- VinaiKopp\\PostCodeFilter\\Storage\\WriteModel\\RuleWriter&#45;&gt;VinaiKopp\\PostCodeFilter\\Storage\\WriteModel\\RuleToDelete -->
<g id="edge75" class="edge"><title>VinaiKopp\\PostCodeFilter\\Storage\\WriteModel\\RuleWriter&#45;&gt;VinaiKopp\\PostCodeFilter\\Storage\\WriteModel\\RuleToDelete</title>
<path fill="none" stroke="#999999" d="M1469.1,-264.447C1521.74,-259.208 1583.05,-253.106 1636.9,-247.746"/>
<polygon fill="#999999" stroke="#999999" points="1637.33,-249.814 1643.09,-247.13 1636.92,-245.634 1637.33,-249.814"/>
</g>
<!-- VinaiKopp\\PostCodeFilter\\Storage\\ReadModel\\RuleReader&#45;&gt;VinaiKopp\\PostCodeFilter\\Storage\\ReadModel\\RuleSpecByCountryAndGroupIds -->
<g id="edge50" class="edge"><title>VinaiKopp\\PostCodeFilter\\Storage\\ReadModel\\RuleReader&#45;&gt;VinaiKopp\\PostCodeFilter\\Storage\\ReadModel\\RuleSpecByCountryAndGroupIds</title>
<path fill="none" stroke="#999999" d="M1470.12,-331.138C1491.49,-325.033 1512.66,-316.611 1531.05,-305 1574.95,-277.278 1557.91,-238.664 1603.05,-213 1603.64,-212.665 1604.23,-212.335 1604.82,-212.008"/>
<polygon fill="#999999" stroke="#999999" points="1605.9,-213.817 1610.25,-209.181 1603.95,-210.092 1605.9,-213.817"/>
</g>
<!-- VinaiKopp\\PostCodeFilter\\Rule\\Rule -->
<g id="node13" class="node"><title>VinaiKopp\\PostCodeFilter\\Rule\\Rule</title>
<path fill="#9999cc" stroke="black" d="M1846.97,-381C1846.97,-381 1705.06,-381 1705.06,-381 1699.06,-381 1693.06,-375 1693.06,-369 1693.06,-369 1693.06,-357 1693.06,-357 1693.06,-351 1699.06,-345 1705.06,-345 1705.06,-345 1846.97,-345 1846.97,-345 1852.97,-345 1858.97,-351 1858.97,-357 1858.97,-357 1858.97,-369 1858.97,-369 1858.97,-375 1852.97,-381 1846.97,-381"/>
<text text-anchor="middle" x="1776.01" y="-360" font-family="Times,serif" font-size="10.00" fill="#000033">VinaiKopp\PostCodeFilter\Rule\Rule</text>
</g>
<!-- VinaiKopp\\PostCodeFilter\\Storage\\ReadModel\\RuleReader&#45;&gt;VinaiKopp\\PostCodeFilter\\Rule\\Rule -->
<g id="edge49" class="edge"><title>VinaiKopp\\PostCodeFilter\\Storage\\ReadModel\\RuleReader&#45;&gt;VinaiKopp\\PostCodeFilter\\Rule\\Rule</title>
<path fill="none" stroke="#999999" d="M1469.68,-351.692C1539.37,-354.273 1624.11,-357.412 1686.62,-359.727"/>
<polygon fill="#999999" stroke="#999999" points="1686.91,-361.838 1692.98,-359.962 1687.06,-357.641 1686.91,-361.838"/>
</g>
<!-- VinaiKopp\\PostCodeFilter\\Storage\\ReadModel\\RuleSpecByCountryAndGroupId -->
<g id="node19" class="node"><title>VinaiKopp\\PostCodeFilter\\Storage\\ReadModel\\RuleSpecByCountryAndGroupId</title>
<path fill="#9999cc" stroke="black" d="M1935.05,-433C1935.05,-433 1616.97,-433 1616.97,-433 1610.97,-433 1604.97,-427 1604.97,-421 1604.97,-421 1604.97,-409 1604.97,-409 1604.97,-403 1610.97,-397 1616.97,-397 1616.97,-397 1935.05,-397 1935.05,-397 1941.05,-397 1947.05,-403 1947.05,-409 1947.05,-409 1947.05,-421 1947.05,-421 1947.05,-427 1941.05,-433 1935.05,-433"/>
<text text-anchor="middle" x="1776.01" y="-412" font-family="Times,serif" font-size="10.00" fill="#000033">VinaiKopp\PostCodeFilter\Storage\ReadModel\RuleSpecByCountryAndGroupId</text>
</g>
<!-- VinaiKopp\\PostCodeFilter\\Storage\\ReadModel\\RuleReader&#45;&gt;VinaiKopp\\PostCodeFilter\\Storage\\ReadModel\\RuleSpecByCountryAndGroupId -->
<g id="edge48" class="edge"><title>VinaiKopp\\PostCodeFilter\\Storage\\ReadModel\\RuleReader&#45;&gt;VinaiKopp\\PostCodeFilter\\Storage\\ReadModel\\RuleSpecByCountryAndGroupId</title>
<path fill="none" stroke="#999999" d="M1469.9,-360.287C1490.39,-362.88 1511.33,-365.8 1531.05,-369 1563.31,-374.237 1570.96,-377.767 1603.05,-384 1623.37,-387.949 1645.09,-391.996 1666,-395.808"/>
<polygon fill="#999999" stroke="#999999" points="1665.89,-397.923 1672.17,-396.93 1666.65,-393.79 1665.89,-397.923"/>
</g>
<!-- VinaiKopp\\PostCodeFilter\\Rule\\Components\\Country -->
<g id="node16" class="node"><title>VinaiKopp\\PostCodeFilter\\Rule\\Components\\Country</title>
<path fill="#9999cc" stroke="black" d="M2270.03,-381C2270.03,-381 2060.66,-381 2060.66,-381 2054.66,-381 2048.66,-375 2048.66,-369 2048.66,-369 2048.66,-357 2048.66,-357 2048.66,-351 2054.66,-345 2060.66,-345 2060.66,-345 2270.03,-345 2270.03,-345 2276.03,-345 2282.03,-351 2282.03,-357 2282.03,-357 2282.03,-369 2282.03,-369 2282.03,-375 2276.03,-381 2270.03,-381"/>
<text text-anchor="middle" x="2165.34" y="-360" font-family="Times,serif" font-size="10.00" fill="#000033">VinaiKopp\PostCodeFilter\Rule\Components\Country</text>
</g>
<!-- VinaiKopp\\PostCodeFilter\\Storage\\WriteModel\\RuleToAdd&#45;&gt;VinaiKopp\\PostCodeFilter\\Rule\\Components\\Country -->
<g id="edge71" class="edge"><title>VinaiKopp\\PostCodeFilter\\Storage\\WriteModel\\RuleToAdd&#45;&gt;VinaiKopp\\PostCodeFilter\\Rule\\Components\\Country</title>
<path fill="none" stroke="#999999" d="M1904.18,-287.402C1919.49,-290.366 1934.73,-294.157 1948.98,-299 1984.05,-310.923 1986.05,-328.64 2020.98,-341 2027.84,-343.429 2034.98,-345.589 2042.25,-347.511"/>
<polygon fill="#999999" stroke="#999999" points="2042.05,-349.627 2048.38,-349.071 2043.08,-345.557 2042.05,-349.627"/>
</g>
<!-- VinaiKopp\\PostCodeFilter\\Rule\\Components\\CustomerGroupIdList -->
<g id="node17" class="node"><title>VinaiKopp\\PostCodeFilter\\Rule\\Components\\CustomerGroupIdList</title>
<path fill="#9999cc" stroke="black" d="M2297.57,-338C2297.57,-338 2033.11,-338 2033.11,-338 2027.11,-338 2021.11,-332 2021.11,-326 2021.11,-326 2021.11,-314 2021.11,-314 2021.11,-308 2027.11,-302 2033.11,-302 2033.11,-302 2297.57,-302 2297.57,-302 2303.57,-302 2309.57,-308 2309.57,-314 2309.57,-314 2309.57,-326 2309.57,-326 2309.57,-332 2303.57,-338 2297.57,-338"/>
<text text-anchor="middle" x="2165.34" y="-317" font-family="Times,serif" font-size="10.00" fill="#000033">VinaiKopp\PostCodeFilter\Rule\Components\CustomerGroupIdList</text>
</g>
<!-- VinaiKopp\\PostCodeFilter\\Storage\\WriteModel\\RuleToAdd&#45;&gt;VinaiKopp\\PostCodeFilter\\Rule\\Components\\CustomerGroupIdList -->
<g id="edge69" class="edge"><title>VinaiKopp\\PostCodeFilter\\Storage\\WriteModel\\RuleToAdd&#45;&gt;VinaiKopp\\PostCodeFilter\\Rule\\Components\\CustomerGroupIdList</title>
<path fill="none" stroke="#999999" d="M1904.11,-291.11C1939.45,-295.033 1978.16,-299.33 2014.66,-303.383"/>
<polygon fill="#999999" stroke="#999999" points="2014.78,-305.509 2020.97,-304.084 2015.24,-301.334 2014.78,-305.509"/>
</g>
<!-- VinaiKopp\\PostCodeFilter\\Rule\\Components\\PostCodeList -->
<g id="node26" class="node"><title>VinaiKopp\\PostCodeFilter\\Rule\\Components\\PostCodeList</title>
<path fill="#9999cc" stroke="black" d="M2280.64,-450C2280.64,-450 2050.04,-450 2050.04,-450 2044.04,-450 2038.04,-444 2038.04,-438 2038.04,-438 2038.04,-426 2038.04,-426 2038.04,-420 2044.04,-414 2050.04,-414 2050.04,-414 2280.64,-414 2280.64,-414 2286.64,-414 2292.64,-420 2292.64,-426 2292.64,-426 2292.64,-438 2292.64,-438 2292.64,-444 2286.64,-450 2280.64,-450"/>
<text text-anchor="middle" x="2165.34" y="-429" font-family="Times,serif" font-size="10.00" fill="#000033">VinaiKopp\PostCodeFilter\Rule\Components\PostCodeList</text>
</g>
<!-- VinaiKopp\\PostCodeFilter\\Storage\\WriteModel\\RuleToAdd&#45;&gt;VinaiKopp\\PostCodeFilter\\Rule\\Components\\PostCodeList -->
<g id="edge70" class="edge"><title>VinaiKopp\\PostCodeFilter\\Storage\\WriteModel\\RuleToAdd&#45;&gt;VinaiKopp\\PostCodeFilter\\Rule\\Components\\PostCodeList</title>
<path fill="none" stroke="#999999" d="M1904.38,-282.413C1919.96,-286.185 1935.23,-291.529 1948.98,-299 1992.48,-322.633 1979.99,-356.227 2020.98,-384 2038.48,-395.86 2059.16,-405.009 2079.29,-411.978"/>
<polygon fill="#999999" stroke="#999999" points="2078.87,-414.054 2085.23,-413.979 2080.21,-410.074 2078.87,-414.054"/>
</g>
<!-- VinaiKopp\\PostCodeFilter\\Rule\\ExistingRule&#45;&gt;VinaiKopp\\PostCodeFilter\\Rule\\Components\\Country -->
<g id="edge38" class="edge"><title>VinaiKopp\\PostCodeFilter\\Rule\\ExistingRule&#45;&gt;VinaiKopp\\PostCodeFilter\\Rule\\Components\\Country</title>
<path fill="none" stroke="#999999" d="M1875.99,-517.532C1900.97,-513.915 1926.93,-507.141 1948.98,-495 1992.35,-471.119 1979.91,-437.644 2020.98,-410 2037.99,-398.552 2058,-389.711 2077.58,-382.953"/>
<polygon fill="#999999" stroke="#999999" points="2078.35,-384.912 2083.37,-381.012 2077.01,-380.93 2078.35,-384.912"/>
</g>
<!-- VinaiKopp\\PostCodeFilter\\Rule\\ExistingRule&#45;&gt;VinaiKopp\\PostCodeFilter\\Rule\\Components\\CustomerGroupIdList -->
<g id="edge39" class="edge"><title>VinaiKopp\\PostCodeFilter\\Rule\\ExistingRule&#45;&gt;VinaiKopp\\PostCodeFilter\\Rule\\Components\\CustomerGroupIdList</title>
<path fill="none" stroke="#999999" d="M1875.78,-515.641C1901.59,-510.796 1928.02,-501.88 1948.98,-486 2006.01,-442.789 1963.15,-384.139 2020.98,-342 2021.09,-341.917 2021.21,-341.833 2021.32,-341.751"/>
<polygon fill="#999999" stroke="#999999" points="2022.81,-343.284 2026.61,-338.193 2020.46,-339.798 2022.81,-343.284"/>
</g>
<!-- VinaiKopp\\PostCodeFilter\\Rule\\Components\\CustomerGroupId -->
<g id="node20" class="node"><title>VinaiKopp\\PostCodeFilter\\Rule\\Components\\CustomerGroupId</title>
<path fill="#9999cc" stroke="black" d="M2643.51,-537C2643.51,-537 2394.17,-537 2394.17,-537 2388.17,-537 2382.17,-531 2382.17,-525 2382.17,-525 2382.17,-513 2382.17,-513 2382.17,-507 2388.17,-501 2394.17,-501 2394.17,-501 2643.51,-501 2643.51,-501 2649.51,-501 2655.51,-507 2655.51,-513 2655.51,-513 2655.51,-525 2655.51,-525 2655.51,-531 2649.51,-537 2643.51,-537"/>
<text text-anchor="middle" x="2518.84" y="-516" font-family="Times,serif" font-size="10.00" fill="#000033">VinaiKopp\PostCodeFilter\Rule\Components\CustomerGroupId</text>
</g>
<!-- VinaiKopp\\PostCodeFilter\\Rule\\ExistingRule&#45;&gt;VinaiKopp\\PostCodeFilter\\Rule\\Components\\CustomerGroupId -->
<g id="edge37" class="edge"><title>VinaiKopp\\PostCodeFilter\\Rule\\ExistingRule&#45;&gt;VinaiKopp\\PostCodeFilter\\Rule\\Components\\CustomerGroupId</title>
<path fill="none" stroke="#999999" d="M1875.77,-519C2004.19,-519 2229.35,-519 2376.02,-519"/>
<polygon fill="#999999" stroke="#999999" points="2376.07,-521.1 2382.07,-519 2376.07,-516.9 2376.07,-521.1"/>
</g>
<!-- VinaiKopp\\PostCodeFilter\\Rule\\Components\\PostCode -->
<g id="node25" class="node"><title>VinaiKopp\\PostCodeFilter\\Rule\\Components\\PostCode</title>
<path fill="#9999cc" stroke="black" d="M2626.08,-472C2626.08,-472 2411.59,-472 2411.59,-472 2405.59,-472 2399.59,-466 2399.59,-460 2399.59,-460 2399.59,-448 2399.59,-448 2399.59,-442 2405.59,-436 2411.59,-436 2411.59,-436 2626.08,-436 2626.08,-436 2632.08,-436 2638.08,-442 2638.08,-448 2638.08,-448 2638.08,-460 2638.08,-460 2638.08,-466 2632.08,-472 2626.08,-472"/>
<text text-anchor="middle" x="2518.84" y="-451" font-family="Times,serif" font-size="10.00" fill="#000033">VinaiKopp\PostCodeFilter\Rule\Components\PostCode</text>
</g>
<!-- VinaiKopp\\PostCodeFilter\\Rule\\ExistingRule&#45;&gt;VinaiKopp\\PostCodeFilter\\Rule\\Components\\PostCode -->
<g id="edge41" class="edge"><title>VinaiKopp\\PostCodeFilter\\Rule\\ExistingRule&#45;&gt;VinaiKopp\\PostCodeFilter\\Rule\\Components\\PostCode</title>
<path fill="none" stroke="#999999" d="M1875.77,-510.335C2009.43,-498.608 2247.91,-477.684 2393.58,-464.902"/>
<polygon fill="#999999" stroke="#999999" points="2393.8,-466.992 2399.59,-464.375 2393.43,-462.808 2393.8,-466.992"/>
</g>
<!-- VinaiKopp\\PostCodeFilter\\Rule\\ExistingRule&#45;&gt;VinaiKopp\\PostCodeFilter\\Rule\\Components\\PostCodeList -->
<g id="edge40" class="edge"><title>VinaiKopp\\PostCodeFilter\\Rule\\ExistingRule&#45;&gt;VinaiKopp\\PostCodeFilter\\Rule\\Components\\PostCodeList</title>
<path fill="none" stroke="#999999" d="M1875.66,-507.749C1899.77,-504.309 1925.4,-500.066 1948.98,-495 2002.27,-483.551 2061.64,-465.797 2104.53,-452.051"/>
<polygon fill="#999999" stroke="#999999" points="2105.4,-453.976 2110.47,-450.139 2104.11,-449.978 2105.4,-453.976"/>
</g>
<!-- VinaiKopp\\PostCodeFilter\\Storage\\ReadModel\\RuleSpecByCountryAndGroupIds&#45;&gt;VinaiKopp\\PostCodeFilter\\Rule\\Components\\Country -->
<g id="edge53" class="edge"><title>VinaiKopp\\PostCodeFilter\\Storage\\ReadModel\\RuleSpecByCountryAndGroupIds&#45;&gt;VinaiKopp\\PostCodeFilter\\Rule\\Components\\Country</title>
<path fill="none" stroke="#999999" d="M1942.86,-209.149C1944.94,-210.372 1946.98,-211.655 1948.98,-213 2003.11,-249.467 1967.31,-303.858 2020.98,-341 2027.66,-345.624 2034.94,-349.433 2042.55,-352.557"/>
<polygon fill="#999999" stroke="#999999" points="2042.08,-354.626 2048.44,-354.815 2043.59,-350.704 2042.08,-354.626"/>
</g>
<!-- VinaiKopp\\PostCodeFilter\\Storage\\ReadModel\\RuleSpecByCountryAndGroupIds&#45;&gt;VinaiKopp\\PostCodeFilter\\Rule\\Components\\CustomerGroupIdList -->
<g id="edge54" class="edge"><title>VinaiKopp\\PostCodeFilter\\Storage\\ReadModel\\RuleSpecByCountryAndGroupIds&#45;&gt;VinaiKopp\\PostCodeFilter\\Rule\\Components\\CustomerGroupIdList</title>
<path fill="none" stroke="#999999" d="M1934.89,-209.071C1939.67,-210.296 1944.37,-211.604 1948.98,-213 2016.66,-233.506 2089.07,-273.724 2130.31,-298.588"/>
<polygon fill="#999999" stroke="#999999" points="2129.46,-300.526 2135.68,-301.841 2131.64,-296.934 2129.46,-300.526"/>
</g>
<!-- VinaiKopp\\PostCodeFilter\\AdminDeletesRule -->
<g id="node8" class="node"><title>VinaiKopp\\PostCodeFilter\\AdminDeletesRule</title>
<path fill="#9999cc" stroke="black" d="M1035.31,-295C1035.31,-295 857.203,-295 857.203,-295 851.203,-295 845.203,-289 845.203,-283 845.203,-283 845.203,-271 845.203,-271 845.203,-265 851.203,-259 857.203,-259 857.203,-259 1035.31,-259 1035.31,-259 1041.31,-259 1047.31,-265 1047.31,-271 1047.31,-271 1047.31,-283 1047.31,-283 1047.31,-289 1041.31,-295 1035.31,-295"/>
<text text-anchor="middle" x="946.258" y="-274" font-family="Times,serif" font-size="10.00" fill="#000033">VinaiKopp\PostCodeFilter\AdminDeletesRule</text>
</g>
<!-- VinaiKopp\\PostCodeFilter\\AdminDeletesRule&#45;&gt;VinaiKopp\\PostCodeFilter\\Storage\\WriteModel\\RuleWriter -->
<g id="edge7" class="edge"><title>VinaiKopp\\PostCodeFilter\\AdminDeletesRule&#45;&gt;VinaiKopp\\PostCodeFilter\\Storage\\WriteModel\\RuleWriter</title>
<path fill="none" stroke="#999999" d="M1047.37,-277C1096.4,-277 1156.09,-277 1208.81,-277"/>
<polygon fill="#999999" stroke="#999999" points="1208.87,-279.1 1214.87,-277 1208.87,-274.9 1208.87,-279.1"/>
</g>
<!-- VinaiKopp\\PostCodeFilter\\AdminDeletesRule&#45;&gt;VinaiKopp\\PostCodeFilter\\Storage\\ReadModel\\RuleReader -->
<g id="edge8" class="edge"><title>VinaiKopp\\PostCodeFilter\\AdminDeletesRule&#45;&gt;VinaiKopp\\PostCodeFilter\\Storage\\ReadModel\\RuleReader</title>
<path fill="none" stroke="#999999" d="M1046.87,-295.012C1080.54,-301.076 1118.35,-307.86 1152.9,-314 1178.29,-318.51 1205.6,-323.325 1231.33,-327.844"/>
<polygon fill="#999999" stroke="#999999" points="1231.22,-329.956 1237.49,-328.925 1231.94,-325.819 1231.22,-329.956"/>
</g>
<!-- VinaiKopp\\PostCodeFilter\\AdminDeletesRule&#45;&gt;VinaiKopp\\PostCodeFilter\\Storage\\ReadModel\\RuleSpecByCountryAndGroupIds -->
<g id="edge10" class="edge"><title>VinaiKopp\\PostCodeFilter\\AdminDeletesRule&#45;&gt;VinaiKopp\\PostCodeFilter\\Storage\\ReadModel\\RuleSpecByCountryAndGroupIds</title>
<path fill="none" stroke="#999999" d="M1047.39,-259.964C1080.85,-254.923 1118.39,-249.963 1152.9,-247 1236.66,-239.809 1448.26,-251.561 1531.05,-237 1564.27,-231.157 1570.16,-220.509 1603.05,-213 1607.28,-212.033 1611.59,-211.104 1615.94,-210.214"/>
<polygon fill="#999999" stroke="#999999" points="1616.43,-212.257 1621.91,-209.023 1615.61,-208.139 1616.43,-212.257"/>
</g>
<!-- VinaiKopp\\PostCodeFilter\\AdminDeletesRule&#45;&gt;VinaiKopp\\PostCodeFilter\\Storage\\WriteModel\\RuleToDelete -->
<g id="edge9" class="edge"><title>VinaiKopp\\PostCodeFilter\\AdminDeletesRule&#45;&gt;VinaiKopp\\PostCodeFilter\\Storage\\WriteModel\\RuleToDelete</title>
<path fill="none" stroke="#999999" d="M1047.29,-265.365C1080.82,-261.844 1118.44,-258.304 1152.9,-256 1320.68,-244.785 1363.01,-250.11 1531.05,-244 1565.24,-242.757 1602.13,-241.303 1636.62,-239.895"/>
<polygon fill="#999999" stroke="#999999" points="1637.12,-241.977 1643.03,-239.633 1636.95,-237.78 1637.12,-241.977"/>
</g>
<!-- VinaiKopp\\PostCodeFilter\\Rule\\NonexistentRule -->
<g id="node10" class="node"><title>VinaiKopp\\PostCodeFilter\\Rule\\NonexistentRule</title>
<path fill="#9999cc" stroke="black" d="M1871.29,-338C1871.29,-338 1680.73,-338 1680.73,-338 1674.73,-338 1668.73,-332 1668.73,-326 1668.73,-326 1668.73,-314 1668.73,-314 1668.73,-308 1674.73,-302 1680.73,-302 1680.73,-302 1871.29,-302 1871.29,-302 1877.29,-302 1883.29,-308 1883.29,-314 1883.29,-314 1883.29,-326 1883.29,-326 1883.29,-332 1877.29,-338 1871.29,-338"/>
<text text-anchor="middle" x="1776.01" y="-317" font-family="Times,serif" font-size="10.00" fill="#000033">VinaiKopp\PostCodeFilter\Rule\NonexistentRule</text>
</g>
<!-- VinaiKopp\\PostCodeFilter\\AdminDeletesRule&#45;&gt;VinaiKopp\\PostCodeFilter\\Rule\\NonexistentRule -->
<g id="edge11" class="edge"><title>VinaiKopp\\PostCodeFilter\\AdminDeletesRule&#45;&gt;VinaiKopp\\PostCodeFilter\\Rule\\NonexistentRule</title>
<path fill="none" stroke="#999999" d="M1047.3,-288.562C1080.82,-292.078 1118.44,-295.634 1152.9,-298 1330.77,-310.213 1537.73,-315.821 1662.43,-318.266"/>
<polygon fill="#999999" stroke="#999999" points="1662.64,-320.37 1668.68,-318.387 1662.72,-316.171 1662.64,-320.37"/>
</g>
<!-- VinaiKopp\\PostCodeFilter\\Exceptions\\RuleDoesNotExistException -->
<g id="node11" class="node"><title>VinaiKopp\\PostCodeFilter\\Exceptions\\RuleDoesNotExistException</title>
<path fill="#9999cc" stroke="black" d="M1474.13,-234C1474.13,-234 1209.82,-234 1209.82,-234 1203.82,-234 1197.82,-228 1197.82,-222 1197.82,-222 1197.82,-210 1197.82,-210 1197.82,-204 1203.82,-198 1209.82,-198 1209.82,-198 1474.13,-198 1474.13,-198 1480.13,-198 1486.13,-204 1486.13,-210 1486.13,-210 1486.13,-222 1486.13,-222 1486.13,-228 1480.13,-234 1474.13,-234"/>
<text text-anchor="middle" x="1341.98" y="-213" font-family="Times,serif" font-size="10.00" fill="#000033">VinaiKopp\PostCodeFilter\Exceptions\RuleDoesNotExistException</text>
</g>
<!-- VinaiKopp\\PostCodeFilter\\AdminDeletesRule&#45;&gt;VinaiKopp\\PostCodeFilter\\Exceptions\\RuleDoesNotExistException -->
<g id="edge12" class="edge"><title>VinaiKopp\\PostCodeFilter\\AdminDeletesRule&#45;&gt;VinaiKopp\\PostCodeFilter\\Exceptions\\RuleDoesNotExistException</title>
<path fill="none" stroke="#999999" d="M1041.53,-258.995C1076.45,-252.601 1116.42,-245.606 1152.9,-240 1165.53,-238.06 1178.65,-236.157 1191.82,-234.323"/>
<polygon fill="#999999" stroke="#999999" points="1192.22,-236.388 1197.88,-233.486 1191.65,-232.228 1192.22,-236.388"/>
</g>
<!-- VinaiKopp\\PostCodeFilter\\Storage\\WriteModel\\RuleToDelete&#45;&gt;VinaiKopp\\PostCodeFilter\\Rule\\Components\\Country -->
<g id="edge73" class="edge"><title>VinaiKopp\\PostCodeFilter\\Storage\\WriteModel\\RuleToDelete&#45;&gt;VinaiKopp\\PostCodeFilter\\Rule\\Components\\Country</title>
<path fill="none" stroke="#999999" d="M1908.86,-240.545C1922.89,-244.233 1936.55,-249.247 1948.98,-256 1992.48,-279.633 1977.77,-316.825 2020.98,-341 2027.81,-344.821 2035.09,-348.039 2042.62,-350.743"/>
<polygon fill="#999999" stroke="#999999" points="2042.06,-352.772 2048.42,-352.713 2043.41,-348.795 2042.06,-352.772"/>
</g>
<!-- VinaiKopp\\PostCodeFilter\\Storage\\WriteModel\\RuleToDelete&#45;&gt;VinaiKopp\\PostCodeFilter\\Rule\\Components\\CustomerGroupIdList -->
<g id="edge72" class="edge"><title>VinaiKopp\\PostCodeFilter\\Storage\\WriteModel\\RuleToDelete&#45;&gt;VinaiKopp\\PostCodeFilter\\Rule\\Components\\CustomerGroupIdList</title>
<path fill="none" stroke="#999999" d="M1908.83,-248.646C1922.44,-250.82 1936.02,-253.265 1948.98,-256 2003.11,-267.427 2063.36,-285.836 2106.34,-299.984"/>
<polygon fill="#999999" stroke="#999999" points="2105.93,-302.061 2112.29,-301.951 2107.25,-298.073 2105.93,-302.061"/>
</g>
<!-- VinaiKopp\\PostCodeFilter\\Rule\\NonexistentRule&#45;&gt;VinaiKopp\\PostCodeFilter\\Rule\\Components\\Country -->
<g id="edge42" class="edge"><title>VinaiKopp\\PostCodeFilter\\Rule\\NonexistentRule&#45;&gt;VinaiKopp\\PostCodeFilter\\Rule\\Components\\Country</title>
<path fill="none" stroke="#999999" d="M1883.36,-331.807C1932.65,-337.278 1991.47,-343.808 2042.53,-349.477"/>
<polygon fill="#999999" stroke="#999999" points="2042.52,-351.589 2048.72,-350.164 2042.98,-347.414 2042.52,-351.589"/>
</g>
<!-- VinaiKopp\\PostCodeFilter\\Rule\\NonexistentRule&#45;&gt;VinaiKopp\\PostCodeFilter\\Rule\\Components\\CustomerGroupIdList -->
<g id="edge43" class="edge"><title>VinaiKopp\\PostCodeFilter\\Rule\\NonexistentRule&#45;&gt;VinaiKopp\\PostCodeFilter\\Rule\\Components\\CustomerGroupIdList</title>
<path fill="none" stroke="#999999" d="M1883.36,-320C1923.9,-320 1970.88,-320 2014.7,-320"/>
<polygon fill="#999999" stroke="#999999" points="2014.86,-322.1 2020.86,-320 2014.86,-317.9 2014.86,-322.1"/>
</g>
<!-- VinaiKopp\\PostCodeFilter\\Rule\\NonexistentRule&#45;&gt;VinaiKopp\\PostCodeFilter\\Rule\\Components\\PostCodeList -->
<g id="edge44" class="edge"><title>VinaiKopp\\PostCodeFilter\\Rule\\NonexistentRule&#45;&gt;VinaiKopp\\PostCodeFilter\\Rule\\Components\\PostCodeList</title>
<path fill="none" stroke="#999999" d="M1883.57,-326.881C1905.57,-330.168 1928.32,-334.977 1948.98,-342 1984.05,-353.923 1987.24,-368.705 2020.98,-384 2044.56,-394.689 2071.25,-404.267 2095.16,-412.004"/>
<polygon fill="#999999" stroke="#999999" points="2094.82,-414.1 2101.17,-413.93 2096.1,-410.1 2094.82,-414.1"/>
</g>
<!-- VinaiKopp\\PostCodeFilter\\AdminUpdatesRule -->
<g id="node12" class="node"><title>VinaiKopp\\PostCodeFilter\\AdminUpdatesRule</title>
<path fill="#9999cc" stroke="black" d="M1036.6,-208C1036.6,-208 855.92,-208 855.92,-208 849.92,-208 843.92,-202 843.92,-196 843.92,-196 843.92,-184 843.92,-184 843.92,-178 849.92,-172 855.92,-172 855.92,-172 1036.6,-172 1036.6,-172 1042.6,-172 1048.6,-178 1048.6,-184 1048.6,-184 1048.6,-196 1048.6,-196 1048.6,-202 1042.6,-208 1036.6,-208"/>
<text text-anchor="middle" x="946.258" y="-187" font-family="Times,serif" font-size="10.00" fill="#000033">VinaiKopp\PostCodeFilter\AdminUpdatesRule</text>
</g>
<!-- VinaiKopp\\PostCodeFilter\\AdminUpdatesRule&#45;&gt;VinaiKopp\\PostCodeFilter\\Storage\\WriteModel\\RuleWriter -->
<g id="edge13" class="edge"><title>VinaiKopp\\PostCodeFilter\\AdminUpdatesRule&#45;&gt;VinaiKopp\\PostCodeFilter\\Storage\\WriteModel\\RuleWriter</title>
<path fill="none" stroke="#999999" d="M1024.83,-208.02C1063.32,-216.887 1110.52,-227.651 1152.9,-237 1184.08,-243.877 1218.2,-251.197 1248.72,-257.67"/>
<polygon fill="#999999" stroke="#999999" points="1248.47,-259.764 1254.78,-258.953 1249.34,-255.655 1248.47,-259.764"/>
</g>
<!-- VinaiKopp\\PostCodeFilter\\AdminUpdatesRule&#45;&gt;VinaiKopp\\PostCodeFilter\\Storage\\ReadModel\\RuleReader -->
<g id="edge14" class="edge"><title>VinaiKopp\\PostCodeFilter\\AdminUpdatesRule&#45;&gt;VinaiKopp\\PostCodeFilter\\Storage\\ReadModel\\RuleReader</title>
<path fill="none" stroke="#999999" d="M986.594,-208.045C1013.46,-220.632 1049.69,-238.131 1080.9,-255 1113.69,-272.723 1118.52,-283.601 1152.9,-298 1181.93,-310.159 1214.78,-319.963 1244.8,-327.513"/>
<polygon fill="#999999" stroke="#999999" points="1244.44,-329.587 1250.77,-328.993 1245.45,-325.51 1244.44,-329.587"/>
</g>
<!-- VinaiKopp\\PostCodeFilter\\AdminUpdatesRule&#45;&gt;VinaiKopp\\PostCodeFilter\\Storage\\WriteModel\\RuleToAdd -->
<g id="edge16" class="edge"><title>VinaiKopp\\PostCodeFilter\\AdminUpdatesRule&#45;&gt;VinaiKopp\\PostCodeFilter\\Storage\\WriteModel\\RuleToAdd</title>
<path fill="none" stroke="#999999" d="M1048.67,-183.497C1081.88,-181.656 1118.95,-179.907 1152.9,-179 1194.9,-177.877 1492.45,-162.398 1531.05,-179 1573.79,-197.385 1561.56,-233.935 1603.05,-255 1615.03,-261.086 1628.07,-265.718 1641.43,-269.218"/>
<polygon fill="#999999" stroke="#999999" points="1641.25,-271.339 1647.58,-270.747 1642.27,-267.263 1641.25,-271.339"/>
</g>
<!-- VinaiKopp\\PostCodeFilter\\AdminUpdatesRule&#45;&gt;VinaiKopp\\PostCodeFilter\\Storage\\ReadModel\\RuleSpecByCountryAndGroupIds -->
<g id="edge19" class="edge"><title>VinaiKopp\\PostCodeFilter\\AdminUpdatesRule&#45;&gt;VinaiKopp\\PostCodeFilter\\Storage\\ReadModel\\RuleSpecByCountryAndGroupIds</title>
<path fill="none" stroke="#999999" d="M1025.89,-171.985C1064.01,-164.146 1110.6,-155.876 1152.9,-152 1320.27,-136.667 1363.51,-138.693 1531.05,-152 1579.85,-155.876 1633.62,-164.047 1678.24,-171.913"/>
<polygon fill="#999999" stroke="#999999" points="1677.92,-173.989 1684.19,-172.97 1678.65,-169.853 1677.92,-173.989"/>
</g>
<!-- VinaiKopp\\PostCodeFilter\\AdminUpdatesRule&#45;&gt;VinaiKopp\\PostCodeFilter\\Storage\\WriteModel\\RuleToDelete -->
<g id="edge15" class="edge"><title>VinaiKopp\\PostCodeFilter\\AdminUpdatesRule&#45;&gt;VinaiKopp\\PostCodeFilter\\Storage\\WriteModel\\RuleToDelete</title>
<path fill="none" stroke="#999999" d="M1048.84,-178.151C1081.97,-174.814 1118.96,-171.647 1152.9,-170 1236.84,-165.928 1449.93,-148.069 1531.05,-170 1566.81,-179.668 1567.97,-200.077 1603.05,-212 1613.97,-215.712 1625.47,-218.805 1637.14,-221.383"/>
<polygon fill="#999999" stroke="#999999" points="1636.95,-223.489 1643.25,-222.684 1637.82,-219.381 1636.95,-223.489"/>
</g>
<!-- VinaiKopp\\PostCodeFilter\\AdminUpdatesRule&#45;&gt;VinaiKopp\\PostCodeFilter\\Rule\\NonexistentRule -->
<g id="edge17" class="edge"><title>VinaiKopp\\PostCodeFilter\\AdminUpdatesRule&#45;&gt;VinaiKopp\\PostCodeFilter\\Rule\\NonexistentRule</title>
<path fill="none" stroke="#999999" d="M1048.71,-187.145C1210.33,-182.952 1510.28,-176.771 1531.05,-188 1582.45,-215.788 1553.52,-267 1603.05,-298 1620.89,-309.166 1641.81,-315.874 1662.8,-319.725"/>
<polygon fill="#999999" stroke="#999999" points="1662.46,-321.796 1668.72,-320.737 1663.16,-317.656 1662.46,-321.796"/>
</g>
<!-- VinaiKopp\\PostCodeFilter\\AdminUpdatesRule&#45;&gt;VinaiKopp\\PostCodeFilter\\Exceptions\\RuleDoesNotExistException -->
<g id="edge18" class="edge"><title>VinaiKopp\\PostCodeFilter\\AdminUpdatesRule&#45;&gt;VinaiKopp\\PostCodeFilter\\Exceptions\\RuleDoesNotExistException</title>
<path fill="none" stroke="#999999" d="M1048.65,-196.696C1092.13,-199.567 1143.81,-202.98 1191.54,-206.131"/>
<polygon fill="#999999" stroke="#999999" points="1191.51,-208.234 1197.64,-206.534 1191.79,-204.044 1191.51,-208.234"/>
</g>
<!-- VinaiKopp\\PostCodeFilter\\AdminUpdatesRule&#45;&gt;VinaiKopp\\PostCodeFilter\\Rule\\Rule -->
<g id="edge20" class="edge"><title>VinaiKopp\\PostCodeFilter\\AdminUpdatesRule&#45;&gt;VinaiKopp\\PostCodeFilter\\Rule\\Rule</title>
<path fill="none" stroke="#999999" d="M1048.88,-188.122C1210.75,-185.521 1511.05,-182.445 1531.05,-195 1592.32,-233.468 1544.16,-298.965 1603.05,-341 1627.06,-358.142 1657.9,-365.382 1686.81,-367.789"/>
<polygon fill="#999999" stroke="#999999" points="1686.82,-369.895 1692.95,-368.232 1687.12,-365.706 1686.82,-369.895"/>
</g>
<!-- VinaiKopp\\PostCodeFilter\\Rule\\Rule&#45;&gt;VinaiKopp\\PostCodeFilter\\Rule\\Components\\Country -->
<g id="edge45" class="edge"><title>VinaiKopp\\PostCodeFilter\\Rule\\Rule&#45;&gt;VinaiKopp\\PostCodeFilter\\Rule\\Components\\Country</title>
<path fill="none" stroke="#999999" d="M1859.16,-363C1912.4,-363 1982.7,-363 2042.41,-363"/>
<polygon fill="#999999" stroke="#999999" points="2042.52,-365.1 2048.52,-363 2042.52,-360.9 2042.52,-365.1"/>
</g>
<!-- VinaiKopp\\PostCodeFilter\\Rule\\Rule&#45;&gt;VinaiKopp\\PostCodeFilter\\Rule\\Components\\CustomerGroupIdList -->
<g id="edge46" class="edge"><title>VinaiKopp\\PostCodeFilter\\Rule\\Rule&#45;&gt;VinaiKopp\\PostCodeFilter\\Rule\\Components\\CustomerGroupIdList</title>
<path fill="none" stroke="#999999" d="M1859.16,-353.881C1904.38,-348.86 1961.91,-342.473 2014.8,-336.601"/>
<polygon fill="#999999" stroke="#999999" points="2015.17,-338.674 2020.9,-335.925 2014.7,-334.5 2015.17,-338.674"/>
</g>
<!-- VinaiKopp\\PostCodeFilter\\Rule\\Rule&#45;&gt;VinaiKopp\\PostCodeFilter\\Rule\\Components\\PostCodeList -->
<g id="edge47" class="edge"><title>VinaiKopp\\PostCodeFilter\\Rule\\Rule&#45;&gt;VinaiKopp\\PostCodeFilter\\Rule\\Components\\PostCodeList</title>
<path fill="none" stroke="#999999" d="M1859.25,-377.237C1887.68,-382.187 1919.74,-387.802 1948.98,-393 1984.96,-399.397 2024.31,-406.492 2059.41,-412.859"/>
<polygon fill="#999999" stroke="#999999" points="2059.18,-414.951 2065.46,-413.956 2059.93,-410.818 2059.18,-414.951"/>
</g>
<!-- VinaiKopp\\PostCodeFilter\\AdminViewsRuleList -->
<g id="node14" class="node"><title>VinaiKopp\\PostCodeFilter\\AdminViewsRuleList</title>
<path fill="#9999cc" stroke="black" d="M1040.34,-452C1040.34,-452 852.175,-452 852.175,-452 846.175,-452 840.175,-446 840.175,-440 840.175,-440 840.175,-428 840.175,-428 840.175,-422 846.175,-416 852.175,-416 852.175,-416 1040.34,-416 1040.34,-416 1046.34,-416 1052.34,-422 1052.34,-428 1052.34,-428 1052.34,-440 1052.34,-440 1052.34,-446 1046.34,-452 1040.34,-452"/>
<text text-anchor="middle" x="946.258" y="-431" font-family="Times,serif" font-size="10.00" fill="#000033">VinaiKopp\PostCodeFilter\AdminViewsRuleList</text>
</g>
<!-- VinaiKopp\\PostCodeFilter\\AdminViewsRuleList&#45;&gt;VinaiKopp\\PostCodeFilter\\Storage\\ReadModel\\RuleReader -->
<g id="edge21" class="edge"><title>VinaiKopp\\PostCodeFilter\\AdminViewsRuleList&#45;&gt;VinaiKopp\\PostCodeFilter\\Storage\\ReadModel\\RuleReader</title>
<path fill="none" stroke="#999999" d="M995.587,-415.855C1036.82,-401.071 1097.99,-380.779 1152.9,-369 1170.59,-365.206 1189.37,-362.027 1207.94,-359.373"/>
<polygon fill="#999999" stroke="#999999" points="1208.58,-361.404 1214.23,-358.493 1208,-357.244 1208.58,-361.404"/>
</g>
<!-- VinaiKopp\\PostCodeFilter\\AdminViewsRuleList&#45;&gt;VinaiKopp\\PostCodeFilter\\Rule\\Rule -->
<g id="edge22" class="edge"><title>VinaiKopp\\PostCodeFilter\\AdminViewsRuleList&#45;&gt;VinaiKopp\\PostCodeFilter\\Rule\\Rule</title>
<path fill="none" stroke="#999999" d="M1052.52,-446.218C1084.7,-449.417 1120.21,-452.414 1152.9,-454 1236.84,-458.072 1452.85,-484.757 1531.05,-454 1571.73,-438.001 1563.57,-405.779 1603.05,-387 1628.73,-374.78 1658.85,-368.308 1686.64,-365.006"/>
<polygon fill="#999999" stroke="#999999" points="1687.17,-367.06 1692.9,-364.31 1686.7,-362.886 1687.17,-367.06"/>
</g>
<!-- VinaiKopp\\PostCodeFilter\\AdminViewsSingleRule -->
<g id="node15" class="node"><title>VinaiKopp\\PostCodeFilter\\AdminViewsSingleRule</title>
<path fill="#9999cc" stroke="black" d="M1045.34,-154C1045.34,-154 847.175,-154 847.175,-154 841.175,-154 835.175,-148 835.175,-142 835.175,-142 835.175,-130 835.175,-130 835.175,-124 841.175,-118 847.175,-118 847.175,-118 1045.34,-118 1045.34,-118 1051.34,-118 1057.34,-124 1057.34,-130 1057.34,-130 1057.34,-142 1057.34,-142 1057.34,-148 1051.34,-154 1045.34,-154"/>
<text text-anchor="middle" x="946.258" y="-133" font-family="Times,serif" font-size="10.00" fill="#000033">VinaiKopp\PostCodeFilter\AdminViewsSingleRule</text>
</g>
<!-- VinaiKopp\\PostCodeFilter\\AdminViewsSingleRule&#45;&gt;VinaiKopp\\PostCodeFilter\\Storage\\ReadModel\\RuleReader -->
<g id="edge23" class="edge"><title>VinaiKopp\\PostCodeFilter\\AdminViewsSingleRule&#45;&gt;VinaiKopp\\PostCodeFilter\\Storage\\ReadModel\\RuleReader</title>
<path fill="none" stroke="#999999" d="M1056.91,-154.008C1065.46,-157.83 1073.59,-162.441 1080.9,-168 1133.48,-207.972 1100.72,-257.508 1152.9,-298 1169.16,-310.614 1188.34,-319.999 1208.13,-326.978"/>
<polygon fill="#999999" stroke="#999999" points="1207.65,-329.033 1214.01,-328.975 1209.01,-325.056 1207.65,-329.033"/>
</g>
<!-- VinaiKopp\\PostCodeFilter\\AdminViewsSingleRule&#45;&gt;VinaiKopp\\PostCodeFilter\\Storage\\ReadModel\\RuleSpecByCountryAndGroupIds -->
<g id="edge25" class="edge"><title>VinaiKopp\\PostCodeFilter\\AdminViewsSingleRule&#45;&gt;VinaiKopp\\PostCodeFilter\\Storage\\ReadModel\\RuleSpecByCountryAndGroupIds</title>
<path fill="none" stroke="#999999" d="M1057.59,-134.401C1200.71,-132.77 1442.54,-131.64 1531.05,-141 1588.05,-147.028 1651.44,-160.223 1699.32,-171.544"/>
<polygon fill="#999999" stroke="#999999" points="1699.05,-173.639 1705.38,-172.986 1700.03,-169.554 1699.05,-173.639"/>
</g>
<!-- VinaiKopp\\PostCodeFilter\\AdminViewsSingleRule&#45;&gt;VinaiKopp\\PostCodeFilter\\Rule\\Rule -->
<g id="edge24" class="edge"><title>VinaiKopp\\PostCodeFilter\\AdminViewsSingleRule&#45;&gt;VinaiKopp\\PostCodeFilter\\Rule\\Rule</title>
<path fill="none" stroke="#999999" d="M1057.53,-139.318C1215.98,-144.977 1493.27,-158.54 1531.05,-185 1593.59,-228.812 1541.47,-295.838 1603.05,-341 1626.84,-358.45 1657.62,-365.761 1686.56,-368.141"/>
<polygon fill="#999999" stroke="#999999" points="1686.57,-370.247 1692.7,-368.576 1686.87,-366.057 1686.57,-370.247"/>
</g>
<!-- VinaiKopp\\PostCodeFilter\\AdminViewsSingleRule&#45;&gt;VinaiKopp\\PostCodeFilter\\Rule\\Components\\Country -->
<g id="edge26" class="edge"><title>VinaiKopp\\PostCodeFilter\\AdminViewsSingleRule&#45;&gt;VinaiKopp\\PostCodeFilter\\Rule\\Components\\Country</title>
<path fill="none" stroke="#999999" d="M1057.65,-124.602C1288,-103.173 1809.97,-67.6201 1948.98,-169 2015.93,-217.833 1955.68,-289.973 2020.98,-341 2027.54,-346.127 2034.8,-350.297 2042.47,-353.671"/>
<polygon fill="#999999" stroke="#999999" points="2042.05,-355.772 2048.4,-356.099 2043.64,-351.884 2042.05,-355.772"/>
</g>
<!-- VinaiKopp\\PostCodeFilter\\AdminViewsSingleRule&#45;&gt;VinaiKopp\\PostCodeFilter\\Rule\\Components\\CustomerGroupIdList -->
<g id="edge27" class="edge"><title>VinaiKopp\\PostCodeFilter\\AdminViewsSingleRule&#45;&gt;VinaiKopp\\PostCodeFilter\\Rule\\Components\\CustomerGroupIdList</title>
<path fill="none" stroke="#999999" d="M1018.1,-117.945C1186.46,-78.6412 1620.97,1.43457 1948.98,-125 2039.88,-160.039 2116.21,-253.209 2148.21,-296.846"/>
<polygon fill="#999999" stroke="#999999" points="2146.67,-298.293 2151.89,-301.914 2150.07,-295.825 2146.67,-298.293"/>
</g>
<!-- VinaiKopp\\PostCodeFilter\\Exceptions\\InvalidCountryException -->
<g id="node21" class="node"><title>VinaiKopp\\PostCodeFilter\\Exceptions\\InvalidCountryException</title>
<path fill="#9999cc" stroke="black" d="M2644.1,-381C2644.1,-381 2393.58,-381 2393.58,-381 2387.58,-381 2381.58,-375 2381.58,-369 2381.58,-369 2381.58,-357 2381.58,-357 2381.58,-351 2387.58,-345 2393.58,-345 2393.58,-345 2644.1,-345 2644.1,-345 2650.1,-345 2656.1,-351 2656.1,-357 2656.1,-357 2656.1,-369 2656.1,-369 2656.1,-375 2650.1,-381 2644.1,-381"/>
<text text-anchor="middle" x="2518.84" y="-360" font-family="Times,serif" font-size="10.00" fill="#000033">VinaiKopp\PostCodeFilter\Exceptions\InvalidCountryException</text>
</g>
<!-- VinaiKopp\\PostCodeFilter\\Rule\\Components\\Country&#45;&gt;VinaiKopp\\PostCodeFilter\\Exceptions\\InvalidCountryException -->
<g id="edge32" class="edge"><title>VinaiKopp\\PostCodeFilter\\Rule\\Components\\Country&#45;&gt;VinaiKopp\\PostCodeFilter\\Exceptions\\InvalidCountryException</title>
<path fill="none" stroke="#999999" d="M2282.41,-363C2312.12,-363 2344.42,-363 2375.3,-363"/>
<polygon fill="#999999" stroke="#999999" points="2375.45,-365.1 2381.45,-363 2375.45,-360.9 2375.45,-365.1"/>
</g>
<!-- VinaiKopp\\PostCodeFilter\\Rule\\Components\\CustomerGroupIdList&#45;&gt;VinaiKopp\\PostCodeFilter\\Rule\\Components\\CustomerGroupId -->
<g id="edge34" class="edge"><title>VinaiKopp\\PostCodeFilter\\Rule\\Components\\CustomerGroupIdList&#45;&gt;VinaiKopp\\PostCodeFilter\\Rule\\Components\\CustomerGroupId</title>
<path fill="none" stroke="#999999" d="M2303.69,-338.081C2305.74,-339.318 2307.75,-340.623 2309.71,-342 2364.67,-380.696 2330.02,-432.027 2381.71,-475 2393.68,-484.953 2407.95,-492.67 2422.67,-498.649"/>
<polygon fill="#999999" stroke="#999999" points="2422.2,-500.72 2428.56,-500.939 2423.73,-496.806 2422.2,-500.72"/>
</g>
<!-- VinaiKopp\\PostCodeFilter\\CustomerSpecifiesShippingAddress -->
<g id="node18" class="node"><title>VinaiKopp\\PostCodeFilter\\CustomerSpecifiesShippingAddress</title>
<path fill="#9999cc" stroke="black" d="M1069.05,-495C1069.05,-495 823.467,-495 823.467,-495 817.467,-495 811.467,-489 811.467,-483 811.467,-483 811.467,-471 811.467,-471 811.467,-465 817.467,-459 823.467,-459 823.467,-459 1069.05,-459 1069.05,-459 1075.05,-459 1081.05,-465 1081.05,-471 1081.05,-471 1081.05,-483 1081.05,-483 1081.05,-489 1075.05,-495 1069.05,-495"/>
<text text-anchor="middle" x="946.258" y="-474" font-family="Times,serif" font-size="10.00" fill="#000033">VinaiKopp\PostCodeFilter\CustomerSpecifiesShippingAddress</text>
</g>
<!-- VinaiKopp\\PostCodeFilter\\CustomerSpecifiesShippingAddress&#45;&gt;VinaiKopp\\PostCodeFilter\\Storage\\ReadModel\\RuleReader -->
<g id="edge28" class="edge"><title>VinaiKopp\\PostCodeFilter\\CustomerSpecifiesShippingAddress&#45;&gt;VinaiKopp\\PostCodeFilter\\Storage\\ReadModel\\RuleReader</title>
<path fill="none" stroke="#999999" d="M1073.37,-458.951C1075.94,-457.714 1078.45,-456.398 1080.9,-455 1124.2,-430.297 1109.04,-392.685 1152.9,-369 1169.81,-359.87 1188.8,-353.762 1208.05,-349.773"/>
<polygon fill="#999999" stroke="#999999" points="1208.54,-351.816 1214.02,-348.602 1207.73,-347.694 1208.54,-351.816"/>
</g>
<!-- VinaiKopp\\PostCodeFilter\\CustomerSpecifiesShippingAddress&#45;&gt;VinaiKopp\\PostCodeFilter\\Rule\\Components\\Country -->
<g id="edge31" class="edge"><title>VinaiKopp\\PostCodeFilter\\CustomerSpecifiesShippingAddress&#45;&gt;VinaiKopp\\PostCodeFilter\\Rule\\Components\\Country</title>
<path fill="none" stroke="#999999" d="M1081.24,-479.157C1240.77,-480.924 1490.81,-480.859 1531.05,-464 1572.21,-446.752 1561.94,-411.384 1603.05,-394 1638.46,-379.022 1910.6,-386.423 1948.98,-384 1979.29,-382.086 2011.95,-379.286 2042.43,-376.351"/>
<polygon fill="#999999" stroke="#999999" points="2042.73,-378.432 2048.5,-375.762 2042.32,-374.251 2042.73,-378.432"/>
</g>
<!-- VinaiKopp\\PostCodeFilter\\CustomerSpecifiesShippingAddress&#45;&gt;VinaiKopp\\PostCodeFilter\\Storage\\ReadModel\\RuleSpecByCountryAndGroupId -->
<g id="edge29" class="edge"><title>VinaiKopp\\PostCodeFilter\\CustomerSpecifiesShippingAddress&#45;&gt;VinaiKopp\\PostCodeFilter\\Storage\\ReadModel\\RuleSpecByCountryAndGroupId</title>
<path fill="none" stroke="#999999" d="M1081.11,-478.49C1105.02,-478.703 1129.7,-478.887 1152.9,-479 1236.93,-479.409 1449.93,-500.931 1531.05,-479 1566.81,-469.332 1567.97,-448.923 1603.05,-437 1605.24,-436.254 1607.46,-435.533 1609.7,-434.836"/>
<polygon fill="#999999" stroke="#999999" points="1610.53,-436.78 1615.67,-433.046 1609.32,-432.757 1610.53,-436.78"/>
</g>
<!-- VinaiKopp\\PostCodeFilter\\CustomerSpecifiesShippingAddress&#45;&gt;VinaiKopp\\PostCodeFilter\\Rule\\Components\\CustomerGroupId -->
<g id="edge30" class="edge"><title>VinaiKopp\\PostCodeFilter\\CustomerSpecifiesShippingAddress&#45;&gt;VinaiKopp\\PostCodeFilter\\Rule\\Components\\CustomerGroupId</title>
<path fill="none" stroke="#999999" d="M1006.19,-495.111C1047.05,-507.161 1102.91,-522.623 1152.9,-533 1656.57,-637.532 1801.79,-651.386 2309.71,-570 2356.97,-562.426 2409.31,-549.582 2449.67,-538.678"/>
<polygon fill="#999999" stroke="#999999" points="2450.3,-540.684 2455.54,-537.085 2449.2,-536.631 2450.3,-540.684"/>
</g>
<!-- VinaiKopp\\PostCodeFilter\\Storage\\ReadModel\\RuleSpecByCountryAndGroupId&#45;&gt;VinaiKopp\\PostCodeFilter\\Rule\\Components\\Country -->
<g id="edge52" class="edge"><title>VinaiKopp\\PostCodeFilter\\Storage\\ReadModel\\RuleSpecByCountryAndGroupId&#45;&gt;VinaiKopp\\PostCodeFilter\\Rule\\Components\\Country</title>
<path fill="none" stroke="#999999" d="M1911.12,-396.995C1953.83,-391.262 2000.82,-384.953 2042.6,-379.344"/>
<polygon fill="#999999" stroke="#999999" points="2043.06,-381.401 2048.73,-378.521 2042.5,-377.238 2043.06,-381.401"/>
</g>
<!-- VinaiKopp\\PostCodeFilter\\Storage\\ReadModel\\RuleSpecByCountryAndGroupId&#45;&gt;VinaiKopp\\PostCodeFilter\\Rule\\Components\\CustomerGroupId -->
<g id="edge51" class="edge"><title>VinaiKopp\\PostCodeFilter\\Storage\\ReadModel\\RuleSpecByCountryAndGroupId&#45;&gt;VinaiKopp\\PostCodeFilter\\Rule\\Components\\CustomerGroupId</title>
<path fill="none" stroke="#999999" d="M1924.89,-433.032C1933.05,-434.303 1941.12,-435.627 1948.98,-437 1981.27,-442.641 1988.7,-447.281 2020.98,-453 2140.05,-474.098 2276.26,-491.738 2375.91,-503.458"/>
<polygon fill="#999999" stroke="#999999" points="2375.92,-505.574 2382.12,-504.187 2376.41,-501.402 2375.92,-505.574"/>
</g>
<!-- VinaiKopp\\PostCodeFilter\\Exceptions\\InvalidCustomerGroupIdException -->
<g id="node22" class="node"><title>VinaiKopp\\PostCodeFilter\\Exceptions\\InvalidCustomerGroupIdException</title>
<path fill="#9999cc" stroke="black" d="M3030.35,-537C3030.35,-537 2739.84,-537 2739.84,-537 2733.84,-537 2727.84,-531 2727.84,-525 2727.84,-525 2727.84,-513 2727.84,-513 2727.84,-507 2733.84,-501 2739.84,-501 2739.84,-501 3030.35,-501 3030.35,-501 3036.35,-501 3042.35,-507 3042.35,-513 3042.35,-513 3042.35,-525 3042.35,-525 3042.35,-531 3036.35,-537 3030.35,-537"/>
<text text-anchor="middle" x="2885.1" y="-516" font-family="Times,serif" font-size="10.00" fill="#000033">VinaiKopp\PostCodeFilter\Exceptions\InvalidCustomerGroupIdException</text>
</g>
<!-- VinaiKopp\\PostCodeFilter\\Rule\\Components\\CustomerGroupId&#45;&gt;VinaiKopp\\PostCodeFilter\\Exceptions\\InvalidCustomerGroupIdException -->
<g id="edge33" class="edge"><title>VinaiKopp\\PostCodeFilter\\Rule\\Components\\CustomerGroupId&#45;&gt;VinaiKopp\\PostCodeFilter\\Exceptions\\InvalidCustomerGroupIdException</title>
<path fill="none" stroke="#999999" d="M2655.47,-519C2677.01,-519 2699.48,-519 2721.56,-519"/>
<polygon fill="#999999" stroke="#999999" points="2721.78,-521.1 2727.78,-519 2721.78,-516.9 2721.78,-521.1"/>
</g>
<!-- VinaiKopp\\PostCodeFilter\\Exceptions\\InvalidPostCodeException -->
<g id="node23" class="node"><title>VinaiKopp\\PostCodeFilter\\Exceptions\\InvalidPostCodeException</title>
<path fill="#9999cc" stroke="black" d="M3012.92,-472C3012.92,-472 2757.27,-472 2757.27,-472 2751.27,-472 2745.27,-466 2745.27,-460 2745.27,-460 2745.27,-448 2745.27,-448 2745.27,-442 2751.27,-436 2757.27,-436 2757.27,-436 3012.92,-436 3012.92,-436 3018.92,-436 3024.92,-442 3024.92,-448 3024.92,-448 3024.92,-460 3024.92,-460 3024.92,-466 3018.92,-472 3012.92,-472"/>
<text text-anchor="middle" x="2885.1" y="-451" font-family="Times,serif" font-size="10.00" fill="#000033">VinaiKopp\PostCodeFilter\Exceptions\InvalidPostCodeException</text>
</g>
<!-- VinaiKopp\\PostCodeFilter\\Exceptions\\NonMatchingRecordInResultException -->
<g id="node24" class="node"><title>VinaiKopp\\PostCodeFilter\\Exceptions\\NonMatchingRecordInResultException</title>
<path fill="#9999cc" stroke="black" d="M1929.98,-580C1929.98,-580 1622.04,-580 1622.04,-580 1616.04,-580 1610.04,-574 1610.04,-568 1610.04,-568 1610.04,-556 1610.04,-556 1610.04,-550 1616.04,-544 1622.04,-544 1622.04,-544 1929.98,-544 1929.98,-544 1935.98,-544 1941.98,-550 1941.98,-556 1941.98,-556 1941.98,-568 1941.98,-568 1941.98,-574 1935.98,-580 1929.98,-580"/>
<text text-anchor="middle" x="1776.01" y="-559" font-family="Times,serif" font-size="10.00" fill="#000033">VinaiKopp\PostCodeFilter\Exceptions\NonMatchingRecordInResultException</text>
</g>
<!-- VinaiKopp\\PostCodeFilter\\Rule\\Components\\PostCode&#45;&gt;VinaiKopp\\PostCodeFilter\\Exceptions\\InvalidPostCodeException -->
<g id="edge35" class="edge"><title>VinaiKopp\\PostCodeFilter\\Rule\\Components\\PostCode&#45;&gt;VinaiKopp\\PostCodeFilter\\Exceptions\\InvalidPostCodeException</title>
<path fill="none" stroke="#999999" d="M2638.1,-454C2670.27,-454 2705.49,-454 2738.96,-454"/>
<polygon fill="#999999" stroke="#999999" points="2739.19,-456.1 2745.19,-454 2739.19,-451.9 2739.19,-456.1"/>
</g>
<!-- VinaiKopp\\PostCodeFilter\\Rule\\Components\\PostCodeList&#45;&gt;VinaiKopp\\PostCodeFilter\\Rule\\Components\\PostCode -->
<g id="edge36" class="edge"><title>VinaiKopp\\PostCodeFilter\\Rule\\Components\\PostCodeList&#45;&gt;VinaiKopp\\PostCodeFilter\\Rule\\Components\\PostCode</title>
<path fill="none" stroke="#999999" d="M2292.74,-439.911C2325.54,-441.964 2360.83,-444.173 2393.52,-446.219"/>
<polygon fill="#999999" stroke="#999999" points="2393.47,-448.32 2399.59,-446.599 2393.73,-444.128 2393.47,-448.32"/>
</g>
<!-- VinaiKopp\\PostCodeFilter\\Storage\\RuleRepositoryReader -->
<g id="node27" class="node"><title>VinaiKopp\\PostCodeFilter\\Storage\\RuleRepositoryReader</title>
<path fill="#9999cc" stroke="black" d="M1454.79,-530C1454.79,-530 1229.16,-530 1229.16,-530 1223.16,-530 1217.16,-524 1217.16,-518 1217.16,-518 1217.16,-506 1217.16,-506 1217.16,-500 1223.16,-494 1229.16,-494 1229.16,-494 1454.79,-494 1454.79,-494 1460.79,-494 1466.79,-500 1466.79,-506 1466.79,-506 1466.79,-518 1466.79,-518 1466.79,-524 1460.79,-530 1454.79,-530"/>
<text text-anchor="middle" x="1341.98" y="-509" font-family="Times,serif" font-size="10.00" fill="#000033">VinaiKopp\PostCodeFilter\Storage\RuleRepositoryReader</text>
</g>
<!-- VinaiKopp\\PostCodeFilter\\Storage\\RuleRepositoryReader&#45;&gt;VinaiKopp\\PostCodeFilter\\Rule\\ExistingRule -->
<g id="edge60" class="edge"><title>VinaiKopp\\PostCodeFilter\\Storage\\RuleRepositoryReader&#45;&gt;VinaiKopp\\PostCodeFilter\\Rule\\ExistingRule</title>
<path fill="none" stroke="#999999" d="M1467.07,-514.011C1531.31,-515.051 1608.87,-516.308 1670.09,-517.3"/>
<polygon fill="#999999" stroke="#999999" points="1670.3,-519.404 1676.34,-517.401 1670.37,-515.204 1670.3,-519.404"/>
</g>
<!-- VinaiKopp\\PostCodeFilter\\Storage\\RuleRepositoryReader&#45;&gt;VinaiKopp\\PostCodeFilter\\Storage\\ReadModel\\RuleSpecByCountryAndGroupIds -->
<g id="edge59" class="edge"><title>VinaiKopp\\PostCodeFilter\\Storage\\RuleRepositoryReader&#45;&gt;VinaiKopp\\PostCodeFilter\\Storage\\ReadModel\\RuleSpecByCountryAndGroupIds</title>
<path fill="none" stroke="#999999" d="M1463.07,-493.992C1488.13,-485.378 1512.53,-472.686 1531.05,-454 1609.74,-374.605 1517.82,-285.346 1603.05,-213 1603.15,-212.915 1603.25,-212.83 1603.35,-212.745"/>
<polygon fill="#999999" stroke="#999999" points="1604.58,-214.449 1607.98,-209.082 1601.97,-211.154 1604.58,-214.449"/>
</g>
<!-- VinaiKopp\\PostCodeFilter\\Storage\\RuleRepositoryReader&#45;&gt;VinaiKopp\\PostCodeFilter\\Rule\\NonexistentRule -->
<g id="edge57" class="edge"><title>VinaiKopp\\PostCodeFilter\\Storage\\RuleRepositoryReader&#45;&gt;VinaiKopp\\PostCodeFilter\\Rule\\NonexistentRule</title>
<path fill="none" stroke="#999999" d="M1446.76,-493.919C1476.04,-485.282 1506.55,-472.593 1531.05,-454 1578.18,-418.22 1553.02,-373.601 1603.05,-342 1620.84,-330.761 1641.74,-324.02 1662.73,-320.159"/>
<polygon fill="#999999" stroke="#999999" points="1663.09,-322.228 1668.65,-319.145 1662.38,-318.088 1663.09,-322.228"/>
</g>
<!-- VinaiKopp\\PostCodeFilter\\Storage\\RuleRepositoryReader&#45;&gt;VinaiKopp\\PostCodeFilter\\Rule\\Rule -->
<g id="edge58" class="edge"><title>VinaiKopp\\PostCodeFilter\\Storage\\RuleRepositoryReader&#45;&gt;VinaiKopp\\PostCodeFilter\\Rule\\Rule</title>
<path fill="none" stroke="#999999" d="M1445.13,-493.999C1474.05,-486.369 1504.78,-475.72 1531.05,-461 1569.44,-439.481 1563.7,-412.729 1603.05,-393 1628.61,-380.182 1658.69,-372.737 1686.49,-368.446"/>
<polygon fill="#999999" stroke="#999999" points="1687.13,-370.476 1692.76,-367.526 1686.51,-366.321 1687.13,-370.476"/>
</g>
<!-- VinaiKopp\\PostCodeFilter\\Storage\\RuleRepositoryReader&#45;&gt;VinaiKopp\\PostCodeFilter\\Rule\\Components\\Country -->
<g id="edge62" class="edge"><title>VinaiKopp\\PostCodeFilter\\Storage\\RuleRepositoryReader&#45;&gt;VinaiKopp\\PostCodeFilter\\Rule\\Components\\Country</title>
<path fill="none" stroke="#999999" d="M1466.97,-504.841C1510.04,-502.483 1558.66,-499.964 1603.05,-498 1641.47,-496.3 1913.92,-501.807 1948.98,-486 1991.4,-466.877 1981.67,-434.897 2020.98,-410 2038.8,-398.711 2059.6,-389.873 2079.74,-383.061"/>
<polygon fill="#999999" stroke="#999999" points="2080.64,-384.975 2085.68,-381.102 2079.33,-380.986 2080.64,-384.975"/>
</g>
<!-- VinaiKopp\\PostCodeFilter\\Storage\\RuleRepositoryReader&#45;&gt;VinaiKopp\\PostCodeFilter\\Rule\\Components\\CustomerGroupIdList -->
<g id="edge61" class="edge"><title>VinaiKopp\\PostCodeFilter\\Storage\\RuleRepositoryReader&#45;&gt;VinaiKopp\\PostCodeFilter\\Rule\\Components\\CustomerGroupIdList</title>
<path fill="none" stroke="#999999" d="M1466.89,-499.532C1509.95,-495.6 1558.59,-491.606 1603.05,-489 1622.24,-487.875 1932.67,-489.179 1948.98,-479 2007.33,-442.584 1964.98,-381.944 2020.98,-342 2021.22,-341.826 2021.47,-341.654 2021.71,-341.482"/>
<polygon fill="#999999" stroke="#999999" points="2023.1,-343.086 2026.97,-338.047 2020.8,-339.569 2023.1,-343.086"/>
</g>
<!-- VinaiKopp\\PostCodeFilter\\Storage\\RuleRepositoryReader&#45;&gt;VinaiKopp\\PostCodeFilter\\Storage\\ReadModel\\RuleSpecByCountryAndGroupId -->
<g id="edge56" class="edge"><title>VinaiKopp\\PostCodeFilter\\Storage\\RuleRepositoryReader&#45;&gt;VinaiKopp\\PostCodeFilter\\Storage\\ReadModel\\RuleSpecByCountryAndGroupId</title>
<path fill="none" stroke="#999999" d="M1467.04,-504.915C1488.84,-501.223 1510.96,-495.829 1531.05,-488 1567.58,-473.761 1566.51,-451.245 1603.05,-437 1604.69,-436.359 1606.35,-435.737 1608.02,-435.131"/>
<polygon fill="#999999" stroke="#999999" points="1608.77,-437.092 1613.75,-433.138 1607.39,-433.125 1608.77,-437.092"/>
</g>
<!-- VinaiKopp\\PostCodeFilter\\Storage\\RuleRepositoryReader&#45;&gt;VinaiKopp\\PostCodeFilter\\Rule\\Components\\CustomerGroupId -->
<g id="edge64" class="edge"><title>VinaiKopp\\PostCodeFilter\\Storage\\RuleRepositoryReader&#45;&gt;VinaiKopp\\PostCodeFilter\\Rule\\Components\\CustomerGroupId</title>
<path fill="none" stroke="#999999" d="M1389.05,-530.047C1440.34,-549.09 1526.15,-577.856 1603.05,-589 1755.2,-611.052 1795.52,-598.406 1948.98,-589 2105.1,-579.431 2283.96,-555.222 2398.79,-537.959"/>
<polygon fill="#999999" stroke="#999999" points="2399.27,-540.01 2404.89,-537.039 2398.64,-535.857 2399.27,-540.01"/>
</g>
<!-- VinaiKopp\\PostCodeFilter\\Storage\\RuleRepositoryReader&#45;&gt;VinaiKopp\\PostCodeFilter\\Exceptions\\NonMatchingRecordInResultException -->
<g id="edge65" class="edge"><title>VinaiKopp\\PostCodeFilter\\Storage\\RuleRepositoryReader&#45;&gt;VinaiKopp\\PostCodeFilter\\Exceptions\\NonMatchingRecordInResultException</title>
<path fill="none" stroke="#999999" d="M1467.07,-526.361C1512.62,-531.633 1564.86,-537.679 1613.23,-543.277"/>
<polygon fill="#999999" stroke="#999999" points="1613.22,-545.389 1619.42,-543.993 1613.7,-541.217 1613.22,-545.389"/>
</g>
<!-- VinaiKopp\\PostCodeFilter\\Storage\\RuleRepositoryReader&#45;&gt;VinaiKopp\\PostCodeFilter\\Rule\\Components\\PostCodeList -->
<g id="edge63" class="edge"><title>VinaiKopp\\PostCodeFilter\\Storage\\RuleRepositoryReader&#45;&gt;VinaiKopp\\PostCodeFilter\\Rule\\Components\\PostCodeList</title>
<path fill="none" stroke="#999999" d="M1393.47,-530.103C1445.27,-547.646 1528.59,-573.02 1603.05,-583 1641.14,-588.107 1912.32,-594.57 1948.98,-583 2029.41,-557.612 2105.89,-490.252 2142.25,-454.703"/>
<polygon fill="#999999" stroke="#999999" points="2144.11,-455.823 2146.9,-450.114 2141.16,-452.833 2144.11,-455.823"/>
</g>
<!-- VinaiKopp\\PostCodeFilter\\Storage\\RuleStorage -->
<g id="node28" class="node"><title>VinaiKopp\\PostCodeFilter\\Storage\\RuleStorage</title>
<path fill="#9999cc" stroke="black" d="M1868.18,-476C1868.18,-476 1683.85,-476 1683.85,-476 1677.85,-476 1671.85,-470 1671.85,-464 1671.85,-464 1671.85,-452 1671.85,-452 1671.85,-446 1677.85,-440 1683.85,-440 1683.85,-440 1868.18,-440 1868.18,-440 1874.18,-440 1880.18,-446 1880.18,-452 1880.18,-452 1880.18,-464 1880.18,-464 1880.18,-470 1874.18,-476 1868.18,-476"/>
<text text-anchor="middle" x="1776.01" y="-455" font-family="Times,serif" font-size="10.00" fill="#000033">VinaiKopp\PostCodeFilter\Storage\RuleStorage</text>
</g>
<!-- VinaiKopp\\PostCodeFilter\\Storage\\RuleRepositoryReader&#45;&gt;VinaiKopp\\PostCodeFilter\\Storage\\RuleStorage -->
<g id="edge55" class="edge"><title>VinaiKopp\\PostCodeFilter\\Storage\\RuleRepositoryReader&#45;&gt;VinaiKopp\\PostCodeFilter\\Storage\\RuleStorage</title>
<path fill="none" stroke="#999999" d="M1467.07,-496.49C1529.74,-488.657 1605.1,-479.238 1665.58,-471.678"/>
<polygon fill="#999999" stroke="#999999" points="1666.07,-473.734 1671.76,-470.906 1665.54,-469.566 1666.07,-473.734"/>
</g>
<!-- VinaiKopp\\PostCodeFilter\\Storage\\RuleRepositoryWriter -->
<g id="node29" class="node"><title>VinaiKopp\\PostCodeFilter\\Storage\\RuleRepositoryWriter</title>
<path fill="#9999cc" stroke="black" d="M1453.68,-451C1453.68,-451 1230.27,-451 1230.27,-451 1224.27,-451 1218.27,-445 1218.27,-439 1218.27,-439 1218.27,-427 1218.27,-427 1218.27,-421 1224.27,-415 1230.27,-415 1230.27,-415 1453.68,-415 1453.68,-415 1459.68,-415 1465.68,-421 1465.68,-427 1465.68,-427 1465.68,-439 1465.68,-439 1465.68,-445 1459.68,-451 1453.68,-451"/>
<text text-anchor="middle" x="1341.98" y="-430" font-family="Times,serif" font-size="10.00" fill="#000033">VinaiKopp\PostCodeFilter\Storage\RuleRepositoryWriter</text>
</g>
<!-- VinaiKopp\\PostCodeFilter\\Storage\\RuleRepositoryWriter&#45;&gt;VinaiKopp\\PostCodeFilter\\Storage\\WriteModel\\RuleToAdd -->
<g id="edge67" class="edge"><title>VinaiKopp\\PostCodeFilter\\Storage\\RuleRepositoryWriter&#45;&gt;VinaiKopp\\PostCodeFilter\\Storage\\WriteModel\\RuleToAdd</title>
<path fill="none" stroke="#999999" d="M1465.64,-434.33C1488.62,-430.349 1511.53,-423.184 1531.05,-411 1581.25,-379.669 1553.02,-330.601 1603.05,-299 1614.96,-291.476 1628.27,-285.968 1642.06,-281.99"/>
<polygon fill="#999999" stroke="#999999" points="1642.76,-283.976 1648,-280.377 1641.65,-279.923 1642.76,-283.976"/>
</g>
<!-- VinaiKopp\\PostCodeFilter\\Storage\\RuleRepositoryWriter&#45;&gt;VinaiKopp\\PostCodeFilter\\Storage\\WriteModel\\RuleToDelete -->
<g id="edge68" class="edge"><title>VinaiKopp\\PostCodeFilter\\Storage\\RuleRepositoryWriter&#45;&gt;VinaiKopp\\PostCodeFilter\\Storage\\WriteModel\\RuleToDelete</title>
<path fill="none" stroke="#999999" d="M1466.04,-436.569C1489.25,-432.463 1512.13,-424.679 1531.05,-411 1592.59,-366.484 1541.74,-300.848 1603.05,-256 1613.47,-248.372 1625.24,-242.683 1637.6,-238.498"/>
<polygon fill="#999999" stroke="#999999" points="1638.24,-240.499 1643.32,-236.679 1636.97,-236.496 1638.24,-240.499"/>
</g>
<!-- VinaiKopp\\PostCodeFilter\\Storage\\RuleRepositoryWriter&#45;&gt;VinaiKopp\\PostCodeFilter\\Storage\\RuleStorage -->
<g id="edge66" class="edge"><title>VinaiKopp\\PostCodeFilter\\Storage\\RuleRepositoryWriter&#45;&gt;VinaiKopp\\PostCodeFilter\\Storage\\RuleStorage</title>
<path fill="none" stroke="#999999" d="M1465.62,-440.097C1528.57,-443.74 1604.62,-448.14 1665.57,-451.667"/>
<polygon fill="#999999" stroke="#999999" points="1665.68,-453.777 1671.79,-452.027 1665.93,-449.584 1665.68,-453.777"/>
</g>
<!-- VinaiKopp_PostCodeFilter_Block_Adminhtml_Postcodefilter_Edit_Form -->
<g id="node30" class="node"><title>VinaiKopp_PostCodeFilter_Block_Adminhtml_Postcodefilter_Edit_Form</title>
<path fill="#9999cc" stroke="black" d="M367.518,-651C367.518,-651 78.1625,-651 78.1625,-651 72.1625,-651 66.1625,-645 66.1625,-639 66.1625,-639 66.1625,-627 66.1625,-627 66.1625,-621 72.1625,-615 78.1625,-615 78.1625,-615 367.518,-615 367.518,-615 373.518,-615 379.518,-621 379.518,-627 379.518,-627 379.518,-639 379.518,-639 379.518,-645 373.518,-651 367.518,-651"/>
<text text-anchor="middle" x="222.84" y="-630" font-family="Times,serif" font-size="10.00" fill="#000033">VinaiKopp_PostCodeFilter_Block_Adminhtml_Postcodefilter_Edit_Form</text>
</g>
<!-- VinaiKopp_PostCodeFilter_Block_Adminhtml_Postcodefilter_Edit -->
<g id="node31" class="node"><title>VinaiKopp_PostCodeFilter_Block_Adminhtml_Postcodefilter_Edit</title>
<path fill="#9999cc" stroke="black" d="M353.849,-733C353.849,-733 91.8321,-733 91.8321,-733 85.8321,-733 79.8321,-727 79.8321,-721 79.8321,-721 79.8321,-709 79.8321,-709 79.8321,-703 85.8321,-697 91.8321,-697 91.8321,-697 353.849,-697 353.849,-697 359.849,-697 365.849,-703 365.849,-709 365.849,-709 365.849,-721 365.849,-721 365.849,-727 359.849,-733 353.849,-733"/>
<text text-anchor="middle" x="222.84" y="-712" font-family="Times,serif" font-size="10.00" fill="#000033">VinaiKopp_PostCodeFilter_Block_Adminhtml_Postcodefilter_Edit</text>
</g>
<!-- VinaiKopp_PostCodeFilter_Block_Adminhtml_Postcodefilter_Grid -->
<g id="node32" class="node"><title>VinaiKopp_PostCodeFilter_Block_Adminhtml_Postcodefilter_Grid</title>
<path fill="#9999cc" stroke="black" d="M355.013,-815C355.013,-815 90.6674,-815 90.6674,-815 84.6674,-815 78.6674,-809 78.6674,-803 78.6674,-803 78.6674,-791 78.6674,-791 78.6674,-785 84.6674,-779 90.6674,-779 90.6674,-779 355.013,-779 355.013,-779 361.013,-779 367.013,-785 367.013,-791 367.013,-791 367.013,-803 367.013,-803 367.013,-809 361.013,-815 355.013,-815"/>
<text text-anchor="middle" x="222.84" y="-794" font-family="Times,serif" font-size="10.00" fill="#000033">VinaiKopp_PostCodeFilter_Block_Adminhtml_Postcodefilter_Grid</text>
</g>
<!-- VinaiKopp_PostCodeFilter_Block_Adminhtml_Postcodefilter_New_Form -->
<g id="node33" class="node"><title>VinaiKopp_PostCodeFilter_Block_Adminhtml_Postcodefilter_New_Form</title>
<path fill="#9999cc" stroke="black" d="M368.735,-897C368.735,-897 76.9456,-897 76.9456,-897 70.9456,-897 64.9456,-891 64.9456,-885 64.9456,-885 64.9456,-873 64.9456,-873 64.9456,-867 70.9456,-861 76.9456,-861 76.9456,-861 368.735,-861 368.735,-861 374.735,-861 380.735,-867 380.735,-873 380.735,-873 380.735,-885 380.735,-885 380.735,-891 374.735,-897 368.735,-897"/>
<text text-anchor="middle" x="222.84" y="-876" font-family="Times,serif" font-size="10.00" fill="#000033">VinaiKopp_PostCodeFilter_Block_Adminhtml_Postcodefilter_New_Form</text>
</g>
<!-- VinaiKopp_PostCodeFilter_Block_Adminhtml_Postcodefilter_New -->
<g id="node34" class="node"><title>VinaiKopp_PostCodeFilter_Block_Adminhtml_Postcodefilter_New</title>
<path fill="#9999cc" stroke="black" d="M355.065,-979C355.065,-979 90.6156,-979 90.6156,-979 84.6156,-979 78.6156,-973 78.6156,-967 78.6156,-967 78.6156,-955 78.6156,-955 78.6156,-949 84.6156,-943 90.6156,-943 90.6156,-943 355.065,-943 355.065,-943 361.065,-943 367.065,-949 367.065,-955 367.065,-955 367.065,-967 367.065,-967 367.065,-973 361.065,-979 355.065,-979"/>
<text text-anchor="middle" x="222.84" y="-958" font-family="Times,serif" font-size="10.00" fill="#000033">VinaiKopp_PostCodeFilter_Block_Adminhtml_Postcodefilter_New</text>
</g>
<!-- VinaiKopp_PostCodeFilter_Block_Adminhtml_Postcodefilter -->
<g id="node35" class="node"><title>VinaiKopp_PostCodeFilter_Block_Adminhtml_Postcodefilter</title>
<path fill="#9999cc" stroke="black" d="M343.183,-1061C343.183,-1061 102.498,-1061 102.498,-1061 96.4975,-1061 90.4975,-1055 90.4975,-1049 90.4975,-1049 90.4975,-1037 90.4975,-1037 90.4975,-1031 96.4975,-1025 102.498,-1025 102.498,-1025 343.183,-1025 343.183,-1025 349.183,-1025 355.183,-1031 355.183,-1037 355.183,-1037 355.183,-1049 355.183,-1049 355.183,-1055 349.183,-1061 343.183,-1061"/>
<text text-anchor="middle" x="222.84" y="-1040" font-family="Times,serif" font-size="10.00" fill="#000033">VinaiKopp_PostCodeFilter_Block_Adminhtml_Postcodefilter</text>
</g>
<!-- VinaiKopp_PostCodeFilter_Helper_Data -->
<g id="node36" class="node"><title>VinaiKopp_PostCodeFilter_Helper_Data</title>
<path fill="#9999cc" stroke="black" d="M702.578,-509C702.578,-509 545.715,-509 545.715,-509 539.715,-509 533.715,-503 533.715,-497 533.715,-497 533.715,-485 533.715,-485 533.715,-479 539.715,-473 545.715,-473 545.715,-473 702.578,-473 702.578,-473 708.578,-473 714.578,-479 714.578,-485 714.578,-485 714.578,-497 714.578,-497 714.578,-503 708.578,-509 702.578,-509"/>
<text text-anchor="middle" x="624.146" y="-488" font-family="Times,serif" font-size="10.00" fill="#000033">VinaiKopp_PostCodeFilter_Helper_Data</text>
</g>
<!-- VinaiKopp_PostCodeFilter_Helper_Data&#45;&gt;VinaiKopp\\PostCodeFilter\\AdminViewsRuleList -->
<g id="edge80" class="edge"><title>VinaiKopp_PostCodeFilter_Helper_Data&#45;&gt;VinaiKopp\\PostCodeFilter\\AdminViewsRuleList</title>
<path fill="none" stroke="#999999" d="M713.523,-472.95C742.215,-467.282 774.225,-461.162 803.612,-456 813.447,-454.273 823.679,-452.546 833.942,-450.863"/>
<polygon fill="#999999" stroke="#999999" points="834.401,-452.916 839.985,-449.877 833.725,-448.771 834.401,-452.916"/>
</g>
<!-- VinaiKopp_PostCodeFilter_Helper_Data&#45;&gt;VinaiKopp\\PostCodeFilter\\CustomerSpecifiesShippingAddress -->
<g id="edge79" class="edge"><title>VinaiKopp_PostCodeFilter_Helper_Data&#45;&gt;VinaiKopp\\PostCodeFilter\\CustomerSpecifiesShippingAddress</title>
<path fill="none" stroke="#999999" d="M714.741,-487.082C742.832,-485.853 774.541,-484.466 805.249,-483.123"/>
<polygon fill="#999999" stroke="#999999" points="805.474,-485.216 811.376,-482.855 805.29,-481.02 805.474,-485.216"/>
</g>
<!-- VinaiKopp_PostCodeFilter_Helper_Data&#45;&gt;VinaiKopp\\PostCodeFilter\\Storage\\RuleRepositoryReader -->
<g id="edge78" class="edge"><title>VinaiKopp_PostCodeFilter_Helper_Data&#45;&gt;VinaiKopp\\PostCodeFilter\\Storage\\RuleRepositoryReader</title>
<path fill="none" stroke="#999999" d="M714.859,-503C743.195,-506.267 774.664,-509.356 803.612,-511 942.562,-518.891 1102.05,-517.925 1210.95,-515.745"/>
<polygon fill="#999999" stroke="#999999" points="1211.12,-517.842 1217.07,-515.62 1211.03,-513.643 1211.12,-517.842"/>
</g>
<!-- VinaiKopp_PostCodeFilter_Helper_Data&#45;&gt;VinaiKopp\\PostCodeFilter\\Storage\\RuleStorage -->
<g id="edge76" class="edge"><title>VinaiKopp_PostCodeFilter_Helper_Data&#45;&gt;VinaiKopp\\PostCodeFilter\\Storage\\RuleStorage</title>
<path fill="none" stroke="#999999" d="M704.044,-509.032C863.032,-542.246 1232.25,-603.537 1531.05,-533 1565.87,-524.78 1569.36,-509.044 1603.05,-497 1624.48,-489.337 1647.97,-482.836 1670.52,-477.468"/>
<polygon fill="#999999" stroke="#999999" points="1671.17,-479.471 1676.53,-476.056 1670.21,-475.382 1671.17,-479.471"/>
</g>
<!-- VinaiKopp_PostCodeFilter_Helper_Data&#45;&gt;VinaiKopp\\PostCodeFilter\\Storage\\RuleRepositoryWriter -->
<g id="edge77" class="edge"><title>VinaiKopp_PostCodeFilter_Helper_Data&#45;&gt;VinaiKopp\\PostCodeFilter\\Storage\\RuleRepositoryWriter</title>
<path fill="none" stroke="#999999" d="M715.001,-495.212C743.345,-496.356 774.781,-497.435 803.612,-498 926.829,-500.416 958.586,-513.054 1080.9,-498 1150.18,-489.474 1227.54,-468.631 1279.74,-452.827"/>
<polygon fill="#999999" stroke="#999999" points="1280.53,-454.781 1285.66,-451.023 1279.31,-450.763 1280.53,-454.781"/>
</g>
<!-- VinaiKopp_PostCodeFilter_Model_Observer -->
<g id="node37" class="node"><title>VinaiKopp_PostCodeFilter_Model_Observer</title>
<path fill="#9999cc" stroke="black" d="M309.447,-232C309.447,-232 136.233,-232 136.233,-232 130.233,-232 124.233,-226 124.233,-220 124.233,-220 124.233,-208 124.233,-208 124.233,-202 130.233,-196 136.233,-196 136.233,-196 309.447,-196 309.447,-196 315.447,-196 321.447,-202 321.447,-208 321.447,-208 321.447,-220 321.447,-220 321.447,-226 315.447,-232 309.447,-232"/>
<text text-anchor="middle" x="222.84" y="-211" font-family="Times,serif" font-size="10.00" fill="#000033">VinaiKopp_PostCodeFilter_Model_Observer</text>
</g>
<!-- VinaiKopp_PostCodeFilter_Model_Observer&#45;&gt;VinaiKopp\\PostCodeFilter\\CustomerSpecifiesShippingAddress -->
<g id="edge81" class="edge"><title>VinaiKopp_PostCodeFilter_Model_Observer&#45;&gt;VinaiKopp\\PostCodeFilter\\CustomerSpecifiesShippingAddress</title>
<path fill="none" stroke="#999999" d="M280.233,-232.148C325.603,-247.128 390.782,-269.508 446.681,-292 608.47,-357.098 636.561,-404.925 803.612,-455 806.372,-455.827 809.172,-456.625 812.003,-457.394"/>
<polygon fill="#999999" stroke="#999999" points="811.518,-459.437 817.854,-458.931 812.585,-455.375 811.518,-459.437"/>
</g>
<!-- VinaiKopp_PostCodeFilter_Model_Observer&#45;&gt;VinaiKopp_PostCodeFilter_Helper_Data -->
<g id="edge85" class="edge"><title>VinaiKopp_PostCodeFilter_Model_Observer&#45;&gt;VinaiKopp_PostCodeFilter_Helper_Data</title>
<path fill="none" stroke="#999999" d="M306.02,-232.017C350.225,-244.262 404.221,-263.508 446.681,-292 519.486,-340.855 581.371,-426.715 608.482,-467.809"/>
<polygon fill="#999999" stroke="#999999" points="606.725,-468.959 611.768,-472.829 610.239,-466.659 606.725,-468.959"/>
</g>
<!-- Mage_Sales_Model_Quote -->
<g id="node38" class="node"><title>Mage_Sales_Model_Quote</title>
<path fill="#9999cc" stroke="black" d="M675.071,-150C675.071,-150 573.222,-150 573.222,-150 567.222,-150 561.222,-144 561.222,-138 561.222,-138 561.222,-126 561.222,-126 561.222,-120 567.222,-114 573.222,-114 573.222,-114 675.071,-114 675.071,-114 681.071,-114 687.071,-120 687.071,-126 687.071,-126 687.071,-138 687.071,-138 687.071,-144 681.071,-150 675.071,-150"/>
<text text-anchor="middle" x="624.146" y="-129" font-family="Times,serif" font-size="10.00" fill="#000033">Mage_Sales_Model_Quote</text>
</g>
<!-- VinaiKopp_PostCodeFilter_Model_Observer&#45;&gt;Mage_Sales_Model_Quote -->
<g id="edge82" class="edge"><title>VinaiKopp_PostCodeFilter_Model_Observer&#45;&gt;Mage_Sales_Model_Quote</title>
<path fill="none" stroke="#999999" d="M311.964,-195.903C385.312,-180.841 488.229,-159.706 555.29,-145.935"/>
<polygon fill="#999999" stroke="#999999" points="555.807,-147.972 561.262,-144.708 554.962,-143.858 555.807,-147.972"/>
</g>
<!-- Mage_Core_Controller_Response_Http -->
<g id="node39" class="node"><title>Mage_Core_Controller_Response_Http</title>
<path fill="#9999cc" stroke="black" d="M700.066,-68C700.066,-68 548.227,-68 548.227,-68 542.227,-68 536.227,-62 536.227,-56 536.227,-56 536.227,-44 536.227,-44 536.227,-38 542.227,-32 548.227,-32 548.227,-32 700.066,-32 700.066,-32 706.066,-32 712.066,-38 712.066,-44 712.066,-44 712.066,-56 712.066,-56 712.066,-62 706.066,-68 700.066,-68"/>
<text text-anchor="middle" x="624.146" y="-47" font-family="Times,serif" font-size="10.00" fill="#000033">Mage_Core_Controller_Response_Http</text>
</g>
<!-- VinaiKopp_PostCodeFilter_Model_Observer&#45;&gt;Mage_Core_Controller_Response_Http -->
<g id="edge83" class="edge"><title>VinaiKopp_PostCodeFilter_Model_Observer&#45;&gt;Mage_Core_Controller_Response_Http</title>
<path fill="none" stroke="#999999" d="M267.715,-195.98C342.549,-165.245 494.4,-102.878 573.192,-70.5168"/>
<polygon fill="#999999" stroke="#999999" points="574.447,-72.2719 579.199,-68.0498 572.851,-68.3868 574.447,-72.2719"/>
</g>
<!-- Mage_Sales_Model_Quote_Address -->
<g id="node40" class="node"><title>Mage_Sales_Model_Quote_Address</title>
<path fill="#9999cc" stroke="black" d="M693.844,-232C693.844,-232 554.449,-232 554.449,-232 548.449,-232 542.449,-226 542.449,-220 542.449,-220 542.449,-208 542.449,-208 542.449,-202 548.449,-196 554.449,-196 554.449,-196 693.844,-196 693.844,-196 699.844,-196 705.844,-202 705.844,-208 705.844,-208 705.844,-220 705.844,-220 705.844,-226 699.844,-232 693.844,-232"/>
<text text-anchor="middle" x="624.146" y="-211" font-family="Times,serif" font-size="10.00" fill="#000033">Mage_Sales_Model_Quote_Address</text>
</g>
<!-- VinaiKopp_PostCodeFilter_Model_Observer&#45;&gt;Mage_Sales_Model_Quote_Address -->
<g id="edge84" class="edge"><title>VinaiKopp_PostCodeFilter_Model_Observer&#45;&gt;Mage_Sales_Model_Quote_Address</title>
<path fill="none" stroke="#999999" d="M321.522,-214C387.169,-214 472.923,-214 536.207,-214"/>
<polygon fill="#999999" stroke="#999999" points="536.259,-216.1 542.259,-214 536.259,-211.9 536.259,-216.1"/>
</g>
<!-- VinaiKopp_PostCodeFilter_Model_Resource_RuleStorage -->
<g id="node41" class="node"><title>VinaiKopp_PostCodeFilter_Model_Resource_RuleStorage</title>
<path fill="#9999cc" stroke="black" d="M336.937,-1143C336.937,-1143 108.743,-1143 108.743,-1143 102.743,-1143 96.7433,-1137 96.7433,-1131 96.7433,-1131 96.7433,-1119 96.7433,-1119 96.7433,-1113 102.743,-1107 108.743,-1107 108.743,-1107 336.937,-1107 336.937,-1107 342.937,-1107 348.937,-1113 348.937,-1119 348.937,-1119 348.937,-1131 348.937,-1131 348.937,-1137 342.937,-1143 336.937,-1143"/>
<text text-anchor="middle" x="222.84" y="-1122" font-family="Times,serif" font-size="10.00" fill="#000033">VinaiKopp_PostCodeFilter_Model_Resource_RuleStorage</text>
</g>
<!-- Varien_Db_Adapter_Interface -->
<g id="node42" class="node"><title>Varien_Db_Adapter_Interface</title>
<path fill="#9999cc" stroke="black" d="M680.696,-1143C680.696,-1143 567.597,-1143 567.597,-1143 561.597,-1143 555.597,-1137 555.597,-1131 555.597,-1131 555.597,-1119 555.597,-1119 555.597,-1113 561.597,-1107 567.597,-1107 567.597,-1107 680.696,-1107 680.696,-1107 686.696,-1107 692.696,-1113 692.696,-1119 692.696,-1119 692.696,-1131 692.696,-1131 692.696,-1137 686.696,-1143 680.696,-1143"/>
<text text-anchor="middle" x="624.146" y="-1122" font-family="Times,serif" font-size="10.00" fill="#000033">Varien_Db_Adapter_Interface</text>
</g>
<!-- VinaiKopp_PostCodeFilter_Model_Resource_RuleStorage&#45;&gt;Varien_Db_Adapter_Interface -->
<g id="edge86" class="edge"><title>VinaiKopp_PostCodeFilter_Model_Resource_RuleStorage&#45;&gt;Varien_Db_Adapter_Interface</title>
<path fill="none" stroke="#999999" d="M349.088,-1125C414.96,-1125 493.442,-1125 549.504,-1125"/>
<polygon fill="#999999" stroke="#999999" points="549.541,-1127.1 555.541,-1125 549.541,-1122.9 549.541,-1127.1"/>
</g>
<!-- VinaiKopp_PostCodeFilter_Model_RuleCollection -->
<g id="node43" class="node"><title>VinaiKopp_PostCodeFilter_Model_RuleCollection</title>
<path fill="#9999cc" stroke="black" d="M321.344,-569C321.344,-569 124.337,-569 124.337,-569 118.337,-569 112.337,-563 112.337,-557 112.337,-557 112.337,-545 112.337,-545 112.337,-539 118.337,-533 124.337,-533 124.337,-533 321.344,-533 321.344,-533 327.344,-533 333.344,-539 333.344,-545 333.344,-545 333.344,-557 333.344,-557 333.344,-563 327.344,-569 321.344,-569"/>
<text text-anchor="middle" x="222.84" y="-548" font-family="Times,serif" font-size="10.00" fill="#000033">VinaiKopp_PostCodeFilter_Model_RuleCollection</text>
</g>
<!-- VinaiKopp_PostCodeFilter_Model_RuleCollection&#45;&gt;VinaiKopp\\PostCodeFilter\\Rule\\Rule -->
<g id="edge89" class="edge"><title>VinaiKopp_PostCodeFilter_Model_RuleCollection&#45;&gt;VinaiKopp\\PostCodeFilter\\Rule\\Rule</title>
<path fill="none" stroke="#999999" d="M333.496,-563.93C611.382,-594.463 1335.06,-659.389 1531.05,-533 1589.85,-495.08 1546.69,-434.462 1603.05,-393 1626.98,-375.396 1657.8,-366.875 1686.72,-363.062"/>
<polygon fill="#999999" stroke="#999999" points="1687.15,-365.124 1692.86,-362.318 1686.65,-360.955 1687.15,-365.124"/>
</g>
<!-- VinaiKopp_PostCodeFilter_Model_RuleCollection&#45;&gt;VinaiKopp\\PostCodeFilter\\AdminViewsRuleList -->
<g id="edge87" class="edge"><title>VinaiKopp_PostCodeFilter_Model_RuleCollection&#45;&gt;VinaiKopp\\PostCodeFilter\\AdminViewsRuleList</title>
<path fill="none" stroke="#999999" d="M294.766,-569.019C400.661,-591.829 603.091,-619.308 747.612,-540 786.948,-518.414 765.799,-480.154 803.612,-456 812.902,-450.066 823.219,-445.526 833.928,-442.077"/>
<polygon fill="#999999" stroke="#999999" points="834.776,-444.015 839.913,-440.271 833.562,-439.994 834.776,-444.015"/>
</g>
<!-- VinaiKopp_PostCodeFilter_Model_RuleCollection&#45;&gt;VinaiKopp_PostCodeFilter_Helper_Data -->
<g id="edge88" class="edge"><title>VinaiKopp_PostCodeFilter_Model_RuleCollection&#45;&gt;VinaiKopp_PostCodeFilter_Helper_Data</title>
<path fill="none" stroke="#999999" d="M333.481,-534.525C394.306,-525.386 469.23,-514.128 527.638,-505.351"/>
<polygon fill="#999999" stroke="#999999" points="527.975,-507.424 533.596,-504.456 527.351,-503.271 527.975,-507.424"/>
</g>
<!-- VinaiKopp_PostCodeFilter_Adminhtml_Vinaikopp_PostcodefilterController -->
<g id="node44" class="node"><title>VinaiKopp_PostCodeFilter_Adminhtml_Vinaikopp_PostcodefilterController</title>
<path fill="#9999cc" stroke="black" d="M372.521,-337C372.521,-337 73.1595,-337 73.1595,-337 67.1595,-337 61.1595,-331 61.1595,-325 61.1595,-325 61.1595,-313 61.1595,-313 61.1595,-307 67.1595,-301 73.1595,-301 73.1595,-301 372.521,-301 372.521,-301 378.521,-301 384.521,-307 384.521,-313 384.521,-313 384.521,-325 384.521,-325 384.521,-331 378.521,-337 372.521,-337"/>
<text text-anchor="middle" x="222.84" y="-316" font-family="Times,serif" font-size="10.00" fill="#000033">VinaiKopp_PostCodeFilter_Adminhtml_Vinaikopp_PostcodefilterController</text>
</g>
<!-- VinaiKopp_PostCodeFilter_Adminhtml_Vinaikopp_PostcodefilterController&#45;&gt;VinaiKopp\\PostCodeFilter\\AdminAddsRule -->
<g id="edge90" class="edge"><title>VinaiKopp_PostCodeFilter_Adminhtml_Vinaikopp_PostcodefilterController&#45;&gt;VinaiKopp\\PostCodeFilter\\AdminAddsRule</title>
<path fill="none" stroke="#999999" d="M384.843,-322.348C524.98,-325.261 723.842,-329.396 843.139,-331.877"/>
<polygon fill="#999999" stroke="#999999" points="843.423,-333.983 849.466,-332.008 843.511,-329.784 843.423,-333.983"/>
</g>
<!-- VinaiKopp_PostCodeFilter_Adminhtml_Vinaikopp_PostcodefilterController&#45;&gt;VinaiKopp\\PostCodeFilter\\AdminDeletesRule -->
<g id="edge91" class="edge"><title>VinaiKopp_PostCodeFilter_Adminhtml_Vinaikopp_PostcodefilterController&#45;&gt;VinaiKopp\\PostCodeFilter\\AdminDeletesRule</title>
<path fill="none" stroke="#999999" d="M384.625,-321.798C488.415,-322.157 626.231,-319.93 747.612,-309 779.42,-306.136 813.853,-301.206 844.931,-296.062"/>
<polygon fill="#999999" stroke="#999999" points="845.529,-298.091 851.1,-295.031 844.836,-293.949 845.529,-298.091"/>
</g>
<!-- VinaiKopp_PostCodeFilter_Adminhtml_Vinaikopp_PostcodefilterController&#45;&gt;VinaiKopp\\PostCodeFilter\\AdminUpdatesRule -->
<g id="edge92" class="edge"><title>VinaiKopp_PostCodeFilter_Adminhtml_Vinaikopp_PostcodefilterController&#45;&gt;VinaiKopp\\PostCodeFilter\\AdminUpdatesRule</title>
<path fill="none" stroke="#999999" d="M384.723,-313.476C532.272,-308.074 730.47,-299.834 747.612,-294 776.325,-284.229 777.281,-270.051 803.612,-255 832.889,-238.265 867.233,-222.419 894.77,-210.562"/>
<polygon fill="#999999" stroke="#999999" points="895.849,-212.384 900.539,-208.093 894.196,-208.523 895.849,-212.384"/>
</g>
<!-- VinaiKopp_PostCodeFilter_Adminhtml_Vinaikopp_PostcodefilterController&#45;&gt;VinaiKopp\\PostCodeFilter\\AdminViewsSingleRule -->
<g id="edge93" class="edge"><title>VinaiKopp_PostCodeFilter_Adminhtml_Vinaikopp_PostcodefilterController&#45;&gt;VinaiKopp\\PostCodeFilter\\AdminViewsSingleRule</title>
<path fill="none" stroke="#999999" d="M384.82,-305.306C533.048,-292.153 732.297,-272.867 747.612,-263 788.814,-236.455 764.014,-196.882 803.612,-168 811.456,-162.279 820.145,-157.555 829.247,-153.658"/>
<polygon fill="#999999" stroke="#999999" points="830.195,-155.54 834.964,-151.337 828.615,-151.648 830.195,-155.54"/>
</g>
<!-- VinaiKopp_PostCodeFilter_Adminhtml_Vinaikopp_PostcodefilterController&#45;&gt;VinaiKopp_PostCodeFilter_Helper_Data -->
<g id="edge94" class="edge"><title>VinaiKopp_PostCodeFilter_Adminhtml_Vinaikopp_PostcodefilterController&#45;&gt;VinaiKopp_PostCodeFilter_Helper_Data</title>
<path fill="none" stroke="#999999" d="M265.818,-337.082C340.711,-369.342 496.872,-436.608 575.599,-470.519"/>
<polygon fill="#999999" stroke="#999999" points="574.79,-472.457 581.132,-472.902 576.452,-468.6 574.79,-472.457"/>
</g>
<!-- VinaiKopp_PostCodeFilter_Frontend_CheckController -->
<g id="node45" class="node"><title>VinaiKopp_PostCodeFilter_Frontend_CheckController</title>
<path fill="#9999cc" stroke="black" d="M329.447,-479C329.447,-479 116.234,-479 116.234,-479 110.234,-479 104.234,-473 104.234,-467 104.234,-467 104.234,-455 104.234,-455 104.234,-449 110.234,-443 116.234,-443 116.234,-443 329.447,-443 329.447,-443 335.447,-443 341.447,-449 341.447,-455 341.447,-455 341.447,-467 341.447,-467 341.447,-473 335.447,-479 329.447,-479"/>
<text text-anchor="middle" x="222.84" y="-458" font-family="Times,serif" font-size="10.00" fill="#000033">VinaiKopp_PostCodeFilter_Frontend_CheckController</text>
</g>
<!-- VinaiKopp_PostCodeFilter_Frontend_CheckController&#45;&gt;VinaiKopp\\PostCodeFilter\\CustomerSpecifiesShippingAddress -->
<g id="edge95" class="edge"><title>VinaiKopp_PostCodeFilter_Frontend_CheckController&#45;&gt;VinaiKopp\\PostCodeFilter\\CustomerSpecifiesShippingAddress</title>
<path fill="none" stroke="#999999" d="M341.674,-459.66C447.856,-458.932 608.231,-459.021 747.612,-464 766.299,-464.667 785.964,-465.638 805.349,-466.752"/>
<polygon fill="#999999" stroke="#999999" points="805.242,-468.85 811.354,-467.103 805.487,-464.657 805.242,-468.85"/>
</g>
<!-- VinaiKopp_PostCodeFilter_Frontend_CheckController&#45;&gt;VinaiKopp_PostCodeFilter_Helper_Data -->
<g id="edge96" class="edge"><title>VinaiKopp_PostCodeFilter_Frontend_CheckController&#45;&gt;VinaiKopp_PostCodeFilter_Helper_Data</title>
<path fill="none" stroke="#999999" d="M341.486,-469.839C400.749,-474.291 471.682,-479.62 527.537,-483.817"/>
<polygon fill="#999999" stroke="#999999" points="527.441,-485.915 533.581,-484.271 527.755,-481.727 527.441,-485.915"/>
</g>
</g>
</svg>
