<?xml version="1.0" encoding="UTF-8" standalone="no"?>
<!DOCTYPE svg PUBLIC "-//W3C//DTD SVG 1.1//EN"
 "http://www.w3.org/Graphics/SVG/1.1/DTD/svg11.dtd">
<!-- Generated by graphviz version 2.38.0 (20140413.2041)
 -->
<!-- Title: G Pages: 1 -->
<svg width="1263pt" height="1966pt"
 viewBox="0.00 0.00 1262.86 1966.00" xmlns="http://www.w3.org/2000/svg" xmlns:xlink="http://www.w3.org/1999/xlink">
<g id="graph0" class="graph" transform="scale(1 1) rotate(0) translate(4 1962)">
<title>G</title>
<polygon fill="white" stroke="none" points="-4,4 -4,-1962 1258.86,-1962 1258.86,4 -4,4"/>
<text text-anchor="middle" x="627.432" y="-5.6" font-family="Times,serif" font-size="8.00">PhpDependencyAnalyse by Marco Muths (v0.5.0)</text>
<g id="clust1" class="cluster"><title>cluster_0</title>
<path fill="#ccccff" stroke="#000033" d="M532.681,-24C532.681,-24 1234.86,-24 1234.86,-24 1240.86,-24 1246.86,-30 1246.86,-36 1246.86,-36 1246.86,-1118 1246.86,-1118 1246.86,-1124 1240.86,-1130 1234.86,-1130 1234.86,-1130 532.681,-1130 532.681,-1130 526.681,-1130 520.681,-1124 520.681,-1118 520.681,-1118 520.681,-36 520.681,-36 520.681,-30 526.681,-24 532.681,-24"/>
<text text-anchor="middle" x="559.371" y="-1114.8" font-family="Times,serif" font-size="14.00" fill="#000033">VinaiKopp</text>
</g>
<g id="clust2" class="cluster"><title>cluster_1</title>
<path fill="#ccccff" stroke="#000033" d="M19.2515,-1138C19.2515,-1138 426.429,-1138 426.429,-1138 432.429,-1138 438.429,-1144 438.429,-1150 438.429,-1150 438.429,-1200 438.429,-1200 438.429,-1206 432.429,-1212 426.429,-1212 426.429,-1212 19.2515,-1212 19.2515,-1212 13.2515,-1212 7.25146,-1206 7.25146,-1200 7.25146,-1200 7.25146,-1150 7.25146,-1150 7.25146,-1144 13.2515,-1138 19.2515,-1138"/>
<text text-anchor="middle" x="223.276" y="-1196.8" font-family="Times,serif" font-size="14.00" fill="#000033">VinaiKopp_PostCodeFilter_Block_Adminhtml_Postcodefilter_Edit_Form</text>
</g>
<g id="clust3" class="cluster"><title>cluster_2</title>
<path fill="#ccccff" stroke="#000033" d="M513.055,-1138C513.055,-1138 923.45,-1138 923.45,-1138 929.45,-1138 935.45,-1144 935.45,-1150 935.45,-1150 935.45,-1200 935.45,-1200 935.45,-1206 929.45,-1212 923.45,-1212 923.45,-1212 513.055,-1212 513.055,-1212 507.055,-1212 501.055,-1206 501.055,-1200 501.055,-1200 501.055,-1150 501.055,-1150 501.055,-1144 507.055,-1138 513.055,-1138"/>
<text text-anchor="middle" x="718.631" y="-1196.8" font-family="Times,serif" font-size="14.00" fill="#000033">VinaiKopp_PostCodeFilter_Block_Adminhtml_Postcodefilter_New_Form</text>
</g>
<g id="clust4" class="cluster"><title>cluster_3</title>
<path fill="#ccccff" stroke="#000033" d="M37.5864,-1302C37.5864,-1302 408.094,-1302 408.094,-1302 414.094,-1302 420.094,-1308 420.094,-1314 420.094,-1314 420.094,-1364 420.094,-1364 420.094,-1370 414.094,-1376 408.094,-1376 408.094,-1376 37.5864,-1376 37.5864,-1376 31.5864,-1376 25.5864,-1370 25.5864,-1364 25.5864,-1364 25.5864,-1314 25.5864,-1314 25.5864,-1308 31.5864,-1302 37.5864,-1302"/>
<text text-anchor="middle" x="222.942" y="-1360.8" font-family="Times,serif" font-size="14.00" fill="#000033">VinaiKopp_PostCodeFilter_Block_Adminhtml_Postcodefilter_Edit</text>
</g>
<g id="clust5" class="cluster"><title>cluster_4</title>
<path fill="#ccccff" stroke="#000033" d="M576.797,-1261C576.797,-1261 859.708,-1261 859.708,-1261 865.708,-1261 871.708,-1267 871.708,-1273 871.708,-1273 871.708,-1323 871.708,-1323 871.708,-1329 865.708,-1335 859.708,-1335 859.708,-1335 576.797,-1335 576.797,-1335 570.797,-1335 564.797,-1329 564.797,-1323 564.797,-1323 564.797,-1273 564.797,-1273 564.797,-1267 570.797,-1261 576.797,-1261"/>
<text text-anchor="middle" x="718.334" y="-1319.8" font-family="Times,serif" font-size="14.00" fill="#000033">Mage_Adminhtml_Block_Widget_Form_Container</text>
</g>
<g id="clust6" class="cluster"><title>cluster_5</title>
<path fill="#ccccff" stroke="#000033" d="M36.7539,-1384C36.7539,-1384 408.927,-1384 408.927,-1384 414.927,-1384 420.927,-1390 420.927,-1396 420.927,-1396 420.927,-1446 420.927,-1446 420.927,-1452 414.927,-1458 408.927,-1458 408.927,-1458 36.7539,-1458 36.7539,-1458 30.7539,-1458 24.7539,-1452 24.7539,-1446 24.7539,-1446 24.7539,-1396 24.7539,-1396 24.7539,-1390 30.7539,-1384 36.7539,-1384"/>
<text text-anchor="middle" x="223.275" y="-1442.8" font-family="Times,serif" font-size="14.00" fill="#000033">VinaiKopp_PostCodeFilter_Block_Adminhtml_Postcodefilter_Grid</text>
</g>
<g id="clust7" class="cluster"><title>cluster_6</title>
<path fill="#ccccff" stroke="#000033" d="M609.684,-1384C609.684,-1384 825.821,-1384 825.821,-1384 831.821,-1384 837.821,-1390 837.821,-1396 837.821,-1396 837.821,-1446 837.821,-1446 837.821,-1452 831.821,-1458 825.821,-1458 825.821,-1458 609.684,-1458 609.684,-1458 603.684,-1458 597.684,-1452 597.684,-1446 597.684,-1446 597.684,-1396 597.684,-1396 597.684,-1390 603.684,-1384 609.684,-1384"/>
<text text-anchor="middle" x="717.78" y="-1442.8" font-family="Times,serif" font-size="14.00" fill="#000033">Mage_Adminhtml_Block_Widget_Grid</text>
</g>
<g id="clust8" class="cluster"><title>cluster_7</title>
<path fill="#ccccff" stroke="#000033" d="M1018.11,-1138C1018.11,-1138 1238.58,-1138 1238.58,-1138 1244.58,-1138 1250.58,-1144 1250.58,-1150 1250.58,-1150 1250.58,-1200 1250.58,-1200 1250.58,-1206 1244.58,-1212 1238.58,-1212 1238.58,-1212 1018.11,-1212 1018.11,-1212 1012.11,-1212 1006.11,-1206 1006.11,-1200 1006.11,-1200 1006.11,-1150 1006.11,-1150 1006.11,-1144 1012.11,-1138 1018.11,-1138"/>
<text text-anchor="middle" x="1128.54" y="-1196.8" font-family="Times,serif" font-size="14.00" fill="#000033">Mage_Adminhtml_Block_Widget_Form</text>
</g>
<g id="clust9" class="cluster"><title>cluster_8</title>
<path fill="#ccccff" stroke="#000033" d="M36.478,-1220C36.478,-1220 410.203,-1220 410.203,-1220 416.203,-1220 422.203,-1226 422.203,-1232 422.203,-1232 422.203,-1282 422.203,-1282 422.203,-1288 416.203,-1294 410.203,-1294 410.203,-1294 36.478,-1294 36.478,-1294 30.478,-1294 24.478,-1288 24.478,-1282 24.478,-1282 24.478,-1232 24.478,-1232 24.478,-1226 30.478,-1220 36.478,-1220"/>
<text text-anchor="middle" x="223.385" y="-1278.8" font-family="Times,serif" font-size="14.00" fill="#000033">VinaiKopp_PostCodeFilter_Block_Adminhtml_Postcodefilter_New</text>
</g>
<g id="clust10" class="cluster"><title>cluster_9</title>
<path fill="#ccccff" stroke="#000033" d="M53.4189,-1466C53.4189,-1466 393.262,-1466 393.262,-1466 399.262,-1466 405.262,-1472 405.262,-1478 405.262,-1478 405.262,-1528 405.262,-1528 405.262,-1534 399.262,-1540 393.262,-1540 393.262,-1540 53.4189,-1540 53.4189,-1540 47.4189,-1540 41.4189,-1534 41.4189,-1528 41.4189,-1528 41.4189,-1478 41.4189,-1478 41.4189,-1472 47.4189,-1466 53.4189,-1466"/>
<text text-anchor="middle" x="223.609" y="-1524.8" font-family="Times,serif" font-size="14.00" fill="#000033">VinaiKopp_PostCodeFilter_Block_Adminhtml_Postcodefilter</text>
</g>
<g id="clust11" class="cluster"><title>cluster_10</title>
<path fill="#ccccff" stroke="#000033" d="M579.467,-1466C579.467,-1466 857.038,-1466 857.038,-1466 863.038,-1466 869.038,-1472 869.038,-1478 869.038,-1478 869.038,-1528 869.038,-1528 869.038,-1534 863.038,-1540 857.038,-1540 857.038,-1540 579.467,-1540 579.467,-1540 573.467,-1540 567.467,-1534 567.467,-1528 567.467,-1528 567.467,-1478 567.467,-1478 567.467,-1472 573.467,-1466 579.467,-1466"/>
<text text-anchor="middle" x="718.667" y="-1524.8" font-family="Times,serif" font-size="14.00" fill="#000033">Mage_Adminhtml_Block_Widget_Grid_Container</text>
</g>
<g id="clust12" class="cluster"><title>cluster_11</title>
<path fill="#ccccff" stroke="#000033" d="M112.375,-1548C112.375,-1548 334.306,-1548 334.306,-1548 340.306,-1548 346.306,-1554 346.306,-1560 346.306,-1560 346.306,-1610 346.306,-1610 346.306,-1616 340.306,-1622 334.306,-1622 334.306,-1622 112.375,-1622 112.375,-1622 106.375,-1622 100.375,-1616 100.375,-1610 100.375,-1610 100.375,-1560 100.375,-1560 100.375,-1554 106.375,-1548 112.375,-1548"/>
<text text-anchor="middle" x="223.827" y="-1606.8" font-family="Times,serif" font-size="14.00" fill="#000033">VinaiKopp_PostCodeFilter_Helper_Data</text>
</g>
<g id="clust13" class="cluster"><title>cluster_12</title>
<path fill="#ccccff" stroke="#000033" d="M639.607,-1548C639.607,-1548 796.898,-1548 796.898,-1548 802.898,-1548 808.898,-1554 808.898,-1560 808.898,-1560 808.898,-1610 808.898,-1610 808.898,-1616 802.898,-1622 796.898,-1622 796.898,-1622 639.607,-1622 639.607,-1622 633.607,-1622 627.607,-1616 627.607,-1610 627.607,-1610 627.607,-1560 627.607,-1560 627.607,-1554 633.607,-1548 639.607,-1548"/>
<text text-anchor="middle" x="718.411" y="-1606.8" font-family="Times,serif" font-size="14.00" fill="#000033">Mage_Core_Helper_Abstract</text>
</g>
<g id="clust14" class="cluster"><title>cluster_13</title>
<path fill="#ccccff" stroke="#000033" d="M100.037,-1630C100.037,-1630 345.644,-1630 345.644,-1630 351.644,-1630 357.644,-1636 357.644,-1642 357.644,-1642 357.644,-1692 357.644,-1692 357.644,-1698 351.644,-1704 345.644,-1704 345.644,-1704 100.037,-1704 100.037,-1704 94.0371,-1704 88.0371,-1698 88.0371,-1692 88.0371,-1692 88.0371,-1642 88.0371,-1642 88.0371,-1636 94.0371,-1630 100.037,-1630"/>
<text text-anchor="middle" x="223.162" y="-1688.8" font-family="Times,serif" font-size="14.00" fill="#000033">VinaiKopp_PostCodeFilter_Model_Observer</text>
</g>
<g id="clust15" class="cluster"><title>cluster_14</title>
<path fill="#ccccff" stroke="#000033" d="M61.542,-368C61.542,-368 384.139,-368 384.139,-368 390.139,-368 396.139,-374 396.139,-380 396.139,-380 396.139,-430 396.139,-430 396.139,-436 390.139,-442 384.139,-442 384.139,-442 61.542,-442 61.542,-442 55.542,-442 49.542,-436 49.542,-430 49.542,-430 49.542,-380 49.542,-380 49.542,-374 55.542,-368 61.542,-368"/>
<text text-anchor="middle" x="223.16" y="-426.8" font-family="Times,serif" font-size="14.00" fill="#000033">VinaiKopp_PostCodeFilter_Model_Resource_RuleStorage</text>
</g>
<g id="clust16" class="cluster"><title>cluster_15</title>
<path fill="#ccccff" stroke="#000033" d="M83.0889,-1712C83.0889,-1712 362.592,-1712 362.592,-1712 368.592,-1712 374.592,-1718 374.592,-1724 374.592,-1724 374.592,-1774 374.592,-1774 374.592,-1780 368.592,-1786 362.592,-1786 362.592,-1786 83.0889,-1786 83.0889,-1786 77.0889,-1786 71.0889,-1780 71.0889,-1774 71.0889,-1774 71.0889,-1724 71.0889,-1724 71.0889,-1718 77.0889,-1712 83.0889,-1712"/>
<text text-anchor="middle" x="222.941" y="-1770.8" font-family="Times,serif" font-size="14.00" fill="#000033">VinaiKopp_PostCodeFilter_Model_RuleCollection</text>
</g>
<g id="clust17" class="cluster"><title>cluster_16</title>
<path fill="#ccccff" stroke="#000033" d="M642.824,-1712C642.824,-1712 793.681,-1712 793.681,-1712 799.681,-1712 805.681,-1718 805.681,-1724 805.681,-1724 805.681,-1774 805.681,-1774 805.681,-1780 799.681,-1786 793.681,-1786 793.681,-1786 642.824,-1786 642.824,-1786 636.824,-1786 630.824,-1780 630.824,-1774 630.824,-1774 630.824,-1724 630.824,-1724 630.824,-1718 636.824,-1712 642.824,-1712"/>
<text text-anchor="middle" x="718.524" y="-1770.8" font-family="Times,serif" font-size="14.00" fill="#000033">Varien_Data_Collection_Db</text>
</g>
<g id="clust18" class="cluster"><title>cluster_17</title>
<path fill="#ccccff" stroke="#000033" d="M12,-1794C12,-1794 434.681,-1794 434.681,-1794 440.681,-1794 446.681,-1800 446.681,-1806 446.681,-1806 446.681,-1856 446.681,-1856 446.681,-1862 440.681,-1868 434.681,-1868 434.681,-1868 12,-1868 12,-1868 6,-1868 0,-1862 0,-1856 0,-1856 0,-1806 0,-1806 0,-1800 6,-1794 12,-1794"/>
<text text-anchor="middle" x="223.376" y="-1852.8" font-family="Times,serif" font-size="14.00" fill="#000033">VinaiKopp_PostCodeFilter_Adminhtml_Vinaikopp_PostcodefilterController</text>
</g>
<g id="clust19" class="cluster"><title>cluster_18</title>
<path fill="#ccccff" stroke="#000033" d="M615.651,-1794C615.651,-1794 819.854,-1794 819.854,-1794 825.854,-1794 831.854,-1800 831.854,-1806 831.854,-1806 831.854,-1856 831.854,-1856 831.854,-1862 825.854,-1868 819.854,-1868 819.854,-1868 615.651,-1868 615.651,-1868 609.651,-1868 603.651,-1862 603.651,-1856 603.651,-1856 603.651,-1806 603.651,-1806 603.651,-1800 609.651,-1794 615.651,-1794"/>
<text text-anchor="middle" x="718.193" y="-1852.8" font-family="Times,serif" font-size="14.00" fill="#000033">Mage_Adminhtml_Controller_Action</text>
</g>
<g id="clust20" class="cluster"><title>cluster_19</title>
<path fill="#ccccff" stroke="#000033" d="M72.0371,-1876C72.0371,-1876 373.644,-1876 373.644,-1876 379.644,-1876 385.644,-1882 385.644,-1888 385.644,-1888 385.644,-1938 385.644,-1938 385.644,-1944 379.644,-1950 373.644,-1950 373.644,-1950 72.0371,-1950 72.0371,-1950 66.0371,-1950 60.0371,-1944 60.0371,-1938 60.0371,-1938 60.0371,-1888 60.0371,-1888 60.0371,-1882 66.0371,-1876 72.0371,-1876"/>
<text text-anchor="middle" x="223.162" y="-1934.8" font-family="Times,serif" font-size="14.00" fill="#000033">VinaiKopp_PostCodeFilter_Frontend_CheckController</text>
</g>
<g id="clust21" class="cluster"><title>cluster_20</title>
<path fill="#ccccff" stroke="#000033" d="M615.654,-1876C615.654,-1876 819.851,-1876 819.851,-1876 825.851,-1876 831.851,-1882 831.851,-1888 831.851,-1888 831.851,-1938 831.851,-1938 831.851,-1944 825.851,-1950 819.851,-1950 819.851,-1950 615.654,-1950 615.654,-1950 609.654,-1950 603.654,-1944 603.654,-1938 603.654,-1938 603.654,-1888 603.654,-1888 603.654,-1882 609.654,-1876 615.654,-1876"/>
<text text-anchor="middle" x="718.192" y="-1934.8" font-family="Times,serif" font-size="14.00" fill="#000033">Mage_Core_Controller_Front_Action</text>
</g>
<!-- VinaiKopp\\PostCodeFilter\\Exceptions\\InvalidCountryException -->
<g id="node1" class="node"><title>VinaiKopp\\PostCodeFilter\\Exceptions\\InvalidCountryException</title>
<path fill="#9999cc" stroke="black" d="M843.014,-1100C843.014,-1100 592.491,-1100 592.491,-1100 586.491,-1100 580.491,-1094 580.491,-1088 580.491,-1088 580.491,-1076 580.491,-1076 580.491,-1070 586.491,-1064 592.491,-1064 592.491,-1064 843.014,-1064 843.014,-1064 849.014,-1064 855.014,-1070 855.014,-1076 855.014,-1076 855.014,-1088 855.014,-1088 855.014,-1094 849.014,-1100 843.014,-1100"/>
<text text-anchor="middle" x="717.752" y="-1079" font-family="Times,serif" font-size="10.00" fill="#000033">VinaiKopp\PostCodeFilter\Exceptions\InvalidCountryException</text>
</g>
<!-- VinaiKopp\\PostCodeFilter\\Exceptions\\InvalidCustomerGroupIdException -->
<g id="node2" class="node"><title>VinaiKopp\\PostCodeFilter\\Exceptions\\InvalidCustomerGroupIdException</title>
<path fill="#9999cc" stroke="black" d="M863.004,-1057C863.004,-1057 572.5,-1057 572.5,-1057 566.5,-1057 560.5,-1051 560.5,-1045 560.5,-1045 560.5,-1033 560.5,-1033 560.5,-1027 566.5,-1021 572.5,-1021 572.5,-1021 863.004,-1021 863.004,-1021 869.004,-1021 875.004,-1027 875.004,-1033 875.004,-1033 875.004,-1045 875.004,-1045 875.004,-1051 869.004,-1057 863.004,-1057"/>
<text text-anchor="middle" x="717.752" y="-1036" font-family="Times,serif" font-size="10.00" fill="#000033">VinaiKopp\PostCodeFilter\Exceptions\InvalidCustomerGroupIdException</text>
</g>
<!-- VinaiKopp\\PostCodeFilter\\Exceptions\\InvalidPostCodeException -->
<g id="node3" class="node"><title>VinaiKopp\\PostCodeFilter\\Exceptions\\InvalidPostCodeException</title>
<path fill="#9999cc" stroke="black" d="M845.576,-1014C845.576,-1014 589.929,-1014 589.929,-1014 583.929,-1014 577.929,-1008 577.929,-1002 577.929,-1002 577.929,-990 577.929,-990 577.929,-984 583.929,-978 589.929,-978 589.929,-978 845.576,-978 845.576,-978 851.576,-978 857.576,-984 857.576,-990 857.576,-990 857.576,-1002 857.576,-1002 857.576,-1008 851.576,-1014 845.576,-1014"/>
<text text-anchor="middle" x="717.752" y="-993" font-family="Times,serif" font-size="10.00" fill="#000033">VinaiKopp\PostCodeFilter\Exceptions\InvalidPostCodeException</text>
</g>
<!-- VinaiKopp\\PostCodeFilter\\Exceptions\\NonMatchingRecordInResultException -->
<g id="node4" class="node"><title>VinaiKopp\\PostCodeFilter\\Exceptions\\NonMatchingRecordInResultException</title>
<path fill="#9999cc" stroke="black" d="M871.722,-971C871.722,-971 563.783,-971 563.783,-971 557.783,-971 551.783,-965 551.783,-959 551.783,-959 551.783,-947 551.783,-947 551.783,-941 557.783,-935 563.783,-935 563.783,-935 871.722,-935 871.722,-935 877.722,-935 883.722,-941 883.722,-947 883.722,-947 883.722,-959 883.722,-959 883.722,-965 877.722,-971 871.722,-971"/>
<text text-anchor="middle" x="717.752" y="-950" font-family="Times,serif" font-size="10.00" fill="#000033">VinaiKopp\PostCodeFilter\Exceptions\NonMatchingRecordInResultException</text>
</g>
<!-- VinaiKopp\\PostCodeFilter\\Exceptions\\RuleDoesNotExistException -->
<g id="node5" class="node"><title>VinaiKopp\\PostCodeFilter\\Exceptions\\RuleDoesNotExistException</title>
<path fill="#9999cc" stroke="black" d="M849.906,-928C849.906,-928 585.599,-928 585.599,-928 579.599,-928 573.599,-922 573.599,-916 573.599,-916 573.599,-904 573.599,-904 573.599,-898 579.599,-892 585.599,-892 585.599,-892 849.906,-892 849.906,-892 855.906,-892 861.906,-898 861.906,-904 861.906,-904 861.906,-916 861.906,-916 861.906,-922 855.906,-928 849.906,-928"/>
<text text-anchor="middle" x="717.752" y="-907" font-family="Times,serif" font-size="10.00" fill="#000033">VinaiKopp\PostCodeFilter\Exceptions\RuleDoesNotExistException</text>
</g>
<!-- VinaiKopp\\PostCodeFilter\\Exceptions\\RuleForGroupAndCountryAlreadyExistsException -->
<g id="node6" class="node"><title>VinaiKopp\\PostCodeFilter\\Exceptions\\RuleForGroupAndCountryAlreadyExistsException</title>
<path fill="#9999cc" stroke="black" d="M894.896,-885C894.896,-885 540.609,-885 540.609,-885 534.609,-885 528.609,-879 528.609,-873 528.609,-873 528.609,-861 528.609,-861 528.609,-855 534.609,-849 540.609,-849 540.609,-849 894.896,-849 894.896,-849 900.896,-849 906.896,-855 906.896,-861 906.896,-861 906.896,-873 906.896,-873 906.896,-879 900.896,-885 894.896,-885"/>
<text text-anchor="middle" x="717.752" y="-864" font-family="Times,serif" font-size="10.00" fill="#000033">VinaiKopp\PostCodeFilter\Exceptions\RuleForGroupAndCountryAlreadyExistsException</text>
</g>
<!-- VinaiKopp\\PostCodeFilter\\ReadModel\\Rule -->
<g id="node7" class="node"><title>VinaiKopp\\PostCodeFilter\\ReadModel\\Rule</title>
<path fill="#9999cc" stroke="black" d="M1212.57,-820C1212.57,-820 1043.12,-820 1043.12,-820 1037.12,-820 1031.12,-814 1031.12,-808 1031.12,-808 1031.12,-796 1031.12,-796 1031.12,-790 1037.12,-784 1043.12,-784 1043.12,-784 1212.57,-784 1212.57,-784 1218.57,-784 1224.57,-790 1224.57,-796 1224.57,-796 1224.57,-808 1224.57,-808 1224.57,-814 1218.57,-820 1212.57,-820"/>
<text text-anchor="middle" x="1127.84" y="-799" font-family="Times,serif" font-size="10.00" fill="#000033">VinaiKopp\PostCodeFilter\ReadModel\Rule</text>
</g>
<!-- VinaiKopp\\PostCodeFilter\\ReadModel\\RuleFound -->
<g id="node8" class="node"><title>VinaiKopp\\PostCodeFilter\\ReadModel\\RuleFound</title>
<path fill="#9999cc" stroke="black" d="M815.539,-842C815.539,-842 619.966,-842 619.966,-842 613.966,-842 607.966,-836 607.966,-830 607.966,-830 607.966,-818 607.966,-818 607.966,-812 613.966,-806 619.966,-806 619.966,-806 815.539,-806 815.539,-806 821.539,-806 827.539,-812 827.539,-818 827.539,-818 827.539,-830 827.539,-830 827.539,-836 821.539,-842 815.539,-842"/>
<text text-anchor="middle" x="717.752" y="-821" font-family="Times,serif" font-size="10.00" fill="#000033">VinaiKopp\PostCodeFilter\ReadModel\RuleFound</text>
</g>
<!-- VinaiKopp\\PostCodeFilter\\ReadModel\\RuleFound&#45;&gt;VinaiKopp\\PostCodeFilter\\ReadModel\\Rule -->
<g id="edge1" class="edge"><title>VinaiKopp\\PostCodeFilter\\ReadModel\\RuleFound&#45;&gt;VinaiKopp\\PostCodeFilter\\ReadModel\\Rule</title>
<path fill="none" stroke="#999999" stroke-dasharray="5,2" d="M827.577,-818.133C888.755,-814.835 964.655,-810.744 1024.71,-807.506"/>
<polygon fill="#999999" stroke="#999999" points="1024.96,-809.596 1030.84,-807.176 1024.73,-805.402 1024.96,-809.596"/>
</g>
<!-- VinaiKopp\\PostCodeFilter\\ReadModel\\RuleNotFound -->
<g id="node9" class="node"><title>VinaiKopp\\PostCodeFilter\\ReadModel\\RuleNotFound</title>
<path fill="#9999cc" stroke="black" d="M823.039,-799C823.039,-799 612.466,-799 612.466,-799 606.466,-799 600.466,-793 600.466,-787 600.466,-787 600.466,-775 600.466,-775 600.466,-769 606.466,-763 612.466,-763 612.466,-763 823.039,-763 823.039,-763 829.039,-763 835.039,-769 835.039,-775 835.039,-775 835.039,-787 835.039,-787 835.039,-793 829.039,-799 823.039,-799"/>
<text text-anchor="middle" x="717.752" y="-778" font-family="Times,serif" font-size="10.00" fill="#000033">VinaiKopp\PostCodeFilter\ReadModel\RuleNotFound</text>
</g>
<!-- VinaiKopp\\PostCodeFilter\\ReadModel\\RuleNotFound&#45;&gt;VinaiKopp\\PostCodeFilter\\ReadModel\\Rule -->
<g id="edge2" class="edge"><title>VinaiKopp\\PostCodeFilter\\ReadModel\\RuleNotFound&#45;&gt;VinaiKopp\\PostCodeFilter\\ReadModel\\Rule</title>
<path fill="none" stroke="#999999" stroke-dasharray="5,2" d="M835.149,-786.99C894.93,-790.066 967.105,-793.78 1024.7,-796.744"/>
<polygon fill="#999999" stroke="#999999" points="1024.84,-798.854 1030.94,-797.065 1025.06,-794.659 1024.84,-798.854"/>
</g>
<!-- VinaiKopp\\PostCodeFilter\\ReadModel\\RuleReader -->
<g id="node10" class="node"><title>VinaiKopp\\PostCodeFilter\\ReadModel\\RuleReader</title>
<path fill="#9999cc" stroke="black" d="M1226.88,-433C1226.88,-433 1028.8,-433 1028.8,-433 1022.8,-433 1016.8,-427 1016.8,-421 1016.8,-421 1016.8,-409 1016.8,-409 1016.8,-403 1022.8,-397 1028.8,-397 1028.8,-397 1226.88,-397 1226.88,-397 1232.88,-397 1238.88,-403 1238.88,-409 1238.88,-409 1238.88,-421 1238.88,-421 1238.88,-427 1232.88,-433 1226.88,-433"/>
<text text-anchor="middle" x="1127.84" y="-412" font-family="Times,serif" font-size="10.00" fill="#000033">VinaiKopp\PostCodeFilter\ReadModel\RuleReader</text>
</g>
<!-- VinaiKopp\\PostCodeFilter\\ReadModel\\RuleSpecByCountryAndGroupId -->
<g id="node11" class="node"><title>VinaiKopp\\PostCodeFilter\\ReadModel\\RuleSpecByCountryAndGroupId</title>
<path fill="#9999cc" stroke="black" d="M859.967,-756C859.967,-756 575.537,-756 575.537,-756 569.537,-756 563.537,-750 563.537,-744 563.537,-744 563.537,-732 563.537,-732 563.537,-726 569.537,-720 575.537,-720 575.537,-720 859.967,-720 859.967,-720 865.967,-720 871.967,-726 871.967,-732 871.967,-732 871.967,-744 871.967,-744 871.967,-750 865.967,-756 859.967,-756"/>
<text text-anchor="middle" x="717.752" y="-735" font-family="Times,serif" font-size="10.00" fill="#000033">VinaiKopp\PostCodeFilter\ReadModel\RuleSpecByCountryAndGroupId</text>
</g>
<!-- VinaiKopp\\PostCodeFilter\\ReadModel\\RuleSpecByCountryAndGroupIds -->
<g id="node12" class="node"><title>VinaiKopp\\PostCodeFilter\\ReadModel\\RuleSpecByCountryAndGroupIds</title>
<path fill="#9999cc" stroke="black" d="M861.859,-713C861.859,-713 573.646,-713 573.646,-713 567.646,-713 561.646,-707 561.646,-701 561.646,-701 561.646,-689 561.646,-689 561.646,-683 567.646,-677 573.646,-677 573.646,-677 861.859,-677 861.859,-677 867.859,-677 873.859,-683 873.859,-689 873.859,-689 873.859,-701 873.859,-701 873.859,-707 867.859,-713 861.859,-713"/>
<text text-anchor="middle" x="717.752" y="-692" font-family="Times,serif" font-size="10.00" fill="#000033">VinaiKopp\PostCodeFilter\ReadModel\RuleSpecByCountryAndGroupIds</text>
</g>
<!-- VinaiKopp\\PostCodeFilter\\RuleComponents\\Country -->
<g id="node13" class="node"><title>VinaiKopp\\PostCodeFilter\\RuleComponents\\Country</title>
<path fill="#9999cc" stroke="black" d="M821.157,-670C821.157,-670 614.348,-670 614.348,-670 608.348,-670 602.348,-664 602.348,-658 602.348,-658 602.348,-646 602.348,-646 602.348,-640 608.348,-634 614.348,-634 614.348,-634 821.157,-634 821.157,-634 827.157,-634 833.157,-640 833.157,-646 833.157,-646 833.157,-658 833.157,-658 833.157,-664 827.157,-670 821.157,-670"/>
<text text-anchor="middle" x="717.752" y="-649" font-family="Times,serif" font-size="10.00" fill="#000033">VinaiKopp\PostCodeFilter\RuleComponents\Country</text>
</g>
<!-- VinaiKopp\\PostCodeFilter\\RuleComponents\\CustomerGroupId -->
<g id="node14" class="node"><title>VinaiKopp\\PostCodeFilter\\RuleComponents\\CustomerGroupId</title>
<path fill="#9999cc" stroke="black" d="M841.147,-627C841.147,-627 594.358,-627 594.358,-627 588.358,-627 582.358,-621 582.358,-615 582.358,-615 582.358,-603 582.358,-603 582.358,-597 588.358,-591 594.358,-591 594.358,-591 841.147,-591 841.147,-591 847.147,-591 853.147,-597 853.147,-603 853.147,-603 853.147,-615 853.147,-615 853.147,-621 847.147,-627 841.147,-627"/>
<text text-anchor="middle" x="717.752" y="-606" font-family="Times,serif" font-size="10.00" fill="#000033">VinaiKopp\PostCodeFilter\RuleComponents\CustomerGroupId</text>
</g>
<!-- VinaiKopp\\PostCodeFilter\\RuleComponents\\CustomerGroupIdList -->
<g id="node15" class="node"><title>VinaiKopp\\PostCodeFilter\\RuleComponents\\CustomerGroupIdList</title>
<path fill="#9999cc" stroke="black" d="M848.704,-584C848.704,-584 586.801,-584 586.801,-584 580.801,-584 574.801,-578 574.801,-572 574.801,-572 574.801,-560 574.801,-560 574.801,-554 580.801,-548 586.801,-548 586.801,-548 848.704,-548 848.704,-548 854.704,-548 860.704,-554 860.704,-560 860.704,-560 860.704,-572 860.704,-572 860.704,-578 854.704,-584 848.704,-584"/>
<text text-anchor="middle" x="717.752" y="-563" font-family="Times,serif" font-size="10.00" fill="#000033">VinaiKopp\PostCodeFilter\RuleComponents\CustomerGroupIdList</text>
</g>
<!-- VinaiKopp\\PostCodeFilter\\RuleComponents\\PostCode -->
<g id="node16" class="node"><title>VinaiKopp\\PostCodeFilter\\RuleComponents\\PostCode</title>
<path fill="#9999cc" stroke="black" d="M823.718,-541C823.718,-541 611.787,-541 611.787,-541 605.787,-541 599.787,-535 599.787,-529 599.787,-529 599.787,-517 599.787,-517 599.787,-511 605.787,-505 611.787,-505 611.787,-505 823.718,-505 823.718,-505 829.718,-505 835.718,-511 835.718,-517 835.718,-517 835.718,-529 835.718,-529 835.718,-535 829.718,-541 823.718,-541"/>
<text text-anchor="middle" x="717.752" y="-520" font-family="Times,serif" font-size="10.00" fill="#000033">VinaiKopp\PostCodeFilter\RuleComponents\PostCode</text>
</g>
<!-- VinaiKopp\\PostCodeFilter\\RuleComponents\\PostCodeList -->
<g id="node17" class="node"><title>VinaiKopp\\PostCodeFilter\\RuleComponents\\PostCodeList</title>
<path fill="#9999cc" stroke="black" d="M831.275,-498C831.275,-498 604.23,-498 604.23,-498 598.23,-498 592.23,-492 592.23,-486 592.23,-486 592.23,-474 592.23,-474 592.23,-468 598.23,-462 604.23,-462 604.23,-462 831.275,-462 831.275,-462 837.275,-462 843.275,-468 843.275,-474 843.275,-474 843.275,-486 843.275,-486 843.275,-492 837.275,-498 831.275,-498"/>
<text text-anchor="middle" x="717.752" y="-477" font-family="Times,serif" font-size="10.00" fill="#000033">VinaiKopp\PostCodeFilter\RuleComponents\PostCodeList</text>
</g>
<!-- VinaiKopp\\PostCodeFilter\\RuleRepository -->
<g id="node18" class="node"><title>VinaiKopp\\PostCodeFilter\\RuleRepository</title>
<path fill="#9999cc" stroke="black" d="M799.93,-455C799.93,-455 635.575,-455 635.575,-455 629.575,-455 623.575,-449 623.575,-443 623.575,-443 623.575,-431 623.575,-431 623.575,-425 629.575,-419 635.575,-419 635.575,-419 799.93,-419 799.93,-419 805.93,-419 811.93,-425 811.93,-431 811.93,-431 811.93,-443 811.93,-443 811.93,-449 805.93,-455 799.93,-455"/>
<text text-anchor="middle" x="717.752" y="-434" font-family="Times,serif" font-size="10.00" fill="#000033">VinaiKopp\PostCodeFilter\RuleRepository</text>
</g>
<!-- VinaiKopp\\PostCodeFilter\\RuleRepository&#45;&gt;VinaiKopp\\PostCodeFilter\\ReadModel\\RuleReader -->
<g id="edge4" class="edge"><title>VinaiKopp\\PostCodeFilter\\RuleRepository&#45;&gt;VinaiKopp\\PostCodeFilter\\ReadModel\\RuleReader</title>
<path fill="none" stroke="#999999" stroke-dasharray="5,2" d="M811.865,-431.98C870.889,-428.798 947.706,-424.657 1010.7,-421.261"/>
<polygon fill="#999999" stroke="#999999" points="1010.88,-423.355 1016.75,-420.935 1010.65,-419.161 1010.88,-423.355"/>
</g>
<!-- VinaiKopp\\PostCodeFilter\\WriteModel\\RuleWriter -->
<g id="node19" class="node"><title>VinaiKopp\\PostCodeFilter\\WriteModel\\RuleWriter</title>
<path fill="#9999cc" stroke="black" d="M1226.59,-476C1226.59,-476 1029.1,-476 1029.1,-476 1023.1,-476 1017.1,-470 1017.1,-464 1017.1,-464 1017.1,-452 1017.1,-452 1017.1,-446 1023.1,-440 1029.1,-440 1029.1,-440 1226.59,-440 1226.59,-440 1232.59,-440 1238.59,-446 1238.59,-452 1238.59,-452 1238.59,-464 1238.59,-464 1238.59,-470 1232.59,-476 1226.59,-476"/>
<text text-anchor="middle" x="1127.84" y="-455" font-family="Times,serif" font-size="10.00" fill="#000033">VinaiKopp\PostCodeFilter\WriteModel\RuleWriter</text>
</g>
<!-- VinaiKopp\\PostCodeFilter\\RuleRepository&#45;&gt;VinaiKopp\\PostCodeFilter\\WriteModel\\RuleWriter -->
<g id="edge3" class="edge"><title>VinaiKopp\\PostCodeFilter\\RuleRepository&#45;&gt;VinaiKopp\\PostCodeFilter\\WriteModel\\RuleWriter</title>
<path fill="none" stroke="#999999" stroke-dasharray="5,2" d="M811.865,-441.792C871.003,-444.835 948.003,-448.797 1011.07,-452.042"/>
<polygon fill="#999999" stroke="#999999" points="1011.03,-454.143 1017.13,-452.354 1011.24,-449.948 1011.03,-454.143"/>
</g>
<!-- VinaiKopp\\PostCodeFilter\\RuleStorage -->
<g id="node20" class="node"><title>VinaiKopp\\PostCodeFilter\\RuleStorage</title>
<path fill="#9999cc" stroke="black" d="M793.09,-412C793.09,-412 642.414,-412 642.414,-412 636.414,-412 630.414,-406 630.414,-400 630.414,-400 630.414,-388 630.414,-388 630.414,-382 636.414,-376 642.414,-376 642.414,-376 793.09,-376 793.09,-376 799.09,-376 805.09,-382 805.09,-388 805.09,-388 805.09,-400 805.09,-400 805.09,-406 799.09,-412 793.09,-412"/>
<text text-anchor="middle" x="717.752" y="-391" font-family="Times,serif" font-size="10.00" fill="#000033">VinaiKopp\PostCodeFilter\RuleStorage</text>
</g>
<!-- VinaiKopp\\PostCodeFilter\\UseCases\\AdminAddsRule -->
<g id="node21" class="node"><title>VinaiKopp\\PostCodeFilter\\UseCases\\AdminAddsRule</title>
<path fill="#9999cc" stroke="black" d="M823.095,-369C823.095,-369 612.41,-369 612.41,-369 606.41,-369 600.41,-363 600.41,-357 600.41,-357 600.41,-345 600.41,-345 600.41,-339 606.41,-333 612.41,-333 612.41,-333 823.095,-333 823.095,-333 829.095,-333 835.095,-339 835.095,-345 835.095,-345 835.095,-357 835.095,-357 835.095,-363 829.095,-369 823.095,-369"/>
<text text-anchor="middle" x="717.752" y="-348" font-family="Times,serif" font-size="10.00" fill="#000033">VinaiKopp\PostCodeFilter\UseCases\AdminAddsRule</text>
</g>
<!-- VinaiKopp\\PostCodeFilter\\UseCases\\AdminDeletesRule -->
<g id="node22" class="node"><title>VinaiKopp\\PostCodeFilter\\UseCases\\AdminDeletesRule</title>
<path fill="#9999cc" stroke="black" d="M827.467,-326C827.467,-326 608.037,-326 608.037,-326 602.037,-326 596.037,-320 596.037,-314 596.037,-314 596.037,-302 596.037,-302 596.037,-296 602.037,-290 608.037,-290 608.037,-290 827.467,-290 827.467,-290 833.467,-290 839.467,-296 839.467,-302 839.467,-302 839.467,-314 839.467,-314 839.467,-320 833.467,-326 827.467,-326"/>
<text text-anchor="middle" x="717.752" y="-305" font-family="Times,serif" font-size="10.00" fill="#000033">VinaiKopp\PostCodeFilter\UseCases\AdminDeletesRule</text>
</g>
<!-- VinaiKopp\\PostCodeFilter\\UseCases\\AdminUpdatesRule -->
<g id="node23" class="node"><title>VinaiKopp\\PostCodeFilter\\UseCases\\AdminUpdatesRule</title>
<path fill="#9999cc" stroke="black" d="M829.251,-283C829.251,-283 606.254,-283 606.254,-283 600.254,-283 594.254,-277 594.254,-271 594.254,-271 594.254,-259 594.254,-259 594.254,-253 600.254,-247 606.254,-247 606.254,-247 829.251,-247 829.251,-247 835.251,-247 841.251,-253 841.251,-259 841.251,-259 841.251,-271 841.251,-271 841.251,-277 835.251,-283 829.251,-283"/>
<text text-anchor="middle" x="717.752" y="-262" font-family="Times,serif" font-size="10.00" fill="#000033">VinaiKopp\PostCodeFilter\UseCases\AdminUpdatesRule</text>
</g>
<!-- VinaiKopp\\PostCodeFilter\\UseCases\\AdminViewsRuleList -->
<g id="node24" class="node"><title>VinaiKopp\\PostCodeFilter\\UseCases\\AdminViewsRuleList</title>
<path fill="#9999cc" stroke="black" d="M832.995,-240C832.995,-240 602.51,-240 602.51,-240 596.51,-240 590.51,-234 590.51,-228 590.51,-228 590.51,-216 590.51,-216 590.51,-210 596.51,-204 602.51,-204 602.51,-204 832.995,-204 832.995,-204 838.995,-204 844.995,-210 844.995,-216 844.995,-216 844.995,-228 844.995,-228 844.995,-234 838.995,-240 832.995,-240"/>
<text text-anchor="middle" x="717.752" y="-219" font-family="Times,serif" font-size="10.00" fill="#000033">VinaiKopp\PostCodeFilter\UseCases\AdminViewsRuleList</text>
</g>
<!-- VinaiKopp\\PostCodeFilter\\UseCases\\AdminViewsSingleRule -->
<g id="node25" class="node"><title>VinaiKopp\\PostCodeFilter\\UseCases\\AdminViewsSingleRule</title>
<path fill="#9999cc" stroke="black" d="M837.995,-197C837.995,-197 597.51,-197 597.51,-197 591.51,-197 585.51,-191 585.51,-185 585.51,-185 585.51,-173 585.51,-173 585.51,-167 591.51,-161 597.51,-161 597.51,-161 837.995,-161 837.995,-161 843.995,-161 849.995,-167 849.995,-173 849.995,-173 849.995,-185 849.995,-185 849.995,-191 843.995,-197 837.995,-197"/>
<text text-anchor="middle" x="717.752" y="-176" font-family="Times,serif" font-size="10.00" fill="#000033">VinaiKopp\PostCodeFilter\UseCases\AdminViewsSingleRule</text>
</g>
<!-- VinaiKopp\\PostCodeFilter\\UseCases\\CustomerSpecifiesShippingAddress -->
<g id="node26" class="node"><title>VinaiKopp\\PostCodeFilter\\UseCases\\CustomerSpecifiesShippingAddress</title>
<path fill="#9999cc" stroke="black" d="M861.204,-154C861.204,-154 574.301,-154 574.301,-154 568.301,-154 562.301,-148 562.301,-142 562.301,-142 562.301,-130 562.301,-130 562.301,-124 568.301,-118 574.301,-118 574.301,-118 861.204,-118 861.204,-118 867.204,-118 873.204,-124 873.204,-130 873.204,-130 873.204,-142 873.204,-142 873.204,-148 867.204,-154 861.204,-154"/>
<text text-anchor="middle" x="717.752" y="-133" font-family="Times,serif" font-size="10.00" fill="#000033">VinaiKopp\PostCodeFilter\UseCases\CustomerSpecifiesShippingAddress</text>
</g>
<!-- VinaiKopp\\PostCodeFilter\\WriteModel\\RuleToAdd -->
<g id="node27" class="node"><title>VinaiKopp\\PostCodeFilter\\WriteModel\\RuleToAdd</title>
<path fill="#9999cc" stroke="black" d="M817.43,-111C817.43,-111 618.075,-111 618.075,-111 612.075,-111 606.075,-105 606.075,-99 606.075,-99 606.075,-87 606.075,-87 606.075,-81 612.075,-75 618.075,-75 618.075,-75 817.43,-75 817.43,-75 823.43,-75 829.43,-81 829.43,-87 829.43,-87 829.43,-99 829.43,-99 829.43,-105 823.43,-111 817.43,-111"/>
<text text-anchor="middle" x="717.752" y="-90" font-family="Times,serif" font-size="10.00" fill="#000033">VinaiKopp\PostCodeFilter\WriteModel\RuleToAdd</text>
</g>
<!-- VinaiKopp\\PostCodeFilter\\WriteModel\\RuleToDelete -->
<g id="node28" class="node"><title>VinaiKopp\\PostCodeFilter\\WriteModel\\RuleToDelete</title>
<path fill="#9999cc" stroke="black" d="M821.802,-68C821.802,-68 613.703,-68 613.703,-68 607.703,-68 601.703,-62 601.703,-56 601.703,-56 601.703,-44 601.703,-44 601.703,-38 607.703,-32 613.703,-32 613.703,-32 821.802,-32 821.802,-32 827.802,-32 833.802,-38 833.802,-44 833.802,-44 833.802,-56 833.802,-56 833.802,-62 827.802,-68 821.802,-68"/>
<text text-anchor="middle" x="717.752" y="-47" font-family="Times,serif" font-size="10.00" fill="#000033">VinaiKopp\PostCodeFilter\WriteModel\RuleToDelete</text>
</g>
<!-- VinaiKopp_PostCodeFilter_Block_Adminhtml_Postcodefilter_Edit_Form -->
<g id="node29" class="node"><title>VinaiKopp_PostCodeFilter_Block_Adminhtml_Postcodefilter_Edit_Form</title>
<path fill="#9999cc" stroke="black" d="M367.518,-1182C367.518,-1182 78.1625,-1182 78.1625,-1182 72.1625,-1182 66.1625,-1176 66.1625,-1170 66.1625,-1170 66.1625,-1158 66.1625,-1158 66.1625,-1152 72.1625,-1146 78.1625,-1146 78.1625,-1146 367.518,-1146 367.518,-1146 373.518,-1146 379.518,-1152 379.518,-1158 379.518,-1158 379.518,-1170 379.518,-1170 379.518,-1176 373.518,-1182 367.518,-1182"/>
<text text-anchor="middle" x="222.84" y="-1161" font-family="Times,serif" font-size="10.00" fill="#000033">VinaiKopp_PostCodeFilter_Block_Adminhtml_Postcodefilter_Edit_Form</text>
</g>
<!-- VinaiKopp_PostCodeFilter_Block_Adminhtml_Postcodefilter_New_Form -->
<g id="node30" class="node"><title>VinaiKopp_PostCodeFilter_Block_Adminhtml_Postcodefilter_New_Form</title>
<path fill="#9999cc" stroke="black" d="M863.647,-1182C863.647,-1182 571.858,-1182 571.858,-1182 565.858,-1182 559.858,-1176 559.858,-1170 559.858,-1170 559.858,-1158 559.858,-1158 559.858,-1152 565.858,-1146 571.858,-1146 571.858,-1146 863.647,-1146 863.647,-1146 869.647,-1146 875.647,-1152 875.647,-1158 875.647,-1158 875.647,-1170 875.647,-1170 875.647,-1176 869.647,-1182 863.647,-1182"/>
<text text-anchor="middle" x="717.752" y="-1161" font-family="Times,serif" font-size="10.00" fill="#000033">VinaiKopp_PostCodeFilter_Block_Adminhtml_Postcodefilter_New_Form</text>
</g>
<!-- VinaiKopp_PostCodeFilter_Block_Adminhtml_Postcodefilter_Edit_Form&#45;&gt;VinaiKopp_PostCodeFilter_Block_Adminhtml_Postcodefilter_New_Form -->
<g id="edge5" class="edge"><title>VinaiKopp_PostCodeFilter_Block_Adminhtml_Postcodefilter_Edit_Form&#45;&gt;VinaiKopp_PostCodeFilter_Block_Adminhtml_Postcodefilter_New_Form</title>
<path fill="none" stroke="#999999" stroke-dasharray="5,2" d="M379.462,-1164C434.992,-1164 497.673,-1164 553.802,-1164"/>
<polygon fill="#999999" stroke="#999999" points="553.911,-1166.1 559.911,-1164 553.911,-1161.9 553.911,-1166.1"/>
</g>
<!-- Mage_Adminhtml_Block_Widget_Form -->
<g id="node35" class="node"><title>Mage_Adminhtml_Block_Widget_Form</title>
<path fill="#9999cc" stroke="black" d="M1205.82,-1182C1205.82,-1182 1049.87,-1182 1049.87,-1182 1043.87,-1182 1037.87,-1176 1037.87,-1170 1037.87,-1170 1037.87,-1158 1037.87,-1158 1037.87,-1152 1043.87,-1146 1049.87,-1146 1049.87,-1146 1205.82,-1146 1205.82,-1146 1211.82,-1146 1217.82,-1152 1217.82,-1158 1217.82,-1158 1217.82,-1170 1217.82,-1170 1217.82,-1176 1211.82,-1182 1205.82,-1182"/>
<text text-anchor="middle" x="1127.84" y="-1161" font-family="Times,serif" font-size="10.00" fill="#000033">Mage_Adminhtml_Block_Widget_Form</text>
</g>
<!-- VinaiKopp_PostCodeFilter_Block_Adminhtml_Postcodefilter_New_Form&#45;&gt;Mage_Adminhtml_Block_Widget_Form -->
<g id="edge8" class="edge"><title>VinaiKopp_PostCodeFilter_Block_Adminhtml_Postcodefilter_New_Form&#45;&gt;Mage_Adminhtml_Block_Widget_Form</title>
<path fill="none" stroke="#999999" stroke-dasharray="5,2" d="M875.656,-1164C928.331,-1164 985.44,-1164 1031.88,-1164"/>
<polygon fill="#999999" stroke="#999999" points="1032.06,-1166.1 1038.06,-1164 1032.06,-1161.9 1032.06,-1166.1"/>
</g>
<!-- VinaiKopp_PostCodeFilter_Block_Adminhtml_Postcodefilter_Edit -->
<g id="node31" class="node"><title>VinaiKopp_PostCodeFilter_Block_Adminhtml_Postcodefilter_Edit</title>
<path fill="#9999cc" stroke="black" d="M353.849,-1346C353.849,-1346 91.8321,-1346 91.8321,-1346 85.8321,-1346 79.8321,-1340 79.8321,-1334 79.8321,-1334 79.8321,-1322 79.8321,-1322 79.8321,-1316 85.8321,-1310 91.8321,-1310 91.8321,-1310 353.849,-1310 353.849,-1310 359.849,-1310 365.849,-1316 365.849,-1322 365.849,-1322 365.849,-1334 365.849,-1334 365.849,-1340 359.849,-1346 353.849,-1346"/>
<text text-anchor="middle" x="222.84" y="-1325" font-family="Times,serif" font-size="10.00" fill="#000033">VinaiKopp_PostCodeFilter_Block_Adminhtml_Postcodefilter_Edit</text>
</g>
<!-- Mage_Adminhtml_Block_Widget_Form_Container -->
<g id="node32" class="node"><title>Mage_Adminhtml_Block_Widget_Form_Container</title>
<path fill="#9999cc" stroke="black" d="M817.663,-1305C817.663,-1305 617.842,-1305 617.842,-1305 611.842,-1305 605.842,-1299 605.842,-1293 605.842,-1293 605.842,-1281 605.842,-1281 605.842,-1275 611.842,-1269 617.842,-1269 617.842,-1269 817.663,-1269 817.663,-1269 823.663,-1269 829.663,-1275 829.663,-1281 829.663,-1281 829.663,-1293 829.663,-1293 829.663,-1299 823.663,-1305 817.663,-1305"/>
<text text-anchor="middle" x="717.752" y="-1284" font-family="Times,serif" font-size="10.00" fill="#000033">Mage_Adminhtml_Block_Widget_Form_Container</text>
</g>
<!-- VinaiKopp_PostCodeFilter_Block_Adminhtml_Postcodefilter_Edit&#45;&gt;Mage_Adminhtml_Block_Widget_Form_Container -->
<g id="edge6" class="edge"><title>VinaiKopp_PostCodeFilter_Block_Adminhtml_Postcodefilter_Edit&#45;&gt;Mage_Adminhtml_Block_Widget_Form_Container</title>
<path fill="none" stroke="#999999" stroke-dasharray="5,2" d="M366.08,-1316.17C440.058,-1310.02 529.391,-1302.58 599.378,-1296.76"/>
<polygon fill="#999999" stroke="#999999" points="599.855,-1298.83 605.66,-1296.24 599.507,-1294.65 599.855,-1298.83"/>
</g>
<!-- VinaiKopp_PostCodeFilter_Block_Adminhtml_Postcodefilter_Grid -->
<g id="node33" class="node"><title>VinaiKopp_PostCodeFilter_Block_Adminhtml_Postcodefilter_Grid</title>
<path fill="#9999cc" stroke="black" d="M355.013,-1428C355.013,-1428 90.6674,-1428 90.6674,-1428 84.6674,-1428 78.6674,-1422 78.6674,-1416 78.6674,-1416 78.6674,-1404 78.6674,-1404 78.6674,-1398 84.6674,-1392 90.6674,-1392 90.6674,-1392 355.013,-1392 355.013,-1392 361.013,-1392 367.013,-1398 367.013,-1404 367.013,-1404 367.013,-1416 367.013,-1416 367.013,-1422 361.013,-1428 355.013,-1428"/>
<text text-anchor="middle" x="222.84" y="-1407" font-family="Times,serif" font-size="10.00" fill="#000033">VinaiKopp_PostCodeFilter_Block_Adminhtml_Postcodefilter_Grid</text>
</g>
<!-- Mage_Adminhtml_Block_Widget_Grid -->
<g id="node34" class="node"><title>Mage_Adminhtml_Block_Widget_Grid</title>
<path fill="#9999cc" stroke="black" d="M793.889,-1428C793.889,-1428 641.616,-1428 641.616,-1428 635.616,-1428 629.616,-1422 629.616,-1416 629.616,-1416 629.616,-1404 629.616,-1404 629.616,-1398 635.616,-1392 641.616,-1392 641.616,-1392 793.889,-1392 793.889,-1392 799.889,-1392 805.889,-1398 805.889,-1404 805.889,-1404 805.889,-1416 805.889,-1416 805.889,-1422 799.889,-1428 793.889,-1428"/>
<text text-anchor="middle" x="717.752" y="-1407" font-family="Times,serif" font-size="10.00" fill="#000033">Mage_Adminhtml_Block_Widget_Grid</text>
</g>
<!-- VinaiKopp_PostCodeFilter_Block_Adminhtml_Postcodefilter_Grid&#45;&gt;Mage_Adminhtml_Block_Widget_Grid -->
<g id="edge7" class="edge"><title>VinaiKopp_PostCodeFilter_Block_Adminhtml_Postcodefilter_Grid&#45;&gt;Mage_Adminhtml_Block_Widget_Grid</title>
<path fill="none" stroke="#999999" stroke-dasharray="5,2" d="M367.073,-1410C449.738,-1410 551.315,-1410 623.647,-1410"/>
<polygon fill="#999999" stroke="#999999" points="623.677,-1412.1 629.677,-1410 623.677,-1407.9 623.677,-1412.1"/>
</g>
<!-- VinaiKopp_PostCodeFilter_Block_Adminhtml_Postcodefilter_New -->
<g id="node36" class="node"><title>VinaiKopp_PostCodeFilter_Block_Adminhtml_Postcodefilter_New</title>
<path fill="#9999cc" stroke="black" d="M355.065,-1264C355.065,-1264 90.6156,-1264 90.6156,-1264 84.6156,-1264 78.6156,-1258 78.6156,-1252 78.6156,-1252 78.6156,-1240 78.6156,-1240 78.6156,-1234 84.6156,-1228 90.6156,-1228 90.6156,-1228 355.065,-1228 355.065,-1228 361.065,-1228 367.065,-1234 367.065,-1240 367.065,-1240 367.065,-1252 367.065,-1252 367.065,-1258 361.065,-1264 355.065,-1264"/>
<text text-anchor="middle" x="222.84" y="-1243" font-family="Times,serif" font-size="10.00" fill="#000033">VinaiKopp_PostCodeFilter_Block_Adminhtml_Postcodefilter_New</text>
</g>
<!-- VinaiKopp_PostCodeFilter_Block_Adminhtml_Postcodefilter_New&#45;&gt;Mage_Adminhtml_Block_Widget_Form_Container -->
<g id="edge9" class="edge"><title>VinaiKopp_PostCodeFilter_Block_Adminhtml_Postcodefilter_New&#45;&gt;Mage_Adminhtml_Block_Widget_Form_Container</title>
<path fill="none" stroke="#999999" stroke-dasharray="5,2" d="M367.073,-1257.91C440.881,-1264.05 529.764,-1271.45 599.448,-1277.24"/>
<polygon fill="#999999" stroke="#999999" points="599.551,-1279.36 605.704,-1277.76 599.899,-1275.17 599.551,-1279.36"/>
</g>
<!-- VinaiKopp_PostCodeFilter_Block_Adminhtml_Postcodefilter -->
<g id="node37" class="node"><title>VinaiKopp_PostCodeFilter_Block_Adminhtml_Postcodefilter</title>
<path fill="#9999cc" stroke="black" d="M343.183,-1510C343.183,-1510 102.498,-1510 102.498,-1510 96.4975,-1510 90.4975,-1504 90.4975,-1498 90.4975,-1498 90.4975,-1486 90.4975,-1486 90.4975,-1480 96.4975,-1474 102.498,-1474 102.498,-1474 343.183,-1474 343.183,-1474 349.183,-1474 355.183,-1480 355.183,-1486 355.183,-1486 355.183,-1498 355.183,-1498 355.183,-1504 349.183,-1510 343.183,-1510"/>
<text text-anchor="middle" x="222.84" y="-1489" font-family="Times,serif" font-size="10.00" fill="#000033">VinaiKopp_PostCodeFilter_Block_Adminhtml_Postcodefilter</text>
</g>
<!-- Mage_Adminhtml_Block_Widget_Grid_Container -->
<g id="node38" class="node"><title>Mage_Adminhtml_Block_Widget_Grid_Container</title>
<path fill="#9999cc" stroke="black" d="M815.823,-1510C815.823,-1510 619.682,-1510 619.682,-1510 613.682,-1510 607.682,-1504 607.682,-1498 607.682,-1498 607.682,-1486 607.682,-1486 607.682,-1480 613.682,-1474 619.682,-1474 619.682,-1474 815.823,-1474 815.823,-1474 821.823,-1474 827.823,-1480 827.823,-1486 827.823,-1486 827.823,-1498 827.823,-1498 827.823,-1504 821.823,-1510 815.823,-1510"/>
<text text-anchor="middle" x="717.752" y="-1489" font-family="Times,serif" font-size="10.00" fill="#000033">Mage_Adminhtml_Block_Widget_Grid_Container</text>
</g>
<!-- VinaiKopp_PostCodeFilter_Block_Adminhtml_Postcodefilter&#45;&gt;Mage_Adminhtml_Block_Widget_Grid_Container -->
<g id="edge10" class="edge"><title>VinaiKopp_PostCodeFilter_Block_Adminhtml_Postcodefilter&#45;&gt;Mage_Adminhtml_Block_Widget_Grid_Container</title>
<path fill="none" stroke="#999999" stroke-dasharray="5,2" d="M355.284,-1492C431.845,-1492 527.493,-1492 601.165,-1492"/>
<polygon fill="#999999" stroke="#999999" points="601.326,-1494.1 607.326,-1492 601.326,-1489.9 601.326,-1494.1"/>
</g>
<!-- VinaiKopp_PostCodeFilter_Helper_Data -->
<g id="node39" class="node"><title>VinaiKopp_PostCodeFilter_Helper_Data</title>
<path fill="#9999cc" stroke="black" d="M301.272,-1592C301.272,-1592 144.409,-1592 144.409,-1592 138.409,-1592 132.409,-1586 132.409,-1580 132.409,-1580 132.409,-1568 132.409,-1568 132.409,-1562 138.409,-1556 144.409,-1556 144.409,-1556 301.272,-1556 301.272,-1556 307.272,-1556 313.272,-1562 313.272,-1568 313.272,-1568 313.272,-1580 313.272,-1580 313.272,-1586 307.272,-1592 301.272,-1592"/>
<text text-anchor="middle" x="222.84" y="-1571" font-family="Times,serif" font-size="10.00" fill="#000033">VinaiKopp_PostCodeFilter_Helper_Data</text>
</g>
<!-- Mage_Core_Helper_Abstract -->
<g id="node40" class="node"><title>Mage_Core_Helper_Abstract</title>
<path fill="#9999cc" stroke="black" d="M773.044,-1592C773.044,-1592 662.461,-1592 662.461,-1592 656.461,-1592 650.461,-1586 650.461,-1580 650.461,-1580 650.461,-1568 650.461,-1568 650.461,-1562 656.461,-1556 662.461,-1556 662.461,-1556 773.044,-1556 773.044,-1556 779.044,-1556 785.044,-1562 785.044,-1568 785.044,-1568 785.044,-1580 785.044,-1580 785.044,-1586 779.044,-1592 773.044,-1592"/>
<text text-anchor="middle" x="717.752" y="-1571" font-family="Times,serif" font-size="10.00" fill="#000033">Mage_Core_Helper_Abstract</text>
</g>
<!-- VinaiKopp_PostCodeFilter_Helper_Data&#45;&gt;Mage_Core_Helper_Abstract -->
<g id="edge11" class="edge"><title>VinaiKopp_PostCodeFilter_Helper_Data&#45;&gt;Mage_Core_Helper_Abstract</title>
<path fill="none" stroke="#999999" stroke-dasharray="5,2" d="M313.389,-1574C408.256,-1574 556.222,-1574 644.114,-1574"/>
<polygon fill="#999999" stroke="#999999" points="644.337,-1576.1 650.337,-1574 644.337,-1571.9 644.337,-1576.1"/>
</g>
<!-- VinaiKopp_PostCodeFilter_Model_Observer -->
<g id="node41" class="node"><title>VinaiKopp_PostCodeFilter_Model_Observer</title>
<path fill="#9999cc" stroke="black" d="M309.447,-1674C309.447,-1674 136.233,-1674 136.233,-1674 130.233,-1674 124.233,-1668 124.233,-1662 124.233,-1662 124.233,-1650 124.233,-1650 124.233,-1644 130.233,-1638 136.233,-1638 136.233,-1638 309.447,-1638 309.447,-1638 315.447,-1638 321.447,-1644 321.447,-1650 321.447,-1650 321.447,-1662 321.447,-1662 321.447,-1668 315.447,-1674 309.447,-1674"/>
<text text-anchor="middle" x="222.84" y="-1653" font-family="Times,serif" font-size="10.00" fill="#000033">VinaiKopp_PostCodeFilter_Model_Observer</text>
</g>
<!-- VinaiKopp_PostCodeFilter_Model_Resource_RuleStorage -->
<g id="node42" class="node"><title>VinaiKopp_PostCodeFilter_Model_Resource_RuleStorage</title>
<path fill="#9999cc" stroke="black" d="M336.937,-412C336.937,-412 108.743,-412 108.743,-412 102.743,-412 96.7433,-406 96.7433,-400 96.7433,-400 96.7433,-388 96.7433,-388 96.7433,-382 102.743,-376 108.743,-376 108.743,-376 336.937,-376 336.937,-376 342.937,-376 348.937,-382 348.937,-388 348.937,-388 348.937,-400 348.937,-400 348.937,-406 342.937,-412 336.937,-412"/>
<text text-anchor="middle" x="222.84" y="-391" font-family="Times,serif" font-size="10.00" fill="#000033">VinaiKopp_PostCodeFilter_Model_Resource_RuleStorage</text>
</g>
<!-- VinaiKopp_PostCodeFilter_Model_Resource_RuleStorage&#45;&gt;VinaiKopp\\PostCodeFilter\\RuleStorage -->
<g id="edge12" class="edge"><title>VinaiKopp_PostCodeFilter_Model_Resource_RuleStorage&#45;&gt;VinaiKopp\\PostCodeFilter\\RuleStorage</title>
<path fill="none" stroke="#999999" stroke-dasharray="5,2" d="M349.179,-394C434.936,-394 546.731,-394 624.41,-394"/>
<polygon fill="#999999" stroke="#999999" points="624.41,-396.1 630.41,-394 624.41,-391.9 624.41,-396.1"/>
</g>
<!-- VinaiKopp_PostCodeFilter_Model_RuleCollection -->
<g id="node43" class="node"><title>VinaiKopp_PostCodeFilter_Model_RuleCollection</title>
<path fill="#9999cc" stroke="black" d="M321.344,-1756C321.344,-1756 124.337,-1756 124.337,-1756 118.337,-1756 112.337,-1750 112.337,-1744 112.337,-1744 112.337,-1732 112.337,-1732 112.337,-1726 118.337,-1720 124.337,-1720 124.337,-1720 321.344,-1720 321.344,-1720 327.344,-1720 333.344,-1726 333.344,-1732 333.344,-1732 333.344,-1744 333.344,-1744 333.344,-1750 327.344,-1756 321.344,-1756"/>
<text text-anchor="middle" x="222.84" y="-1735" font-family="Times,serif" font-size="10.00" fill="#000033">VinaiKopp_PostCodeFilter_Model_RuleCollection</text>
</g>
<!-- Varien_Data_Collection_Db -->
<g id="node44" class="node"><title>Varien_Data_Collection_Db</title>
<path fill="#9999cc" stroke="black" d="M770.61,-1756C770.61,-1756 664.895,-1756 664.895,-1756 658.895,-1756 652.895,-1750 652.895,-1744 652.895,-1744 652.895,-1732 652.895,-1732 652.895,-1726 658.895,-1720 664.895,-1720 664.895,-1720 770.61,-1720 770.61,-1720 776.61,-1720 782.61,-1726 782.61,-1732 782.61,-1732 782.61,-1744 782.61,-1744 782.61,-1750 776.61,-1756 770.61,-1756"/>
<text text-anchor="middle" x="717.752" y="-1735" font-family="Times,serif" font-size="10.00" fill="#000033">Varien_Data_Collection_Db</text>
</g>
<!-- VinaiKopp_PostCodeFilter_Model_RuleCollection&#45;&gt;Varien_Data_Collection_Db -->
<g id="edge13" class="edge"><title>VinaiKopp_PostCodeFilter_Model_RuleCollection&#45;&gt;Varien_Data_Collection_Db</title>
<path fill="none" stroke="#999999" stroke-dasharray="5,2" d="M333.54,-1738C429.063,-1738 564.692,-1738 646.357,-1738"/>
<polygon fill="#999999" stroke="#999999" points="646.628,-1740.1 652.628,-1738 646.628,-1735.9 646.628,-1740.1"/>
</g>
<!-- VinaiKopp_PostCodeFilter_Adminhtml_Vinaikopp_PostcodefilterController -->
<g id="node45" class="node"><title>VinaiKopp_PostCodeFilter_Adminhtml_Vinaikopp_PostcodefilterController</title>
<path fill="#9999cc" stroke="black" d="M372.521,-1838C372.521,-1838 73.1595,-1838 73.1595,-1838 67.1595,-1838 61.1595,-1832 61.1595,-1826 61.1595,-1826 61.1595,-1814 61.1595,-1814 61.1595,-1808 67.1595,-1802 73.1595,-1802 73.1595,-1802 372.521,-1802 372.521,-1802 378.521,-1802 384.521,-1808 384.521,-1814 384.521,-1814 384.521,-1826 384.521,-1826 384.521,-1832 378.521,-1838 372.521,-1838"/>
<text text-anchor="middle" x="222.84" y="-1817" font-family="Times,serif" font-size="10.00" fill="#000033">VinaiKopp_PostCodeFilter_Adminhtml_Vinaikopp_PostcodefilterController</text>
</g>
<!-- Mage_Adminhtml_Controller_Action -->
<g id="node46" class="node"><title>Mage_Adminhtml_Controller_Action</title>
<path fill="#9999cc" stroke="black" d="M789.955,-1838C789.955,-1838 645.55,-1838 645.55,-1838 639.55,-1838 633.55,-1832 633.55,-1826 633.55,-1826 633.55,-1814 633.55,-1814 633.55,-1808 639.55,-1802 645.55,-1802 645.55,-1802 789.955,-1802 789.955,-1802 795.955,-1802 801.955,-1808 801.955,-1814 801.955,-1814 801.955,-1826 801.955,-1826 801.955,-1832 795.955,-1838 789.955,-1838"/>
<text text-anchor="middle" x="717.752" y="-1817" font-family="Times,serif" font-size="10.00" fill="#000033">Mage_Adminhtml_Controller_Action</text>
</g>
<!-- VinaiKopp_PostCodeFilter_Adminhtml_Vinaikopp_PostcodefilterController&#45;&gt;Mage_Adminhtml_Controller_Action -->
<g id="edge14" class="edge"><title>VinaiKopp_PostCodeFilter_Adminhtml_Vinaikopp_PostcodefilterController&#45;&gt;Mage_Adminhtml_Controller_Action</title>
<path fill="none" stroke="#999999" stroke-dasharray="5,2" d="M384.556,-1820C465.142,-1820 559.699,-1820 627.279,-1820"/>
<polygon fill="#999999" stroke="#999999" points="627.324,-1822.1 633.323,-1820 627.323,-1817.9 627.324,-1822.1"/>
</g>
<!-- VinaiKopp_PostCodeFilter_Frontend_CheckController -->
<g id="node47" class="node"><title>VinaiKopp_PostCodeFilter_Frontend_CheckController</title>
<path fill="#9999cc" stroke="black" d="M329.447,-1920C329.447,-1920 116.234,-1920 116.234,-1920 110.234,-1920 104.234,-1914 104.234,-1908 104.234,-1908 104.234,-1896 104.234,-1896 104.234,-1890 110.234,-1884 116.234,-1884 116.234,-1884 329.447,-1884 329.447,-1884 335.447,-1884 341.447,-1890 341.447,-1896 341.447,-1896 341.447,-1908 341.447,-1908 341.447,-1914 335.447,-1920 329.447,-1920"/>
<text text-anchor="middle" x="222.84" y="-1899" font-family="Times,serif" font-size="10.00" fill="#000033">VinaiKopp_PostCodeFilter_Frontend_CheckController</text>
</g>
<!-- Mage_Core_Controller_Front_Action -->
<g id="node48" class="node"><title>Mage_Core_Controller_Front_Action</title>
<path fill="#9999cc" stroke="black" d="M789.95,-1920C789.95,-1920 645.555,-1920 645.555,-1920 639.555,-1920 633.555,-1914 633.555,-1908 633.555,-1908 633.555,-1896 633.555,-1896 633.555,-1890 639.555,-1884 645.555,-1884 645.555,-1884 789.95,-1884 789.95,-1884 795.95,-1884 801.95,-1890 801.95,-1896 801.95,-1896 801.95,-1908 801.95,-1908 801.95,-1914 795.95,-1920 789.95,-1920"/>
<text text-anchor="middle" x="717.752" y="-1899" font-family="Times,serif" font-size="10.00" fill="#000033">Mage_Core_Controller_Front_Action</text>
</g>
<!-- VinaiKopp_PostCodeFilter_Frontend_CheckController&#45;&gt;Mage_Core_Controller_Front_Action -->
<g id="edge15" class="edge"><title>VinaiKopp_PostCodeFilter_Frontend_CheckController&#45;&gt;Mage_Core_Controller_Front_Action</title>
<path fill="none" stroke="#999999" stroke-dasharray="5,2" d="M341.592,-1902C429.298,-1902 547.232,-1902 627.295,-1902"/>
<polygon fill="#999999" stroke="#999999" points="627.474,-1904.1 633.474,-1902 627.474,-1899.9 627.474,-1904.1"/>
</g>
</g>
</svg>
