<?xml version="1.0" encoding="UTF-8" standalone="no"?>
<!DOCTYPE svg PUBLIC "-//W3C//DTD SVG 1.1//EN"
 "http://www.w3.org/Graphics/SVG/1.1/DTD/svg11.dtd">
<!-- Generated by graphviz version 2.38.0 (20140413.2041)
 -->
<!-- Title: G Pages: 1 -->
<svg width="1286pt" height="2091pt"
 viewBox="0.00 0.00 1286.19 2091.00" xmlns="http://www.w3.org/2000/svg" xmlns:xlink="http://www.w3.org/1999/xlink">
<g id="graph0" class="graph" transform="scale(1 1) rotate(0) translate(4 2087)">
<title>G</title>
<polygon fill="white" stroke="none" points="-4,4 -4,-2087 1282.19,-2087 1282.19,4 -4,4"/>
<text text-anchor="middle" x="639.095" y="-5.6" font-family="Times,serif" font-size="8.00">PhpDependencyAnalyse by Marco Muths (v0.5.0)</text>
<g id="clust1" class="cluster"><title>cluster_0</title>
<path fill="#ccccff" stroke="#000033" d="M532.681,-24C532.681,-24 1258.19,-24 1258.19,-24 1264.19,-24 1270.19,-30 1270.19,-36 1270.19,-36 1270.19,-1161 1270.19,-1161 1270.19,-1167 1264.19,-1173 1258.19,-1173 1258.19,-1173 532.681,-1173 532.681,-1173 526.681,-1173 520.681,-1167 520.681,-1161 520.681,-1161 520.681,-36 520.681,-36 520.681,-30 526.681,-24 532.681,-24"/>
<text text-anchor="middle" x="559.371" y="-1157.8" font-family="Times,serif" font-size="14.00" fill="#000033">VinaiKopp</text>
</g>
<g id="clust2" class="cluster"><title>cluster_1</title>
<path fill="#ccccff" stroke="#000033" d="M19.2515,-1181C19.2515,-1181 426.429,-1181 426.429,-1181 432.429,-1181 438.429,-1187 438.429,-1193 438.429,-1193 438.429,-1243 438.429,-1243 438.429,-1249 432.429,-1255 426.429,-1255 426.429,-1255 19.2515,-1255 19.2515,-1255 13.2515,-1255 7.25146,-1249 7.25146,-1243 7.25146,-1243 7.25146,-1193 7.25146,-1193 7.25146,-1187 13.2515,-1181 19.2515,-1181"/>
<text text-anchor="middle" x="223.276" y="-1239.8" font-family="Times,serif" font-size="14.00" fill="#000033">VinaiKopp_PostCodeFilter_Block_Adminhtml_Postcodefilter_Edit_Form</text>
</g>
<g id="clust3" class="cluster"><title>cluster_2</title>
<path fill="#ccccff" stroke="#000033" d="M513.055,-1181C513.055,-1181 923.45,-1181 923.45,-1181 929.45,-1181 935.45,-1187 935.45,-1193 935.45,-1193 935.45,-1243 935.45,-1243 935.45,-1249 929.45,-1255 923.45,-1255 923.45,-1255 513.055,-1255 513.055,-1255 507.055,-1255 501.055,-1249 501.055,-1243 501.055,-1243 501.055,-1193 501.055,-1193 501.055,-1187 507.055,-1181 513.055,-1181"/>
<text text-anchor="middle" x="718.631" y="-1239.8" font-family="Times,serif" font-size="14.00" fill="#000033">VinaiKopp_PostCodeFilter_Block_Adminhtml_Postcodefilter_New_Form</text>
</g>
<g id="clust4" class="cluster"><title>cluster_3</title>
<path fill="#ccccff" stroke="#000033" d="M37.5864,-1345C37.5864,-1345 408.094,-1345 408.094,-1345 414.094,-1345 420.094,-1351 420.094,-1357 420.094,-1357 420.094,-1407 420.094,-1407 420.094,-1413 414.094,-1419 408.094,-1419 408.094,-1419 37.5864,-1419 37.5864,-1419 31.5864,-1419 25.5864,-1413 25.5864,-1407 25.5864,-1407 25.5864,-1357 25.5864,-1357 25.5864,-1351 31.5864,-1345 37.5864,-1345"/>
<text text-anchor="middle" x="222.942" y="-1403.8" font-family="Times,serif" font-size="14.00" fill="#000033">VinaiKopp_PostCodeFilter_Block_Adminhtml_Postcodefilter_Edit</text>
</g>
<g id="clust5" class="cluster"><title>cluster_4</title>
<path fill="#ccccff" stroke="#000033" d="M576.797,-1304C576.797,-1304 859.708,-1304 859.708,-1304 865.708,-1304 871.708,-1310 871.708,-1316 871.708,-1316 871.708,-1366 871.708,-1366 871.708,-1372 865.708,-1378 859.708,-1378 859.708,-1378 576.797,-1378 576.797,-1378 570.797,-1378 564.797,-1372 564.797,-1366 564.797,-1366 564.797,-1316 564.797,-1316 564.797,-1310 570.797,-1304 576.797,-1304"/>
<text text-anchor="middle" x="718.334" y="-1362.8" font-family="Times,serif" font-size="14.00" fill="#000033">Mage_Adminhtml_Block_Widget_Form_Container</text>
</g>
<g id="clust6" class="cluster"><title>cluster_5</title>
<path fill="#ccccff" stroke="#000033" d="M36.7539,-1427C36.7539,-1427 408.927,-1427 408.927,-1427 414.927,-1427 420.927,-1433 420.927,-1439 420.927,-1439 420.927,-1489 420.927,-1489 420.927,-1495 414.927,-1501 408.927,-1501 408.927,-1501 36.7539,-1501 36.7539,-1501 30.7539,-1501 24.7539,-1495 24.7539,-1489 24.7539,-1489 24.7539,-1439 24.7539,-1439 24.7539,-1433 30.7539,-1427 36.7539,-1427"/>
<text text-anchor="middle" x="223.275" y="-1485.8" font-family="Times,serif" font-size="14.00" fill="#000033">VinaiKopp_PostCodeFilter_Block_Adminhtml_Postcodefilter_Grid</text>
</g>
<g id="clust7" class="cluster"><title>cluster_6</title>
<path fill="#ccccff" stroke="#000033" d="M609.684,-1427C609.684,-1427 825.821,-1427 825.821,-1427 831.821,-1427 837.821,-1433 837.821,-1439 837.821,-1439 837.821,-1489 837.821,-1489 837.821,-1495 831.821,-1501 825.821,-1501 825.821,-1501 609.684,-1501 609.684,-1501 603.684,-1501 597.684,-1495 597.684,-1489 597.684,-1489 597.684,-1439 597.684,-1439 597.684,-1433 603.684,-1427 609.684,-1427"/>
<text text-anchor="middle" x="717.78" y="-1485.8" font-family="Times,serif" font-size="14.00" fill="#000033">Mage_Adminhtml_Block_Widget_Grid</text>
</g>
<g id="clust8" class="cluster"><title>cluster_7</title>
<path fill="#ccccff" stroke="#000033" d="M1024.77,-1181C1024.77,-1181 1245.25,-1181 1245.25,-1181 1251.25,-1181 1257.25,-1187 1257.25,-1193 1257.25,-1193 1257.25,-1243 1257.25,-1243 1257.25,-1249 1251.25,-1255 1245.25,-1255 1245.25,-1255 1024.77,-1255 1024.77,-1255 1018.77,-1255 1012.77,-1249 1012.77,-1243 1012.77,-1243 1012.77,-1193 1012.77,-1193 1012.77,-1187 1018.77,-1181 1024.77,-1181"/>
<text text-anchor="middle" x="1135.2" y="-1239.8" font-family="Times,serif" font-size="14.00" fill="#000033">Mage_Adminhtml_Block_Widget_Form</text>
</g>
<g id="clust9" class="cluster"><title>cluster_8</title>
<path fill="#ccccff" stroke="#000033" d="M36.478,-1263C36.478,-1263 410.203,-1263 410.203,-1263 416.203,-1263 422.203,-1269 422.203,-1275 422.203,-1275 422.203,-1325 422.203,-1325 422.203,-1331 416.203,-1337 410.203,-1337 410.203,-1337 36.478,-1337 36.478,-1337 30.478,-1337 24.478,-1331 24.478,-1325 24.478,-1325 24.478,-1275 24.478,-1275 24.478,-1269 30.478,-1263 36.478,-1263"/>
<text text-anchor="middle" x="223.385" y="-1321.8" font-family="Times,serif" font-size="14.00" fill="#000033">VinaiKopp_PostCodeFilter_Block_Adminhtml_Postcodefilter_New</text>
</g>
<g id="clust10" class="cluster"><title>cluster_9</title>
<path fill="#ccccff" stroke="#000033" d="M53.4189,-1509C53.4189,-1509 393.262,-1509 393.262,-1509 399.262,-1509 405.262,-1515 405.262,-1521 405.262,-1521 405.262,-1571 405.262,-1571 405.262,-1577 399.262,-1583 393.262,-1583 393.262,-1583 53.4189,-1583 53.4189,-1583 47.4189,-1583 41.4189,-1577 41.4189,-1571 41.4189,-1571 41.4189,-1521 41.4189,-1521 41.4189,-1515 47.4189,-1509 53.4189,-1509"/>
<text text-anchor="middle" x="223.609" y="-1567.8" font-family="Times,serif" font-size="14.00" fill="#000033">VinaiKopp_PostCodeFilter_Block_Adminhtml_Postcodefilter</text>
</g>
<g id="clust11" class="cluster"><title>cluster_10</title>
<path fill="#ccccff" stroke="#000033" d="M579.467,-1509C579.467,-1509 857.038,-1509 857.038,-1509 863.038,-1509 869.038,-1515 869.038,-1521 869.038,-1521 869.038,-1571 869.038,-1571 869.038,-1577 863.038,-1583 857.038,-1583 857.038,-1583 579.467,-1583 579.467,-1583 573.467,-1583 567.467,-1577 567.467,-1571 567.467,-1571 567.467,-1521 567.467,-1521 567.467,-1515 573.467,-1509 579.467,-1509"/>
<text text-anchor="middle" x="718.667" y="-1567.8" font-family="Times,serif" font-size="14.00" fill="#000033">Mage_Adminhtml_Block_Widget_Grid_Container</text>
</g>
<g id="clust12" class="cluster"><title>cluster_11</title>
<path fill="#ccccff" stroke="#000033" d="M112.375,-1673C112.375,-1673 334.306,-1673 334.306,-1673 340.306,-1673 346.306,-1679 346.306,-1685 346.306,-1685 346.306,-1735 346.306,-1735 346.306,-1741 340.306,-1747 334.306,-1747 334.306,-1747 112.375,-1747 112.375,-1747 106.375,-1747 100.375,-1741 100.375,-1735 100.375,-1735 100.375,-1685 100.375,-1685 100.375,-1679 106.375,-1673 112.375,-1673"/>
<text text-anchor="middle" x="223.827" y="-1731.8" font-family="Times,serif" font-size="14.00" fill="#000033">VinaiKopp_PostCodeFilter_Helper_Data</text>
</g>
<g id="clust13" class="cluster"><title>cluster_12</title>
<path fill="#ccccff" stroke="#000033" d="M639.607,-1632C639.607,-1632 796.898,-1632 796.898,-1632 802.898,-1632 808.898,-1638 808.898,-1644 808.898,-1644 808.898,-1694 808.898,-1694 808.898,-1700 802.898,-1706 796.898,-1706 796.898,-1706 639.607,-1706 639.607,-1706 633.607,-1706 627.607,-1700 627.607,-1694 627.607,-1694 627.607,-1644 627.607,-1644 627.607,-1638 633.607,-1632 639.607,-1632"/>
<text text-anchor="middle" x="718.411" y="-1690.8" font-family="Times,serif" font-size="14.00" fill="#000033">Mage_Core_Helper_Abstract</text>
</g>
<g id="clust14" class="cluster"><title>cluster_13</title>
<path fill="#ccccff" stroke="#000033" d="M103.54,-1591C103.54,-1591 342.141,-1591 342.141,-1591 348.141,-1591 354.141,-1597 354.141,-1603 354.141,-1603 354.141,-1653 354.141,-1653 354.141,-1659 348.141,-1665 342.141,-1665 342.141,-1665 103.54,-1665 103.54,-1665 97.5396,-1665 91.5396,-1659 91.5396,-1653 91.5396,-1653 91.5396,-1603 91.5396,-1603 91.5396,-1597 97.5396,-1591 103.54,-1591"/>
<text text-anchor="middle" x="223.161" y="-1649.8" font-family="Times,serif" font-size="14.00" fill="#000033">VinaiKopp_PostCodeFilter_Helper_Factory</text>
</g>
<g id="clust15" class="cluster"><title>cluster_14</title>
<path fill="#ccccff" stroke="#000033" d="M100.037,-1755C100.037,-1755 345.644,-1755 345.644,-1755 351.644,-1755 357.644,-1761 357.644,-1767 357.644,-1767 357.644,-1817 357.644,-1817 357.644,-1823 351.644,-1829 345.644,-1829 345.644,-1829 100.037,-1829 100.037,-1829 94.0371,-1829 88.0371,-1823 88.0371,-1817 88.0371,-1817 88.0371,-1767 88.0371,-1767 88.0371,-1761 94.0371,-1755 100.037,-1755"/>
<text text-anchor="middle" x="223.162" y="-1813.8" font-family="Times,serif" font-size="14.00" fill="#000033">VinaiKopp_PostCodeFilter_Model_Observer</text>
</g>
<g id="clust16" class="cluster"><title>cluster_15</title>
<path fill="#ccccff" stroke="#000033" d="M61.542,-110C61.542,-110 384.139,-110 384.139,-110 390.139,-110 396.139,-116 396.139,-122 396.139,-122 396.139,-172 396.139,-172 396.139,-178 390.139,-184 384.139,-184 384.139,-184 61.542,-184 61.542,-184 55.542,-184 49.542,-178 49.542,-172 49.542,-172 49.542,-122 49.542,-122 49.542,-116 55.542,-110 61.542,-110"/>
<text text-anchor="middle" x="223.16" y="-168.8" font-family="Times,serif" font-size="14.00" fill="#000033">VinaiKopp_PostCodeFilter_Model_Resource_RuleStorage</text>
</g>
<g id="clust17" class="cluster"><title>cluster_16</title>
<path fill="#ccccff" stroke="#000033" d="M83.0889,-1837C83.0889,-1837 362.592,-1837 362.592,-1837 368.592,-1837 374.592,-1843 374.592,-1849 374.592,-1849 374.592,-1899 374.592,-1899 374.592,-1905 368.592,-1911 362.592,-1911 362.592,-1911 83.0889,-1911 83.0889,-1911 77.0889,-1911 71.0889,-1905 71.0889,-1899 71.0889,-1899 71.0889,-1849 71.0889,-1849 71.0889,-1843 77.0889,-1837 83.0889,-1837"/>
<text text-anchor="middle" x="222.941" y="-1895.8" font-family="Times,serif" font-size="14.00" fill="#000033">VinaiKopp_PostCodeFilter_Model_RuleCollection</text>
</g>
<g id="clust18" class="cluster"><title>cluster_17</title>
<path fill="#ccccff" stroke="#000033" d="M642.824,-1837C642.824,-1837 793.681,-1837 793.681,-1837 799.681,-1837 805.681,-1843 805.681,-1849 805.681,-1849 805.681,-1899 805.681,-1899 805.681,-1905 799.681,-1911 793.681,-1911 793.681,-1911 642.824,-1911 642.824,-1911 636.824,-1911 630.824,-1905 630.824,-1899 630.824,-1899 630.824,-1849 630.824,-1849 630.824,-1843 636.824,-1837 642.824,-1837"/>
<text text-anchor="middle" x="718.524" y="-1895.8" font-family="Times,serif" font-size="14.00" fill="#000033">Varien_Data_Collection_Db</text>
</g>
<g id="clust19" class="cluster"><title>cluster_18</title>
<path fill="#ccccff" stroke="#000033" d="M12,-1919C12,-1919 434.681,-1919 434.681,-1919 440.681,-1919 446.681,-1925 446.681,-1931 446.681,-1931 446.681,-1981 446.681,-1981 446.681,-1987 440.681,-1993 434.681,-1993 434.681,-1993 12,-1993 12,-1993 6,-1993 0,-1987 0,-1981 0,-1981 0,-1931 0,-1931 0,-1925 6,-1919 12,-1919"/>
<text text-anchor="middle" x="223.376" y="-1977.8" font-family="Times,serif" font-size="14.00" fill="#000033">VinaiKopp_PostCodeFilter_Adminhtml_Vinaikopp_PostcodefilterController</text>
</g>
<g id="clust20" class="cluster"><title>cluster_19</title>
<path fill="#ccccff" stroke="#000033" d="M615.651,-1919C615.651,-1919 819.854,-1919 819.854,-1919 825.854,-1919 831.854,-1925 831.854,-1931 831.854,-1931 831.854,-1981 831.854,-1981 831.854,-1987 825.854,-1993 819.854,-1993 819.854,-1993 615.651,-1993 615.651,-1993 609.651,-1993 603.651,-1987 603.651,-1981 603.651,-1981 603.651,-1931 603.651,-1931 603.651,-1925 609.651,-1919 615.651,-1919"/>
<text text-anchor="middle" x="718.193" y="-1977.8" font-family="Times,serif" font-size="14.00" fill="#000033">Mage_Adminhtml_Controller_Action</text>
</g>
<g id="clust21" class="cluster"><title>cluster_20</title>
<path fill="#ccccff" stroke="#000033" d="M72.0371,-2001C72.0371,-2001 373.644,-2001 373.644,-2001 379.644,-2001 385.644,-2007 385.644,-2013 385.644,-2013 385.644,-2063 385.644,-2063 385.644,-2069 379.644,-2075 373.644,-2075 373.644,-2075 72.0371,-2075 72.0371,-2075 66.0371,-2075 60.0371,-2069 60.0371,-2063 60.0371,-2063 60.0371,-2013 60.0371,-2013 60.0371,-2007 66.0371,-2001 72.0371,-2001"/>
<text text-anchor="middle" x="223.162" y="-2059.8" font-family="Times,serif" font-size="14.00" fill="#000033">VinaiKopp_PostCodeFilter_Frontend_CheckController</text>
</g>
<g id="clust22" class="cluster"><title>cluster_21</title>
<path fill="#ccccff" stroke="#000033" d="M615.654,-2001C615.654,-2001 819.851,-2001 819.851,-2001 825.851,-2001 831.851,-2007 831.851,-2013 831.851,-2013 831.851,-2063 831.851,-2063 831.851,-2069 825.851,-2075 819.851,-2075 819.851,-2075 615.654,-2075 615.654,-2075 609.654,-2075 603.654,-2069 603.654,-2063 603.654,-2063 603.654,-2013 603.654,-2013 603.654,-2007 609.654,-2001 615.654,-2001"/>
<text text-anchor="middle" x="718.192" y="-2059.8" font-family="Times,serif" font-size="14.00" fill="#000033">Mage_Core_Controller_Front_Action</text>
</g>
<!-- VinaiKopp\\PostCodeFilter\\AdminAddsRule -->
<g id="node1" class="node"><title>VinaiKopp\\PostCodeFilter\\AdminAddsRule</title>
<path fill="#9999cc" stroke="black" d="M802.435,-1143C802.435,-1143 633.07,-1143 633.07,-1143 627.07,-1143 621.07,-1137 621.07,-1131 621.07,-1131 621.07,-1119 621.07,-1119 621.07,-1113 627.07,-1107 633.07,-1107 633.07,-1107 802.435,-1107 802.435,-1107 808.435,-1107 814.435,-1113 814.435,-1119 814.435,-1119 814.435,-1131 814.435,-1131 814.435,-1137 808.435,-1143 802.435,-1143"/>
<text text-anchor="middle" x="717.752" y="-1122" font-family="Times,serif" font-size="10.00" fill="#000033">VinaiKopp\PostCodeFilter\AdminAddsRule</text>
</g>
<!-- VinaiKopp\\PostCodeFilter\\AdminDeletesRule -->
<g id="node2" class="node"><title>VinaiKopp\\PostCodeFilter\\AdminDeletesRule</title>
<path fill="#9999cc" stroke="black" d="M806.807,-1100C806.807,-1100 628.698,-1100 628.698,-1100 622.698,-1100 616.698,-1094 616.698,-1088 616.698,-1088 616.698,-1076 616.698,-1076 616.698,-1070 622.698,-1064 628.698,-1064 628.698,-1064 806.807,-1064 806.807,-1064 812.807,-1064 818.807,-1070 818.807,-1076 818.807,-1076 818.807,-1088 818.807,-1088 818.807,-1094 812.807,-1100 806.807,-1100"/>
<text text-anchor="middle" x="717.752" y="-1079" font-family="Times,serif" font-size="10.00" fill="#000033">VinaiKopp\PostCodeFilter\AdminDeletesRule</text>
</g>
<!-- VinaiKopp\\PostCodeFilter\\AdminUpdatesRule -->
<g id="node3" class="node"><title>VinaiKopp\\PostCodeFilter\\AdminUpdatesRule</title>
<path fill="#9999cc" stroke="black" d="M808.09,-1057C808.09,-1057 627.414,-1057 627.414,-1057 621.414,-1057 615.414,-1051 615.414,-1045 615.414,-1045 615.414,-1033 615.414,-1033 615.414,-1027 621.414,-1021 627.414,-1021 627.414,-1021 808.09,-1021 808.09,-1021 814.09,-1021 820.09,-1027 820.09,-1033 820.09,-1033 820.09,-1045 820.09,-1045 820.09,-1051 814.09,-1057 808.09,-1057"/>
<text text-anchor="middle" x="717.752" y="-1036" font-family="Times,serif" font-size="10.00" fill="#000033">VinaiKopp\PostCodeFilter\AdminUpdatesRule</text>
</g>
<!-- VinaiKopp\\PostCodeFilter\\AdminViewsRuleList -->
<g id="node4" class="node"><title>VinaiKopp\\PostCodeFilter\\AdminViewsRuleList</title>
<path fill="#9999cc" stroke="black" d="M811.835,-1014C811.835,-1014 623.67,-1014 623.67,-1014 617.67,-1014 611.67,-1008 611.67,-1002 611.67,-1002 611.67,-990 611.67,-990 611.67,-984 617.67,-978 623.67,-978 623.67,-978 811.835,-978 811.835,-978 817.835,-978 823.835,-984 823.835,-990 823.835,-990 823.835,-1002 823.835,-1002 823.835,-1008 817.835,-1014 811.835,-1014"/>
<text text-anchor="middle" x="717.752" y="-993" font-family="Times,serif" font-size="10.00" fill="#000033">VinaiKopp\PostCodeFilter\AdminViewsRuleList</text>
</g>
<!-- VinaiKopp\\PostCodeFilter\\AdminViewsSingleRule -->
<g id="node5" class="node"><title>VinaiKopp\\PostCodeFilter\\AdminViewsSingleRule</title>
<path fill="#9999cc" stroke="black" d="M816.835,-971C816.835,-971 618.67,-971 618.67,-971 612.67,-971 606.67,-965 606.67,-959 606.67,-959 606.67,-947 606.67,-947 606.67,-941 612.67,-935 618.67,-935 618.67,-935 816.835,-935 816.835,-935 822.835,-935 828.835,-941 828.835,-947 828.835,-947 828.835,-959 828.835,-959 828.835,-965 822.835,-971 816.835,-971"/>
<text text-anchor="middle" x="717.752" y="-950" font-family="Times,serif" font-size="10.00" fill="#000033">VinaiKopp\PostCodeFilter\AdminViewsSingleRule</text>
</g>
<!-- VinaiKopp\\PostCodeFilter\\CustomerSpecifiesShippingAddress -->
<g id="node6" class="node"><title>VinaiKopp\\PostCodeFilter\\CustomerSpecifiesShippingAddress</title>
<path fill="#9999cc" stroke="black" d="M840.544,-928C840.544,-928 594.961,-928 594.961,-928 588.961,-928 582.961,-922 582.961,-916 582.961,-916 582.961,-904 582.961,-904 582.961,-898 588.961,-892 594.961,-892 594.961,-892 840.544,-892 840.544,-892 846.544,-892 852.544,-898 852.544,-904 852.544,-904 852.544,-916 852.544,-916 852.544,-922 846.544,-928 840.544,-928"/>
<text text-anchor="middle" x="717.752" y="-907" font-family="Times,serif" font-size="10.00" fill="#000033">VinaiKopp\PostCodeFilter\CustomerSpecifiesShippingAddress</text>
</g>
<!-- VinaiKopp\\PostCodeFilter\\Exceptions\\InvalidCountryException -->
<g id="node7" class="node"><title>VinaiKopp\\PostCodeFilter\\Exceptions\\InvalidCountryException</title>
<path fill="#9999cc" stroke="black" d="M843.014,-885C843.014,-885 592.491,-885 592.491,-885 586.491,-885 580.491,-879 580.491,-873 580.491,-873 580.491,-861 580.491,-861 580.491,-855 586.491,-849 592.491,-849 592.491,-849 843.014,-849 843.014,-849 849.014,-849 855.014,-855 855.014,-861 855.014,-861 855.014,-873 855.014,-873 855.014,-879 849.014,-885 843.014,-885"/>
<text text-anchor="middle" x="717.752" y="-864" font-family="Times,serif" font-size="10.00" fill="#000033">VinaiKopp\PostCodeFilter\Exceptions\InvalidCountryException</text>
</g>
<!-- VinaiKopp\\PostCodeFilter\\Exceptions\\InvalidCustomerGroupIdException -->
<g id="node8" class="node"><title>VinaiKopp\\PostCodeFilter\\Exceptions\\InvalidCustomerGroupIdException</title>
<path fill="#9999cc" stroke="black" d="M863.004,-842C863.004,-842 572.5,-842 572.5,-842 566.5,-842 560.5,-836 560.5,-830 560.5,-830 560.5,-818 560.5,-818 560.5,-812 566.5,-806 572.5,-806 572.5,-806 863.004,-806 863.004,-806 869.004,-806 875.004,-812 875.004,-818 875.004,-818 875.004,-830 875.004,-830 875.004,-836 869.004,-842 863.004,-842"/>
<text text-anchor="middle" x="717.752" y="-821" font-family="Times,serif" font-size="10.00" fill="#000033">VinaiKopp\PostCodeFilter\Exceptions\InvalidCustomerGroupIdException</text>
</g>
<!-- VinaiKopp\\PostCodeFilter\\Exceptions\\InvalidPostCodeException -->
<g id="node9" class="node"><title>VinaiKopp\\PostCodeFilter\\Exceptions\\InvalidPostCodeException</title>
<path fill="#9999cc" stroke="black" d="M845.576,-799C845.576,-799 589.929,-799 589.929,-799 583.929,-799 577.929,-793 577.929,-787 577.929,-787 577.929,-775 577.929,-775 577.929,-769 583.929,-763 589.929,-763 589.929,-763 845.576,-763 845.576,-763 851.576,-763 857.576,-769 857.576,-775 857.576,-775 857.576,-787 857.576,-787 857.576,-793 851.576,-799 845.576,-799"/>
<text text-anchor="middle" x="717.752" y="-778" font-family="Times,serif" font-size="10.00" fill="#000033">VinaiKopp\PostCodeFilter\Exceptions\InvalidPostCodeException</text>
</g>
<!-- VinaiKopp\\PostCodeFilter\\Exceptions\\NonMatchingRecordInResultException -->
<g id="node10" class="node"><title>VinaiKopp\\PostCodeFilter\\Exceptions\\NonMatchingRecordInResultException</title>
<path fill="#9999cc" stroke="black" d="M871.722,-756C871.722,-756 563.783,-756 563.783,-756 557.783,-756 551.783,-750 551.783,-744 551.783,-744 551.783,-732 551.783,-732 551.783,-726 557.783,-720 563.783,-720 563.783,-720 871.722,-720 871.722,-720 877.722,-720 883.722,-726 883.722,-732 883.722,-732 883.722,-744 883.722,-744 883.722,-750 877.722,-756 871.722,-756"/>
<text text-anchor="middle" x="717.752" y="-735" font-family="Times,serif" font-size="10.00" fill="#000033">VinaiKopp\PostCodeFilter\Exceptions\NonMatchingRecordInResultException</text>
</g>
<!-- VinaiKopp\\PostCodeFilter\\Exceptions\\RuleDoesNotExistException -->
<g id="node11" class="node"><title>VinaiKopp\\PostCodeFilter\\Exceptions\\RuleDoesNotExistException</title>
<path fill="#9999cc" stroke="black" d="M849.906,-713C849.906,-713 585.599,-713 585.599,-713 579.599,-713 573.599,-707 573.599,-701 573.599,-701 573.599,-689 573.599,-689 573.599,-683 579.599,-677 585.599,-677 585.599,-677 849.906,-677 849.906,-677 855.906,-677 861.906,-683 861.906,-689 861.906,-689 861.906,-701 861.906,-701 861.906,-707 855.906,-713 849.906,-713"/>
<text text-anchor="middle" x="717.752" y="-692" font-family="Times,serif" font-size="10.00" fill="#000033">VinaiKopp\PostCodeFilter\Exceptions\RuleDoesNotExistException</text>
</g>
<!-- VinaiKopp\\PostCodeFilter\\Exceptions\\RuleForGroupAndCountryAlreadyExistsException -->
<g id="node12" class="node"><title>VinaiKopp\\PostCodeFilter\\Exceptions\\RuleForGroupAndCountryAlreadyExistsException</title>
<path fill="#9999cc" stroke="black" d="M894.896,-670C894.896,-670 540.609,-670 540.609,-670 534.609,-670 528.609,-664 528.609,-658 528.609,-658 528.609,-646 528.609,-646 528.609,-640 534.609,-634 540.609,-634 540.609,-634 894.896,-634 894.896,-634 900.896,-634 906.896,-640 906.896,-646 906.896,-646 906.896,-658 906.896,-658 906.896,-664 900.896,-670 894.896,-670"/>
<text text-anchor="middle" x="717.752" y="-649" font-family="Times,serif" font-size="10.00" fill="#000033">VinaiKopp\PostCodeFilter\Exceptions\RuleForGroupAndCountryAlreadyExistsException</text>
</g>
<!-- VinaiKopp\\PostCodeFilter\\Rule\\Components\\Country -->
<g id="node13" class="node"><title>VinaiKopp\\PostCodeFilter\\Rule\\Components\\Country</title>
<path fill="#9999cc" stroke="black" d="M822.435,-627C822.435,-627 613.07,-627 613.07,-627 607.07,-627 601.07,-621 601.07,-615 601.07,-615 601.07,-603 601.07,-603 601.07,-597 607.07,-591 613.07,-591 613.07,-591 822.435,-591 822.435,-591 828.435,-591 834.435,-597 834.435,-603 834.435,-603 834.435,-615 834.435,-615 834.435,-621 828.435,-627 822.435,-627"/>
<text text-anchor="middle" x="717.752" y="-606" font-family="Times,serif" font-size="10.00" fill="#000033">VinaiKopp\PostCodeFilter\Rule\Components\Country</text>
</g>
<!-- VinaiKopp\\PostCodeFilter\\Rule\\Components\\CustomerGroupId -->
<g id="node14" class="node"><title>VinaiKopp\\PostCodeFilter\\Rule\\Components\\CustomerGroupId</title>
<path fill="#9999cc" stroke="black" d="M842.425,-584C842.425,-584 593.08,-584 593.08,-584 587.08,-584 581.08,-578 581.08,-572 581.08,-572 581.08,-560 581.08,-560 581.08,-554 587.08,-548 593.08,-548 593.08,-548 842.425,-548 842.425,-548 848.425,-548 854.425,-554 854.425,-560 854.425,-560 854.425,-572 854.425,-572 854.425,-578 848.425,-584 842.425,-584"/>
<text text-anchor="middle" x="717.752" y="-563" font-family="Times,serif" font-size="10.00" fill="#000033">VinaiKopp\PostCodeFilter\Rule\Components\CustomerGroupId</text>
</g>
<!-- VinaiKopp\\PostCodeFilter\\Rule\\Components\\CustomerGroupIdList -->
<g id="node15" class="node"><title>VinaiKopp\\PostCodeFilter\\Rule\\Components\\CustomerGroupIdList</title>
<path fill="#9999cc" stroke="black" d="M849.982,-541C849.982,-541 585.523,-541 585.523,-541 579.523,-541 573.523,-535 573.523,-529 573.523,-529 573.523,-517 573.523,-517 573.523,-511 579.523,-505 585.523,-505 585.523,-505 849.982,-505 849.982,-505 855.982,-505 861.982,-511 861.982,-517 861.982,-517 861.982,-529 861.982,-529 861.982,-535 855.982,-541 849.982,-541"/>
<text text-anchor="middle" x="717.752" y="-520" font-family="Times,serif" font-size="10.00" fill="#000033">VinaiKopp\PostCodeFilter\Rule\Components\CustomerGroupIdList</text>
</g>
<!-- VinaiKopp\\PostCodeFilter\\Rule\\Components\\PostCode -->
<g id="node16" class="node"><title>VinaiKopp\\PostCodeFilter\\Rule\\Components\\PostCode</title>
<path fill="#9999cc" stroke="black" d="M824.997,-498C824.997,-498 610.508,-498 610.508,-498 604.508,-498 598.508,-492 598.508,-486 598.508,-486 598.508,-474 598.508,-474 598.508,-468 604.508,-462 610.508,-462 610.508,-462 824.997,-462 824.997,-462 830.997,-462 836.997,-468 836.997,-474 836.997,-474 836.997,-486 836.997,-486 836.997,-492 830.997,-498 824.997,-498"/>
<text text-anchor="middle" x="717.752" y="-477" font-family="Times,serif" font-size="10.00" fill="#000033">VinaiKopp\PostCodeFilter\Rule\Components\PostCode</text>
</g>
<!-- VinaiKopp\\PostCodeFilter\\Rule\\Components\\PostCodeList -->
<g id="node17" class="node"><title>VinaiKopp\\PostCodeFilter\\Rule\\Components\\PostCodeList</title>
<path fill="#9999cc" stroke="black" d="M833.053,-455C833.053,-455 602.451,-455 602.451,-455 596.451,-455 590.451,-449 590.451,-443 590.451,-443 590.451,-431 590.451,-431 590.451,-425 596.451,-419 602.451,-419 602.451,-419 833.053,-419 833.053,-419 839.053,-419 845.053,-425 845.053,-431 845.053,-431 845.053,-443 845.053,-443 845.053,-449 839.053,-455 833.053,-455"/>
<text text-anchor="middle" x="717.752" y="-434" font-family="Times,serif" font-size="10.00" fill="#000033">VinaiKopp\PostCodeFilter\Rule\Components\PostCodeList</text>
</g>
<!-- VinaiKopp\\PostCodeFilter\\Rule\\ExistingRule -->
<g id="node18" class="node"><title>VinaiKopp\\PostCodeFilter\\Rule\\ExistingRule</title>
<path fill="#9999cc" stroke="black" d="M805.544,-412C805.544,-412 629.961,-412 629.961,-412 623.961,-412 617.961,-406 617.961,-400 617.961,-400 617.961,-388 617.961,-388 617.961,-382 623.961,-376 629.961,-376 629.961,-376 805.544,-376 805.544,-376 811.544,-376 817.544,-382 817.544,-388 817.544,-388 817.544,-400 817.544,-400 817.544,-406 811.544,-412 805.544,-412"/>
<text text-anchor="middle" x="717.752" y="-391" font-family="Times,serif" font-size="10.00" fill="#000033">VinaiKopp\PostCodeFilter\Rule\ExistingRule</text>
</g>
<!-- VinaiKopp\\PostCodeFilter\\Rule\\Rule -->
<g id="node19" class="node"><title>VinaiKopp\\PostCodeFilter\\Rule\\Rule</title>
<path fill="#9999cc" stroke="black" d="M1205.46,-390C1205.46,-390 1063.55,-390 1063.55,-390 1057.55,-390 1051.55,-384 1051.55,-378 1051.55,-378 1051.55,-366 1051.55,-366 1051.55,-360 1057.55,-354 1063.55,-354 1063.55,-354 1205.46,-354 1205.46,-354 1211.46,-354 1217.46,-360 1217.46,-366 1217.46,-366 1217.46,-378 1217.46,-378 1217.46,-384 1211.46,-390 1205.46,-390"/>
<text text-anchor="middle" x="1134.51" y="-369" font-family="Times,serif" font-size="10.00" fill="#000033">VinaiKopp\PostCodeFilter\Rule\Rule</text>
</g>
<!-- VinaiKopp\\PostCodeFilter\\Rule\\ExistingRule&#45;&gt;VinaiKopp\\PostCodeFilter\\Rule\\Rule -->
<g id="edge1" class="edge"><title>VinaiKopp\\PostCodeFilter\\Rule\\ExistingRule&#45;&gt;VinaiKopp\\PostCodeFilter\\Rule\\Rule</title>
<path fill="none" stroke="#999999" stroke-dasharray="5,2" d="M817.57,-388.758C886.739,-385.089 978.35,-380.23 1045.1,-376.689"/>
<polygon fill="#999999" stroke="#999999" points="1045.61,-378.766 1051.49,-376.351 1045.38,-374.572 1045.61,-378.766"/>
</g>
<!-- VinaiKopp\\PostCodeFilter\\Rule\\NonexistentRule -->
<g id="node20" class="node"><title>VinaiKopp\\PostCodeFilter\\Rule\\NonexistentRule</title>
<path fill="#9999cc" stroke="black" d="M813.034,-369C813.034,-369 622.471,-369 622.471,-369 616.471,-369 610.471,-363 610.471,-357 610.471,-357 610.471,-345 610.471,-345 610.471,-339 616.471,-333 622.471,-333 622.471,-333 813.034,-333 813.034,-333 819.034,-333 825.034,-339 825.034,-345 825.034,-345 825.034,-357 825.034,-357 825.034,-363 819.034,-369 813.034,-369"/>
<text text-anchor="middle" x="717.752" y="-348" font-family="Times,serif" font-size="10.00" fill="#000033">VinaiKopp\PostCodeFilter\Rule\NonexistentRule</text>
</g>
<!-- VinaiKopp\\PostCodeFilter\\Rule\\NonexistentRule&#45;&gt;VinaiKopp\\PostCodeFilter\\Rule\\Rule -->
<g id="edge2" class="edge"><title>VinaiKopp\\PostCodeFilter\\Rule\\NonexistentRule&#45;&gt;VinaiKopp\\PostCodeFilter\\Rule\\Rule</title>
<path fill="none" stroke="#999999" stroke-dasharray="5,2" d="M825.023,-356.381C893.265,-359.836 980.847,-364.27 1045.24,-367.531"/>
<polygon fill="#999999" stroke="#999999" points="1045.3,-369.637 1051.4,-367.843 1045.52,-365.442 1045.3,-369.637"/>
</g>
<!-- VinaiKopp\\PostCodeFilter\\Storage\\ReadModel\\RuleReader -->
<g id="node21" class="node"><title>VinaiKopp\\PostCodeFilter\\Storage\\ReadModel\\RuleReader</title>
<path fill="#9999cc" stroke="black" d="M1250.37,-240C1250.37,-240 1018.64,-240 1018.64,-240 1012.64,-240 1006.64,-234 1006.64,-228 1006.64,-228 1006.64,-216 1006.64,-216 1006.64,-210 1012.64,-204 1018.64,-204 1018.64,-204 1250.37,-204 1250.37,-204 1256.37,-204 1262.37,-210 1262.37,-216 1262.37,-216 1262.37,-228 1262.37,-228 1262.37,-234 1256.37,-240 1250.37,-240"/>
<text text-anchor="middle" x="1134.51" y="-219" font-family="Times,serif" font-size="10.00" fill="#000033">VinaiKopp\PostCodeFilter\Storage\ReadModel\RuleReader</text>
</g>
<!-- VinaiKopp\\PostCodeFilter\\Storage\\ReadModel\\RuleSpecByCountryAndGroupId -->
<g id="node22" class="node"><title>VinaiKopp\\PostCodeFilter\\Storage\\ReadModel\\RuleSpecByCountryAndGroupId</title>
<path fill="#9999cc" stroke="black" d="M876.792,-326C876.792,-326 558.712,-326 558.712,-326 552.712,-326 546.712,-320 546.712,-314 546.712,-314 546.712,-302 546.712,-302 546.712,-296 552.712,-290 558.712,-290 558.712,-290 876.792,-290 876.792,-290 882.792,-290 888.792,-296 888.792,-302 888.792,-302 888.792,-314 888.792,-314 888.792,-320 882.792,-326 876.792,-326"/>
<text text-anchor="middle" x="717.752" y="-305" font-family="Times,serif" font-size="10.00" fill="#000033">VinaiKopp\PostCodeFilter\Storage\ReadModel\RuleSpecByCountryAndGroupId</text>
</g>
<!-- VinaiKopp\\PostCodeFilter\\Storage\\ReadModel\\RuleSpecByCountryAndGroupIds -->
<g id="node23" class="node"><title>VinaiKopp\\PostCodeFilter\\Storage\\ReadModel\\RuleSpecByCountryAndGroupIds</title>
<path fill="#9999cc" stroke="black" d="M878.684,-283C878.684,-283 556.821,-283 556.821,-283 550.821,-283 544.821,-277 544.821,-271 544.821,-271 544.821,-259 544.821,-259 544.821,-253 550.821,-247 556.821,-247 556.821,-247 878.684,-247 878.684,-247 884.684,-247 890.684,-253 890.684,-259 890.684,-259 890.684,-271 890.684,-271 890.684,-277 884.684,-283 878.684,-283"/>
<text text-anchor="middle" x="717.752" y="-262" font-family="Times,serif" font-size="10.00" fill="#000033">VinaiKopp\PostCodeFilter\Storage\ReadModel\RuleSpecByCountryAndGroupIds</text>
</g>
<!-- VinaiKopp\\PostCodeFilter\\Storage\\RuleRepositoryReader -->
<g id="node24" class="node"><title>VinaiKopp\\PostCodeFilter\\Storage\\RuleRepositoryReader</title>
<path fill="#9999cc" stroke="black" d="M830.571,-240C830.571,-240 604.934,-240 604.934,-240 598.934,-240 592.934,-234 592.934,-228 592.934,-228 592.934,-216 592.934,-216 592.934,-210 598.934,-204 604.934,-204 604.934,-204 830.571,-204 830.571,-204 836.571,-204 842.571,-210 842.571,-216 842.571,-216 842.571,-228 842.571,-228 842.571,-234 836.571,-240 830.571,-240"/>
<text text-anchor="middle" x="717.752" y="-219" font-family="Times,serif" font-size="10.00" fill="#000033">VinaiKopp\PostCodeFilter\Storage\RuleRepositoryReader</text>
</g>
<!-- VinaiKopp\\PostCodeFilter\\Storage\\RuleRepositoryReader&#45;&gt;VinaiKopp\\PostCodeFilter\\Storage\\ReadModel\\RuleReader -->
<g id="edge3" class="edge"><title>VinaiKopp\\PostCodeFilter\\Storage\\RuleRepositoryReader&#45;&gt;VinaiKopp\\PostCodeFilter\\Storage\\ReadModel\\RuleReader</title>
<path fill="none" stroke="#999999" stroke-dasharray="5,2" d="M842.631,-222C892.405,-222 949.884,-222 1000.54,-222"/>
<polygon fill="#999999" stroke="#999999" points="1000.68,-224.1 1006.68,-222 1000.68,-219.9 1000.68,-224.1"/>
</g>
<!-- VinaiKopp\\PostCodeFilter\\Storage\\RuleRepositoryWriter -->
<g id="node25" class="node"><title>VinaiKopp\\PostCodeFilter\\Storage\\RuleRepositoryWriter</title>
<path fill="#9999cc" stroke="black" d="M829.454,-197C829.454,-197 606.051,-197 606.051,-197 600.051,-197 594.051,-191 594.051,-185 594.051,-185 594.051,-173 594.051,-173 594.051,-167 600.051,-161 606.051,-161 606.051,-161 829.454,-161 829.454,-161 835.454,-161 841.454,-167 841.454,-173 841.454,-173 841.454,-185 841.454,-185 841.454,-191 835.454,-197 829.454,-197"/>
<text text-anchor="middle" x="717.752" y="-176" font-family="Times,serif" font-size="10.00" fill="#000033">VinaiKopp\PostCodeFilter\Storage\RuleRepositoryWriter</text>
</g>
<!-- VinaiKopp\\PostCodeFilter\\Storage\\WriteModel\\RuleWriter -->
<g id="node26" class="node"><title>VinaiKopp\\PostCodeFilter\\Storage\\WriteModel\\RuleWriter</title>
<path fill="#9999cc" stroke="black" d="M1249.58,-197C1249.58,-197 1019.44,-197 1019.44,-197 1013.44,-197 1007.44,-191 1007.44,-185 1007.44,-185 1007.44,-173 1007.44,-173 1007.44,-167 1013.44,-161 1019.44,-161 1019.44,-161 1249.58,-161 1249.58,-161 1255.58,-161 1261.58,-167 1261.58,-173 1261.58,-173 1261.58,-185 1261.58,-185 1261.58,-191 1255.58,-197 1249.58,-197"/>
<text text-anchor="middle" x="1134.51" y="-176" font-family="Times,serif" font-size="10.00" fill="#000033">VinaiKopp\PostCodeFilter\Storage\WriteModel\RuleWriter</text>
</g>
<!-- VinaiKopp\\PostCodeFilter\\Storage\\RuleRepositoryWriter&#45;&gt;VinaiKopp\\PostCodeFilter\\Storage\\WriteModel\\RuleWriter -->
<g id="edge4" class="edge"><title>VinaiKopp\\PostCodeFilter\\Storage\\RuleRepositoryWriter&#45;&gt;VinaiKopp\\PostCodeFilter\\Storage\\WriteModel\\RuleWriter</title>
<path fill="none" stroke="#999999" stroke-dasharray="5,2" d="M841.509,-179C891.663,-179 949.788,-179 1000.91,-179"/>
<polygon fill="#999999" stroke="#999999" points="1001.11,-181.1 1007.11,-179 1001.11,-176.9 1001.11,-181.1"/>
</g>
<!-- VinaiKopp\\PostCodeFilter\\Storage\\RuleStorage -->
<g id="node27" class="node"><title>VinaiKopp\\PostCodeFilter\\Storage\\RuleStorage</title>
<path fill="#9999cc" stroke="black" d="M809.916,-154C809.916,-154 625.589,-154 625.589,-154 619.589,-154 613.589,-148 613.589,-142 613.589,-142 613.589,-130 613.589,-130 613.589,-124 619.589,-118 625.589,-118 625.589,-118 809.916,-118 809.916,-118 815.916,-118 821.916,-124 821.916,-130 821.916,-130 821.916,-142 821.916,-142 821.916,-148 815.916,-154 809.916,-154"/>
<text text-anchor="middle" x="717.752" y="-133" font-family="Times,serif" font-size="10.00" fill="#000033">VinaiKopp\PostCodeFilter\Storage\RuleStorage</text>
</g>
<!-- VinaiKopp\\PostCodeFilter\\Storage\\WriteModel\\RuleToAdd -->
<g id="node28" class="node"><title>VinaiKopp\\PostCodeFilter\\Storage\\WriteModel\\RuleToAdd</title>
<path fill="#9999cc" stroke="black" d="M833.756,-111C833.756,-111 601.749,-111 601.749,-111 595.749,-111 589.749,-105 589.749,-99 589.749,-99 589.749,-87 589.749,-87 589.749,-81 595.749,-75 601.749,-75 601.749,-75 833.756,-75 833.756,-75 839.756,-75 845.756,-81 845.756,-87 845.756,-87 845.756,-99 845.756,-99 845.756,-105 839.756,-111 833.756,-111"/>
<text text-anchor="middle" x="717.752" y="-90" font-family="Times,serif" font-size="10.00" fill="#000033">VinaiKopp\PostCodeFilter\Storage\WriteModel\RuleToAdd</text>
</g>
<!-- VinaiKopp\\PostCodeFilter\\Storage\\WriteModel\\RuleToDelete -->
<g id="node29" class="node"><title>VinaiKopp\\PostCodeFilter\\Storage\\WriteModel\\RuleToDelete</title>
<path fill="#9999cc" stroke="black" d="M838.628,-68C838.628,-68 596.877,-68 596.877,-68 590.877,-68 584.877,-62 584.877,-56 584.877,-56 584.877,-44 584.877,-44 584.877,-38 590.877,-32 596.877,-32 596.877,-32 838.628,-32 838.628,-32 844.628,-32 850.628,-38 850.628,-44 850.628,-44 850.628,-56 850.628,-56 850.628,-62 844.628,-68 838.628,-68"/>
<text text-anchor="middle" x="717.752" y="-47" font-family="Times,serif" font-size="10.00" fill="#000033">VinaiKopp\PostCodeFilter\Storage\WriteModel\RuleToDelete</text>
</g>
<!-- VinaiKopp_PostCodeFilter_Block_Adminhtml_Postcodefilter_Edit_Form -->
<g id="node30" class="node"><title>VinaiKopp_PostCodeFilter_Block_Adminhtml_Postcodefilter_Edit_Form</title>
<path fill="#9999cc" stroke="black" d="M367.518,-1225C367.518,-1225 78.1625,-1225 78.1625,-1225 72.1625,-1225 66.1625,-1219 66.1625,-1213 66.1625,-1213 66.1625,-1201 66.1625,-1201 66.1625,-1195 72.1625,-1189 78.1625,-1189 78.1625,-1189 367.518,-1189 367.518,-1189 373.518,-1189 379.518,-1195 379.518,-1201 379.518,-1201 379.518,-1213 379.518,-1213 379.518,-1219 373.518,-1225 367.518,-1225"/>
<text text-anchor="middle" x="222.84" y="-1204" font-family="Times,serif" font-size="10.00" fill="#000033">VinaiKopp_PostCodeFilter_Block_Adminhtml_Postcodefilter_Edit_Form</text>
</g>
<!-- VinaiKopp_PostCodeFilter_Block_Adminhtml_Postcodefilter_New_Form -->
<g id="node31" class="node"><title>VinaiKopp_PostCodeFilter_Block_Adminhtml_Postcodefilter_New_Form</title>
<path fill="#9999cc" stroke="black" d="M863.647,-1225C863.647,-1225 571.858,-1225 571.858,-1225 565.858,-1225 559.858,-1219 559.858,-1213 559.858,-1213 559.858,-1201 559.858,-1201 559.858,-1195 565.858,-1189 571.858,-1189 571.858,-1189 863.647,-1189 863.647,-1189 869.647,-1189 875.647,-1195 875.647,-1201 875.647,-1201 875.647,-1213 875.647,-1213 875.647,-1219 869.647,-1225 863.647,-1225"/>
<text text-anchor="middle" x="717.752" y="-1204" font-family="Times,serif" font-size="10.00" fill="#000033">VinaiKopp_PostCodeFilter_Block_Adminhtml_Postcodefilter_New_Form</text>
</g>
<!-- VinaiKopp_PostCodeFilter_Block_Adminhtml_Postcodefilter_Edit_Form&#45;&gt;VinaiKopp_PostCodeFilter_Block_Adminhtml_Postcodefilter_New_Form -->
<g id="edge5" class="edge"><title>VinaiKopp_PostCodeFilter_Block_Adminhtml_Postcodefilter_Edit_Form&#45;&gt;VinaiKopp_PostCodeFilter_Block_Adminhtml_Postcodefilter_New_Form</title>
<path fill="none" stroke="#999999" stroke-dasharray="5,2" d="M379.462,-1207C434.992,-1207 497.673,-1207 553.802,-1207"/>
<polygon fill="#999999" stroke="#999999" points="553.911,-1209.1 559.911,-1207 553.911,-1204.9 553.911,-1209.1"/>
</g>
<!-- Mage_Adminhtml_Block_Widget_Form -->
<g id="node36" class="node"><title>Mage_Adminhtml_Block_Widget_Form</title>
<path fill="#9999cc" stroke="black" d="M1212.48,-1225C1212.48,-1225 1056.53,-1225 1056.53,-1225 1050.53,-1225 1044.53,-1219 1044.53,-1213 1044.53,-1213 1044.53,-1201 1044.53,-1201 1044.53,-1195 1050.53,-1189 1056.53,-1189 1056.53,-1189 1212.48,-1189 1212.48,-1189 1218.48,-1189 1224.48,-1195 1224.48,-1201 1224.48,-1201 1224.48,-1213 1224.48,-1213 1224.48,-1219 1218.48,-1225 1212.48,-1225"/>
<text text-anchor="middle" x="1134.51" y="-1204" font-family="Times,serif" font-size="10.00" fill="#000033">Mage_Adminhtml_Block_Widget_Form</text>
</g>
<!-- VinaiKopp_PostCodeFilter_Block_Adminhtml_Postcodefilter_New_Form&#45;&gt;Mage_Adminhtml_Block_Widget_Form -->
<g id="edge8" class="edge"><title>VinaiKopp_PostCodeFilter_Block_Adminhtml_Postcodefilter_New_Form&#45;&gt;Mage_Adminhtml_Block_Widget_Form</title>
<path fill="none" stroke="#999999" stroke-dasharray="5,2" d="M875.553,-1207C930.44,-1207 990.361,-1207 1038.62,-1207"/>
<polygon fill="#999999" stroke="#999999" points="1038.75,-1209.1 1044.75,-1207 1038.75,-1204.9 1038.75,-1209.1"/>
</g>
<!-- VinaiKopp_PostCodeFilter_Block_Adminhtml_Postcodefilter_Edit -->
<g id="node32" class="node"><title>VinaiKopp_PostCodeFilter_Block_Adminhtml_Postcodefilter_Edit</title>
<path fill="#9999cc" stroke="black" d="M353.849,-1389C353.849,-1389 91.8321,-1389 91.8321,-1389 85.8321,-1389 79.8321,-1383 79.8321,-1377 79.8321,-1377 79.8321,-1365 79.8321,-1365 79.8321,-1359 85.8321,-1353 91.8321,-1353 91.8321,-1353 353.849,-1353 353.849,-1353 359.849,-1353 365.849,-1359 365.849,-1365 365.849,-1365 365.849,-1377 365.849,-1377 365.849,-1383 359.849,-1389 353.849,-1389"/>
<text text-anchor="middle" x="222.84" y="-1368" font-family="Times,serif" font-size="10.00" fill="#000033">VinaiKopp_PostCodeFilter_Block_Adminhtml_Postcodefilter_Edit</text>
</g>
<!-- Mage_Adminhtml_Block_Widget_Form_Container -->
<g id="node33" class="node"><title>Mage_Adminhtml_Block_Widget_Form_Container</title>
<path fill="#9999cc" stroke="black" d="M817.663,-1348C817.663,-1348 617.842,-1348 617.842,-1348 611.842,-1348 605.842,-1342 605.842,-1336 605.842,-1336 605.842,-1324 605.842,-1324 605.842,-1318 611.842,-1312 617.842,-1312 617.842,-1312 817.663,-1312 817.663,-1312 823.663,-1312 829.663,-1318 829.663,-1324 829.663,-1324 829.663,-1336 829.663,-1336 829.663,-1342 823.663,-1348 817.663,-1348"/>
<text text-anchor="middle" x="717.752" y="-1327" font-family="Times,serif" font-size="10.00" fill="#000033">Mage_Adminhtml_Block_Widget_Form_Container</text>
</g>
<!-- VinaiKopp_PostCodeFilter_Block_Adminhtml_Postcodefilter_Edit&#45;&gt;Mage_Adminhtml_Block_Widget_Form_Container -->
<g id="edge6" class="edge"><title>VinaiKopp_PostCodeFilter_Block_Adminhtml_Postcodefilter_Edit&#45;&gt;Mage_Adminhtml_Block_Widget_Form_Container</title>
<path fill="none" stroke="#999999" stroke-dasharray="5,2" d="M366.08,-1359.17C440.058,-1353.02 529.391,-1345.58 599.378,-1339.76"/>
<polygon fill="#999999" stroke="#999999" points="599.855,-1341.83 605.66,-1339.24 599.507,-1337.65 599.855,-1341.83"/>
</g>
<!-- VinaiKopp_PostCodeFilter_Block_Adminhtml_Postcodefilter_Grid -->
<g id="node34" class="node"><title>VinaiKopp_PostCodeFilter_Block_Adminhtml_Postcodefilter_Grid</title>
<path fill="#9999cc" stroke="black" d="M355.013,-1471C355.013,-1471 90.6674,-1471 90.6674,-1471 84.6674,-1471 78.6674,-1465 78.6674,-1459 78.6674,-1459 78.6674,-1447 78.6674,-1447 78.6674,-1441 84.6674,-1435 90.6674,-1435 90.6674,-1435 355.013,-1435 355.013,-1435 361.013,-1435 367.013,-1441 367.013,-1447 367.013,-1447 367.013,-1459 367.013,-1459 367.013,-1465 361.013,-1471 355.013,-1471"/>
<text text-anchor="middle" x="222.84" y="-1450" font-family="Times,serif" font-size="10.00" fill="#000033">VinaiKopp_PostCodeFilter_Block_Adminhtml_Postcodefilter_Grid</text>
</g>
<!-- Mage_Adminhtml_Block_Widget_Grid -->
<g id="node35" class="node"><title>Mage_Adminhtml_Block_Widget_Grid</title>
<path fill="#9999cc" stroke="black" d="M793.889,-1471C793.889,-1471 641.616,-1471 641.616,-1471 635.616,-1471 629.616,-1465 629.616,-1459 629.616,-1459 629.616,-1447 629.616,-1447 629.616,-1441 635.616,-1435 641.616,-1435 641.616,-1435 793.889,-1435 793.889,-1435 799.889,-1435 805.889,-1441 805.889,-1447 805.889,-1447 805.889,-1459 805.889,-1459 805.889,-1465 799.889,-1471 793.889,-1471"/>
<text text-anchor="middle" x="717.752" y="-1450" font-family="Times,serif" font-size="10.00" fill="#000033">Mage_Adminhtml_Block_Widget_Grid</text>
</g>
<!-- VinaiKopp_PostCodeFilter_Block_Adminhtml_Postcodefilter_Grid&#45;&gt;Mage_Adminhtml_Block_Widget_Grid -->
<g id="edge7" class="edge"><title>VinaiKopp_PostCodeFilter_Block_Adminhtml_Postcodefilter_Grid&#45;&gt;Mage_Adminhtml_Block_Widget_Grid</title>
<path fill="none" stroke="#999999" stroke-dasharray="5,2" d="M367.073,-1453C449.738,-1453 551.315,-1453 623.647,-1453"/>
<polygon fill="#999999" stroke="#999999" points="623.677,-1455.1 629.677,-1453 623.677,-1450.9 623.677,-1455.1"/>
</g>
<!-- VinaiKopp_PostCodeFilter_Block_Adminhtml_Postcodefilter_New -->
<g id="node37" class="node"><title>VinaiKopp_PostCodeFilter_Block_Adminhtml_Postcodefilter_New</title>
<path fill="#9999cc" stroke="black" d="M355.065,-1307C355.065,-1307 90.6156,-1307 90.6156,-1307 84.6156,-1307 78.6156,-1301 78.6156,-1295 78.6156,-1295 78.6156,-1283 78.6156,-1283 78.6156,-1277 84.6156,-1271 90.6156,-1271 90.6156,-1271 355.065,-1271 355.065,-1271 361.065,-1271 367.065,-1277 367.065,-1283 367.065,-1283 367.065,-1295 367.065,-1295 367.065,-1301 361.065,-1307 355.065,-1307"/>
<text text-anchor="middle" x="222.84" y="-1286" font-family="Times,serif" font-size="10.00" fill="#000033">VinaiKopp_PostCodeFilter_Block_Adminhtml_Postcodefilter_New</text>
</g>
<!-- VinaiKopp_PostCodeFilter_Block_Adminhtml_Postcodefilter_New&#45;&gt;Mage_Adminhtml_Block_Widget_Form_Container -->
<g id="edge9" class="edge"><title>VinaiKopp_PostCodeFilter_Block_Adminhtml_Postcodefilter_New&#45;&gt;Mage_Adminhtml_Block_Widget_Form_Container</title>
<path fill="none" stroke="#999999" stroke-dasharray="5,2" d="M367.073,-1300.91C440.881,-1307.05 529.764,-1314.45 599.448,-1320.24"/>
<polygon fill="#999999" stroke="#999999" points="599.551,-1322.36 605.704,-1320.76 599.899,-1318.17 599.551,-1322.36"/>
</g>
<!-- VinaiKopp_PostCodeFilter_Block_Adminhtml_Postcodefilter -->
<g id="node38" class="node"><title>VinaiKopp_PostCodeFilter_Block_Adminhtml_Postcodefilter</title>
<path fill="#9999cc" stroke="black" d="M343.183,-1553C343.183,-1553 102.498,-1553 102.498,-1553 96.4975,-1553 90.4975,-1547 90.4975,-1541 90.4975,-1541 90.4975,-1529 90.4975,-1529 90.4975,-1523 96.4975,-1517 102.498,-1517 102.498,-1517 343.183,-1517 343.183,-1517 349.183,-1517 355.183,-1523 355.183,-1529 355.183,-1529 355.183,-1541 355.183,-1541 355.183,-1547 349.183,-1553 343.183,-1553"/>
<text text-anchor="middle" x="222.84" y="-1532" font-family="Times,serif" font-size="10.00" fill="#000033">VinaiKopp_PostCodeFilter_Block_Adminhtml_Postcodefilter</text>
</g>
<!-- Mage_Adminhtml_Block_Widget_Grid_Container -->
<g id="node39" class="node"><title>Mage_Adminhtml_Block_Widget_Grid_Container</title>
<path fill="#9999cc" stroke="black" d="M815.823,-1553C815.823,-1553 619.682,-1553 619.682,-1553 613.682,-1553 607.682,-1547 607.682,-1541 607.682,-1541 607.682,-1529 607.682,-1529 607.682,-1523 613.682,-1517 619.682,-1517 619.682,-1517 815.823,-1517 815.823,-1517 821.823,-1517 827.823,-1523 827.823,-1529 827.823,-1529 827.823,-1541 827.823,-1541 827.823,-1547 821.823,-1553 815.823,-1553"/>
<text text-anchor="middle" x="717.752" y="-1532" font-family="Times,serif" font-size="10.00" fill="#000033">Mage_Adminhtml_Block_Widget_Grid_Container</text>
</g>
<!-- VinaiKopp_PostCodeFilter_Block_Adminhtml_Postcodefilter&#45;&gt;Mage_Adminhtml_Block_Widget_Grid_Container -->
<g id="edge10" class="edge"><title>VinaiKopp_PostCodeFilter_Block_Adminhtml_Postcodefilter&#45;&gt;Mage_Adminhtml_Block_Widget_Grid_Container</title>
<path fill="none" stroke="#999999" stroke-dasharray="5,2" d="M355.284,-1535C431.845,-1535 527.493,-1535 601.165,-1535"/>
<polygon fill="#999999" stroke="#999999" points="601.326,-1537.1 607.326,-1535 601.326,-1532.9 601.326,-1537.1"/>
</g>
<!-- VinaiKopp_PostCodeFilter_Helper_Data -->
<g id="node40" class="node"><title>VinaiKopp_PostCodeFilter_Helper_Data</title>
<path fill="#9999cc" stroke="black" d="M301.272,-1717C301.272,-1717 144.409,-1717 144.409,-1717 138.409,-1717 132.409,-1711 132.409,-1705 132.409,-1705 132.409,-1693 132.409,-1693 132.409,-1687 138.409,-1681 144.409,-1681 144.409,-1681 301.272,-1681 301.272,-1681 307.272,-1681 313.272,-1687 313.272,-1693 313.272,-1693 313.272,-1705 313.272,-1705 313.272,-1711 307.272,-1717 301.272,-1717"/>
<text text-anchor="middle" x="222.84" y="-1696" font-family="Times,serif" font-size="10.00" fill="#000033">VinaiKopp_PostCodeFilter_Helper_Data</text>
</g>
<!-- Mage_Core_Helper_Abstract -->
<g id="node41" class="node"><title>Mage_Core_Helper_Abstract</title>
<path fill="#9999cc" stroke="black" d="M773.044,-1676C773.044,-1676 662.461,-1676 662.461,-1676 656.461,-1676 650.461,-1670 650.461,-1664 650.461,-1664 650.461,-1652 650.461,-1652 650.461,-1646 656.461,-1640 662.461,-1640 662.461,-1640 773.044,-1640 773.044,-1640 779.044,-1640 785.044,-1646 785.044,-1652 785.044,-1652 785.044,-1664 785.044,-1664 785.044,-1670 779.044,-1676 773.044,-1676"/>
<text text-anchor="middle" x="717.752" y="-1655" font-family="Times,serif" font-size="10.00" fill="#000033">Mage_Core_Helper_Abstract</text>
</g>
<!-- VinaiKopp_PostCodeFilter_Helper_Data&#45;&gt;Mage_Core_Helper_Abstract -->
<g id="edge11" class="edge"><title>VinaiKopp_PostCodeFilter_Helper_Data&#45;&gt;Mage_Core_Helper_Abstract</title>
<path fill="none" stroke="#999999" stroke-dasharray="5,2" d="M313.389,-1691.55C408.256,-1683.66 556.222,-1671.35 644.114,-1664.04"/>
<polygon fill="#999999" stroke="#999999" points="644.532,-1666.11 650.337,-1663.52 644.184,-1661.93 644.532,-1666.11"/>
</g>
<!-- VinaiKopp_PostCodeFilter_Helper_Factory -->
<g id="node42" class="node"><title>VinaiKopp_PostCodeFilter_Helper_Factory</title>
<path fill="#9999cc" stroke="black" d="M306.942,-1635C306.942,-1635 138.738,-1635 138.738,-1635 132.738,-1635 126.738,-1629 126.738,-1623 126.738,-1623 126.738,-1611 126.738,-1611 126.738,-1605 132.738,-1599 138.738,-1599 138.738,-1599 306.942,-1599 306.942,-1599 312.942,-1599 318.942,-1605 318.942,-1611 318.942,-1611 318.942,-1623 318.942,-1623 318.942,-1629 312.942,-1635 306.942,-1635"/>
<text text-anchor="middle" x="222.84" y="-1614" font-family="Times,serif" font-size="10.00" fill="#000033">VinaiKopp_PostCodeFilter_Helper_Factory</text>
</g>
<!-- VinaiKopp_PostCodeFilter_Helper_Factory&#45;&gt;Mage_Core_Helper_Abstract -->
<g id="edge12" class="edge"><title>VinaiKopp_PostCodeFilter_Helper_Factory&#45;&gt;Mage_Core_Helper_Abstract</title>
<path fill="none" stroke="#999999" stroke-dasharray="5,2" d="M319.171,-1624.93C414.279,-1632.84 558.294,-1644.82 644.389,-1651.98"/>
<polygon fill="#999999" stroke="#999999" points="644.333,-1654.08 650.486,-1652.49 644.681,-1649.9 644.333,-1654.08"/>
</g>
<!-- VinaiKopp_PostCodeFilter_Model_Observer -->
<g id="node43" class="node"><title>VinaiKopp_PostCodeFilter_Model_Observer</title>
<path fill="#9999cc" stroke="black" d="M309.447,-1799C309.447,-1799 136.233,-1799 136.233,-1799 130.233,-1799 124.233,-1793 124.233,-1787 124.233,-1787 124.233,-1775 124.233,-1775 124.233,-1769 130.233,-1763 136.233,-1763 136.233,-1763 309.447,-1763 309.447,-1763 315.447,-1763 321.447,-1769 321.447,-1775 321.447,-1775 321.447,-1787 321.447,-1787 321.447,-1793 315.447,-1799 309.447,-1799"/>
<text text-anchor="middle" x="222.84" y="-1778" font-family="Times,serif" font-size="10.00" fill="#000033">VinaiKopp_PostCodeFilter_Model_Observer</text>
</g>
<!-- VinaiKopp_PostCodeFilter_Model_Resource_RuleStorage -->
<g id="node44" class="node"><title>VinaiKopp_PostCodeFilter_Model_Resource_RuleStorage</title>
<path fill="#9999cc" stroke="black" d="M336.937,-154C336.937,-154 108.743,-154 108.743,-154 102.743,-154 96.7433,-148 96.7433,-142 96.7433,-142 96.7433,-130 96.7433,-130 96.7433,-124 102.743,-118 108.743,-118 108.743,-118 336.937,-118 336.937,-118 342.937,-118 348.937,-124 348.937,-130 348.937,-130 348.937,-142 348.937,-142 348.937,-148 342.937,-154 336.937,-154"/>
<text text-anchor="middle" x="222.84" y="-133" font-family="Times,serif" font-size="10.00" fill="#000033">VinaiKopp_PostCodeFilter_Model_Resource_RuleStorage</text>
</g>
<!-- VinaiKopp_PostCodeFilter_Model_Resource_RuleStorage&#45;&gt;VinaiKopp\\PostCodeFilter\\Storage\\RuleStorage -->
<g id="edge13" class="edge"><title>VinaiKopp_PostCodeFilter_Model_Resource_RuleStorage&#45;&gt;VinaiKopp\\PostCodeFilter\\Storage\\RuleStorage</title>
<path fill="none" stroke="#999999" stroke-dasharray="5,2" d="M349.179,-136C428.8,-136 530.865,-136 607.233,-136"/>
<polygon fill="#999999" stroke="#999999" points="607.611,-138.1 613.611,-136 607.611,-133.9 607.611,-138.1"/>
</g>
<!-- VinaiKopp_PostCodeFilter_Model_RuleCollection -->
<g id="node45" class="node"><title>VinaiKopp_PostCodeFilter_Model_RuleCollection</title>
<path fill="#9999cc" stroke="black" d="M321.344,-1881C321.344,-1881 124.337,-1881 124.337,-1881 118.337,-1881 112.337,-1875 112.337,-1869 112.337,-1869 112.337,-1857 112.337,-1857 112.337,-1851 118.337,-1845 124.337,-1845 124.337,-1845 321.344,-1845 321.344,-1845 327.344,-1845 333.344,-1851 333.344,-1857 333.344,-1857 333.344,-1869 333.344,-1869 333.344,-1875 327.344,-1881 321.344,-1881"/>
<text text-anchor="middle" x="222.84" y="-1860" font-family="Times,serif" font-size="10.00" fill="#000033">VinaiKopp_PostCodeFilter_Model_RuleCollection</text>
</g>
<!-- Varien_Data_Collection_Db -->
<g id="node46" class="node"><title>Varien_Data_Collection_Db</title>
<path fill="#9999cc" stroke="black" d="M770.61,-1881C770.61,-1881 664.895,-1881 664.895,-1881 658.895,-1881 652.895,-1875 652.895,-1869 652.895,-1869 652.895,-1857 652.895,-1857 652.895,-1851 658.895,-1845 664.895,-1845 664.895,-1845 770.61,-1845 770.61,-1845 776.61,-1845 782.61,-1851 782.61,-1857 782.61,-1857 782.61,-1869 782.61,-1869 782.61,-1875 776.61,-1881 770.61,-1881"/>
<text text-anchor="middle" x="717.752" y="-1860" font-family="Times,serif" font-size="10.00" fill="#000033">Varien_Data_Collection_Db</text>
</g>
<!-- VinaiKopp_PostCodeFilter_Model_RuleCollection&#45;&gt;Varien_Data_Collection_Db -->
<g id="edge14" class="edge"><title>VinaiKopp_PostCodeFilter_Model_RuleCollection&#45;&gt;Varien_Data_Collection_Db</title>
<path fill="none" stroke="#999999" stroke-dasharray="5,2" d="M333.54,-1863C429.063,-1863 564.692,-1863 646.357,-1863"/>
<polygon fill="#999999" stroke="#999999" points="646.628,-1865.1 652.628,-1863 646.628,-1860.9 646.628,-1865.1"/>
</g>
<!-- VinaiKopp_PostCodeFilter_Adminhtml_Vinaikopp_PostcodefilterController -->
<g id="node47" class="node"><title>VinaiKopp_PostCodeFilter_Adminhtml_Vinaikopp_PostcodefilterController</title>
<path fill="#9999cc" stroke="black" d="M372.521,-1963C372.521,-1963 73.1595,-1963 73.1595,-1963 67.1595,-1963 61.1595,-1957 61.1595,-1951 61.1595,-1951 61.1595,-1939 61.1595,-1939 61.1595,-1933 67.1595,-1927 73.1595,-1927 73.1595,-1927 372.521,-1927 372.521,-1927 378.521,-1927 384.521,-1933 384.521,-1939 384.521,-1939 384.521,-1951 384.521,-1951 384.521,-1957 378.521,-1963 372.521,-1963"/>
<text text-anchor="middle" x="222.84" y="-1942" font-family="Times,serif" font-size="10.00" fill="#000033">VinaiKopp_PostCodeFilter_Adminhtml_Vinaikopp_PostcodefilterController</text>
</g>
<!-- Mage_Adminhtml_Controller_Action -->
<g id="node48" class="node"><title>Mage_Adminhtml_Controller_Action</title>
<path fill="#9999cc" stroke="black" d="M789.955,-1963C789.955,-1963 645.55,-1963 645.55,-1963 639.55,-1963 633.55,-1957 633.55,-1951 633.55,-1951 633.55,-1939 633.55,-1939 633.55,-1933 639.55,-1927 645.55,-1927 645.55,-1927 789.955,-1927 789.955,-1927 795.955,-1927 801.955,-1933 801.955,-1939 801.955,-1939 801.955,-1951 801.955,-1951 801.955,-1957 795.955,-1963 789.955,-1963"/>
<text text-anchor="middle" x="717.752" y="-1942" font-family="Times,serif" font-size="10.00" fill="#000033">Mage_Adminhtml_Controller_Action</text>
</g>
<!-- VinaiKopp_PostCodeFilter_Adminhtml_Vinaikopp_PostcodefilterController&#45;&gt;Mage_Adminhtml_Controller_Action -->
<g id="edge15" class="edge"><title>VinaiKopp_PostCodeFilter_Adminhtml_Vinaikopp_PostcodefilterController&#45;&gt;Mage_Adminhtml_Controller_Action</title>
<path fill="none" stroke="#999999" stroke-dasharray="5,2" d="M384.556,-1945C465.142,-1945 559.699,-1945 627.279,-1945"/>
<polygon fill="#999999" stroke="#999999" points="627.324,-1947.1 633.323,-1945 627.323,-1942.9 627.324,-1947.1"/>
</g>
<!-- VinaiKopp_PostCodeFilter_Frontend_CheckController -->
<g id="node49" class="node"><title>VinaiKopp_PostCodeFilter_Frontend_CheckController</title>
<path fill="#9999cc" stroke="black" d="M329.447,-2045C329.447,-2045 116.234,-2045 116.234,-2045 110.234,-2045 104.234,-2039 104.234,-2033 104.234,-2033 104.234,-2021 104.234,-2021 104.234,-2015 110.234,-2009 116.234,-2009 116.234,-2009 329.447,-2009 329.447,-2009 335.447,-2009 341.447,-2015 341.447,-2021 341.447,-2021 341.447,-2033 341.447,-2033 341.447,-2039 335.447,-2045 329.447,-2045"/>
<text text-anchor="middle" x="222.84" y="-2024" font-family="Times,serif" font-size="10.00" fill="#000033">VinaiKopp_PostCodeFilter_Frontend_CheckController</text>
</g>
<!-- Mage_Core_Controller_Front_Action -->
<g id="node50" class="node"><title>Mage_Core_Controller_Front_Action</title>
<path fill="#9999cc" stroke="black" d="M789.95,-2045C789.95,-2045 645.555,-2045 645.555,-2045 639.555,-2045 633.555,-2039 633.555,-2033 633.555,-2033 633.555,-2021 633.555,-2021 633.555,-2015 639.555,-2009 645.555,-2009 645.555,-2009 789.95,-2009 789.95,-2009 795.95,-2009 801.95,-2015 801.95,-2021 801.95,-2021 801.95,-2033 801.95,-2033 801.95,-2039 795.95,-2045 789.95,-2045"/>
<text text-anchor="middle" x="717.752" y="-2024" font-family="Times,serif" font-size="10.00" fill="#000033">Mage_Core_Controller_Front_Action</text>
</g>
<!-- VinaiKopp_PostCodeFilter_Frontend_CheckController&#45;&gt;Mage_Core_Controller_Front_Action -->
<g id="edge16" class="edge"><title>VinaiKopp_PostCodeFilter_Frontend_CheckController&#45;&gt;Mage_Core_Controller_Front_Action</title>
<path fill="none" stroke="#999999" stroke-dasharray="5,2" d="M341.592,-2027C429.298,-2027 547.232,-2027 627.295,-2027"/>
<polygon fill="#999999" stroke="#999999" points="627.474,-2029.1 633.474,-2027 627.474,-2024.9 627.474,-2029.1"/>
</g>
</g>
</svg>
