<?xml version="1.0" encoding="UTF-8" standalone="no"?>
<!DOCTYPE svg PUBLIC "-//W3C//DTD SVG 1.1//EN"
 "http://www.w3.org/Graphics/SVG/1.1/DTD/svg11.dtd">
<!-- Generated by graphviz version 2.38.0 (20140413.2041)
 -->
<!-- Title: G Pages: 1 -->
<svg width="1698pt" height="499pt"
 viewBox="0.00 0.00 1697.94 498.95" xmlns="http://www.w3.org/2000/svg" xmlns:xlink="http://www.w3.org/1999/xlink">
<g id="graph0" class="graph" transform="scale(1 1) rotate(0) translate(4 494.945)">
<title>G</title>
<polygon fill="white" stroke="none" points="-4,4 -4,-494.945 1693.94,-494.945 1693.94,4 -4,4"/>
<text text-anchor="middle" x="844.972" y="-5.6" font-family="Times,serif" font-size="8.00">PhpDependencyAnalyse by Marco Muths (v0.5.0)</text>
<!-- VinaiKopp\\PostCodeFilter\\ReadModel\\Rule -->
<g id="node1" class="node"><title>VinaiKopp\\PostCodeFilter\\ReadModel\\Rule</title>
<path fill="#9999cc" stroke="black" d="M918.019,-215.945C918.019,-215.945 748.57,-215.945 748.57,-215.945 742.57,-215.945 736.57,-209.945 736.57,-203.945 736.57,-203.945 736.57,-191.945 736.57,-191.945 736.57,-185.945 742.57,-179.945 748.57,-179.945 748.57,-179.945 918.019,-179.945 918.019,-179.945 924.019,-179.945 930.019,-185.945 930.019,-191.945 930.019,-191.945 930.019,-203.945 930.019,-203.945 930.019,-209.945 924.019,-215.945 918.019,-215.945"/>
<text text-anchor="middle" x="833.294" y="-194.945" font-family="Times,serif" font-size="10.00" fill="#000033">VinaiKopp\PostCodeFilter\ReadModel\Rule</text>
</g>
<!-- VinaiKopp\\PostCodeFilter\\RuleComponents\\Country -->
<g id="node2" class="node"><title>VinaiKopp\\PostCodeFilter\\RuleComponents\\Country</title>
<path fill="#9999cc" stroke="black" d="M1307.98,-223.945C1307.98,-223.945 1101.17,-223.945 1101.17,-223.945 1095.17,-223.945 1089.17,-217.945 1089.17,-211.945 1089.17,-211.945 1089.17,-199.945 1089.17,-199.945 1089.17,-193.945 1095.17,-187.945 1101.17,-187.945 1101.17,-187.945 1307.98,-187.945 1307.98,-187.945 1313.98,-187.945 1319.98,-193.945 1319.98,-199.945 1319.98,-199.945 1319.98,-211.945 1319.98,-211.945 1319.98,-217.945 1313.98,-223.945 1307.98,-223.945"/>
<text text-anchor="middle" x="1204.57" y="-202.945" font-family="Times,serif" font-size="10.00" fill="#000033">VinaiKopp\PostCodeFilter\RuleComponents\Country</text>
</g>
<!-- VinaiKopp\\PostCodeFilter\\ReadModel\\Rule&#45;&gt;VinaiKopp\\PostCodeFilter\\RuleComponents\\Country -->
<g id="edge1" class="edge"><title>VinaiKopp\\PostCodeFilter\\ReadModel\\Rule&#45;&gt;VinaiKopp\\PostCodeFilter\\RuleComponents\\Country</title>
<path fill="none" stroke="#999999" d="M930.354,-200.026C977.072,-201.039 1033.71,-202.265 1083.27,-203.339"/>
<polygon fill="#999999" stroke="#999999" points="1083.23,-205.439 1089.28,-203.469 1083.33,-201.24 1083.23,-205.439"/>
</g>
<!-- VinaiKopp\\PostCodeFilter\\RuleComponents\\CustomerGroupIdList -->
<g id="node3" class="node"><title>VinaiKopp\\PostCodeFilter\\RuleComponents\\CustomerGroupIdList</title>
<path fill="#9999cc" stroke="black" d="M1335.52,-273.945C1335.52,-273.945 1073.62,-273.945 1073.62,-273.945 1067.62,-273.945 1061.62,-267.945 1061.62,-261.945 1061.62,-261.945 1061.62,-249.945 1061.62,-249.945 1061.62,-243.945 1067.62,-237.945 1073.62,-237.945 1073.62,-237.945 1335.52,-237.945 1335.52,-237.945 1341.52,-237.945 1347.52,-243.945 1347.52,-249.945 1347.52,-249.945 1347.52,-261.945 1347.52,-261.945 1347.52,-267.945 1341.52,-273.945 1335.52,-273.945"/>
<text text-anchor="middle" x="1204.57" y="-252.945" font-family="Times,serif" font-size="10.00" fill="#000033">VinaiKopp\PostCodeFilter\RuleComponents\CustomerGroupIdList</text>
</g>
<!-- VinaiKopp\\PostCodeFilter\\ReadModel\\Rule&#45;&gt;VinaiKopp\\PostCodeFilter\\RuleComponents\\CustomerGroupIdList -->
<g id="edge2" class="edge"><title>VinaiKopp\\PostCodeFilter\\ReadModel\\Rule&#45;&gt;VinaiKopp\\PostCodeFilter\\RuleComponents\\CustomerGroupIdList</title>
<path fill="none" stroke="#999999" d="M930.039,-211.111C949.749,-213.933 970.357,-216.965 989.598,-219.945 1023.42,-225.185 1060.18,-231.239 1093.54,-236.87"/>
<polygon fill="#999999" stroke="#999999" points="1093.46,-238.987 1099.72,-237.916 1094.16,-234.845 1093.46,-238.987"/>
</g>
<!-- VinaiKopp\\PostCodeFilter\\RuleComponents\\PostCodeList -->
<g id="node4" class="node"><title>VinaiKopp\\PostCodeFilter\\RuleComponents\\PostCodeList</title>
<path fill="#9999cc" stroke="black" d="M1318.1,-409.945C1318.1,-409.945 1091.05,-409.945 1091.05,-409.945 1085.05,-409.945 1079.05,-403.945 1079.05,-397.945 1079.05,-397.945 1079.05,-385.945 1079.05,-385.945 1079.05,-379.945 1085.05,-373.945 1091.05,-373.945 1091.05,-373.945 1318.1,-373.945 1318.1,-373.945 1324.1,-373.945 1330.1,-379.945 1330.1,-385.945 1330.1,-385.945 1330.1,-397.945 1330.1,-397.945 1330.1,-403.945 1324.1,-409.945 1318.1,-409.945"/>
<text text-anchor="middle" x="1204.57" y="-388.945" font-family="Times,serif" font-size="10.00" fill="#000033">VinaiKopp\PostCodeFilter\RuleComponents\PostCodeList</text>
</g>
<!-- VinaiKopp\\PostCodeFilter\\ReadModel\\Rule&#45;&gt;VinaiKopp\\PostCodeFilter\\RuleComponents\\PostCodeList -->
<g id="edge3" class="edge"><title>VinaiKopp\\PostCodeFilter\\ReadModel\\Rule&#45;&gt;VinaiKopp\\PostCodeFilter\\RuleComponents\\PostCodeList</title>
<path fill="none" stroke="#999999" d="M930.14,-203.33C950.336,-206.701 971.112,-211.924 989.598,-219.945 1027.29,-236.303 1029.58,-252.193 1061.6,-277.945 1101.42,-309.97 1147.56,-347.005 1176.16,-369.954"/>
<polygon fill="#999999" stroke="#999999" points="1174.95,-371.675 1180.94,-373.792 1177.58,-368.399 1174.95,-371.675"/>
</g>
<!-- VinaiKopp\\PostCodeFilter\\RuleComponents\\CustomerGroupId -->
<g id="node6" class="node"><title>VinaiKopp\\PostCodeFilter\\RuleComponents\\CustomerGroupId</title>
<path fill="#9999cc" stroke="black" d="M1678.14,-273.945C1678.14,-273.945 1431.35,-273.945 1431.35,-273.945 1425.35,-273.945 1419.35,-267.945 1419.35,-261.945 1419.35,-261.945 1419.35,-249.945 1419.35,-249.945 1419.35,-243.945 1425.35,-237.945 1431.35,-237.945 1431.35,-237.945 1678.14,-237.945 1678.14,-237.945 1684.14,-237.945 1690.14,-243.945 1690.14,-249.945 1690.14,-249.945 1690.14,-261.945 1690.14,-261.945 1690.14,-267.945 1684.14,-273.945 1678.14,-273.945"/>
<text text-anchor="middle" x="1554.75" y="-252.945" font-family="Times,serif" font-size="10.00" fill="#000033">VinaiKopp\PostCodeFilter\RuleComponents\CustomerGroupId</text>
</g>
<!-- VinaiKopp\\PostCodeFilter\\RuleComponents\\CustomerGroupIdList&#45;&gt;VinaiKopp\\PostCodeFilter\\RuleComponents\\CustomerGroupId -->
<g id="edge19" class="edge"><title>VinaiKopp\\PostCodeFilter\\RuleComponents\\CustomerGroupIdList&#45;&gt;VinaiKopp\\PostCodeFilter\\RuleComponents\\CustomerGroupId</title>
<path fill="none" stroke="#999999" d="M1347.69,-255.945C1369.35,-255.945 1391.69,-255.945 1413.31,-255.945"/>
<polygon fill="#999999" stroke="#999999" points="1413.38,-258.045 1419.38,-255.945 1413.38,-253.845 1413.38,-258.045"/>
</g>
<!-- VinaiKopp\\PostCodeFilter\\RuleComponents\\PostCode -->
<g id="node7" class="node"><title>VinaiKopp\\PostCodeFilter\\RuleComponents\\PostCode</title>
<path fill="#9999cc" stroke="black" d="M1660.71,-446.945C1660.71,-446.945 1448.78,-446.945 1448.78,-446.945 1442.78,-446.945 1436.78,-440.945 1436.78,-434.945 1436.78,-434.945 1436.78,-422.945 1436.78,-422.945 1436.78,-416.945 1442.78,-410.945 1448.78,-410.945 1448.78,-410.945 1660.71,-410.945 1660.71,-410.945 1666.71,-410.945 1672.71,-416.945 1672.71,-422.945 1672.71,-422.945 1672.71,-434.945 1672.71,-434.945 1672.71,-440.945 1666.71,-446.945 1660.71,-446.945"/>
<text text-anchor="middle" x="1554.75" y="-425.945" font-family="Times,serif" font-size="10.00" fill="#000033">VinaiKopp\PostCodeFilter\RuleComponents\PostCode</text>
</g>
<!-- VinaiKopp\\PostCodeFilter\\RuleComponents\\PostCodeList&#45;&gt;VinaiKopp\\PostCodeFilter\\RuleComponents\\PostCode -->
<g id="edge20" class="edge"><title>VinaiKopp\\PostCodeFilter\\RuleComponents\\PostCodeList&#45;&gt;VinaiKopp\\PostCodeFilter\\RuleComponents\\PostCode</title>
<path fill="none" stroke="#999999" d="M1330.29,-405.199C1362.89,-408.664 1398.02,-412.396 1430.54,-415.853"/>
<polygon fill="#999999" stroke="#999999" points="1430.4,-417.949 1436.59,-416.495 1430.84,-413.773 1430.4,-417.949"/>
</g>
<!-- VinaiKopp\\PostCodeFilter\\ReadModel\\RuleFound -->
<g id="node5" class="node"><title>VinaiKopp\\PostCodeFilter\\ReadModel\\RuleFound</title>
<path fill="#9999cc" stroke="black" d="M931.081,-490.945C931.081,-490.945 735.508,-490.945 735.508,-490.945 729.508,-490.945 723.508,-484.945 723.508,-478.945 723.508,-478.945 723.508,-466.945 723.508,-466.945 723.508,-460.945 729.508,-454.945 735.508,-454.945 735.508,-454.945 931.081,-454.945 931.081,-454.945 937.081,-454.945 943.081,-460.945 943.081,-466.945 943.081,-466.945 943.081,-478.945 943.081,-478.945 943.081,-484.945 937.081,-490.945 931.081,-490.945"/>
<text text-anchor="middle" x="833.294" y="-469.945" font-family="Times,serif" font-size="10.00" fill="#000033">VinaiKopp\PostCodeFilter\ReadModel\RuleFound</text>
</g>
<!-- VinaiKopp\\PostCodeFilter\\ReadModel\\RuleFound&#45;&gt;VinaiKopp\\PostCodeFilter\\RuleComponents\\Country -->
<g id="edge5" class="edge"><title>VinaiKopp\\PostCodeFilter\\ReadModel\\RuleFound&#45;&gt;VinaiKopp\\PostCodeFilter\\RuleComponents\\Country</title>
<path fill="none" stroke="#999999" d="M943.141,-473.116C960.067,-468.95 976.315,-462.017 989.598,-450.945 1067.33,-386.152 985.873,-302.07 1061.6,-234.945 1068.17,-229.115 1075.6,-224.336 1083.52,-220.43"/>
<polygon fill="#999999" stroke="#999999" points="1084.51,-222.285 1089.08,-217.863 1082.75,-218.472 1084.51,-222.285"/>
</g>
<!-- VinaiKopp\\PostCodeFilter\\ReadModel\\RuleFound&#45;&gt;VinaiKopp\\PostCodeFilter\\RuleComponents\\CustomerGroupIdList -->
<g id="edge6" class="edge"><title>VinaiKopp\\PostCodeFilter\\ReadModel\\RuleFound&#45;&gt;VinaiKopp\\PostCodeFilter\\RuleComponents\\CustomerGroupIdList</title>
<path fill="none" stroke="#999999" d="M943.051,-467.42C959.254,-463.826 975.296,-458.562 989.598,-450.945 1031.82,-428.46 1026.91,-403.879 1061.6,-370.945 1098.35,-336.056 1144.52,-299.927 1174.05,-277.692"/>
<polygon fill="#999999" stroke="#999999" points="1175.46,-279.257 1179,-273.976 1172.94,-275.898 1175.46,-279.257"/>
</g>
<!-- VinaiKopp\\PostCodeFilter\\ReadModel\\RuleFound&#45;&gt;VinaiKopp\\PostCodeFilter\\RuleComponents\\PostCodeList -->
<g id="edge7" class="edge"><title>VinaiKopp\\PostCodeFilter\\ReadModel\\RuleFound&#45;&gt;VinaiKopp\\PostCodeFilter\\RuleComponents\\PostCodeList</title>
<path fill="none" stroke="#999999" d="M943.215,-459.324C958.837,-456.846 974.667,-454.048 989.598,-450.945 1040.77,-440.313 1097.77,-424.387 1140.07,-411.761"/>
<polygon fill="#999999" stroke="#999999" points="1140.8,-413.736 1145.94,-410.002 1139.59,-409.713 1140.8,-413.736"/>
</g>
<!-- VinaiKopp\\PostCodeFilter\\ReadModel\\RuleFound&#45;&gt;VinaiKopp\\PostCodeFilter\\RuleComponents\\CustomerGroupId -->
<g id="edge4" class="edge"><title>VinaiKopp\\PostCodeFilter\\ReadModel\\RuleFound&#45;&gt;VinaiKopp\\PostCodeFilter\\RuleComponents\\CustomerGroupId</title>
<path fill="none" stroke="#999999" d="M943.049,-461.934C1088.14,-447.027 1329.05,-421.424 1347.55,-413.945 1424.78,-382.727 1497.91,-314.306 1532.65,-278.618"/>
<polygon fill="#999999" stroke="#999999" points="1534.43,-279.791 1537.09,-274.016 1531.41,-276.873 1534.43,-279.791"/>
</g>
<!-- VinaiKopp\\PostCodeFilter\\ReadModel\\RuleFound&#45;&gt;VinaiKopp\\PostCodeFilter\\RuleComponents\\PostCode -->
<g id="edge8" class="edge"><title>VinaiKopp\\PostCodeFilter\\ReadModel\\RuleFound&#45;&gt;VinaiKopp\\PostCodeFilter\\RuleComponents\\PostCode</title>
<path fill="none" stroke="#999999" d="M943,-468.59C1046.94,-464.153 1208.03,-456.566 1347.55,-446.945 1374.38,-445.095 1403.14,-442.789 1430.42,-440.45"/>
<polygon fill="#999999" stroke="#999999" points="1430.78,-442.527 1436.58,-439.92 1430.42,-438.342 1430.78,-442.527"/>
</g>
<!-- VinaiKopp\\PostCodeFilter\\ReadModel\\RuleNotFound -->
<g id="node8" class="node"><title>VinaiKopp\\PostCodeFilter\\ReadModel\\RuleNotFound</title>
<path fill="#9999cc" stroke="black" d="M938.581,-404.945C938.581,-404.945 728.008,-404.945 728.008,-404.945 722.008,-404.945 716.008,-398.945 716.008,-392.945 716.008,-392.945 716.008,-380.945 716.008,-380.945 716.008,-374.945 722.008,-368.945 728.008,-368.945 728.008,-368.945 938.581,-368.945 938.581,-368.945 944.581,-368.945 950.581,-374.945 950.581,-380.945 950.581,-380.945 950.581,-392.945 950.581,-392.945 950.581,-398.945 944.581,-404.945 938.581,-404.945"/>
<text text-anchor="middle" x="833.294" y="-383.945" font-family="Times,serif" font-size="10.00" fill="#000033">VinaiKopp\PostCodeFilter\ReadModel\RuleNotFound</text>
</g>
<!-- VinaiKopp\\PostCodeFilter\\ReadModel\\RuleNotFound&#45;&gt;VinaiKopp\\PostCodeFilter\\RuleComponents\\Country -->
<g id="edge9" class="edge"><title>VinaiKopp\\PostCodeFilter\\ReadModel\\RuleNotFound&#45;&gt;VinaiKopp\\PostCodeFilter\\RuleComponents\\Country</title>
<path fill="none" stroke="#999999" d="M950.688,-370.763C964.542,-365.787 977.897,-359.326 989.598,-350.945 1038.93,-315.612 1011.81,-269.627 1061.6,-234.945 1068.34,-230.248 1075.68,-226.277 1083.34,-222.923"/>
<polygon fill="#999999" stroke="#999999" points="1084.52,-224.709 1089.27,-220.478 1082.92,-220.827 1084.52,-224.709"/>
</g>
<!-- VinaiKopp\\PostCodeFilter\\ReadModel\\RuleNotFound&#45;&gt;VinaiKopp\\PostCodeFilter\\RuleComponents\\CustomerGroupIdList -->
<g id="edge10" class="edge"><title>VinaiKopp\\PostCodeFilter\\ReadModel\\RuleNotFound&#45;&gt;VinaiKopp\\PostCodeFilter\\RuleComponents\\CustomerGroupIdList</title>
<path fill="none" stroke="#999999" d="M925.437,-368.868C946.71,-363.811 969.124,-357.794 989.598,-350.945 1051.76,-330.153 1120.51,-297.86 1162.89,-276.805"/>
<polygon fill="#999999" stroke="#999999" points="1164,-278.597 1168.43,-274.039 1162.13,-274.838 1164,-278.597"/>
</g>
<!-- VinaiKopp\\PostCodeFilter\\ReadModel\\RuleNotFound&#45;&gt;VinaiKopp\\PostCodeFilter\\RuleComponents\\PostCodeList -->
<g id="edge11" class="edge"><title>VinaiKopp\\PostCodeFilter\\ReadModel\\RuleNotFound&#45;&gt;VinaiKopp\\PostCodeFilter\\RuleComponents\\PostCodeList</title>
<path fill="none" stroke="#999999" d="M950.63,-388.521C989.36,-389.045 1032.76,-389.633 1072.53,-390.171"/>
<polygon fill="#999999" stroke="#999999" points="1072.85,-392.275 1078.88,-390.257 1072.9,-388.076 1072.85,-392.275"/>
</g>
<!-- VinaiKopp\\PostCodeFilter\\ReadModel\\RuleReader -->
<g id="node9" class="node"><title>VinaiKopp\\PostCodeFilter\\ReadModel\\RuleReader</title>
<path fill="#9999cc" stroke="black" d="M593.011,-142.945C593.011,-142.945 394.931,-142.945 394.931,-142.945 388.931,-142.945 382.931,-136.945 382.931,-130.945 382.931,-130.945 382.931,-118.945 382.931,-118.945 382.931,-112.945 388.931,-106.945 394.931,-106.945 394.931,-106.945 593.011,-106.945 593.011,-106.945 599.011,-106.945 605.011,-112.945 605.011,-118.945 605.011,-118.945 605.011,-130.945 605.011,-130.945 605.011,-136.945 599.011,-142.945 593.011,-142.945"/>
<text text-anchor="middle" x="493.971" y="-121.945" font-family="Times,serif" font-size="10.00" fill="#000033">VinaiKopp\PostCodeFilter\ReadModel\RuleReader</text>
</g>
<!-- VinaiKopp\\PostCodeFilter\\ReadModel\\RuleReader&#45;&gt;VinaiKopp\\PostCodeFilter\\ReadModel\\Rule -->
<g id="edge13" class="edge"><title>VinaiKopp\\PostCodeFilter\\ReadModel\\RuleReader&#45;&gt;VinaiKopp\\PostCodeFilter\\ReadModel\\Rule</title>
<path fill="none" stroke="#999999" d="M578.354,-142.99C628.318,-153.803 691.83,-167.547 742.837,-178.586"/>
<polygon fill="#999999" stroke="#999999" points="742.686,-180.702 748.994,-179.918 743.574,-176.597 742.686,-180.702"/>
</g>
<!-- VinaiKopp\\PostCodeFilter\\ReadModel\\RuleSpecByCountryAndGroupId -->
<g id="node10" class="node"><title>VinaiKopp\\PostCodeFilter\\ReadModel\\RuleSpecByCountryAndGroupId</title>
<path fill="#9999cc" stroke="black" d="M975.509,-114.945C975.509,-114.945 691.079,-114.945 691.079,-114.945 685.079,-114.945 679.079,-108.945 679.079,-102.945 679.079,-102.945 679.079,-90.9454 679.079,-90.9454 679.079,-84.9454 685.079,-78.9454 691.079,-78.9454 691.079,-78.9454 975.509,-78.9454 975.509,-78.9454 981.509,-78.9454 987.509,-84.9454 987.509,-90.9454 987.509,-90.9454 987.509,-102.945 987.509,-102.945 987.509,-108.945 981.509,-114.945 975.509,-114.945"/>
<text text-anchor="middle" x="833.294" y="-93.9454" font-family="Times,serif" font-size="10.00" fill="#000033">VinaiKopp\PostCodeFilter\ReadModel\RuleSpecByCountryAndGroupId</text>
</g>
<!-- VinaiKopp\\PostCodeFilter\\ReadModel\\RuleReader&#45;&gt;VinaiKopp\\PostCodeFilter\\ReadModel\\RuleSpecByCountryAndGroupId -->
<g id="edge12" class="edge"><title>VinaiKopp\\PostCodeFilter\\ReadModel\\RuleReader&#45;&gt;VinaiKopp\\PostCodeFilter\\ReadModel\\RuleSpecByCountryAndGroupId</title>
<path fill="none" stroke="#999999" d="M605.423,-115.777C627.03,-113.984 650.09,-112.07 672.922,-110.174"/>
<polygon fill="#999999" stroke="#999999" points="673.23,-112.256 679.036,-109.667 672.883,-108.07 673.23,-112.256"/>
</g>
<!-- VinaiKopp\\PostCodeFilter\\ReadModel\\RuleSpecByCountryAndGroupIds -->
<g id="node11" class="node"><title>VinaiKopp\\PostCodeFilter\\ReadModel\\RuleSpecByCountryAndGroupIds</title>
<path fill="#9999cc" stroke="black" d="M977.401,-157.945C977.401,-157.945 689.188,-157.945 689.188,-157.945 683.188,-157.945 677.188,-151.945 677.188,-145.945 677.188,-145.945 677.188,-133.945 677.188,-133.945 677.188,-127.945 683.188,-121.945 689.188,-121.945 689.188,-121.945 977.401,-121.945 977.401,-121.945 983.401,-121.945 989.401,-127.945 989.401,-133.945 989.401,-133.945 989.401,-145.945 989.401,-145.945 989.401,-151.945 983.401,-157.945 977.401,-157.945"/>
<text text-anchor="middle" x="833.294" y="-136.945" font-family="Times,serif" font-size="10.00" fill="#000033">VinaiKopp\PostCodeFilter\ReadModel\RuleSpecByCountryAndGroupIds</text>
</g>
<!-- VinaiKopp\\PostCodeFilter\\ReadModel\\RuleReader&#45;&gt;VinaiKopp\\PostCodeFilter\\ReadModel\\RuleSpecByCountryAndGroupIds -->
<g id="edge14" class="edge"><title>VinaiKopp\\PostCodeFilter\\ReadModel\\RuleReader&#45;&gt;VinaiKopp\\PostCodeFilter\\ReadModel\\RuleSpecByCountryAndGroupIds</title>
<path fill="none" stroke="#999999" d="M605.423,-129.857C626.324,-130.786 648.583,-131.776 670.681,-132.759"/>
<polygon fill="#999999" stroke="#999999" points="670.821,-134.867 676.908,-133.036 671.007,-130.671 670.821,-134.867"/>
</g>
<!-- VinaiKopp\\PostCodeFilter\\ReadModel\\RuleSpecByCountryAndGroupId&#45;&gt;VinaiKopp\\PostCodeFilter\\RuleComponents\\Country -->
<g id="edge16" class="edge"><title>VinaiKopp\\PostCodeFilter\\ReadModel\\RuleSpecByCountryAndGroupId&#45;&gt;VinaiKopp\\PostCodeFilter\\RuleComponents\\Country</title>
<path fill="none" stroke="#999999" d="M973.495,-114.948C978.955,-116.196 984.339,-117.527 989.598,-118.945 1051.29,-135.586 1119.09,-165.218 1161.48,-185.221"/>
<polygon fill="#999999" stroke="#999999" points="1160.72,-187.182 1167.04,-187.855 1162.52,-183.387 1160.72,-187.182"/>
</g>
<!-- VinaiKopp\\PostCodeFilter\\ReadModel\\RuleSpecByCountryAndGroupId&#45;&gt;VinaiKopp\\PostCodeFilter\\RuleComponents\\CustomerGroupId -->
<g id="edge15" class="edge"><title>VinaiKopp\\PostCodeFilter\\ReadModel\\RuleSpecByCountryAndGroupId&#45;&gt;VinaiKopp\\PostCodeFilter\\RuleComponents\\CustomerGroupId</title>
<path fill="none" stroke="#999999" d="M964.428,-114.974C972.952,-116.28 981.4,-117.61 989.598,-118.945 1149.26,-144.963 1191.09,-143.83 1347.55,-184.945 1401.06,-199.007 1460.66,-220.149 1501.97,-235.707"/>
<polygon fill="#999999" stroke="#999999" points="1501.32,-237.706 1507.68,-237.863 1502.81,-233.777 1501.32,-237.706"/>
</g>
<!-- VinaiKopp\\PostCodeFilter\\ReadModel\\RuleSpecByCountryAndGroupIds&#45;&gt;VinaiKopp\\PostCodeFilter\\RuleComponents\\Country -->
<g id="edge17" class="edge"><title>VinaiKopp\\PostCodeFilter\\ReadModel\\RuleSpecByCountryAndGroupIds&#45;&gt;VinaiKopp\\PostCodeFilter\\RuleComponents\\Country</title>
<path fill="none" stroke="#999999" d="M954.347,-158.002C966.268,-159.944 978.177,-161.943 989.598,-163.945 1029.15,-170.881 1072.66,-179.28 1110.06,-186.739"/>
<polygon fill="#999999" stroke="#999999" points="1109.72,-188.811 1116.01,-187.927 1110.54,-184.692 1109.72,-188.811"/>
</g>
<!-- VinaiKopp\\PostCodeFilter\\ReadModel\\RuleSpecByCountryAndGroupIds&#45;&gt;VinaiKopp\\PostCodeFilter\\RuleComponents\\CustomerGroupIdList -->
<g id="edge18" class="edge"><title>VinaiKopp\\PostCodeFilter\\ReadModel\\RuleSpecByCountryAndGroupIds&#45;&gt;VinaiKopp\\PostCodeFilter\\RuleComponents\\CustomerGroupIdList</title>
<path fill="none" stroke="#999999" d="M975.491,-158.037C980.314,-159.831 985.031,-161.796 989.598,-163.945 1028.33,-182.181 1023.25,-208.912 1061.6,-227.945 1067.46,-230.853 1073.59,-233.458 1079.89,-235.794"/>
<polygon fill="#999999" stroke="#999999" points="1079.35,-237.832 1085.71,-237.863 1080.76,-233.875 1079.35,-237.832"/>
</g>
<!-- VinaiKopp\\PostCodeFilter\\RuleRepository -->
<g id="node12" class="node"><title>VinaiKopp\\PostCodeFilter\\RuleRepository</title>
<path fill="#9999cc" stroke="black" d="M576.149,-320.945C576.149,-320.945 411.793,-320.945 411.793,-320.945 405.793,-320.945 399.793,-314.945 399.793,-308.945 399.793,-308.945 399.793,-296.945 399.793,-296.945 399.793,-290.945 405.793,-284.945 411.793,-284.945 411.793,-284.945 576.149,-284.945 576.149,-284.945 582.149,-284.945 588.149,-290.945 588.149,-296.945 588.149,-296.945 588.149,-308.945 588.149,-308.945 588.149,-314.945 582.149,-320.945 576.149,-320.945"/>
<text text-anchor="middle" x="493.971" y="-299.945" font-family="Times,serif" font-size="10.00" fill="#000033">VinaiKopp\PostCodeFilter\RuleRepository</text>
</g>
<!-- VinaiKopp\\PostCodeFilter\\RuleRepository&#45;&gt;VinaiKopp\\PostCodeFilter\\ReadModel\\Rule -->
<g id="edge24" class="edge"><title>VinaiKopp\\PostCodeFilter\\RuleRepository&#45;&gt;VinaiKopp\\PostCodeFilter\\ReadModel\\Rule</title>
<path fill="none" stroke="#999999" d="M588.184,-285.931C593.974,-283.861 599.624,-281.542 604.991,-278.945 642.233,-260.927 639.108,-236.573 676.991,-219.945 693.569,-212.669 712.011,-207.688 730.231,-204.301"/>
<polygon fill="#999999" stroke="#999999" points="730.854,-206.324 736.398,-203.213 730.124,-202.188 730.854,-206.324"/>
</g>
<!-- VinaiKopp\\PostCodeFilter\\RuleRepository&#45;&gt;VinaiKopp\\PostCodeFilter\\RuleComponents\\Country -->
<g id="edge30" class="edge"><title>VinaiKopp\\PostCodeFilter\\RuleRepository&#45;&gt;VinaiKopp\\PostCodeFilter\\RuleComponents\\Country</title>
<path fill="none" stroke="#999999" d="M588.328,-288.565C616.739,-284.61 648.092,-280.665 676.991,-277.945 815.498,-264.913 853.391,-290.259 989.598,-261.945 1023.06,-254.99 1028.75,-244.394 1061.6,-234.945 1073.54,-231.508 1086.17,-228.318 1098.76,-225.406"/>
<polygon fill="#999999" stroke="#999999" points="1099.56,-227.379 1104.94,-224 1098.63,-223.284 1099.56,-227.379"/>
</g>
<!-- VinaiKopp\\PostCodeFilter\\RuleRepository&#45;&gt;VinaiKopp\\PostCodeFilter\\RuleComponents\\CustomerGroupIdList -->
<g id="edge29" class="edge"><title>VinaiKopp\\PostCodeFilter\\RuleRepository&#45;&gt;VinaiKopp\\PostCodeFilter\\RuleComponents\\CustomerGroupIdList</title>
<path fill="none" stroke="#999999" d="M588.473,-298.546C687.975,-293.655 849.984,-285.093 989.598,-274.945 1010.85,-273.401 1033.27,-271.6 1055.28,-269.733"/>
<polygon fill="#999999" stroke="#999999" points="1055.68,-271.807 1061.48,-269.205 1055.32,-267.622 1055.68,-271.807"/>
</g>
<!-- VinaiKopp\\PostCodeFilter\\RuleRepository&#45;&gt;VinaiKopp\\PostCodeFilter\\RuleComponents\\PostCodeList -->
<g id="edge31" class="edge"><title>VinaiKopp\\PostCodeFilter\\RuleRepository&#45;&gt;VinaiKopp\\PostCodeFilter\\RuleComponents\\PostCodeList</title>
<path fill="none" stroke="#999999" d="M581.344,-320.974C589.362,-322.892 597.344,-324.895 604.991,-326.945 637.438,-335.646 643.942,-343.926 676.991,-349.945 813.857,-374.875 850.994,-353.992 989.598,-365.945 1016.55,-368.27 1045.34,-371.354 1072.78,-374.584"/>
<polygon fill="#999999" stroke="#999999" points="1072.78,-376.698 1078.98,-375.319 1073.27,-372.528 1072.78,-376.698"/>
</g>
<!-- VinaiKopp\\PostCodeFilter\\RuleRepository&#45;&gt;VinaiKopp\\PostCodeFilter\\ReadModel\\RuleFound -->
<g id="edge28" class="edge"><title>VinaiKopp\\PostCodeFilter\\RuleRepository&#45;&gt;VinaiKopp\\PostCodeFilter\\ReadModel\\RuleFound</title>
<path fill="none" stroke="#999999" d="M571.179,-321.055C583.204,-325.969 594.961,-332.162 604.991,-339.945 651.449,-375.994 627.423,-419.31 676.991,-450.945 689.243,-458.765 703.138,-464.28 717.457,-468.112"/>
<polygon fill="#999999" stroke="#999999" points="717.285,-470.234 723.616,-469.653 718.305,-466.159 717.285,-470.234"/>
</g>
<!-- VinaiKopp\\PostCodeFilter\\RuleRepository&#45;&gt;VinaiKopp\\PostCodeFilter\\RuleComponents\\CustomerGroupId -->
<g id="edge32" class="edge"><title>VinaiKopp\\PostCodeFilter\\RuleRepository&#45;&gt;VinaiKopp\\PostCodeFilter\\RuleComponents\\CustomerGroupId</title>
<path fill="none" stroke="#999999" d="M588.13,-302.6C745.018,-301.485 1071.84,-296.863 1347.55,-277.945 1368.81,-276.487 1391.26,-274.527 1413.21,-272.375"/>
<polygon fill="#999999" stroke="#999999" points="1413.62,-274.444 1419.39,-271.763 1413.21,-270.265 1413.62,-274.444"/>
</g>
<!-- VinaiKopp\\PostCodeFilter\\RuleRepository&#45;&gt;VinaiKopp\\PostCodeFilter\\ReadModel\\RuleNotFound -->
<g id="edge23" class="edge"><title>VinaiKopp\\PostCodeFilter\\RuleRepository&#45;&gt;VinaiKopp\\PostCodeFilter\\ReadModel\\RuleNotFound</title>
<path fill="none" stroke="#999999" d="M586.129,-320.965C592.564,-322.807 598.907,-324.799 604.991,-326.945 638.73,-338.85 642.903,-352.083 676.991,-362.945 687.616,-366.331 698.808,-369.248 710.114,-371.758"/>
<polygon fill="#999999" stroke="#999999" points="709.727,-373.823 716.034,-373.035 710.612,-369.717 709.727,-373.823"/>
</g>
<!-- VinaiKopp\\PostCodeFilter\\RuleRepository&#45;&gt;VinaiKopp\\PostCodeFilter\\ReadModel\\RuleSpecByCountryAndGroupId -->
<g id="edge22" class="edge"><title>VinaiKopp\\PostCodeFilter\\RuleRepository&#45;&gt;VinaiKopp\\PostCodeFilter\\ReadModel\\RuleSpecByCountryAndGroupId</title>
<path fill="none" stroke="#999999" d="M506.72,-284.755C532.417,-246.675 597.7,-158.801 676.991,-118.945 677.953,-118.462 678.922,-117.988 679.898,-117.524"/>
<polygon fill="#999999" stroke="#999999" points="680.956,-119.351 685.56,-114.967 679.228,-115.523 680.956,-119.351"/>
</g>
<!-- VinaiKopp\\PostCodeFilter\\RuleRepository&#45;&gt;VinaiKopp\\PostCodeFilter\\ReadModel\\RuleSpecByCountryAndGroupIds -->
<g id="edge25" class="edge"><title>VinaiKopp\\PostCodeFilter\\RuleRepository&#45;&gt;VinaiKopp\\PostCodeFilter\\ReadModel\\RuleSpecByCountryAndGroupIds</title>
<path fill="none" stroke="#999999" d="M588.288,-287.917C594.147,-285.37 599.777,-282.402 604.991,-278.945 651.24,-248.283 631.038,-208.048 676.991,-176.945 686.953,-170.203 698,-164.683 709.479,-160.166"/>
<polygon fill="#999999" stroke="#999999" points="710.273,-162.11 715.145,-158.027 708.79,-158.181 710.273,-162.11"/>
</g>
<!-- VinaiKopp\\PostCodeFilter\\RuleStorage -->
<g id="node13" class="node"><title>VinaiKopp\\PostCodeFilter\\RuleStorage</title>
<path fill="#9999cc" stroke="black" d="M908.632,-346.945C908.632,-346.945 757.956,-346.945 757.956,-346.945 751.956,-346.945 745.956,-340.945 745.956,-334.945 745.956,-334.945 745.956,-322.945 745.956,-322.945 745.956,-316.945 751.956,-310.945 757.956,-310.945 757.956,-310.945 908.632,-310.945 908.632,-310.945 914.632,-310.945 920.632,-316.945 920.632,-322.945 920.632,-322.945 920.632,-334.945 920.632,-334.945 920.632,-340.945 914.632,-346.945 908.632,-346.945"/>
<text text-anchor="middle" x="833.294" y="-325.945" font-family="Times,serif" font-size="10.00" fill="#000033">VinaiKopp\PostCodeFilter\RuleStorage</text>
</g>
<!-- VinaiKopp\\PostCodeFilter\\RuleRepository&#45;&gt;VinaiKopp\\PostCodeFilter\\RuleStorage -->
<g id="edge21" class="edge"><title>VinaiKopp\\PostCodeFilter\\RuleRepository&#45;&gt;VinaiKopp\\PostCodeFilter\\RuleStorage</title>
<path fill="none" stroke="#999999" d="M588.487,-310.153C635.603,-313.785 692.555,-318.175 739.562,-321.798"/>
<polygon fill="#999999" stroke="#999999" points="739.688,-323.914 745.831,-322.281 740.01,-319.726 739.688,-323.914"/>
</g>
<!-- VinaiKopp\\PostCodeFilter\\WriteModel\\RuleToAdd -->
<g id="node14" class="node"><title>VinaiKopp\\PostCodeFilter\\WriteModel\\RuleToAdd</title>
<path fill="#9999cc" stroke="black" d="M932.972,-447.945C932.972,-447.945 733.617,-447.945 733.617,-447.945 727.617,-447.945 721.617,-441.945 721.617,-435.945 721.617,-435.945 721.617,-423.945 721.617,-423.945 721.617,-417.945 727.617,-411.945 733.617,-411.945 733.617,-411.945 932.972,-411.945 932.972,-411.945 938.972,-411.945 944.972,-417.945 944.972,-423.945 944.972,-423.945 944.972,-435.945 944.972,-435.945 944.972,-441.945 938.972,-447.945 932.972,-447.945"/>
<text text-anchor="middle" x="833.294" y="-426.945" font-family="Times,serif" font-size="10.00" fill="#000033">VinaiKopp\PostCodeFilter\WriteModel\RuleToAdd</text>
</g>
<!-- VinaiKopp\\PostCodeFilter\\RuleRepository&#45;&gt;VinaiKopp\\PostCodeFilter\\WriteModel\\RuleToAdd -->
<g id="edge26" class="edge"><title>VinaiKopp\\PostCodeFilter\\RuleRepository&#45;&gt;VinaiKopp\\PostCodeFilter\\WriteModel\\RuleToAdd</title>
<path fill="none" stroke="#999999" d="M563.919,-321.029C578.013,-326.112 592.378,-332.374 604.991,-339.945 642.73,-362.599 637.334,-388.849 676.991,-407.945 689.012,-413.734 702.121,-418.113 715.46,-421.41"/>
<polygon fill="#999999" stroke="#999999" points="715.281,-423.524 721.602,-422.849 716.24,-419.435 715.281,-423.524"/>
</g>
<!-- VinaiKopp\\PostCodeFilter\\WriteModel\\RuleToDelete -->
<g id="node15" class="node"><title>VinaiKopp\\PostCodeFilter\\WriteModel\\RuleToDelete</title>
<path fill="#9999cc" stroke="black" d="M937.344,-258.945C937.344,-258.945 729.245,-258.945 729.245,-258.945 723.245,-258.945 717.245,-252.945 717.245,-246.945 717.245,-246.945 717.245,-234.945 717.245,-234.945 717.245,-228.945 723.245,-222.945 729.245,-222.945 729.245,-222.945 937.344,-222.945 937.344,-222.945 943.344,-222.945 949.344,-228.945 949.344,-234.945 949.344,-234.945 949.344,-246.945 949.344,-246.945 949.344,-252.945 943.344,-258.945 937.344,-258.945"/>
<text text-anchor="middle" x="833.294" y="-237.945" font-family="Times,serif" font-size="10.00" fill="#000033">VinaiKopp\PostCodeFilter\WriteModel\RuleToDelete</text>
</g>
<!-- VinaiKopp\\PostCodeFilter\\RuleRepository&#45;&gt;VinaiKopp\\PostCodeFilter\\WriteModel\\RuleToDelete -->
<g id="edge27" class="edge"><title>VinaiKopp\\PostCodeFilter\\RuleRepository&#45;&gt;VinaiKopp\\PostCodeFilter\\WriteModel\\RuleToDelete</title>
<path fill="none" stroke="#999999" d="M576.794,-284.91C608.072,-278.266 644.117,-270.913 676.991,-264.945 688.078,-262.933 699.63,-260.945 711.207,-259.026"/>
<polygon fill="#999999" stroke="#999999" points="711.683,-261.076 717.262,-258.03 711.001,-256.932 711.683,-261.076"/>
</g>
<!-- VinaiKopp\\PostCodeFilter\\WriteModel\\RuleToAdd&#45;&gt;VinaiKopp\\PostCodeFilter\\RuleComponents\\Country -->
<g id="edge63" class="edge"><title>VinaiKopp\\PostCodeFilter\\WriteModel\\RuleToAdd&#45;&gt;VinaiKopp\\PostCodeFilter\\RuleComponents\\Country</title>
<path fill="none" stroke="#999999" d="M945.28,-428.588C961.28,-424.465 976.676,-417.945 989.598,-407.945 1055.46,-356.978 997.311,-287.89 1061.6,-234.945 1068.3,-229.423 1075.78,-224.862 1083.71,-221.105"/>
<polygon fill="#999999" stroke="#999999" points="1084.63,-222.991 1089.26,-218.63 1082.92,-219.155 1084.63,-222.991"/>
</g>
<!-- VinaiKopp\\PostCodeFilter\\WriteModel\\RuleToAdd&#45;&gt;VinaiKopp\\PostCodeFilter\\RuleComponents\\CustomerGroupIdList -->
<g id="edge61" class="edge"><title>VinaiKopp\\PostCodeFilter\\WriteModel\\RuleToAdd&#45;&gt;VinaiKopp\\PostCodeFilter\\RuleComponents\\CustomerGroupIdList</title>
<path fill="none" stroke="#999999" d="M945.028,-420.894C960.306,-417.743 975.558,-413.54 989.598,-407.945 1066.98,-377.113 1142.95,-312.815 1180.07,-278.562"/>
<polygon fill="#999999" stroke="#999999" points="1181.87,-279.759 1184.83,-274.136 1179.01,-276.683 1181.87,-279.759"/>
</g>
<!-- VinaiKopp\\PostCodeFilter\\WriteModel\\RuleToAdd&#45;&gt;VinaiKopp\\PostCodeFilter\\RuleComponents\\PostCodeList -->
<g id="edge62" class="edge"><title>VinaiKopp\\PostCodeFilter\\WriteModel\\RuleToAdd&#45;&gt;VinaiKopp\\PostCodeFilter\\RuleComponents\\PostCodeList</title>
<path fill="none" stroke="#999999" d="M945.09,-418.544C985.284,-414.408 1031.07,-409.697 1072.82,-405.4"/>
<polygon fill="#999999" stroke="#999999" points="1073.2,-407.473 1078.95,-404.769 1072.77,-403.295 1073.2,-407.473"/>
</g>
<!-- VinaiKopp\\PostCodeFilter\\WriteModel\\RuleToDelete&#45;&gt;VinaiKopp\\PostCodeFilter\\RuleComponents\\Country -->
<g id="edge65" class="edge"><title>VinaiKopp\\PostCodeFilter\\WriteModel\\RuleToDelete&#45;&gt;VinaiKopp\\PostCodeFilter\\RuleComponents\\Country</title>
<path fill="none" stroke="#999999" d="M949.365,-230.039C991.921,-226.006 1040.25,-221.425 1083.26,-217.349"/>
<polygon fill="#999999" stroke="#999999" points="1083.52,-219.434 1089.29,-216.777 1083.12,-215.252 1083.52,-219.434"/>
</g>
<!-- VinaiKopp\\PostCodeFilter\\WriteModel\\RuleToDelete&#45;&gt;VinaiKopp\\PostCodeFilter\\RuleComponents\\CustomerGroupIdList -->
<g id="edge64" class="edge"><title>VinaiKopp\\PostCodeFilter\\WriteModel\\RuleToDelete&#45;&gt;VinaiKopp\\PostCodeFilter\\RuleComponents\\CustomerGroupIdList</title>
<path fill="none" stroke="#999999" d="M949.365,-245.62C982.881,-246.981 1019.98,-248.488 1055.24,-249.92"/>
<polygon fill="#999999" stroke="#999999" points="1055.26,-252.023 1061.34,-250.168 1055.43,-247.826 1055.26,-252.023"/>
</g>
<!-- VinaiKopp\\PostCodeFilter\\UseCases\\AdminAddsRule -->
<g id="node16" class="node"><title>VinaiKopp\\PostCodeFilter\\UseCases\\AdminAddsRule</title>
<path fill="#9999cc" stroke="black" d="M260.818,-378.945C260.818,-378.945 50.1328,-378.945 50.1328,-378.945 44.1328,-378.945 38.1328,-372.945 38.1328,-366.945 38.1328,-366.945 38.1328,-354.945 38.1328,-354.945 38.1328,-348.945 44.1328,-342.945 50.1328,-342.945 50.1328,-342.945 260.818,-342.945 260.818,-342.945 266.818,-342.945 272.818,-348.945 272.818,-354.945 272.818,-354.945 272.818,-366.945 272.818,-366.945 272.818,-372.945 266.818,-378.945 260.818,-378.945"/>
<text text-anchor="middle" x="155.476" y="-357.945" font-family="Times,serif" font-size="10.00" fill="#000033">VinaiKopp\PostCodeFilter\UseCases\AdminAddsRule</text>
</g>
<!-- VinaiKopp\\PostCodeFilter\\UseCases\\AdminAddsRule&#45;&gt;VinaiKopp\\PostCodeFilter\\ReadModel\\RuleFound -->
<g id="edge36" class="edge"><title>VinaiKopp\\PostCodeFilter\\UseCases\\AdminAddsRule&#45;&gt;VinaiKopp\\PostCodeFilter\\ReadModel\\RuleFound</title>
<path fill="none" stroke="#999999" d="M207.51,-379.042C252.968,-394.436 321.591,-415.908 382.951,-427.945 495.385,-450.003 625.886,-461.542 717.184,-467.383"/>
<polygon fill="#999999" stroke="#999999" points="717.294,-469.494 723.415,-467.777 717.559,-465.302 717.294,-469.494"/>
</g>
<!-- VinaiKopp\\PostCodeFilter\\UseCases\\AdminAddsRule&#45;&gt;VinaiKopp\\PostCodeFilter\\ReadModel\\RuleReader -->
<g id="edge34" class="edge"><title>VinaiKopp\\PostCodeFilter\\UseCases\\AdminAddsRule&#45;&gt;VinaiKopp\\PostCodeFilter\\ReadModel\\RuleReader</title>
<path fill="none" stroke="#999999" d="M197.607,-342.828C229.596,-327.995 274.515,-305.511 310.951,-280.945 372.621,-239.367 436.892,-179.816 470.079,-147.648"/>
<polygon fill="#999999" stroke="#999999" points="471.911,-148.796 474.746,-143.106 468.982,-145.786 471.911,-148.796"/>
</g>
<!-- VinaiKopp\\PostCodeFilter\\UseCases\\AdminAddsRule&#45;&gt;VinaiKopp\\PostCodeFilter\\ReadModel\\RuleSpecByCountryAndGroupIds -->
<g id="edge37" class="edge"><title>VinaiKopp\\PostCodeFilter\\UseCases\\AdminAddsRule&#45;&gt;VinaiKopp\\PostCodeFilter\\ReadModel\\RuleSpecByCountryAndGroupIds</title>
<path fill="none" stroke="#999999" d="M207.675,-342.858C253.531,-326.712 322.649,-302.51 382.951,-281.945 481.404,-248.37 507.791,-244.991 604.991,-207.945 637.547,-195.538 643.922,-187.912 676.991,-176.945 696.745,-170.394 718.272,-164.503 738.833,-159.448"/>
<polygon fill="#999999" stroke="#999999" points="739.556,-161.433 744.89,-157.976 738.564,-157.352 739.556,-161.433"/>
</g>
<!-- VinaiKopp\\PostCodeFilter\\UseCases\\AdminAddsRule&#45;&gt;VinaiKopp\\PostCodeFilter\\WriteModel\\RuleToAdd -->
<g id="edge35" class="edge"><title>VinaiKopp\\PostCodeFilter\\UseCases\\AdminAddsRule&#45;&gt;VinaiKopp\\PostCodeFilter\\WriteModel\\RuleToAdd</title>
<path fill="none" stroke="#999999" d="M217.368,-378.981C262.606,-391.516 326.066,-407.293 382.951,-414.945 495.058,-430.026 624.237,-432.84 715.232,-432.442"/>
<polygon fill="#999999" stroke="#999999" points="715.455,-434.541 721.444,-432.409 715.433,-430.341 715.455,-434.541"/>
</g>
<!-- VinaiKopp\\PostCodeFilter\\WriteModel\\RuleWriter -->
<g id="node17" class="node"><title>VinaiKopp\\PostCodeFilter\\WriteModel\\RuleWriter</title>
<path fill="#9999cc" stroke="black" d="M592.715,-378.945C592.715,-378.945 395.227,-378.945 395.227,-378.945 389.227,-378.945 383.227,-372.945 383.227,-366.945 383.227,-366.945 383.227,-354.945 383.227,-354.945 383.227,-348.945 389.227,-342.945 395.227,-342.945 395.227,-342.945 592.715,-342.945 592.715,-342.945 598.715,-342.945 604.715,-348.945 604.715,-354.945 604.715,-354.945 604.715,-366.945 604.715,-366.945 604.715,-372.945 598.715,-378.945 592.715,-378.945"/>
<text text-anchor="middle" x="493.971" y="-357.945" font-family="Times,serif" font-size="10.00" fill="#000033">VinaiKopp\PostCodeFilter\WriteModel\RuleWriter</text>
</g>
<!-- VinaiKopp\\PostCodeFilter\\UseCases\\AdminAddsRule&#45;&gt;VinaiKopp\\PostCodeFilter\\WriteModel\\RuleWriter -->
<g id="edge33" class="edge"><title>VinaiKopp\\PostCodeFilter\\UseCases\\AdminAddsRule&#45;&gt;VinaiKopp\\PostCodeFilter\\WriteModel\\RuleWriter</title>
<path fill="none" stroke="#999999" d="M273.221,-360.945C306.816,-360.945 343.443,-360.945 376.992,-360.945"/>
<polygon fill="#999999" stroke="#999999" points="377.219,-363.045 383.219,-360.945 377.219,-358.845 377.219,-363.045"/>
</g>
<!-- VinaiKopp\\PostCodeFilter\\WriteModel\\RuleWriter&#45;&gt;VinaiKopp\\PostCodeFilter\\WriteModel\\RuleToAdd -->
<g id="edge66" class="edge"><title>VinaiKopp\\PostCodeFilter\\WriteModel\\RuleWriter&#45;&gt;VinaiKopp\\PostCodeFilter\\WriteModel\\RuleToAdd</title>
<path fill="none" stroke="#999999" d="M557.75,-379.008C592.647,-388.58 636.981,-399.972 676.991,-407.945 689.382,-410.415 702.382,-412.711 715.364,-414.817"/>
<polygon fill="#999999" stroke="#999999" points="715.068,-416.897 721.325,-415.771 715.732,-412.749 715.068,-416.897"/>
</g>
<!-- VinaiKopp\\PostCodeFilter\\WriteModel\\RuleWriter&#45;&gt;VinaiKopp\\PostCodeFilter\\WriteModel\\RuleToDelete -->
<g id="edge67" class="edge"><title>VinaiKopp\\PostCodeFilter\\WriteModel\\RuleWriter&#45;&gt;VinaiKopp\\PostCodeFilter\\WriteModel\\RuleToDelete</title>
<path fill="none" stroke="#999999" d="M551.644,-342.854C568.826,-337.247 587.72,-330.96 604.991,-324.945 665,-304.048 733.323,-278.569 779.26,-261.189"/>
<polygon fill="#999999" stroke="#999999" points="780.161,-263.093 785.029,-259.005 778.674,-259.166 780.161,-263.093"/>
</g>
<!-- VinaiKopp\\PostCodeFilter\\UseCases\\AdminDeletesRule -->
<g id="node18" class="node"><title>VinaiKopp\\PostCodeFilter\\UseCases\\AdminDeletesRule</title>
<path fill="#9999cc" stroke="black" d="M265.191,-231.945C265.191,-231.945 45.7606,-231.945 45.7606,-231.945 39.7606,-231.945 33.7606,-225.945 33.7606,-219.945 33.7606,-219.945 33.7606,-207.945 33.7606,-207.945 33.7606,-201.945 39.7606,-195.945 45.7606,-195.945 45.7606,-195.945 265.191,-195.945 265.191,-195.945 271.191,-195.945 277.191,-201.945 277.191,-207.945 277.191,-207.945 277.191,-219.945 277.191,-219.945 277.191,-225.945 271.191,-231.945 265.191,-231.945"/>
<text text-anchor="middle" x="155.476" y="-210.945" font-family="Times,serif" font-size="10.00" fill="#000033">VinaiKopp\PostCodeFilter\UseCases\AdminDeletesRule</text>
</g>
<!-- VinaiKopp\\PostCodeFilter\\UseCases\\AdminDeletesRule&#45;&gt;VinaiKopp\\PostCodeFilter\\ReadModel\\RuleNotFound -->
<g id="edge42" class="edge"><title>VinaiKopp\\PostCodeFilter\\UseCases\\AdminDeletesRule&#45;&gt;VinaiKopp\\PostCodeFilter\\ReadModel\\RuleNotFound</title>
<path fill="none" stroke="#999999" d="M277.435,-223.984C289.164,-227.513 300.552,-232.075 310.951,-237.945 354.36,-262.452 338.572,-301.243 382.951,-323.945 426.993,-346.476 556.417,-330.575 604.991,-339.945 637.976,-346.308 644.292,-355.246 676.991,-362.945 687.733,-365.475 698.957,-367.804 710.244,-369.933"/>
<polygon fill="#999999" stroke="#999999" points="709.867,-371.999 716.149,-371.028 710.633,-367.87 709.867,-371.999"/>
</g>
<!-- VinaiKopp\\PostCodeFilter\\UseCases\\AdminDeletesRule&#45;&gt;VinaiKopp\\PostCodeFilter\\ReadModel\\RuleReader -->
<g id="edge39" class="edge"><title>VinaiKopp\\PostCodeFilter\\UseCases\\AdminDeletesRule&#45;&gt;VinaiKopp\\PostCodeFilter\\ReadModel\\RuleReader</title>
<path fill="none" stroke="#999999" d="M277.355,-201.48C288.86,-198.88 300.225,-195.739 310.951,-191.945 346.091,-179.518 348.29,-162.652 382.951,-148.945 386.53,-147.53 390.21,-146.19 393.953,-144.923"/>
<polygon fill="#999999" stroke="#999999" points="394.828,-146.847 399.882,-142.991 393.526,-142.854 394.828,-146.847"/>
</g>
<!-- VinaiKopp\\PostCodeFilter\\UseCases\\AdminDeletesRule&#45;&gt;VinaiKopp\\PostCodeFilter\\ReadModel\\RuleSpecByCountryAndGroupIds -->
<g id="edge41" class="edge"><title>VinaiKopp\\PostCodeFilter\\UseCases\\AdminDeletesRule&#45;&gt;VinaiKopp\\PostCodeFilter\\ReadModel\\RuleSpecByCountryAndGroupIds</title>
<path fill="none" stroke="#999999" d="M277.298,-200.716C387.161,-188.686 550.115,-170.843 671.058,-157.6"/>
<polygon fill="#999999" stroke="#999999" points="671.411,-159.674 677.147,-156.934 670.954,-155.499 671.411,-159.674"/>
</g>
<!-- VinaiKopp\\PostCodeFilter\\UseCases\\AdminDeletesRule&#45;&gt;VinaiKopp\\PostCodeFilter\\WriteModel\\RuleToDelete -->
<g id="edge40" class="edge"><title>VinaiKopp\\PostCodeFilter\\UseCases\\AdminDeletesRule&#45;&gt;VinaiKopp\\PostCodeFilter\\WriteModel\\RuleToDelete</title>
<path fill="none" stroke="#999999" d="M277.298,-218.772C399.762,-223.665 588.195,-231.193 710.872,-236.094"/>
<polygon fill="#999999" stroke="#999999" points="710.95,-238.199 717.029,-236.34 711.117,-234.002 710.95,-238.199"/>
</g>
<!-- VinaiKopp\\PostCodeFilter\\UseCases\\AdminDeletesRule&#45;&gt;VinaiKopp\\PostCodeFilter\\WriteModel\\RuleWriter -->
<g id="edge38" class="edge"><title>VinaiKopp\\PostCodeFilter\\UseCases\\AdminDeletesRule&#45;&gt;VinaiKopp\\PostCodeFilter\\WriteModel\\RuleWriter</title>
<path fill="none" stroke="#999999" d="M277.462,-223.136C289.25,-226.822 300.643,-231.653 310.951,-237.945 357.388,-266.293 337.395,-307.203 382.951,-336.945 384.629,-338.041 386.349,-339.087 388.105,-340.086"/>
<polygon fill="#999999" stroke="#999999" points="387.191,-341.979 393.474,-342.945 389.165,-338.271 387.191,-341.979"/>
</g>
<!-- VinaiKopp\\PostCodeFilter\\UseCases\\AdminUpdatesRule -->
<g id="node19" class="node"><title>VinaiKopp\\PostCodeFilter\\UseCases\\AdminUpdatesRule</title>
<path fill="#9999cc" stroke="black" d="M266.974,-276.945C266.974,-276.945 43.977,-276.945 43.977,-276.945 37.977,-276.945 31.977,-270.945 31.977,-264.945 31.977,-264.945 31.977,-252.945 31.977,-252.945 31.977,-246.945 37.977,-240.945 43.977,-240.945 43.977,-240.945 266.974,-240.945 266.974,-240.945 272.974,-240.945 278.974,-246.945 278.974,-252.945 278.974,-252.945 278.974,-264.945 278.974,-264.945 278.974,-270.945 272.974,-276.945 266.974,-276.945"/>
<text text-anchor="middle" x="155.476" y="-255.945" font-family="Times,serif" font-size="10.00" fill="#000033">VinaiKopp\PostCodeFilter\UseCases\AdminUpdatesRule</text>
</g>
<!-- VinaiKopp\\PostCodeFilter\\UseCases\\AdminUpdatesRule&#45;&gt;VinaiKopp\\PostCodeFilter\\ReadModel\\Rule -->
<g id="edge49" class="edge"><title>VinaiKopp\\PostCodeFilter\\UseCases\\AdminUpdatesRule&#45;&gt;VinaiKopp\\PostCodeFilter\\ReadModel\\Rule</title>
<path fill="none" stroke="#999999" d="M278.833,-254.003C389.557,-249.186 544.288,-241.503 604.991,-233.945 637.341,-229.918 644.842,-225.344 676.991,-219.945 694.243,-217.048 712.615,-214.22 730.46,-211.608"/>
<polygon fill="#999999" stroke="#999999" points="730.854,-213.673 736.489,-210.731 730.249,-209.517 730.854,-213.673"/>
</g>
<!-- VinaiKopp\\PostCodeFilter\\UseCases\\AdminUpdatesRule&#45;&gt;VinaiKopp\\PostCodeFilter\\ReadModel\\RuleNotFound -->
<g id="edge47" class="edge"><title>VinaiKopp\\PostCodeFilter\\UseCases\\AdminUpdatesRule&#45;&gt;VinaiKopp\\PostCodeFilter\\ReadModel\\RuleNotFound</title>
<path fill="none" stroke="#999999" d="M191.996,-276.994C223.463,-293.119 270.547,-317.583 310.951,-339.945 343.364,-357.885 347.243,-372.078 382.951,-381.945 442.085,-398.286 598.16,-396.436 709.743,-392.578"/>
<polygon fill="#999999" stroke="#999999" points="710.1,-394.667 716.023,-392.358 709.953,-390.47 710.1,-394.667"/>
</g>
<!-- VinaiKopp\\PostCodeFilter\\UseCases\\AdminUpdatesRule&#45;&gt;VinaiKopp\\PostCodeFilter\\ReadModel\\RuleReader -->
<g id="edge44" class="edge"><title>VinaiKopp\\PostCodeFilter\\UseCases\\AdminUpdatesRule&#45;&gt;VinaiKopp\\PostCodeFilter\\ReadModel\\RuleReader</title>
<path fill="none" stroke="#999999" d="M279.038,-245.347C289.973,-242.743 300.754,-239.641 310.951,-235.945 370.154,-214.488 431.059,-172.526 465.256,-146.79"/>
<polygon fill="#999999" stroke="#999999" points="466.591,-148.413 470.104,-143.115 464.054,-145.066 466.591,-148.413"/>
</g>
<!-- VinaiKopp\\PostCodeFilter\\UseCases\\AdminUpdatesRule&#45;&gt;VinaiKopp\\PostCodeFilter\\ReadModel\\RuleSpecByCountryAndGroupIds -->
<g id="edge48" class="edge"><title>VinaiKopp\\PostCodeFilter\\UseCases\\AdminUpdatesRule&#45;&gt;VinaiKopp\\PostCodeFilter\\ReadModel\\RuleSpecByCountryAndGroupIds</title>
<path fill="none" stroke="#999999" d="M278.802,-241.122C289.681,-239.419 300.52,-237.679 310.951,-235.945 458.492,-211.421 628.807,-179.347 733.523,-159.191"/>
<polygon fill="#999999" stroke="#999999" points="734.208,-161.198 739.703,-158.001 733.414,-157.073 734.208,-161.198"/>
</g>
<!-- VinaiKopp\\PostCodeFilter\\UseCases\\AdminUpdatesRule&#45;&gt;VinaiKopp\\PostCodeFilter\\WriteModel\\RuleToAdd -->
<g id="edge46" class="edge"><title>VinaiKopp\\PostCodeFilter\\UseCases\\AdminUpdatesRule&#45;&gt;VinaiKopp\\PostCodeFilter\\WriteModel\\RuleToAdd</title>
<path fill="none" stroke="#999999" d="M194.825,-277.032C226.639,-292.511 272.693,-316.026 310.951,-339.945 344.643,-361.01 345.74,-379.009 382.951,-392.945 413.317,-404.318 592.632,-416.47 715.352,-423.628"/>
<polygon fill="#999999" stroke="#999999" points="715.406,-425.734 721.518,-423.986 715.65,-421.541 715.406,-425.734"/>
</g>
<!-- VinaiKopp\\PostCodeFilter\\UseCases\\AdminUpdatesRule&#45;&gt;VinaiKopp\\PostCodeFilter\\WriteModel\\RuleToDelete -->
<g id="edge45" class="edge"><title>VinaiKopp\\PostCodeFilter\\UseCases\\AdminUpdatesRule&#45;&gt;VinaiKopp\\PostCodeFilter\\WriteModel\\RuleToDelete</title>
<path fill="none" stroke="#999999" d="M278.795,-256.643C368.974,-254.843 494.632,-252.118 604.991,-248.945 639.362,-247.957 676.651,-246.716 710.895,-245.508"/>
<polygon fill="#999999" stroke="#999999" points="711.33,-247.594 717.252,-245.283 711.181,-243.396 711.33,-247.594"/>
</g>
<!-- VinaiKopp\\PostCodeFilter\\UseCases\\AdminUpdatesRule&#45;&gt;VinaiKopp\\PostCodeFilter\\WriteModel\\RuleWriter -->
<g id="edge43" class="edge"><title>VinaiKopp\\PostCodeFilter\\UseCases\\AdminUpdatesRule&#45;&gt;VinaiKopp\\PostCodeFilter\\WriteModel\\RuleWriter</title>
<path fill="none" stroke="#999999" d="M203.683,-277.014C249.147,-293.982 320.084,-319.328 382.951,-336.945 388.343,-338.456 393.905,-339.93 399.532,-341.355"/>
<polygon fill="#999999" stroke="#999999" points="399.329,-343.468 405.659,-342.882 400.345,-339.393 399.329,-343.468"/>
</g>
<!-- VinaiKopp\\PostCodeFilter\\UseCases\\AdminViewsRuleList -->
<g id="node20" class="node"><title>VinaiKopp\\PostCodeFilter\\UseCases\\AdminViewsRuleList</title>
<path fill="#9999cc" stroke="black" d="M270.718,-187.945C270.718,-187.945 40.2333,-187.945 40.2333,-187.945 34.2333,-187.945 28.2333,-181.945 28.2333,-175.945 28.2333,-175.945 28.2333,-163.945 28.2333,-163.945 28.2333,-157.945 34.2333,-151.945 40.2333,-151.945 40.2333,-151.945 270.718,-151.945 270.718,-151.945 276.718,-151.945 282.718,-157.945 282.718,-163.945 282.718,-163.945 282.718,-175.945 282.718,-175.945 282.718,-181.945 276.718,-187.945 270.718,-187.945"/>
<text text-anchor="middle" x="155.476" y="-166.945" font-family="Times,serif" font-size="10.00" fill="#000033">VinaiKopp\PostCodeFilter\UseCases\AdminViewsRuleList</text>
</g>
<!-- VinaiKopp\\PostCodeFilter\\UseCases\\AdminViewsRuleList&#45;&gt;VinaiKopp\\PostCodeFilter\\ReadModel\\Rule -->
<g id="edge51" class="edge"><title>VinaiKopp\\PostCodeFilter\\UseCases\\AdminViewsRuleList&#45;&gt;VinaiKopp\\PostCodeFilter\\ReadModel\\Rule</title>
<path fill="none" stroke="#999999" d="M282.754,-181.972C315.367,-184.685 350.443,-187.258 382.951,-188.945 501.969,-195.124 638.923,-197.133 730.042,-197.749"/>
<polygon fill="#999999" stroke="#999999" points="730.236,-199.851 736.249,-197.79 730.263,-195.651 730.236,-199.851"/>
</g>
<!-- VinaiKopp\\PostCodeFilter\\UseCases\\AdminViewsRuleList&#45;&gt;VinaiKopp\\PostCodeFilter\\ReadModel\\RuleReader -->
<g id="edge50" class="edge"><title>VinaiKopp\\PostCodeFilter\\UseCases\\AdminViewsRuleList&#45;&gt;VinaiKopp\\PostCodeFilter\\ReadModel\\RuleReader</title>
<path fill="none" stroke="#999999" d="M282.731,-153.061C313.589,-148.934 346.461,-144.538 376.821,-140.478"/>
<polygon fill="#999999" stroke="#999999" points="377.19,-142.548 382.858,-139.671 376.633,-138.385 377.19,-142.548"/>
</g>
<!-- VinaiKopp\\PostCodeFilter\\UseCases\\AdminViewsSingleRule -->
<g id="node21" class="node"><title>VinaiKopp\\PostCodeFilter\\UseCases\\AdminViewsSingleRule</title>
<path fill="#9999cc" stroke="black" d="M275.718,-142.945C275.718,-142.945 35.2333,-142.945 35.2333,-142.945 29.2333,-142.945 23.2333,-136.945 23.2333,-130.945 23.2333,-130.945 23.2333,-118.945 23.2333,-118.945 23.2333,-112.945 29.2333,-106.945 35.2333,-106.945 35.2333,-106.945 275.718,-106.945 275.718,-106.945 281.718,-106.945 287.718,-112.945 287.718,-118.945 287.718,-118.945 287.718,-130.945 287.718,-130.945 287.718,-136.945 281.718,-142.945 275.718,-142.945"/>
<text text-anchor="middle" x="155.476" y="-121.945" font-family="Times,serif" font-size="10.00" fill="#000033">VinaiKopp\PostCodeFilter\UseCases\AdminViewsSingleRule</text>
</g>
<!-- VinaiKopp\\PostCodeFilter\\UseCases\\AdminViewsSingleRule&#45;&gt;VinaiKopp\\PostCodeFilter\\ReadModel\\Rule -->
<g id="edge53" class="edge"><title>VinaiKopp\\PostCodeFilter\\UseCases\\AdminViewsSingleRule&#45;&gt;VinaiKopp\\PostCodeFilter\\ReadModel\\Rule</title>
<path fill="none" stroke="#999999" d="M284.543,-143.007C293.517,-144.835 302.392,-146.813 310.951,-148.945 343.821,-157.134 349.711,-167.422 382.951,-173.945 446.903,-186.495 618.361,-192.881 730.028,-195.807"/>
<polygon fill="#999999" stroke="#999999" points="730.243,-197.913 736.296,-195.969 730.352,-193.714 730.243,-197.913"/>
</g>
<!-- VinaiKopp\\PostCodeFilter\\UseCases\\AdminViewsSingleRule&#45;&gt;VinaiKopp\\PostCodeFilter\\RuleComponents\\Country -->
<g id="edge55" class="edge"><title>VinaiKopp\\PostCodeFilter\\UseCases\\AdminViewsSingleRule&#45;&gt;VinaiKopp\\PostCodeFilter\\RuleComponents\\Country</title>
<path fill="none" stroke="#999999" d="M287.057,-106.917C487.51,-80.9887 861.322,-40.033 989.598,-75.9454 1064.71,-96.9737 1139.65,-152.396 1177.76,-183.663"/>
<polygon fill="#999999" stroke="#999999" points="1176.71,-185.516 1182.67,-187.723 1179.39,-182.28 1176.71,-185.516"/>
</g>
<!-- VinaiKopp\\PostCodeFilter\\UseCases\\AdminViewsSingleRule&#45;&gt;VinaiKopp\\PostCodeFilter\\RuleComponents\\CustomerGroupIdList -->
<g id="edge56" class="edge"><title>VinaiKopp\\PostCodeFilter\\UseCases\\AdminViewsSingleRule&#45;&gt;VinaiKopp\\PostCodeFilter\\RuleComponents\\CustomerGroupIdList</title>
<path fill="none" stroke="#999999" d="M287.819,-138.769C318.98,-141.754 352.122,-144.687 382.951,-146.945 387.158,-147.254 985.611,-175.567 989.598,-176.945 1026.66,-189.758 1025.56,-212.476 1061.6,-227.945 1068.68,-230.986 1076.1,-233.7 1083.69,-236.122"/>
<polygon fill="#999999" stroke="#999999" points="1083.16,-238.157 1089.51,-237.918 1084.4,-234.143 1083.16,-238.157"/>
</g>
<!-- VinaiKopp\\PostCodeFilter\\UseCases\\AdminViewsSingleRule&#45;&gt;VinaiKopp\\PostCodeFilter\\ReadModel\\RuleReader -->
<g id="edge52" class="edge"><title>VinaiKopp\\PostCodeFilter\\UseCases\\AdminViewsSingleRule&#45;&gt;VinaiKopp\\PostCodeFilter\\ReadModel\\RuleReader</title>
<path fill="none" stroke="#999999" d="M288.019,-124.945C317.275,-124.945 348.086,-124.945 376.678,-124.945"/>
<polygon fill="#999999" stroke="#999999" points="376.744,-127.045 382.744,-124.945 376.744,-122.845 376.744,-127.045"/>
</g>
<!-- VinaiKopp\\PostCodeFilter\\UseCases\\AdminViewsSingleRule&#45;&gt;VinaiKopp\\PostCodeFilter\\ReadModel\\RuleSpecByCountryAndGroupIds -->
<g id="edge54" class="edge"><title>VinaiKopp\\PostCodeFilter\\UseCases\\AdminViewsSingleRule&#45;&gt;VinaiKopp\\PostCodeFilter\\ReadModel\\RuleSpecByCountryAndGroupIds</title>
<path fill="none" stroke="#999999" d="M287.766,-110.697C318.929,-107.89 352.085,-105.373 382.951,-103.945 481.53,-99.3848 506.761,-94.4839 604.991,-103.945 637.44,-107.071 644.842,-112.546 676.991,-117.945 683.034,-118.96 689.214,-119.966 695.46,-120.958"/>
<polygon fill="#999999" stroke="#999999" points="695.473,-123.086 701.727,-121.944 696.126,-118.937 695.473,-123.086"/>
</g>
<!-- VinaiKopp\\PostCodeFilter\\UseCases\\CustomerSpecifiesShippingAddress -->
<g id="node22" class="node"><title>VinaiKopp\\PostCodeFilter\\UseCases\\CustomerSpecifiesShippingAddress</title>
<path fill="#9999cc" stroke="black" d="M298.927,-75.9454C298.927,-75.9454 12.0244,-75.9454 12.0244,-75.9454 6.02441,-75.9454 0.0244102,-69.9454 0.0244102,-63.9454 0.0244102,-63.9454 0.0244102,-51.9454 0.0244102,-51.9454 0.0244102,-45.9454 6.02441,-39.9454 12.0244,-39.9454 12.0244,-39.9454 298.927,-39.9454 298.927,-39.9454 304.927,-39.9454 310.927,-45.9454 310.927,-51.9454 310.927,-51.9454 310.927,-63.9454 310.927,-63.9454 310.927,-69.9454 304.927,-75.9454 298.927,-75.9454"/>
<text text-anchor="middle" x="155.476" y="-54.9454" font-family="Times,serif" font-size="10.00" fill="#000033">VinaiKopp\PostCodeFilter\UseCases\CustomerSpecifiesShippingAddress</text>
</g>
<!-- VinaiKopp\\PostCodeFilter\\UseCases\\CustomerSpecifiesShippingAddress&#45;&gt;VinaiKopp\\PostCodeFilter\\RuleComponents\\Country -->
<g id="edge60" class="edge"><title>VinaiKopp\\PostCodeFilter\\UseCases\\CustomerSpecifiesShippingAddress&#45;&gt;VinaiKopp\\PostCodeFilter\\RuleComponents\\Country</title>
<path fill="none" stroke="#999999" d="M311.154,-53.418C534.335,-47.6303 926.91,-40.5139 989.598,-59.9454 1068.53,-84.412 1144.39,-148.975 1180.92,-183.468"/>
<polygon fill="#999999" stroke="#999999" points="1179.81,-185.308 1185.6,-187.926 1182.71,-182.267 1179.81,-185.308"/>
</g>
<!-- VinaiKopp\\PostCodeFilter\\UseCases\\CustomerSpecifiesShippingAddress&#45;&gt;VinaiKopp\\PostCodeFilter\\RuleComponents\\CustomerGroupId -->
<g id="edge59" class="edge"><title>VinaiKopp\\PostCodeFilter\\UseCases\\CustomerSpecifiesShippingAddress&#45;&gt;VinaiKopp\\PostCodeFilter\\RuleComponents\\CustomerGroupId</title>
<path fill="none" stroke="#999999" d="M279.687,-39.9429C502.485,-12.7777 983.03,20.868 1347.55,-128.945 1415.47,-156.86 1486.69,-205.8 1525.09,-234.083"/>
<polygon fill="#999999" stroke="#999999" points="1523.99,-235.88 1530.06,-237.763 1526.49,-232.505 1523.99,-235.88"/>
</g>
<!-- VinaiKopp\\PostCodeFilter\\UseCases\\CustomerSpecifiesShippingAddress&#45;&gt;VinaiKopp\\PostCodeFilter\\ReadModel\\RuleReader -->
<g id="edge57" class="edge"><title>VinaiKopp\\PostCodeFilter\\UseCases\\CustomerSpecifiesShippingAddress&#45;&gt;VinaiKopp\\PostCodeFilter\\ReadModel\\RuleReader</title>
<path fill="none" stroke="#999999" d="M247.093,-75.9883C293.295,-85.1876 349.5,-96.3786 396.505,-105.738"/>
<polygon fill="#999999" stroke="#999999" points="396.189,-107.816 402.484,-106.928 397.01,-103.697 396.189,-107.816"/>
</g>
<!-- VinaiKopp\\PostCodeFilter\\UseCases\\CustomerSpecifiesShippingAddress&#45;&gt;VinaiKopp\\PostCodeFilter\\ReadModel\\RuleSpecByCountryAndGroupId -->
<g id="edge58" class="edge"><title>VinaiKopp\\PostCodeFilter\\UseCases\\CustomerSpecifiesShippingAddress&#45;&gt;VinaiKopp\\PostCodeFilter\\ReadModel\\RuleSpecByCountryAndGroupId</title>
<path fill="none" stroke="#999999" d="M311.098,-66.8683C419.319,-73.1135 563.504,-81.4341 672.786,-87.7405"/>
<polygon fill="#999999" stroke="#999999" points="672.835,-89.8468 678.946,-88.096 673.077,-85.6538 672.835,-89.8468"/>
</g>
</g>
</svg>
