<?xml version="1.0" encoding="UTF-8" standalone="no"?>
<!DOCTYPE svg PUBLIC "-//W3C//DTD SVG 1.1//EN"
 "http://www.w3.org/Graphics/SVG/1.1/DTD/svg11.dtd">
<!-- Generated by graphviz version 2.38.0 (20140413.2041)
 -->
<!-- Title: G Pages: 1 -->
<svg width="1246pt" height="787pt"
 viewBox="0.00 0.00 1246.47 786.81" xmlns="http://www.w3.org/2000/svg" xmlns:xlink="http://www.w3.org/1999/xlink">
<g id="graph0" class="graph" transform="scale(1 1) rotate(0) translate(4 782.811)">
<title>G</title>
<polygon fill="white" stroke="none" points="-4,4 -4,-782.811 1242.47,-782.811 1242.47,4 -4,4"/>
<text text-anchor="middle" x="619.234" y="-5.6" font-family="Times,serif" font-size="8.00">PhpDependencyAnalyse by Marco Muths (v0.5.0)</text>
<g id="clust1" class="cluster"><title>cluster_0</title>
<path fill="#ccccff" stroke="#000033" d="M65.0542,-577.811C65.0542,-577.811 151.833,-577.811 151.833,-577.811 157.833,-577.811 163.833,-583.811 163.833,-589.811 163.833,-589.811 163.833,-639.811 163.833,-639.811 163.833,-645.811 157.833,-651.811 151.833,-651.811 151.833,-651.811 65.0542,-651.811 65.0542,-651.811 59.0542,-651.811 53.0542,-645.811 53.0542,-639.811 53.0542,-639.811 53.0542,-589.811 53.0542,-589.811 53.0542,-583.811 59.0542,-577.811 65.0542,-577.811"/>
<text text-anchor="middle" x="108.499" y="-636.611" font-family="Times,serif" font-size="14.00" fill="#000033">AdminAddsRule</text>
</g>
<g id="clust2" class="cluster"><title>cluster_1</title>
<path fill="#ccccff" stroke="#000033" d="M41.7363,-275.811C41.7363,-275.811 731.375,-275.811 731.375,-275.811 737.375,-275.811 743.375,-281.811 743.375,-287.811 743.375,-287.811 743.375,-475.811 743.375,-475.811 743.375,-481.811 737.375,-487.811 731.375,-487.811 731.375,-487.811 41.7363,-487.811 41.7363,-487.811 35.7363,-487.811 29.7363,-481.811 29.7363,-475.811 29.7363,-475.811 29.7363,-287.811 29.7363,-287.811 29.7363,-281.811 35.7363,-275.811 41.7363,-275.811"/>
<text text-anchor="middle" x="59.1191" y="-472.611" font-family="Times,serif" font-size="14.00" fill="#000033">Storage</text>
</g>
<g id="clust3" class="cluster"><title>cluster_2</title>
<path fill="#ccccff" stroke="#000033" d="M305.429,-592.811C305.429,-592.811 1218.47,-592.811 1218.47,-592.811 1224.47,-592.811 1230.47,-598.811 1230.47,-604.811 1230.47,-604.811 1230.47,-758.811 1230.47,-758.811 1230.47,-764.811 1224.47,-770.811 1218.47,-770.811 1218.47,-770.811 305.429,-770.811 305.429,-770.811 299.429,-770.811 293.429,-764.811 293.429,-758.811 293.429,-758.811 293.429,-604.811 293.429,-604.811 293.429,-598.811 299.429,-592.811 305.429,-592.811"/>
<text text-anchor="middle" x="314.649" y="-755.611" font-family="Times,serif" font-size="14.00" fill="#000033">Rule</text>
</g>
<g id="clust4" class="cluster"><title>cluster_3</title>
<path fill="#ccccff" stroke="#000033" d="M58.6182,-659.811C58.6182,-659.811 157.269,-659.811 157.269,-659.811 163.269,-659.811 169.269,-665.811 169.269,-671.811 169.269,-671.811 169.269,-721.811 169.269,-721.811 169.269,-727.811 163.269,-733.811 157.269,-733.811 157.269,-733.811 58.6182,-733.811 58.6182,-733.811 52.6182,-733.811 46.6182,-727.811 46.6182,-721.811 46.6182,-721.811 46.6182,-671.811 46.6182,-671.811 46.6182,-665.811 52.6182,-659.811 58.6182,-659.811"/>
<text text-anchor="middle" x="108.273" y="-718.611" font-family="Times,serif" font-size="14.00" fill="#000033">AdminDeletesRule</text>
</g>
<g id="clust5" class="cluster"><title>cluster_4</title>
<path fill="#ccccff" stroke="#000033" d="M57.2266,-495.811C57.2266,-495.811 159.66,-495.811 159.66,-495.811 165.66,-495.811 171.66,-501.811 171.66,-507.811 171.66,-507.811 171.66,-557.811 171.66,-557.811 171.66,-563.811 165.66,-569.811 159.66,-569.811 159.66,-569.811 57.2266,-569.811 57.2266,-569.811 51.2266,-569.811 45.2266,-563.811 45.2266,-557.811 45.2266,-557.811 45.2266,-507.811 45.2266,-507.811 45.2266,-501.811 51.2266,-495.811 57.2266,-495.811"/>
<text text-anchor="middle" x="108.83" y="-554.611" font-family="Times,serif" font-size="14.00" fill="#000033">AdminUpdatesRule</text>
</g>
<g id="clust6" class="cluster"><title>cluster_5</title>
<path fill="#ccccff" stroke="#000033" d="M51.3545,-193.811C51.3545,-193.811 164.532,-193.811 164.532,-193.811 170.532,-193.811 176.532,-199.811 176.532,-205.811 176.532,-205.811 176.532,-255.811 176.532,-255.811 176.532,-261.811 170.532,-267.811 164.532,-267.811 164.532,-267.811 51.3545,-267.811 51.3545,-267.811 45.3545,-267.811 39.3545,-261.811 39.3545,-255.811 39.3545,-255.811 39.3545,-205.811 39.3545,-205.811 39.3545,-199.811 45.3545,-193.811 51.3545,-193.811"/>
<text text-anchor="middle" x="108.379" y="-252.611" font-family="Times,serif" font-size="14.00" fill="#000033">AdminViewsRuleList</text>
</g>
<g id="clust7" class="cluster"><title>cluster_6</title>
<path fill="#ccccff" stroke="#000033" d="M44.3545,-111.811C44.3545,-111.811 171.532,-111.811 171.532,-111.811 177.532,-111.811 183.532,-117.811 183.532,-123.811 183.532,-123.811 183.532,-173.811 183.532,-173.811 183.532,-179.811 177.532,-185.811 171.532,-185.811 171.532,-185.811 44.3545,-185.811 44.3545,-185.811 38.3545,-185.811 32.3545,-179.811 32.3545,-173.811 32.3545,-173.811 32.3545,-123.811 32.3545,-123.811 32.3545,-117.811 38.3545,-111.811 44.3545,-111.811"/>
<text text-anchor="middle" x="108.379" y="-170.611" font-family="Times,serif" font-size="14.00" fill="#000033">AdminViewsSingleRule</text>
</g>
<g id="clust8" class="cluster"><title>cluster_7</title>
<path fill="#ccccff" stroke="#000033" d="M12,-29.8115C12,-29.8115 204.887,-29.8115 204.887,-29.8115 210.887,-29.8115 216.887,-35.8115 216.887,-41.8115 216.887,-41.8115 216.887,-91.8115 216.887,-91.8115 216.887,-97.8115 210.887,-103.811 204.887,-103.811 204.887,-103.811 12,-103.811 12,-103.811 6,-103.811 0,-97.8115 0,-91.8115 0,-91.8115 0,-41.8115 0,-41.8115 0,-35.8115 6,-29.8115 12,-29.8115"/>
<text text-anchor="middle" x="108.721" y="-88.6115" font-family="Times,serif" font-size="14.00" fill="#000033">CustomerSpecifiesShippingAddress</text>
</g>
<!-- AdminAddsRule -->
<g id="node1" class="node"><title>AdminAddsRule</title>
<path fill="#9999cc" stroke="black" d="M137.722,-621.811C137.722,-621.811 78.1647,-621.811 78.1647,-621.811 72.1647,-621.811 66.1647,-615.811 66.1647,-609.811 66.1647,-609.811 66.1647,-597.811 66.1647,-597.811 66.1647,-591.811 72.1647,-585.811 78.1647,-585.811 78.1647,-585.811 137.722,-585.811 137.722,-585.811 143.722,-585.811 149.722,-591.811 149.722,-597.811 149.722,-597.811 149.722,-609.811 149.722,-609.811 149.722,-615.811 143.722,-621.811 137.722,-621.811"/>
<text text-anchor="middle" x="107.943" y="-600.811" font-family="Times,serif" font-size="10.00" fill="#000033">AdminAddsRule</text>
</g>
<!-- Storage\\WriteModel\\RuleWriter -->
<g id="node2" class="node"><title>Storage\\WriteModel\\RuleWriter</title>
<path fill="#9999cc" stroke="black" d="M414.532,-336.811C414.532,-336.811 293.202,-336.811 293.202,-336.811 287.202,-336.811 281.202,-330.811 281.202,-324.811 281.202,-324.811 281.202,-312.811 281.202,-312.811 281.202,-306.811 287.202,-300.811 293.202,-300.811 293.202,-300.811 414.532,-300.811 414.532,-300.811 420.532,-300.811 426.532,-306.811 426.532,-312.811 426.532,-312.811 426.532,-324.811 426.532,-324.811 426.532,-330.811 420.532,-336.811 414.532,-336.811"/>
<text text-anchor="middle" x="353.867" y="-315.811" font-family="Times,serif" font-size="10.00" fill="#000033">Storage\WriteModel\RuleWriter</text>
</g>
<!-- AdminAddsRule&#45;&gt;Storage\\WriteModel\\RuleWriter -->
<g id="edge1" class="edge"><title>AdminAddsRule&#45;&gt;Storage\\WriteModel\\RuleWriter</title>
<path fill="none" stroke="#999999" d="M149.984,-600.676C172.518,-596.875 199.361,-588.62 216.887,-570.811 288.912,-497.623 212.54,-425.446 280.887,-348.811 283.607,-345.761 286.687,-343.013 290.003,-340.539"/>
<polygon fill="#999999" stroke="#999999" points="291.613,-341.983 295.392,-336.871 289.25,-338.511 291.613,-341.983"/>
</g>
<!-- Storage\\ReadModel\\RuleReader -->
<g id="node3" class="node"><title>Storage\\ReadModel\\RuleReader</title>
<path fill="#9999cc" stroke="black" d="M414.828,-440.811C414.828,-440.811 292.906,-440.811 292.906,-440.811 286.906,-440.811 280.906,-434.811 280.906,-428.811 280.906,-428.811 280.906,-416.811 280.906,-416.811 280.906,-410.811 286.906,-404.811 292.906,-404.811 292.906,-404.811 414.828,-404.811 414.828,-404.811 420.828,-404.811 426.828,-410.811 426.828,-416.811 426.828,-416.811 426.828,-428.811 426.828,-428.811 426.828,-434.811 420.828,-440.811 414.828,-440.811"/>
<text text-anchor="middle" x="353.867" y="-419.811" font-family="Times,serif" font-size="10.00" fill="#000033">Storage\ReadModel\RuleReader</text>
</g>
<!-- AdminAddsRule&#45;&gt;Storage\\ReadModel\\RuleReader -->
<g id="edge2" class="edge"><title>AdminAddsRule&#45;&gt;Storage\\ReadModel\\RuleReader</title>
<path fill="none" stroke="#999999" d="M149.821,-596.688C170.987,-591.714 196.576,-583.608 216.887,-570.811 269.571,-537.62 314.881,-478.786 337.497,-446.188"/>
<polygon fill="#999999" stroke="#999999" points="339.264,-447.324 340.929,-441.19 335.802,-444.947 339.264,-447.324"/>
</g>
<!-- Storage\\WriteModel\\RuleToAdd -->
<g id="node4" class="node"><title>Storage\\WriteModel\\RuleToAdd</title>
<path fill="#9999cc" stroke="black" d="M678.71,-362.811C678.71,-362.811 555.513,-362.811 555.513,-362.811 549.513,-362.811 543.513,-356.811 543.513,-350.811 543.513,-350.811 543.513,-338.811 543.513,-338.811 543.513,-332.811 549.513,-326.811 555.513,-326.811 555.513,-326.811 678.71,-326.811 678.71,-326.811 684.71,-326.811 690.71,-332.811 690.71,-338.811 690.71,-338.811 690.71,-350.811 690.71,-350.811 690.71,-356.811 684.71,-362.811 678.71,-362.811"/>
<text text-anchor="middle" x="617.111" y="-341.811" font-family="Times,serif" font-size="10.00" fill="#000033">Storage\WriteModel\RuleToAdd</text>
</g>
<!-- AdminAddsRule&#45;&gt;Storage\\WriteModel\\RuleToAdd -->
<g id="edge3" class="edge"><title>AdminAddsRule&#45;&gt;Storage\\WriteModel\\RuleToAdd</title>
<path fill="none" stroke="#999999" d="M149.797,-592.498C170.141,-586.567 195.004,-578.87 216.887,-570.811 312.325,-535.667 348.367,-544.499 426.848,-479.811 470.511,-443.822 452.471,-407.231 498.848,-374.811 510.376,-366.752 523.893,-360.857 537.57,-356.544"/>
<polygon fill="#999999" stroke="#999999" points="538.289,-358.521 543.437,-354.791 537.087,-354.497 538.289,-358.521"/>
</g>
<!-- Storage\\ReadModel\\RuleSpecByCountryAndGroupIds -->
<g id="node5" class="node"><title>Storage\\ReadModel\\RuleSpecByCountryAndGroupIds</title>
<path fill="#9999cc" stroke="black" d="M723.139,-457.811C723.139,-457.811 511.084,-457.811 511.084,-457.811 505.084,-457.811 499.084,-451.811 499.084,-445.811 499.084,-445.811 499.084,-433.811 499.084,-433.811 499.084,-427.811 505.084,-421.811 511.084,-421.811 511.084,-421.811 723.139,-421.811 723.139,-421.811 729.139,-421.811 735.139,-427.811 735.139,-433.811 735.139,-433.811 735.139,-445.811 735.139,-445.811 735.139,-451.811 729.139,-457.811 723.139,-457.811"/>
<text text-anchor="middle" x="617.111" y="-436.811" font-family="Times,serif" font-size="10.00" fill="#000033">Storage\ReadModel\RuleSpecByCountryAndGroupIds</text>
</g>
<!-- AdminAddsRule&#45;&gt;Storage\\ReadModel\\RuleSpecByCountryAndGroupIds -->
<g id="edge5" class="edge"><title>AdminAddsRule&#45;&gt;Storage\\ReadModel\\RuleSpecByCountryAndGroupIds</title>
<path fill="none" stroke="#999999" d="M149.892,-596.845C184.7,-590.994 236.021,-582.537 280.887,-575.811 345.641,-566.104 365.184,-577.833 426.848,-555.811 489.287,-533.512 553.28,-488.796 588.539,-461.864"/>
<polygon fill="#999999" stroke="#999999" points="590.055,-463.347 593.529,-458.024 587.494,-460.019 590.055,-463.347"/>
</g>
<!-- Rule\\ExistingRule -->
<g id="node11" class="node"><title>Rule\\ExistingRule</title>
<path fill="#9999cc" stroke="black" d="M386.754,-706.811C386.754,-706.811 320.98,-706.811 320.98,-706.811 314.98,-706.811 308.98,-700.811 308.98,-694.811 308.98,-694.811 308.98,-682.811 308.98,-682.811 308.98,-676.811 314.98,-670.811 320.98,-670.811 320.98,-670.811 386.754,-670.811 386.754,-670.811 392.754,-670.811 398.754,-676.811 398.754,-682.811 398.754,-682.811 398.754,-694.811 398.754,-694.811 398.754,-700.811 392.754,-706.811 386.754,-706.811"/>
<text text-anchor="middle" x="353.867" y="-685.811" font-family="Times,serif" font-size="10.00" fill="#000033">Rule\ExistingRule</text>
</g>
<!-- AdminAddsRule&#45;&gt;Rule\\ExistingRule -->
<g id="edge4" class="edge"><title>AdminAddsRule&#45;&gt;Rule\\ExistingRule</title>
<path fill="none" stroke="#999999" d="M149.771,-618.039C191.91,-632.723 257.7,-655.649 302.916,-671.405"/>
<polygon fill="#999999" stroke="#999999" points="302.245,-673.395 308.602,-673.386 303.627,-669.429 302.245,-673.395"/>
</g>
<!-- Storage\\WriteModel\\RuleWriter&#45;&gt;Storage\\WriteModel\\RuleToAdd -->
<g id="edge71" class="edge"><title>Storage\\WriteModel\\RuleWriter&#45;&gt;Storage\\WriteModel\\RuleToAdd</title>
<path fill="none" stroke="#999999" d="M426.599,-325.95C460.869,-329.361 501.979,-333.453 537.138,-336.952"/>
<polygon fill="#999999" stroke="#999999" points="536.999,-339.048 543.177,-337.553 537.415,-334.869 536.999,-339.048"/>
</g>
<!-- Storage\\WriteModel\\RuleToDelete -->
<g id="node6" class="node"><title>Storage\\WriteModel\\RuleToDelete</title>
<path fill="#9999cc" stroke="black" d="M683.082,-319.811C683.082,-319.811 551.141,-319.811 551.141,-319.811 545.141,-319.811 539.141,-313.811 539.141,-307.811 539.141,-307.811 539.141,-295.811 539.141,-295.811 539.141,-289.811 545.141,-283.811 551.141,-283.811 551.141,-283.811 683.082,-283.811 683.082,-283.811 689.082,-283.811 695.082,-289.811 695.082,-295.811 695.082,-295.811 695.082,-307.811 695.082,-307.811 695.082,-313.811 689.082,-319.811 683.082,-319.811"/>
<text text-anchor="middle" x="617.111" y="-298.811" font-family="Times,serif" font-size="10.00" fill="#000033">Storage\WriteModel\RuleToDelete</text>
</g>
<!-- Storage\\WriteModel\\RuleWriter&#45;&gt;Storage\\WriteModel\\RuleToDelete -->
<g id="edge72" class="edge"><title>Storage\\WriteModel\\RuleWriter&#45;&gt;Storage\\WriteModel\\RuleToDelete</title>
<path fill="none" stroke="#999999" d="M426.599,-314.144C459.447,-312.006 498.58,-309.46 532.733,-307.237"/>
<polygon fill="#999999" stroke="#999999" points="533.199,-309.311 539.05,-306.826 532.926,-305.12 533.199,-309.311"/>
</g>
<!-- Storage\\ReadModel\\RuleReader&#45;&gt;Storage\\ReadModel\\RuleSpecByCountryAndGroupIds -->
<g id="edge46" class="edge"><title>Storage\\ReadModel\\RuleReader&#45;&gt;Storage\\ReadModel\\RuleSpecByCountryAndGroupIds</title>
<path fill="none" stroke="#999999" d="M426.945,-427.502C447.325,-428.828 470.102,-430.31 492.598,-431.774"/>
<polygon fill="#999999" stroke="#999999" points="492.496,-433.872 498.62,-432.166 492.769,-429.681 492.496,-433.872"/>
</g>
<!-- Storage\\ReadModel\\RuleSpecByCountryAndGroupId -->
<g id="node7" class="node"><title>Storage\\ReadModel\\RuleSpecByCountryAndGroupId</title>
<path fill="#9999cc" stroke="black" d="M721.247,-414.811C721.247,-414.811 512.975,-414.811 512.975,-414.811 506.975,-414.811 500.975,-408.811 500.975,-402.811 500.975,-402.811 500.975,-390.811 500.975,-390.811 500.975,-384.811 506.975,-378.811 512.975,-378.811 512.975,-378.811 721.247,-378.811 721.247,-378.811 727.247,-378.811 733.247,-384.811 733.247,-390.811 733.247,-390.811 733.247,-402.811 733.247,-402.811 733.247,-408.811 727.247,-414.811 721.247,-414.811"/>
<text text-anchor="middle" x="617.111" y="-393.811" font-family="Times,serif" font-size="10.00" fill="#000033">Storage\ReadModel\RuleSpecByCountryAndGroupId</text>
</g>
<!-- Storage\\ReadModel\\RuleReader&#45;&gt;Storage\\ReadModel\\RuleSpecByCountryAndGroupId -->
<g id="edge44" class="edge"><title>Storage\\ReadModel\\RuleReader&#45;&gt;Storage\\ReadModel\\RuleSpecByCountryAndGroupId</title>
<path fill="none" stroke="#999999" d="M426.945,-415.638C447.879,-413.555 471.344,-411.219 494.433,-408.921"/>
<polygon fill="#999999" stroke="#999999" points="494.85,-410.99 500.612,-408.306 494.434,-406.811 494.85,-410.99"/>
</g>
<!-- Rule\\Rule -->
<g id="node13" class="node"><title>Rule\\Rule</title>
<path fill="#9999cc" stroke="black" d="M633.165,-680.811C633.165,-680.811 601.058,-680.811 601.058,-680.811 595.058,-680.811 589.058,-674.811 589.058,-668.811 589.058,-668.811 589.058,-656.811 589.058,-656.811 589.058,-650.811 595.058,-644.811 601.058,-644.811 601.058,-644.811 633.165,-644.811 633.165,-644.811 639.165,-644.811 645.165,-650.811 645.165,-656.811 645.165,-656.811 645.165,-668.811 645.165,-668.811 645.165,-674.811 639.165,-680.811 633.165,-680.811"/>
<text text-anchor="middle" x="617.111" y="-659.811" font-family="Times,serif" font-size="10.00" fill="#000033">Rule\Rule</text>
</g>
<!-- Storage\\ReadModel\\RuleReader&#45;&gt;Rule\\Rule -->
<g id="edge45" class="edge"><title>Storage\\ReadModel\\RuleReader&#45;&gt;Rule\\Rule</title>
<path fill="none" stroke="#999999" d="M374.503,-440.85C421.499,-484.025 540.355,-593.216 591.78,-640.458"/>
<polygon fill="#999999" stroke="#999999" points="590.408,-642.05 596.248,-644.563 593.25,-638.957 590.408,-642.05"/>
</g>
<!-- Rule\\Components\\Country -->
<g id="node14" class="node"><title>Rule\\Components\\Country</title>
<path fill="#9999cc" stroke="black" d="M946.816,-636.811C946.816,-636.811 847.259,-636.811 847.259,-636.811 841.259,-636.811 835.259,-630.811 835.259,-624.811 835.259,-624.811 835.259,-612.811 835.259,-612.811 835.259,-606.811 841.259,-600.811 847.259,-600.811 847.259,-600.811 946.816,-600.811 946.816,-600.811 952.816,-600.811 958.816,-606.811 958.816,-612.811 958.816,-612.811 958.816,-624.811 958.816,-624.811 958.816,-630.811 952.816,-636.811 946.816,-636.811"/>
<text text-anchor="middle" x="897.038" y="-615.811" font-family="Times,serif" font-size="10.00" fill="#000033">Rule\Components\Country</text>
</g>
<!-- Storage\\WriteModel\\RuleToAdd&#45;&gt;Rule\\Components\\Country -->
<g id="edge68" class="edge"><title>Storage\\WriteModel\\RuleToAdd&#45;&gt;Rule\\Components\\Country</title>
<path fill="none" stroke="#999999" d="M690.786,-352.311C709.172,-356.763 728.033,-363.78 743.375,-374.811 823.295,-432.277 870.614,-545.783 888.182,-595.056"/>
<polygon fill="#999999" stroke="#999999" points="886.208,-595.773 890.177,-600.738 890.171,-594.382 886.208,-595.773"/>
</g>
<!-- Rule\\Components\\CustomerGroupIdList -->
<g id="node15" class="node"><title>Rule\\Components\\CustomerGroupIdList</title>
<path fill="#9999cc" stroke="black" d="M974.863,-679.811C974.863,-679.811 819.212,-679.811 819.212,-679.811 813.212,-679.811 807.212,-673.811 807.212,-667.811 807.212,-667.811 807.212,-655.811 807.212,-655.811 807.212,-649.811 813.212,-643.811 819.212,-643.811 819.212,-643.811 974.863,-643.811 974.863,-643.811 980.863,-643.811 986.863,-649.811 986.863,-655.811 986.863,-655.811 986.863,-667.811 986.863,-667.811 986.863,-673.811 980.863,-679.811 974.863,-679.811"/>
<text text-anchor="middle" x="897.038" y="-658.811" font-family="Times,serif" font-size="10.00" fill="#000033">Rule\Components\CustomerGroupIdList</text>
</g>
<!-- Storage\\WriteModel\\RuleToAdd&#45;&gt;Rule\\Components\\CustomerGroupIdList -->
<g id="edge66" class="edge"><title>Storage\\WriteModel\\RuleToAdd&#45;&gt;Rule\\Components\\CustomerGroupIdList</title>
<path fill="none" stroke="#999999" d="M690.825,-348.579C710.075,-352.931 729.368,-360.831 743.375,-374.811 827.709,-458.985 725.472,-550.767 807.294,-639.157"/>
<polygon fill="#999999" stroke="#999999" points="805.924,-640.763 811.597,-643.631 808.951,-637.851 805.924,-640.763"/>
</g>
<!-- Rule\\Components\\PostCodeList -->
<g id="node18" class="node"><title>Rule\\Components\\PostCodeList</title>
<path fill="#9999cc" stroke="black" d="M957.434,-722.811C957.434,-722.811 836.641,-722.811 836.641,-722.811 830.641,-722.811 824.641,-716.811 824.641,-710.811 824.641,-710.811 824.641,-698.811 824.641,-698.811 824.641,-692.811 830.641,-686.811 836.641,-686.811 836.641,-686.811 957.434,-686.811 957.434,-686.811 963.434,-686.811 969.434,-692.811 969.434,-698.811 969.434,-698.811 969.434,-710.811 969.434,-710.811 969.434,-716.811 963.434,-722.811 957.434,-722.811"/>
<text text-anchor="middle" x="897.038" y="-701.811" font-family="Times,serif" font-size="10.00" fill="#000033">Rule\Components\PostCodeList</text>
</g>
<!-- Storage\\WriteModel\\RuleToAdd&#45;&gt;Rule\\Components\\PostCodeList -->
<g id="edge67" class="edge"><title>Storage\\WriteModel\\RuleToAdd&#45;&gt;Rule\\Components\\PostCodeList</title>
<path fill="none" stroke="#999999" d="M690.789,-348.219C710.153,-352.55 729.516,-360.528 743.375,-374.811 840.734,-475.155 710.426,-582.072 807.375,-682.811 810.777,-686.347 814.652,-689.349 818.836,-691.895"/>
<polygon fill="#999999" stroke="#999999" points="818.016,-693.841 824.288,-694.882 820.035,-690.158 818.016,-693.841"/>
</g>
<!-- Storage\\ReadModel\\RuleSpecByCountryAndGroupIds&#45;&gt;Rule\\Components\\Country -->
<g id="edge49" class="edge"><title>Storage\\ReadModel\\RuleSpecByCountryAndGroupIds&#45;&gt;Rule\\Components\\Country</title>
<path fill="none" stroke="#999999" d="M646.29,-457.96C697.894,-491.196 807.337,-561.684 862.609,-597.281"/>
<polygon fill="#999999" stroke="#999999" points="861.603,-599.132 867.784,-600.615 863.877,-595.601 861.603,-599.132"/>
</g>
<!-- Storage\\ReadModel\\RuleSpecByCountryAndGroupIds&#45;&gt;Rule\\Components\\CustomerGroupIdList -->
<g id="edge50" class="edge"><title>Storage\\ReadModel\\RuleSpecByCountryAndGroupIds&#45;&gt;Rule\\Components\\CustomerGroupIdList</title>
<path fill="none" stroke="#999999" d="M632.882,-457.847C669.613,-502.276 765.154,-615.181 807.375,-639.811 807.957,-640.151 808.545,-640.486 809.137,-640.815"/>
<polygon fill="#999999" stroke="#999999" points="808.292,-642.743 814.585,-643.642 810.227,-639.015 808.292,-642.743"/>
</g>
<!-- Storage\\WriteModel\\RuleToDelete&#45;&gt;Rule\\Components\\Country -->
<g id="edge70" class="edge"><title>Storage\\WriteModel\\RuleToDelete&#45;&gt;Rule\\Components\\Country</title>
<path fill="none" stroke="#999999" d="M695.117,-304.075C712.226,-307.513 729.406,-313.55 743.375,-323.811 837.542,-392.984 878.28,-537.457 891.175,-594.702"/>
<polygon fill="#999999" stroke="#999999" points="889.134,-595.196 892.475,-600.604 893.236,-594.293 889.134,-595.196"/>
</g>
<!-- Storage\\WriteModel\\RuleToDelete&#45;&gt;Rule\\Components\\CustomerGroupIdList -->
<g id="edge69" class="edge"><title>Storage\\WriteModel\\RuleToDelete&#45;&gt;Rule\\Components\\CustomerGroupIdList</title>
<path fill="none" stroke="#999999" d="M695.406,-301.037C713.108,-304.461 730.486,-311.253 743.375,-323.811 844.605,-422.445 711.993,-533.238 807.427,-639.291"/>
<polygon fill="#999999" stroke="#999999" points="805.904,-640.736 811.528,-643.698 808.978,-637.875 805.904,-640.736"/>
</g>
<!-- Storage\\ReadModel\\RuleSpecByCountryAndGroupId&#45;&gt;Rule\\Components\\Country -->
<g id="edge48" class="edge"><title>Storage\\ReadModel\\RuleSpecByCountryAndGroupId&#45;&gt;Rule\\Components\\Country</title>
<path fill="none" stroke="#999999" d="M733.405,-413.434C736.834,-415.073 740.168,-416.861 743.375,-418.811 752.734,-424.503 841.172,-544.091 879.004,-595.574"/>
<polygon fill="#999999" stroke="#999999" points="877.473,-597.037 882.718,-600.63 880.859,-594.551 877.473,-597.037"/>
</g>
<!-- Rule\\Components\\CustomerGroupId -->
<g id="node16" class="node"><title>Rule\\Components\\CustomerGroupId</title>
<path fill="#9999cc" stroke="black" d="M1210.35,-679.811C1210.35,-679.811 1070.82,-679.811 1070.82,-679.811 1064.82,-679.811 1058.82,-673.811 1058.82,-667.811 1058.82,-667.811 1058.82,-655.811 1058.82,-655.811 1058.82,-649.811 1064.82,-643.811 1070.82,-643.811 1070.82,-643.811 1210.35,-643.811 1210.35,-643.811 1216.35,-643.811 1222.35,-649.811 1222.35,-655.811 1222.35,-655.811 1222.35,-667.811 1222.35,-667.811 1222.35,-673.811 1216.35,-679.811 1210.35,-679.811"/>
<text text-anchor="middle" x="1140.58" y="-658.811" font-family="Times,serif" font-size="10.00" fill="#000033">Rule\Components\CustomerGroupId</text>
</g>
<!-- Storage\\ReadModel\\RuleSpecByCountryAndGroupId&#45;&gt;Rule\\Components\\CustomerGroupId -->
<g id="edge47" class="edge"><title>Storage\\ReadModel\\RuleSpecByCountryAndGroupId&#45;&gt;Rule\\Components\\CustomerGroupId</title>
<path fill="none" stroke="#999999" d="M731.967,-414.851C735.845,-416.086 739.658,-417.404 743.375,-418.811 893.844,-475.793 1050.28,-591.429 1112.11,-639.781"/>
<polygon fill="#999999" stroke="#999999" points="1111.08,-641.643 1117.09,-643.697 1113.67,-638.34 1111.08,-641.643"/>
</g>
<!-- Storage\\RuleRepositoryReader -->
<g id="node8" class="node"><title>Storage\\RuleRepositoryReader</title>
<path fill="#9999cc" stroke="black" d="M166.358,-414.811C166.358,-414.811 49.5287,-414.811 49.5287,-414.811 43.5287,-414.811 37.5287,-408.811 37.5287,-402.811 37.5287,-402.811 37.5287,-390.811 37.5287,-390.811 37.5287,-384.811 43.5287,-378.811 49.5287,-378.811 49.5287,-378.811 166.358,-378.811 166.358,-378.811 172.358,-378.811 178.358,-384.811 178.358,-390.811 178.358,-390.811 178.358,-402.811 178.358,-402.811 178.358,-408.811 172.358,-414.811 166.358,-414.811"/>
<text text-anchor="middle" x="107.943" y="-393.811" font-family="Times,serif" font-size="10.00" fill="#000033">Storage\RuleRepositoryReader</text>
</g>
<!-- Storage\\RuleRepositoryReader&#45;&gt;Storage\\ReadModel\\RuleReader -->
<g id="edge51" class="edge"><title>Storage\\RuleRepositoryReader&#45;&gt;Storage\\ReadModel\\RuleReader</title>
<path fill="none" stroke="#999999" d="M178.19,-404.192C208.296,-407.402 243.709,-411.176 274.751,-414.485"/>
<polygon fill="#999999" stroke="#999999" points="274.71,-416.592 280.898,-415.14 275.155,-412.416 274.71,-416.592"/>
</g>
<!-- Storage\\RuleRepositoryReader&#45;&gt;Storage\\ReadModel\\RuleSpecByCountryAndGroupIds -->
<g id="edge56" class="edge"><title>Storage\\RuleRepositoryReader&#45;&gt;Storage\\ReadModel\\RuleSpecByCountryAndGroupIds</title>
<path fill="none" stroke="#999999" d="M160.872,-414.902C194.603,-425.677 239.787,-438.295 280.887,-443.811 350.601,-453.168 429.201,-452.799 492.761,-449.802"/>
<polygon fill="#999999" stroke="#999999" points="492.974,-451.894 498.864,-449.504 492.769,-447.699 492.974,-451.894"/>
</g>
<!-- Storage\\RuleRepositoryReader&#45;&gt;Storage\\ReadModel\\RuleSpecByCountryAndGroupId -->
<g id="edge53" class="edge"><title>Storage\\RuleRepositoryReader&#45;&gt;Storage\\ReadModel\\RuleSpecByCountryAndGroupId</title>
<path fill="none" stroke="#999999" d="M178.399,-396.811C259.712,-396.811 395.824,-396.811 494.712,-396.811"/>
<polygon fill="#999999" stroke="#999999" points="494.874,-398.912 500.873,-396.811 494.873,-394.712 494.874,-398.912"/>
</g>
<!-- Storage\\RuleStorage -->
<g id="node9" class="node"><title>Storage\\RuleStorage</title>
<path fill="#9999cc" stroke="black" d="M391.126,-388.811C391.126,-388.811 316.608,-388.811 316.608,-388.811 310.608,-388.811 304.608,-382.811 304.608,-376.811 304.608,-376.811 304.608,-364.811 304.608,-364.811 304.608,-358.811 310.608,-352.811 316.608,-352.811 316.608,-352.811 391.126,-352.811 391.126,-352.811 397.126,-352.811 403.126,-358.811 403.126,-364.811 403.126,-364.811 403.126,-376.811 403.126,-376.811 403.126,-382.811 397.126,-388.811 391.126,-388.811"/>
<text text-anchor="middle" x="353.867" y="-367.811" font-family="Times,serif" font-size="10.00" fill="#000033">Storage\RuleStorage</text>
</g>
<!-- Storage\\RuleRepositoryReader&#45;&gt;Storage\\RuleStorage -->
<g id="edge52" class="edge"><title>Storage\\RuleRepositoryReader&#45;&gt;Storage\\RuleStorage</title>
<path fill="none" stroke="#999999" d="M178.19,-389.43C216.269,-385.372 262.839,-380.408 298.315,-376.626"/>
<polygon fill="#999999" stroke="#999999" points="298.613,-378.706 304.357,-375.982 298.168,-374.53 298.613,-378.706"/>
</g>
<!-- Storage\\RuleRepositoryReader&#45;&gt;Rule\\ExistingRule -->
<g id="edge57" class="edge"><title>Storage\\RuleRepositoryReader&#45;&gt;Rule\\ExistingRule</title>
<path fill="none" stroke="#999999" d="M134.618,-414.869C158.586,-432.826 193.999,-462.325 216.887,-494.811 259.575,-555.404 231.529,-593.516 280.887,-648.811 287.352,-656.054 295.451,-662.269 303.864,-667.491"/>
<polygon fill="#999999" stroke="#999999" points="302.899,-669.36 309.131,-670.615 305.042,-665.748 302.899,-669.36"/>
</g>
<!-- Rule\\NonexistentRule -->
<g id="node12" class="node"><title>Rule\\NonexistentRule</title>
<path fill="#9999cc" stroke="black" d="M394.244,-645.811C394.244,-645.811 313.49,-645.811 313.49,-645.811 307.49,-645.811 301.49,-639.811 301.49,-633.811 301.49,-633.811 301.49,-621.811 301.49,-621.811 301.49,-615.811 307.49,-609.811 313.49,-609.811 313.49,-609.811 394.244,-609.811 394.244,-609.811 400.244,-609.811 406.244,-615.811 406.244,-621.811 406.244,-621.811 406.244,-633.811 406.244,-633.811 406.244,-639.811 400.244,-645.811 394.244,-645.811"/>
<text text-anchor="middle" x="353.867" y="-624.811" font-family="Times,serif" font-size="10.00" fill="#000033">Rule\NonexistentRule</text>
</g>
<!-- Storage\\RuleRepositoryReader&#45;&gt;Rule\\NonexistentRule -->
<g id="edge54" class="edge"><title>Storage\\RuleRepositoryReader&#45;&gt;Rule\\NonexistentRule</title>
<path fill="none" stroke="#999999" d="M129.442,-415.012C151.31,-434.523 186.861,-466.516 216.887,-494.811 257.325,-532.92 303.352,-578.391 330.15,-605.083"/>
<polygon fill="#999999" stroke="#999999" points="328.871,-606.773 334.603,-609.522 331.836,-603.799 328.871,-606.773"/>
</g>
<!-- Storage\\RuleRepositoryReader&#45;&gt;Rule\\Rule -->
<g id="edge55" class="edge"><title>Storage\\RuleRepositoryReader&#45;&gt;Rule\\Rule</title>
<path fill="none" stroke="#999999" d="M143.404,-414.886C236.542,-463.735 492.39,-597.922 583.424,-645.668"/>
<polygon fill="#999999" stroke="#999999" points="582.634,-647.624 588.923,-648.552 584.585,-643.905 582.634,-647.624"/>
</g>
<!-- Storage\\RuleRepositoryReader&#45;&gt;Rule\\Components\\Country -->
<g id="edge59" class="edge"><title>Storage\\RuleRepositoryReader&#45;&gt;Rule\\Components\\Country</title>
<path fill="none" stroke="#999999" d="M174.346,-378.746C189.541,-372.34 204.789,-363.873 216.887,-352.811 262.657,-310.961 227.923,-261.078 280.887,-228.811 456.427,-121.87 573.593,-112.945 743.375,-228.811 869.883,-315.146 891.562,-523.449 895.273,-594.552"/>
<polygon fill="#999999" stroke="#999999" points="893.178,-594.715 895.562,-600.608 897.373,-594.514 893.178,-594.715"/>
</g>
<!-- Storage\\RuleRepositoryReader&#45;&gt;Rule\\Components\\CustomerGroupIdList -->
<g id="edge58" class="edge"><title>Storage\\RuleRepositoryReader&#45;&gt;Rule\\Components\\CustomerGroupIdList</title>
<path fill="none" stroke="#999999" d="M172.804,-378.749C188.375,-372.294 204.187,-363.804 216.887,-352.811 259.363,-316.045 232.133,-271.722 280.887,-243.811 370.08,-192.75 665.119,-177.188 743.375,-243.811 877.534,-358.029 691.114,-505.132 807.195,-639.012"/>
<polygon fill="#999999" stroke="#999999" points="805.887,-640.699 811.453,-643.769 809.016,-637.897 805.887,-640.699"/>
</g>
<!-- Storage\\RuleRepositoryReader&#45;&gt;Rule\\Components\\CustomerGroupId -->
<g id="edge61" class="edge"><title>Storage\\RuleRepositoryReader&#45;&gt;Rule\\Components\\CustomerGroupId</title>
<path fill="none" stroke="#999999" d="M178.426,-378.815C192.611,-372.497 206.389,-364.053 216.887,-352.811 278.854,-286.453 209.058,-214.345 280.887,-158.811 362.232,-95.9204 650.695,-100.282 743.375,-144.811 965.571,-251.57 1096.65,-551.39 1130.67,-638.066"/>
<polygon fill="#999999" stroke="#999999" points="1128.73,-638.868 1132.86,-643.698 1132.64,-637.345 1128.73,-638.868"/>
</g>
<!-- Storage\\RuleRepositoryReader&#45;&gt;Rule\\Components\\PostCodeList -->
<g id="edge60" class="edge"><title>Storage\\RuleRepositoryReader&#45;&gt;Rule\\Components\\PostCodeList</title>
<path fill="none" stroke="#999999" d="M163.082,-378.799C180.84,-371.844 200.268,-363.068 216.887,-352.811 249.05,-332.961 246.05,-311.472 280.887,-296.811 375.679,-256.92 665.158,-213.035 743.375,-279.811 881.303,-397.564 684.75,-549.196 807.375,-682.811 810.843,-686.591 814.851,-689.766 819.205,-692.43"/>
<polygon fill="#999999" stroke="#999999" points="818.197,-694.272 824.465,-695.328 820.223,-690.593 818.197,-694.272"/>
</g>
<!-- Storage\\RuleRepositoryWriter -->
<g id="node10" class="node"><title>Storage\\RuleRepositoryWriter</title>
<path fill="#9999cc" stroke="black" d="M164.74,-349.811C164.74,-349.811 51.1463,-349.811 51.1463,-349.811 45.1463,-349.811 39.1463,-343.811 39.1463,-337.811 39.1463,-337.811 39.1463,-325.811 39.1463,-325.811 39.1463,-319.811 45.1463,-313.811 51.1463,-313.811 51.1463,-313.811 164.74,-313.811 164.74,-313.811 170.74,-313.811 176.74,-319.811 176.74,-325.811 176.74,-325.811 176.74,-337.811 176.74,-337.811 176.74,-343.811 170.74,-349.811 164.74,-349.811"/>
<text text-anchor="middle" x="107.943" y="-328.811" font-family="Times,serif" font-size="10.00" fill="#000033">Storage\RuleRepositoryWriter</text>
</g>
<!-- Storage\\RuleRepositoryWriter&#45;&gt;Storage\\WriteModel\\RuleWriter -->
<g id="edge62" class="edge"><title>Storage\\RuleRepositoryWriter&#45;&gt;Storage\\WriteModel\\RuleWriter</title>
<path fill="none" stroke="#999999" d="M176.89,-328.19C207.286,-326.57 243.291,-324.651 274.79,-322.973"/>
<polygon fill="#999999" stroke="#999999" points="275.147,-325.057 281.027,-322.64 274.924,-320.863 275.147,-325.057"/>
</g>
<!-- Storage\\RuleRepositoryWriter&#45;&gt;Storage\\WriteModel\\RuleToAdd -->
<g id="edge64" class="edge"><title>Storage\\RuleRepositoryWriter&#45;&gt;Storage\\WriteModel\\RuleToAdd</title>
<path fill="none" stroke="#999999" d="M177.119,-335.479C208.682,-337.05 246.686,-338.761 280.887,-339.811 368.703,-342.509 469.505,-343.763 537.45,-344.339"/>
<polygon fill="#999999" stroke="#999999" points="537.494,-346.439 543.511,-344.389 537.529,-342.24 537.494,-346.439"/>
</g>
<!-- Storage\\RuleRepositoryWriter&#45;&gt;Storage\\WriteModel\\RuleToDelete -->
<g id="edge65" class="edge"><title>Storage\\RuleRepositoryWriter&#45;&gt;Storage\\WriteModel\\RuleToDelete</title>
<path fill="none" stroke="#999999" d="M177.096,-315.154C208.489,-308.304 246.362,-301.192 280.887,-297.811 366.495,-289.429 464.983,-292.058 532.948,-295.778"/>
<polygon fill="#999999" stroke="#999999" points="532.909,-297.879 539.017,-296.118 533.144,-293.686 532.909,-297.879"/>
</g>
<!-- Storage\\RuleRepositoryWriter&#45;&gt;Storage\\RuleStorage -->
<g id="edge63" class="edge"><title>Storage\\RuleRepositoryWriter&#45;&gt;Storage\\RuleStorage</title>
<path fill="none" stroke="#999999" d="M176.89,-342.675C215.268,-348.811 262.589,-356.377 298.491,-362.117"/>
<polygon fill="#999999" stroke="#999999" points="298.347,-364.221 304.603,-363.095 299.01,-360.074 298.347,-364.221"/>
</g>
<!-- Rule\\ExistingRule&#45;&gt;Rule\\Rule -->
<g id="edge31" class="edge"><title>Rule\\ExistingRule&#45;&gt;Rule\\Rule</title>
<path fill="none" stroke="#999999" d="M398.888,-684.43C450.798,-679.264 535.916,-670.793 582.703,-666.136"/>
<polygon fill="#999999" stroke="#999999" points="583.004,-668.217 588.767,-665.533 582.588,-664.038 583.004,-668.217"/>
</g>
<!-- Rule\\ExistingRule&#45;&gt;Rule\\Components\\Country -->
<g id="edge33" class="edge"><title>Rule\\ExistingRule&#45;&gt;Rule\\Components\\Country</title>
<path fill="none" stroke="#999999" d="M398.842,-671.183C426.964,-660.735 464.483,-648.302 498.848,-641.811 514.731,-638.811 719.796,-627.899 828.854,-622.251"/>
<polygon fill="#999999" stroke="#999999" points="829.051,-624.344 834.935,-621.937 828.834,-620.15 829.051,-624.344"/>
</g>
<!-- Rule\\ExistingRule&#45;&gt;Rule\\Components\\CustomerGroupIdList -->
<g id="edge34" class="edge"><title>Rule\\ExistingRule&#45;&gt;Rule\\Components\\CustomerGroupIdList</title>
<path fill="none" stroke="#999999" d="M398.941,-690.108C471.075,-691.811 618.795,-693.548 743.375,-683.811 761.963,-682.359 781.734,-680.069 800.668,-677.504"/>
<polygon fill="#999999" stroke="#999999" points="801.397,-679.524 807.054,-676.625 800.824,-675.363 801.397,-679.524"/>
</g>
<!-- Rule\\ExistingRule&#45;&gt;Rule\\Components\\CustomerGroupId -->
<g id="edge32" class="edge"><title>Rule\\ExistingRule&#45;&gt;Rule\\Components\\CustomerGroupId</title>
<path fill="none" stroke="#999999" d="M399.161,-694.579C523.592,-710.279 874.523,-750.966 986.7,-725.811 1021.23,-718.068 1026.08,-705.533 1058.7,-691.811 1066.55,-688.509 1074.91,-685.193 1083.15,-682.032"/>
<polygon fill="#999999" stroke="#999999" points="1083.98,-683.966 1088.84,-679.871 1082.49,-680.04 1083.98,-683.966"/>
</g>
<!-- Rule\\Components\\PostCode -->
<g id="node17" class="node"><title>Rule\\Components\\PostCode</title>
<path fill="#9999cc" stroke="black" d="M1193.42,-731.811C1193.42,-731.811 1087.74,-731.811 1087.74,-731.811 1081.74,-731.811 1075.74,-725.811 1075.74,-719.811 1075.74,-719.811 1075.74,-707.811 1075.74,-707.811 1075.74,-701.811 1081.74,-695.811 1087.74,-695.811 1087.74,-695.811 1193.42,-695.811 1193.42,-695.811 1199.42,-695.811 1205.42,-701.811 1205.42,-707.811 1205.42,-707.811 1205.42,-719.811 1205.42,-719.811 1205.42,-725.811 1199.42,-731.811 1193.42,-731.811"/>
<text text-anchor="middle" x="1140.58" y="-710.811" font-family="Times,serif" font-size="10.00" fill="#000033">Rule\Components\PostCode</text>
</g>
<!-- Rule\\ExistingRule&#45;&gt;Rule\\Components\\PostCode -->
<g id="edge36" class="edge"><title>Rule\\ExistingRule&#45;&gt;Rule\\Components\\PostCode</title>
<path fill="none" stroke="#999999" d="M398.83,-705.966C426.947,-716 464.466,-727.675 498.848,-732.811 704.298,-763.503 950.789,-739.337 1069.25,-723.993"/>
<polygon fill="#999999" stroke="#999999" points="1069.8,-726.038 1075.48,-723.178 1069.26,-721.874 1069.8,-726.038"/>
</g>
<!-- Rule\\ExistingRule&#45;&gt;Rule\\Components\\PostCodeList -->
<g id="edge35" class="edge"><title>Rule\\ExistingRule&#45;&gt;Rule\\Components\\PostCodeList</title>
<path fill="none" stroke="#999999" d="M398.934,-692.909C427.412,-695.376 465.288,-698.32 498.848,-699.811 609.804,-704.743 738.355,-705.449 818.447,-705.294"/>
<polygon fill="#999999" stroke="#999999" points="818.611,-707.393 824.606,-705.28 818.602,-703.193 818.611,-707.393"/>
</g>
<!-- Rule\\NonexistentRule&#45;&gt;Rule\\Rule -->
<g id="edge37" class="edge"><title>Rule\\NonexistentRule&#45;&gt;Rule\\Rule</title>
<path fill="none" stroke="#999999" d="M406.481,-634.726C458.886,-641.747 538.469,-652.409 582.986,-658.374"/>
<polygon fill="#999999" stroke="#999999" points="582.803,-660.468 589.029,-659.183 583.361,-656.305 582.803,-660.468"/>
</g>
<!-- Rule\\NonexistentRule&#45;&gt;Rule\\Components\\Country -->
<g id="edge38" class="edge"><title>Rule\\NonexistentRule&#45;&gt;Rule\\Components\\Country</title>
<path fill="none" stroke="#999999" d="M406.267,-626.957C504.665,-625.32 719.581,-621.746 829.059,-619.925"/>
<polygon fill="#999999" stroke="#999999" points="829.189,-622.024 835.154,-619.824 829.12,-617.824 829.189,-622.024"/>
</g>
<!-- Rule\\NonexistentRule&#45;&gt;Rule\\Components\\CustomerGroupIdList -->
<g id="edge39" class="edge"><title>Rule\\NonexistentRule&#45;&gt;Rule\\Components\\CustomerGroupIdList</title>
<path fill="none" stroke="#999999" d="M406.5,-627.846C481.024,-628.281 623.01,-630.547 743.375,-640.811 761.936,-642.394 781.694,-644.67 800.624,-647.144"/>
<polygon fill="#999999" stroke="#999999" points="800.786,-649.283 807.009,-647.99 801.337,-645.12 800.786,-649.283"/>
</g>
<!-- Rule\\NonexistentRule&#45;&gt;Rule\\Components\\PostCodeList -->
<g id="edge40" class="edge"><title>Rule\\NonexistentRule&#45;&gt;Rule\\Components\\PostCodeList</title>
<path fill="none" stroke="#999999" d="M391.748,-645.925C420.253,-658.986 461.089,-675.689 498.848,-683.811 557.698,-696.471 720.618,-701.627 818.557,-703.629"/>
<polygon fill="#999999" stroke="#999999" points="818.581,-705.73 824.622,-703.75 818.665,-701.53 818.581,-705.73"/>
</g>
<!-- Rule\\Rule&#45;&gt;Rule\\Components\\Country -->
<g id="edge41" class="edge"><title>Rule\\Rule&#45;&gt;Rule\\Components\\Country</title>
<path fill="none" stroke="#999999" d="M645.266,-658.512C687.523,-651.823 770.273,-638.722 829.152,-629.4"/>
<polygon fill="#999999" stroke="#999999" points="829.534,-631.466 835.131,-628.454 828.877,-627.318 829.534,-631.466"/>
</g>
<!-- Rule\\Rule&#45;&gt;Rule\\Components\\CustomerGroupIdList -->
<g id="edge42" class="edge"><title>Rule\\Rule&#45;&gt;Rule\\Components\\CustomerGroupIdList</title>
<path fill="none" stroke="#999999" d="M645.266,-662.714C681.105,-662.585 746.072,-662.351 800.899,-662.154"/>
<polygon fill="#999999" stroke="#999999" points="801.198,-664.253 807.19,-662.131 801.183,-660.053 801.198,-664.253"/>
</g>
<!-- Rule\\Rule&#45;&gt;Rule\\Components\\PostCodeList -->
<g id="edge43" class="edge"><title>Rule\\Rule&#45;&gt;Rule\\Components\\PostCodeList</title>
<path fill="none" stroke="#999999" d="M645.266,-666.915C685,-672.92 760.535,-684.334 818.363,-693.073"/>
<polygon fill="#999999" stroke="#999999" points="818.364,-695.197 824.611,-694.017 818.992,-691.044 818.364,-695.197"/>
</g>
<!-- Rule\\Components\\CustomerGroupIdList&#45;&gt;Rule\\Components\\CustomerGroupId -->
<g id="edge29" class="edge"><title>Rule\\Components\\CustomerGroupIdList&#45;&gt;Rule\\Components\\CustomerGroupId</title>
<path fill="none" stroke="#999999" d="M986.952,-661.811C1008.25,-661.811 1030.98,-661.811 1052.21,-661.811"/>
<polygon fill="#999999" stroke="#999999" points="1052.46,-663.912 1058.46,-661.811 1052.46,-659.712 1052.46,-663.912"/>
</g>
<!-- Rule\\Components\\PostCodeList&#45;&gt;Rule\\Components\\PostCode -->
<g id="edge30" class="edge"><title>Rule\\Components\\PostCodeList&#45;&gt;Rule\\Components\\PostCode</title>
<path fill="none" stroke="#999999" d="M969.529,-707.475C1001.09,-708.651 1038.07,-710.029 1069.47,-711.199"/>
<polygon fill="#999999" stroke="#999999" points="1069.6,-713.305 1075.68,-711.43 1069.76,-709.108 1069.6,-713.305"/>
</g>
<!-- AdminDeletesRule -->
<g id="node19" class="node"><title>AdminDeletesRule</title>
<path fill="#9999cc" stroke="black" d="M142.094,-703.811C142.094,-703.811 73.7923,-703.811 73.7923,-703.811 67.7923,-703.811 61.7923,-697.811 61.7923,-691.811 61.7923,-691.811 61.7923,-679.811 61.7923,-679.811 61.7923,-673.811 67.7923,-667.811 73.7923,-667.811 73.7923,-667.811 142.094,-667.811 142.094,-667.811 148.094,-667.811 154.094,-673.811 154.094,-679.811 154.094,-679.811 154.094,-691.811 154.094,-691.811 154.094,-697.811 148.094,-703.811 142.094,-703.811"/>
<text text-anchor="middle" x="107.943" y="-682.811" font-family="Times,serif" font-size="10.00" fill="#000033">AdminDeletesRule</text>
</g>
<!-- AdminDeletesRule&#45;&gt;Storage\\WriteModel\\RuleWriter -->
<g id="edge6" class="edge"><title>AdminDeletesRule&#45;&gt;Storage\\WriteModel\\RuleWriter</title>
<path fill="none" stroke="#999999" d="M154.259,-682.508C176.101,-678.569 200.95,-670.237 216.887,-652.811 310.069,-550.924 192.817,-455.15 280.887,-348.811 283.38,-345.801 286.227,-343.087 289.316,-340.643"/>
<polygon fill="#999999" stroke="#999999" points="290.709,-342.228 294.352,-337.019 288.255,-338.819 290.709,-342.228"/>
</g>
<!-- AdminDeletesRule&#45;&gt;Storage\\ReadModel\\RuleReader -->
<g id="edge7" class="edge"><title>AdminDeletesRule&#45;&gt;Storage\\ReadModel\\RuleReader</title>
<path fill="none" stroke="#999999" d="M154.244,-680.132C175.172,-675.595 199.236,-667.444 216.887,-652.811 264.025,-613.733 249.643,-583.47 280.887,-530.811 298.663,-500.851 321.221,-467.688 336.302,-446.118"/>
<polygon fill="#999999" stroke="#999999" points="338.053,-447.279 339.779,-441.161 334.614,-444.867 338.053,-447.279"/>
</g>
<!-- AdminDeletesRule&#45;&gt;Storage\\ReadModel\\RuleSpecByCountryAndGroupIds -->
<g id="edge9" class="edge"><title>AdminDeletesRule&#45;&gt;Storage\\ReadModel\\RuleSpecByCountryAndGroupIds</title>
<path fill="none" stroke="#999999" d="M154.198,-676.955C174.292,-671.796 197.686,-664.037 216.887,-652.811 250.81,-632.979 245.54,-608.979 280.887,-591.811 339.84,-563.177 365.843,-594.766 426.848,-570.811 492.613,-544.988 557.814,-492.349 591.861,-462.251"/>
<polygon fill="#999999" stroke="#999999" points="593.572,-463.54 596.655,-457.98 590.778,-460.404 593.572,-463.54"/>
</g>
<!-- AdminDeletesRule&#45;&gt;Storage\\WriteModel\\RuleToDelete -->
<g id="edge8" class="edge"><title>AdminDeletesRule&#45;&gt;Storage\\WriteModel\\RuleToDelete</title>
<path fill="none" stroke="#999999" d="M154.244,-678.477C174.69,-673.597 198.355,-665.635 216.887,-652.811 255.192,-626.305 247.623,-602.422 280.887,-569.811 338.513,-513.318 374.409,-523.151 426.848,-461.811 471.801,-409.228 443.264,-364.996 498.848,-323.811 508.931,-316.34 520.809,-311.173 533.069,-307.638"/>
<polygon fill="#999999" stroke="#999999" points="533.853,-309.603 539.111,-306.031 532.773,-305.544 533.853,-309.603"/>
</g>
<!-- AdminDeletesRule&#45;&gt;Rule\\NonexistentRule -->
<g id="edge10" class="edge"><title>AdminDeletesRule&#45;&gt;Rule\\NonexistentRule</title>
<path fill="none" stroke="#999999" d="M154.252,-675.038C194.123,-665.558 252.373,-651.707 295.489,-641.455"/>
<polygon fill="#999999" stroke="#999999" points="296.118,-643.464 301.469,-640.033 295.146,-639.378 296.118,-643.464"/>
</g>
<!-- AdminUpdatesRule -->
<g id="node20" class="node"><title>AdminUpdatesRule</title>
<path fill="#9999cc" stroke="black" d="M143.878,-539.811C143.878,-539.811 72.0088,-539.811 72.0088,-539.811 66.0088,-539.811 60.0088,-533.811 60.0088,-527.811 60.0088,-527.811 60.0088,-515.811 60.0088,-515.811 60.0088,-509.811 66.0088,-503.811 72.0088,-503.811 72.0088,-503.811 143.878,-503.811 143.878,-503.811 149.878,-503.811 155.878,-509.811 155.878,-515.811 155.878,-515.811 155.878,-527.811 155.878,-527.811 155.878,-533.811 149.878,-539.811 143.878,-539.811"/>
<text text-anchor="middle" x="107.943" y="-518.811" font-family="Times,serif" font-size="10.00" fill="#000033">AdminUpdatesRule</text>
</g>
<!-- AdminUpdatesRule&#45;&gt;Storage\\WriteModel\\RuleWriter -->
<g id="edge11" class="edge"><title>AdminUpdatesRule&#45;&gt;Storage\\WriteModel\\RuleWriter</title>
<path fill="none" stroke="#999999" d="M155.681,-516.32C176.43,-511.828 199.935,-503.66 216.887,-488.811 268.351,-443.732 231.697,-396.362 280.887,-348.811 284.24,-345.57 287.995,-342.657 291.982,-340.044"/>
<polygon fill="#999999" stroke="#999999" points="293.118,-341.811 297.144,-336.891 290.929,-338.226 293.118,-341.811"/>
</g>
<!-- AdminUpdatesRule&#45;&gt;Storage\\ReadModel\\RuleReader -->
<g id="edge12" class="edge"><title>AdminUpdatesRule&#45;&gt;Storage\\ReadModel\\RuleReader</title>
<path fill="none" stroke="#999999" d="M155.805,-509.473C175.008,-503.906 197.283,-496.787 216.887,-488.811 246.531,-476.751 252.111,-469.817 280.887,-455.811 289.223,-451.754 298.162,-447.545 306.808,-443.544"/>
<polygon fill="#999999" stroke="#999999" points="308.165,-445.231 312.736,-440.813 306.407,-441.417 308.165,-445.231"/>
</g>
<!-- AdminUpdatesRule&#45;&gt;Storage\\WriteModel\\RuleToAdd -->
<g id="edge14" class="edge"><title>AdminUpdatesRule&#45;&gt;Storage\\WriteModel\\RuleToAdd</title>
<path fill="none" stroke="#999999" d="M155.778,-510.201C190.218,-501.972 238.252,-491.135 280.887,-483.811 345.306,-472.747 369.869,-497.838 426.848,-465.811 471.805,-440.542 455.595,-402.9 498.848,-374.811 510.49,-367.251 523.933,-361.594 537.472,-357.363"/>
<polygon fill="#999999" stroke="#999999" points="538.123,-359.36 543.275,-355.635 536.925,-355.335 538.123,-359.36"/>
</g>
<!-- AdminUpdatesRule&#45;&gt;Storage\\ReadModel\\RuleSpecByCountryAndGroupIds -->
<g id="edge16" class="edge"><title>AdminUpdatesRule&#45;&gt;Storage\\ReadModel\\RuleSpecByCountryAndGroupIds</title>
<path fill="none" stroke="#999999" d="M155.726,-517.038C217.885,-510.408 331.016,-497.34 426.848,-480.811 462.092,-474.733 500.727,-466.626 533.848,-459.227"/>
<polygon fill="#999999" stroke="#999999" points="534.572,-461.217 539.966,-457.854 533.652,-457.119 534.572,-461.217"/>
</g>
<!-- AdminUpdatesRule&#45;&gt;Storage\\WriteModel\\RuleToDelete -->
<g id="edge13" class="edge"><title>AdminUpdatesRule&#45;&gt;Storage\\WriteModel\\RuleToDelete</title>
<path fill="none" stroke="#999999" d="M155.719,-507.58C174.71,-501.785 196.854,-495.004 216.887,-488.811 245.359,-480.011 251.914,-475.787 280.887,-468.811 344.875,-453.406 372.527,-480.974 426.848,-443.811 478.181,-408.692 447.794,-359.336 498.848,-323.811 509.003,-316.745 520.802,-311.779 532.926,-308.317"/>
<polygon fill="#999999" stroke="#999999" points="533.635,-310.302 538.898,-306.736 532.56,-306.242 533.635,-310.302"/>
</g>
<!-- AdminUpdatesRule&#45;&gt;Rule\\NonexistentRule -->
<g id="edge15" class="edge"><title>AdminUpdatesRule&#45;&gt;Rule\\NonexistentRule</title>
<path fill="none" stroke="#999999" d="M150.598,-539.913C193.659,-558.626 260.764,-587.787 305.739,-607.331"/>
<polygon fill="#999999" stroke="#999999" points="305.044,-609.319 311.384,-609.785 306.718,-605.467 305.044,-609.319"/>
</g>
<!-- AdminUpdatesRule&#45;&gt;Rule\\Rule -->
<g id="edge17" class="edge"><title>AdminUpdatesRule&#45;&gt;Rule\\Rule</title>
<path fill="none" stroke="#999999" d="M155.675,-533.626C217.779,-549.449 330.85,-578.682 426.848,-605.811 481.859,-621.358 545.42,-640.808 583.108,-652.498"/>
<polygon fill="#999999" stroke="#999999" points="582.576,-654.532 588.929,-654.306 583.822,-650.521 582.576,-654.532"/>
</g>
<!-- AdminViewsRuleList -->
<g id="node21" class="node"><title>AdminViewsRuleList</title>
<path fill="#9999cc" stroke="black" d="M147.621,-237.811C147.621,-237.811 68.2655,-237.811 68.2655,-237.811 62.2655,-237.811 56.2655,-231.811 56.2655,-225.811 56.2655,-225.811 56.2655,-213.811 56.2655,-213.811 56.2655,-207.811 62.2655,-201.811 68.2655,-201.811 68.2655,-201.811 147.621,-201.811 147.621,-201.811 153.621,-201.811 159.621,-207.811 159.621,-213.811 159.621,-213.811 159.621,-225.811 159.621,-225.811 159.621,-231.811 153.621,-237.811 147.621,-237.811"/>
<text text-anchor="middle" x="107.943" y="-216.811" font-family="Times,serif" font-size="10.00" fill="#000033">AdminViewsRuleList</text>
</g>
<!-- AdminViewsRuleList&#45;&gt;Storage\\ReadModel\\RuleReader -->
<g id="edge18" class="edge"><title>AdminViewsRuleList&#45;&gt;Storage\\ReadModel\\RuleReader</title>
<path fill="none" stroke="#999999" d="M159.122,-237.837C178.833,-246.725 200.591,-258.986 216.887,-274.811 259.407,-316.104 237.055,-351.913 280.887,-391.811 284.951,-395.511 289.524,-398.815 294.345,-401.755"/>
<polygon fill="#999999" stroke="#999999" points="293.412,-403.641 299.661,-404.806 295.502,-399.998 293.412,-403.641"/>
</g>
<!-- AdminViewsRuleList&#45;&gt;Rule\\Rule -->
<g id="edge19" class="edge"><title>AdminViewsRuleList&#45;&gt;Rule\\Rule</title>
<path fill="none" stroke="#999999" d="M159.662,-222.374C239.011,-227.382 387.515,-241.088 426.848,-274.811 503.029,-340.13 454.407,-398.838 498.848,-488.811 527.33,-546.476 572.301,-607.363 597.47,-639.601"/>
<polygon fill="#999999" stroke="#999999" points="595.977,-641.1 601.334,-644.524 599.281,-638.507 595.977,-641.1"/>
</g>
<!-- AdminViewsSingleRule -->
<g id="node22" class="node"><title>AdminViewsSingleRule</title>
<path fill="#9999cc" stroke="black" d="M152.621,-155.811C152.621,-155.811 63.2655,-155.811 63.2655,-155.811 57.2655,-155.811 51.2655,-149.811 51.2655,-143.811 51.2655,-143.811 51.2655,-131.811 51.2655,-131.811 51.2655,-125.811 57.2655,-119.811 63.2655,-119.811 63.2655,-119.811 152.621,-119.811 152.621,-119.811 158.621,-119.811 164.621,-125.811 164.621,-131.811 164.621,-131.811 164.621,-143.811 164.621,-143.811 164.621,-149.811 158.621,-155.811 152.621,-155.811"/>
<text text-anchor="middle" x="107.943" y="-134.811" font-family="Times,serif" font-size="10.00" fill="#000033">AdminViewsSingleRule</text>
</g>
<!-- AdminViewsSingleRule&#45;&gt;Storage\\ReadModel\\RuleReader -->
<g id="edge20" class="edge"><title>AdminViewsSingleRule&#45;&gt;Storage\\ReadModel\\RuleReader</title>
<path fill="none" stroke="#999999" d="M164.034,-155.842C183.017,-164.428 202.978,-176.477 216.887,-192.811 277.118,-263.548 218.403,-323.056 280.887,-391.811 284.104,-395.351 287.795,-398.504 291.769,-401.308"/>
<polygon fill="#999999" stroke="#999999" points="290.766,-403.161 296.94,-404.677 293.059,-399.642 290.766,-403.161"/>
</g>
<!-- AdminViewsSingleRule&#45;&gt;Storage\\ReadModel\\RuleSpecByCountryAndGroupIds -->
<g id="edge22" class="edge"><title>AdminViewsSingleRule&#45;&gt;Storage\\ReadModel\\RuleSpecByCountryAndGroupIds</title>
<path fill="none" stroke="#999999" d="M156.473,-155.832C190.64,-168.157 238.047,-183.983 280.887,-193.811 312.797,-201.132 401.47,-193.128 426.848,-213.811 501.377,-274.555 425.837,-355.25 498.848,-417.811 498.946,-417.896 499.044,-417.98 499.143,-418.063"/>
<polygon fill="#999999" stroke="#999999" points="497.706,-419.606 503.728,-421.643 500.291,-416.295 497.706,-419.606"/>
</g>
<!-- AdminViewsSingleRule&#45;&gt;Rule\\Rule -->
<g id="edge21" class="edge"><title>AdminViewsSingleRule&#45;&gt;Rule\\Rule</title>
<path fill="none" stroke="#999999" d="M145.987,-155.928C180.24,-171.993 232.941,-194.992 280.887,-208.811 344.129,-227.039 377.918,-189.792 426.848,-233.811 514.397,-312.575 449.317,-381.97 498.848,-488.811 525.898,-547.162 571.412,-607.789 597.056,-639.799"/>
<polygon fill="#999999" stroke="#999999" points="595.595,-641.332 600.996,-644.686 598.865,-638.696 595.595,-641.332"/>
</g>
<!-- AdminViewsSingleRule&#45;&gt;Rule\\Components\\Country -->
<g id="edge23" class="edge"><title>AdminViewsSingleRule&#45;&gt;Rule\\Components\\Country</title>
<path fill="none" stroke="#999999" d="M164.732,-134.766C311.002,-127.289 697.488,-110.993 743.375,-144.811 819.325,-200.786 876.738,-505.866 892.015,-594.596"/>
<polygon fill="#999999" stroke="#999999" points="889.961,-595.044 893.041,-600.604 894.101,-594.336 889.961,-595.044"/>
</g>
<!-- AdminViewsSingleRule&#45;&gt;Rule\\Components\\CustomerGroupIdList -->
<g id="edge24" class="edge"><title>AdminViewsSingleRule&#45;&gt;Rule\\Components\\CustomerGroupIdList</title>
<path fill="none" stroke="#999999" d="M164.686,-139.303C311.758,-143.769 701.869,-159.262 743.375,-198.811 885.218,-333.969 678.959,-489.619 807.128,-638.935"/>
<polygon fill="#999999" stroke="#999999" points="805.877,-640.69 811.423,-643.797 809.024,-637.91 805.877,-640.69"/>
</g>
<!-- CustomerSpecifiesShippingAddress -->
<g id="node23" class="node"><title>CustomerSpecifiesShippingAddress</title>
<path fill="#9999cc" stroke="black" d="M175.83,-73.8115C175.83,-73.8115 40.0566,-73.8115 40.0566,-73.8115 34.0566,-73.8115 28.0566,-67.8115 28.0566,-61.8115 28.0566,-61.8115 28.0566,-49.8115 28.0566,-49.8115 28.0566,-43.8115 34.0566,-37.8115 40.0566,-37.8115 40.0566,-37.8115 175.83,-37.8115 175.83,-37.8115 181.83,-37.8115 187.83,-43.8115 187.83,-49.8115 187.83,-49.8115 187.83,-61.8115 187.83,-61.8115 187.83,-67.8115 181.83,-73.8115 175.83,-73.8115"/>
<text text-anchor="middle" x="107.943" y="-52.8115" font-family="Times,serif" font-size="10.00" fill="#000033">CustomerSpecifiesShippingAddress</text>
</g>
<!-- CustomerSpecifiesShippingAddress&#45;&gt;Storage\\ReadModel\\RuleReader -->
<g id="edge25" class="edge"><title>CustomerSpecifiesShippingAddress&#45;&gt;Storage\\ReadModel\\RuleReader</title>
<path fill="none" stroke="#999999" d="M166.225,-73.8338C184.857,-82.3167 204.027,-94.3014 216.887,-110.811 295.596,-211.862 198.957,-293.355 280.887,-391.811 283.759,-395.263 287.086,-398.34 290.705,-401.081"/>
<polygon fill="#999999" stroke="#999999" points="289.675,-402.923 295.803,-404.615 292.068,-399.471 289.675,-402.923"/>
</g>
<!-- CustomerSpecifiesShippingAddress&#45;&gt;Storage\\ReadModel\\RuleSpecByCountryAndGroupId -->
<g id="edge26" class="edge"><title>CustomerSpecifiesShippingAddress&#45;&gt;Storage\\ReadModel\\RuleSpecByCountryAndGroupId</title>
<path fill="none" stroke="#999999" d="M156.12,-73.8739C239.645,-106.181 406.683,-172.393 426.848,-192.811 485.367,-252.068 436.095,-311.058 498.848,-365.811 503.101,-369.522 507.749,-372.796 512.662,-375.683"/>
<polygon fill="#999999" stroke="#999999" points="511.823,-377.618 518.092,-378.667 513.845,-373.937 511.823,-377.618"/>
</g>
<!-- CustomerSpecifiesShippingAddress&#45;&gt;Rule\\Components\\Country -->
<g id="edge28" class="edge"><title>CustomerSpecifiesShippingAddress&#45;&gt;Rule\\Components\\Country</title>
<path fill="none" stroke="#999999" d="M188.116,-64.6356C217.276,-67.8657 250.58,-71.5316 280.887,-74.8115 383.637,-85.9316 663.574,-58.1369 743.375,-123.811 819.325,-186.317 876.945,-503.429 892.106,-594.39"/>
<polygon fill="#999999" stroke="#999999" points="890.072,-594.966 893.123,-600.542 894.216,-594.28 890.072,-594.966"/>
</g>
<!-- CustomerSpecifiesShippingAddress&#45;&gt;Rule\\Components\\CustomerGroupId -->
<g id="edge27" class="edge"><title>CustomerSpecifiesShippingAddress&#45;&gt;Rule\\Components\\CustomerGroupId</title>
<path fill="none" stroke="#999999" d="M187.916,-40.0313C359.45,-10.7911 768.186,30.7845 986.7,-183.811 1119.42,-314.149 1137.1,-559.547 1139.32,-637.438"/>
<polygon fill="#999999" stroke="#999999" points="1137.22,-637.657 1139.47,-643.603 1141.42,-637.553 1137.22,-637.657"/>
</g>
</g>
</svg>
