<?xml version="1.0" encoding="UTF-8" standalone="no"?>
<!DOCTYPE svg PUBLIC "-//W3C//DTD SVG 1.1//EN"
 "http://www.w3.org/Graphics/SVG/1.1/DTD/svg11.dtd">
<!-- Generated by graphviz version 2.38.0 (20140413.2041)
 -->
<!-- Title: G Pages: 1 -->
<svg width="1195pt" height="728pt"
 viewBox="0.00 0.00 1195.17 728.19" xmlns="http://www.w3.org/2000/svg" xmlns:xlink="http://www.w3.org/1999/xlink">
<g id="graph0" class="graph" transform="scale(1 1) rotate(0) translate(4 724.192)">
<title>G</title>
<polygon fill="white" stroke="none" points="-4,4 -4,-724.192 1191.17,-724.192 1191.17,4 -4,4"/>
<text text-anchor="middle" x="593.584" y="-5.6" font-family="Times,serif" font-size="8.00">PhpDependencyAnalyse by Marco Muths (v0.5.0)</text>
<g id="clust1" class="cluster"><title>cluster_0</title>
<path fill="#ccccff" stroke="#000033" d="M293.547,-198.517C293.547,-198.517 685.631,-198.517 685.631,-198.517 691.631,-198.517 697.631,-204.517 697.631,-210.517 697.631,-210.517 697.631,-346.517 697.631,-346.517 697.631,-352.517 691.631,-358.517 685.631,-358.517 685.631,-358.517 293.547,-358.517 293.547,-358.517 287.547,-358.517 281.547,-352.517 281.547,-346.517 281.547,-346.517 281.547,-210.517 281.547,-210.517 281.547,-204.517 287.547,-198.517 293.547,-198.517"/>
<text text-anchor="middle" x="322.206" y="-343.317" font-family="Times,serif" font-size="14.00" fill="#000033">ReadModel</text>
</g>
<g id="clust2" class="cluster"><title>cluster_1</title>
<path fill="#ccccff" stroke="#000033" d="M765.631,-288.517C765.631,-288.517 1167.17,-288.517 1167.17,-288.517 1173.17,-288.517 1179.17,-294.517 1179.17,-300.517 1179.17,-300.517 1179.17,-436.517 1179.17,-436.517 1179.17,-442.517 1173.17,-448.517 1167.17,-448.517 1167.17,-448.517 765.631,-448.517 765.631,-448.517 759.631,-448.517 753.631,-442.517 753.631,-436.517 753.631,-436.517 753.631,-300.517 753.631,-300.517 753.631,-294.517 759.631,-288.517 765.631,-288.517"/>
<text text-anchor="middle" x="810.241" y="-433.317" font-family="Times,serif" font-size="14.00" fill="#000033">RuleComponents</text>
</g>
<g id="clust3" class="cluster"><title>cluster_2</title>
<path fill="#ccccff" stroke="#000033" d="M77.3867,-486.517C77.3867,-486.517 157.16,-486.517 157.16,-486.517 163.16,-486.517 169.16,-492.517 169.16,-498.517 169.16,-498.517 169.16,-548.517 169.16,-548.517 169.16,-554.517 163.16,-560.517 157.16,-560.517 157.16,-560.517 77.3867,-560.517 77.3867,-560.517 71.3867,-560.517 65.3867,-554.517 65.3867,-548.517 65.3867,-548.517 65.3867,-498.517 65.3867,-498.517 65.3867,-492.517 71.3867,-486.517 77.3867,-486.517"/>
<text text-anchor="middle" x="117.328" y="-545.317" font-family="Times,serif" font-size="14.00" fill="#000033">RuleRepository</text>
</g>
<g id="clust4" class="cluster"><title>cluster_3</title>
<path fill="#ccccff" stroke="#000033" d="M300.068,-472.517C300.068,-472.517 645.353,-472.517 645.353,-472.517 651.353,-472.517 657.353,-478.517 657.353,-484.517 657.353,-484.517 657.353,-577.517 657.353,-577.517 657.353,-583.517 651.353,-589.517 645.353,-589.517 645.353,-589.517 300.068,-589.517 300.068,-589.517 294.068,-589.517 288.068,-583.517 288.068,-577.517 288.068,-577.517 288.068,-484.517 288.068,-484.517 288.068,-478.517 294.068,-472.517 300.068,-472.517"/>
<text text-anchor="middle" x="330.001" y="-574.317" font-family="Times,serif" font-size="14.00" fill="#000033">WriteModel</text>
</g>
<g id="clust5" class="cluster"><title>cluster_4</title>
<path fill="#ccccff" stroke="#000033" d="M322.271,-597.517C322.271,-597.517 382.705,-597.517 382.705,-597.517 388.705,-597.517 394.705,-603.517 394.705,-609.517 394.705,-609.517 394.705,-659.517 394.705,-659.517 394.705,-665.517 388.705,-671.517 382.705,-671.517 382.705,-671.517 322.271,-671.517 322.271,-671.517 316.271,-671.517 310.271,-665.517 310.271,-659.517 310.271,-659.517 310.271,-609.517 310.271,-609.517 310.271,-603.517 316.271,-597.517 322.271,-597.517"/>
<text text-anchor="middle" x="352.875" y="-656.317" font-family="Times,serif" font-size="14.00" fill="#000033">RuleStorage</text>
</g>
<g id="clust6" class="cluster"><title>cluster_5</title>
<path fill="#ccccff" stroke="#000033" d="M20,-69.5174C20,-69.5174 213.547,-69.5174 213.547,-69.5174 219.547,-69.5174 225.547,-75.5174 225.547,-81.5174 225.547,-81.5174 225.547,-346.517 225.547,-346.517 225.547,-352.517 219.547,-358.517 213.547,-358.517 213.547,-358.517 20,-358.517 20,-358.517 14,-358.517 8,-352.517 8,-346.517 8,-346.517 8,-81.5174 8,-81.5174 8,-75.5174 14,-69.5174 20,-69.5174"/>
<text text-anchor="middle" x="43.2173" y="-343.317" font-family="Times,serif" font-size="14.00" fill="#000033">UseCases</text>
</g>
<!-- ReadModel\\Rule -->
<g id="node1" class="node"><title>ReadModel\\Rule</title>
<path fill="#9999cc" stroke="black" d="M618.351,-328.517C618.351,-328.517 557.709,-328.517 557.709,-328.517 551.709,-328.517 545.709,-322.517 545.709,-316.517 545.709,-316.517 545.709,-304.517 545.709,-304.517 545.709,-298.517 551.709,-292.517 557.709,-292.517 557.709,-292.517 618.351,-292.517 618.351,-292.517 624.351,-292.517 630.351,-298.517 630.351,-304.517 630.351,-304.517 630.351,-316.517 630.351,-316.517 630.351,-322.517 624.351,-328.517 618.351,-328.517"/>
<text text-anchor="middle" x="588.03" y="-307.517" font-family="Times,serif" font-size="10.00" fill="#000033">ReadModel\Rule</text>
</g>
<!-- RuleComponents\\Country -->
<g id="node7" class="node"><title>RuleComponents\\Country</title>
<path fill="#9999cc" stroke="black" d="M898.404,-332.517C898.404,-332.517 801.404,-332.517 801.404,-332.517 795.404,-332.517 789.404,-326.517 789.404,-320.517 789.404,-320.517 789.404,-308.517 789.404,-308.517 789.404,-302.517 795.404,-296.517 801.404,-296.517 801.404,-296.517 898.404,-296.517 898.404,-296.517 904.404,-296.517 910.404,-302.517 910.404,-308.517 910.404,-308.517 910.404,-320.517 910.404,-320.517 910.404,-326.517 904.404,-332.517 898.404,-332.517"/>
<text text-anchor="middle" x="849.904" y="-311.517" font-family="Times,serif" font-size="10.00" fill="#000033">RuleComponents\Country</text>
</g>
<!-- ReadModel\\Rule&#45;&gt;RuleComponents\\Country -->
<g id="edge1" class="edge"><title>ReadModel\\Rule&#45;&gt;RuleComponents\\Country</title>
<path fill="none" stroke="#999999" d="M630.208,-311.151C671.245,-311.783 734.909,-312.763 782.986,-313.503"/>
<polygon fill="#999999" stroke="#999999" points="783.034,-315.604 789.066,-313.596 783.099,-311.404 783.034,-315.604"/>
</g>
<!-- RuleComponents\\CustomerGroupIdList -->
<g id="node8" class="node"><title>RuleComponents\\CustomerGroupIdList</title>
<path fill="#9999cc" stroke="black" d="M925.952,-375.517C925.952,-375.517 773.857,-375.517 773.857,-375.517 767.857,-375.517 761.857,-369.517 761.857,-363.517 761.857,-363.517 761.857,-351.517 761.857,-351.517 761.857,-345.517 767.857,-339.517 773.857,-339.517 773.857,-339.517 925.952,-339.517 925.952,-339.517 931.952,-339.517 937.952,-345.517 937.952,-351.517 937.952,-351.517 937.952,-363.517 937.952,-363.517 937.952,-369.517 931.952,-375.517 925.952,-375.517"/>
<text text-anchor="middle" x="849.904" y="-354.517" font-family="Times,serif" font-size="10.00" fill="#000033">RuleComponents\CustomerGroupIdList</text>
</g>
<!-- ReadModel\\Rule&#45;&gt;RuleComponents\\CustomerGroupIdList -->
<g id="edge2" class="edge"><title>ReadModel\\Rule&#45;&gt;RuleComponents\\CustomerGroupIdList</title>
<path fill="none" stroke="#999999" d="M630.208,-317.965C663.834,-324.046 712.651,-332.875 755.636,-340.649"/>
<polygon fill="#999999" stroke="#999999" points="755.383,-342.737 761.661,-341.739 756.131,-338.605 755.383,-342.737"/>
</g>
<!-- RuleComponents\\PostCodeList -->
<g id="node9" class="node"><title>RuleComponents\\PostCodeList</title>
<path fill="#9999cc" stroke="black" d="M909.023,-418.517C909.023,-418.517 790.786,-418.517 790.786,-418.517 784.786,-418.517 778.786,-412.517 778.786,-406.517 778.786,-406.517 778.786,-394.517 778.786,-394.517 778.786,-388.517 784.786,-382.517 790.786,-382.517 790.786,-382.517 909.023,-382.517 909.023,-382.517 915.023,-382.517 921.023,-388.517 921.023,-394.517 921.023,-394.517 921.023,-406.517 921.023,-406.517 921.023,-412.517 915.023,-418.517 909.023,-418.517"/>
<text text-anchor="middle" x="849.904" y="-397.517" font-family="Times,serif" font-size="10.00" fill="#000033">RuleComponents\PostCodeList</text>
</g>
<!-- ReadModel\\Rule&#45;&gt;RuleComponents\\PostCodeList -->
<g id="edge3" class="edge"><title>ReadModel\\Rule&#45;&gt;RuleComponents\\PostCodeList</title>
<path fill="none" stroke="#999999" d="M627.599,-328.576C660.535,-343.479 709.454,-364.398 753.631,-378.517 759.821,-380.496 766.29,-382.375 772.817,-384.139"/>
<polygon fill="#999999" stroke="#999999" points="772.482,-386.223 778.82,-385.727 773.556,-382.162 772.482,-386.223"/>
</g>
<!-- ReadModel\\RuleFound -->
<g id="node2" class="node"><title>ReadModel\\RuleFound</title>
<path fill="#9999cc" stroke="black" d="M394.87,-328.517C394.87,-328.517 309.106,-328.517 309.106,-328.517 303.106,-328.517 297.106,-322.517 297.106,-316.517 297.106,-316.517 297.106,-304.517 297.106,-304.517 297.106,-298.517 303.106,-292.517 309.106,-292.517 309.106,-292.517 394.87,-292.517 394.87,-292.517 400.87,-292.517 406.87,-298.517 406.87,-304.517 406.87,-304.517 406.87,-316.517 406.87,-316.517 406.87,-322.517 400.87,-328.517 394.87,-328.517"/>
<text text-anchor="middle" x="351.988" y="-307.517" font-family="Times,serif" font-size="10.00" fill="#000033">ReadModel\RuleFound</text>
</g>
<!-- ReadModel\\RuleFound&#45;&gt;ReadModel\\Rule -->
<g id="edge4" class="edge"><title>ReadModel\\RuleFound&#45;&gt;ReadModel\\Rule</title>
<path fill="none" stroke="#999999" d="M406.976,-310.517C447.084,-310.517 501.273,-310.517 539.696,-310.517"/>
<polygon fill="#999999" stroke="#999999" points="539.723,-312.618 545.723,-310.517 539.723,-308.418 539.723,-312.618"/>
</g>
<!-- ReadModel\\RuleFound&#45;&gt;RuleComponents\\Country -->
<g id="edge6" class="edge"><title>ReadModel\\RuleFound&#45;&gt;RuleComponents\\Country</title>
<path fill="none" stroke="#999999" d="M406.935,-327.526C430.999,-334.262 459.861,-341.186 486.429,-344.517 579.567,-356.196 604.213,-353.691 697.631,-344.517 725.995,-341.732 756.927,-336.076 783.386,-330.418"/>
<polygon fill="#999999" stroke="#999999" points="783.89,-332.458 789.31,-329.136 783.001,-328.353 783.89,-332.458"/>
</g>
<!-- ReadModel\\RuleFound&#45;&gt;RuleComponents\\CustomerGroupIdList -->
<g id="edge7" class="edge"><title>ReadModel\\RuleFound&#45;&gt;RuleComponents\\CustomerGroupIdList</title>
<path fill="none" stroke="#999999" d="M397.551,-328.597C423.1,-338.012 456.039,-348.57 486.429,-353.517 577.055,-368.271 682.116,-367.508 755.723,-364.121"/>
<polygon fill="#999999" stroke="#999999" points="755.962,-366.213 761.855,-363.83 755.762,-362.017 755.962,-366.213"/>
</g>
<!-- ReadModel\\RuleFound&#45;&gt;RuleComponents\\PostCodeList -->
<g id="edge8" class="edge"><title>ReadModel\\RuleFound&#45;&gt;RuleComponents\\PostCodeList</title>
<path fill="none" stroke="#999999" d="M388.542,-328.55C414.88,-341.064 452.019,-356.965 486.429,-365.517 583.256,-389.583 698.452,-397.279 772.573,-399.641"/>
<polygon fill="#999999" stroke="#999999" points="772.664,-401.745 778.725,-399.828 772.792,-397.547 772.664,-401.745"/>
</g>
<!-- RuleComponents\\CustomerGroupId -->
<g id="node10" class="node"><title>RuleComponents\\CustomerGroupId</title>
<path fill="#9999cc" stroke="black" d="M1159.16,-375.517C1159.16,-375.517 1022.18,-375.517 1022.18,-375.517 1016.18,-375.517 1010.18,-369.517 1010.18,-363.517 1010.18,-363.517 1010.18,-351.517 1010.18,-351.517 1010.18,-345.517 1016.18,-339.517 1022.18,-339.517 1022.18,-339.517 1159.16,-339.517 1159.16,-339.517 1165.16,-339.517 1171.16,-345.517 1171.16,-351.517 1171.16,-351.517 1171.16,-363.517 1171.16,-363.517 1171.16,-369.517 1165.16,-375.517 1159.16,-375.517"/>
<text text-anchor="middle" x="1090.67" y="-354.517" font-family="Times,serif" font-size="10.00" fill="#000033">RuleComponents\CustomerGroupId</text>
</g>
<!-- ReadModel\\RuleFound&#45;&gt;RuleComponents\\CustomerGroupId -->
<g id="edge5" class="edge"><title>ReadModel\\RuleFound&#45;&gt;RuleComponents\\CustomerGroupId</title>
<path fill="none" stroke="#999999" d="M378.199,-328.554C404.062,-346.099 446.107,-372.022 486.429,-385.517 581.928,-417.482 840.961,-447.8 938.178,-421.517 973.94,-411.849 976.042,-393.911 1010.18,-379.517 1011.62,-378.909 1013.09,-378.312 1014.57,-377.727"/>
<polygon fill="#999999" stroke="#999999" points="1015.5,-379.622 1020.36,-375.531 1014.01,-375.694 1015.5,-379.622"/>
</g>
<!-- RuleComponents\\PostCode -->
<g id="node11" class="node"><title>RuleComponents\\PostCode</title>
<path fill="#9999cc" stroke="black" d="M1141.74,-418.517C1141.74,-418.517 1039.61,-418.517 1039.61,-418.517 1033.61,-418.517 1027.61,-412.517 1027.61,-406.517 1027.61,-406.517 1027.61,-394.517 1027.61,-394.517 1027.61,-388.517 1033.61,-382.517 1039.61,-382.517 1039.61,-382.517 1141.74,-382.517 1141.74,-382.517 1147.74,-382.517 1153.74,-388.517 1153.74,-394.517 1153.74,-394.517 1153.74,-406.517 1153.74,-406.517 1153.74,-412.517 1147.74,-418.517 1141.74,-418.517"/>
<text text-anchor="middle" x="1090.67" y="-397.517" font-family="Times,serif" font-size="10.00" fill="#000033">RuleComponents\PostCode</text>
</g>
<!-- ReadModel\\RuleFound&#45;&gt;RuleComponents\\PostCode -->
<g id="edge9" class="edge"><title>ReadModel\\RuleFound&#45;&gt;RuleComponents\\PostCode</title>
<path fill="none" stroke="#999999" d="M376.345,-328.553C412.905,-356.706 480.148,-408.148 486.429,-410.517 669.358,-479.534 906.238,-442.588 1021.14,-417.511"/>
<polygon fill="#999999" stroke="#999999" points="1021.78,-419.52 1027.19,-416.177 1020.88,-415.418 1021.78,-419.52"/>
</g>
<!-- ReadModel\\RuleNotFound -->
<g id="node3" class="node"><title>ReadModel\\RuleNotFound</title>
<path fill="#9999cc" stroke="black" d="M402.37,-285.517C402.37,-285.517 301.606,-285.517 301.606,-285.517 295.606,-285.517 289.606,-279.517 289.606,-273.517 289.606,-273.517 289.606,-261.517 289.606,-261.517 289.606,-255.517 295.606,-249.517 301.606,-249.517 301.606,-249.517 402.37,-249.517 402.37,-249.517 408.37,-249.517 414.37,-255.517 414.37,-261.517 414.37,-261.517 414.37,-273.517 414.37,-273.517 414.37,-279.517 408.37,-285.517 402.37,-285.517"/>
<text text-anchor="middle" x="351.988" y="-264.517" font-family="Times,serif" font-size="10.00" fill="#000033">ReadModel\RuleNotFound</text>
</g>
<!-- ReadModel\\RuleNotFound&#45;&gt;ReadModel\\Rule -->
<g id="edge10" class="edge"><title>ReadModel\\RuleNotFound&#45;&gt;ReadModel\\Rule</title>
<path fill="none" stroke="#999999" d="M414.48,-278.815C453.656,-286.013 503.642,-295.197 539.719,-301.825"/>
<polygon fill="#999999" stroke="#999999" points="539.555,-303.93 545.836,-302.949 540.314,-299.799 539.555,-303.93"/>
</g>
<!-- ReadModel\\RuleNotFound&#45;&gt;RuleComponents\\Country -->
<g id="edge11" class="edge"><title>ReadModel\\RuleNotFound&#45;&gt;RuleComponents\\Country</title>
<path fill="none" stroke="#999999" d="M405.541,-285.598C408.571,-286.868 411.553,-288.178 414.429,-289.517 448.01,-305.161 450.666,-321.849 486.429,-331.517 587.284,-358.784 709.583,-343.589 783.22,-329.505"/>
<polygon fill="#999999" stroke="#999999" points="783.824,-331.527 789.313,-328.32 783.023,-327.404 783.824,-331.527"/>
</g>
<!-- ReadModel\\RuleNotFound&#45;&gt;RuleComponents\\CustomerGroupIdList -->
<g id="edge12" class="edge"><title>ReadModel\\RuleNotFound&#45;&gt;RuleComponents\\CustomerGroupIdList</title>
<path fill="none" stroke="#999999" d="M406.707,-285.624C409.352,-286.865 411.94,-288.164 414.429,-289.517 449.804,-308.755 448.521,-330.933 486.429,-344.517 573.637,-375.768 680.318,-375.394 755.292,-369.423"/>
<polygon fill="#999999" stroke="#999999" points="755.732,-371.494 761.538,-368.907 755.386,-367.308 755.732,-371.494"/>
</g>
<!-- ReadModel\\RuleNotFound&#45;&gt;RuleComponents\\PostCodeList -->
<g id="edge13" class="edge"><title>ReadModel\\RuleNotFound&#45;&gt;RuleComponents\\PostCodeList</title>
<path fill="none" stroke="#999999" d="M407.902,-285.661C410.15,-286.877 412.337,-288.162 414.429,-289.517 453.21,-314.64 444.87,-344.319 486.429,-364.517 511.499,-376.702 673.965,-389.179 772.685,-395.766"/>
<polygon fill="#999999" stroke="#999999" points="772.674,-397.87 778.8,-396.172 772.952,-393.679 772.674,-397.87"/>
</g>
<!-- ReadModel\\RuleReader -->
<g id="node4" class="node"><title>ReadModel\\RuleReader</title>
<path fill="#9999cc" stroke="black" d="M396.124,-242.517C396.124,-242.517 307.851,-242.517 307.851,-242.517 301.851,-242.517 295.851,-236.517 295.851,-230.517 295.851,-230.517 295.851,-218.517 295.851,-218.517 295.851,-212.517 301.851,-206.517 307.851,-206.517 307.851,-206.517 396.124,-206.517 396.124,-206.517 402.124,-206.517 408.124,-212.517 408.124,-218.517 408.124,-218.517 408.124,-230.517 408.124,-230.517 408.124,-236.517 402.124,-242.517 396.124,-242.517"/>
<text text-anchor="middle" x="351.988" y="-221.517" font-family="Times,serif" font-size="10.00" fill="#000033">ReadModel\RuleReader</text>
</g>
<!-- ReadModel\\RuleReader&#45;&gt;ReadModel\\Rule -->
<g id="edge15" class="edge"><title>ReadModel\\RuleReader&#45;&gt;ReadModel\\Rule</title>
<path fill="none" stroke="#999999" d="M405.541,-242.598C408.571,-243.868 411.553,-245.178 414.429,-246.517 448.01,-262.161 451.912,-275.063 486.429,-288.517 503.193,-295.052 522.324,-299.849 539.37,-303.264"/>
<polygon fill="#999999" stroke="#999999" points="539.258,-305.382 545.548,-304.461 540.056,-301.258 539.258,-305.382"/>
</g>
<!-- ReadModel\\RuleSpecByCountryAndGroupId -->
<g id="node5" class="node"><title>ReadModel\\RuleSpecByCountryAndGroupId</title>
<path fill="#9999cc" stroke="black" d="M675.841,-285.517C675.841,-285.517 500.219,-285.517 500.219,-285.517 494.219,-285.517 488.219,-279.517 488.219,-273.517 488.219,-273.517 488.219,-261.517 488.219,-261.517 488.219,-255.517 494.219,-249.517 500.219,-249.517 500.219,-249.517 675.841,-249.517 675.841,-249.517 681.841,-249.517 687.841,-255.517 687.841,-261.517 687.841,-261.517 687.841,-273.517 687.841,-273.517 687.841,-279.517 681.841,-285.517 675.841,-285.517"/>
<text text-anchor="middle" x="588.03" y="-264.517" font-family="Times,serif" font-size="10.00" fill="#000033">ReadModel\RuleSpecByCountryAndGroupId</text>
</g>
<!-- ReadModel\\RuleReader&#45;&gt;ReadModel\\RuleSpecByCountryAndGroupId -->
<g id="edge14" class="edge"><title>ReadModel\\RuleReader&#45;&gt;ReadModel\\RuleSpecByCountryAndGroupId</title>
<path fill="none" stroke="#999999" d="M408.156,-234.653C430.426,-238.745 456.89,-243.607 482.542,-248.32"/>
<polygon fill="#999999" stroke="#999999" points="482.412,-250.431 488.693,-249.45 483.171,-246.3 482.412,-250.431"/>
</g>
<!-- ReadModel\\RuleSpecByCountryAndGroupIds -->
<g id="node6" class="node"><title>ReadModel\\RuleSpecByCountryAndGroupIds</title>
<path fill="#9999cc" stroke="black" d="M677.732,-242.517C677.732,-242.517 498.328,-242.517 498.328,-242.517 492.328,-242.517 486.328,-236.517 486.328,-230.517 486.328,-230.517 486.328,-218.517 486.328,-218.517 486.328,-212.517 492.328,-206.517 498.328,-206.517 498.328,-206.517 677.732,-206.517 677.732,-206.517 683.732,-206.517 689.732,-212.517 689.732,-218.517 689.732,-218.517 689.732,-230.517 689.732,-230.517 689.732,-236.517 683.732,-242.517 677.732,-242.517"/>
<text text-anchor="middle" x="588.03" y="-221.517" font-family="Times,serif" font-size="10.00" fill="#000033">ReadModel\RuleSpecByCountryAndGroupIds</text>
</g>
<!-- ReadModel\\RuleReader&#45;&gt;ReadModel\\RuleSpecByCountryAndGroupIds -->
<g id="edge16" class="edge"><title>ReadModel\\RuleReader&#45;&gt;ReadModel\\RuleSpecByCountryAndGroupIds</title>
<path fill="none" stroke="#999999" d="M408.156,-224.517C429.709,-224.517 455.191,-224.517 480.062,-224.517"/>
<polygon fill="#999999" stroke="#999999" points="480.37,-226.618 486.37,-224.517 480.369,-222.418 480.37,-226.618"/>
</g>
<!-- ReadModel\\RuleSpecByCountryAndGroupId&#45;&gt;RuleComponents\\Country -->
<g id="edge18" class="edge"><title>ReadModel\\RuleSpecByCountryAndGroupId&#45;&gt;RuleComponents\\Country</title>
<path fill="none" stroke="#999999" d="M688.019,-285.42C719.89,-291.184 754.399,-297.425 783.254,-302.644"/>
<polygon fill="#999999" stroke="#999999" points="783.044,-304.74 789.322,-303.742 783.792,-300.607 783.044,-304.74"/>
</g>
<!-- ReadModel\\RuleSpecByCountryAndGroupId&#45;&gt;RuleComponents\\CustomerGroupId -->
<g id="edge17" class="edge"><title>ReadModel\\RuleSpecByCountryAndGroupId&#45;&gt;RuleComponents\\CustomerGroupId</title>
<path fill="none" stroke="#999999" d="M687.824,-265.885C758.489,-266.814 855.357,-272.391 938.178,-292.517 978.235,-302.252 1021.17,-321.609 1051.07,-336.679"/>
<polygon fill="#999999" stroke="#999999" points="1050.2,-338.591 1056.5,-339.439 1052.1,-334.847 1050.2,-338.591"/>
</g>
<!-- ReadModel\\RuleSpecByCountryAndGroupIds&#45;&gt;RuleComponents\\Country -->
<g id="edge19" class="edge"><title>ReadModel\\RuleSpecByCountryAndGroupIds&#45;&gt;RuleComponents\\Country</title>
<path fill="none" stroke="#999999" d="M684.404,-242.57C688.898,-243.818 693.327,-245.133 697.631,-246.517 736.726,-259.091 779.212,-278.76 809.177,-293.717"/>
<polygon fill="#999999" stroke="#999999" points="808.318,-295.636 814.623,-296.452 810.204,-291.882 808.318,-295.636"/>
</g>
<!-- ReadModel\\RuleSpecByCountryAndGroupIds&#45;&gt;RuleComponents\\CustomerGroupIdList -->
<g id="edge20" class="edge"><title>ReadModel\\RuleSpecByCountryAndGroupIds&#45;&gt;RuleComponents\\CustomerGroupIdList</title>
<path fill="none" stroke="#999999" d="M689.734,-241.658C692.458,-243.151 695.098,-244.768 697.631,-246.517 736.083,-273.08 715.542,-308.437 753.631,-335.517 754.409,-336.071 755.199,-336.61 756,-337.137"/>
<polygon fill="#999999" stroke="#999999" points="755.213,-339.115 761.435,-340.419 757.385,-335.52 755.213,-339.115"/>
</g>
<!-- RuleComponents\\CustomerGroupIdList&#45;&gt;RuleComponents\\CustomerGroupId -->
<g id="edge21" class="edge"><title>RuleComponents\\CustomerGroupIdList&#45;&gt;RuleComponents\\CustomerGroupId</title>
<path fill="none" stroke="#999999" d="M938.119,-357.517C959.459,-357.517 982.28,-357.517 1003.57,-357.517"/>
<polygon fill="#999999" stroke="#999999" points="1003.82,-359.618 1009.82,-357.517 1003.82,-355.418 1003.82,-359.618"/>
</g>
<!-- RuleComponents\\PostCodeList&#45;&gt;RuleComponents\\PostCode -->
<g id="edge22" class="edge"><title>RuleComponents\\PostCodeList&#45;&gt;RuleComponents\\PostCode</title>
<path fill="none" stroke="#999999" d="M921.251,-400.517C952.847,-400.517 989.989,-400.517 1021.34,-400.517"/>
<polygon fill="#999999" stroke="#999999" points="1021.53,-402.618 1027.53,-400.517 1021.53,-398.418 1021.53,-402.618"/>
</g>
<!-- RuleRepository -->
<g id="node12" class="node"><title>RuleRepository</title>
<path fill="#9999cc" stroke="black" d="M144.047,-530.517C144.047,-530.517 89.4997,-530.517 89.4997,-530.517 83.4997,-530.517 77.4997,-524.517 77.4997,-518.517 77.4997,-518.517 77.4997,-506.517 77.4997,-506.517 77.4997,-500.517 83.4997,-494.517 89.4997,-494.517 89.4997,-494.517 144.047,-494.517 144.047,-494.517 150.047,-494.517 156.047,-500.517 156.047,-506.517 156.047,-506.517 156.047,-518.517 156.047,-518.517 156.047,-524.517 150.047,-530.517 144.047,-530.517"/>
<text text-anchor="middle" x="116.773" y="-509.517" font-family="Times,serif" font-size="10.00" fill="#000033">RuleRepository</text>
</g>
<!-- RuleRepository&#45;&gt;ReadModel\\Rule -->
<g id="edge28" class="edge"><title>RuleRepository&#45;&gt;ReadModel\\Rule</title>
<path fill="none" stroke="#999999" d="M156.269,-501.855C189.318,-492.947 238.323,-480.325 281.547,-471.517 340.134,-459.579 359.812,-474.85 414.429,-450.517 477.582,-422.382 536.889,-365.043 566.794,-333.167"/>
<polygon fill="#999999" stroke="#999999" points="568.442,-334.479 570.99,-328.655 565.366,-331.619 568.442,-334.479"/>
</g>
<!-- RuleRepository&#45;&gt;ReadModel\\RuleFound -->
<g id="edge32" class="edge"><title>RuleRepository&#45;&gt;ReadModel\\RuleFound</title>
<path fill="none" stroke="#999999" d="M138.881,-494.235C181.808,-457.053 279.135,-372.753 325.503,-332.591"/>
<polygon fill="#999999" stroke="#999999" points="326.936,-334.129 330.096,-328.613 324.186,-330.954 326.936,-334.129"/>
</g>
<!-- RuleRepository&#45;&gt;ReadModel\\RuleNotFound -->
<g id="edge27" class="edge"><title>RuleRepository&#45;&gt;ReadModel\\RuleNotFound</title>
<path fill="none" stroke="#999999" d="M130.744,-494.216C167.659,-442.217 271.3,-296.865 281.547,-289.517 282.318,-288.965 283.103,-288.426 283.901,-287.9"/>
<polygon fill="#999999" stroke="#999999" points="285.289,-289.515 289.341,-284.616 283.119,-285.919 285.289,-289.515"/>
</g>
<!-- RuleRepository&#45;&gt;ReadModel\\RuleReader -->
<g id="edge24" class="edge"><title>RuleRepository&#45;&gt;ReadModel\\RuleReader</title>
<path fill="none" stroke="#999999" d="M132.002,-494.293C153.59,-466.225 195.302,-410.331 225.547,-359.517 254.215,-311.352 238.994,-283 281.547,-246.517 284.187,-244.254 287.061,-242.223 290.089,-240.4"/>
<polygon fill="#999999" stroke="#999999" points="291.43,-242.061 295.687,-237.34 289.415,-238.375 291.43,-242.061"/>
</g>
<!-- RuleRepository&#45;&gt;ReadModel\\RuleSpecByCountryAndGroupId -->
<g id="edge26" class="edge"><title>RuleRepository&#45;&gt;ReadModel\\RuleSpecByCountryAndGroupId</title>
<path fill="none" stroke="#999999" d="M156.11,-496.095C188.857,-482.705 237.516,-464.302 281.547,-453.517 339.434,-439.339 366.05,-470.322 414.429,-435.517 473.16,-393.265 429.449,-334.103 486.429,-289.517 486.534,-289.435 486.64,-289.352 486.746,-289.27"/>
<polygon fill="#999999" stroke="#999999" points="487.997,-290.958 491.676,-285.774 485.567,-287.532 487.997,-290.958"/>
</g>
<!-- RuleRepository&#45;&gt;ReadModel\\RuleSpecByCountryAndGroupIds -->
<g id="edge29" class="edge"><title>RuleRepository&#45;&gt;ReadModel\\RuleSpecByCountryAndGroupIds</title>
<path fill="none" stroke="#999999" d="M155.439,-494.511C214.369,-465.29 330.321,-403.507 414.429,-331.517 452.041,-299.324 444.006,-272.042 486.429,-246.517 487.003,-246.172 487.582,-245.832 488.166,-245.497"/>
<polygon fill="#999999" stroke="#999999" points="489.235,-247.307 493.534,-242.624 487.253,-243.604 489.235,-247.307"/>
</g>
<!-- RuleRepository&#45;&gt;RuleComponents\\Country -->
<g id="edge34" class="edge"><title>RuleRepository&#45;&gt;RuleComponents\\Country</title>
<path fill="none" stroke="#999999" d="M129.191,-530.732C152.609,-566.143 209.948,-643.348 281.547,-672.517 336.241,-694.8 355.956,-680.812 414.429,-672.517 544.167,-654.113 608.025,-686.13 697.631,-590.517 776.68,-506.169 672.296,-418.664 753.631,-336.517 761.768,-328.299 772.321,-322.897 783.428,-319.394"/>
<polygon fill="#999999" stroke="#999999" points="784.08,-321.392 789.277,-317.731 782.931,-317.352 784.08,-321.392"/>
</g>
<!-- RuleRepository&#45;&gt;RuleComponents\\CustomerGroupIdList -->
<g id="edge33" class="edge"><title>RuleRepository&#45;&gt;RuleComponents\\CustomerGroupIdList</title>
<path fill="none" stroke="#999999" d="M127.681,-530.733C149.529,-568.723 205.969,-655.607 281.547,-688.517 302.741,-697.746 679.888,-703.334 697.631,-688.517 804.761,-599.058 657.319,-480.532 753.631,-379.517 754.553,-378.55 755.509,-377.621 756.496,-376.729"/>
<polygon fill="#999999" stroke="#999999" points="758.305,-377.97 761.668,-372.575 755.675,-374.695 758.305,-377.97"/>
</g>
<!-- RuleRepository&#45;&gt;RuleComponents\\PostCodeList -->
<g id="edge35" class="edge"><title>RuleRepository&#45;&gt;RuleComponents\\PostCodeList</title>
<path fill="none" stroke="#999999" d="M126.461,-530.698C146.862,-570.973 202.175,-667.02 281.547,-703.517 323.551,-722.832 658.311,-727.835 697.631,-703.517 799.674,-640.409 835.155,-485.382 845.352,-425.078"/>
<polygon fill="#999999" stroke="#999999" points="847.471,-425.132 846.368,-418.872 843.326,-424.454 847.471,-425.132"/>
</g>
<!-- RuleRepository&#45;&gt;RuleComponents\\CustomerGroupId -->
<g id="edge36" class="edge"><title>RuleRepository&#45;&gt;RuleComponents\\CustomerGroupId</title>
<path fill="none" stroke="#999999" d="M125.701,-530.823C145.073,-572.908 199.323,-675.96 281.547,-715.517 286.129,-717.722 696.656,-716.943 697.631,-716.517 884.855,-634.807 835.654,-485.682 1010.18,-379.517 1010.76,-379.164 1011.35,-378.816 1011.94,-378.473"/>
<polygon fill="#999999" stroke="#999999" points="1013.11,-380.226 1017.4,-375.536 1011.12,-376.527 1013.11,-380.226"/>
</g>
<!-- WriteModel\\RuleWriter -->
<g id="node13" class="node"><title>WriteModel\\RuleWriter</title>
<path fill="#9999cc" stroke="black" d="M395.828,-516.517C395.828,-516.517 308.148,-516.517 308.148,-516.517 302.148,-516.517 296.148,-510.517 296.148,-504.517 296.148,-504.517 296.148,-492.517 296.148,-492.517 296.148,-486.517 302.148,-480.517 308.148,-480.517 308.148,-480.517 395.828,-480.517 395.828,-480.517 401.828,-480.517 407.828,-486.517 407.828,-492.517 407.828,-492.517 407.828,-504.517 407.828,-504.517 407.828,-510.517 401.828,-516.517 395.828,-516.517"/>
<text text-anchor="middle" x="351.988" y="-495.517" font-family="Times,serif" font-size="10.00" fill="#000033">WriteModel\RuleWriter</text>
</g>
<!-- RuleRepository&#45;&gt;WriteModel\\RuleWriter -->
<g id="edge23" class="edge"><title>RuleRepository&#45;&gt;WriteModel\\RuleWriter</title>
<path fill="none" stroke="#999999" d="M156.284,-510.206C192.537,-508.029 247.429,-504.734 289.698,-502.197"/>
<polygon fill="#999999" stroke="#999999" points="289.976,-504.284 295.839,-501.828 289.724,-500.091 289.976,-504.284"/>
</g>
<!-- WriteModel\\RuleToAdd -->
<g id="node14" class="node"><title>WriteModel\\RuleToAdd</title>
<path fill="#9999cc" stroke="black" d="M632.803,-559.517C632.803,-559.517 543.256,-559.517 543.256,-559.517 537.256,-559.517 531.256,-553.517 531.256,-547.517 531.256,-547.517 531.256,-535.517 531.256,-535.517 531.256,-529.517 537.256,-523.517 543.256,-523.517 543.256,-523.517 632.803,-523.517 632.803,-523.517 638.803,-523.517 644.803,-529.517 644.803,-535.517 644.803,-535.517 644.803,-547.517 644.803,-547.517 644.803,-553.517 638.803,-559.517 632.803,-559.517"/>
<text text-anchor="middle" x="588.03" y="-538.517" font-family="Times,serif" font-size="10.00" fill="#000033">WriteModel\RuleToAdd</text>
</g>
<!-- RuleRepository&#45;&gt;WriteModel\\RuleToAdd -->
<g id="edge30" class="edge"><title>RuleRepository&#45;&gt;WriteModel\\RuleToAdd</title>
<path fill="none" stroke="#999999" d="M156.138,-515.856C189.314,-518.673 238.571,-522.687 281.547,-525.517 365.698,-531.06 462.992,-535.883 524.745,-538.746"/>
<polygon fill="#999999" stroke="#999999" points="524.89,-540.855 530.98,-539.034 525.083,-536.659 524.89,-540.855"/>
</g>
<!-- WriteModel\\RuleToDelete -->
<g id="node15" class="node"><title>WriteModel\\RuleToDelete</title>
<path fill="#9999cc" stroke="black" d="M637.176,-516.517C637.176,-516.517 538.884,-516.517 538.884,-516.517 532.884,-516.517 526.884,-510.517 526.884,-504.517 526.884,-504.517 526.884,-492.517 526.884,-492.517 526.884,-486.517 532.884,-480.517 538.884,-480.517 538.884,-480.517 637.176,-480.517 637.176,-480.517 643.176,-480.517 649.176,-486.517 649.176,-492.517 649.176,-492.517 649.176,-504.517 649.176,-504.517 649.176,-510.517 643.176,-516.517 637.176,-516.517"/>
<text text-anchor="middle" x="588.03" y="-495.517" font-family="Times,serif" font-size="10.00" fill="#000033">WriteModel\RuleToDelete</text>
</g>
<!-- RuleRepository&#45;&gt;WriteModel\\RuleToDelete -->
<g id="edge31" class="edge"><title>RuleRepository&#45;&gt;WriteModel\\RuleToDelete</title>
<path fill="none" stroke="#999999" d="M156.144,-514.621C189.324,-516.329 238.584,-518.6 281.547,-519.517 340.592,-520.779 355.478,-523.09 414.429,-519.517 449.456,-517.394 488.263,-512.869 520.195,-508.561"/>
<polygon fill="#999999" stroke="#999999" points="520.825,-510.595 526.486,-507.703 520.257,-506.433 520.825,-510.595"/>
</g>
<!-- RuleStorage -->
<g id="node16" class="node"><title>RuleStorage</title>
<path fill="#9999cc" stroke="black" d="M372.923,-641.517C372.923,-641.517 331.053,-641.517 331.053,-641.517 325.053,-641.517 319.053,-635.517 319.053,-629.517 319.053,-629.517 319.053,-617.517 319.053,-617.517 319.053,-611.517 325.053,-605.517 331.053,-605.517 331.053,-605.517 372.923,-605.517 372.923,-605.517 378.923,-605.517 384.923,-611.517 384.923,-617.517 384.923,-617.517 384.923,-629.517 384.923,-629.517 384.923,-635.517 378.923,-641.517 372.923,-641.517"/>
<text text-anchor="middle" x="351.988" y="-620.517" font-family="Times,serif" font-size="10.00" fill="#000033">RuleStorage</text>
</g>
<!-- RuleRepository&#45;&gt;RuleStorage -->
<g id="edge25" class="edge"><title>RuleRepository&#45;&gt;RuleStorage</title>
<path fill="none" stroke="#999999" d="M155.825,-530.651C189.015,-546.466 238.462,-570.02 281.547,-590.517 291.92,-595.453 303.167,-600.799 313.528,-605.723"/>
<polygon fill="#999999" stroke="#999999" points="312.86,-607.731 319.181,-608.409 314.663,-603.937 312.86,-607.731"/>
</g>
<!-- WriteModel\\RuleWriter&#45;&gt;WriteModel\\RuleToAdd -->
<g id="edge70" class="edge"><title>WriteModel\\RuleWriter&#45;&gt;WriteModel\\RuleToAdd</title>
<path fill="none" stroke="#999999" d="M407.86,-508.599C442.856,-515.029 488.297,-523.378 524.66,-530.058"/>
<polygon fill="#999999" stroke="#999999" points="524.595,-532.181 530.876,-531.2 525.354,-528.051 524.595,-532.181"/>
</g>
<!-- WriteModel\\RuleWriter&#45;&gt;WriteModel\\RuleToDelete -->
<g id="edge71" class="edge"><title>WriteModel\\RuleWriter&#45;&gt;WriteModel\\RuleToDelete</title>
<path fill="none" stroke="#999999" d="M407.86,-498.517C441.578,-498.517 484.994,-498.517 520.643,-498.517"/>
<polygon fill="#999999" stroke="#999999" points="520.749,-500.618 526.749,-498.517 520.749,-496.418 520.749,-500.618"/>
</g>
<!-- WriteModel\\RuleToAdd&#45;&gt;RuleComponents\\Country -->
<g id="edge67" class="edge"><title>WriteModel\\RuleToAdd&#45;&gt;RuleComponents\\Country</title>
<path fill="none" stroke="#999999" d="M644.992,-541.366C663.696,-538.629 683.384,-532.444 697.631,-519.517 760.622,-462.363 691.418,-394.519 753.631,-336.517 761.984,-328.73 772.526,-323.516 783.53,-320.061"/>
<polygon fill="#999999" stroke="#999999" points="784.124,-322.075 789.317,-318.41 782.971,-318.036 784.124,-322.075"/>
</g>
<!-- WriteModel\\RuleToAdd&#45;&gt;RuleComponents\\CustomerGroupIdList -->
<g id="edge65" class="edge"><title>WriteModel\\RuleToAdd&#45;&gt;RuleComponents\\CustomerGroupIdList</title>
<path fill="none" stroke="#999999" d="M644.965,-540.606C663.449,-537.768 683.004,-531.715 697.631,-519.517 749.099,-476.598 702.748,-423.13 753.631,-379.517 754.678,-378.62 755.755,-377.757 756.858,-376.928"/>
<polygon fill="#999999" stroke="#999999" points="758.094,-378.626 761.857,-373.502 755.72,-375.162 758.094,-378.626"/>
</g>
<!-- WriteModel\\RuleToAdd&#45;&gt;RuleComponents\\PostCodeList -->
<g id="edge66" class="edge"><title>WriteModel\\RuleToAdd&#45;&gt;RuleComponents\\PostCodeList</title>
<path fill="none" stroke="#999999" d="M645.018,-535.305C662.418,-532.038 681.306,-527.068 697.631,-519.517 749.523,-495.517 799.625,-450.44 827.149,-423.181"/>
<polygon fill="#999999" stroke="#999999" points="828.936,-424.364 831.695,-418.637 825.967,-421.393 828.936,-424.364"/>
</g>
<!-- WriteModel\\RuleToDelete&#45;&gt;RuleComponents\\Country -->
<g id="edge69" class="edge"><title>WriteModel\\RuleToDelete&#45;&gt;RuleComponents\\Country</title>
<path fill="none" stroke="#999999" d="M601.9,-480.417C626.997,-446.548 685.977,-373.669 753.631,-336.517 762.773,-331.497 773.015,-327.619 783.302,-324.625"/>
<polygon fill="#999999" stroke="#999999" points="784.127,-326.576 789.356,-322.962 783.014,-322.526 784.127,-326.576"/>
</g>
<!-- WriteModel\\RuleToDelete&#45;&gt;RuleComponents\\CustomerGroupIdList -->
<g id="edge68" class="edge"><title>WriteModel\\RuleToDelete&#45;&gt;RuleComponents\\CustomerGroupIdList</title>
<path fill="none" stroke="#999999" d="M608.658,-480.223C637.943,-453.938 695.843,-405.772 753.631,-379.517 754.887,-378.947 756.159,-378.39 757.445,-377.848"/>
<polygon fill="#999999" stroke="#999999" points="758.377,-379.736 763.165,-375.555 756.815,-375.838 758.377,-379.736"/>
</g>
<!-- UseCases\\AdminAddsRule -->
<g id="node17" class="node"><title>UseCases\\AdminAddsRule</title>
<path fill="#9999cc" stroke="black" d="M167.713,-328.517C167.713,-328.517 65.8342,-328.517 65.8342,-328.517 59.8342,-328.517 53.8342,-322.517 53.8342,-316.517 53.8342,-316.517 53.8342,-304.517 53.8342,-304.517 53.8342,-298.517 59.8342,-292.517 65.8342,-292.517 65.8342,-292.517 167.713,-292.517 167.713,-292.517 173.713,-292.517 179.713,-298.517 179.713,-304.517 179.713,-304.517 179.713,-316.517 179.713,-316.517 179.713,-322.517 173.713,-328.517 167.713,-328.517"/>
<text text-anchor="middle" x="116.773" y="-307.517" font-family="Times,serif" font-size="10.00" fill="#000033">UseCases\AdminAddsRule</text>
</g>
<!-- UseCases\\AdminAddsRule&#45;&gt;ReadModel\\RuleFound -->
<g id="edge40" class="edge"><title>UseCases\\AdminAddsRule&#45;&gt;ReadModel\\RuleFound</title>
<path fill="none" stroke="#999999" d="M179.658,-310.517C213.958,-310.517 256.427,-310.517 290.501,-310.517"/>
<polygon fill="#999999" stroke="#999999" points="290.762,-312.618 296.762,-310.517 290.762,-308.418 290.762,-312.618"/>
</g>
<!-- UseCases\\AdminAddsRule&#45;&gt;ReadModel\\RuleReader -->
<g id="edge38" class="edge"><title>UseCases\\AdminAddsRule&#45;&gt;ReadModel\\RuleReader</title>
<path fill="none" stroke="#999999" d="M179.663,-302.741C195.074,-299.502 211.264,-294.937 225.547,-288.517 253.923,-275.762 253.882,-260.75 281.547,-246.517 284.218,-245.143 286.991,-243.835 289.824,-242.592"/>
<polygon fill="#999999" stroke="#999999" points="290.984,-244.383 295.71,-240.132 289.364,-240.508 290.984,-244.383"/>
</g>
<!-- UseCases\\AdminAddsRule&#45;&gt;ReadModel\\RuleSpecByCountryAndGroupIds -->
<g id="edge41" class="edge"><title>UseCases\\AdminAddsRule&#45;&gt;ReadModel\\RuleSpecByCountryAndGroupIds</title>
<path fill="none" stroke="#999999" d="M179.549,-306.463C195.544,-303.207 212.048,-297.703 225.547,-288.517 263.256,-262.858 241.449,-224.257 281.547,-202.517 361.36,-159.246 470.599,-183.482 534.508,-204.424"/>
<polygon fill="#999999" stroke="#999999" points="534.192,-206.533 540.549,-206.438 535.521,-202.548 534.192,-206.533"/>
</g>
<!-- UseCases\\AdminAddsRule&#45;&gt;WriteModel\\RuleWriter -->
<g id="edge37" class="edge"><title>UseCases\\AdminAddsRule&#45;&gt;WriteModel\\RuleWriter</title>
<path fill="none" stroke="#999999" d="M140.135,-328.544C183.035,-363.126 276.766,-438.686 323.441,-476.311"/>
<polygon fill="#999999" stroke="#999999" points="322.362,-478.139 328.351,-480.27 324.998,-474.869 322.362,-478.139"/>
</g>
<!-- UseCases\\AdminAddsRule&#45;&gt;WriteModel\\RuleToAdd -->
<g id="edge39" class="edge"><title>UseCases\\AdminAddsRule&#45;&gt;WriteModel\\RuleToAdd</title>
<path fill="none" stroke="#999999" d="M148.078,-328.521C180.814,-347.869 234.595,-379.367 281.547,-405.517 340.046,-438.099 356.139,-443.564 414.429,-476.517 446.875,-494.861 451.772,-505.802 486.429,-519.517 498.682,-524.367 512.22,-528.247 525.286,-531.315"/>
<polygon fill="#999999" stroke="#999999" points="524.934,-533.389 531.25,-532.668 525.863,-529.293 524.934,-533.389"/>
</g>
<!-- UseCases\\AdminDeletesRule -->
<g id="node18" class="node"><title>UseCases\\AdminDeletesRule</title>
<path fill="#9999cc" stroke="black" d="M172.084,-242.517C172.084,-242.517 61.4625,-242.517 61.4625,-242.517 55.4625,-242.517 49.4625,-236.517 49.4625,-230.517 49.4625,-230.517 49.4625,-218.517 49.4625,-218.517 49.4625,-212.517 55.4625,-206.517 61.4625,-206.517 61.4625,-206.517 172.084,-206.517 172.084,-206.517 178.084,-206.517 184.084,-212.517 184.084,-218.517 184.084,-218.517 184.084,-230.517 184.084,-230.517 184.084,-236.517 178.084,-242.517 172.084,-242.517"/>
<text text-anchor="middle" x="116.773" y="-221.517" font-family="Times,serif" font-size="10.00" fill="#000033">UseCases\AdminDeletesRule</text>
</g>
<!-- UseCases\\AdminDeletesRule&#45;&gt;ReadModel\\RuleNotFound -->
<g id="edge46" class="edge"><title>UseCases\\AdminDeletesRule&#45;&gt;ReadModel\\RuleNotFound</title>
<path fill="none" stroke="#999999" d="M183.979,-236.724C215.037,-242.451 252,-249.266 283.248,-255.028"/>
<polygon fill="#999999" stroke="#999999" points="283.137,-257.142 289.418,-256.165 283.898,-253.012 283.137,-257.142"/>
</g>
<!-- UseCases\\AdminDeletesRule&#45;&gt;ReadModel\\RuleReader -->
<g id="edge43" class="edge"><title>UseCases\\AdminDeletesRule&#45;&gt;ReadModel\\RuleReader</title>
<path fill="none" stroke="#999999" d="M183.979,-224.517C217.057,-224.517 256.834,-224.517 289.269,-224.517"/>
<polygon fill="#999999" stroke="#999999" points="289.655,-226.618 295.655,-224.517 289.655,-222.418 289.655,-226.618"/>
</g>
<!-- UseCases\\AdminDeletesRule&#45;&gt;ReadModel\\RuleSpecByCountryAndGroupIds -->
<g id="edge45" class="edge"><title>UseCases\\AdminDeletesRule&#45;&gt;ReadModel\\RuleSpecByCountryAndGroupIds</title>
<path fill="none" stroke="#999999" d="M184.061,-217.397C198.309,-214.139 212.879,-209.402 225.547,-202.517 256.75,-185.56 248.797,-159.253 281.547,-145.517 336.009,-122.675 356.725,-132.939 414.429,-145.517 465.165,-156.577 518.834,-183.951 552.604,-203.367"/>
<polygon fill="#999999" stroke="#999999" points="551.606,-205.215 557.85,-206.411 553.714,-201.583 551.606,-205.215"/>
</g>
<!-- UseCases\\AdminDeletesRule&#45;&gt;WriteModel\\RuleWriter -->
<g id="edge42" class="edge"><title>UseCases\\AdminDeletesRule&#45;&gt;WriteModel\\RuleWriter</title>
<path fill="none" stroke="#999999" d="M184.005,-227.835C198.893,-231.211 213.754,-236.956 225.547,-246.517 274.096,-285.882 253.701,-319.561 281.547,-375.517 299.22,-411.032 322.285,-450.776 336.871,-475.224"/>
<polygon fill="#999999" stroke="#999999" points="335.146,-476.431 340.029,-480.501 338.75,-474.274 335.146,-476.431"/>
</g>
<!-- UseCases\\AdminDeletesRule&#45;&gt;WriteModel\\RuleToDelete -->
<g id="edge44" class="edge"><title>UseCases\\AdminDeletesRule&#45;&gt;WriteModel\\RuleToDelete</title>
<path fill="none" stroke="#999999" d="M183.947,-228.328C198.753,-231.697 213.592,-237.315 225.547,-246.517 269.963,-280.707 236.136,-326.66 281.547,-359.517 329.881,-394.49 360.977,-352.02 414.429,-378.517 454.695,-398.478 449.743,-423.558 486.429,-449.517 501.816,-460.406 519.992,-470.08 536.631,-477.896"/>
<polygon fill="#999999" stroke="#999999" points="535.881,-479.863 542.209,-480.474 537.644,-476.05 535.881,-479.863"/>
</g>
<!-- UseCases\\AdminUpdatesRule -->
<g id="node19" class="node"><title>UseCases\\AdminUpdatesRule</title>
<path fill="#9999cc" stroke="black" d="M173.367,-285.517C173.367,-285.517 60.1797,-285.517 60.1797,-285.517 54.1797,-285.517 48.1797,-279.517 48.1797,-273.517 48.1797,-273.517 48.1797,-261.517 48.1797,-261.517 48.1797,-255.517 54.1797,-249.517 60.1797,-249.517 60.1797,-249.517 173.367,-249.517 173.367,-249.517 179.367,-249.517 185.367,-255.517 185.367,-261.517 185.367,-261.517 185.367,-273.517 185.367,-273.517 185.367,-279.517 179.367,-285.517 173.367,-285.517"/>
<text text-anchor="middle" x="116.773" y="-264.517" font-family="Times,serif" font-size="10.00" fill="#000033">UseCases\AdminUpdatesRule</text>
</g>
<!-- UseCases\\AdminUpdatesRule&#45;&gt;ReadModel\\Rule -->
<g id="edge53" class="edge"><title>UseCases\\AdminUpdatesRule&#45;&gt;ReadModel\\Rule</title>
<path fill="none" stroke="#999999" d="M185.331,-258.496C198.994,-255.361 213.006,-251.154 225.547,-245.517 253.923,-232.762 252.032,-213.356 281.547,-203.517 337.575,-184.841 360.846,-178.683 414.429,-203.517 459.348,-224.336 444.006,-262.993 486.429,-288.517 502.255,-298.04 521.692,-303.46 539.248,-306.537"/>
<polygon fill="#999999" stroke="#999999" points="539.362,-308.683 545.62,-307.568 540.033,-304.537 539.362,-308.683"/>
</g>
<!-- UseCases\\AdminUpdatesRule&#45;&gt;ReadModel\\RuleNotFound -->
<g id="edge51" class="edge"><title>UseCases\\AdminUpdatesRule&#45;&gt;ReadModel\\RuleNotFound</title>
<path fill="none" stroke="#999999" d="M185.542,-267.517C216.306,-267.517 252.605,-267.517 283.353,-267.517"/>
<polygon fill="#999999" stroke="#999999" points="283.425,-269.618 289.425,-267.517 283.425,-265.418 283.425,-269.618"/>
</g>
<!-- UseCases\\AdminUpdatesRule&#45;&gt;ReadModel\\RuleReader -->
<g id="edge48" class="edge"><title>UseCases\\AdminUpdatesRule&#45;&gt;ReadModel\\RuleReader</title>
<path fill="none" stroke="#999999" d="M185.542,-255.022C218.323,-248.978 257.389,-241.775 289.327,-235.886"/>
<polygon fill="#999999" stroke="#999999" points="290.096,-237.88 295.615,-234.727 289.334,-233.75 290.096,-237.88"/>
</g>
<!-- UseCases\\AdminUpdatesRule&#45;&gt;ReadModel\\RuleSpecByCountryAndGroupIds -->
<g id="edge52" class="edge"><title>UseCases\\AdminUpdatesRule&#45;&gt;ReadModel\\RuleSpecByCountryAndGroupIds</title>
<path fill="none" stroke="#999999" d="M185.426,-262.112C199.522,-258.754 213.684,-253.543 225.547,-245.517 263.017,-220.168 241.719,-181.973 281.547,-160.517 333.541,-132.508 356.298,-150.087 414.429,-160.517 460.372,-168.761 510.071,-188.429 544.288,-203.803"/>
<polygon fill="#999999" stroke="#999999" points="543.735,-205.859 550.067,-206.425 545.471,-202.034 543.735,-205.859"/>
</g>
<!-- UseCases\\AdminUpdatesRule&#45;&gt;WriteModel\\RuleWriter -->
<g id="edge47" class="edge"><title>UseCases\\AdminUpdatesRule&#45;&gt;WriteModel\\RuleWriter</title>
<path fill="none" stroke="#999999" d="M185.421,-271.567C199.754,-274.973 214.017,-280.547 225.547,-289.517 270.731,-324.672 251.84,-356.579 281.547,-405.517 296.743,-430.552 317.066,-457.135 331.797,-475.441"/>
<polygon fill="#999999" stroke="#999999" points="330.386,-477.035 335.795,-480.376 333.65,-474.392 330.386,-477.035"/>
</g>
<!-- UseCases\\AdminUpdatesRule&#45;&gt;WriteModel\\RuleToAdd -->
<g id="edge50" class="edge"><title>UseCases\\AdminUpdatesRule&#45;&gt;WriteModel\\RuleToAdd</title>
<path fill="none" stroke="#999999" d="M185.335,-272.119C199.592,-275.506 213.845,-280.932 225.547,-289.517 266.931,-319.879 239.173,-361.553 281.547,-390.517 330.749,-424.149 364.093,-376.607 414.429,-408.517 464.093,-440.002 438.074,-486.056 486.429,-519.517 497.775,-527.369 511.424,-532.486 524.956,-535.804"/>
<polygon fill="#999999" stroke="#999999" points="524.841,-537.931 531.156,-537.205 525.766,-533.834 524.841,-537.931"/>
</g>
<!-- UseCases\\AdminUpdatesRule&#45;&gt;WriteModel\\RuleToDelete -->
<g id="edge49" class="edge"><title>UseCases\\AdminUpdatesRule&#45;&gt;WriteModel\\RuleToDelete</title>
<path fill="none" stroke="#999999" d="M185.458,-272.876C199.553,-276.236 213.706,-281.46 225.547,-289.517 263.256,-315.177 243.184,-350.847 281.547,-375.517 331.78,-407.821 359.337,-372.456 414.429,-395.517 451.326,-410.963 452.294,-428.665 486.429,-449.517 503.26,-459.799 522.563,-469.632 539.731,-477.755"/>
<polygon fill="#999999" stroke="#999999" points="539.14,-479.798 545.464,-480.443 540.923,-475.995 539.14,-479.798"/>
</g>
<!-- UseCases\\AdminViewsRuleList -->
<g id="node20" class="node"><title>UseCases\\AdminViewsRuleList</title>
<path fill="#9999cc" stroke="black" d="M177.111,-199.517C177.111,-199.517 56.4355,-199.517 56.4355,-199.517 50.4355,-199.517 44.4355,-193.517 44.4355,-187.517 44.4355,-187.517 44.4355,-175.517 44.4355,-175.517 44.4355,-169.517 50.4355,-163.517 56.4355,-163.517 56.4355,-163.517 177.111,-163.517 177.111,-163.517 183.111,-163.517 189.111,-169.517 189.111,-175.517 189.111,-175.517 189.111,-187.517 189.111,-187.517 189.111,-193.517 183.111,-199.517 177.111,-199.517"/>
<text text-anchor="middle" x="116.773" y="-178.517" font-family="Times,serif" font-size="10.00" fill="#000033">UseCases\AdminViewsRuleList</text>
</g>
<!-- UseCases\\AdminViewsRuleList&#45;&gt;ReadModel\\Rule -->
<g id="edge55" class="edge"><title>UseCases\\AdminViewsRuleList&#45;&gt;ReadModel\\Rule</title>
<path fill="none" stroke="#999999" d="M189.337,-166.153C252.359,-156.437 344.704,-151.758 414.429,-188.517 462.874,-214.059 440.65,-258.457 486.429,-288.517 502.138,-298.833 521.908,-304.386 539.755,-307.349"/>
<polygon fill="#999999" stroke="#999999" points="539.478,-309.431 545.726,-308.258 540.11,-305.279 539.478,-309.431"/>
</g>
<!-- UseCases\\AdminViewsRuleList&#45;&gt;ReadModel\\RuleReader -->
<g id="edge54" class="edge"><title>UseCases\\AdminViewsRuleList&#45;&gt;ReadModel\\RuleReader</title>
<path fill="none" stroke="#999999" d="M189.33,-194.711C221.34,-200.613 258.701,-207.502 289.438,-213.169"/>
<polygon fill="#999999" stroke="#999999" points="289.212,-215.263 295.493,-214.285 289.974,-211.132 289.212,-215.263"/>
</g>
<!-- UseCases\\AdminViewsSingleRule -->
<g id="node21" class="node"><title>UseCases\\AdminViewsSingleRule</title>
<path fill="#9999cc" stroke="black" d="M182.111,-156.517C182.111,-156.517 51.4355,-156.517 51.4355,-156.517 45.4355,-156.517 39.4355,-150.517 39.4355,-144.517 39.4355,-144.517 39.4355,-132.517 39.4355,-132.517 39.4355,-126.517 45.4355,-120.517 51.4355,-120.517 51.4355,-120.517 182.111,-120.517 182.111,-120.517 188.111,-120.517 194.111,-126.517 194.111,-132.517 194.111,-132.517 194.111,-144.517 194.111,-144.517 194.111,-150.517 188.111,-156.517 182.111,-156.517"/>
<text text-anchor="middle" x="116.773" y="-135.517" font-family="Times,serif" font-size="10.00" fill="#000033">UseCases\AdminViewsSingleRule</text>
</g>
<!-- UseCases\\AdminViewsSingleRule&#45;&gt;ReadModel\\Rule -->
<g id="edge57" class="edge"><title>UseCases\\AdminViewsSingleRule&#45;&gt;ReadModel\\Rule</title>
<path fill="none" stroke="#999999" d="M194.119,-135.555C269.718,-134.038 379.141,-136.09 414.429,-158.517 470.171,-193.945 433.458,-249.066 486.429,-288.517 501.63,-299.839 521.493,-305.556 539.551,-308.37"/>
<polygon fill="#999999" stroke="#999999" points="539.363,-310.464 545.596,-309.216 539.946,-306.304 539.363,-310.464"/>
</g>
<!-- UseCases\\AdminViewsSingleRule&#45;&gt;ReadModel\\RuleReader -->
<g id="edge56" class="edge"><title>UseCases\\AdminViewsSingleRule&#45;&gt;ReadModel\\RuleReader</title>
<path fill="none" stroke="#999999" d="M194.137,-151.423C204.811,-154.001 215.543,-157.017 225.547,-160.517 257.299,-171.627 291.157,-189.283 315.684,-203.238"/>
<polygon fill="#999999" stroke="#999999" points="314.834,-205.172 321.084,-206.337 316.925,-201.529 314.834,-205.172"/>
</g>
<!-- UseCases\\AdminViewsSingleRule&#45;&gt;ReadModel\\RuleSpecByCountryAndGroupIds -->
<g id="edge58" class="edge"><title>UseCases\\AdminViewsSingleRule&#45;&gt;ReadModel\\RuleSpecByCountryAndGroupIds</title>
<path fill="none" stroke="#999999" d="M194.313,-125.599C254.97,-118.001 341.374,-113.088 414.429,-131.517 468.94,-145.269 524.958,-179.987 557.848,-202.894"/>
<polygon fill="#999999" stroke="#999999" points="556.808,-204.73 562.924,-206.464 559.224,-201.294 556.808,-204.73"/>
</g>
<!-- UseCases\\AdminViewsSingleRule&#45;&gt;RuleComponents\\Country -->
<g id="edge59" class="edge"><title>UseCases\\AdminViewsSingleRule&#45;&gt;RuleComponents\\Country</title>
<path fill="none" stroke="#999999" d="M194.368,-127.712C205.115,-124.821 215.806,-121.157 225.547,-116.517 254.626,-102.667 251.223,-81.3752 281.547,-70.5174 325.072,-54.9327 657.235,-48.0326 697.631,-70.5174 784.048,-118.619 827.385,-238.753 842.506,-290.349"/>
<polygon fill="#999999" stroke="#999999" points="840.538,-291.104 844.211,-296.292 844.575,-289.945 840.538,-291.104"/>
</g>
<!-- UseCases\\AdminViewsSingleRule&#45;&gt;RuleComponents\\CustomerGroupIdList -->
<g id="edge60" class="edge"><title>UseCases\\AdminViewsSingleRule&#45;&gt;RuleComponents\\CustomerGroupIdList</title>
<path fill="none" stroke="#999999" d="M194.28,-124.863C254.36,-116.186 340.016,-108.333 414.429,-118.517 543.895,-136.237 600.141,-110.505 697.631,-197.517 747.013,-241.592 703.267,-292.567 753.631,-335.517 754.551,-336.302 755.494,-337.06 756.458,-337.793"/>
<polygon fill="#999999" stroke="#999999" points="755.31,-339.553 761.438,-341.244 757.702,-336.101 755.31,-339.553"/>
</g>
<!-- UseCases\\CustomerSpecifiesShippingAddress -->
<g id="node22" class="node"><title>UseCases\\CustomerSpecifiesShippingAddress</title>
<path fill="#9999cc" stroke="black" d="M205.321,-113.517C205.321,-113.517 28.2261,-113.517 28.2261,-113.517 22.2261,-113.517 16.2261,-107.517 16.2261,-101.517 16.2261,-101.517 16.2261,-89.5174 16.2261,-89.5174 16.2261,-83.5174 22.2261,-77.5174 28.2261,-77.5174 28.2261,-77.5174 205.321,-77.5174 205.321,-77.5174 211.321,-77.5174 217.321,-83.5174 217.321,-89.5174 217.321,-89.5174 217.321,-101.517 217.321,-101.517 217.321,-107.517 211.321,-113.517 205.321,-113.517"/>
<text text-anchor="middle" x="116.773" y="-92.5174" font-family="Times,serif" font-size="10.00" fill="#000033">UseCases\CustomerSpecifiesShippingAddress</text>
</g>
<!-- UseCases\\CustomerSpecifiesShippingAddress&#45;&gt;ReadModel\\RuleReader -->
<g id="edge61" class="edge"><title>UseCases\\CustomerSpecifiesShippingAddress&#45;&gt;ReadModel\\RuleReader</title>
<path fill="none" stroke="#999999" d="M216.555,-113.518C219.623,-114.763 222.629,-116.094 225.547,-117.517 268.174,-138.309 308.169,-177.008 331.083,-201.726"/>
<polygon fill="#999999" stroke="#999999" points="329.556,-203.168 335.16,-206.171 332.652,-200.329 329.556,-203.168"/>
</g>
<!-- UseCases\\CustomerSpecifiesShippingAddress&#45;&gt;ReadModel\\RuleSpecByCountryAndGroupId -->
<g id="edge62" class="edge"><title>UseCases\\CustomerSpecifiesShippingAddress&#45;&gt;ReadModel\\RuleSpecByCountryAndGroupId</title>
<path fill="none" stroke="#999999" d="M217.617,-88.8185C278.762,-89.3632 356.184,-98.7874 414.429,-135.517 463.852,-166.685 438.312,-212.368 486.429,-245.517 486.815,-245.784 487.204,-246.047 487.596,-246.307"/>
<polygon fill="#999999" stroke="#999999" points="486.612,-248.167 492.824,-249.514 488.808,-244.587 486.612,-248.167"/>
</g>
<!-- UseCases\\CustomerSpecifiesShippingAddress&#45;&gt;RuleComponents\\Country -->
<g id="edge64" class="edge"><title>UseCases\\CustomerSpecifiesShippingAddress&#45;&gt;RuleComponents\\Country</title>
<path fill="none" stroke="#999999" d="M180.978,-77.4562C211.149,-69.7116 247.927,-61.5329 281.547,-57.5174 327.453,-52.0344 657.535,-32.502 697.631,-55.5174 788.082,-107.437 829.594,-236.644 843.38,-290.429"/>
<polygon fill="#999999" stroke="#999999" points="841.356,-290.993 844.851,-296.302 845.43,-289.972 841.356,-290.993"/>
</g>
<!-- UseCases\\CustomerSpecifiesShippingAddress&#45;&gt;RuleComponents\\CustomerGroupId -->
<g id="edge63" class="edge"><title>UseCases\\CustomerSpecifiesShippingAddress&#45;&gt;RuleComponents\\CustomerGroupId</title>
<path fill="none" stroke="#999999" d="M167.986,-77.5068C270.714,-43.558 510.928,20.8709 697.631,-44.5174 867.927,-104.16 1019.35,-272.262 1070.91,-334.213"/>
<polygon fill="#999999" stroke="#999999" points="1069.58,-335.897 1075.03,-339.182 1072.82,-333.22 1069.58,-335.897"/>
</g>
</g>
</svg>
