<?xml version="1.0" encoding="UTF-8" standalone="no"?>
<!DOCTYPE svg PUBLIC "-//W3C//DTD SVG 1.1//EN"
 "http://www.w3.org/Graphics/SVG/1.1/DTD/svg11.dtd">
<!-- Generated by graphviz version 2.38.0 (20140413.2041)
 -->
<!-- Title: G Pages: 1 -->
<svg width="3323pt" height="1196pt"
 viewBox="0.00 0.00 3322.68 1196.00" xmlns="http://www.w3.org/2000/svg" xmlns:xlink="http://www.w3.org/1999/xlink">
<g id="graph0" class="graph" transform="scale(1 1) rotate(0) translate(4 1192)">
<title>G</title>
<polygon fill="white" stroke="none" points="-4,4 -4,-1192 3318.68,-1192 3318.68,4 -4,4"/>
<text text-anchor="middle" x="1657.34" y="-5.6" font-family="Times,serif" font-size="8.00">PhpDependencyAnalyse by Marco Muths (v0.5.0)</text>
<g id="clust1" class="cluster"><title>cluster_0</title>
<path fill="#ccccff" stroke="#000033" d="M1034.08,-106C1034.08,-106 3294.68,-106 3294.68,-106 3300.68,-106 3306.68,-112 3306.68,-118 3306.68,-118 3306.68,-702 3306.68,-702 3306.68,-708 3300.68,-714 3294.68,-714 3294.68,-714 1034.08,-714 1034.08,-714 1028.08,-714 1022.08,-708 1022.08,-702 1022.08,-702 1022.08,-118 1022.08,-118 1022.08,-112 1028.08,-106 1034.08,-106"/>
<text text-anchor="middle" x="1060.77" y="-698.8" font-family="Times,serif" font-size="14.00" fill="#000033">VinaiKopp</text>
</g>
<g id="clust2" class="cluster"><title>cluster_1</title>
<path fill="#ccccff" stroke="#000033" d="M19.2515,-778C19.2515,-778 426.429,-778 426.429,-778 432.429,-778 438.429,-784 438.429,-790 438.429,-790 438.429,-840 438.429,-840 438.429,-846 432.429,-852 426.429,-852 426.429,-852 19.2515,-852 19.2515,-852 13.2515,-852 7.25146,-846 7.25146,-840 7.25146,-840 7.25146,-790 7.25146,-790 7.25146,-784 13.2515,-778 19.2515,-778"/>
<text text-anchor="middle" x="223.276" y="-836.8" font-family="Times,serif" font-size="14.00" fill="#000033">VinaiKopp_PostCodeFilter_Block_Adminhtml_Postcodefilter_Edit_Form</text>
</g>
<g id="clust3" class="cluster"><title>cluster_2</title>
<path fill="#ccccff" stroke="#000033" d="M513.681,-778C513.681,-778 924.075,-778 924.075,-778 930.075,-778 936.075,-784 936.075,-790 936.075,-790 936.075,-840 936.075,-840 936.075,-846 930.075,-852 924.075,-852 924.075,-852 513.681,-852 513.681,-852 507.681,-852 501.681,-846 501.681,-840 501.681,-840 501.681,-790 501.681,-790 501.681,-784 507.681,-778 513.681,-778"/>
<text text-anchor="middle" x="719.257" y="-836.8" font-family="Times,serif" font-size="14.00" fill="#000033">VinaiKopp_PostCodeFilter_Block_Adminhtml_Postcodefilter_New_Form</text>
</g>
<g id="clust4" class="cluster"><title>cluster_3</title>
<path fill="#ccccff" stroke="#000033" d="M37.5864,-860C37.5864,-860 408.094,-860 408.094,-860 414.094,-860 420.094,-866 420.094,-872 420.094,-872 420.094,-922 420.094,-922 420.094,-928 414.094,-934 408.094,-934 408.094,-934 37.5864,-934 37.5864,-934 31.5864,-934 25.5864,-928 25.5864,-922 25.5864,-922 25.5864,-872 25.5864,-872 25.5864,-866 31.5864,-860 37.5864,-860"/>
<text text-anchor="middle" x="222.942" y="-918.8" font-family="Times,serif" font-size="14.00" fill="#000033">VinaiKopp_PostCodeFilter_Block_Adminhtml_Postcodefilter_Edit</text>
</g>
<g id="clust5" class="cluster"><title>cluster_4</title>
<path fill="#ccccff" stroke="#000033" d="M36.7539,-942C36.7539,-942 408.927,-942 408.927,-942 414.927,-942 420.927,-948 420.927,-954 420.927,-954 420.927,-1004 420.927,-1004 420.927,-1010 414.927,-1016 408.927,-1016 408.927,-1016 36.7539,-1016 36.7539,-1016 30.7539,-1016 24.7539,-1010 24.7539,-1004 24.7539,-1004 24.7539,-954 24.7539,-954 24.7539,-948 30.7539,-942 36.7539,-942"/>
<text text-anchor="middle" x="223.275" y="-1000.8" font-family="Times,serif" font-size="14.00" fill="#000033">VinaiKopp_PostCodeFilter_Block_Adminhtml_Postcodefilter_Grid</text>
</g>
<g id="clust6" class="cluster"><title>cluster_5</title>
<path fill="#ccccff" stroke="#000033" d="M36.478,-1024C36.478,-1024 410.203,-1024 410.203,-1024 416.203,-1024 422.203,-1030 422.203,-1036 422.203,-1036 422.203,-1086 422.203,-1086 422.203,-1092 416.203,-1098 410.203,-1098 410.203,-1098 36.478,-1098 36.478,-1098 30.478,-1098 24.478,-1092 24.478,-1086 24.478,-1086 24.478,-1036 24.478,-1036 24.478,-1030 30.478,-1024 36.478,-1024"/>
<text text-anchor="middle" x="223.385" y="-1082.8" font-family="Times,serif" font-size="14.00" fill="#000033">VinaiKopp_PostCodeFilter_Block_Adminhtml_Postcodefilter_New</text>
</g>
<g id="clust7" class="cluster"><title>cluster_6</title>
<path fill="#ccccff" stroke="#000033" d="M53.4189,-1106C53.4189,-1106 393.262,-1106 393.262,-1106 399.262,-1106 405.262,-1112 405.262,-1118 405.262,-1118 405.262,-1168 405.262,-1168 405.262,-1174 399.262,-1180 393.262,-1180 393.262,-1180 53.4189,-1180 53.4189,-1180 47.4189,-1180 41.4189,-1174 41.4189,-1168 41.4189,-1168 41.4189,-1118 41.4189,-1118 41.4189,-1112 47.4189,-1106 53.4189,-1106"/>
<text text-anchor="middle" x="223.609" y="-1164.8" font-family="Times,serif" font-size="14.00" fill="#000033">VinaiKopp_PostCodeFilter_Block_Adminhtml_Postcodefilter</text>
</g>
<g id="clust8" class="cluster"><title>cluster_7</title>
<path fill="#ccccff" stroke="#000033" d="M607.912,-567C607.912,-567 829.844,-567 829.844,-567 835.844,-567 841.844,-573 841.844,-579 841.844,-579 841.844,-629 841.844,-629 841.844,-635 835.844,-641 829.844,-641 829.844,-641 607.912,-641 607.912,-641 601.912,-641 595.912,-635 595.912,-629 595.912,-629 595.912,-579 595.912,-579 595.912,-573 601.912,-567 607.912,-567"/>
<text text-anchor="middle" x="719.364" y="-625.8" font-family="Times,serif" font-size="14.00" fill="#000033">VinaiKopp_PostCodeFilter_Helper_Data</text>
</g>
<g id="clust9" class="cluster"><title>cluster_8</title>
<path fill="#ccccff" stroke="#000033" d="M100.037,-522C100.037,-522 345.644,-522 345.644,-522 351.644,-522 357.644,-528 357.644,-534 357.644,-534 357.644,-584 357.644,-584 357.644,-590 351.644,-596 345.644,-596 345.644,-596 100.037,-596 100.037,-596 94.0371,-596 88.0371,-590 88.0371,-584 88.0371,-584 88.0371,-534 88.0371,-534 88.0371,-528 94.0371,-522 100.037,-522"/>
<text text-anchor="middle" x="223.162" y="-580.8" font-family="Times,serif" font-size="14.00" fill="#000033">VinaiKopp_PostCodeFilter_Model_Observer</text>
</g>
<g id="clust10" class="cluster"><title>cluster_9</title>
<path fill="#ccccff" stroke="#000033" d="M1003.42,-24C1003.42,-24 1326.02,-24 1326.02,-24 1332.02,-24 1338.02,-30 1338.02,-36 1338.02,-36 1338.02,-86 1338.02,-86 1338.02,-92 1332.02,-98 1326.02,-98 1326.02,-98 1003.42,-98 1003.42,-98 997.422,-98 991.422,-92 991.422,-86 991.422,-86 991.422,-36 991.422,-36 991.422,-30 997.422,-24 1003.42,-24"/>
<text text-anchor="middle" x="1165.04" y="-82.8" font-family="Times,serif" font-size="14.00" fill="#000033">VinaiKopp_PostCodeFilter_Model_Resource_RuleStorage</text>
</g>
<g id="clust11" class="cluster"><title>cluster_10</title>
<path fill="#ccccff" stroke="#000033" d="M83.0889,-686C83.0889,-686 362.592,-686 362.592,-686 368.592,-686 374.592,-692 374.592,-698 374.592,-698 374.592,-748 374.592,-748 374.592,-754 368.592,-760 362.592,-760 362.592,-760 83.0889,-760 83.0889,-760 77.0889,-760 71.0889,-754 71.0889,-748 71.0889,-748 71.0889,-698 71.0889,-698 71.0889,-692 77.0889,-686 83.0889,-686"/>
<text text-anchor="middle" x="222.941" y="-744.8" font-family="Times,serif" font-size="14.00" fill="#000033">VinaiKopp_PostCodeFilter_Model_RuleCollection</text>
</g>
<g id="clust12" class="cluster"><title>cluster_11</title>
<path fill="#ccccff" stroke="#000033" d="M643.449,-680C643.449,-680 794.307,-680 794.307,-680 800.307,-680 806.307,-686 806.307,-692 806.307,-692 806.307,-742 806.307,-742 806.307,-748 800.307,-754 794.307,-754 794.307,-754 643.449,-754 643.449,-754 637.449,-754 631.449,-748 631.449,-742 631.449,-742 631.449,-692 631.449,-692 631.449,-686 637.449,-680 643.449,-680"/>
<text text-anchor="middle" x="719.149" y="-738.8" font-family="Times,serif" font-size="14.00" fill="#000033">Varien_Data_Collection_Db</text>
</g>
<g id="clust13" class="cluster"><title>cluster_12</title>
<path fill="#ccccff" stroke="#000033" d="M12,-290C12,-290 434.681,-290 434.681,-290 440.681,-290 446.681,-296 446.681,-302 446.681,-302 446.681,-352 446.681,-352 446.681,-358 440.681,-364 434.681,-364 434.681,-364 12,-364 12,-364 6,-364 0,-358 0,-352 0,-352 0,-302 0,-302 0,-296 6,-290 12,-290"/>
<text text-anchor="middle" x="223.376" y="-348.8" font-family="Times,serif" font-size="14.00" fill="#000033">VinaiKopp_PostCodeFilter_Adminhtml_Vinaikopp_PostcodefilterController</text>
</g>
<g id="clust14" class="cluster"><title>cluster_13</title>
<path fill="#ccccff" stroke="#000033" d="M72.0371,-604C72.0371,-604 373.644,-604 373.644,-604 379.644,-604 385.644,-610 385.644,-616 385.644,-616 385.644,-666 385.644,-666 385.644,-672 379.644,-678 373.644,-678 373.644,-678 72.0371,-678 72.0371,-678 66.0371,-678 60.0371,-672 60.0371,-666 60.0371,-666 60.0371,-616 60.0371,-616 60.0371,-610 66.0371,-604 72.0371,-604"/>
<text text-anchor="middle" x="223.162" y="-662.8" font-family="Times,serif" font-size="14.00" fill="#000033">VinaiKopp_PostCodeFilter_Frontend_CheckController</text>
</g>
<!-- VinaiKopp\\PostCodeFilter\\AdminAddsRule -->
<g id="node1" class="node"><title>VinaiKopp\\PostCodeFilter\\AdminAddsRule</title>
<path fill="#9999cc" stroke="black" d="M1249.4,-228C1249.4,-228 1080.04,-228 1080.04,-228 1074.04,-228 1068.04,-222 1068.04,-216 1068.04,-216 1068.04,-204 1068.04,-204 1068.04,-198 1074.04,-192 1080.04,-192 1080.04,-192 1249.4,-192 1249.4,-192 1255.4,-192 1261.4,-198 1261.4,-204 1261.4,-204 1261.4,-216 1261.4,-216 1261.4,-222 1255.4,-228 1249.4,-228"/>
<text text-anchor="middle" x="1164.72" y="-207" font-family="Times,serif" font-size="10.00" fill="#000033">VinaiKopp\PostCodeFilter\AdminAddsRule</text>
</g>
<!-- VinaiKopp\\PostCodeFilter\\Storage\\WriteModel\\RuleWriter -->
<g id="node2" class="node"><title>VinaiKopp\\PostCodeFilter\\Storage\\WriteModel\\RuleWriter</title>
<path fill="#9999cc" stroke="black" d="M1713.51,-299C1713.51,-299 1483.37,-299 1483.37,-299 1477.37,-299 1471.37,-293 1471.37,-287 1471.37,-287 1471.37,-275 1471.37,-275 1471.37,-269 1477.37,-263 1483.37,-263 1483.37,-263 1713.51,-263 1713.51,-263 1719.51,-263 1725.51,-269 1725.51,-275 1725.51,-275 1725.51,-287 1725.51,-287 1725.51,-293 1719.51,-299 1713.51,-299"/>
<text text-anchor="middle" x="1598.44" y="-278" font-family="Times,serif" font-size="10.00" fill="#000033">VinaiKopp\PostCodeFilter\Storage\WriteModel\RuleWriter</text>
</g>
<!-- VinaiKopp\\PostCodeFilter\\AdminAddsRule&#45;&gt;VinaiKopp\\PostCodeFilter\\Storage\\WriteModel\\RuleWriter -->
<g id="edge1" class="edge"><title>VinaiKopp\\PostCodeFilter\\AdminAddsRule&#45;&gt;VinaiKopp\\PostCodeFilter\\Storage\\WriteModel\\RuleWriter</title>
<path fill="none" stroke="#999999" d="M1261.56,-221.206C1286.49,-224.403 1313.3,-228.09 1338.02,-232 1392.94,-240.686 1454.07,-252.143 1503.19,-261.795"/>
<polygon fill="#999999" stroke="#999999" points="1502.82,-263.864 1509.12,-262.963 1503.63,-259.743 1502.82,-263.864"/>
</g>
<!-- VinaiKopp\\PostCodeFilter\\Storage\\ReadModel\\RuleReader -->
<g id="node3" class="node"><title>VinaiKopp\\PostCodeFilter\\Storage\\ReadModel\\RuleReader</title>
<path fill="#9999cc" stroke="black" d="M1714.3,-482C1714.3,-482 1482.57,-482 1482.57,-482 1476.57,-482 1470.57,-476 1470.57,-470 1470.57,-470 1470.57,-458 1470.57,-458 1470.57,-452 1476.57,-446 1482.57,-446 1482.57,-446 1714.3,-446 1714.3,-446 1720.3,-446 1726.3,-452 1726.3,-458 1726.3,-458 1726.3,-470 1726.3,-470 1726.3,-476 1720.3,-482 1714.3,-482"/>
<text text-anchor="middle" x="1598.44" y="-461" font-family="Times,serif" font-size="10.00" fill="#000033">VinaiKopp\PostCodeFilter\Storage\ReadModel\RuleReader</text>
</g>
<!-- VinaiKopp\\PostCodeFilter\\AdminAddsRule&#45;&gt;VinaiKopp\\PostCodeFilter\\Storage\\ReadModel\\RuleReader -->
<g id="edge2" class="edge"><title>VinaiKopp\\PostCodeFilter\\AdminAddsRule&#45;&gt;VinaiKopp\\PostCodeFilter\\Storage\\ReadModel\\RuleReader</title>
<path fill="none" stroke="#999999" d="M1261.7,-203.996C1288.86,-206.836 1316.77,-214.635 1338.02,-232 1414.35,-294.375 1332.71,-380.028 1409.37,-442 1425.3,-454.885 1444.63,-462.799 1464.76,-467.399"/>
<polygon fill="#999999" stroke="#999999" points="1464.43,-469.477 1470.74,-468.666 1465.3,-465.368 1464.43,-469.477"/>
</g>
<!-- VinaiKopp\\PostCodeFilter\\Storage\\WriteModel\\RuleToAdd -->
<g id="node4" class="node"><title>VinaiKopp\\PostCodeFilter\\Storage\\WriteModel\\RuleToAdd</title>
<path fill="#9999cc" stroke="black" d="M2148.48,-264C2148.48,-264 1916.47,-264 1916.47,-264 1910.47,-264 1904.47,-258 1904.47,-252 1904.47,-252 1904.47,-240 1904.47,-240 1904.47,-234 1910.47,-228 1916.47,-228 1916.47,-228 2148.48,-228 2148.48,-228 2154.48,-228 2160.48,-234 2160.48,-240 2160.48,-240 2160.48,-252 2160.48,-252 2160.48,-258 2154.48,-264 2148.48,-264"/>
<text text-anchor="middle" x="2032.48" y="-243" font-family="Times,serif" font-size="10.00" fill="#000033">VinaiKopp\PostCodeFilter\Storage\WriteModel\RuleToAdd</text>
</g>
<!-- VinaiKopp\\PostCodeFilter\\AdminAddsRule&#45;&gt;VinaiKopp\\PostCodeFilter\\Storage\\WriteModel\\RuleToAdd -->
<g id="edge3" class="edge"><title>VinaiKopp\\PostCodeFilter\\AdminAddsRule&#45;&gt;VinaiKopp\\PostCodeFilter\\Storage\\WriteModel\\RuleToAdd</title>
<path fill="none" stroke="#999999" d="M1261.44,-207.905C1383.65,-205.958 1601.54,-204.935 1787.51,-217 1823.52,-219.336 1862.38,-223.296 1898.26,-227.55"/>
<polygon fill="#999999" stroke="#999999" points="1898.25,-229.664 1904.46,-228.292 1898.75,-225.494 1898.25,-229.664"/>
</g>
<!-- VinaiKopp\\PostCodeFilter\\Rule\\ExistingRule -->
<g id="node5" class="node"><title>VinaiKopp\\PostCodeFilter\\Rule\\ExistingRule</title>
<path fill="#9999cc" stroke="black" d="M1686.23,-202C1686.23,-202 1510.65,-202 1510.65,-202 1504.65,-202 1498.65,-196 1498.65,-190 1498.65,-190 1498.65,-178 1498.65,-178 1498.65,-172 1504.65,-166 1510.65,-166 1510.65,-166 1686.23,-166 1686.23,-166 1692.23,-166 1698.23,-172 1698.23,-178 1698.23,-178 1698.23,-190 1698.23,-190 1698.23,-196 1692.23,-202 1686.23,-202"/>
<text text-anchor="middle" x="1598.44" y="-181" font-family="Times,serif" font-size="10.00" fill="#000033">VinaiKopp\PostCodeFilter\Rule\ExistingRule</text>
</g>
<!-- VinaiKopp\\PostCodeFilter\\AdminAddsRule&#45;&gt;VinaiKopp\\PostCodeFilter\\Rule\\ExistingRule -->
<g id="edge4" class="edge"><title>VinaiKopp\\PostCodeFilter\\AdminAddsRule&#45;&gt;VinaiKopp\\PostCodeFilter\\Rule\\ExistingRule</title>
<path fill="none" stroke="#999999" d="M1261.53,-204.23C1329.89,-200.113 1421.81,-194.577 1492.21,-190.337"/>
<polygon fill="#999999" stroke="#999999" points="1492.66,-192.414 1498.52,-189.957 1492.41,-188.222 1492.66,-192.414"/>
</g>
<!-- VinaiKopp\\PostCodeFilter\\Exceptions\\RuleForGroupAndCountryAlreadyExistsException -->
<g id="node6" class="node"><title>VinaiKopp\\PostCodeFilter\\Exceptions\\RuleForGroupAndCountryAlreadyExistsException</title>
<path fill="#9999cc" stroke="black" d="M1775.58,-150C1775.58,-150 1421.29,-150 1421.29,-150 1415.29,-150 1409.29,-144 1409.29,-138 1409.29,-138 1409.29,-126 1409.29,-126 1409.29,-120 1415.29,-114 1421.29,-114 1421.29,-114 1775.58,-114 1775.58,-114 1781.58,-114 1787.58,-120 1787.58,-126 1787.58,-126 1787.58,-138 1787.58,-138 1787.58,-144 1781.58,-150 1775.58,-150"/>
<text text-anchor="middle" x="1598.44" y="-129" font-family="Times,serif" font-size="10.00" fill="#000033">VinaiKopp\PostCodeFilter\Exceptions\RuleForGroupAndCountryAlreadyExistsException</text>
</g>
<!-- VinaiKopp\\PostCodeFilter\\AdminAddsRule&#45;&gt;VinaiKopp\\PostCodeFilter\\Exceptions\\RuleForGroupAndCountryAlreadyExistsException -->
<g id="edge5" class="edge"><title>VinaiKopp\\PostCodeFilter\\AdminAddsRule&#45;&gt;VinaiKopp\\PostCodeFilter\\Exceptions\\RuleForGroupAndCountryAlreadyExistsException</title>
<path fill="none" stroke="#999999" d="M1238.94,-191.942C1287.14,-180.508 1351.74,-166.041 1409.37,-156 1419.46,-154.241 1429.89,-152.554 1440.41,-150.949"/>
<polygon fill="#999999" stroke="#999999" points="1440.99,-152.984 1446.61,-150.013 1440.37,-148.831 1440.99,-152.984"/>
</g>
<!-- VinaiKopp\\PostCodeFilter\\Storage\\ReadModel\\RuleSpecByCountryAndGroupIds -->
<g id="node7" class="node"><title>VinaiKopp\\PostCodeFilter\\Storage\\ReadModel\\RuleSpecByCountryAndGroupIds</title>
<path fill="#9999cc" stroke="black" d="M2193.41,-316C2193.41,-316 1871.54,-316 1871.54,-316 1865.54,-316 1859.54,-310 1859.54,-304 1859.54,-304 1859.54,-292 1859.54,-292 1859.54,-286 1865.54,-280 1871.54,-280 1871.54,-280 2193.41,-280 2193.41,-280 2199.41,-280 2205.41,-286 2205.41,-292 2205.41,-292 2205.41,-304 2205.41,-304 2205.41,-310 2199.41,-316 2193.41,-316"/>
<text text-anchor="middle" x="2032.48" y="-295" font-family="Times,serif" font-size="10.00" fill="#000033">VinaiKopp\PostCodeFilter\Storage\ReadModel\RuleSpecByCountryAndGroupIds</text>
</g>
<!-- VinaiKopp\\PostCodeFilter\\AdminAddsRule&#45;&gt;VinaiKopp\\PostCodeFilter\\Storage\\ReadModel\\RuleSpecByCountryAndGroupIds -->
<g id="edge6" class="edge"><title>VinaiKopp\\PostCodeFilter\\AdminAddsRule&#45;&gt;VinaiKopp\\PostCodeFilter\\Storage\\ReadModel\\RuleSpecByCountryAndGroupIds</title>
<path fill="none" stroke="#999999" d="M1261.49,-212.261C1410.13,-216.275 1689.49,-225.97 1787.51,-244 1820.55,-250.077 1826.91,-258.892 1859.51,-267 1876.7,-271.276 1895,-275.214 1913,-278.747"/>
<polygon fill="#999999" stroke="#999999" points="1912.8,-280.847 1919.09,-279.929 1913.6,-276.724 1912.8,-280.847"/>
</g>
<!-- VinaiKopp\\PostCodeFilter\\Storage\\WriteModel\\RuleWriter&#45;&gt;VinaiKopp\\PostCodeFilter\\Storage\\WriteModel\\RuleToAdd -->
<g id="edge78" class="edge"><title>VinaiKopp\\PostCodeFilter\\Storage\\WriteModel\\RuleWriter&#45;&gt;VinaiKopp\\PostCodeFilter\\Storage\\WriteModel\\RuleToAdd</title>
<path fill="none" stroke="#999999" d="M1725.56,-270.782C1779.87,-266.383 1843.41,-261.236 1898.46,-256.776"/>
<polygon fill="#999999" stroke="#999999" points="1898.64,-258.869 1904.45,-256.291 1898.3,-254.682 1898.64,-258.869"/>
</g>
<!-- VinaiKopp\\PostCodeFilter\\Storage\\WriteModel\\RuleToDelete -->
<g id="node9" class="node"><title>VinaiKopp\\PostCodeFilter\\Storage\\WriteModel\\RuleToDelete</title>
<path fill="#9999cc" stroke="black" d="M2153.35,-359C2153.35,-359 1911.6,-359 1911.6,-359 1905.6,-359 1899.6,-353 1899.6,-347 1899.6,-347 1899.6,-335 1899.6,-335 1899.6,-329 1905.6,-323 1911.6,-323 1911.6,-323 2153.35,-323 2153.35,-323 2159.35,-323 2165.35,-329 2165.35,-335 2165.35,-335 2165.35,-347 2165.35,-347 2165.35,-353 2159.35,-359 2153.35,-359"/>
<text text-anchor="middle" x="2032.48" y="-338" font-family="Times,serif" font-size="10.00" fill="#000033">VinaiKopp\PostCodeFilter\Storage\WriteModel\RuleToDelete</text>
</g>
<!-- VinaiKopp\\PostCodeFilter\\Storage\\WriteModel\\RuleWriter&#45;&gt;VinaiKopp\\PostCodeFilter\\Storage\\WriteModel\\RuleToDelete -->
<g id="edge79" class="edge"><title>VinaiKopp\\PostCodeFilter\\Storage\\WriteModel\\RuleWriter&#45;&gt;VinaiKopp\\PostCodeFilter\\Storage\\WriteModel\\RuleToDelete</title>
<path fill="none" stroke="#999999" d="M1725.55,-295.943C1746.29,-298.73 1767.52,-301.785 1787.51,-305 1819.7,-310.177 1827.32,-313.818 1859.51,-319 1870.52,-320.772 1881.94,-322.492 1893.43,-324.138"/>
<polygon fill="#999999" stroke="#999999" points="1893.2,-326.227 1899.44,-324.992 1893.79,-322.069 1893.2,-326.227"/>
</g>
<!-- VinaiKopp\\PostCodeFilter\\Storage\\ReadModel\\RuleReader&#45;&gt;VinaiKopp\\PostCodeFilter\\Storage\\ReadModel\\RuleSpecByCountryAndGroupIds -->
<g id="edge52" class="edge"><title>VinaiKopp\\PostCodeFilter\\Storage\\ReadModel\\RuleReader&#45;&gt;VinaiKopp\\PostCodeFilter\\Storage\\ReadModel\\RuleSpecByCountryAndGroupIds</title>
<path fill="none" stroke="#999999" d="M1726.4,-465.193C1748.02,-461.032 1769.33,-453.837 1787.51,-442 1840.28,-407.652 1806.93,-354.632 1859.51,-320 1859.76,-319.834 1860.01,-319.67 1860.27,-319.506"/>
<polygon fill="#999999" stroke="#999999" points="1861.64,-321.128 1865.66,-316.208 1859.45,-317.544 1861.64,-321.128"/>
</g>
<!-- VinaiKopp\\PostCodeFilter\\Rule\\Rule -->
<g id="node13" class="node"><title>VinaiKopp\\PostCodeFilter\\Rule\\Rule</title>
<path fill="#9999cc" stroke="black" d="M2103.43,-420C2103.43,-420 1961.52,-420 1961.52,-420 1955.52,-420 1949.52,-414 1949.52,-408 1949.52,-408 1949.52,-396 1949.52,-396 1949.52,-390 1955.52,-384 1961.52,-384 1961.52,-384 2103.43,-384 2103.43,-384 2109.43,-384 2115.43,-390 2115.43,-396 2115.43,-396 2115.43,-408 2115.43,-408 2115.43,-414 2109.43,-420 2103.43,-420"/>
<text text-anchor="middle" x="2032.48" y="-399" font-family="Times,serif" font-size="10.00" fill="#000033">VinaiKopp\PostCodeFilter\Rule\Rule</text>
</g>
<!-- VinaiKopp\\PostCodeFilter\\Storage\\ReadModel\\RuleReader&#45;&gt;VinaiKopp\\PostCodeFilter\\Rule\\Rule -->
<g id="edge51" class="edge"><title>VinaiKopp\\PostCodeFilter\\Storage\\ReadModel\\RuleReader&#45;&gt;VinaiKopp\\PostCodeFilter\\Rule\\Rule</title>
<path fill="none" stroke="#999999" d="M1726.25,-449.974C1746.75,-447.474 1767.73,-444.777 1787.51,-442 1839.27,-434.733 1897,-425.328 1943.3,-417.464"/>
<polygon fill="#999999" stroke="#999999" points="1943.9,-419.491 1949.46,-416.414 1943.19,-415.351 1943.9,-419.491"/>
</g>
<!-- VinaiKopp\\PostCodeFilter\\Storage\\ReadModel\\RuleSpecByCountryAndGroupId -->
<g id="node19" class="node"><title>VinaiKopp\\PostCodeFilter\\Storage\\ReadModel\\RuleSpecByCountryAndGroupId</title>
<path fill="#9999cc" stroke="black" d="M2191.52,-605C2191.52,-605 1873.44,-605 1873.44,-605 1867.44,-605 1861.44,-599 1861.44,-593 1861.44,-593 1861.44,-581 1861.44,-581 1861.44,-575 1867.44,-569 1873.44,-569 1873.44,-569 2191.52,-569 2191.52,-569 2197.52,-569 2203.52,-575 2203.52,-581 2203.52,-581 2203.52,-593 2203.52,-593 2203.52,-599 2197.52,-605 2191.52,-605"/>
<text text-anchor="middle" x="2032.48" y="-584" font-family="Times,serif" font-size="10.00" fill="#000033">VinaiKopp\PostCodeFilter\Storage\ReadModel\RuleSpecByCountryAndGroupId</text>
</g>
<!-- VinaiKopp\\PostCodeFilter\\Storage\\ReadModel\\RuleReader&#45;&gt;VinaiKopp\\PostCodeFilter\\Storage\\ReadModel\\RuleSpecByCountryAndGroupId -->
<g id="edge50" class="edge"><title>VinaiKopp\\PostCodeFilter\\Storage\\ReadModel\\RuleReader&#45;&gt;VinaiKopp\\PostCodeFilter\\Storage\\ReadModel\\RuleSpecByCountryAndGroupId</title>
<path fill="none" stroke="#999999" d="M1662.72,-482.017C1742.6,-504.759 1879.53,-543.743 1962.17,-567.268"/>
<polygon fill="#999999" stroke="#999999" points="1961.68,-569.312 1968.02,-568.935 1962.83,-565.272 1961.68,-569.312"/>
</g>
<!-- VinaiKopp\\PostCodeFilter\\Rule\\Components\\Country -->
<g id="node16" class="node"><title>VinaiKopp\\PostCodeFilter\\Rule\\Components\\Country</title>
<path fill="#9999cc" stroke="black" d="M2526.49,-420C2526.49,-420 2317.12,-420 2317.12,-420 2311.12,-420 2305.12,-414 2305.12,-408 2305.12,-408 2305.12,-396 2305.12,-396 2305.12,-390 2311.12,-384 2317.12,-384 2317.12,-384 2526.49,-384 2526.49,-384 2532.49,-384 2538.49,-390 2538.49,-396 2538.49,-396 2538.49,-408 2538.49,-408 2538.49,-414 2532.49,-420 2526.49,-420"/>
<text text-anchor="middle" x="2421.81" y="-399" font-family="Times,serif" font-size="10.00" fill="#000033">VinaiKopp\PostCodeFilter\Rule\Components\Country</text>
</g>
<!-- VinaiKopp\\PostCodeFilter\\Storage\\WriteModel\\RuleToAdd&#45;&gt;VinaiKopp\\PostCodeFilter\\Rule\\Components\\Country -->
<g id="edge75" class="edge"><title>VinaiKopp\\PostCodeFilter\\Storage\\WriteModel\\RuleToAdd&#45;&gt;VinaiKopp\\PostCodeFilter\\Rule\\Components\\Country</title>
<path fill="none" stroke="#999999" d="M2160.48,-251.086C2176.38,-255.292 2191.82,-261.366 2205.44,-270 2254.79,-301.282 2228.3,-348.383 2277.44,-380 2284.19,-384.343 2291.48,-387.946 2299.08,-390.925"/>
<polygon fill="#999999" stroke="#999999" points="2298.58,-392.981 2304.94,-393.084 2300.03,-389.04 2298.58,-392.981"/>
</g>
<!-- VinaiKopp\\PostCodeFilter\\Rule\\Components\\CustomerGroupIdList -->
<g id="node17" class="node"><title>VinaiKopp\\PostCodeFilter\\Rule\\Components\\CustomerGroupIdList</title>
<path fill="#9999cc" stroke="black" d="M2554.04,-334C2554.04,-334 2289.58,-334 2289.58,-334 2283.58,-334 2277.58,-328 2277.58,-322 2277.58,-322 2277.58,-310 2277.58,-310 2277.58,-304 2283.58,-298 2289.58,-298 2289.58,-298 2554.04,-298 2554.04,-298 2560.04,-298 2566.04,-304 2566.04,-310 2566.04,-310 2566.04,-322 2566.04,-322 2566.04,-328 2560.04,-334 2554.04,-334"/>
<text text-anchor="middle" x="2421.81" y="-313" font-family="Times,serif" font-size="10.00" fill="#000033">VinaiKopp\PostCodeFilter\Rule\Components\CustomerGroupIdList</text>
</g>
<!-- VinaiKopp\\PostCodeFilter\\Storage\\WriteModel\\RuleToAdd&#45;&gt;VinaiKopp\\PostCodeFilter\\Rule\\Components\\CustomerGroupIdList -->
<g id="edge73" class="edge"><title>VinaiKopp\\PostCodeFilter\\Storage\\WriteModel\\RuleToAdd&#45;&gt;VinaiKopp\\PostCodeFilter\\Rule\\Components\\CustomerGroupIdList</title>
<path fill="none" stroke="#999999" d="M2160.89,-262.738C2175.93,-265.023 2191.04,-267.461 2205.44,-270 2248.95,-277.673 2297.07,-287.793 2336.77,-296.587"/>
<polygon fill="#999999" stroke="#999999" points="2336.75,-298.734 2343.06,-297.986 2337.66,-294.634 2336.75,-298.734"/>
</g>
<!-- VinaiKopp\\PostCodeFilter\\Rule\\Components\\PostCodeList -->
<g id="node26" class="node"><title>VinaiKopp\\PostCodeFilter\\Rule\\Components\\PostCodeList</title>
<path fill="#9999cc" stroke="black" d="M2537.11,-377C2537.11,-377 2306.51,-377 2306.51,-377 2300.51,-377 2294.51,-371 2294.51,-365 2294.51,-365 2294.51,-353 2294.51,-353 2294.51,-347 2300.51,-341 2306.51,-341 2306.51,-341 2537.11,-341 2537.11,-341 2543.11,-341 2549.11,-347 2549.11,-353 2549.11,-353 2549.11,-365 2549.11,-365 2549.11,-371 2543.11,-377 2537.11,-377"/>
<text text-anchor="middle" x="2421.81" y="-356" font-family="Times,serif" font-size="10.00" fill="#000033">VinaiKopp\PostCodeFilter\Rule\Components\PostCodeList</text>
</g>
<!-- VinaiKopp\\PostCodeFilter\\Storage\\WriteModel\\RuleToAdd&#45;&gt;VinaiKopp\\PostCodeFilter\\Rule\\Components\\PostCodeList -->
<g id="edge74" class="edge"><title>VinaiKopp\\PostCodeFilter\\Storage\\WriteModel\\RuleToAdd&#45;&gt;VinaiKopp\\PostCodeFilter\\Rule\\Components\\PostCodeList</title>
<path fill="none" stroke="#999999" d="M2160.53,-254.709C2176.08,-258.373 2191.42,-263.331 2205.44,-270 2244.91,-288.779 2238.1,-317.953 2277.44,-337 2281.1,-338.769 2284.86,-340.403 2288.7,-341.911"/>
<polygon fill="#999999" stroke="#999999" points="2288.03,-343.902 2294.39,-344.032 2289.5,-339.967 2288.03,-343.902"/>
</g>
<!-- VinaiKopp\\PostCodeFilter\\Rule\\ExistingRule&#45;&gt;VinaiKopp\\PostCodeFilter\\Rule\\Rule -->
<g id="edge37" class="edge"><title>VinaiKopp\\PostCodeFilter\\Rule\\ExistingRule&#45;&gt;VinaiKopp\\PostCodeFilter\\Rule\\Rule</title>
<path fill="none" stroke="#999999" stroke-dasharray="5,2" d="M1672,-202.097C1709.25,-213.934 1753.76,-232.257 1787.51,-259 1831.29,-293.688 1813.24,-330.711 1859.51,-362 1884.04,-378.592 1914.56,-388.358 1943.04,-394.086"/>
<polygon fill="#999999" stroke="#999999" points="1942.8,-396.178 1949.08,-395.248 1943.59,-392.053 1942.8,-396.178"/>
</g>
<!-- VinaiKopp\\PostCodeFilter\\Rule\\ExistingRule&#45;&gt;VinaiKopp\\PostCodeFilter\\Rule\\Components\\Country -->
<g id="edge39" class="edge"><title>VinaiKopp\\PostCodeFilter\\Rule\\ExistingRule&#45;&gt;VinaiKopp\\PostCodeFilter\\Rule\\Components\\Country</title>
<path fill="none" stroke="#999999" d="M1698.32,-195.816C1758.27,-202.825 1828.93,-210.768 1859.51,-213 1878.69,-214.4 2189.41,-214.376 2205.44,-225 2268.76,-266.964 2216.7,-334.388 2277.44,-380 2284.1,-385 2291.43,-389.076 2299.15,-392.383"/>
<polygon fill="#999999" stroke="#999999" points="2298.77,-394.492 2305.12,-394.764 2300.33,-390.591 2298.77,-394.492"/>
</g>
<!-- VinaiKopp\\PostCodeFilter\\Rule\\ExistingRule&#45;&gt;VinaiKopp\\PostCodeFilter\\Rule\\Components\\CustomerGroupIdList -->
<g id="edge40" class="edge"><title>VinaiKopp\\PostCodeFilter\\Rule\\ExistingRule&#45;&gt;VinaiKopp\\PostCodeFilter\\Rule\\Components\\CustomerGroupIdList</title>
<path fill="none" stroke="#999999" d="M1698.23,-188.221C1746.81,-190.286 1806.23,-192.795 1859.51,-195 1936.38,-198.181 2130.91,-189.908 2205.44,-209 2274.73,-226.749 2347.72,-268.657 2388.44,-294.444"/>
<polygon fill="#999999" stroke="#999999" points="2387.54,-296.359 2393.72,-297.816 2389.8,-292.819 2387.54,-296.359"/>
</g>
<!-- VinaiKopp\\PostCodeFilter\\Rule\\Components\\CustomerGroupId -->
<g id="node20" class="node"><title>VinaiKopp\\PostCodeFilter\\Rule\\Components\\CustomerGroupId</title>
<path fill="#9999cc" stroke="black" d="M2899.97,-535C2899.97,-535 2650.63,-535 2650.63,-535 2644.63,-535 2638.63,-529 2638.63,-523 2638.63,-523 2638.63,-511 2638.63,-511 2638.63,-505 2644.63,-499 2650.63,-499 2650.63,-499 2899.97,-499 2899.97,-499 2905.97,-499 2911.97,-505 2911.97,-511 2911.97,-511 2911.97,-523 2911.97,-523 2911.97,-529 2905.97,-535 2899.97,-535"/>
<text text-anchor="middle" x="2775.3" y="-514" font-family="Times,serif" font-size="10.00" fill="#000033">VinaiKopp\PostCodeFilter\Rule\Components\CustomerGroupId</text>
</g>
<!-- VinaiKopp\\PostCodeFilter\\Rule\\ExistingRule&#45;&gt;VinaiKopp\\PostCodeFilter\\Rule\\Components\\CustomerGroupId -->
<g id="edge38" class="edge"><title>VinaiKopp\\PostCodeFilter\\Rule\\ExistingRule&#45;&gt;VinaiKopp\\PostCodeFilter\\Rule\\Components\\CustomerGroupId</title>
<path fill="none" stroke="#999999" d="M1698.16,-179.149C1818.59,-174.869 2028.07,-172.715 2205.44,-198 2369.69,-221.413 2435.2,-192.162 2566.17,-294 2618,-334.304 2594.01,-374.414 2638.17,-423 2665.72,-453.311 2704.83,-479.024 2734.06,-495.855"/>
<polygon fill="#999999" stroke="#999999" points="2733.15,-497.75 2739.4,-498.893 2735.23,-494.1 2733.15,-497.75"/>
</g>
<!-- VinaiKopp\\PostCodeFilter\\Rule\\Components\\PostCode -->
<g id="node25" class="node"><title>VinaiKopp\\PostCodeFilter\\Rule\\Components\\PostCode</title>
<path fill="#9999cc" stroke="black" d="M2882.55,-290C2882.55,-290 2668.06,-290 2668.06,-290 2662.06,-290 2656.06,-284 2656.06,-278 2656.06,-278 2656.06,-266 2656.06,-266 2656.06,-260 2662.06,-254 2668.06,-254 2668.06,-254 2882.55,-254 2882.55,-254 2888.55,-254 2894.55,-260 2894.55,-266 2894.55,-266 2894.55,-278 2894.55,-278 2894.55,-284 2888.55,-290 2882.55,-290"/>
<text text-anchor="middle" x="2775.3" y="-269" font-family="Times,serif" font-size="10.00" fill="#000033">VinaiKopp\PostCodeFilter\Rule\Components\PostCode</text>
</g>
<!-- VinaiKopp\\PostCodeFilter\\Rule\\ExistingRule&#45;&gt;VinaiKopp\\PostCodeFilter\\Rule\\Components\\PostCode -->
<g id="edge42" class="edge"><title>VinaiKopp\\PostCodeFilter\\Rule\\ExistingRule&#45;&gt;VinaiKopp\\PostCodeFilter\\Rule\\Components\\PostCode</title>
<path fill="none" stroke="#999999" d="M1698.36,-173.029C1874.66,-156.056 2254,-131.224 2566.17,-191 2626.91,-202.631 2692.76,-231.211 2733.77,-251.106"/>
<polygon fill="#999999" stroke="#999999" points="2733.07,-253.104 2739.39,-253.853 2734.92,-249.331 2733.07,-253.104"/>
</g>
<!-- VinaiKopp\\PostCodeFilter\\Rule\\ExistingRule&#45;&gt;VinaiKopp\\PostCodeFilter\\Rule\\Components\\PostCodeList -->
<g id="edge41" class="edge"><title>VinaiKopp\\PostCodeFilter\\Rule\\ExistingRule&#45;&gt;VinaiKopp\\PostCodeFilter\\Rule\\Components\\PostCodeList</title>
<path fill="none" stroke="#999999" d="M1698.18,-192.441C1746.74,-196.377 1806.17,-200.87 1859.51,-204 1897.91,-206.253 2172.32,-198.435 2205.44,-218 2258.67,-249.44 2226.06,-302.635 2277.44,-337 2281.11,-339.454 2284.95,-341.675 2288.92,-343.684"/>
<polygon fill="#999999" stroke="#999999" points="2288.09,-345.613 2294.41,-346.293 2289.89,-341.82 2288.09,-345.613"/>
</g>
<!-- VinaiKopp\\PostCodeFilter\\Storage\\ReadModel\\RuleSpecByCountryAndGroupIds&#45;&gt;VinaiKopp\\PostCodeFilter\\Rule\\Components\\Country -->
<g id="edge55" class="edge"><title>VinaiKopp\\PostCodeFilter\\Storage\\ReadModel\\RuleSpecByCountryAndGroupIds&#45;&gt;VinaiKopp\\PostCodeFilter\\Rule\\Components\\Country</title>
<path fill="none" stroke="#999999" d="M2195.75,-316.087C2199.03,-317.314 2202.27,-318.617 2205.44,-320 2243.63,-336.642 2239.47,-362.882 2277.44,-380 2284.39,-383.134 2291.71,-385.834 2299.2,-388.159"/>
<polygon fill="#999999" stroke="#999999" points="2298.61,-390.175 2304.96,-389.865 2299.8,-386.148 2298.61,-390.175"/>
</g>
<!-- VinaiKopp\\PostCodeFilter\\Storage\\ReadModel\\RuleSpecByCountryAndGroupIds&#45;&gt;VinaiKopp\\PostCodeFilter\\Rule\\Components\\CustomerGroupIdList -->
<g id="edge56" class="edge"><title>VinaiKopp\\PostCodeFilter\\Storage\\ReadModel\\RuleSpecByCountryAndGroupIds&#45;&gt;VinaiKopp\\PostCodeFilter\\Rule\\Components\\CustomerGroupIdList</title>
<path fill="none" stroke="#999999" d="M2205.62,-306C2227.5,-307.017 2249.76,-308.051 2271.25,-309.05"/>
<polygon fill="#999999" stroke="#999999" points="2271.2,-311.15 2277.29,-309.331 2271.4,-306.954 2271.2,-311.15"/>
</g>
<!-- VinaiKopp\\PostCodeFilter\\AdminDeletesRule -->
<g id="node8" class="node"><title>VinaiKopp\\PostCodeFilter\\AdminDeletesRule</title>
<path fill="#9999cc" stroke="black" d="M1253.78,-395C1253.78,-395 1075.67,-395 1075.67,-395 1069.67,-395 1063.67,-389 1063.67,-383 1063.67,-383 1063.67,-371 1063.67,-371 1063.67,-365 1069.67,-359 1075.67,-359 1075.67,-359 1253.78,-359 1253.78,-359 1259.78,-359 1265.78,-365 1265.78,-371 1265.78,-371 1265.78,-383 1265.78,-383 1265.78,-389 1259.78,-395 1253.78,-395"/>
<text text-anchor="middle" x="1164.72" y="-374" font-family="Times,serif" font-size="10.00" fill="#000033">VinaiKopp\PostCodeFilter\AdminDeletesRule</text>
</g>
<!-- VinaiKopp\\PostCodeFilter\\AdminDeletesRule&#45;&gt;VinaiKopp\\PostCodeFilter\\Storage\\WriteModel\\RuleWriter -->
<g id="edge7" class="edge"><title>VinaiKopp\\PostCodeFilter\\AdminDeletesRule&#45;&gt;VinaiKopp\\PostCodeFilter\\Storage\\WriteModel\\RuleWriter</title>
<path fill="none" stroke="#999999" d="M1246.67,-358.999C1321.74,-342.305 1433.16,-317.53 1510.19,-300.402"/>
<polygon fill="#999999" stroke="#999999" points="1510.73,-302.431 1516.14,-299.079 1509.82,-298.331 1510.73,-302.431"/>
</g>
<!-- VinaiKopp\\PostCodeFilter\\AdminDeletesRule&#45;&gt;VinaiKopp\\PostCodeFilter\\Storage\\ReadModel\\RuleReader -->
<g id="edge8" class="edge"><title>VinaiKopp\\PostCodeFilter\\AdminDeletesRule&#45;&gt;VinaiKopp\\PostCodeFilter\\Storage\\ReadModel\\RuleReader</title>
<path fill="none" stroke="#999999" d="M1223.76,-395.018C1272.78,-409.624 1345.08,-429.731 1409.37,-442 1427.06,-445.377 1445.8,-448.317 1464.33,-450.851"/>
<polygon fill="#999999" stroke="#999999" points="1464.37,-452.976 1470.6,-451.696 1464.93,-448.814 1464.37,-452.976"/>
</g>
<!-- VinaiKopp\\PostCodeFilter\\AdminDeletesRule&#45;&gt;VinaiKopp\\PostCodeFilter\\Storage\\ReadModel\\RuleSpecByCountryAndGroupIds -->
<g id="edge10" class="edge"><title>VinaiKopp\\PostCodeFilter\\AdminDeletesRule&#45;&gt;VinaiKopp\\PostCodeFilter\\Storage\\ReadModel\\RuleSpecByCountryAndGroupIds</title>
<path fill="none" stroke="#999999" d="M1265.78,-379.518C1429.05,-383.13 1739.49,-387.741 1787.51,-372 1825.02,-359.704 1822.8,-334.508 1859.51,-320 1861.15,-319.352 1862.81,-318.722 1864.47,-318.109"/>
<polygon fill="#999999" stroke="#999999" points="1865.23,-320.068 1870.2,-316.095 1863.84,-316.106 1865.23,-320.068"/>
</g>
<!-- VinaiKopp\\PostCodeFilter\\AdminDeletesRule&#45;&gt;VinaiKopp\\PostCodeFilter\\Storage\\WriteModel\\RuleToDelete -->
<g id="edge9" class="edge"><title>VinaiKopp\\PostCodeFilter\\AdminDeletesRule&#45;&gt;VinaiKopp\\PostCodeFilter\\Storage\\WriteModel\\RuleToDelete</title>
<path fill="none" stroke="#999999" d="M1265.89,-378.007C1309.9,-378.402 1362.2,-378.806 1409.37,-379 1577.43,-379.69 1620.22,-395.113 1787.51,-379 1819.96,-375.874 1827.36,-370.366 1859.51,-365 1870.52,-363.162 1881.95,-361.353 1893.44,-359.604"/>
<polygon fill="#999999" stroke="#999999" points="1893.84,-361.668 1899.45,-358.695 1893.21,-357.516 1893.84,-361.668"/>
</g>
<!-- VinaiKopp\\PostCodeFilter\\Rule\\NonexistentRule -->
<g id="node10" class="node"><title>VinaiKopp\\PostCodeFilter\\Rule\\NonexistentRule</title>
<path fill="#9999cc" stroke="black" d="M1693.72,-439C1693.72,-439 1503.16,-439 1503.16,-439 1497.16,-439 1491.16,-433 1491.16,-427 1491.16,-427 1491.16,-415 1491.16,-415 1491.16,-409 1497.16,-403 1503.16,-403 1503.16,-403 1693.72,-403 1693.72,-403 1699.72,-403 1705.72,-409 1705.72,-415 1705.72,-415 1705.72,-427 1705.72,-427 1705.72,-433 1699.72,-439 1693.72,-439"/>
<text text-anchor="middle" x="1598.44" y="-418" font-family="Times,serif" font-size="10.00" fill="#000033">VinaiKopp\PostCodeFilter\Rule\NonexistentRule</text>
</g>
<!-- VinaiKopp\\PostCodeFilter\\AdminDeletesRule&#45;&gt;VinaiKopp\\PostCodeFilter\\Rule\\NonexistentRule -->
<g id="edge11" class="edge"><title>VinaiKopp\\PostCodeFilter\\AdminDeletesRule&#45;&gt;VinaiKopp\\PostCodeFilter\\Rule\\NonexistentRule</title>
<path fill="none" stroke="#999999" d="M1265.85,-387.205C1331.38,-393.883 1417.1,-402.62 1484.97,-409.538"/>
<polygon fill="#999999" stroke="#999999" points="1484.89,-411.64 1491.07,-410.159 1485.31,-407.461 1484.89,-411.64"/>
</g>
<!-- VinaiKopp\\PostCodeFilter\\Exceptions\\RuleDoesNotExistException -->
<g id="node11" class="node"><title>VinaiKopp\\PostCodeFilter\\Exceptions\\RuleDoesNotExistException</title>
<path fill="#9999cc" stroke="black" d="M1730.59,-369C1730.59,-369 1466.28,-369 1466.28,-369 1460.28,-369 1454.28,-363 1454.28,-357 1454.28,-357 1454.28,-345 1454.28,-345 1454.28,-339 1460.28,-333 1466.28,-333 1466.28,-333 1730.59,-333 1730.59,-333 1736.59,-333 1742.59,-339 1742.59,-345 1742.59,-345 1742.59,-357 1742.59,-357 1742.59,-363 1736.59,-369 1730.59,-369"/>
<text text-anchor="middle" x="1598.44" y="-348" font-family="Times,serif" font-size="10.00" fill="#000033">VinaiKopp\PostCodeFilter\Exceptions\RuleDoesNotExistException</text>
</g>
<!-- VinaiKopp\\PostCodeFilter\\AdminDeletesRule&#45;&gt;VinaiKopp\\PostCodeFilter\\Exceptions\\RuleDoesNotExistException -->
<g id="edge12" class="edge"><title>VinaiKopp\\PostCodeFilter\\AdminDeletesRule&#45;&gt;VinaiKopp\\PostCodeFilter\\Exceptions\\RuleDoesNotExistException</title>
<path fill="none" stroke="#999999" d="M1265.85,-370.97C1319.91,-367.714 1387.73,-363.63 1447.92,-360.005"/>
<polygon fill="#999999" stroke="#999999" points="1448.23,-362.09 1454.09,-359.633 1447.98,-357.897 1448.23,-362.09"/>
</g>
<!-- VinaiKopp\\PostCodeFilter\\Storage\\WriteModel\\RuleToDelete&#45;&gt;VinaiKopp\\PostCodeFilter\\Rule\\Components\\Country -->
<g id="edge77" class="edge"><title>VinaiKopp\\PostCodeFilter\\Storage\\WriteModel\\RuleToDelete&#45;&gt;VinaiKopp\\PostCodeFilter\\Rule\\Components\\Country</title>
<path fill="none" stroke="#999999" d="M2145.19,-359.009C2186.71,-365.662 2234.22,-373.229 2277.44,-380 2284.44,-381.096 2291.63,-382.217 2298.88,-383.344"/>
<polygon fill="#999999" stroke="#999999" points="2298.74,-385.447 2304.99,-384.291 2299.38,-381.296 2298.74,-385.447"/>
</g>
<!-- VinaiKopp\\PostCodeFilter\\Storage\\WriteModel\\RuleToDelete&#45;&gt;VinaiKopp\\PostCodeFilter\\Rule\\Components\\CustomerGroupIdList -->
<g id="edge76" class="edge"><title>VinaiKopp\\PostCodeFilter\\Storage\\WriteModel\\RuleToDelete&#45;&gt;VinaiKopp\\PostCodeFilter\\Rule\\Components\\CustomerGroupIdList</title>
<path fill="none" stroke="#999999" d="M2165.42,-332.484C2199.51,-330.283 2236.45,-327.899 2271.37,-325.645"/>
<polygon fill="#999999" stroke="#999999" points="2271.55,-327.738 2277.41,-325.256 2271.28,-323.547 2271.55,-327.738"/>
</g>
<!-- VinaiKopp\\PostCodeFilter\\Rule\\NonexistentRule&#45;&gt;VinaiKopp\\PostCodeFilter\\Rule\\Rule -->
<g id="edge43" class="edge"><title>VinaiKopp\\PostCodeFilter\\Rule\\NonexistentRule&#45;&gt;VinaiKopp\\PostCodeFilter\\Rule\\Rule</title>
<path fill="none" stroke="#999999" stroke-dasharray="5,2" d="M1705.68,-416.328C1778.68,-413.117 1874.46,-408.905 1943.25,-405.88"/>
<polygon fill="#999999" stroke="#999999" points="1943.5,-407.971 1949.4,-405.609 1943.32,-403.775 1943.5,-407.971"/>
</g>
<!-- VinaiKopp\\PostCodeFilter\\Rule\\NonexistentRule&#45;&gt;VinaiKopp\\PostCodeFilter\\Rule\\Components\\Country -->
<g id="edge44" class="edge"><title>VinaiKopp\\PostCodeFilter\\Rule\\NonexistentRule&#45;&gt;VinaiKopp\\PostCodeFilter\\Rule\\Components\\Country</title>
<path fill="none" stroke="#999999" d="M1705.7,-424.683C1826.76,-428.105 2030.47,-431.51 2205.44,-423 2235.78,-421.524 2268.44,-418.886 2298.93,-415.966"/>
<polygon fill="#999999" stroke="#999999" points="2299.23,-418.047 2305,-415.379 2298.82,-413.867 2299.23,-418.047"/>
</g>
<!-- VinaiKopp\\PostCodeFilter\\Rule\\NonexistentRule&#45;&gt;VinaiKopp\\PostCodeFilter\\Rule\\Components\\CustomerGroupIdList -->
<g id="edge45" class="edge"><title>VinaiKopp\\PostCodeFilter\\Rule\\NonexistentRule&#45;&gt;VinaiKopp\\PostCodeFilter\\Rule\\Components\\CustomerGroupIdList</title>
<path fill="none" stroke="#999999" d="M1693.3,-402.957C1764.3,-389.367 1851,-372.919 1859.51,-372 1935.97,-363.744 2129.71,-375.415 2205.44,-362 2238.66,-356.116 2244.65,-345.92 2277.44,-338 2281.22,-337.088 2285.06,-336.206 2288.94,-335.354"/>
<polygon fill="#999999" stroke="#999999" points="2289.65,-337.35 2295.08,-334.04 2288.77,-333.243 2289.65,-337.35"/>
</g>
<!-- VinaiKopp\\PostCodeFilter\\Rule\\NonexistentRule&#45;&gt;VinaiKopp\\PostCodeFilter\\Rule\\Components\\PostCodeList -->
<g id="edge46" class="edge"><title>VinaiKopp\\PostCodeFilter\\Rule\\NonexistentRule&#45;&gt;VinaiKopp\\PostCodeFilter\\Rule\\Components\\PostCodeList</title>
<path fill="none" stroke="#999999" d="M1698.51,-402.952C1746.9,-394.857 1806.07,-386.019 1859.51,-381 2012.68,-366.615 2051.73,-375.235 2205.44,-369 2232.21,-367.914 2260.85,-366.654 2288.22,-365.401"/>
<polygon fill="#999999" stroke="#999999" points="2288.51,-367.49 2294.41,-365.117 2288.32,-363.294 2288.51,-367.49"/>
</g>
<!-- VinaiKopp\\PostCodeFilter\\AdminUpdatesRule -->
<g id="node12" class="node"><title>VinaiKopp\\PostCodeFilter\\AdminUpdatesRule</title>
<path fill="#9999cc" stroke="black" d="M1255.06,-334C1255.06,-334 1074.38,-334 1074.38,-334 1068.38,-334 1062.38,-328 1062.38,-322 1062.38,-322 1062.38,-310 1062.38,-310 1062.38,-304 1068.38,-298 1074.38,-298 1074.38,-298 1255.06,-298 1255.06,-298 1261.06,-298 1267.06,-304 1267.06,-310 1267.06,-310 1267.06,-322 1267.06,-322 1267.06,-328 1261.06,-334 1255.06,-334"/>
<text text-anchor="middle" x="1164.72" y="-313" font-family="Times,serif" font-size="10.00" fill="#000033">VinaiKopp\PostCodeFilter\AdminUpdatesRule</text>
</g>
<!-- VinaiKopp\\PostCodeFilter\\AdminUpdatesRule&#45;&gt;VinaiKopp\\PostCodeFilter\\Storage\\WriteModel\\RuleWriter -->
<g id="edge13" class="edge"><title>VinaiKopp\\PostCodeFilter\\AdminUpdatesRule&#45;&gt;VinaiKopp\\PostCodeFilter\\Storage\\WriteModel\\RuleWriter</title>
<path fill="none" stroke="#999999" d="M1267.21,-307.772C1326.25,-302.986 1401.34,-296.898 1464.99,-291.738"/>
<polygon fill="#999999" stroke="#999999" points="1465.3,-293.819 1471.11,-291.241 1464.96,-289.633 1465.3,-293.819"/>
</g>
<!-- VinaiKopp\\PostCodeFilter\\AdminUpdatesRule&#45;&gt;VinaiKopp\\PostCodeFilter\\Storage\\ReadModel\\RuleReader -->
<g id="edge14" class="edge"><title>VinaiKopp\\PostCodeFilter\\AdminUpdatesRule&#45;&gt;VinaiKopp\\PostCodeFilter\\Storage\\ReadModel\\RuleReader</title>
<path fill="none" stroke="#999999" d="M1267.11,-327.35C1291.56,-333.141 1316.75,-341.866 1338.02,-355 1380.57,-381.277 1365.49,-418.017 1409.37,-442 1426.23,-451.216 1445.19,-457.37 1464.43,-461.38"/>
<polygon fill="#999999" stroke="#999999" points="1464.11,-463.458 1470.4,-462.557 1464.92,-459.337 1464.11,-463.458"/>
</g>
<!-- VinaiKopp\\PostCodeFilter\\AdminUpdatesRule&#45;&gt;VinaiKopp\\PostCodeFilter\\Storage\\WriteModel\\RuleToAdd -->
<g id="edge16" class="edge"><title>VinaiKopp\\PostCodeFilter\\AdminUpdatesRule&#45;&gt;VinaiKopp\\PostCodeFilter\\Storage\\WriteModel\\RuleToAdd</title>
<path fill="none" stroke="#999999" d="M1243.11,-297.957C1272.86,-290.805 1307.1,-282.315 1338.02,-274 1369.94,-265.417 1376.68,-257.899 1409.37,-253 1576.39,-227.97 1771.46,-230.905 1898.01,-236.981"/>
<polygon fill="#999999" stroke="#999999" points="1898.27,-239.095 1904.36,-237.291 1898.47,-234.9 1898.27,-239.095"/>
</g>
<!-- VinaiKopp\\PostCodeFilter\\AdminUpdatesRule&#45;&gt;VinaiKopp\\PostCodeFilter\\Storage\\ReadModel\\RuleSpecByCountryAndGroupIds -->
<g id="edge19" class="edge"><title>VinaiKopp\\PostCodeFilter\\AdminUpdatesRule&#45;&gt;VinaiKopp\\PostCodeFilter\\Storage\\ReadModel\\RuleSpecByCountryAndGroupIds</title>
<path fill="none" stroke="#999999" d="M1240.2,-297.989C1305.47,-282.351 1392.52,-261.911 1409.37,-260 1492.86,-250.528 1703.86,-251.943 1787.51,-260 1819.96,-263.126 1827.36,-268.634 1859.51,-274 1869.8,-275.717 1880.44,-277.407 1891.16,-279.048"/>
<polygon fill="#999999" stroke="#999999" points="1890.88,-281.129 1897.13,-279.954 1891.51,-276.977 1890.88,-281.129"/>
</g>
<!-- VinaiKopp\\PostCodeFilter\\AdminUpdatesRule&#45;&gt;VinaiKopp\\PostCodeFilter\\Storage\\WriteModel\\RuleToDelete -->
<g id="edge15" class="edge"><title>VinaiKopp\\PostCodeFilter\\AdminUpdatesRule&#45;&gt;VinaiKopp\\PostCodeFilter\\Storage\\WriteModel\\RuleToDelete</title>
<path fill="none" stroke="#999999" d="M1267.28,-315.201C1390.43,-314.681 1604.28,-315.217 1787.51,-323 1821.76,-324.455 1858.67,-326.782 1893.16,-329.287"/>
<polygon fill="#999999" stroke="#999999" points="1893.43,-331.412 1899.57,-329.756 1893.74,-327.224 1893.43,-331.412"/>
</g>
<!-- VinaiKopp\\PostCodeFilter\\AdminUpdatesRule&#45;&gt;VinaiKopp\\PostCodeFilter\\Rule\\NonexistentRule -->
<g id="edge17" class="edge"><title>VinaiKopp\\PostCodeFilter\\AdminUpdatesRule&#45;&gt;VinaiKopp\\PostCodeFilter\\Rule\\NonexistentRule</title>
<path fill="none" stroke="#999999" d="M1247.33,-334.008C1276.04,-340.465 1308.5,-347.905 1338.02,-355 1400.45,-370.006 1471.07,-388.04 1522.84,-401.463"/>
<polygon fill="#999999" stroke="#999999" points="1522.41,-403.519 1528.74,-402.994 1523.46,-399.454 1522.41,-403.519"/>
</g>
<!-- VinaiKopp\\PostCodeFilter\\AdminUpdatesRule&#45;&gt;VinaiKopp\\PostCodeFilter\\Exceptions\\RuleDoesNotExistException -->
<g id="edge18" class="edge"><title>VinaiKopp\\PostCodeFilter\\AdminUpdatesRule&#45;&gt;VinaiKopp\\PostCodeFilter\\Exceptions\\RuleDoesNotExistException</title>
<path fill="none" stroke="#999999" d="M1267.21,-324.228C1321.07,-328.594 1388.29,-334.044 1447.99,-338.884"/>
<polygon fill="#999999" stroke="#999999" points="1447.96,-340.989 1454.11,-339.381 1448.3,-336.803 1447.96,-340.989"/>
</g>
<!-- VinaiKopp\\PostCodeFilter\\AdminUpdatesRule&#45;&gt;VinaiKopp\\PostCodeFilter\\Rule\\Rule -->
<g id="edge20" class="edge"><title>VinaiKopp\\PostCodeFilter\\AdminUpdatesRule&#45;&gt;VinaiKopp\\PostCodeFilter\\Rule\\Rule</title>
<path fill="none" stroke="#999999" d="M1267.09,-317.242C1436.86,-319.47 1762.67,-324.435 1787.51,-330 1821.68,-337.655 1826.31,-350.872 1859.51,-362 1886.26,-370.965 1916,-378.654 1943.13,-384.826"/>
<polygon fill="#999999" stroke="#999999" points="1942.92,-386.932 1949.24,-386.2 1943.84,-382.834 1942.92,-386.932"/>
</g>
<!-- VinaiKopp\\PostCodeFilter\\Rule\\Rule&#45;&gt;VinaiKopp\\PostCodeFilter\\Rule\\Components\\Country -->
<g id="edge47" class="edge"><title>VinaiKopp\\PostCodeFilter\\Rule\\Rule&#45;&gt;VinaiKopp\\PostCodeFilter\\Rule\\Components\\Country</title>
<path fill="none" stroke="#999999" d="M2115.62,-402C2168.86,-402 2239.17,-402 2298.87,-402"/>
<polygon fill="#999999" stroke="#999999" points="2298.99,-404.1 2304.99,-402 2298.99,-399.9 2298.99,-404.1"/>
</g>
<!-- VinaiKopp\\PostCodeFilter\\Rule\\Rule&#45;&gt;VinaiKopp\\PostCodeFilter\\Rule\\Components\\CustomerGroupIdList -->
<g id="edge48" class="edge"><title>VinaiKopp\\PostCodeFilter\\Rule\\Rule&#45;&gt;VinaiKopp\\PostCodeFilter\\Rule\\Components\\CustomerGroupIdList</title>
<path fill="none" stroke="#999999" d="M2115.72,-389.962C2144.44,-384.776 2176.67,-377.839 2205.44,-369 2238.75,-358.768 2243.95,-347.609 2277.44,-338 2280.32,-337.175 2283.23,-336.38 2286.18,-335.612"/>
<polygon fill="#999999" stroke="#999999" points="2286.97,-337.58 2292.27,-334.077 2285.94,-333.507 2286.97,-337.58"/>
</g>
<!-- VinaiKopp\\PostCodeFilter\\Rule\\Rule&#45;&gt;VinaiKopp\\PostCodeFilter\\Rule\\Components\\PostCodeList -->
<g id="edge49" class="edge"><title>VinaiKopp\\PostCodeFilter\\Rule\\Rule&#45;&gt;VinaiKopp\\PostCodeFilter\\Rule\\Components\\PostCodeList</title>
<path fill="none" stroke="#999999" d="M2115.62,-392.881C2165.75,-387.315 2231.02,-380.07 2288.32,-373.708"/>
<polygon fill="#999999" stroke="#999999" points="2288.82,-375.766 2294.55,-373.017 2288.35,-371.592 2288.82,-375.766"/>
</g>
<!-- VinaiKopp\\PostCodeFilter\\AdminViewsRuleList -->
<g id="node14" class="node"><title>VinaiKopp\\PostCodeFilter\\AdminViewsRuleList</title>
<path fill="#9999cc" stroke="black" d="M1258.8,-641C1258.8,-641 1070.64,-641 1070.64,-641 1064.64,-641 1058.64,-635 1058.64,-629 1058.64,-629 1058.64,-617 1058.64,-617 1058.64,-611 1064.64,-605 1070.64,-605 1070.64,-605 1258.8,-605 1258.8,-605 1264.8,-605 1270.8,-611 1270.8,-617 1270.8,-617 1270.8,-629 1270.8,-629 1270.8,-635 1264.8,-641 1258.8,-641"/>
<text text-anchor="middle" x="1164.72" y="-620" font-family="Times,serif" font-size="10.00" fill="#000033">VinaiKopp\PostCodeFilter\AdminViewsRuleList</text>
</g>
<!-- VinaiKopp\\PostCodeFilter\\AdminViewsRuleList&#45;&gt;VinaiKopp\\PostCodeFilter\\Storage\\ReadModel\\RuleReader -->
<g id="edge21" class="edge"><title>VinaiKopp\\PostCodeFilter\\AdminViewsRuleList&#45;&gt;VinaiKopp\\PostCodeFilter\\Storage\\ReadModel\\RuleReader</title>
<path fill="none" stroke="#999999" d="M1270.95,-621.575C1294.01,-618.04 1317.61,-611.75 1338.02,-601 1380.17,-578.8 1369.22,-546.644 1409.37,-521 1435.51,-504.299 1466.82,-492.271 1496.31,-483.703"/>
<polygon fill="#999999" stroke="#999999" points="1496.99,-485.695 1502.19,-482.035 1495.84,-481.654 1496.99,-485.695"/>
</g>
<!-- VinaiKopp\\PostCodeFilter\\AdminViewsRuleList&#45;&gt;VinaiKopp\\PostCodeFilter\\Rule\\Rule -->
<g id="edge22" class="edge"><title>VinaiKopp\\PostCodeFilter\\AdminViewsRuleList&#45;&gt;VinaiKopp\\PostCodeFilter\\Rule\\Rule</title>
<path fill="none" stroke="#999999" d="M1270.86,-632.471C1313.77,-635.892 1363.91,-639.323 1409.37,-641 1451.35,-642.549 1748.91,-657.602 1787.51,-641 1830.25,-622.615 1826.61,-597.905 1859.51,-565 1910.79,-513.704 1973.01,-455.741 2006.78,-424.631"/>
<polygon fill="#999999" stroke="#999999" points="2008.55,-425.849 2011.55,-420.24 2005.71,-422.759 2008.55,-425.849"/>
</g>
<!-- VinaiKopp\\PostCodeFilter\\AdminViewsSingleRule -->
<g id="node15" class="node"><title>VinaiKopp\\PostCodeFilter\\AdminViewsSingleRule</title>
<path fill="#9999cc" stroke="black" d="M1263.8,-271C1263.8,-271 1065.64,-271 1065.64,-271 1059.64,-271 1053.64,-265 1053.64,-259 1053.64,-259 1053.64,-247 1053.64,-247 1053.64,-241 1059.64,-235 1065.64,-235 1065.64,-235 1263.8,-235 1263.8,-235 1269.8,-235 1275.8,-241 1275.8,-247 1275.8,-247 1275.8,-259 1275.8,-259 1275.8,-265 1269.8,-271 1263.8,-271"/>
<text text-anchor="middle" x="1164.72" y="-250" font-family="Times,serif" font-size="10.00" fill="#000033">VinaiKopp\PostCodeFilter\AdminViewsSingleRule</text>
</g>
<!-- VinaiKopp\\PostCodeFilter\\AdminViewsSingleRule&#45;&gt;VinaiKopp\\PostCodeFilter\\Storage\\ReadModel\\RuleReader -->
<g id="edge23" class="edge"><title>VinaiKopp\\PostCodeFilter\\AdminViewsSingleRule&#45;&gt;VinaiKopp\\PostCodeFilter\\Storage\\ReadModel\\RuleReader</title>
<path fill="none" stroke="#999999" d="M1275.82,-263.948C1298.12,-270.164 1320.17,-279.639 1338.02,-294 1394.91,-339.78 1349.89,-399.63 1409.37,-442 1425.69,-453.632 1444.91,-460.97 1464.72,-465.401"/>
<polygon fill="#999999" stroke="#999999" points="1464.3,-467.458 1470.6,-466.63 1465.16,-463.347 1464.3,-467.458"/>
</g>
<!-- VinaiKopp\\PostCodeFilter\\AdminViewsSingleRule&#45;&gt;VinaiKopp\\PostCodeFilter\\Storage\\ReadModel\\RuleSpecByCountryAndGroupIds -->
<g id="edge25" class="edge"><title>VinaiKopp\\PostCodeFilter\\AdminViewsSingleRule&#45;&gt;VinaiKopp\\PostCodeFilter\\Storage\\ReadModel\\RuleSpecByCountryAndGroupIds</title>
<path fill="none" stroke="#999999" d="M1275.95,-249.254C1427.46,-244.75 1692.13,-239.375 1787.51,-253 1820.51,-257.714 1826.92,-267.011 1859.51,-274 1867.38,-275.687 1875.48,-277.283 1883.67,-278.79"/>
<polygon fill="#999999" stroke="#999999" points="1883.67,-280.924 1889.95,-279.924 1884.42,-276.791 1883.67,-280.924"/>
</g>
<!-- VinaiKopp\\PostCodeFilter\\AdminViewsSingleRule&#45;&gt;VinaiKopp\\PostCodeFilter\\Rule\\Rule -->
<g id="edge24" class="edge"><title>VinaiKopp\\PostCodeFilter\\AdminViewsSingleRule&#45;&gt;VinaiKopp\\PostCodeFilter\\Rule\\Rule</title>
<path fill="none" stroke="#999999" d="M1240.43,-271.015C1288.41,-281.838 1352.21,-294.857 1409.37,-302 1492.85,-312.434 1706.74,-297.431 1787.51,-321 1822.86,-331.316 1825.22,-348.577 1859.51,-362 1885.91,-372.335 1915.69,-380.424 1942.95,-386.54"/>
<polygon fill="#999999" stroke="#999999" points="1942.78,-388.653 1949.09,-387.895 1943.69,-384.552 1942.78,-388.653"/>
</g>
<!-- VinaiKopp\\PostCodeFilter\\AdminViewsSingleRule&#45;&gt;VinaiKopp\\PostCodeFilter\\Rule\\Components\\Country -->
<g id="edge26" class="edge"><title>VinaiKopp\\PostCodeFilter\\AdminViewsSingleRule&#45;&gt;VinaiKopp\\PostCodeFilter\\Rule\\Components\\Country</title>
<path fill="none" stroke="#999999" d="M1276.07,-248.061C1317.82,-246.419 1365.78,-244.805 1409.37,-244 1577.4,-240.898 1621.45,-218.121 1787.51,-244 1820.7,-249.173 1826.4,-261.348 1859.51,-267 1897.41,-273.47 2171.6,-258.74 2205.44,-277 2254.6,-303.523 2230.02,-350.497 2277.44,-380 2284.26,-384.24 2291.6,-387.765 2299.23,-390.687"/>
<polygon fill="#999999" stroke="#999999" points="2298.76,-392.75 2305.11,-392.806 2300.18,-388.798 2298.76,-392.75"/>
</g>
<!-- VinaiKopp\\PostCodeFilter\\AdminViewsSingleRule&#45;&gt;VinaiKopp\\PostCodeFilter\\Rule\\Components\\CustomerGroupIdList -->
<g id="edge27" class="edge"><title>VinaiKopp\\PostCodeFilter\\AdminViewsSingleRule&#45;&gt;VinaiKopp\\PostCodeFilter\\Rule\\Components\\CustomerGroupIdList</title>
<path fill="none" stroke="#999999" d="M1276.23,-249.401C1297.44,-245.826 1318.96,-240.071 1338.02,-231 1377.57,-212.176 1368.7,-179.276 1409.37,-163 1448.37,-147.388 1745.52,-161.445 1787.51,-163 1973.64,-169.894 2027.21,-139.897 2205.44,-194 2277.85,-215.981 2352.55,-265.447 2392.12,-294.186"/>
<polygon fill="#999999" stroke="#999999" points="2391.15,-296.08 2397.24,-297.927 2393.63,-292.69 2391.15,-296.08"/>
</g>
<!-- VinaiKopp\\PostCodeFilter\\Exceptions\\InvalidCountryException -->
<g id="node21" class="node"><title>VinaiKopp\\PostCodeFilter\\Exceptions\\InvalidCountryException</title>
<path fill="#9999cc" stroke="black" d="M2900.56,-420C2900.56,-420 2650.04,-420 2650.04,-420 2644.04,-420 2638.04,-414 2638.04,-408 2638.04,-408 2638.04,-396 2638.04,-396 2638.04,-390 2644.04,-384 2650.04,-384 2650.04,-384 2900.56,-384 2900.56,-384 2906.56,-384 2912.56,-390 2912.56,-396 2912.56,-396 2912.56,-408 2912.56,-408 2912.56,-414 2906.56,-420 2900.56,-420"/>
<text text-anchor="middle" x="2775.3" y="-399" font-family="Times,serif" font-size="10.00" fill="#000033">VinaiKopp\PostCodeFilter\Exceptions\InvalidCountryException</text>
</g>
<!-- VinaiKopp\\PostCodeFilter\\Rule\\Components\\Country&#45;&gt;VinaiKopp\\PostCodeFilter\\Exceptions\\InvalidCountryException -->
<g id="edge32" class="edge"><title>VinaiKopp\\PostCodeFilter\\Rule\\Components\\Country&#45;&gt;VinaiKopp\\PostCodeFilter\\Exceptions\\InvalidCountryException</title>
<path fill="none" stroke="#999999" d="M2538.87,-402C2568.59,-402 2600.88,-402 2631.76,-402"/>
<polygon fill="#999999" stroke="#999999" points="2631.92,-404.1 2637.92,-402 2631.92,-399.9 2631.92,-404.1"/>
</g>
<!-- VinaiKopp\\PostCodeFilter\\Rule\\Components\\CustomerGroupIdList&#45;&gt;VinaiKopp\\PostCodeFilter\\Rule\\Components\\CustomerGroupId -->
<g id="edge34" class="edge"><title>VinaiKopp\\PostCodeFilter\\Rule\\Components\\CustomerGroupIdList&#45;&gt;VinaiKopp\\PostCodeFilter\\Rule\\Components\\CustomerGroupId</title>
<path fill="none" stroke="#999999" d="M2558.41,-334.001C2561.05,-335.255 2563.64,-336.586 2566.17,-338 2609.38,-362.175 2601.48,-389.757 2638.17,-423 2669.43,-451.321 2709.62,-478.084 2738.21,-495.755"/>
<polygon fill="#999999" stroke="#999999" points="2737.2,-497.597 2743.41,-498.947 2739.4,-494.018 2737.2,-497.597"/>
</g>
<!-- VinaiKopp\\PostCodeFilter\\CustomerSpecifiesShippingAddress -->
<g id="node18" class="node"><title>VinaiKopp\\PostCodeFilter\\CustomerSpecifiesShippingAddress</title>
<path fill="#9999cc" stroke="black" d="M1287.51,-684C1287.51,-684 1041.93,-684 1041.93,-684 1035.93,-684 1029.93,-678 1029.93,-672 1029.93,-672 1029.93,-660 1029.93,-660 1029.93,-654 1035.93,-648 1041.93,-648 1041.93,-648 1287.51,-648 1287.51,-648 1293.51,-648 1299.51,-654 1299.51,-660 1299.51,-660 1299.51,-672 1299.51,-672 1299.51,-678 1293.51,-684 1287.51,-684"/>
<text text-anchor="middle" x="1164.72" y="-663" font-family="Times,serif" font-size="10.00" fill="#000033">VinaiKopp\PostCodeFilter\CustomerSpecifiesShippingAddress</text>
</g>
<!-- VinaiKopp\\PostCodeFilter\\CustomerSpecifiesShippingAddress&#45;&gt;VinaiKopp\\PostCodeFilter\\Storage\\ReadModel\\RuleReader -->
<g id="edge28" class="edge"><title>VinaiKopp\\PostCodeFilter\\CustomerSpecifiesShippingAddress&#45;&gt;VinaiKopp\\PostCodeFilter\\Storage\\ReadModel\\RuleReader</title>
<path fill="none" stroke="#999999" d="M1299.56,-661.496C1313.21,-657.42 1326.34,-651.756 1338.02,-644 1390.67,-609.045 1359.82,-560.231 1409.37,-521 1430.63,-504.165 1456.82,-492.289 1482.83,-483.916"/>
<polygon fill="#999999" stroke="#999999" points="1483.62,-485.868 1488.72,-482.075 1482.37,-481.859 1483.62,-485.868"/>
</g>
<!-- VinaiKopp\\PostCodeFilter\\CustomerSpecifiesShippingAddress&#45;&gt;VinaiKopp\\PostCodeFilter\\Rule\\Components\\Country -->
<g id="edge31" class="edge"><title>VinaiKopp\\PostCodeFilter\\CustomerSpecifiesShippingAddress&#45;&gt;VinaiKopp\\PostCodeFilter\\Rule\\Components\\Country</title>
<path fill="none" stroke="#999999" d="M1299.61,-668.745C1425.64,-670.322 1619.6,-670.156 1787.51,-659 1974.22,-646.595 2036.32,-688.094 2205.44,-608 2295.94,-565.139 2372.7,-469.343 2404.76,-425.15"/>
<polygon fill="#999999" stroke="#999999" points="2406.47,-426.373 2408.27,-420.276 2403.06,-423.92 2406.47,-426.373"/>
</g>
<!-- VinaiKopp\\PostCodeFilter\\CustomerSpecifiesShippingAddress&#45;&gt;VinaiKopp\\PostCodeFilter\\Storage\\ReadModel\\RuleSpecByCountryAndGroupId -->
<g id="edge29" class="edge"><title>VinaiKopp\\PostCodeFilter\\CustomerSpecifiesShippingAddress&#45;&gt;VinaiKopp\\PostCodeFilter\\Storage\\ReadModel\\RuleSpecByCountryAndGroupId</title>
<path fill="none" stroke="#999999" d="M1299.39,-664.172C1467.73,-661.618 1740.76,-656.551 1787.51,-650 1850.99,-641.104 1921.74,-621.749 1970.63,-606.824"/>
<polygon fill="#999999" stroke="#999999" points="1971.36,-608.796 1976.48,-605.027 1970.13,-604.781 1971.36,-608.796"/>
</g>
<!-- VinaiKopp\\PostCodeFilter\\CustomerSpecifiesShippingAddress&#45;&gt;VinaiKopp\\PostCodeFilter\\Rule\\Components\\CustomerGroupId -->
<g id="edge30" class="edge"><title>VinaiKopp\\PostCodeFilter\\CustomerSpecifiesShippingAddress&#45;&gt;VinaiKopp\\PostCodeFilter\\Rule\\Components\\CustomerGroupId</title>
<path fill="none" stroke="#999999" d="M1299.45,-666.648C1335.16,-666.794 1373.73,-666.927 1409.37,-667 1763.44,-667.727 1854.83,-685.454 2205.44,-636 2382.92,-610.966 2588.01,-563.375 2696.92,-536.586"/>
<polygon fill="#999999" stroke="#999999" points="2697.67,-538.564 2703,-535.089 2696.67,-534.486 2697.67,-538.564"/>
</g>
<!-- VinaiKopp\\PostCodeFilter\\Storage\\ReadModel\\RuleSpecByCountryAndGroupId&#45;&gt;VinaiKopp\\PostCodeFilter\\Rule\\Components\\Country -->
<g id="edge54" class="edge"><title>VinaiKopp\\PostCodeFilter\\Storage\\ReadModel\\RuleSpecByCountryAndGroupId&#45;&gt;VinaiKopp\\PostCodeFilter\\Rule\\Components\\Country</title>
<path fill="none" stroke="#999999" d="M2189.12,-568.98C2194.69,-567.167 2200.14,-565.179 2205.44,-563 2285.18,-530.193 2361.97,-460.914 2398.55,-424.872"/>
<polygon fill="#999999" stroke="#999999" points="2400.46,-425.942 2403.24,-420.224 2397.5,-422.961 2400.46,-425.942"/>
</g>
<!-- VinaiKopp\\PostCodeFilter\\Storage\\ReadModel\\RuleSpecByCountryAndGroupId&#45;&gt;VinaiKopp\\PostCodeFilter\\Rule\\Components\\CustomerGroupId -->
<g id="edge53" class="edge"><title>VinaiKopp\\PostCodeFilter\\Storage\\ReadModel\\RuleSpecByCountryAndGroupId&#45;&gt;VinaiKopp\\PostCodeFilter\\Rule\\Components\\CustomerGroupId</title>
<path fill="none" stroke="#999999" d="M2203.9,-570.897C2333.73,-558.629 2510.37,-541.939 2632.52,-530.396"/>
<polygon fill="#999999" stroke="#999999" points="2632.89,-532.471 2638.66,-529.816 2632.49,-528.29 2632.89,-532.471"/>
</g>
<!-- VinaiKopp\\PostCodeFilter\\Exceptions\\InvalidCustomerGroupIdException -->
<g id="node22" class="node"><title>VinaiKopp\\PostCodeFilter\\Exceptions\\InvalidCustomerGroupIdException</title>
<path fill="#9999cc" stroke="black" d="M3286.81,-535C3286.81,-535 2996.31,-535 2996.31,-535 2990.31,-535 2984.31,-529 2984.31,-523 2984.31,-523 2984.31,-511 2984.31,-511 2984.31,-505 2990.31,-499 2996.31,-499 2996.31,-499 3286.81,-499 3286.81,-499 3292.81,-499 3298.81,-505 3298.81,-511 3298.81,-511 3298.81,-523 3298.81,-523 3298.81,-529 3292.81,-535 3286.81,-535"/>
<text text-anchor="middle" x="3141.56" y="-514" font-family="Times,serif" font-size="10.00" fill="#000033">VinaiKopp\PostCodeFilter\Exceptions\InvalidCustomerGroupIdException</text>
</g>
<!-- VinaiKopp\\PostCodeFilter\\Rule\\Components\\CustomerGroupId&#45;&gt;VinaiKopp\\PostCodeFilter\\Exceptions\\InvalidCustomerGroupIdException -->
<g id="edge33" class="edge"><title>VinaiKopp\\PostCodeFilter\\Rule\\Components\\CustomerGroupId&#45;&gt;VinaiKopp\\PostCodeFilter\\Exceptions\\InvalidCustomerGroupIdException</title>
<path fill="none" stroke="#999999" d="M2911.94,-517C2933.48,-517 2955.95,-517 2978.03,-517"/>
<polygon fill="#999999" stroke="#999999" points="2978.24,-519.1 2984.24,-517 2978.24,-514.9 2978.24,-519.1"/>
</g>
<!-- VinaiKopp\\PostCodeFilter\\Exceptions\\InvalidPostCodeException -->
<g id="node23" class="node"><title>VinaiKopp\\PostCodeFilter\\Exceptions\\InvalidPostCodeException</title>
<path fill="#9999cc" stroke="black" d="M3269.38,-290C3269.38,-290 3013.74,-290 3013.74,-290 3007.74,-290 3001.74,-284 3001.74,-278 3001.74,-278 3001.74,-266 3001.74,-266 3001.74,-260 3007.74,-254 3013.74,-254 3013.74,-254 3269.38,-254 3269.38,-254 3275.38,-254 3281.38,-260 3281.38,-266 3281.38,-266 3281.38,-278 3281.38,-278 3281.38,-284 3275.38,-290 3269.38,-290"/>
<text text-anchor="middle" x="3141.56" y="-269" font-family="Times,serif" font-size="10.00" fill="#000033">VinaiKopp\PostCodeFilter\Exceptions\InvalidPostCodeException</text>
</g>
<!-- VinaiKopp\\PostCodeFilter\\Exceptions\\NonMatchingRecordInResultException -->
<g id="node24" class="node"><title>VinaiKopp\\PostCodeFilter\\Exceptions\\NonMatchingRecordInResultException</title>
<path fill="#9999cc" stroke="black" d="M1752.41,-561C1752.41,-561 1444.47,-561 1444.47,-561 1438.47,-561 1432.47,-555 1432.47,-549 1432.47,-549 1432.47,-537 1432.47,-537 1432.47,-531 1438.47,-525 1444.47,-525 1444.47,-525 1752.41,-525 1752.41,-525 1758.41,-525 1764.41,-531 1764.41,-537 1764.41,-537 1764.41,-549 1764.41,-549 1764.41,-555 1758.41,-561 1752.41,-561"/>
<text text-anchor="middle" x="1598.44" y="-540" font-family="Times,serif" font-size="10.00" fill="#000033">VinaiKopp\PostCodeFilter\Exceptions\NonMatchingRecordInResultException</text>
</g>
<!-- VinaiKopp\\PostCodeFilter\\Rule\\Components\\PostCode&#45;&gt;VinaiKopp\\PostCodeFilter\\Exceptions\\InvalidPostCodeException -->
<g id="edge35" class="edge"><title>VinaiKopp\\PostCodeFilter\\Rule\\Components\\PostCode&#45;&gt;VinaiKopp\\PostCodeFilter\\Exceptions\\InvalidPostCodeException</title>
<path fill="none" stroke="#999999" d="M2894.57,-272C2926.74,-272 2961.95,-272 2995.42,-272"/>
<polygon fill="#999999" stroke="#999999" points="2995.65,-274.1 3001.65,-272 2995.65,-269.9 2995.65,-274.1"/>
</g>
<!-- VinaiKopp\\PostCodeFilter\\Rule\\Components\\PostCodeList&#45;&gt;VinaiKopp\\PostCodeFilter\\Rule\\Components\\PostCode -->
<g id="edge36" class="edge"><title>VinaiKopp\\PostCodeFilter\\Rule\\Components\\PostCodeList&#45;&gt;VinaiKopp\\PostCodeFilter\\Rule\\Components\\PostCode</title>
<path fill="none" stroke="#999999" d="M2547.74,-340.979C2553.99,-339.718 2560.16,-338.391 2566.17,-337 2618.48,-324.891 2676.71,-306.249 2718.25,-292.028"/>
<polygon fill="#999999" stroke="#999999" points="2719,-293.989 2723.99,-290.052 2717.64,-290.017 2719,-293.989"/>
</g>
<!-- VinaiKopp\\PostCodeFilter\\Storage\\RuleRepositoryReader -->
<g id="node27" class="node"><title>VinaiKopp\\PostCodeFilter\\Storage\\RuleRepositoryReader</title>
<path fill="#9999cc" stroke="black" d="M1277.54,-526C1277.54,-526 1051.9,-526 1051.9,-526 1045.9,-526 1039.9,-520 1039.9,-514 1039.9,-514 1039.9,-502 1039.9,-502 1039.9,-496 1045.9,-490 1051.9,-490 1051.9,-490 1277.54,-490 1277.54,-490 1283.54,-490 1289.54,-496 1289.54,-502 1289.54,-502 1289.54,-514 1289.54,-514 1289.54,-520 1283.54,-526 1277.54,-526"/>
<text text-anchor="middle" x="1164.72" y="-505" font-family="Times,serif" font-size="10.00" fill="#000033">VinaiKopp\PostCodeFilter\Storage\RuleRepositoryReader</text>
</g>
<!-- VinaiKopp\\PostCodeFilter\\Storage\\RuleRepositoryReader&#45;&gt;VinaiKopp\\PostCodeFilter\\Storage\\ReadModel\\RuleReader -->
<g id="edge57" class="edge"><title>VinaiKopp\\PostCodeFilter\\Storage\\RuleRepositoryReader&#45;&gt;VinaiKopp\\PostCodeFilter\\Storage\\ReadModel\\RuleReader</title>
<path fill="none" stroke="#999999" stroke-dasharray="5,2" d="M1289.72,-495.362C1344.41,-489.789 1408.76,-483.23 1464.44,-477.555"/>
<polygon fill="#999999" stroke="#999999" points="1464.74,-479.636 1470.49,-476.938 1464.31,-475.457 1464.74,-479.636"/>
</g>
<!-- VinaiKopp\\PostCodeFilter\\Storage\\RuleRepositoryReader&#45;&gt;VinaiKopp\\PostCodeFilter\\Rule\\ExistingRule -->
<g id="edge63" class="edge"><title>VinaiKopp\\PostCodeFilter\\Storage\\RuleRepositoryReader&#45;&gt;VinaiKopp\\PostCodeFilter\\Rule\\ExistingRule</title>
<path fill="none" stroke="#999999" d="M1206.27,-489.859C1244.21,-471.243 1300.51,-439.206 1338.02,-398 1384.76,-346.646 1357.99,-305.721 1409.37,-259 1437.88,-233.065 1476.48,-215.588 1511.28,-204.08"/>
<polygon fill="#999999" stroke="#999999" points="1512.22,-205.985 1517.28,-202.143 1510.93,-201.988 1512.22,-205.985"/>
</g>
<!-- VinaiKopp\\PostCodeFilter\\Storage\\RuleRepositoryReader&#45;&gt;VinaiKopp\\PostCodeFilter\\Storage\\ReadModel\\RuleSpecByCountryAndGroupIds -->
<g id="edge62" class="edge"><title>VinaiKopp\\PostCodeFilter\\Storage\\RuleRepositoryReader&#45;&gt;VinaiKopp\\PostCodeFilter\\Storage\\ReadModel\\RuleSpecByCountryAndGroupIds</title>
<path fill="none" stroke="#999999" d="M1196.32,-489.815C1241.24,-464.185 1328.48,-418.403 1409.37,-399 1491.18,-379.374 1709.14,-410.619 1787.51,-380 1826.31,-364.841 1821.32,-336.642 1859.51,-320 1860.8,-319.438 1862.1,-318.89 1863.41,-318.354"/>
<polygon fill="#999999" stroke="#999999" points="1864.38,-320.228 1869.2,-316.087 1862.85,-316.317 1864.38,-320.228"/>
</g>
<!-- VinaiKopp\\PostCodeFilter\\Storage\\RuleRepositoryReader&#45;&gt;VinaiKopp\\PostCodeFilter\\Rule\\NonexistentRule -->
<g id="edge60" class="edge"><title>VinaiKopp\\PostCodeFilter\\Storage\\RuleRepositoryReader&#45;&gt;VinaiKopp\\PostCodeFilter\\Rule\\NonexistentRule</title>
<path fill="none" stroke="#999999" d="M1223.76,-489.982C1272.78,-475.376 1345.08,-455.269 1409.37,-443 1433.73,-438.35 1460.07,-434.53 1485.1,-431.455"/>
<polygon fill="#999999" stroke="#999999" points="1485.39,-433.535 1491.1,-430.73 1484.89,-429.366 1485.39,-433.535"/>
</g>
<!-- VinaiKopp\\PostCodeFilter\\Storage\\RuleRepositoryReader&#45;&gt;VinaiKopp\\PostCodeFilter\\Rule\\Rule -->
<g id="edge61" class="edge"><title>VinaiKopp\\PostCodeFilter\\Storage\\RuleRepositoryReader&#45;&gt;VinaiKopp\\PostCodeFilter\\Rule\\Rule</title>
<path fill="none" stroke="#999999" d="M1289.66,-502.083C1328.02,-500.338 1370.44,-498.496 1409.37,-497 1493.38,-493.771 1704.79,-500.037 1787.51,-485 1858.36,-472.12 1936.56,-442.626 1984.86,-422.5"/>
<polygon fill="#999999" stroke="#999999" points="1985.88,-424.351 1990.6,-420.094 1984.25,-420.477 1985.88,-424.351"/>
</g>
<!-- VinaiKopp\\PostCodeFilter\\Storage\\RuleRepositoryReader&#45;&gt;VinaiKopp\\PostCodeFilter\\Rule\\Components\\Country -->
<g id="edge65" class="edge"><title>VinaiKopp\\PostCodeFilter\\Storage\\RuleRepositoryReader&#45;&gt;VinaiKopp\\PostCodeFilter\\Rule\\Components\\Country</title>
<path fill="none" stroke="#999999" d="M1289.67,-510.094C1546.13,-514 2118.38,-520.359 2205.44,-501 2273.29,-485.912 2345.37,-447.633 2386.55,-423.336"/>
<polygon fill="#999999" stroke="#999999" points="2387.83,-425.022 2391.91,-420.151 2385.68,-421.412 2387.83,-425.022"/>
</g>
<!-- VinaiKopp\\PostCodeFilter\\Storage\\RuleRepositoryReader&#45;&gt;VinaiKopp\\PostCodeFilter\\Rule\\Components\\CustomerGroupIdList -->
<g id="edge64" class="edge"><title>VinaiKopp\\PostCodeFilter\\Storage\\RuleRepositoryReader&#45;&gt;VinaiKopp\\PostCodeFilter\\Rule\\Components\\CustomerGroupIdList</title>
<path fill="none" stroke="#999999" d="M1226.64,-526.038C1275.53,-539.529 1346.19,-556.833 1409.37,-564 1492.86,-573.472 1704.59,-577.611 1787.51,-564 1980.95,-532.247 2043.28,-533.154 2205.44,-423 2246.4,-395.18 2234.24,-362.175 2277.44,-338 2278.23,-337.558 2279.03,-337.124 2279.83,-336.698"/>
<polygon fill="#999999" stroke="#999999" points="2280.78,-338.571 2285.2,-334.001 2278.89,-334.818 2280.78,-338.571"/>
</g>
<!-- VinaiKopp\\PostCodeFilter\\Storage\\RuleRepositoryReader&#45;&gt;VinaiKopp\\PostCodeFilter\\Storage\\ReadModel\\RuleSpecByCountryAndGroupId -->
<g id="edge59" class="edge"><title>VinaiKopp\\PostCodeFilter\\Storage\\RuleRepositoryReader&#45;&gt;VinaiKopp\\PostCodeFilter\\Storage\\ReadModel\\RuleSpecByCountryAndGroupId</title>
<path fill="none" stroke="#999999" d="M1220.64,-526.028C1269.55,-541.159 1343.38,-561.744 1409.37,-571 1431.22,-574.066 1678.74,-579.739 1854.87,-583.44"/>
<polygon fill="#999999" stroke="#999999" points="1855.06,-585.544 1861.1,-583.571 1855.15,-581.345 1855.06,-585.544"/>
</g>
<!-- VinaiKopp\\PostCodeFilter\\Storage\\RuleRepositoryReader&#45;&gt;VinaiKopp\\PostCodeFilter\\Rule\\Components\\CustomerGroupId -->
<g id="edge67" class="edge"><title>VinaiKopp\\PostCodeFilter\\Storage\\RuleRepositoryReader&#45;&gt;VinaiKopp\\PostCodeFilter\\Rule\\Components\\CustomerGroupId</title>
<path fill="none" stroke="#999999" d="M1289.67,-510.34C1328.03,-510.983 1370.45,-511.609 1409.37,-512 1855.85,-516.483 2384.52,-517.075 2632.52,-517.076"/>
<polygon fill="#999999" stroke="#999999" points="2632.69,-519.176 2638.69,-517.076 2632.68,-514.976 2632.69,-519.176"/>
</g>
<!-- VinaiKopp\\PostCodeFilter\\Storage\\RuleRepositoryReader&#45;&gt;VinaiKopp\\PostCodeFilter\\Exceptions\\NonMatchingRecordInResultException -->
<g id="edge68" class="edge"><title>VinaiKopp\\PostCodeFilter\\Storage\\RuleRepositoryReader&#45;&gt;VinaiKopp\\PostCodeFilter\\Exceptions\\NonMatchingRecordInResultException</title>
<path fill="none" stroke="#999999" d="M1289.72,-518.053C1332.28,-521.503 1380.7,-525.428 1426.32,-529.127"/>
<polygon fill="#999999" stroke="#999999" points="1426.3,-531.232 1432.45,-529.624 1426.64,-527.046 1426.3,-531.232"/>
</g>
<!-- VinaiKopp\\PostCodeFilter\\Storage\\RuleRepositoryReader&#45;&gt;VinaiKopp\\PostCodeFilter\\Rule\\Components\\PostCodeList -->
<g id="edge66" class="edge"><title>VinaiKopp\\PostCodeFilter\\Storage\\RuleRepositoryReader&#45;&gt;VinaiKopp\\PostCodeFilter\\Rule\\Components\\PostCodeList</title>
<path fill="none" stroke="#999999" d="M1289.61,-510.168C1415.32,-511.158 1615.39,-509.407 1787.51,-493 1974.99,-475.128 2028.33,-487.051 2205.44,-423 2240.28,-410.401 2242.52,-393.36 2277.44,-381 2281.1,-379.704 2284.84,-378.485 2288.64,-377.337"/>
<polygon fill="#999999" stroke="#999999" points="2289.47,-379.282 2294.65,-375.592 2288.3,-375.249 2289.47,-379.282"/>
</g>
<!-- VinaiKopp\\PostCodeFilter\\Storage\\RuleStorage -->
<g id="node28" class="node"><title>VinaiKopp\\PostCodeFilter\\Storage\\RuleStorage</title>
<path fill="#9999cc" stroke="black" d="M1690.6,-622C1690.6,-622 1506.27,-622 1506.27,-622 1500.27,-622 1494.27,-616 1494.27,-610 1494.27,-610 1494.27,-598 1494.27,-598 1494.27,-592 1500.27,-586 1506.27,-586 1506.27,-586 1690.6,-586 1690.6,-586 1696.6,-586 1702.6,-592 1702.6,-598 1702.6,-598 1702.6,-610 1702.6,-610 1702.6,-616 1696.6,-622 1690.6,-622"/>
<text text-anchor="middle" x="1598.44" y="-601" font-family="Times,serif" font-size="10.00" fill="#000033">VinaiKopp\PostCodeFilter\Storage\RuleStorage</text>
</g>
<!-- VinaiKopp\\PostCodeFilter\\Storage\\RuleRepositoryReader&#45;&gt;VinaiKopp\\PostCodeFilter\\Storage\\RuleStorage -->
<g id="edge58" class="edge"><title>VinaiKopp\\PostCodeFilter\\Storage\\RuleRepositoryReader&#45;&gt;VinaiKopp\\PostCodeFilter\\Storage\\RuleStorage</title>
<path fill="none" stroke="#999999" d="M1228.81,-526.035C1261.45,-535.434 1301.91,-547.195 1338.02,-558 1369.81,-567.513 1376.93,-572.985 1409.37,-580 1434.53,-585.444 1461.88,-589.801 1487.73,-593.229"/>
<polygon fill="#999999" stroke="#999999" points="1487.69,-595.342 1493.91,-594.035 1488.24,-591.177 1487.69,-595.342"/>
</g>
<!-- VinaiKopp\\PostCodeFilter\\Storage\\RuleRepositoryWriter -->
<g id="node29" class="node"><title>VinaiKopp\\PostCodeFilter\\Storage\\RuleRepositoryWriter</title>
<path fill="#9999cc" stroke="black" d="M1276.42,-598C1276.42,-598 1053.02,-598 1053.02,-598 1047.02,-598 1041.02,-592 1041.02,-586 1041.02,-586 1041.02,-574 1041.02,-574 1041.02,-568 1047.02,-562 1053.02,-562 1053.02,-562 1276.42,-562 1276.42,-562 1282.42,-562 1288.42,-568 1288.42,-574 1288.42,-574 1288.42,-586 1288.42,-586 1288.42,-592 1282.42,-598 1276.42,-598"/>
<text text-anchor="middle" x="1164.72" y="-577" font-family="Times,serif" font-size="10.00" fill="#000033">VinaiKopp\PostCodeFilter\Storage\RuleRepositoryWriter</text>
</g>
<!-- VinaiKopp\\PostCodeFilter\\Storage\\RuleRepositoryWriter&#45;&gt;VinaiKopp\\PostCodeFilter\\Storage\\WriteModel\\RuleWriter -->
<g id="edge69" class="edge"><title>VinaiKopp\\PostCodeFilter\\Storage\\RuleRepositoryWriter&#45;&gt;VinaiKopp\\PostCodeFilter\\Storage\\WriteModel\\RuleWriter</title>
<path fill="none" stroke="#999999" stroke-dasharray="5,2" d="M1281.75,-561.967C1302.38,-554.475 1322.27,-543.904 1338.02,-529 1406.56,-464.123 1339.61,-392.567 1409.37,-329 1425.19,-314.581 1444.74,-304.362 1465.2,-297.147"/>
<polygon fill="#999999" stroke="#999999" points="1465.97,-299.101 1470.99,-295.191 1464.63,-295.122 1465.97,-299.101"/>
</g>
<!-- VinaiKopp\\PostCodeFilter\\Storage\\RuleRepositoryWriter&#45;&gt;VinaiKopp\\PostCodeFilter\\Storage\\WriteModel\\RuleToAdd -->
<g id="edge71" class="edge"><title>VinaiKopp\\PostCodeFilter\\Storage\\RuleRepositoryWriter&#45;&gt;VinaiKopp\\PostCodeFilter\\Storage\\WriteModel\\RuleToAdd</title>
<path fill="none" stroke="#999999" d="M1288.57,-592.856C1305.27,-595.427 1322.13,-598.455 1338.02,-602 1370.54,-609.252 1376.45,-619.826 1409.37,-625 1430.12,-628.262 1771.22,-638.27 1787.51,-625 1910.29,-524.962 1745.81,-386.256 1859.51,-276 1870.55,-265.29 1883.98,-257.648 1898.41,-252.279"/>
<polygon fill="#999999" stroke="#999999" points="1899.23,-254.216 1904.2,-250.258 1897.85,-250.25 1899.23,-254.216"/>
</g>
<!-- VinaiKopp\\PostCodeFilter\\Storage\\RuleRepositoryWriter&#45;&gt;VinaiKopp\\PostCodeFilter\\Storage\\WriteModel\\RuleToDelete -->
<g id="edge72" class="edge"><title>VinaiKopp\\PostCodeFilter\\Storage\\RuleRepositoryWriter&#45;&gt;VinaiKopp\\PostCodeFilter\\Storage\\WriteModel\\RuleToDelete</title>
<path fill="none" stroke="#999999" d="M1288.42,-591.506C1305.22,-594.289 1322.15,-597.735 1338.02,-602 1371.24,-610.927 1375.65,-625.199 1409.37,-632 1429.96,-636.153 1770.74,-644.651 1787.51,-632 1880.5,-561.855 1774.9,-460.057 1859.51,-380 1869.44,-370.603 1881.14,-363.298 1893.69,-357.641"/>
<polygon fill="#999999" stroke="#999999" points="1894.82,-359.443 1899.51,-355.156 1893.17,-355.58 1894.82,-359.443"/>
</g>
<!-- VinaiKopp\\PostCodeFilter\\Storage\\RuleRepositoryWriter&#45;&gt;VinaiKopp\\PostCodeFilter\\Storage\\RuleStorage -->
<g id="edge70" class="edge"><title>VinaiKopp\\PostCodeFilter\\Storage\\RuleRepositoryWriter&#45;&gt;VinaiKopp\\PostCodeFilter\\Storage\\RuleStorage</title>
<path fill="none" stroke="#999999" d="M1288.57,-586.829C1351.34,-590.319 1427.09,-594.53 1487.87,-597.909"/>
<polygon fill="#999999" stroke="#999999" points="1487.97,-600.018 1494.08,-598.254 1488.2,-595.824 1487.97,-600.018"/>
</g>
<!-- VinaiKopp_PostCodeFilter_Block_Adminhtml_Postcodefilter_Edit_Form -->
<g id="node30" class="node"><title>VinaiKopp_PostCodeFilter_Block_Adminhtml_Postcodefilter_Edit_Form</title>
<path fill="#9999cc" stroke="black" d="M367.518,-822C367.518,-822 78.1625,-822 78.1625,-822 72.1625,-822 66.1625,-816 66.1625,-810 66.1625,-810 66.1625,-798 66.1625,-798 66.1625,-792 72.1625,-786 78.1625,-786 78.1625,-786 367.518,-786 367.518,-786 373.518,-786 379.518,-792 379.518,-798 379.518,-798 379.518,-810 379.518,-810 379.518,-816 373.518,-822 367.518,-822"/>
<text text-anchor="middle" x="222.84" y="-801" font-family="Times,serif" font-size="10.00" fill="#000033">VinaiKopp_PostCodeFilter_Block_Adminhtml_Postcodefilter_Edit_Form</text>
</g>
<!-- VinaiKopp_PostCodeFilter_Block_Adminhtml_Postcodefilter_New_Form -->
<g id="node31" class="node"><title>VinaiKopp_PostCodeFilter_Block_Adminhtml_Postcodefilter_New_Form</title>
<path fill="#9999cc" stroke="black" d="M864.273,-822C864.273,-822 572.483,-822 572.483,-822 566.483,-822 560.483,-816 560.483,-810 560.483,-810 560.483,-798 560.483,-798 560.483,-792 566.483,-786 572.483,-786 572.483,-786 864.273,-786 864.273,-786 870.273,-786 876.273,-792 876.273,-798 876.273,-798 876.273,-810 876.273,-810 876.273,-816 870.273,-822 864.273,-822"/>
<text text-anchor="middle" x="718.378" y="-801" font-family="Times,serif" font-size="10.00" fill="#000033">VinaiKopp_PostCodeFilter_Block_Adminhtml_Postcodefilter_New_Form</text>
</g>
<!-- VinaiKopp_PostCodeFilter_Block_Adminhtml_Postcodefilter_Edit_Form&#45;&gt;VinaiKopp_PostCodeFilter_Block_Adminhtml_Postcodefilter_New_Form -->
<g id="edge80" class="edge"><title>VinaiKopp_PostCodeFilter_Block_Adminhtml_Postcodefilter_Edit_Form&#45;&gt;VinaiKopp_PostCodeFilter_Block_Adminhtml_Postcodefilter_New_Form</title>
<path fill="none" stroke="#999999" stroke-dasharray="5,2" d="M379.66,-804C435.259,-804 498.021,-804 554.221,-804"/>
<polygon fill="#999999" stroke="#999999" points="554.337,-806.1 560.337,-804 554.337,-801.9 554.337,-806.1"/>
</g>
<!-- VinaiKopp_PostCodeFilter_Block_Adminhtml_Postcodefilter_Edit -->
<g id="node32" class="node"><title>VinaiKopp_PostCodeFilter_Block_Adminhtml_Postcodefilter_Edit</title>
<path fill="#9999cc" stroke="black" d="M353.849,-904C353.849,-904 91.8321,-904 91.8321,-904 85.8321,-904 79.8321,-898 79.8321,-892 79.8321,-892 79.8321,-880 79.8321,-880 79.8321,-874 85.8321,-868 91.8321,-868 91.8321,-868 353.849,-868 353.849,-868 359.849,-868 365.849,-874 365.849,-880 365.849,-880 365.849,-892 365.849,-892 365.849,-898 359.849,-904 353.849,-904"/>
<text text-anchor="middle" x="222.84" y="-883" font-family="Times,serif" font-size="10.00" fill="#000033">VinaiKopp_PostCodeFilter_Block_Adminhtml_Postcodefilter_Edit</text>
</g>
<!-- VinaiKopp_PostCodeFilter_Block_Adminhtml_Postcodefilter_Grid -->
<g id="node33" class="node"><title>VinaiKopp_PostCodeFilter_Block_Adminhtml_Postcodefilter_Grid</title>
<path fill="#9999cc" stroke="black" d="M355.013,-986C355.013,-986 90.6674,-986 90.6674,-986 84.6674,-986 78.6674,-980 78.6674,-974 78.6674,-974 78.6674,-962 78.6674,-962 78.6674,-956 84.6674,-950 90.6674,-950 90.6674,-950 355.013,-950 355.013,-950 361.013,-950 367.013,-956 367.013,-962 367.013,-962 367.013,-974 367.013,-974 367.013,-980 361.013,-986 355.013,-986"/>
<text text-anchor="middle" x="222.84" y="-965" font-family="Times,serif" font-size="10.00" fill="#000033">VinaiKopp_PostCodeFilter_Block_Adminhtml_Postcodefilter_Grid</text>
</g>
<!-- VinaiKopp_PostCodeFilter_Block_Adminhtml_Postcodefilter_New -->
<g id="node34" class="node"><title>VinaiKopp_PostCodeFilter_Block_Adminhtml_Postcodefilter_New</title>
<path fill="#9999cc" stroke="black" d="M355.065,-1068C355.065,-1068 90.6156,-1068 90.6156,-1068 84.6156,-1068 78.6156,-1062 78.6156,-1056 78.6156,-1056 78.6156,-1044 78.6156,-1044 78.6156,-1038 84.6156,-1032 90.6156,-1032 90.6156,-1032 355.065,-1032 355.065,-1032 361.065,-1032 367.065,-1038 367.065,-1044 367.065,-1044 367.065,-1056 367.065,-1056 367.065,-1062 361.065,-1068 355.065,-1068"/>
<text text-anchor="middle" x="222.84" y="-1047" font-family="Times,serif" font-size="10.00" fill="#000033">VinaiKopp_PostCodeFilter_Block_Adminhtml_Postcodefilter_New</text>
</g>
<!-- VinaiKopp_PostCodeFilter_Block_Adminhtml_Postcodefilter -->
<g id="node35" class="node"><title>VinaiKopp_PostCodeFilter_Block_Adminhtml_Postcodefilter</title>
<path fill="#9999cc" stroke="black" d="M343.183,-1150C343.183,-1150 102.498,-1150 102.498,-1150 96.4975,-1150 90.4975,-1144 90.4975,-1138 90.4975,-1138 90.4975,-1126 90.4975,-1126 90.4975,-1120 96.4975,-1114 102.498,-1114 102.498,-1114 343.183,-1114 343.183,-1114 349.183,-1114 355.183,-1120 355.183,-1126 355.183,-1126 355.183,-1138 355.183,-1138 355.183,-1144 349.183,-1150 343.183,-1150"/>
<text text-anchor="middle" x="222.84" y="-1129" font-family="Times,serif" font-size="10.00" fill="#000033">VinaiKopp_PostCodeFilter_Block_Adminhtml_Postcodefilter</text>
</g>
<!-- VinaiKopp_PostCodeFilter_Helper_Data -->
<g id="node36" class="node"><title>VinaiKopp_PostCodeFilter_Helper_Data</title>
<path fill="#9999cc" stroke="black" d="M796.81,-611C796.81,-611 639.946,-611 639.946,-611 633.946,-611 627.946,-605 627.946,-599 627.946,-599 627.946,-587 627.946,-587 627.946,-581 633.946,-575 639.946,-575 639.946,-575 796.81,-575 796.81,-575 802.81,-575 808.81,-581 808.81,-587 808.81,-587 808.81,-599 808.81,-599 808.81,-605 802.81,-611 796.81,-611"/>
<text text-anchor="middle" x="718.378" y="-590" font-family="Times,serif" font-size="10.00" fill="#000033">VinaiKopp_PostCodeFilter_Helper_Data</text>
</g>
<!-- VinaiKopp_PostCodeFilter_Helper_Data&#45;&gt;VinaiKopp\\PostCodeFilter\\AdminViewsRuleList -->
<g id="edge85" class="edge"><title>VinaiKopp_PostCodeFilter_Helper_Data&#45;&gt;VinaiKopp\\PostCodeFilter\\AdminViewsRuleList</title>
<path fill="none" stroke="#999999" d="M809.03,-599.053C879.181,-603.789 977.111,-610.401 1052.3,-615.477"/>
<polygon fill="#999999" stroke="#999999" points="1052.46,-617.593 1058.59,-615.902 1052.74,-613.402 1052.46,-617.593"/>
</g>
<!-- VinaiKopp_PostCodeFilter_Helper_Data&#45;&gt;VinaiKopp\\PostCodeFilter\\CustomerSpecifiesShippingAddress -->
<g id="edge84" class="edge"><title>VinaiKopp_PostCodeFilter_Helper_Data&#45;&gt;VinaiKopp\\PostCodeFilter\\CustomerSpecifiesShippingAddress</title>
<path fill="none" stroke="#999999" d="M808.288,-611.023C861.323,-621.435 930.07,-634.341 991.422,-644 1001.98,-645.662 1012.91,-647.285 1023.92,-648.849"/>
<polygon fill="#999999" stroke="#999999" points="1023.81,-650.954 1030.04,-649.712 1024.39,-646.795 1023.81,-650.954"/>
</g>
<!-- VinaiKopp_PostCodeFilter_Helper_Data&#45;&gt;VinaiKopp\\PostCodeFilter\\Storage\\RuleRepositoryReader -->
<g id="edge83" class="edge"><title>VinaiKopp_PostCodeFilter_Helper_Data&#45;&gt;VinaiKopp\\PostCodeFilter\\Storage\\RuleRepositoryReader</title>
<path fill="none" stroke="#999999" d="M809.03,-575.85C882.781,-561.742 987.235,-541.761 1063.69,-527.135"/>
<polygon fill="#999999" stroke="#999999" points="1064.11,-529.193 1069.61,-526.003 1063.32,-525.068 1064.11,-529.193"/>
</g>
<!-- VinaiKopp_PostCodeFilter_Helper_Data&#45;&gt;VinaiKopp\\PostCodeFilter\\Storage\\RuleStorage -->
<g id="edge81" class="edge"><title>VinaiKopp_PostCodeFilter_Helper_Data&#45;&gt;VinaiKopp\\PostCodeFilter\\Storage\\RuleStorage</title>
<path fill="none" stroke="#999999" d="M758.392,-611.125C810.267,-634.131 905.429,-672.562 991.422,-687 1143.34,-712.506 1185.82,-710.755 1338.02,-687 1413.82,-675.169 1497.74,-644.995 1549.04,-624.482"/>
<polygon fill="#999999" stroke="#999999" points="1550.04,-626.343 1554.83,-622.155 1548.48,-622.446 1550.04,-626.343"/>
</g>
<!-- VinaiKopp_PostCodeFilter_Helper_Data&#45;&gt;VinaiKopp\\PostCodeFilter\\Storage\\RuleRepositoryWriter -->
<g id="edge82" class="edge"><title>VinaiKopp_PostCodeFilter_Helper_Data&#45;&gt;VinaiKopp\\PostCodeFilter\\Storage\\RuleRepositoryWriter</title>
<path fill="none" stroke="#999999" d="M809.03,-590.377C873.88,-588.48 962.469,-585.888 1034.89,-583.769"/>
<polygon fill="#999999" stroke="#999999" points="1035.02,-585.866 1040.96,-583.592 1034.9,-581.668 1035.02,-585.866"/>
</g>
<!-- VinaiKopp_PostCodeFilter_Model_Observer -->
<g id="node37" class="node"><title>VinaiKopp_PostCodeFilter_Model_Observer</title>
<path fill="#9999cc" stroke="black" d="M309.447,-566C309.447,-566 136.233,-566 136.233,-566 130.233,-566 124.233,-560 124.233,-554 124.233,-554 124.233,-542 124.233,-542 124.233,-536 130.233,-530 136.233,-530 136.233,-530 309.447,-530 309.447,-530 315.447,-530 321.447,-536 321.447,-542 321.447,-542 321.447,-554 321.447,-554 321.447,-560 315.447,-566 309.447,-566"/>
<text text-anchor="middle" x="222.84" y="-545" font-family="Times,serif" font-size="10.00" fill="#000033">VinaiKopp_PostCodeFilter_Model_Observer</text>
</g>
<!-- VinaiKopp_PostCodeFilter_Model_Observer&#45;&gt;VinaiKopp\\PostCodeFilter\\CustomerSpecifiesShippingAddress -->
<g id="edge86" class="edge"><title>VinaiKopp_PostCodeFilter_Model_Observer&#45;&gt;VinaiKopp\\PostCodeFilter\\CustomerSpecifiesShippingAddress</title>
<path fill="none" stroke="#999999" d="M295.301,-529.993C429.871,-500.166 726.2,-454.198 936.075,-566 973.591,-585.985 954.971,-622.133 991.422,-644 1001.44,-650.011 1012.38,-654.706 1023.72,-658.346"/>
<polygon fill="#999999" stroke="#999999" points="1023.33,-660.423 1029.68,-660.155 1024.55,-656.404 1023.33,-660.423"/>
</g>
<!-- VinaiKopp_PostCodeFilter_Model_Observer&#45;&gt;VinaiKopp_PostCodeFilter_Helper_Data -->
<g id="edge87" class="edge"><title>VinaiKopp_PostCodeFilter_Model_Observer&#45;&gt;VinaiKopp_PostCodeFilter_Helper_Data</title>
<path fill="none" stroke="#999999" d="M321.642,-556.917C408.637,-564.85 535.105,-576.381 621.509,-584.259"/>
<polygon fill="#999999" stroke="#999999" points="621.493,-586.366 627.659,-584.82 621.875,-582.183 621.493,-586.366"/>
</g>
<!-- VinaiKopp_PostCodeFilter_Model_Resource_RuleStorage -->
<g id="node38" class="node"><title>VinaiKopp_PostCodeFilter_Model_Resource_RuleStorage</title>
<path fill="#9999cc" stroke="black" d="M1278.82,-68C1278.82,-68 1050.62,-68 1050.62,-68 1044.62,-68 1038.62,-62 1038.62,-56 1038.62,-56 1038.62,-44 1038.62,-44 1038.62,-38 1044.62,-32 1050.62,-32 1050.62,-32 1278.82,-32 1278.82,-32 1284.82,-32 1290.82,-38 1290.82,-44 1290.82,-44 1290.82,-56 1290.82,-56 1290.82,-62 1284.82,-68 1278.82,-68"/>
<text text-anchor="middle" x="1164.72" y="-47" font-family="Times,serif" font-size="10.00" fill="#000033">VinaiKopp_PostCodeFilter_Model_Resource_RuleStorage</text>
</g>
<!-- VinaiKopp_PostCodeFilter_Model_Resource_RuleStorage&#45;&gt;VinaiKopp\\PostCodeFilter\\Storage\\RuleStorage -->
<g id="edge88" class="edge"><title>VinaiKopp_PostCodeFilter_Model_Resource_RuleStorage&#45;&gt;VinaiKopp\\PostCodeFilter\\Storage\\RuleStorage</title>
<path fill="none" stroke="#999999" stroke-dasharray="5,2" d="M1282.9,-68.1216C1303.81,-76.2918 1323.52,-88.0642 1338.02,-105 1472.28,-261.832 1267.48,-414.034 1409.37,-564 1429.82,-585.62 1458.84,-597.032 1487.98,-602.724"/>
<polygon fill="#999999" stroke="#999999" points="1487.91,-604.847 1494.19,-603.854 1488.67,-600.715 1487.91,-604.847"/>
</g>
<!-- VinaiKopp_PostCodeFilter_Model_RuleCollection -->
<g id="node39" class="node"><title>VinaiKopp_PostCodeFilter_Model_RuleCollection</title>
<path fill="#9999cc" stroke="black" d="M321.344,-730C321.344,-730 124.337,-730 124.337,-730 118.337,-730 112.337,-724 112.337,-718 112.337,-718 112.337,-706 112.337,-706 112.337,-700 118.337,-694 124.337,-694 124.337,-694 321.344,-694 321.344,-694 327.344,-694 333.344,-700 333.344,-706 333.344,-706 333.344,-718 333.344,-718 333.344,-724 327.344,-730 321.344,-730"/>
<text text-anchor="middle" x="222.84" y="-709" font-family="Times,serif" font-size="10.00" fill="#000033">VinaiKopp_PostCodeFilter_Model_RuleCollection</text>
</g>
<!-- VinaiKopp_PostCodeFilter_Model_RuleCollection&#45;&gt;VinaiKopp\\PostCodeFilter\\Rule\\Rule -->
<g id="edge92" class="edge"><title>VinaiKopp_PostCodeFilter_Model_RuleCollection&#45;&gt;VinaiKopp\\PostCodeFilter\\Rule\\Rule</title>
<path fill="none" stroke="#999999" d="M316.673,-730.018C370.47,-739.542 439.631,-750.227 501.681,-755 787.582,-776.993 1534.26,-781.496 1787.51,-647 1830.34,-624.252 1825.87,-599.941 1859.51,-565 1909.81,-512.744 1972.4,-455.143 2006.49,-424.352"/>
<polygon fill="#999999" stroke="#999999" points="2008.26,-425.585 2011.31,-420.007 2005.45,-422.466 2008.26,-425.585"/>
</g>
<!-- VinaiKopp_PostCodeFilter_Model_RuleCollection&#45;&gt;VinaiKopp\\PostCodeFilter\\AdminViewsRuleList -->
<g id="edge90" class="edge"><title>VinaiKopp_PostCodeFilter_Model_RuleCollection&#45;&gt;VinaiKopp\\PostCodeFilter\\AdminViewsRuleList</title>
<path fill="none" stroke="#999999" d="M333.607,-698.095C384.662,-691.851 446.226,-684.637 501.681,-679 528.558,-676.268 870.752,-647.535 1052.29,-632.327"/>
<polygon fill="#999999" stroke="#999999" points="1052.61,-634.407 1058.41,-631.814 1052.26,-630.222 1052.61,-634.407"/>
</g>
<!-- VinaiKopp_PostCodeFilter_Model_RuleCollection&#45;&gt;VinaiKopp_PostCodeFilter_Helper_Data -->
<g id="edge91" class="edge"><title>VinaiKopp_PostCodeFilter_Model_RuleCollection&#45;&gt;VinaiKopp_PostCodeFilter_Helper_Data</title>
<path fill="none" stroke="#999999" d="M333.59,-699.317C369.831,-694.182 410.197,-687.439 446.681,-679 467.387,-674.21 582.975,-636.868 656.257,-612.99"/>
<polygon fill="#999999" stroke="#999999" points="657.28,-614.865 662.334,-611.009 655.979,-610.872 657.28,-614.865"/>
</g>
<!-- Varien_Data_Collection_Db -->
<g id="node40" class="node"><title>Varien_Data_Collection_Db</title>
<path fill="#9999cc" stroke="black" d="M771.235,-724C771.235,-724 665.52,-724 665.52,-724 659.52,-724 653.52,-718 653.52,-712 653.52,-712 653.52,-700 653.52,-700 653.52,-694 659.52,-688 665.52,-688 665.52,-688 771.235,-688 771.235,-688 777.235,-688 783.235,-694 783.235,-700 783.235,-700 783.235,-712 783.235,-712 783.235,-718 777.235,-724 771.235,-724"/>
<text text-anchor="middle" x="718.378" y="-703" font-family="Times,serif" font-size="10.00" fill="#000033">Varien_Data_Collection_Db</text>
</g>
<!-- VinaiKopp_PostCodeFilter_Model_RuleCollection&#45;&gt;Varien_Data_Collection_Db -->
<g id="edge89" class="edge"><title>VinaiKopp_PostCodeFilter_Model_RuleCollection&#45;&gt;Varien_Data_Collection_Db</title>
<path fill="none" stroke="#999999" stroke-dasharray="5,2" d="M333.372,-710.668C429.136,-709.504 565.331,-707.848 647.158,-706.854"/>
<polygon fill="#999999" stroke="#999999" points="647.467,-708.95 653.441,-706.777 647.416,-704.75 647.467,-708.95"/>
</g>
<!-- VinaiKopp_PostCodeFilter_Adminhtml_Vinaikopp_PostcodefilterController -->
<g id="node41" class="node"><title>VinaiKopp_PostCodeFilter_Adminhtml_Vinaikopp_PostcodefilterController</title>
<path fill="#9999cc" stroke="black" d="M372.521,-334C372.521,-334 73.1595,-334 73.1595,-334 67.1595,-334 61.1595,-328 61.1595,-322 61.1595,-322 61.1595,-310 61.1595,-310 61.1595,-304 67.1595,-298 73.1595,-298 73.1595,-298 372.521,-298 372.521,-298 378.521,-298 384.521,-304 384.521,-310 384.521,-310 384.521,-322 384.521,-322 384.521,-328 378.521,-334 372.521,-334"/>
<text text-anchor="middle" x="222.84" y="-313" font-family="Times,serif" font-size="10.00" fill="#000033">VinaiKopp_PostCodeFilter_Adminhtml_Vinaikopp_PostcodefilterController</text>
</g>
<!-- VinaiKopp_PostCodeFilter_Adminhtml_Vinaikopp_PostcodefilterController&#45;&gt;VinaiKopp\\PostCodeFilter\\AdminAddsRule -->
<g id="edge93" class="edge"><title>VinaiKopp_PostCodeFilter_Adminhtml_Vinaikopp_PostcodefilterController&#45;&gt;VinaiKopp\\PostCodeFilter\\AdminAddsRule</title>
<path fill="none" stroke="#999999" d="M316.476,-297.997C370.357,-288.028 439.668,-276.059 501.681,-268 699.343,-242.313 931.721,-224.882 1061.94,-216.262"/>
<polygon fill="#999999" stroke="#999999" points="1062.22,-218.348 1068.07,-215.858 1061.94,-214.157 1062.22,-218.348"/>
</g>
<!-- VinaiKopp_PostCodeFilter_Adminhtml_Vinaikopp_PostcodefilterController&#45;&gt;VinaiKopp\\PostCodeFilter\\AdminDeletesRule -->
<g id="edge94" class="edge"><title>VinaiKopp_PostCodeFilter_Adminhtml_Vinaikopp_PostcodefilterController&#45;&gt;VinaiKopp\\PostCodeFilter\\AdminDeletesRule</title>
<path fill="none" stroke="#999999" d="M384.61,-326.434C576.836,-338.91 893.132,-359.438 1057.34,-370.096"/>
<polygon fill="#999999" stroke="#999999" points="1057.47,-372.209 1063.6,-370.502 1057.75,-368.018 1057.47,-372.209"/>
</g>
<!-- VinaiKopp_PostCodeFilter_Adminhtml_Vinaikopp_PostcodefilterController&#45;&gt;VinaiKopp\\PostCodeFilter\\AdminUpdatesRule -->
<g id="edge95" class="edge"><title>VinaiKopp_PostCodeFilter_Adminhtml_Vinaikopp_PostcodefilterController&#45;&gt;VinaiKopp\\PostCodeFilter\\AdminUpdatesRule</title>
<path fill="none" stroke="#999999" d="M384.61,-316C576.319,-316 891.429,-316 1056.01,-316"/>
<polygon fill="#999999" stroke="#999999" points="1056.28,-318.1 1062.28,-316 1056.28,-313.9 1056.28,-318.1"/>
</g>
<!-- VinaiKopp_PostCodeFilter_Adminhtml_Vinaikopp_PostcodefilterController&#45;&gt;VinaiKopp\\PostCodeFilter\\AdminViewsSingleRule -->
<g id="edge96" class="edge"><title>VinaiKopp_PostCodeFilter_Adminhtml_Vinaikopp_PostcodefilterController&#45;&gt;VinaiKopp\\PostCodeFilter\\AdminViewsSingleRule</title>
<path fill="none" stroke="#999999" d="M384.61,-305.224C572.953,-292.599 880.403,-271.991 1047.2,-260.81"/>
<polygon fill="#999999" stroke="#999999" points="1047.72,-262.88 1053.57,-260.384 1047.44,-258.69 1047.72,-262.88"/>
</g>
<!-- VinaiKopp_PostCodeFilter_Adminhtml_Vinaikopp_PostcodefilterController&#45;&gt;VinaiKopp_PostCodeFilter_Helper_Data -->
<g id="edge97" class="edge"><title>VinaiKopp_PostCodeFilter_Adminhtml_Vinaikopp_PostcodefilterController&#45;&gt;VinaiKopp_PostCodeFilter_Helper_Data</title>
<path fill="none" stroke="#999999" d="M256.223,-334.175C344.007,-383.444 586.197,-519.374 679.784,-571.9"/>
<polygon fill="#999999" stroke="#999999" points="678.938,-573.833 685.198,-574.939 680.993,-570.171 678.938,-573.833"/>
</g>
<!-- VinaiKopp_PostCodeFilter_Frontend_CheckController -->
<g id="node42" class="node"><title>VinaiKopp_PostCodeFilter_Frontend_CheckController</title>
<path fill="#9999cc" stroke="black" d="M329.447,-648C329.447,-648 116.234,-648 116.234,-648 110.234,-648 104.234,-642 104.234,-636 104.234,-636 104.234,-624 104.234,-624 104.234,-618 110.234,-612 116.234,-612 116.234,-612 329.447,-612 329.447,-612 335.447,-612 341.447,-618 341.447,-624 341.447,-624 341.447,-636 341.447,-636 341.447,-642 335.447,-648 329.447,-648"/>
<text text-anchor="middle" x="222.84" y="-627" font-family="Times,serif" font-size="10.00" fill="#000033">VinaiKopp_PostCodeFilter_Frontend_CheckController</text>
</g>
<!-- VinaiKopp_PostCodeFilter_Frontend_CheckController&#45;&gt;VinaiKopp\\PostCodeFilter\\CustomerSpecifiesShippingAddress -->
<g id="edge98" class="edge"><title>VinaiKopp_PostCodeFilter_Frontend_CheckController&#45;&gt;VinaiKopp\\PostCodeFilter\\CustomerSpecifiesShippingAddress</title>
<path fill="none" stroke="#999999" d="M341.449,-635.26C390.921,-637.426 449.096,-639.911 501.681,-642 681.835,-649.156 889.601,-656.547 1023.61,-661.203"/>
<polygon fill="#999999" stroke="#999999" points="1023.87,-663.313 1029.94,-661.422 1024.01,-659.115 1023.87,-663.313"/>
</g>
<!-- VinaiKopp_PostCodeFilter_Frontend_CheckController&#45;&gt;VinaiKopp_PostCodeFilter_Helper_Data -->
<g id="edge99" class="edge"><title>VinaiKopp_PostCodeFilter_Frontend_CheckController&#45;&gt;VinaiKopp_PostCodeFilter_Helper_Data</title>
<path fill="none" stroke="#999999" d="M341.741,-621.161C427.336,-614.744 541.683,-606.172 621.647,-600.177"/>
<polygon fill="#999999" stroke="#999999" points="621.999,-602.256 627.825,-599.714 621.685,-598.068 621.999,-602.256"/>
</g>
</g>
</svg>
