<?xml version="1.0" encoding="UTF-8" standalone="no"?>
<!DOCTYPE svg PUBLIC "-//W3C//DTD SVG 1.1//EN"
 "http://www.w3.org/Graphics/SVG/1.1/DTD/svg11.dtd">
<!-- Generated by graphviz version 2.38.0 (20140413.2041)
 -->
<!-- Title: G Pages: 1 -->
<svg width="3286pt" height="1148pt"
 viewBox="0.00 0.00 3286.24 1148.00" xmlns="http://www.w3.org/2000/svg" xmlns:xlink="http://www.w3.org/1999/xlink">
<g id="graph0" class="graph" transform="scale(1 1) rotate(0) translate(4 1144)">
<title>G</title>
<polygon fill="white" stroke="none" points="-4,4 -4,-1144 3282.24,-1144 3282.24,4 -4,4"/>
<text text-anchor="middle" x="1639.12" y="-5.6" font-family="Times,serif" font-size="8.00">PhpDependencyAnalyse by Marco Muths (v0.5.0)</text>
<g id="clust1" class="cluster"><title>cluster_0</title>
<path fill="#ccccff" stroke="#000033" d="M1013.08,-24C1013.08,-24 3258.24,-24 3258.24,-24 3264.24,-24 3270.24,-30 3270.24,-36 3270.24,-36 3270.24,-612 3270.24,-612 3270.24,-618 3264.24,-624 3258.24,-624 3258.24,-624 1013.08,-624 1013.08,-624 1007.08,-624 1001.08,-618 1001.08,-612 1001.08,-612 1001.08,-36 1001.08,-36 1001.08,-30 1007.08,-24 1013.08,-24"/>
<text text-anchor="middle" x="1039.77" y="-608.8" font-family="Times,serif" font-size="14.00" fill="#000033">VinaiKopp</text>
</g>
<g id="clust2" class="cluster"><title>cluster_1</title>
<path fill="#ccccff" stroke="#000033" d="M19.2515,-730C19.2515,-730 426.429,-730 426.429,-730 432.429,-730 438.429,-736 438.429,-742 438.429,-742 438.429,-792 438.429,-792 438.429,-798 432.429,-804 426.429,-804 426.429,-804 19.2515,-804 19.2515,-804 13.2515,-804 7.25146,-798 7.25146,-792 7.25146,-792 7.25146,-742 7.25146,-742 7.25146,-736 13.2515,-730 19.2515,-730"/>
<text text-anchor="middle" x="223.276" y="-788.8" font-family="Times,serif" font-size="14.00" fill="#000033">VinaiKopp_PostCodeFilter_Block_Adminhtml_Postcodefilter_Edit_Form</text>
</g>
<g id="clust3" class="cluster"><title>cluster_2</title>
<path fill="#ccccff" stroke="#000033" d="M513.681,-730C513.681,-730 924.075,-730 924.075,-730 930.075,-730 936.075,-736 936.075,-742 936.075,-742 936.075,-792 936.075,-792 936.075,-798 930.075,-804 924.075,-804 924.075,-804 513.681,-804 513.681,-804 507.681,-804 501.681,-798 501.681,-792 501.681,-792 501.681,-742 501.681,-742 501.681,-736 507.681,-730 513.681,-730"/>
<text text-anchor="middle" x="719.257" y="-788.8" font-family="Times,serif" font-size="14.00" fill="#000033">VinaiKopp_PostCodeFilter_Block_Adminhtml_Postcodefilter_New_Form</text>
</g>
<g id="clust4" class="cluster"><title>cluster_3</title>
<path fill="#ccccff" stroke="#000033" d="M37.5864,-812C37.5864,-812 408.094,-812 408.094,-812 414.094,-812 420.094,-818 420.094,-824 420.094,-824 420.094,-874 420.094,-874 420.094,-880 414.094,-886 408.094,-886 408.094,-886 37.5864,-886 37.5864,-886 31.5864,-886 25.5864,-880 25.5864,-874 25.5864,-874 25.5864,-824 25.5864,-824 25.5864,-818 31.5864,-812 37.5864,-812"/>
<text text-anchor="middle" x="222.942" y="-870.8" font-family="Times,serif" font-size="14.00" fill="#000033">VinaiKopp_PostCodeFilter_Block_Adminhtml_Postcodefilter_Edit</text>
</g>
<g id="clust5" class="cluster"><title>cluster_4</title>
<path fill="#ccccff" stroke="#000033" d="M36.7539,-894C36.7539,-894 408.927,-894 408.927,-894 414.927,-894 420.927,-900 420.927,-906 420.927,-906 420.927,-956 420.927,-956 420.927,-962 414.927,-968 408.927,-968 408.927,-968 36.7539,-968 36.7539,-968 30.7539,-968 24.7539,-962 24.7539,-956 24.7539,-956 24.7539,-906 24.7539,-906 24.7539,-900 30.7539,-894 36.7539,-894"/>
<text text-anchor="middle" x="223.275" y="-952.8" font-family="Times,serif" font-size="14.00" fill="#000033">VinaiKopp_PostCodeFilter_Block_Adminhtml_Postcodefilter_Grid</text>
</g>
<g id="clust6" class="cluster"><title>cluster_5</title>
<path fill="#ccccff" stroke="#000033" d="M36.478,-976C36.478,-976 410.203,-976 410.203,-976 416.203,-976 422.203,-982 422.203,-988 422.203,-988 422.203,-1038 422.203,-1038 422.203,-1044 416.203,-1050 410.203,-1050 410.203,-1050 36.478,-1050 36.478,-1050 30.478,-1050 24.478,-1044 24.478,-1038 24.478,-1038 24.478,-988 24.478,-988 24.478,-982 30.478,-976 36.478,-976"/>
<text text-anchor="middle" x="223.385" y="-1034.8" font-family="Times,serif" font-size="14.00" fill="#000033">VinaiKopp_PostCodeFilter_Block_Adminhtml_Postcodefilter_New</text>
</g>
<g id="clust7" class="cluster"><title>cluster_6</title>
<path fill="#ccccff" stroke="#000033" d="M53.4189,-1058C53.4189,-1058 393.262,-1058 393.262,-1058 399.262,-1058 405.262,-1064 405.262,-1070 405.262,-1070 405.262,-1120 405.262,-1120 405.262,-1126 399.262,-1132 393.262,-1132 393.262,-1132 53.4189,-1132 53.4189,-1132 47.4189,-1132 41.4189,-1126 41.4189,-1120 41.4189,-1120 41.4189,-1070 41.4189,-1070 41.4189,-1064 47.4189,-1058 53.4189,-1058"/>
<text text-anchor="middle" x="223.609" y="-1116.8" font-family="Times,serif" font-size="14.00" fill="#000033">VinaiKopp_PostCodeFilter_Block_Adminhtml_Postcodefilter</text>
</g>
<g id="clust8" class="cluster"><title>cluster_7</title>
<path fill="#ccccff" stroke="#000033" d="M607.912,-506C607.912,-506 829.844,-506 829.844,-506 835.844,-506 841.844,-512 841.844,-518 841.844,-518 841.844,-568 841.844,-568 841.844,-574 835.844,-580 829.844,-580 829.844,-580 607.912,-580 607.912,-580 601.912,-580 595.912,-574 595.912,-568 595.912,-568 595.912,-518 595.912,-518 595.912,-512 601.912,-506 607.912,-506"/>
<text text-anchor="middle" x="719.364" y="-564.8" font-family="Times,serif" font-size="14.00" fill="#000033">VinaiKopp_PostCodeFilter_Helper_Data</text>
</g>
<g id="clust9" class="cluster"><title>cluster_8</title>
<path fill="#ccccff" stroke="#000033" d="M100.037,-560C100.037,-560 345.644,-560 345.644,-560 351.644,-560 357.644,-566 357.644,-572 357.644,-572 357.644,-622 357.644,-622 357.644,-628 351.644,-634 345.644,-634 345.644,-634 100.037,-634 100.037,-634 94.0371,-634 88.0371,-628 88.0371,-622 88.0371,-622 88.0371,-572 88.0371,-572 88.0371,-566 94.0371,-560 100.037,-560"/>
<text text-anchor="middle" x="223.162" y="-618.8" font-family="Times,serif" font-size="14.00" fill="#000033">VinaiKopp_PostCodeFilter_Model_Observer</text>
</g>
<g id="clust10" class="cluster"><title>cluster_9</title>
<path fill="#ccccff" stroke="#000033" d="M1003.25,-632C1003.25,-632 1325.85,-632 1325.85,-632 1331.85,-632 1337.85,-638 1337.85,-644 1337.85,-644 1337.85,-694 1337.85,-694 1337.85,-700 1331.85,-706 1325.85,-706 1325.85,-706 1003.25,-706 1003.25,-706 997.252,-706 991.252,-700 991.252,-694 991.252,-694 991.252,-644 991.252,-644 991.252,-638 997.252,-632 1003.25,-632"/>
<text text-anchor="middle" x="1164.87" y="-690.8" font-family="Times,serif" font-size="14.00" fill="#000033">VinaiKopp_PostCodeFilter_Model_Resource_RuleStorage</text>
</g>
<g id="clust11" class="cluster"><title>cluster_10</title>
<path fill="#ccccff" stroke="#000033" d="M83.0889,-646C83.0889,-646 362.592,-646 362.592,-646 368.592,-646 374.592,-652 374.592,-658 374.592,-658 374.592,-708 374.592,-708 374.592,-714 368.592,-720 362.592,-720 362.592,-720 83.0889,-720 83.0889,-720 77.0889,-720 71.0889,-714 71.0889,-708 71.0889,-708 71.0889,-658 71.0889,-658 71.0889,-652 77.0889,-646 83.0889,-646"/>
<text text-anchor="middle" x="222.941" y="-704.8" font-family="Times,serif" font-size="14.00" fill="#000033">VinaiKopp_PostCodeFilter_Model_RuleCollection</text>
</g>
<g id="clust12" class="cluster"><title>cluster_11</title>
<path fill="#ccccff" stroke="#000033" d="M643.449,-604C643.449,-604 794.307,-604 794.307,-604 800.307,-604 806.307,-610 806.307,-616 806.307,-616 806.307,-666 806.307,-666 806.307,-672 800.307,-678 794.307,-678 794.307,-678 643.449,-678 643.449,-678 637.449,-678 631.449,-672 631.449,-666 631.449,-666 631.449,-616 631.449,-616 631.449,-610 637.449,-604 643.449,-604"/>
<text text-anchor="middle" x="719.149" y="-662.8" font-family="Times,serif" font-size="14.00" fill="#000033">Varien_Data_Collection_Db</text>
</g>
<g id="clust13" class="cluster"><title>cluster_12</title>
<path fill="#ccccff" stroke="#000033" d="M12,-204C12,-204 434.681,-204 434.681,-204 440.681,-204 446.681,-210 446.681,-216 446.681,-216 446.681,-266 446.681,-266 446.681,-272 440.681,-278 434.681,-278 434.681,-278 12,-278 12,-278 6,-278 0,-272 0,-266 0,-266 0,-216 0,-216 0,-210 6,-204 12,-204"/>
<text text-anchor="middle" x="223.376" y="-262.8" font-family="Times,serif" font-size="14.00" fill="#000033">VinaiKopp_PostCodeFilter_Adminhtml_Vinaikopp_PostcodefilterController</text>
</g>
<g id="clust14" class="cluster"><title>cluster_13</title>
<path fill="#ccccff" stroke="#000033" d="M72.0371,-476C72.0371,-476 373.644,-476 373.644,-476 379.644,-476 385.644,-482 385.644,-488 385.644,-488 385.644,-538 385.644,-538 385.644,-544 379.644,-550 373.644,-550 373.644,-550 72.0371,-550 72.0371,-550 66.0371,-550 60.0371,-544 60.0371,-538 60.0371,-538 60.0371,-488 60.0371,-488 60.0371,-482 66.0371,-476 72.0371,-476"/>
<text text-anchor="middle" x="223.162" y="-534.8" font-family="Times,serif" font-size="14.00" fill="#000033">VinaiKopp_PostCodeFilter_Frontend_CheckController</text>
</g>
<!-- VinaiKopp\\PostCodeFilter\\Exceptions\\InvalidCountryException -->
<g id="node1" class="node"><title>VinaiKopp\\PostCodeFilter\\Exceptions\\InvalidCountryException</title>
<path fill="#9999cc" stroke="black" d="M2864.12,-382C2864.12,-382 2613.6,-382 2613.6,-382 2607.6,-382 2601.6,-376 2601.6,-370 2601.6,-370 2601.6,-358 2601.6,-358 2601.6,-352 2607.6,-346 2613.6,-346 2613.6,-346 2864.12,-346 2864.12,-346 2870.12,-346 2876.12,-352 2876.12,-358 2876.12,-358 2876.12,-370 2876.12,-370 2876.12,-376 2870.12,-382 2864.12,-382"/>
<text text-anchor="middle" x="2738.86" y="-361" font-family="Times,serif" font-size="10.00" fill="#000033">VinaiKopp\PostCodeFilter\Exceptions\InvalidCountryException</text>
</g>
<!-- VinaiKopp\\PostCodeFilter\\Exceptions\\InvalidCustomerGroupIdException -->
<g id="node2" class="node"><title>VinaiKopp\\PostCodeFilter\\Exceptions\\InvalidCustomerGroupIdException</title>
<path fill="#9999cc" stroke="black" d="M3250.37,-471C3250.37,-471 2959.86,-471 2959.86,-471 2953.86,-471 2947.86,-465 2947.86,-459 2947.86,-459 2947.86,-447 2947.86,-447 2947.86,-441 2953.86,-435 2959.86,-435 2959.86,-435 3250.37,-435 3250.37,-435 3256.37,-435 3262.37,-441 3262.37,-447 3262.37,-447 3262.37,-459 3262.37,-459 3262.37,-465 3256.37,-471 3250.37,-471"/>
<text text-anchor="middle" x="3105.12" y="-450" font-family="Times,serif" font-size="10.00" fill="#000033">VinaiKopp\PostCodeFilter\Exceptions\InvalidCustomerGroupIdException</text>
</g>
<!-- VinaiKopp\\PostCodeFilter\\Exceptions\\InvalidPostCodeException -->
<g id="node3" class="node"><title>VinaiKopp\\PostCodeFilter\\Exceptions\\InvalidPostCodeException</title>
<path fill="#9999cc" stroke="black" d="M3232.94,-220C3232.94,-220 2977.29,-220 2977.29,-220 2971.29,-220 2965.29,-214 2965.29,-208 2965.29,-208 2965.29,-196 2965.29,-196 2965.29,-190 2971.29,-184 2977.29,-184 2977.29,-184 3232.94,-184 3232.94,-184 3238.94,-184 3244.94,-190 3244.94,-196 3244.94,-196 3244.94,-208 3244.94,-208 3244.94,-214 3238.94,-220 3232.94,-220"/>
<text text-anchor="middle" x="3105.12" y="-199" font-family="Times,serif" font-size="10.00" fill="#000033">VinaiKopp\PostCodeFilter\Exceptions\InvalidPostCodeException</text>
</g>
<!-- VinaiKopp\\PostCodeFilter\\Exceptions\\NonMatchingRecordInResultException -->
<g id="node4" class="node"><title>VinaiKopp\\PostCodeFilter\\Exceptions\\NonMatchingRecordInResultException</title>
<path fill="#9999cc" stroke="black" d="M1752.07,-488C1752.07,-488 1444.13,-488 1444.13,-488 1438.13,-488 1432.13,-482 1432.13,-476 1432.13,-476 1432.13,-464 1432.13,-464 1432.13,-458 1438.13,-452 1444.13,-452 1444.13,-452 1752.07,-452 1752.07,-452 1758.07,-452 1764.07,-458 1764.07,-464 1764.07,-464 1764.07,-476 1764.07,-476 1764.07,-482 1758.07,-488 1752.07,-488"/>
<text text-anchor="middle" x="1598.1" y="-467" font-family="Times,serif" font-size="10.00" fill="#000033">VinaiKopp\PostCodeFilter\Exceptions\NonMatchingRecordInResultException</text>
</g>
<!-- VinaiKopp\\PostCodeFilter\\Exceptions\\RuleDoesNotExistException -->
<g id="node5" class="node"><title>VinaiKopp\\PostCodeFilter\\Exceptions\\RuleDoesNotExistException</title>
<path fill="#9999cc" stroke="black" d="M1730.25,-287C1730.25,-287 1465.94,-287 1465.94,-287 1459.94,-287 1453.94,-281 1453.94,-275 1453.94,-275 1453.94,-263 1453.94,-263 1453.94,-257 1459.94,-251 1465.94,-251 1465.94,-251 1730.25,-251 1730.25,-251 1736.25,-251 1742.25,-257 1742.25,-263 1742.25,-263 1742.25,-275 1742.25,-275 1742.25,-281 1736.25,-287 1730.25,-287"/>
<text text-anchor="middle" x="1598.1" y="-266" font-family="Times,serif" font-size="10.00" fill="#000033">VinaiKopp\PostCodeFilter\Exceptions\RuleDoesNotExistException</text>
</g>
<!-- VinaiKopp\\PostCodeFilter\\Exceptions\\RuleForGroupAndCountryAlreadyExistsException -->
<g id="node6" class="node"><title>VinaiKopp\\PostCodeFilter\\Exceptions\\RuleForGroupAndCountryAlreadyExistsException</title>
<path fill="#9999cc" stroke="black" d="M1775.24,-68C1775.24,-68 1420.95,-68 1420.95,-68 1414.95,-68 1408.95,-62 1408.95,-56 1408.95,-56 1408.95,-44 1408.95,-44 1408.95,-38 1414.95,-32 1420.95,-32 1420.95,-32 1775.24,-32 1775.24,-32 1781.24,-32 1787.24,-38 1787.24,-44 1787.24,-44 1787.24,-56 1787.24,-56 1787.24,-62 1781.24,-68 1775.24,-68"/>
<text text-anchor="middle" x="1598.1" y="-47" font-family="Times,serif" font-size="10.00" fill="#000033">VinaiKopp\PostCodeFilter\Exceptions\RuleForGroupAndCountryAlreadyExistsException</text>
</g>
<!-- VinaiKopp\\PostCodeFilter\\ReadModel\\Rule -->
<g id="node7" class="node"><title>VinaiKopp\\PostCodeFilter\\ReadModel\\Rule</title>
<path fill="#9999cc" stroke="black" d="M2100.2,-382C2100.2,-382 1930.75,-382 1930.75,-382 1924.75,-382 1918.75,-376 1918.75,-370 1918.75,-370 1918.75,-358 1918.75,-358 1918.75,-352 1924.75,-346 1930.75,-346 1930.75,-346 2100.2,-346 2100.2,-346 2106.2,-346 2112.2,-352 2112.2,-358 2112.2,-358 2112.2,-370 2112.2,-370 2112.2,-376 2106.2,-382 2100.2,-382"/>
<text text-anchor="middle" x="2015.47" y="-361" font-family="Times,serif" font-size="10.00" fill="#000033">VinaiKopp\PostCodeFilter\ReadModel\Rule</text>
</g>
<!-- VinaiKopp\\PostCodeFilter\\RuleComponents\\Country -->
<g id="node8" class="node"><title>VinaiKopp\\PostCodeFilter\\RuleComponents\\Country</title>
<path fill="#9999cc" stroke="black" d="M2490.16,-382C2490.16,-382 2283.35,-382 2283.35,-382 2277.35,-382 2271.35,-376 2271.35,-370 2271.35,-370 2271.35,-358 2271.35,-358 2271.35,-352 2277.35,-346 2283.35,-346 2283.35,-346 2490.16,-346 2490.16,-346 2496.16,-346 2502.16,-352 2502.16,-358 2502.16,-358 2502.16,-370 2502.16,-370 2502.16,-376 2496.16,-382 2490.16,-382"/>
<text text-anchor="middle" x="2386.75" y="-361" font-family="Times,serif" font-size="10.00" fill="#000033">VinaiKopp\PostCodeFilter\RuleComponents\Country</text>
</g>
<!-- VinaiKopp\\PostCodeFilter\\ReadModel\\Rule&#45;&gt;VinaiKopp\\PostCodeFilter\\RuleComponents\\Country -->
<g id="edge1" class="edge"><title>VinaiKopp\\PostCodeFilter\\ReadModel\\Rule&#45;&gt;VinaiKopp\\PostCodeFilter\\RuleComponents\\Country</title>
<path fill="none" stroke="#999999" d="M2112.53,-364C2159.25,-364 2215.88,-364 2265.45,-364"/>
<polygon fill="#999999" stroke="#999999" points="2265.46,-366.1 2271.46,-364 2265.46,-361.9 2265.46,-366.1"/>
</g>
<!-- VinaiKopp\\PostCodeFilter\\RuleComponents\\CustomerGroupIdList -->
<g id="node9" class="node"><title>VinaiKopp\\PostCodeFilter\\RuleComponents\\CustomerGroupIdList</title>
<path fill="#9999cc" stroke="black" d="M2517.7,-296C2517.7,-296 2255.8,-296 2255.8,-296 2249.8,-296 2243.8,-290 2243.8,-284 2243.8,-284 2243.8,-272 2243.8,-272 2243.8,-266 2249.8,-260 2255.8,-260 2255.8,-260 2517.7,-260 2517.7,-260 2523.7,-260 2529.7,-266 2529.7,-272 2529.7,-272 2529.7,-284 2529.7,-284 2529.7,-290 2523.7,-296 2517.7,-296"/>
<text text-anchor="middle" x="2386.75" y="-275" font-family="Times,serif" font-size="10.00" fill="#000033">VinaiKopp\PostCodeFilter\RuleComponents\CustomerGroupIdList</text>
</g>
<!-- VinaiKopp\\PostCodeFilter\\ReadModel\\Rule&#45;&gt;VinaiKopp\\PostCodeFilter\\RuleComponents\\CustomerGroupIdList -->
<g id="edge2" class="edge"><title>VinaiKopp\\PostCodeFilter\\ReadModel\\Rule&#45;&gt;VinaiKopp\\PostCodeFilter\\RuleComponents\\CustomerGroupIdList</title>
<path fill="none" stroke="#999999" d="M2112.52,-346.686C2132.3,-342.258 2152.86,-337.016 2171.78,-331 2204.98,-320.439 2210.29,-309.633 2243.78,-300 2246.69,-299.161 2249.66,-298.351 2252.65,-297.571"/>
<polygon fill="#999999" stroke="#999999" points="2253.53,-299.514 2258.84,-296.01 2252.51,-295.441 2253.53,-299.514"/>
</g>
<!-- VinaiKopp\\PostCodeFilter\\RuleComponents\\PostCodeList -->
<g id="node10" class="node"><title>VinaiKopp\\PostCodeFilter\\RuleComponents\\PostCodeList</title>
<path fill="#9999cc" stroke="black" d="M2500.27,-339C2500.27,-339 2273.23,-339 2273.23,-339 2267.23,-339 2261.23,-333 2261.23,-327 2261.23,-327 2261.23,-315 2261.23,-315 2261.23,-309 2267.23,-303 2273.23,-303 2273.23,-303 2500.27,-303 2500.27,-303 2506.27,-303 2512.27,-309 2512.27,-315 2512.27,-315 2512.27,-327 2512.27,-327 2512.27,-333 2506.27,-339 2500.27,-339"/>
<text text-anchor="middle" x="2386.75" y="-318" font-family="Times,serif" font-size="10.00" fill="#000033">VinaiKopp\PostCodeFilter\RuleComponents\PostCodeList</text>
</g>
<!-- VinaiKopp\\PostCodeFilter\\ReadModel\\Rule&#45;&gt;VinaiKopp\\PostCodeFilter\\RuleComponents\\PostCodeList -->
<g id="edge3" class="edge"><title>VinaiKopp\\PostCodeFilter\\ReadModel\\Rule&#45;&gt;VinaiKopp\\PostCodeFilter\\RuleComponents\\PostCodeList</title>
<path fill="none" stroke="#999999" d="M2112.53,-352.815C2155.98,-347.755 2208,-341.698 2254.94,-336.232"/>
<polygon fill="#999999" stroke="#999999" points="2255.22,-338.314 2260.93,-335.534 2254.73,-334.143 2255.22,-338.314"/>
</g>
<!-- VinaiKopp\\PostCodeFilter\\RuleComponents\\Country&#45;&gt;VinaiKopp\\PostCodeFilter\\Exceptions\\InvalidCountryException -->
<g id="edge21" class="edge"><title>VinaiKopp\\PostCodeFilter\\RuleComponents\\Country&#45;&gt;VinaiKopp\\PostCodeFilter\\Exceptions\\InvalidCountryException</title>
<path fill="none" stroke="#999999" d="M2502.39,-364C2532.12,-364 2564.49,-364 2595.46,-364"/>
<polygon fill="#999999" stroke="#999999" points="2595.63,-366.1 2601.63,-364 2595.63,-361.9 2595.63,-366.1"/>
</g>
<!-- VinaiKopp\\PostCodeFilter\\RuleComponents\\CustomerGroupId -->
<g id="node12" class="node"><title>VinaiKopp\\PostCodeFilter\\RuleComponents\\CustomerGroupId</title>
<path fill="#9999cc" stroke="black" d="M2862.25,-471C2862.25,-471 2615.46,-471 2615.46,-471 2609.46,-471 2603.46,-465 2603.46,-459 2603.46,-459 2603.46,-447 2603.46,-447 2603.46,-441 2609.46,-435 2615.46,-435 2615.46,-435 2862.25,-435 2862.25,-435 2868.25,-435 2874.25,-441 2874.25,-447 2874.25,-447 2874.25,-459 2874.25,-459 2874.25,-465 2868.25,-471 2862.25,-471"/>
<text text-anchor="middle" x="2738.86" y="-450" font-family="Times,serif" font-size="10.00" fill="#000033">VinaiKopp\PostCodeFilter\RuleComponents\CustomerGroupId</text>
</g>
<!-- VinaiKopp\\PostCodeFilter\\RuleComponents\\CustomerGroupIdList&#45;&gt;VinaiKopp\\PostCodeFilter\\RuleComponents\\CustomerGroupId -->
<g id="edge23" class="edge"><title>VinaiKopp\\PostCodeFilter\\RuleComponents\\CustomerGroupIdList&#45;&gt;VinaiKopp\\PostCodeFilter\\RuleComponents\\CustomerGroupId</title>
<path fill="none" stroke="#999999" d="M2522.05,-296.033C2524.66,-297.277 2527.23,-298.598 2529.73,-300 2572.92,-324.207 2562.79,-354.425 2601.73,-385 2626.75,-404.649 2658.36,-420.86 2684.82,-432.519"/>
<polygon fill="#999999" stroke="#999999" points="2684.04,-434.471 2690.38,-434.937 2685.72,-430.62 2684.04,-434.471"/>
</g>
<!-- VinaiKopp\\PostCodeFilter\\RuleComponents\\PostCode -->
<g id="node13" class="node"><title>VinaiKopp\\PostCodeFilter\\RuleComponents\\PostCode</title>
<path fill="#9999cc" stroke="black" d="M2844.82,-220C2844.82,-220 2632.89,-220 2632.89,-220 2626.89,-220 2620.89,-214 2620.89,-208 2620.89,-208 2620.89,-196 2620.89,-196 2620.89,-190 2626.89,-184 2632.89,-184 2632.89,-184 2844.82,-184 2844.82,-184 2850.82,-184 2856.82,-190 2856.82,-196 2856.82,-196 2856.82,-208 2856.82,-208 2856.82,-214 2850.82,-220 2844.82,-220"/>
<text text-anchor="middle" x="2738.86" y="-199" font-family="Times,serif" font-size="10.00" fill="#000033">VinaiKopp\PostCodeFilter\RuleComponents\PostCode</text>
</g>
<!-- VinaiKopp\\PostCodeFilter\\RuleComponents\\PostCodeList&#45;&gt;VinaiKopp\\PostCodeFilter\\RuleComponents\\PostCode -->
<g id="edge25" class="edge"><title>VinaiKopp\\PostCodeFilter\\RuleComponents\\PostCodeList&#45;&gt;VinaiKopp\\PostCodeFilter\\RuleComponents\\PostCode</title>
<path fill="none" stroke="#999999" d="M2512.48,-303.738C2518.34,-302.28 2524.12,-300.704 2529.73,-299 2592.52,-279.926 2660.61,-245.276 2701.23,-222.967"/>
<polygon fill="#999999" stroke="#999999" points="2702.29,-224.778 2706.53,-220.04 2700.26,-221.102 2702.29,-224.778"/>
</g>
<!-- VinaiKopp\\PostCodeFilter\\ReadModel\\RuleFound -->
<g id="node11" class="node"><title>VinaiKopp\\PostCodeFilter\\ReadModel\\RuleFound</title>
<path fill="#9999cc" stroke="black" d="M1695.88,-120C1695.88,-120 1500.31,-120 1500.31,-120 1494.31,-120 1488.31,-114 1488.31,-108 1488.31,-108 1488.31,-96 1488.31,-96 1488.31,-90 1494.31,-84 1500.31,-84 1500.31,-84 1695.88,-84 1695.88,-84 1701.88,-84 1707.88,-90 1707.88,-96 1707.88,-96 1707.88,-108 1707.88,-108 1707.88,-114 1701.88,-120 1695.88,-120"/>
<text text-anchor="middle" x="1598.1" y="-99" font-family="Times,serif" font-size="10.00" fill="#000033">VinaiKopp\PostCodeFilter\ReadModel\RuleFound</text>
</g>
<!-- VinaiKopp\\PostCodeFilter\\ReadModel\\RuleFound&#45;&gt;VinaiKopp\\PostCodeFilter\\ReadModel\\Rule -->
<g id="edge4" class="edge"><title>VinaiKopp\\PostCodeFilter\\ReadModel\\RuleFound&#45;&gt;VinaiKopp\\PostCodeFilter\\ReadModel\\Rule</title>
<path fill="none" stroke="#999999" stroke-dasharray="5,2" d="M1663.1,-120.04C1702.62,-133.773 1752.26,-156.015 1787.17,-189 1836.6,-235.701 1805.72,-281.962 1859.17,-324 1874.64,-336.167 1893.41,-344.665 1912.47,-350.591"/>
<polygon fill="#999999" stroke="#999999" points="1912.04,-352.655 1918.39,-352.35 1913.24,-348.629 1912.04,-352.655"/>
</g>
<!-- VinaiKopp\\PostCodeFilter\\ReadModel\\RuleFound&#45;&gt;VinaiKopp\\PostCodeFilter\\RuleComponents\\Country -->
<g id="edge6" class="edge"><title>VinaiKopp\\PostCodeFilter\\ReadModel\\RuleFound&#45;&gt;VinaiKopp\\PostCodeFilter\\RuleComponents\\Country</title>
<path fill="none" stroke="#999999" d="M1707.86,-111.222C1754.43,-114.948 1809.44,-119.055 1859.17,-122 1876.52,-123.028 2157.82,-124.636 2171.78,-135 2249.97,-193.078 2168.96,-279.63 2243.78,-342 2250.26,-347.409 2257.52,-351.772 2265.23,-355.271"/>
<polygon fill="#999999" stroke="#999999" points="2264.86,-357.394 2271.21,-357.781 2266.49,-353.521 2264.86,-357.394"/>
</g>
<!-- VinaiKopp\\PostCodeFilter\\ReadModel\\RuleFound&#45;&gt;VinaiKopp\\PostCodeFilter\\RuleComponents\\CustomerGroupIdList -->
<g id="edge7" class="edge"><title>VinaiKopp\\PostCodeFilter\\ReadModel\\RuleFound&#45;&gt;VinaiKopp\\PostCodeFilter\\RuleComponents\\CustomerGroupIdList</title>
<path fill="none" stroke="#999999" d="M1707.99,-103.148C1868.05,-105.08 2150.34,-109.522 2171.78,-117 2253.49,-145.501 2329.5,-217.676 2364.9,-254.944"/>
<polygon fill="#999999" stroke="#999999" points="2363.78,-256.816 2369.42,-259.745 2366.84,-253.937 2363.78,-256.816"/>
</g>
<!-- VinaiKopp\\PostCodeFilter\\ReadModel\\RuleFound&#45;&gt;VinaiKopp\\PostCodeFilter\\RuleComponents\\PostCodeList -->
<g id="edge8" class="edge"><title>VinaiKopp\\PostCodeFilter\\ReadModel\\RuleFound&#45;&gt;VinaiKopp\\PostCodeFilter\\RuleComponents\\PostCodeList</title>
<path fill="none" stroke="#999999" d="M1707.91,-107.209C1754.49,-109.39 1809.49,-111.901 1859.17,-114 1876.53,-114.734 2157.51,-116.081 2171.78,-126 2240.16,-173.531 2178.24,-247.605 2243.78,-299 2247.5,-301.922 2251.46,-304.532 2255.58,-306.86"/>
<polygon fill="#999999" stroke="#999999" points="2254.61,-308.722 2260.9,-309.659 2256.57,-305.006 2254.61,-308.722"/>
</g>
<!-- VinaiKopp\\PostCodeFilter\\ReadModel\\RuleFound&#45;&gt;VinaiKopp\\PostCodeFilter\\RuleComponents\\CustomerGroupId -->
<g id="edge5" class="edge"><title>VinaiKopp\\PostCodeFilter\\ReadModel\\RuleFound&#45;&gt;VinaiKopp\\PostCodeFilter\\RuleComponents\\CustomerGroupId</title>
<path fill="none" stroke="#999999" d="M1707.8,-90.0361C1823.97,-80.1468 2012.89,-72.4262 2171.78,-105 2340.92,-139.678 2401.11,-140.795 2529.73,-256 2578.63,-299.809 2554.25,-339.648 2601.73,-385 2623.4,-405.697 2652.58,-421.402 2678.38,-432.477"/>
<polygon fill="#999999" stroke="#999999" points="2677.82,-434.521 2684.17,-434.91 2679.45,-430.649 2677.82,-434.521"/>
</g>
<!-- VinaiKopp\\PostCodeFilter\\ReadModel\\RuleFound&#45;&gt;VinaiKopp\\PostCodeFilter\\RuleComponents\\PostCode -->
<g id="edge9" class="edge"><title>VinaiKopp\\PostCodeFilter\\ReadModel\\RuleFound&#45;&gt;VinaiKopp\\PostCodeFilter\\RuleComponents\\PostCode</title>
<path fill="none" stroke="#999999" d="M1700.23,-83.9818C1873.28,-56.8216 2235.95,-15.9735 2529.73,-90 2599.03,-107.463 2670.38,-153.011 2708.91,-180.342"/>
<polygon fill="#999999" stroke="#999999" points="2707.79,-182.127 2713.89,-183.909 2710.23,-178.711 2707.79,-182.127"/>
</g>
<!-- VinaiKopp\\PostCodeFilter\\RuleComponents\\CustomerGroupId&#45;&gt;VinaiKopp\\PostCodeFilter\\Exceptions\\InvalidCustomerGroupIdException -->
<g id="edge22" class="edge"><title>VinaiKopp\\PostCodeFilter\\RuleComponents\\CustomerGroupId&#45;&gt;VinaiKopp\\PostCodeFilter\\Exceptions\\InvalidCustomerGroupIdException</title>
<path fill="none" stroke="#999999" d="M2874.2,-453C2896.16,-453 2919.12,-453 2941.68,-453"/>
<polygon fill="#999999" stroke="#999999" points="2941.71,-455.1 2947.71,-453 2941.71,-450.9 2941.71,-455.1"/>
</g>
<!-- VinaiKopp\\PostCodeFilter\\RuleComponents\\PostCode&#45;&gt;VinaiKopp\\PostCodeFilter\\Exceptions\\InvalidPostCodeException -->
<g id="edge24" class="edge"><title>VinaiKopp\\PostCodeFilter\\RuleComponents\\PostCode&#45;&gt;VinaiKopp\\PostCodeFilter\\Exceptions\\InvalidPostCodeException</title>
<path fill="none" stroke="#999999" d="M2856.87,-202C2889.28,-202 2924.86,-202 2958.68,-202"/>
<polygon fill="#999999" stroke="#999999" points="2958.97,-204.1 2964.97,-202 2958.97,-199.9 2958.97,-204.1"/>
</g>
<!-- VinaiKopp\\PostCodeFilter\\ReadModel\\RuleNotFound -->
<g id="node14" class="node"><title>VinaiKopp\\PostCodeFilter\\ReadModel\\RuleNotFound</title>
<path fill="#9999cc" stroke="black" d="M1703.38,-357C1703.38,-357 1492.81,-357 1492.81,-357 1486.81,-357 1480.81,-351 1480.81,-345 1480.81,-345 1480.81,-333 1480.81,-333 1480.81,-327 1486.81,-321 1492.81,-321 1492.81,-321 1703.38,-321 1703.38,-321 1709.38,-321 1715.38,-327 1715.38,-333 1715.38,-333 1715.38,-345 1715.38,-345 1715.38,-351 1709.38,-357 1703.38,-357"/>
<text text-anchor="middle" x="1598.1" y="-336" font-family="Times,serif" font-size="10.00" fill="#000033">VinaiKopp\PostCodeFilter\ReadModel\RuleNotFound</text>
</g>
<!-- VinaiKopp\\PostCodeFilter\\ReadModel\\RuleNotFound&#45;&gt;VinaiKopp\\PostCodeFilter\\ReadModel\\Rule -->
<g id="edge10" class="edge"><title>VinaiKopp\\PostCodeFilter\\ReadModel\\RuleNotFound&#45;&gt;VinaiKopp\\PostCodeFilter\\ReadModel\\Rule</title>
<path fill="none" stroke="#999999" stroke-dasharray="5,2" d="M1715.36,-345.997C1777.31,-349.726 1852.82,-354.271 1912.48,-357.861"/>
<polygon fill="#999999" stroke="#999999" points="1912.45,-359.963 1918.57,-358.228 1912.7,-355.771 1912.45,-359.963"/>
</g>
<!-- VinaiKopp\\PostCodeFilter\\ReadModel\\RuleNotFound&#45;&gt;VinaiKopp\\PostCodeFilter\\RuleComponents\\Country -->
<g id="edge11" class="edge"><title>VinaiKopp\\PostCodeFilter\\ReadModel\\RuleNotFound&#45;&gt;VinaiKopp\\PostCodeFilter\\RuleComponents\\Country</title>
<path fill="none" stroke="#999999" d="M1715.35,-348.817C1739.26,-351.892 1764.15,-355.873 1787.17,-361 1820.09,-368.331 1825.87,-379.597 1859.17,-385 1996.31,-407.255 2033.01,-391.793 2171.78,-385 2202.18,-383.511 2234.94,-380.84 2265.45,-377.89"/>
<polygon fill="#999999" stroke="#999999" points="2265.76,-379.97 2271.52,-377.296 2265.35,-375.79 2265.76,-379.97"/>
</g>
<!-- VinaiKopp\\PostCodeFilter\\ReadModel\\RuleNotFound&#45;&gt;VinaiKopp\\PostCodeFilter\\RuleComponents\\CustomerGroupIdList -->
<g id="edge12" class="edge"><title>VinaiKopp\\PostCodeFilter\\ReadModel\\RuleNotFound&#45;&gt;VinaiKopp\\PostCodeFilter\\RuleComponents\\CustomerGroupIdList</title>
<path fill="none" stroke="#999999" d="M1715.39,-336.83C1876.33,-333.699 2149.77,-327.868 2171.78,-324 2205,-318.161 2210.99,-307.944 2243.78,-300 2247.51,-299.094 2251.32,-298.217 2255.16,-297.37"/>
<polygon fill="#999999" stroke="#999999" points="2255.82,-299.377 2261.24,-296.062 2254.93,-295.271 2255.82,-299.377"/>
</g>
<!-- VinaiKopp\\PostCodeFilter\\ReadModel\\RuleNotFound&#45;&gt;VinaiKopp\\PostCodeFilter\\RuleComponents\\PostCodeList -->
<g id="edge13" class="edge"><title>VinaiKopp\\PostCodeFilter\\ReadModel\\RuleNotFound&#45;&gt;VinaiKopp\\PostCodeFilter\\RuleComponents\\PostCodeList</title>
<path fill="none" stroke="#999999" d="M1715.39,-338.49C1831.11,-337.72 2013.75,-335.795 2171.78,-331 2198.65,-330.185 2227.4,-329.033 2254.83,-327.799"/>
<polygon fill="#999999" stroke="#999999" points="2255.14,-329.887 2261.03,-327.518 2254.95,-325.692 2255.14,-329.887"/>
</g>
<!-- VinaiKopp\\PostCodeFilter\\ReadModel\\RuleReader -->
<g id="node15" class="node"><title>VinaiKopp\\PostCodeFilter\\ReadModel\\RuleReader</title>
<path fill="#9999cc" stroke="black" d="M1697.14,-400C1697.14,-400 1499.06,-400 1499.06,-400 1493.06,-400 1487.06,-394 1487.06,-388 1487.06,-388 1487.06,-376 1487.06,-376 1487.06,-370 1493.06,-364 1499.06,-364 1499.06,-364 1697.14,-364 1697.14,-364 1703.14,-364 1709.14,-370 1709.14,-376 1709.14,-376 1709.14,-388 1709.14,-388 1709.14,-394 1703.14,-400 1697.14,-400"/>
<text text-anchor="middle" x="1598.1" y="-379" font-family="Times,serif" font-size="10.00" fill="#000033">VinaiKopp\PostCodeFilter\ReadModel\RuleReader</text>
</g>
<!-- VinaiKopp\\PostCodeFilter\\ReadModel\\RuleReader&#45;&gt;VinaiKopp\\PostCodeFilter\\ReadModel\\Rule -->
<g id="edge15" class="edge"><title>VinaiKopp\\PostCodeFilter\\ReadModel\\RuleReader&#45;&gt;VinaiKopp\\PostCodeFilter\\ReadModel\\Rule</title>
<path fill="none" stroke="#999999" d="M1709.32,-377.224C1772.29,-374.495 1850.72,-371.096 1912.3,-368.428"/>
<polygon fill="#999999" stroke="#999999" points="1912.68,-370.513 1918.58,-368.155 1912.5,-366.317 1912.68,-370.513"/>
</g>
<!-- VinaiKopp\\PostCodeFilter\\ReadModel\\RuleSpecByCountryAndGroupId -->
<g id="node16" class="node"><title>VinaiKopp\\PostCodeFilter\\ReadModel\\RuleSpecByCountryAndGroupId</title>
<path fill="#9999cc" stroke="black" d="M2157.69,-497C2157.69,-497 1873.26,-497 1873.26,-497 1867.26,-497 1861.26,-491 1861.26,-485 1861.26,-485 1861.26,-473 1861.26,-473 1861.26,-467 1867.26,-461 1873.26,-461 1873.26,-461 2157.69,-461 2157.69,-461 2163.69,-461 2169.69,-467 2169.69,-473 2169.69,-473 2169.69,-485 2169.69,-485 2169.69,-491 2163.69,-497 2157.69,-497"/>
<text text-anchor="middle" x="2015.47" y="-476" font-family="Times,serif" font-size="10.00" fill="#000033">VinaiKopp\PostCodeFilter\ReadModel\RuleSpecByCountryAndGroupId</text>
</g>
<!-- VinaiKopp\\PostCodeFilter\\ReadModel\\RuleReader&#45;&gt;VinaiKopp\\PostCodeFilter\\ReadModel\\RuleSpecByCountryAndGroupId -->
<g id="edge14" class="edge"><title>VinaiKopp\\PostCodeFilter\\ReadModel\\RuleReader&#45;&gt;VinaiKopp\\PostCodeFilter\\ReadModel\\RuleSpecByCountryAndGroupId</title>
<path fill="none" stroke="#999999" d="M1676.25,-400.018C1748.71,-416.937 1856.8,-442.18 1931.19,-459.551"/>
<polygon fill="#999999" stroke="#999999" points="1931.06,-461.677 1937.38,-460.997 1932.01,-457.587 1931.06,-461.677"/>
</g>
<!-- VinaiKopp\\PostCodeFilter\\ReadModel\\RuleSpecByCountryAndGroupIds -->
<g id="node17" class="node"><title>VinaiKopp\\PostCodeFilter\\ReadModel\\RuleSpecByCountryAndGroupIds</title>
<path fill="#9999cc" stroke="black" d="M2159.58,-278C2159.58,-278 1871.37,-278 1871.37,-278 1865.37,-278 1859.37,-272 1859.37,-266 1859.37,-266 1859.37,-254 1859.37,-254 1859.37,-248 1865.37,-242 1871.37,-242 1871.37,-242 2159.58,-242 2159.58,-242 2165.58,-242 2171.58,-248 2171.58,-254 2171.58,-254 2171.58,-266 2171.58,-266 2171.58,-272 2165.58,-278 2159.58,-278"/>
<text text-anchor="middle" x="2015.47" y="-257" font-family="Times,serif" font-size="10.00" fill="#000033">VinaiKopp\PostCodeFilter\ReadModel\RuleSpecByCountryAndGroupIds</text>
</g>
<!-- VinaiKopp\\PostCodeFilter\\ReadModel\\RuleReader&#45;&gt;VinaiKopp\\PostCodeFilter\\ReadModel\\RuleSpecByCountryAndGroupIds -->
<g id="edge16" class="edge"><title>VinaiKopp\\PostCodeFilter\\ReadModel\\RuleReader&#45;&gt;VinaiKopp\\PostCodeFilter\\ReadModel\\RuleSpecByCountryAndGroupIds</title>
<path fill="none" stroke="#999999" d="M1709.33,-382.15C1735.9,-378.72 1763.44,-372.081 1787.17,-360 1829.21,-338.595 1817.39,-303.913 1859.17,-282 1860,-281.565 1860.83,-281.138 1861.67,-280.719"/>
<polygon fill="#999999" stroke="#999999" points="1862.77,-282.523 1867.29,-278.059 1860.97,-278.727 1862.77,-282.523"/>
</g>
<!-- VinaiKopp\\PostCodeFilter\\ReadModel\\RuleSpecByCountryAndGroupId&#45;&gt;VinaiKopp\\PostCodeFilter\\RuleComponents\\Country -->
<g id="edge18" class="edge"><title>VinaiKopp\\PostCodeFilter\\ReadModel\\RuleSpecByCountryAndGroupId&#45;&gt;VinaiKopp\\PostCodeFilter\\RuleComponents\\Country</title>
<path fill="none" stroke="#999999" d="M2112.75,-460.998C2132.42,-456.634 2152.88,-451.592 2171.78,-446 2230.37,-428.663 2295.69,-402.609 2338.56,-384.541"/>
<polygon fill="#999999" stroke="#999999" points="2339.49,-386.429 2344.2,-382.157 2337.85,-382.56 2339.49,-386.429"/>
</g>
<!-- VinaiKopp\\PostCodeFilter\\ReadModel\\RuleSpecByCountryAndGroupId&#45;&gt;VinaiKopp\\PostCodeFilter\\RuleComponents\\CustomerGroupId -->
<g id="edge17" class="edge"><title>VinaiKopp\\PostCodeFilter\\ReadModel\\RuleSpecByCountryAndGroupId&#45;&gt;VinaiKopp\\PostCodeFilter\\RuleComponents\\CustomerGroupId</title>
<path fill="none" stroke="#999999" d="M2169.9,-473.47C2296.42,-468.91 2474.45,-462.494 2597.3,-458.066"/>
<polygon fill="#999999" stroke="#999999" points="2597.55,-460.158 2603.47,-457.843 2597.4,-455.961 2597.55,-460.158"/>
</g>
<!-- VinaiKopp\\PostCodeFilter\\ReadModel\\RuleSpecByCountryAndGroupIds&#45;&gt;VinaiKopp\\PostCodeFilter\\RuleComponents\\Country -->
<g id="edge19" class="edge"><title>VinaiKopp\\PostCodeFilter\\ReadModel\\RuleSpecByCountryAndGroupIds&#45;&gt;VinaiKopp\\PostCodeFilter\\RuleComponents\\Country</title>
<path fill="none" stroke="#999999" d="M2162.26,-278.1C2165.49,-279.321 2168.67,-280.619 2171.78,-282 2209.85,-298.899 2205.81,-324.854 2243.78,-342 2250.75,-345.15 2258.09,-347.861 2265.61,-350.193"/>
<polygon fill="#999999" stroke="#999999" points="2265.05,-352.215 2271.4,-351.903 2266.24,-348.187 2265.05,-352.215"/>
</g>
<!-- VinaiKopp\\PostCodeFilter\\ReadModel\\RuleSpecByCountryAndGroupIds&#45;&gt;VinaiKopp\\PostCodeFilter\\RuleComponents\\CustomerGroupIdList -->
<g id="edge20" class="edge"><title>VinaiKopp\\PostCodeFilter\\ReadModel\\RuleSpecByCountryAndGroupIds&#45;&gt;VinaiKopp\\PostCodeFilter\\RuleComponents\\CustomerGroupIdList</title>
<path fill="none" stroke="#999999" d="M2171.74,-267.568C2193.56,-268.632 2215.94,-269.723 2237.61,-270.779"/>
<polygon fill="#999999" stroke="#999999" points="2237.61,-272.882 2243.71,-271.076 2237.82,-268.687 2237.61,-272.882"/>
</g>
<!-- VinaiKopp\\PostCodeFilter\\RuleRepository -->
<g id="node18" class="node"><title>VinaiKopp\\PostCodeFilter\\RuleRepository</title>
<path fill="#9999cc" stroke="black" d="M1246.73,-444C1246.73,-444 1082.37,-444 1082.37,-444 1076.37,-444 1070.37,-438 1070.37,-432 1070.37,-432 1070.37,-420 1070.37,-420 1070.37,-414 1076.37,-408 1082.37,-408 1082.37,-408 1246.73,-408 1246.73,-408 1252.73,-408 1258.73,-414 1258.73,-420 1258.73,-420 1258.73,-432 1258.73,-432 1258.73,-438 1252.73,-444 1246.73,-444"/>
<text text-anchor="middle" x="1164.55" y="-423" font-family="Times,serif" font-size="10.00" fill="#000033">VinaiKopp\PostCodeFilter\RuleRepository</text>
</g>
<!-- VinaiKopp\\PostCodeFilter\\RuleRepository&#45;&gt;VinaiKopp\\PostCodeFilter\\Exceptions\\NonMatchingRecordInResultException -->
<g id="edge40" class="edge"><title>VinaiKopp\\PostCodeFilter\\RuleRepository&#45;&gt;VinaiKopp\\PostCodeFilter\\Exceptions\\NonMatchingRecordInResultException</title>
<path fill="none" stroke="#999999" d="M1258.66,-435.493C1307.55,-440.478 1369.02,-446.745 1426.11,-452.567"/>
<polygon fill="#999999" stroke="#999999" points="1426.15,-454.682 1432.34,-453.201 1426.58,-450.503 1426.15,-454.682"/>
</g>
<!-- VinaiKopp\\PostCodeFilter\\RuleRepository&#45;&gt;VinaiKopp\\PostCodeFilter\\ReadModel\\Rule -->
<g id="edge31" class="edge"><title>VinaiKopp\\PostCodeFilter\\RuleRepository&#45;&gt;VinaiKopp\\PostCodeFilter\\ReadModel\\Rule</title>
<path fill="none" stroke="#999999" d="M1258.67,-424.497C1419.32,-421.771 1736.28,-415.76 1787.17,-410 1837.13,-404.345 1892.43,-393.262 1935.98,-383.391"/>
<polygon fill="#999999" stroke="#999999" points="1936.67,-385.39 1942.05,-382.007 1935.73,-381.295 1936.67,-385.39"/>
</g>
<!-- VinaiKopp\\PostCodeFilter\\RuleRepository&#45;&gt;VinaiKopp\\PostCodeFilter\\RuleComponents\\Country -->
<g id="edge37" class="edge"><title>VinaiKopp\\PostCodeFilter\\RuleRepository&#45;&gt;VinaiKopp\\PostCodeFilter\\RuleComponents\\Country</title>
<path fill="none" stroke="#999999" d="M1258.87,-429.684C1473.58,-437.593 1997.52,-453.502 2171.78,-428 2228.39,-419.715 2290.83,-399.717 2333.57,-384.262"/>
<polygon fill="#999999" stroke="#999999" points="2334.55,-386.141 2339.47,-382.113 2333.11,-382.195 2334.55,-386.141"/>
</g>
<!-- VinaiKopp\\PostCodeFilter\\RuleRepository&#45;&gt;VinaiKopp\\PostCodeFilter\\RuleComponents\\CustomerGroupIdList -->
<g id="edge36" class="edge"><title>VinaiKopp\\PostCodeFilter\\RuleRepository&#45;&gt;VinaiKopp\\PostCodeFilter\\RuleComponents\\CustomerGroupIdList</title>
<path fill="none" stroke="#999999" d="M1212.71,-444.098C1261.13,-461.637 1339.07,-487.008 1409.03,-497 1492.21,-508.882 1705.82,-518.079 1787.17,-497 1822.61,-487.818 1825,-470.126 1859.17,-457 1992.26,-405.877 2050.02,-459.18 2171.78,-385 2214.06,-359.241 2200.59,-324.207 2243.78,-300 2244.4,-299.649 2245.03,-299.304 2245.66,-298.963"/>
<polygon fill="#999999" stroke="#999999" points="2247.05,-300.615 2251.46,-296.033 2245.16,-296.867 2247.05,-300.615"/>
</g>
<!-- VinaiKopp\\PostCodeFilter\\RuleRepository&#45;&gt;VinaiKopp\\PostCodeFilter\\RuleComponents\\PostCodeList -->
<g id="edge38" class="edge"><title>VinaiKopp\\PostCodeFilter\\RuleRepository&#45;&gt;VinaiKopp\\PostCodeFilter\\RuleComponents\\PostCodeList</title>
<path fill="none" stroke="#999999" d="M1258.91,-428.425C1474.92,-433.035 2003.54,-438.303 2171.78,-385 2207.09,-373.81 2208.86,-355.386 2243.78,-343 2247.57,-341.655 2251.44,-340.393 2255.38,-339.207"/>
<polygon fill="#999999" stroke="#999999" points="2256.01,-341.212 2261.19,-337.525 2254.84,-337.177 2256.01,-341.212"/>
</g>
<!-- VinaiKopp\\PostCodeFilter\\RuleRepository&#45;&gt;VinaiKopp\\PostCodeFilter\\ReadModel\\RuleFound -->
<g id="edge35" class="edge"><title>VinaiKopp\\PostCodeFilter\\RuleRepository&#45;&gt;VinaiKopp\\PostCodeFilter\\ReadModel\\RuleFound</title>
<path fill="none" stroke="#999999" d="M1210.32,-407.921C1247.98,-390.95 1301.37,-362.56 1337.85,-325 1383.74,-277.745 1361.49,-240.597 1409.03,-195 1444.23,-161.235 1494.07,-137.347 1533.59,-122.242"/>
<polygon fill="#999999" stroke="#999999" points="1534.47,-124.155 1539.35,-120.077 1532.99,-120.224 1534.47,-124.155"/>
</g>
<!-- VinaiKopp\\PostCodeFilter\\RuleRepository&#45;&gt;VinaiKopp\\PostCodeFilter\\RuleComponents\\CustomerGroupId -->
<g id="edge39" class="edge"><title>VinaiKopp\\PostCodeFilter\\RuleRepository&#45;&gt;VinaiKopp\\PostCodeFilter\\RuleComponents\\CustomerGroupId</title>
<path fill="none" stroke="#999999" d="M1258.87,-431.92C1304.18,-434.555 1359.42,-437.415 1409.03,-439 1842.09,-452.836 2354.91,-453.906 2597.39,-453.494"/>
<polygon fill="#999999" stroke="#999999" points="2597.43,-455.595 2603.43,-453.484 2597.42,-451.395 2597.43,-455.595"/>
</g>
<!-- VinaiKopp\\PostCodeFilter\\RuleRepository&#45;&gt;VinaiKopp\\PostCodeFilter\\ReadModel\\RuleNotFound -->
<g id="edge30" class="edge"><title>VinaiKopp\\PostCodeFilter\\RuleRepository&#45;&gt;VinaiKopp\\PostCodeFilter\\ReadModel\\RuleNotFound</title>
<path fill="none" stroke="#999999" d="M1223.55,-407.981C1272.54,-393.374 1344.78,-373.267 1409.03,-361 1430.13,-356.971 1452.72,-353.565 1474.65,-350.726"/>
<polygon fill="#999999" stroke="#999999" points="1475.13,-352.782 1480.82,-349.941 1474.6,-348.616 1475.13,-352.782"/>
</g>
<!-- VinaiKopp\\PostCodeFilter\\RuleRepository&#45;&gt;VinaiKopp\\PostCodeFilter\\ReadModel\\RuleReader -->
<g id="edge27" class="edge"><title>VinaiKopp\\PostCodeFilter\\RuleRepository&#45;&gt;VinaiKopp\\PostCodeFilter\\ReadModel\\RuleReader</title>
<path fill="none" stroke="#999999" stroke-dasharray="5,2" d="M1258.66,-416.507C1323.72,-409.873 1411.06,-400.968 1480.72,-393.866"/>
<polygon fill="#999999" stroke="#999999" points="1481.22,-395.926 1486.98,-393.228 1480.79,-391.747 1481.22,-395.926"/>
</g>
<!-- VinaiKopp\\PostCodeFilter\\RuleRepository&#45;&gt;VinaiKopp\\PostCodeFilter\\ReadModel\\RuleSpecByCountryAndGroupId -->
<g id="edge29" class="edge"><title>VinaiKopp\\PostCodeFilter\\RuleRepository&#45;&gt;VinaiKopp\\PostCodeFilter\\ReadModel\\RuleSpecByCountryAndGroupId</title>
<path fill="none" stroke="#999999" d="M1206.32,-444.07C1253.87,-464.074 1335.37,-495.069 1409.03,-507 1491.98,-520.436 1703.3,-512.147 1787.17,-507 1818.79,-505.06 1852.76,-501.614 1884.53,-497.789"/>
<polygon fill="#999999" stroke="#999999" points="1885.16,-499.828 1890.86,-497.019 1884.65,-495.659 1885.16,-499.828"/>
</g>
<!-- VinaiKopp\\PostCodeFilter\\RuleRepository&#45;&gt;VinaiKopp\\PostCodeFilter\\ReadModel\\RuleSpecByCountryAndGroupIds -->
<g id="edge32" class="edge"><title>VinaiKopp\\PostCodeFilter\\RuleRepository&#45;&gt;VinaiKopp\\PostCodeFilter\\ReadModel\\RuleSpecByCountryAndGroupIds</title>
<path fill="none" stroke="#999999" d="M1217.47,-444.096C1266.23,-460.07 1341.57,-482.151 1409.03,-491 1429.86,-493.733 1770.07,-503.198 1787.17,-491 1867.16,-433.954 1783.39,-344.528 1859.17,-282 1859.27,-281.913 1859.38,-281.827 1859.49,-281.741"/>
<polygon fill="#999999" stroke="#999999" points="1860.85,-283.342 1864.35,-278.033 1858.3,-280.002 1860.85,-283.342"/>
</g>
<!-- VinaiKopp\\PostCodeFilter\\WriteModel\\RuleWriter -->
<g id="node19" class="node"><title>VinaiKopp\\PostCodeFilter\\WriteModel\\RuleWriter</title>
<path fill="#9999cc" stroke="black" d="M1696.84,-235C1696.84,-235 1499.35,-235 1499.35,-235 1493.35,-235 1487.35,-229 1487.35,-223 1487.35,-223 1487.35,-211 1487.35,-211 1487.35,-205 1493.35,-199 1499.35,-199 1499.35,-199 1696.84,-199 1696.84,-199 1702.84,-199 1708.84,-205 1708.84,-211 1708.84,-211 1708.84,-223 1708.84,-223 1708.84,-229 1702.84,-235 1696.84,-235"/>
<text text-anchor="middle" x="1598.1" y="-214" font-family="Times,serif" font-size="10.00" fill="#000033">VinaiKopp\PostCodeFilter\WriteModel\RuleWriter</text>
</g>
<!-- VinaiKopp\\PostCodeFilter\\RuleRepository&#45;&gt;VinaiKopp\\PostCodeFilter\\WriteModel\\RuleWriter -->
<g id="edge26" class="edge"><title>VinaiKopp\\PostCodeFilter\\RuleRepository&#45;&gt;VinaiKopp\\PostCodeFilter\\WriteModel\\RuleWriter</title>
<path fill="none" stroke="#999999" stroke-dasharray="5,2" d="M1203.6,-407.912C1239.97,-389.676 1295.41,-359.367 1337.85,-325 1374.32,-295.466 1367.72,-269.279 1409.03,-247 1430.98,-235.157 1456.33,-227.689 1481.17,-223.046"/>
<polygon fill="#999999" stroke="#999999" points="1481.6,-225.104 1487.13,-221.983 1480.86,-220.969 1481.6,-225.104"/>
</g>
<!-- VinaiKopp\\PostCodeFilter\\RuleStorage -->
<g id="node20" class="node"><title>VinaiKopp\\PostCodeFilter\\RuleStorage</title>
<path fill="#9999cc" stroke="black" d="M1673.44,-558C1673.44,-558 1522.76,-558 1522.76,-558 1516.76,-558 1510.76,-552 1510.76,-546 1510.76,-546 1510.76,-534 1510.76,-534 1510.76,-528 1516.76,-522 1522.76,-522 1522.76,-522 1673.44,-522 1673.44,-522 1679.44,-522 1685.44,-528 1685.44,-534 1685.44,-534 1685.44,-546 1685.44,-546 1685.44,-552 1679.44,-558 1673.44,-558"/>
<text text-anchor="middle" x="1598.1" y="-537" font-family="Times,serif" font-size="10.00" fill="#000033">VinaiKopp\PostCodeFilter\RuleStorage</text>
</g>
<!-- VinaiKopp\\PostCodeFilter\\RuleRepository&#45;&gt;VinaiKopp\\PostCodeFilter\\RuleStorage -->
<g id="edge28" class="edge"><title>VinaiKopp\\PostCodeFilter\\RuleRepository&#45;&gt;VinaiKopp\\PostCodeFilter\\RuleStorage</title>
<path fill="none" stroke="#999999" d="M1205.59,-444.016C1253.13,-464.645 1335.28,-497.913 1409.03,-516 1439.75,-523.534 1473.9,-528.793 1504.59,-532.425"/>
<polygon fill="#999999" stroke="#999999" points="1504.48,-534.525 1510.68,-533.129 1504.96,-530.353 1504.48,-534.525"/>
</g>
<!-- VinaiKopp\\PostCodeFilter\\WriteModel\\RuleToAdd -->
<g id="node21" class="node"><title>VinaiKopp\\PostCodeFilter\\WriteModel\\RuleToAdd</title>
<path fill="#9999cc" stroke="black" d="M2115.15,-235C2115.15,-235 1915.8,-235 1915.8,-235 1909.8,-235 1903.8,-229 1903.8,-223 1903.8,-223 1903.8,-211 1903.8,-211 1903.8,-205 1909.8,-199 1915.8,-199 1915.8,-199 2115.15,-199 2115.15,-199 2121.15,-199 2127.15,-205 2127.15,-211 2127.15,-211 2127.15,-223 2127.15,-223 2127.15,-229 2121.15,-235 2115.15,-235"/>
<text text-anchor="middle" x="2015.47" y="-214" font-family="Times,serif" font-size="10.00" fill="#000033">VinaiKopp\PostCodeFilter\WriteModel\RuleToAdd</text>
</g>
<!-- VinaiKopp\\PostCodeFilter\\RuleRepository&#45;&gt;VinaiKopp\\PostCodeFilter\\WriteModel\\RuleToAdd -->
<g id="edge33" class="edge"><title>VinaiKopp\\PostCodeFilter\\RuleRepository&#45;&gt;VinaiKopp\\PostCodeFilter\\WriteModel\\RuleToAdd</title>
<path fill="none" stroke="#999999" d="M1196.56,-407.83C1241.62,-382.44 1328.62,-337.197 1409.03,-317 1572.44,-275.951 1628.54,-346.791 1787.17,-290 1824.09,-276.782 1822.73,-253.491 1859.17,-239 1871.35,-234.157 1884.44,-230.357 1897.66,-227.38"/>
<polygon fill="#999999" stroke="#999999" points="1898.32,-229.386 1903.75,-226.069 1897.44,-225.28 1898.32,-229.386"/>
</g>
<!-- VinaiKopp\\PostCodeFilter\\WriteModel\\RuleToDelete -->
<g id="node22" class="node"><title>VinaiKopp\\PostCodeFilter\\WriteModel\\RuleToDelete</title>
<path fill="#9999cc" stroke="black" d="M2119.52,-321C2119.52,-321 1911.42,-321 1911.42,-321 1905.42,-321 1899.42,-315 1899.42,-309 1899.42,-309 1899.42,-297 1899.42,-297 1899.42,-291 1905.42,-285 1911.42,-285 1911.42,-285 2119.52,-285 2119.52,-285 2125.52,-285 2131.52,-291 2131.52,-297 2131.52,-297 2131.52,-309 2131.52,-309 2131.52,-315 2125.52,-321 2119.52,-321"/>
<text text-anchor="middle" x="2015.47" y="-300" font-family="Times,serif" font-size="10.00" fill="#000033">VinaiKopp\PostCodeFilter\WriteModel\RuleToDelete</text>
</g>
<!-- VinaiKopp\\PostCodeFilter\\RuleRepository&#45;&gt;VinaiKopp\\PostCodeFilter\\WriteModel\\RuleToDelete -->
<g id="edge34" class="edge"><title>VinaiKopp\\PostCodeFilter\\RuleRepository&#45;&gt;VinaiKopp\\PostCodeFilter\\WriteModel\\RuleToDelete</title>
<path fill="none" stroke="#999999" d="M1258.88,-420.427C1304.19,-417.873 1359.43,-414.979 1409.03,-413 1430.02,-412.162 1767.54,-410.495 1787.17,-403 1826.35,-388.043 1821.86,-361.161 1859.17,-342 1874.26,-334.252 1890.97,-327.982 1907.68,-322.925"/>
<polygon fill="#999999" stroke="#999999" points="1908.67,-324.823 1913.84,-321.117 1907.49,-320.794 1908.67,-324.823"/>
</g>
<!-- VinaiKopp\\PostCodeFilter\\WriteModel\\RuleWriter&#45;&gt;VinaiKopp\\PostCodeFilter\\WriteModel\\RuleToAdd -->
<g id="edge77" class="edge"><title>VinaiKopp\\PostCodeFilter\\WriteModel\\RuleWriter&#45;&gt;VinaiKopp\\PostCodeFilter\\WriteModel\\RuleToAdd</title>
<path fill="none" stroke="#999999" d="M1708.78,-217C1766.99,-217 1838.53,-217 1897.76,-217"/>
<polygon fill="#999999" stroke="#999999" points="1897.82,-219.1 1903.82,-217 1897.82,-214.9 1897.82,-219.1"/>
</g>
<!-- VinaiKopp\\PostCodeFilter\\WriteModel\\RuleWriter&#45;&gt;VinaiKopp\\PostCodeFilter\\WriteModel\\RuleToDelete -->
<g id="edge78" class="edge"><title>VinaiKopp\\PostCodeFilter\\WriteModel\\RuleWriter&#45;&gt;VinaiKopp\\PostCodeFilter\\WriteModel\\RuleToDelete</title>
<path fill="none" stroke="#999999" d="M1709.06,-223.929C1735.09,-227.505 1762.46,-232.894 1787.17,-241 1821.95,-252.411 1824.47,-269.349 1859.17,-281 1870.05,-284.653 1881.56,-287.7 1893.2,-290.241"/>
<polygon fill="#999999" stroke="#999999" points="1892.98,-292.343 1899.29,-291.524 1893.85,-288.233 1892.98,-292.343"/>
</g>
<!-- VinaiKopp\\PostCodeFilter\\WriteModel\\RuleToAdd&#45;&gt;VinaiKopp\\PostCodeFilter\\RuleComponents\\Country -->
<g id="edge74" class="edge"><title>VinaiKopp\\PostCodeFilter\\WriteModel\\RuleToAdd&#45;&gt;VinaiKopp\\PostCodeFilter\\RuleComponents\\Country</title>
<path fill="none" stroke="#999999" d="M2127.32,-221.291C2142.99,-225.085 2158.32,-230.735 2171.78,-239 2219.37,-268.228 2196.37,-312.463 2243.78,-342 2250.61,-346.257 2257.97,-349.79 2265.63,-352.715"/>
<polygon fill="#999999" stroke="#999999" points="2265.18,-354.785 2271.54,-354.834 2266.6,-350.831 2265.18,-354.785"/>
</g>
<!-- VinaiKopp\\PostCodeFilter\\WriteModel\\RuleToAdd&#45;&gt;VinaiKopp\\PostCodeFilter\\RuleComponents\\CustomerGroupIdList -->
<g id="edge72" class="edge"><title>VinaiKopp\\PostCodeFilter\\WriteModel\\RuleToAdd&#45;&gt;VinaiKopp\\PostCodeFilter\\RuleComponents\\CustomerGroupIdList</title>
<path fill="none" stroke="#999999" d="M2127.27,-232.149C2142.24,-234.356 2157.39,-236.672 2171.78,-239 2208.86,-245.004 2249.44,-252.232 2285.2,-258.826"/>
<polygon fill="#999999" stroke="#999999" points="2285.07,-260.938 2291.35,-259.963 2285.84,-256.808 2285.07,-260.938"/>
</g>
<!-- VinaiKopp\\PostCodeFilter\\WriteModel\\RuleToAdd&#45;&gt;VinaiKopp\\PostCodeFilter\\RuleComponents\\PostCodeList -->
<g id="edge73" class="edge"><title>VinaiKopp\\PostCodeFilter\\WriteModel\\RuleToAdd&#45;&gt;VinaiKopp\\PostCodeFilter\\RuleComponents\\PostCodeList</title>
<path fill="none" stroke="#999999" d="M2127.21,-224.974C2142.57,-228.281 2157.84,-232.813 2171.78,-239 2209.85,-255.899 2205.81,-281.854 2243.78,-299 2247.52,-300.69 2251.37,-302.254 2255.29,-303.7"/>
<polygon fill="#999999" stroke="#999999" points="2254.73,-305.731 2261.09,-305.737 2256.13,-301.768 2254.73,-305.731"/>
</g>
<!-- VinaiKopp\\PostCodeFilter\\WriteModel\\RuleToDelete&#45;&gt;VinaiKopp\\PostCodeFilter\\RuleComponents\\Country -->
<g id="edge76" class="edge"><title>VinaiKopp\\PostCodeFilter\\WriteModel\\RuleToDelete&#45;&gt;VinaiKopp\\PostCodeFilter\\RuleComponents\\Country</title>
<path fill="none" stroke="#999999" d="M2119.38,-321.02C2158.33,-327.744 2203.08,-335.355 2243.78,-342 2250.8,-343.146 2258.01,-344.31 2265.3,-345.473"/>
<polygon fill="#999999" stroke="#999999" points="2265.17,-347.579 2271.43,-346.449 2265.83,-343.432 2265.17,-347.579"/>
</g>
<!-- VinaiKopp\\PostCodeFilter\\WriteModel\\RuleToDelete&#45;&gt;VinaiKopp\\PostCodeFilter\\RuleComponents\\CustomerGroupIdList -->
<g id="edge75" class="edge"><title>VinaiKopp\\PostCodeFilter\\WriteModel\\RuleToDelete&#45;&gt;VinaiKopp\\PostCodeFilter\\RuleComponents\\CustomerGroupIdList</title>
<path fill="none" stroke="#999999" d="M2131.54,-295.21C2165.06,-292.941 2202.16,-290.429 2237.42,-288.042"/>
<polygon fill="#999999" stroke="#999999" points="2237.67,-290.13 2243.52,-287.629 2237.39,-285.939 2237.67,-290.13"/>
</g>
<!-- VinaiKopp\\PostCodeFilter\\UseCases\\AdminAddsRule -->
<g id="node23" class="node"><title>VinaiKopp\\PostCodeFilter\\UseCases\\AdminAddsRule</title>
<path fill="#9999cc" stroke="black" d="M1269.89,-146C1269.89,-146 1059.21,-146 1059.21,-146 1053.21,-146 1047.21,-140 1047.21,-134 1047.21,-134 1047.21,-122 1047.21,-122 1047.21,-116 1053.21,-110 1059.21,-110 1059.21,-110 1269.89,-110 1269.89,-110 1275.89,-110 1281.89,-116 1281.89,-122 1281.89,-122 1281.89,-134 1281.89,-134 1281.89,-140 1275.89,-146 1269.89,-146"/>
<text text-anchor="middle" x="1164.55" y="-125" font-family="Times,serif" font-size="10.00" fill="#000033">VinaiKopp\PostCodeFilter\UseCases\AdminAddsRule</text>
</g>
<!-- VinaiKopp\\PostCodeFilter\\UseCases\\AdminAddsRule&#45;&gt;VinaiKopp\\PostCodeFilter\\Exceptions\\RuleForGroupAndCountryAlreadyExistsException -->
<g id="edge46" class="edge"><title>VinaiKopp\\PostCodeFilter\\UseCases\\AdminAddsRule&#45;&gt;VinaiKopp\\PostCodeFilter\\Exceptions\\RuleForGroupAndCountryAlreadyExistsException</title>
<path fill="none" stroke="#999999" d="M1238.72,-109.94C1286.88,-98.5061 1351.44,-84.0381 1409.03,-74 1419.12,-72.2398 1429.55,-70.5527 1440.07,-68.947"/>
<polygon fill="#999999" stroke="#999999" points="1440.65,-70.9826 1446.27,-68.011 1440.03,-66.8296 1440.65,-70.9826"/>
</g>
<!-- VinaiKopp\\PostCodeFilter\\UseCases\\AdminAddsRule&#45;&gt;VinaiKopp\\PostCodeFilter\\ReadModel\\RuleFound -->
<g id="edge44" class="edge"><title>VinaiKopp\\PostCodeFilter\\UseCases\\AdminAddsRule&#45;&gt;VinaiKopp\\PostCodeFilter\\ReadModel\\RuleFound</title>
<path fill="none" stroke="#999999" d="M1282.05,-120.981C1344.07,-117.244 1420.09,-112.664 1481.92,-108.939"/>
<polygon fill="#999999" stroke="#999999" points="1482.38,-111.016 1488.24,-108.559 1482.12,-106.823 1482.38,-111.016"/>
</g>
<!-- VinaiKopp\\PostCodeFilter\\UseCases\\AdminAddsRule&#45;&gt;VinaiKopp\\PostCodeFilter\\ReadModel\\RuleReader -->
<g id="edge42" class="edge"><title>VinaiKopp\\PostCodeFilter\\UseCases\\AdminAddsRule&#45;&gt;VinaiKopp\\PostCodeFilter\\ReadModel\\RuleReader</title>
<path fill="none" stroke="#999999" d="M1282.15,-125.165C1302.38,-129.381 1321.98,-137.018 1337.85,-150 1414.14,-212.388 1332.41,-298.016 1409.03,-360 1429.26,-376.367 1454.96,-384.715 1480.81,-388.44"/>
<polygon fill="#999999" stroke="#999999" points="1480.81,-390.557 1487.03,-389.248 1481.35,-386.392 1480.81,-390.557"/>
</g>
<!-- VinaiKopp\\PostCodeFilter\\UseCases\\AdminAddsRule&#45;&gt;VinaiKopp\\PostCodeFilter\\ReadModel\\RuleSpecByCountryAndGroupIds -->
<g id="edge45" class="edge"><title>VinaiKopp\\PostCodeFilter\\UseCases\\AdminAddsRule&#45;&gt;VinaiKopp\\PostCodeFilter\\ReadModel\\RuleSpecByCountryAndGroupIds</title>
<path fill="none" stroke="#999999" d="M1281.96,-132.94C1322.21,-134.605 1367.6,-136.437 1409.03,-138 1430.03,-138.792 1768.31,-141.726 1787.17,-151 1832.21,-173.143 1815.37,-213.494 1859.17,-238 1859.79,-238.349 1860.42,-238.693 1861.05,-239.033"/>
<polygon fill="#999999" stroke="#999999" points="1860.52,-241.116 1866.82,-241.96 1862.42,-237.371 1860.52,-241.116"/>
</g>
<!-- VinaiKopp\\PostCodeFilter\\UseCases\\AdminAddsRule&#45;&gt;VinaiKopp\\PostCodeFilter\\WriteModel\\RuleWriter -->
<g id="edge41" class="edge"><title>VinaiKopp\\PostCodeFilter\\UseCases\\AdminAddsRule&#45;&gt;VinaiKopp\\PostCodeFilter\\WriteModel\\RuleWriter</title>
<path fill="none" stroke="#999999" d="M1282.18,-140.868C1300.86,-143.51 1319.93,-146.555 1337.85,-150 1404,-162.72 1478.34,-182.508 1530.39,-197.287"/>
<polygon fill="#999999" stroke="#999999" points="1529.96,-199.348 1536.31,-198.973 1531.11,-195.309 1529.96,-199.348"/>
</g>
<!-- VinaiKopp\\PostCodeFilter\\UseCases\\AdminAddsRule&#45;&gt;VinaiKopp\\PostCodeFilter\\WriteModel\\RuleToAdd -->
<g id="edge43" class="edge"><title>VinaiKopp\\PostCodeFilter\\UseCases\\AdminAddsRule&#45;&gt;VinaiKopp\\PostCodeFilter\\WriteModel\\RuleToAdd</title>
<path fill="none" stroke="#999999" d="M1281.96,-127.052C1434.45,-126.493 1693.44,-128.081 1787.17,-144 1850.26,-154.716 1919.93,-179.059 1965.29,-196.694"/>
<polygon fill="#999999" stroke="#999999" points="1964.63,-198.688 1970.98,-198.919 1966.16,-194.777 1964.63,-198.688"/>
</g>
<!-- VinaiKopp\\PostCodeFilter\\UseCases\\AdminDeletesRule -->
<g id="node24" class="node"><title>VinaiKopp\\PostCodeFilter\\UseCases\\AdminDeletesRule</title>
<path fill="#9999cc" stroke="black" d="M1274.27,-322C1274.27,-322 1054.84,-322 1054.84,-322 1048.84,-322 1042.84,-316 1042.84,-310 1042.84,-310 1042.84,-298 1042.84,-298 1042.84,-292 1048.84,-286 1054.84,-286 1054.84,-286 1274.27,-286 1274.27,-286 1280.27,-286 1286.27,-292 1286.27,-298 1286.27,-298 1286.27,-310 1286.27,-310 1286.27,-316 1280.27,-322 1274.27,-322"/>
<text text-anchor="middle" x="1164.55" y="-301" font-family="Times,serif" font-size="10.00" fill="#000033">VinaiKopp\PostCodeFilter\UseCases\AdminDeletesRule</text>
</g>
<!-- VinaiKopp\\PostCodeFilter\\UseCases\\AdminDeletesRule&#45;&gt;VinaiKopp\\PostCodeFilter\\Exceptions\\RuleDoesNotExistException -->
<g id="edge52" class="edge"><title>VinaiKopp\\PostCodeFilter\\UseCases\\AdminDeletesRule&#45;&gt;VinaiKopp\\PostCodeFilter\\Exceptions\\RuleDoesNotExistException</title>
<path fill="none" stroke="#999999" d="M1286.33,-294.204C1336.39,-290.144 1394.98,-285.393 1447.7,-281.117"/>
<polygon fill="#999999" stroke="#999999" points="1447.96,-283.203 1453.77,-280.624 1447.62,-279.016 1447.96,-283.203"/>
</g>
<!-- VinaiKopp\\PostCodeFilter\\UseCases\\AdminDeletesRule&#45;&gt;VinaiKopp\\PostCodeFilter\\ReadModel\\RuleNotFound -->
<g id="edge51" class="edge"><title>VinaiKopp\\PostCodeFilter\\UseCases\\AdminDeletesRule&#45;&gt;VinaiKopp\\PostCodeFilter\\ReadModel\\RuleNotFound</title>
<path fill="none" stroke="#999999" d="M1286.33,-313.796C1345.16,-318.567 1415.74,-324.292 1474.77,-329.079"/>
<polygon fill="#999999" stroke="#999999" points="1474.66,-331.176 1480.81,-329.568 1475,-326.99 1474.66,-331.176"/>
</g>
<!-- VinaiKopp\\PostCodeFilter\\UseCases\\AdminDeletesRule&#45;&gt;VinaiKopp\\PostCodeFilter\\ReadModel\\RuleReader -->
<g id="edge48" class="edge"><title>VinaiKopp\\PostCodeFilter\\UseCases\\AdminDeletesRule&#45;&gt;VinaiKopp\\PostCodeFilter\\ReadModel\\RuleReader</title>
<path fill="none" stroke="#999999" d="M1234.67,-322.027C1283.18,-334.155 1349.73,-349.744 1409.03,-360 1432.17,-364.003 1457.04,-367.485 1480.88,-370.425"/>
<polygon fill="#999999" stroke="#999999" points="1480.71,-372.519 1486.92,-371.161 1481.21,-368.35 1480.71,-372.519"/>
</g>
<!-- VinaiKopp\\PostCodeFilter\\UseCases\\AdminDeletesRule&#45;&gt;VinaiKopp\\PostCodeFilter\\ReadModel\\RuleSpecByCountryAndGroupIds -->
<g id="edge50" class="edge"><title>VinaiKopp\\PostCodeFilter\\UseCases\\AdminDeletesRule&#45;&gt;VinaiKopp\\PostCodeFilter\\ReadModel\\RuleSpecByCountryAndGroupIds</title>
<path fill="none" stroke="#999999" d="M1286.36,-305.159C1411.76,-305.453 1613.48,-303.378 1787.17,-290 1806.15,-288.538 1842.67,-283.982 1880.97,-278.847"/>
<polygon fill="#999999" stroke="#999999" points="1881.47,-280.9 1887.13,-278.019 1880.91,-276.737 1881.47,-280.9"/>
</g>
<!-- VinaiKopp\\PostCodeFilter\\UseCases\\AdminDeletesRule&#45;&gt;VinaiKopp\\PostCodeFilter\\WriteModel\\RuleWriter -->
<g id="edge47" class="edge"><title>VinaiKopp\\PostCodeFilter\\UseCases\\AdminDeletesRule&#45;&gt;VinaiKopp\\PostCodeFilter\\WriteModel\\RuleWriter</title>
<path fill="none" stroke="#999999" d="M1236.64,-285.936C1285.04,-273.988 1350.67,-258.47 1409.03,-247 1432.36,-242.415 1457.42,-238.038 1481.4,-234.116"/>
<polygon fill="#999999" stroke="#999999" points="1481.88,-236.164 1487.47,-233.128 1481.21,-232.019 1481.88,-236.164"/>
</g>
<!-- VinaiKopp\\PostCodeFilter\\UseCases\\AdminDeletesRule&#45;&gt;VinaiKopp\\PostCodeFilter\\WriteModel\\RuleToDelete -->
<g id="edge49" class="edge"><title>VinaiKopp\\PostCodeFilter\\UseCases\\AdminDeletesRule&#45;&gt;VinaiKopp\\PostCodeFilter\\WriteModel\\RuleToDelete</title>
<path fill="none" stroke="#999999" d="M1286.3,-305.188C1325.45,-305.52 1369.08,-305.836 1409.03,-306 1577.09,-306.69 1619.11,-307.109 1787.17,-306 1821.54,-305.773 1858.82,-305.354 1893.07,-304.899"/>
<polygon fill="#999999" stroke="#999999" points="1893.45,-306.994 1899.42,-304.813 1893.4,-302.794 1893.45,-306.994"/>
</g>
<!-- VinaiKopp\\PostCodeFilter\\UseCases\\AdminUpdatesRule -->
<g id="node25" class="node"><title>VinaiKopp\\PostCodeFilter\\UseCases\\AdminUpdatesRule</title>
<path fill="#9999cc" stroke="black" d="M1276.05,-248C1276.05,-248 1053.05,-248 1053.05,-248 1047.05,-248 1041.05,-242 1041.05,-236 1041.05,-236 1041.05,-224 1041.05,-224 1041.05,-218 1047.05,-212 1053.05,-212 1053.05,-212 1276.05,-212 1276.05,-212 1282.05,-212 1288.05,-218 1288.05,-224 1288.05,-224 1288.05,-236 1288.05,-236 1288.05,-242 1282.05,-248 1276.05,-248"/>
<text text-anchor="middle" x="1164.55" y="-227" font-family="Times,serif" font-size="10.00" fill="#000033">VinaiKopp\PostCodeFilter\UseCases\AdminUpdatesRule</text>
</g>
<!-- VinaiKopp\\PostCodeFilter\\UseCases\\AdminUpdatesRule&#45;&gt;VinaiKopp\\PostCodeFilter\\Exceptions\\RuleDoesNotExistException -->
<g id="edge58" class="edge"><title>VinaiKopp\\PostCodeFilter\\UseCases\\AdminUpdatesRule&#45;&gt;VinaiKopp\\PostCodeFilter\\Exceptions\\RuleDoesNotExistException</title>
<path fill="none" stroke="#999999" d="M1288.06,-241.072C1337.73,-245.56 1395.56,-250.786 1447.67,-255.496"/>
<polygon fill="#999999" stroke="#999999" points="1447.51,-257.589 1453.67,-256.038 1447.88,-253.407 1447.51,-257.589"/>
</g>
<!-- VinaiKopp\\PostCodeFilter\\UseCases\\AdminUpdatesRule&#45;&gt;VinaiKopp\\PostCodeFilter\\ReadModel\\Rule -->
<g id="edge60" class="edge"><title>VinaiKopp\\PostCodeFilter\\UseCases\\AdminUpdatesRule&#45;&gt;VinaiKopp\\PostCodeFilter\\ReadModel\\Rule</title>
<path fill="none" stroke="#999999" d="M1287.85,-234.172C1326.6,-235.452 1369.61,-236.831 1409.03,-238 1430.03,-238.623 1767.98,-239.442 1787.17,-248 1829.67,-266.948 1819.08,-300.388 1859.17,-324 1875.58,-333.667 1894.32,-341.025 1912.96,-346.616"/>
<polygon fill="#999999" stroke="#999999" points="1912.39,-348.638 1918.74,-348.295 1913.56,-344.604 1912.39,-348.638"/>
</g>
<!-- VinaiKopp\\PostCodeFilter\\UseCases\\AdminUpdatesRule&#45;&gt;VinaiKopp\\PostCodeFilter\\ReadModel\\RuleNotFound -->
<g id="edge57" class="edge"><title>VinaiKopp\\PostCodeFilter\\UseCases\\AdminUpdatesRule&#45;&gt;VinaiKopp\\PostCodeFilter\\ReadModel\\RuleNotFound</title>
<path fill="none" stroke="#999999" d="M1237.3,-248.121C1315.2,-267.798 1439.19,-299.117 1519.37,-319.366"/>
<polygon fill="#999999" stroke="#999999" points="1519.21,-321.493 1525.54,-320.926 1520.24,-317.421 1519.21,-321.493"/>
</g>
<!-- VinaiKopp\\PostCodeFilter\\UseCases\\AdminUpdatesRule&#45;&gt;VinaiKopp\\PostCodeFilter\\ReadModel\\RuleReader -->
<g id="edge54" class="edge"><title>VinaiKopp\\PostCodeFilter\\UseCases\\AdminUpdatesRule&#45;&gt;VinaiKopp\\PostCodeFilter\\ReadModel\\RuleReader</title>
<path fill="none" stroke="#999999" d="M1258.03,-248.073C1285.06,-255.895 1313.79,-266.846 1337.85,-282 1377.56,-307.013 1367.26,-338.588 1409.03,-360 1430.87,-371.2 1455.97,-377.738 1480.57,-381.381"/>
<polygon fill="#999999" stroke="#999999" points="1480.58,-383.502 1486.81,-382.245 1481.16,-379.342 1480.58,-383.502"/>
</g>
<!-- VinaiKopp\\PostCodeFilter\\UseCases\\AdminUpdatesRule&#45;&gt;VinaiKopp\\PostCodeFilter\\ReadModel\\RuleSpecByCountryAndGroupIds -->
<g id="edge59" class="edge"><title>VinaiKopp\\PostCodeFilter\\UseCases\\AdminUpdatesRule&#45;&gt;VinaiKopp\\PostCodeFilter\\ReadModel\\RuleSpecByCountryAndGroupIds</title>
<path fill="none" stroke="#999999" d="M1244.72,-211.936C1303.16,-198.946 1377.74,-183.179 1409.03,-180 1450.83,-175.752 1747.55,-166.025 1787.17,-180 1825.92,-193.667 1821.47,-221.642 1859.17,-238 1860.59,-238.617 1862.03,-239.217 1863.47,-239.8"/>
<polygon fill="#999999" stroke="#999999" points="1862.76,-241.775 1869.11,-241.974 1864.27,-237.856 1862.76,-241.775"/>
</g>
<!-- VinaiKopp\\PostCodeFilter\\UseCases\\AdminUpdatesRule&#45;&gt;VinaiKopp\\PostCodeFilter\\WriteModel\\RuleWriter -->
<g id="edge53" class="edge"><title>VinaiKopp\\PostCodeFilter\\UseCases\\AdminUpdatesRule&#45;&gt;VinaiKopp\\PostCodeFilter\\WriteModel\\RuleWriter</title>
<path fill="none" stroke="#999999" d="M1288.06,-226.309C1348.65,-224.484 1421.39,-222.293 1481.07,-220.495"/>
<polygon fill="#999999" stroke="#999999" points="1481.24,-222.591 1487.18,-220.311 1481.12,-218.393 1481.24,-222.591"/>
</g>
<!-- VinaiKopp\\PostCodeFilter\\UseCases\\AdminUpdatesRule&#45;&gt;VinaiKopp\\PostCodeFilter\\WriteModel\\RuleToAdd -->
<g id="edge56" class="edge"><title>VinaiKopp\\PostCodeFilter\\UseCases\\AdminUpdatesRule&#45;&gt;VinaiKopp\\PostCodeFilter\\WriteModel\\RuleToAdd</title>
<path fill="none" stroke="#999999" d="M1253.04,-211.943C1280.3,-205.985 1310.41,-199.065 1337.85,-192 1369.79,-183.777 1376.38,-175.715 1409.03,-171 1575.36,-146.974 1619.94,-154.249 1787.17,-171 1837.96,-176.088 1894.2,-187.419 1938.03,-197.562"/>
<polygon fill="#999999" stroke="#999999" points="1937.81,-199.667 1944.13,-198.984 1938.76,-195.576 1937.81,-199.667"/>
</g>
<!-- VinaiKopp\\PostCodeFilter\\UseCases\\AdminUpdatesRule&#45;&gt;VinaiKopp\\PostCodeFilter\\WriteModel\\RuleToDelete -->
<g id="edge55" class="edge"><title>VinaiKopp\\PostCodeFilter\\UseCases\\AdminUpdatesRule&#45;&gt;VinaiKopp\\PostCodeFilter\\WriteModel\\RuleToDelete</title>
<path fill="none" stroke="#999999" d="M1267.97,-211.963C1311.33,-205.189 1362.49,-198.328 1409.03,-195 1492.84,-189.006 1711.03,-159.444 1787.17,-195 1832.34,-216.092 1815.6,-256.785 1859.17,-281 1869.81,-286.911 1881.46,-291.429 1893.46,-294.86"/>
<polygon fill="#999999" stroke="#999999" points="1893.03,-296.92 1899.37,-296.459 1894.13,-292.866 1893.03,-296.92"/>
</g>
<!-- VinaiKopp\\PostCodeFilter\\UseCases\\AdminViewsRuleList -->
<g id="node26" class="node"><title>VinaiKopp\\PostCodeFilter\\UseCases\\AdminViewsRuleList</title>
<path fill="#9999cc" stroke="black" d="M1279.79,-550C1279.79,-550 1049.31,-550 1049.31,-550 1043.31,-550 1037.31,-544 1037.31,-538 1037.31,-538 1037.31,-526 1037.31,-526 1037.31,-520 1043.31,-514 1049.31,-514 1049.31,-514 1279.79,-514 1279.79,-514 1285.79,-514 1291.79,-520 1291.79,-526 1291.79,-526 1291.79,-538 1291.79,-538 1291.79,-544 1285.79,-550 1279.79,-550"/>
<text text-anchor="middle" x="1164.55" y="-529" font-family="Times,serif" font-size="10.00" fill="#000033">VinaiKopp\PostCodeFilter\UseCases\AdminViewsRuleList</text>
</g>
<!-- VinaiKopp\\PostCodeFilter\\UseCases\\AdminViewsRuleList&#45;&gt;VinaiKopp\\PostCodeFilter\\ReadModel\\Rule -->
<g id="edge62" class="edge"><title>VinaiKopp\\PostCodeFilter\\UseCases\\AdminViewsRuleList&#45;&gt;VinaiKopp\\PostCodeFilter\\ReadModel\\Rule</title>
<path fill="none" stroke="#999999" d="M1291.93,-548.425C1338.73,-554.214 1385.97,-559.632 1409.03,-561 1450.97,-563.489 1749.95,-580.5 1787.17,-561 1836.97,-534.909 1818.13,-495.419 1859.17,-457 1891.7,-426.546 1935.84,-401.296 1968.75,-384.829"/>
<polygon fill="#999999" stroke="#999999" points="1969.9,-386.604 1974.34,-382.06 1968.04,-382.84 1969.9,-386.604"/>
</g>
<!-- VinaiKopp\\PostCodeFilter\\UseCases\\AdminViewsRuleList&#45;&gt;VinaiKopp\\PostCodeFilter\\ReadModel\\RuleReader -->
<g id="edge61" class="edge"><title>VinaiKopp\\PostCodeFilter\\UseCases\\AdminViewsRuleList&#45;&gt;VinaiKopp\\PostCodeFilter\\ReadModel\\RuleReader</title>
<path fill="none" stroke="#999999" d="M1217.61,-513.906C1298.8,-485.685 1455.01,-431.386 1539.49,-402.025"/>
<polygon fill="#999999" stroke="#999999" points="1540.22,-403.994 1545.2,-400.041 1538.84,-400.027 1540.22,-403.994"/>
</g>
<!-- VinaiKopp\\PostCodeFilter\\UseCases\\AdminViewsSingleRule -->
<g id="node27" class="node"><title>VinaiKopp\\PostCodeFilter\\UseCases\\AdminViewsSingleRule</title>
<path fill="#9999cc" stroke="black" d="M1284.79,-189C1284.79,-189 1044.31,-189 1044.31,-189 1038.31,-189 1032.31,-183 1032.31,-177 1032.31,-177 1032.31,-165 1032.31,-165 1032.31,-159 1038.31,-153 1044.31,-153 1044.31,-153 1284.79,-153 1284.79,-153 1290.79,-153 1296.79,-159 1296.79,-165 1296.79,-165 1296.79,-177 1296.79,-177 1296.79,-183 1290.79,-189 1284.79,-189"/>
<text text-anchor="middle" x="1164.55" y="-168" font-family="Times,serif" font-size="10.00" fill="#000033">VinaiKopp\PostCodeFilter\UseCases\AdminViewsSingleRule</text>
</g>
<!-- VinaiKopp\\PostCodeFilter\\UseCases\\AdminViewsSingleRule&#45;&gt;VinaiKopp\\PostCodeFilter\\ReadModel\\Rule -->
<g id="edge64" class="edge"><title>VinaiKopp\\PostCodeFilter\\UseCases\\AdminViewsSingleRule&#45;&gt;VinaiKopp\\PostCodeFilter\\ReadModel\\Rule</title>
<path fill="none" stroke="#999999" d="M1296.76,-169.535C1466.84,-168.666 1746.55,-171.136 1787.17,-196 1842.84,-230.078 1807.42,-284.227 1859.17,-324 1874.77,-335.993 1893.6,-344.412 1912.68,-350.317"/>
<polygon fill="#999999" stroke="#999999" points="1912.26,-352.382 1918.61,-352.071 1913.45,-348.355 1912.26,-352.382"/>
</g>
<!-- VinaiKopp\\PostCodeFilter\\UseCases\\AdminViewsSingleRule&#45;&gt;VinaiKopp\\PostCodeFilter\\RuleComponents\\Country -->
<g id="edge66" class="edge"><title>VinaiKopp\\PostCodeFilter\\UseCases\\AdminViewsSingleRule&#45;&gt;VinaiKopp\\PostCodeFilter\\RuleComponents\\Country</title>
<path fill="none" stroke="#999999" d="M1296.98,-156.745C1537,-133.485 2034.23,-98.9708 2171.78,-195 2231.43,-236.645 2185.19,-298.874 2243.78,-342 2250.42,-346.89 2257.72,-350.883 2265.38,-354.131"/>
<polygon fill="#999999" stroke="#999999" points="2264.97,-356.223 2271.32,-356.471 2266.51,-352.316 2264.97,-356.223"/>
</g>
<!-- VinaiKopp\\PostCodeFilter\\UseCases\\AdminViewsSingleRule&#45;&gt;VinaiKopp\\PostCodeFilter\\RuleComponents\\CustomerGroupIdList -->
<g id="edge67" class="edge"><title>VinaiKopp\\PostCodeFilter\\UseCases\\AdminViewsSingleRule&#45;&gt;VinaiKopp\\PostCodeFilter\\RuleComponents\\CustomerGroupIdList</title>
<path fill="none" stroke="#999999" d="M1296.98,-163.146C1311.15,-159.699 1325.05,-155.098 1337.85,-149 1377.34,-130.176 1368.42,-97.2803 1409.03,-81 1448.03,-65.3652 1745.18,-79.6366 1787.17,-81 1958.38,-86.5585 2012.13,-43.8981 2171.78,-106 2255.65,-138.628 2332.21,-216.699 2366.61,-255.425"/>
<polygon fill="#999999" stroke="#999999" points="2365.05,-256.834 2370.59,-259.947 2368.2,-254.057 2365.05,-256.834"/>
</g>
<!-- VinaiKopp\\PostCodeFilter\\UseCases\\AdminViewsSingleRule&#45;&gt;VinaiKopp\\PostCodeFilter\\ReadModel\\RuleReader -->
<g id="edge63" class="edge"><title>VinaiKopp\\PostCodeFilter\\UseCases\\AdminViewsSingleRule&#45;&gt;VinaiKopp\\PostCodeFilter\\ReadModel\\RuleReader</title>
<path fill="none" stroke="#999999" d="M1297.01,-185.65C1311.74,-191.114 1325.76,-198.379 1337.85,-208 1396.22,-254.451 1348.52,-316.376 1409.03,-360 1429.76,-374.951 1455.26,-382.848 1480.7,-386.598"/>
<polygon fill="#999999" stroke="#999999" points="1480.59,-388.702 1486.82,-387.421 1481.15,-384.54 1480.59,-388.702"/>
</g>
<!-- VinaiKopp\\PostCodeFilter\\UseCases\\AdminViewsSingleRule&#45;&gt;VinaiKopp\\PostCodeFilter\\ReadModel\\RuleSpecByCountryAndGroupIds -->
<g id="edge65" class="edge"><title>VinaiKopp\\PostCodeFilter\\UseCases\\AdminViewsSingleRule&#45;&gt;VinaiKopp\\PostCodeFilter\\ReadModel\\RuleSpecByCountryAndGroupIds</title>
<path fill="none" stroke="#999999" d="M1296.86,-160.195C1452.36,-149.31 1701.14,-138.456 1787.17,-172 1827.61,-187.77 1819.92,-219.457 1859.17,-238 1860.28,-238.523 1861.39,-239.035 1862.52,-239.536"/>
<polygon fill="#999999" stroke="#999999" points="1861.87,-241.541 1868.21,-241.945 1863.51,-237.673 1861.87,-241.541"/>
</g>
<!-- VinaiKopp\\PostCodeFilter\\UseCases\\CustomerSpecifiesShippingAddress -->
<g id="node28" class="node"><title>VinaiKopp\\PostCodeFilter\\UseCases\\CustomerSpecifiesShippingAddress</title>
<path fill="#9999cc" stroke="black" d="M1308,-593C1308,-593 1021.1,-593 1021.1,-593 1015.1,-593 1009.1,-587 1009.1,-581 1009.1,-581 1009.1,-569 1009.1,-569 1009.1,-563 1015.1,-557 1021.1,-557 1021.1,-557 1308,-557 1308,-557 1314,-557 1320,-563 1320,-569 1320,-569 1320,-581 1320,-581 1320,-587 1314,-593 1308,-593"/>
<text text-anchor="middle" x="1164.55" y="-572" font-family="Times,serif" font-size="10.00" fill="#000033">VinaiKopp\PostCodeFilter\UseCases\CustomerSpecifiesShippingAddress</text>
</g>
<!-- VinaiKopp\\PostCodeFilter\\UseCases\\CustomerSpecifiesShippingAddress&#45;&gt;VinaiKopp\\PostCodeFilter\\RuleComponents\\Country -->
<g id="edge71" class="edge"><title>VinaiKopp\\PostCodeFilter\\UseCases\\CustomerSpecifiesShippingAddress&#45;&gt;VinaiKopp\\PostCodeFilter\\RuleComponents\\Country</title>
<path fill="none" stroke="#999999" d="M1320.11,-576.461C1349.63,-576.685 1380.28,-576.882 1409.03,-577 1749.75,-578.399 1855.6,-626.977 2171.78,-500 2244.49,-470.8 2319.54,-416.452 2358.52,-386.047"/>
<polygon fill="#999999" stroke="#999999" points="2360.12,-387.457 2363.55,-382.101 2357.53,-384.153 2360.12,-387.457"/>
</g>
<!-- VinaiKopp\\PostCodeFilter\\UseCases\\CustomerSpecifiesShippingAddress&#45;&gt;VinaiKopp\\PostCodeFilter\\RuleComponents\\CustomerGroupId -->
<g id="edge70" class="edge"><title>VinaiKopp\\PostCodeFilter\\UseCases\\CustomerSpecifiesShippingAddress&#45;&gt;VinaiKopp\\PostCodeFilter\\RuleComponents\\CustomerGroupId</title>
<path fill="none" stroke="#999999" d="M1320.08,-582.303C1349.6,-583.427 1380.26,-584.41 1409.03,-585 1577.05,-588.449 1619.34,-593.92 1787.17,-585 1958.83,-575.876 2001.39,-566.761 2171.78,-544 2331.83,-522.62 2516.35,-491.795 2630.06,-472.08"/>
<polygon fill="#999999" stroke="#999999" points="2630.54,-474.128 2636.09,-471.033 2629.82,-469.99 2630.54,-474.128"/>
</g>
<!-- VinaiKopp\\PostCodeFilter\\UseCases\\CustomerSpecifiesShippingAddress&#45;&gt;VinaiKopp\\PostCodeFilter\\ReadModel\\RuleReader -->
<g id="edge68" class="edge"><title>VinaiKopp\\PostCodeFilter\\UseCases\\CustomerSpecifiesShippingAddress&#45;&gt;VinaiKopp\\PostCodeFilter\\ReadModel\\RuleReader</title>
<path fill="none" stroke="#999999" d="M1320.08,-562.166C1326.24,-559.512 1332.2,-556.473 1337.85,-553 1385.88,-523.482 1364.36,-482.401 1409.03,-448 1436.64,-426.731 1471.64,-411.982 1503.94,-401.914"/>
<polygon fill="#999999" stroke="#999999" points="1504.81,-403.845 1509.94,-400.088 1503.59,-399.827 1504.81,-403.845"/>
</g>
<!-- VinaiKopp\\PostCodeFilter\\UseCases\\CustomerSpecifiesShippingAddress&#45;&gt;VinaiKopp\\PostCodeFilter\\ReadModel\\RuleSpecByCountryAndGroupId -->
<g id="edge69" class="edge"><title>VinaiKopp\\PostCodeFilter\\UseCases\\CustomerSpecifiesShippingAddress&#45;&gt;VinaiKopp\\PostCodeFilter\\ReadModel\\RuleSpecByCountryAndGroupId</title>
<path fill="none" stroke="#999999" d="M1320.01,-579.601C1474.53,-583.063 1701.23,-584.727 1787.17,-568 1855.59,-554.684 1929.91,-521.744 1974.31,-499.891"/>
<polygon fill="#999999" stroke="#999999" points="1975.4,-501.696 1979.85,-497.15 1973.54,-497.933 1975.4,-501.696"/>
</g>
<!-- VinaiKopp_PostCodeFilter_Block_Adminhtml_Postcodefilter_Edit_Form -->
<g id="node29" class="node"><title>VinaiKopp_PostCodeFilter_Block_Adminhtml_Postcodefilter_Edit_Form</title>
<path fill="#9999cc" stroke="black" d="M367.518,-774C367.518,-774 78.1625,-774 78.1625,-774 72.1625,-774 66.1625,-768 66.1625,-762 66.1625,-762 66.1625,-750 66.1625,-750 66.1625,-744 72.1625,-738 78.1625,-738 78.1625,-738 367.518,-738 367.518,-738 373.518,-738 379.518,-744 379.518,-750 379.518,-750 379.518,-762 379.518,-762 379.518,-768 373.518,-774 367.518,-774"/>
<text text-anchor="middle" x="222.84" y="-753" font-family="Times,serif" font-size="10.00" fill="#000033">VinaiKopp_PostCodeFilter_Block_Adminhtml_Postcodefilter_Edit_Form</text>
</g>
<!-- VinaiKopp_PostCodeFilter_Block_Adminhtml_Postcodefilter_New_Form -->
<g id="node30" class="node"><title>VinaiKopp_PostCodeFilter_Block_Adminhtml_Postcodefilter_New_Form</title>
<path fill="#9999cc" stroke="black" d="M864.273,-774C864.273,-774 572.483,-774 572.483,-774 566.483,-774 560.483,-768 560.483,-762 560.483,-762 560.483,-750 560.483,-750 560.483,-744 566.483,-738 572.483,-738 572.483,-738 864.273,-738 864.273,-738 870.273,-738 876.273,-744 876.273,-750 876.273,-750 876.273,-762 876.273,-762 876.273,-768 870.273,-774 864.273,-774"/>
<text text-anchor="middle" x="718.378" y="-753" font-family="Times,serif" font-size="10.00" fill="#000033">VinaiKopp_PostCodeFilter_Block_Adminhtml_Postcodefilter_New_Form</text>
</g>
<!-- VinaiKopp_PostCodeFilter_Block_Adminhtml_Postcodefilter_Edit_Form&#45;&gt;VinaiKopp_PostCodeFilter_Block_Adminhtml_Postcodefilter_New_Form -->
<g id="edge79" class="edge"><title>VinaiKopp_PostCodeFilter_Block_Adminhtml_Postcodefilter_Edit_Form&#45;&gt;VinaiKopp_PostCodeFilter_Block_Adminhtml_Postcodefilter_New_Form</title>
<path fill="none" stroke="#999999" stroke-dasharray="5,2" d="M379.66,-756C435.259,-756 498.021,-756 554.221,-756"/>
<polygon fill="#999999" stroke="#999999" points="554.337,-758.1 560.337,-756 554.337,-753.9 554.337,-758.1"/>
</g>
<!-- VinaiKopp_PostCodeFilter_Block_Adminhtml_Postcodefilter_Edit -->
<g id="node31" class="node"><title>VinaiKopp_PostCodeFilter_Block_Adminhtml_Postcodefilter_Edit</title>
<path fill="#9999cc" stroke="black" d="M353.849,-856C353.849,-856 91.8321,-856 91.8321,-856 85.8321,-856 79.8321,-850 79.8321,-844 79.8321,-844 79.8321,-832 79.8321,-832 79.8321,-826 85.8321,-820 91.8321,-820 91.8321,-820 353.849,-820 353.849,-820 359.849,-820 365.849,-826 365.849,-832 365.849,-832 365.849,-844 365.849,-844 365.849,-850 359.849,-856 353.849,-856"/>
<text text-anchor="middle" x="222.84" y="-835" font-family="Times,serif" font-size="10.00" fill="#000033">VinaiKopp_PostCodeFilter_Block_Adminhtml_Postcodefilter_Edit</text>
</g>
<!-- VinaiKopp_PostCodeFilter_Block_Adminhtml_Postcodefilter_Grid -->
<g id="node32" class="node"><title>VinaiKopp_PostCodeFilter_Block_Adminhtml_Postcodefilter_Grid</title>
<path fill="#9999cc" stroke="black" d="M355.013,-938C355.013,-938 90.6674,-938 90.6674,-938 84.6674,-938 78.6674,-932 78.6674,-926 78.6674,-926 78.6674,-914 78.6674,-914 78.6674,-908 84.6674,-902 90.6674,-902 90.6674,-902 355.013,-902 355.013,-902 361.013,-902 367.013,-908 367.013,-914 367.013,-914 367.013,-926 367.013,-926 367.013,-932 361.013,-938 355.013,-938"/>
<text text-anchor="middle" x="222.84" y="-917" font-family="Times,serif" font-size="10.00" fill="#000033">VinaiKopp_PostCodeFilter_Block_Adminhtml_Postcodefilter_Grid</text>
</g>
<!-- VinaiKopp_PostCodeFilter_Block_Adminhtml_Postcodefilter_New -->
<g id="node33" class="node"><title>VinaiKopp_PostCodeFilter_Block_Adminhtml_Postcodefilter_New</title>
<path fill="#9999cc" stroke="black" d="M355.065,-1020C355.065,-1020 90.6156,-1020 90.6156,-1020 84.6156,-1020 78.6156,-1014 78.6156,-1008 78.6156,-1008 78.6156,-996 78.6156,-996 78.6156,-990 84.6156,-984 90.6156,-984 90.6156,-984 355.065,-984 355.065,-984 361.065,-984 367.065,-990 367.065,-996 367.065,-996 367.065,-1008 367.065,-1008 367.065,-1014 361.065,-1020 355.065,-1020"/>
<text text-anchor="middle" x="222.84" y="-999" font-family="Times,serif" font-size="10.00" fill="#000033">VinaiKopp_PostCodeFilter_Block_Adminhtml_Postcodefilter_New</text>
</g>
<!-- VinaiKopp_PostCodeFilter_Block_Adminhtml_Postcodefilter -->
<g id="node34" class="node"><title>VinaiKopp_PostCodeFilter_Block_Adminhtml_Postcodefilter</title>
<path fill="#9999cc" stroke="black" d="M343.183,-1102C343.183,-1102 102.498,-1102 102.498,-1102 96.4975,-1102 90.4975,-1096 90.4975,-1090 90.4975,-1090 90.4975,-1078 90.4975,-1078 90.4975,-1072 96.4975,-1066 102.498,-1066 102.498,-1066 343.183,-1066 343.183,-1066 349.183,-1066 355.183,-1072 355.183,-1078 355.183,-1078 355.183,-1090 355.183,-1090 355.183,-1096 349.183,-1102 343.183,-1102"/>
<text text-anchor="middle" x="222.84" y="-1081" font-family="Times,serif" font-size="10.00" fill="#000033">VinaiKopp_PostCodeFilter_Block_Adminhtml_Postcodefilter</text>
</g>
<!-- VinaiKopp_PostCodeFilter_Helper_Data -->
<g id="node35" class="node"><title>VinaiKopp_PostCodeFilter_Helper_Data</title>
<path fill="#9999cc" stroke="black" d="M796.81,-550C796.81,-550 639.946,-550 639.946,-550 633.946,-550 627.946,-544 627.946,-538 627.946,-538 627.946,-526 627.946,-526 627.946,-520 633.946,-514 639.946,-514 639.946,-514 796.81,-514 796.81,-514 802.81,-514 808.81,-520 808.81,-526 808.81,-526 808.81,-538 808.81,-538 808.81,-544 802.81,-550 796.81,-550"/>
<text text-anchor="middle" x="718.378" y="-529" font-family="Times,serif" font-size="10.00" fill="#000033">VinaiKopp_PostCodeFilter_Helper_Data</text>
</g>
<!-- VinaiKopp_PostCodeFilter_Helper_Data&#45;&gt;VinaiKopp\\PostCodeFilter\\RuleRepository -->
<g id="edge81" class="edge"><title>VinaiKopp_PostCodeFilter_Helper_Data&#45;&gt;VinaiKopp\\PostCodeFilter\\RuleRepository</title>
<path fill="none" stroke="#999999" d="M794.977,-513.959C874.624,-494.951 999.645,-465.115 1081.61,-445.556"/>
<polygon fill="#999999" stroke="#999999" points="1082.57,-447.484 1087.92,-444.048 1081.6,-443.398 1082.57,-447.484"/>
</g>
<!-- VinaiKopp_PostCodeFilter_Helper_Data&#45;&gt;VinaiKopp\\PostCodeFilter\\RuleStorage -->
<g id="edge80" class="edge"><title>VinaiKopp_PostCodeFilter_Helper_Data&#45;&gt;VinaiKopp\\PostCodeFilter\\RuleStorage</title>
<path fill="none" stroke="#999999" d="M778.343,-550.053C832.946,-565.767 916.714,-587.345 991.252,-596 1144.27,-613.767 1184.68,-612.355 1337.85,-596 1402.44,-589.104 1474.56,-572.804 1526.31,-559.558"/>
<polygon fill="#999999" stroke="#999999" points="1526.91,-561.571 1532.2,-558.041 1525.86,-557.504 1526.91,-561.571"/>
</g>
<!-- VinaiKopp_PostCodeFilter_Helper_Data&#45;&gt;VinaiKopp\\PostCodeFilter\\UseCases\\AdminViewsRuleList -->
<g id="edge83" class="edge"><title>VinaiKopp_PostCodeFilter_Helper_Data&#45;&gt;VinaiKopp\\PostCodeFilter\\UseCases\\AdminViewsRuleList</title>
<path fill="none" stroke="#999999" d="M808.996,-532C872.712,-532 959.352,-532 1031.04,-532"/>
<polygon fill="#999999" stroke="#999999" points="1031.05,-534.1 1037.05,-532 1031.05,-529.9 1031.05,-534.1"/>
</g>
<!-- VinaiKopp_PostCodeFilter_Helper_Data&#45;&gt;VinaiKopp\\PostCodeFilter\\UseCases\\CustomerSpecifiesShippingAddress -->
<g id="edge82" class="edge"><title>VinaiKopp_PostCodeFilter_Helper_Data&#45;&gt;VinaiKopp\\PostCodeFilter\\UseCases\\CustomerSpecifiesShippingAddress</title>
<path fill="none" stroke="#999999" d="M808.996,-540.676C864.477,-546.047 937.341,-553.101 1002.58,-559.416"/>
<polygon fill="#999999" stroke="#999999" points="1002.69,-561.537 1008.86,-560.025 1003.09,-557.356 1002.69,-561.537"/>
</g>
<!-- VinaiKopp_PostCodeFilter_Model_Observer -->
<g id="node36" class="node"><title>VinaiKopp_PostCodeFilter_Model_Observer</title>
<path fill="#9999cc" stroke="black" d="M309.447,-604C309.447,-604 136.233,-604 136.233,-604 130.233,-604 124.233,-598 124.233,-592 124.233,-592 124.233,-580 124.233,-580 124.233,-574 130.233,-568 136.233,-568 136.233,-568 309.447,-568 309.447,-568 315.447,-568 321.447,-574 321.447,-580 321.447,-580 321.447,-592 321.447,-592 321.447,-598 315.447,-604 309.447,-604"/>
<text text-anchor="middle" x="222.84" y="-583" font-family="Times,serif" font-size="10.00" fill="#000033">VinaiKopp_PostCodeFilter_Model_Observer</text>
</g>
<!-- VinaiKopp_PostCodeFilter_Model_Observer&#45;&gt;VinaiKopp\\PostCodeFilter\\UseCases\\CustomerSpecifiesShippingAddress -->
<g id="edge84" class="edge"><title>VinaiKopp_PostCodeFilter_Model_Observer&#45;&gt;VinaiKopp\\PostCodeFilter\\UseCases\\CustomerSpecifiesShippingAddress</title>
<path fill="none" stroke="#999999" d="M321.484,-585.912C458.719,-585.652 716.464,-584.667 936.075,-581 957.741,-580.638 980.564,-580.156 1003.06,-579.622"/>
<polygon fill="#999999" stroke="#999999" points="1003.13,-581.721 1009.08,-579.477 1003.03,-577.522 1003.13,-581.721"/>
</g>
<!-- VinaiKopp_PostCodeFilter_Model_Observer&#45;&gt;VinaiKopp_PostCodeFilter_Helper_Data -->
<g id="edge85" class="edge"><title>VinaiKopp_PostCodeFilter_Model_Observer&#45;&gt;VinaiKopp_PostCodeFilter_Helper_Data</title>
<path fill="none" stroke="#999999" d="M321.642,-575.299C408.637,-565.781 535.105,-551.943 621.509,-542.489"/>
<polygon fill="#999999" stroke="#999999" points="621.923,-544.557 627.659,-541.816 621.467,-540.382 621.923,-544.557"/>
</g>
<!-- VinaiKopp_PostCodeFilter_Model_Resource_RuleStorage -->
<g id="node37" class="node"><title>VinaiKopp_PostCodeFilter_Model_Resource_RuleStorage</title>
<path fill="#9999cc" stroke="black" d="M1278.65,-676C1278.65,-676 1050.45,-676 1050.45,-676 1044.45,-676 1038.45,-670 1038.45,-664 1038.45,-664 1038.45,-652 1038.45,-652 1038.45,-646 1044.45,-640 1050.45,-640 1050.45,-640 1278.65,-640 1278.65,-640 1284.65,-640 1290.65,-646 1290.65,-652 1290.65,-652 1290.65,-664 1290.65,-664 1290.65,-670 1284.65,-676 1278.65,-676"/>
<text text-anchor="middle" x="1164.55" y="-655" font-family="Times,serif" font-size="10.00" fill="#000033">VinaiKopp_PostCodeFilter_Model_Resource_RuleStorage</text>
</g>
<!-- VinaiKopp_PostCodeFilter_Model_Resource_RuleStorage&#45;&gt;VinaiKopp\\PostCodeFilter\\RuleStorage -->
<g id="edge86" class="edge"><title>VinaiKopp_PostCodeFilter_Model_Resource_RuleStorage&#45;&gt;VinaiKopp\\PostCodeFilter\\RuleStorage</title>
<path fill="none" stroke="#999999" stroke-dasharray="5,2" d="M1271.27,-639.962C1293.38,-635.571 1316.47,-630.528 1337.85,-625 1409.6,-606.446 1490.49,-578.819 1542.55,-560.141"/>
<polygon fill="#999999" stroke="#999999" points="1543.5,-562.03 1548.43,-558.022 1542.08,-558.078 1543.5,-562.03"/>
</g>
<!-- VinaiKopp_PostCodeFilter_Model_RuleCollection -->
<g id="node38" class="node"><title>VinaiKopp_PostCodeFilter_Model_RuleCollection</title>
<path fill="#9999cc" stroke="black" d="M321.344,-690C321.344,-690 124.337,-690 124.337,-690 118.337,-690 112.337,-684 112.337,-678 112.337,-678 112.337,-666 112.337,-666 112.337,-660 118.337,-654 124.337,-654 124.337,-654 321.344,-654 321.344,-654 327.344,-654 333.344,-660 333.344,-666 333.344,-666 333.344,-678 333.344,-678 333.344,-684 327.344,-690 321.344,-690"/>
<text text-anchor="middle" x="222.84" y="-669" font-family="Times,serif" font-size="10.00" fill="#000033">VinaiKopp_PostCodeFilter_Model_RuleCollection</text>
</g>
<!-- VinaiKopp_PostCodeFilter_Model_RuleCollection&#45;&gt;VinaiKopp\\PostCodeFilter\\ReadModel\\Rule -->
<g id="edge90" class="edge"><title>VinaiKopp_PostCodeFilter_Model_RuleCollection&#45;&gt;VinaiKopp\\PostCodeFilter\\ReadModel\\Rule</title>
<path fill="none" stroke="#999999" d="M333.626,-681.489C384.685,-685.596 446.247,-690.114 501.681,-693 687.271,-702.662 1154.09,-734.773 1337.85,-707 1544.54,-675.76 1620.47,-694.121 1787.17,-568 1834.06,-532.521 1816.85,-497.828 1859.17,-457 1891.03,-426.266 1934.84,-401.199 1967.81,-384.866"/>
<polygon fill="#999999" stroke="#999999" points="1968.96,-386.645 1973.42,-382.12 1967.11,-382.872 1968.96,-386.645"/>
</g>
<!-- VinaiKopp_PostCodeFilter_Model_RuleCollection&#45;&gt;VinaiKopp\\PostCodeFilter\\UseCases\\AdminViewsRuleList -->
<g id="edge88" class="edge"><title>VinaiKopp_PostCodeFilter_Model_RuleCollection&#45;&gt;VinaiKopp\\PostCodeFilter\\UseCases\\AdminViewsRuleList</title>
<path fill="none" stroke="#999999" d="M333.487,-679.67C520.793,-691.807 887.027,-710.964 936.075,-679 986.953,-645.844 942.581,-590.317 991.252,-554 1003.2,-545.084 1016.96,-538.792 1031.39,-534.441"/>
<polygon fill="#999999" stroke="#999999" points="1031.96,-536.462 1037.16,-532.81 1030.82,-532.42 1031.96,-536.462"/>
</g>
<!-- VinaiKopp_PostCodeFilter_Model_RuleCollection&#45;&gt;VinaiKopp_PostCodeFilter_Helper_Data -->
<g id="edge89" class="edge"><title>VinaiKopp_PostCodeFilter_Model_RuleCollection&#45;&gt;VinaiKopp_PostCodeFilter_Helper_Data</title>
<path fill="none" stroke="#999999" d="M333.528,-661.83C370.23,-656.326 410.891,-647.892 446.681,-635 473.288,-625.416 475.886,-614.596 501.681,-603 547.871,-582.236 602.017,-564.433 644.504,-551.847"/>
<polygon fill="#999999" stroke="#999999" points="645.256,-553.815 650.419,-550.106 644.071,-549.786 645.256,-553.815"/>
</g>
<!-- Varien_Data_Collection_Db -->
<g id="node39" class="node"><title>Varien_Data_Collection_Db</title>
<path fill="#9999cc" stroke="black" d="M771.235,-648C771.235,-648 665.52,-648 665.52,-648 659.52,-648 653.52,-642 653.52,-636 653.52,-636 653.52,-624 653.52,-624 653.52,-618 659.52,-612 665.52,-612 665.52,-612 771.235,-612 771.235,-612 777.235,-612 783.235,-618 783.235,-624 783.235,-624 783.235,-636 783.235,-636 783.235,-642 777.235,-648 771.235,-648"/>
<text text-anchor="middle" x="718.378" y="-627" font-family="Times,serif" font-size="10.00" fill="#000033">Varien_Data_Collection_Db</text>
</g>
<!-- VinaiKopp_PostCodeFilter_Model_RuleCollection&#45;&gt;Varien_Data_Collection_Db -->
<g id="edge87" class="edge"><title>VinaiKopp_PostCodeFilter_Model_RuleCollection&#45;&gt;Varien_Data_Collection_Db</title>
<path fill="none" stroke="#999999" stroke-dasharray="5,2" d="M333.372,-662.679C429.136,-654.529 565.331,-642.939 647.158,-635.976"/>
<polygon fill="#999999" stroke="#999999" points="647.641,-638.042 653.441,-635.441 647.285,-633.857 647.641,-638.042"/>
</g>
<!-- VinaiKopp_PostCodeFilter_Adminhtml_Vinaikopp_PostcodefilterController -->
<g id="node40" class="node"><title>VinaiKopp_PostCodeFilter_Adminhtml_Vinaikopp_PostcodefilterController</title>
<path fill="#9999cc" stroke="black" d="M372.521,-248C372.521,-248 73.1595,-248 73.1595,-248 67.1595,-248 61.1595,-242 61.1595,-236 61.1595,-236 61.1595,-224 61.1595,-224 61.1595,-218 67.1595,-212 73.1595,-212 73.1595,-212 372.521,-212 372.521,-212 378.521,-212 384.521,-218 384.521,-224 384.521,-224 384.521,-236 384.521,-236 384.521,-242 378.521,-248 372.521,-248"/>
<text text-anchor="middle" x="222.84" y="-227" font-family="Times,serif" font-size="10.00" fill="#000033">VinaiKopp_PostCodeFilter_Adminhtml_Vinaikopp_PostcodefilterController</text>
</g>
<!-- VinaiKopp_PostCodeFilter_Adminhtml_Vinaikopp_PostcodefilterController&#45;&gt;VinaiKopp\\PostCodeFilter\\UseCases\\AdminAddsRule -->
<g id="edge91" class="edge"><title>VinaiKopp_PostCodeFilter_Adminhtml_Vinaikopp_PostcodefilterController&#45;&gt;VinaiKopp\\PostCodeFilter\\UseCases\\AdminAddsRule</title>
<path fill="none" stroke="#999999" d="M326.518,-211.99C378.829,-203.26 443.513,-193.146 501.681,-186 689.183,-162.966 907.665,-145.666 1040.75,-136.19"/>
<polygon fill="#999999" stroke="#999999" points="1041.18,-138.265 1047.02,-135.745 1040.89,-134.075 1041.18,-138.265"/>
</g>
<!-- VinaiKopp_PostCodeFilter_Adminhtml_Vinaikopp_PostcodefilterController&#45;&gt;VinaiKopp\\PostCodeFilter\\UseCases\\AdminDeletesRule -->
<g id="edge92" class="edge"><title>VinaiKopp_PostCodeFilter_Adminhtml_Vinaikopp_PostcodefilterController&#45;&gt;VinaiKopp\\PostCodeFilter\\UseCases\\AdminDeletesRule</title>
<path fill="none" stroke="#999999" d="M384.581,-242.658C568.969,-257.178 867.535,-280.689 1036.46,-293.992"/>
<polygon fill="#999999" stroke="#999999" points="1036.51,-296.102 1042.66,-294.48 1036.84,-291.915 1036.51,-296.102"/>
</g>
<!-- VinaiKopp_PostCodeFilter_Adminhtml_Vinaikopp_PostcodefilterController&#45;&gt;VinaiKopp\\PostCodeFilter\\UseCases\\AdminUpdatesRule -->
<g id="edge93" class="edge"><title>VinaiKopp_PostCodeFilter_Adminhtml_Vinaikopp_PostcodefilterController&#45;&gt;VinaiKopp\\PostCodeFilter\\UseCases\\AdminUpdatesRule</title>
<path fill="none" stroke="#999999" d="M384.581,-230C568.451,-230 865.858,-230 1035.03,-230"/>
<polygon fill="#999999" stroke="#999999" points="1035.24,-232.1 1041.24,-230 1035.24,-227.9 1035.24,-232.1"/>
</g>
<!-- VinaiKopp_PostCodeFilter_Adminhtml_Vinaikopp_PostcodefilterController&#45;&gt;VinaiKopp\\PostCodeFilter\\UseCases\\AdminViewsSingleRule -->
<g id="edge94" class="edge"><title>VinaiKopp_PostCodeFilter_Adminhtml_Vinaikopp_PostcodefilterController&#45;&gt;VinaiKopp\\PostCodeFilter\\UseCases\\AdminViewsSingleRule</title>
<path fill="none" stroke="#999999" d="M384.581,-219.908C565.303,-208.561 855.708,-190.328 1026.23,-179.622"/>
<polygon fill="#999999" stroke="#999999" points="1026.39,-181.716 1032.24,-179.244 1026.13,-177.524 1026.39,-181.716"/>
</g>
<!-- VinaiKopp_PostCodeFilter_Adminhtml_Vinaikopp_PostcodefilterController&#45;&gt;VinaiKopp_PostCodeFilter_Helper_Data -->
<g id="edge95" class="edge"><title>VinaiKopp_PostCodeFilter_Adminhtml_Vinaikopp_PostcodefilterController&#45;&gt;VinaiKopp_PostCodeFilter_Helper_Data</title>
<path fill="none" stroke="#999999" d="M253.602,-248.211C339.933,-301.038 590.158,-454.153 682.558,-510.694"/>
<polygon fill="#999999" stroke="#999999" points="681.676,-512.615 687.89,-513.956 683.868,-509.033 681.676,-512.615"/>
</g>
<!-- VinaiKopp_PostCodeFilter_Frontend_CheckController -->
<g id="node41" class="node"><title>VinaiKopp_PostCodeFilter_Frontend_CheckController</title>
<path fill="#9999cc" stroke="black" d="M329.447,-520C329.447,-520 116.234,-520 116.234,-520 110.234,-520 104.234,-514 104.234,-508 104.234,-508 104.234,-496 104.234,-496 104.234,-490 110.234,-484 116.234,-484 116.234,-484 329.447,-484 329.447,-484 335.447,-484 341.447,-490 341.447,-496 341.447,-496 341.447,-508 341.447,-508 341.447,-514 335.447,-520 329.447,-520"/>
<text text-anchor="middle" x="222.84" y="-499" font-family="Times,serif" font-size="10.00" fill="#000033">VinaiKopp_PostCodeFilter_Frontend_CheckController</text>
</g>
<!-- VinaiKopp_PostCodeFilter_Frontend_CheckController&#45;&gt;VinaiKopp\\PostCodeFilter\\UseCases\\CustomerSpecifiesShippingAddress -->
<g id="edge96" class="edge"><title>VinaiKopp_PostCodeFilter_Frontend_CheckController&#45;&gt;VinaiKopp\\PostCodeFilter\\UseCases\\CustomerSpecifiesShippingAddress</title>
<path fill="none" stroke="#999999" d="M308.404,-483.965C445.372,-458.724 721.988,-424.397 936.075,-505 966.495,-516.453 961.593,-539.703 991.252,-553 995.042,-554.699 998.923,-556.279 1002.87,-557.748"/>
<polygon fill="#999999" stroke="#999999" points="1002.35,-559.792 1008.71,-559.821 1003.76,-555.834 1002.35,-559.792"/>
</g>
<!-- VinaiKopp_PostCodeFilter_Frontend_CheckController&#45;&gt;VinaiKopp_PostCodeFilter_Helper_Data -->
<g id="edge97" class="edge"><title>VinaiKopp_PostCodeFilter_Frontend_CheckController&#45;&gt;VinaiKopp_PostCodeFilter_Helper_Data</title>
<path fill="none" stroke="#999999" d="M341.741,-509.167C427.336,-514.37 541.683,-521.32 621.647,-526.181"/>
<polygon fill="#999999" stroke="#999999" points="621.709,-528.288 627.825,-526.556 621.964,-524.096 621.709,-528.288"/>
</g>
</g>
</svg>
